<?xml version="1.0" encoding="UTF-8"?>
<svg width="41px" height="36px" viewBox="0 0 41 36" version="1.1" xmlns="http://www.w3.org/2000/svg" xmlns:xlink="http://www.w3.org/1999/xlink">
    <!-- Generator: Sketch 58 (84663) - https://sketch.com -->
    <title>Activ Health</title>
    <desc>Created with Sketch.</desc>
    <defs>
        <path d="M17.9637907,5.72836047 C15.7246047,3.59515116 11.6191047,0.156034884 8.41294186,0.156034884 C3.7887907,0.156034884 0.0266162791,3.91796512 0.0266162791,8.54211628 C0.0266162791,13.1665116 3.7887907,16.9284419 8.41294186,16.9284419 C11.6191047,16.9284419 15.7246047,13.4890814 17.9637907,11.3558721 C20.2029767,13.4890814 24.3084767,16.9284419 27.5148837,16.9284419 C32.1390349,16.9284419 35.9012093,13.1665116 35.9012093,8.54211628 C35.9012093,3.91796512 32.1390349,0.156034884 27.5148837,0.156034884 C24.3084767,0.156034884 20.2029767,3.59515116 17.9637907,5.72836047 M20.7643605,8.54016279 C23.901907,5.54106977 26.5696395,4.13211628 27.5148837,4.13211628 C29.9464884,4.13211628 31.9246395,6.11051163 31.9246395,8.54211628 C31.9246395,10.9739651 29.9464884,12.9521163 27.5148837,12.9521163 C26.4050581,12.9521163 23.6606512,11.2975116 20.7643605,8.54016279 M4.00269767,8.54211628 C4.00269767,6.11051163 5.98133721,4.13211628 8.41294186,4.13211628 C9.52227907,4.13211628 12.2671744,5.78647674 15.1634651,8.54406977 C12.0254302,11.543407 9.35794186,12.9521163 8.41294186,12.9521163 C5.98133721,12.9521163 4.00269767,10.9739651 4.00269767,8.54211628" id="path-1"></path>
        <path d="M17.9637907,5.72836047 C15.7246047,3.59515116 11.6191047,0.156034884 8.41294186,0.156034884 C3.7887907,0.156034884 0.0266162791,3.91796512 0.0266162791,8.54211628 C0.0266162791,13.1665116 3.7887907,16.9284419 8.41294186,16.9284419 C11.6191047,16.9284419 15.7246047,13.4890814 17.9637907,11.3558721 C20.2029767,13.4890814 24.3084767,16.9284419 27.5148837,16.9284419 C32.1390349,16.9284419 35.9012093,13.1665116 35.9012093,8.54211628 C35.9012093,3.91796512 32.1390349,0.156034884 27.5148837,0.156034884 C24.3084767,0.156034884 20.2029767,3.59515116 17.9637907,5.72836047 Z M20.7643605,8.54016279 C23.901907,5.54106977 26.5696395,4.13211628 27.5148837,4.13211628 C29.9464884,4.13211628 31.9246395,6.11051163 31.9246395,8.54211628 C31.9246395,10.9739651 29.9464884,12.9521163 27.5148837,12.9521163 C26.4050581,12.9521163 23.6606512,11.2975116 20.7643605,8.54016279 Z M4.00269767,8.54211628 C4.00269767,6.11051163 5.98133721,4.13211628 8.41294186,4.13211628 C9.52227907,4.13211628 12.2671744,5.78647674 15.1634651,8.54406977 C12.0254302,11.543407 9.35794186,12.9521163 8.41294186,12.9521163 C5.98133721,12.9521163 4.00269767,10.9739651 4.00269767,8.54211628 Z" id="path-3"></path>
        <path d="M17.9637907,5.72836047 C15.7246047,3.59515116 11.6191047,0.156034884 8.41294186,0.156034884 C3.7887907,0.156034884 0.0266162791,3.91796512 0.0266162791,8.54211628 C0.0266162791,13.1665116 3.7887907,16.9284419 8.41294186,16.9284419 C11.6191047,16.9284419 15.7246047,13.4890814 17.9637907,11.3558721 C20.2029767,13.4890814 24.3084767,16.9284419 27.5148837,16.9284419 C32.1390349,16.9284419 35.9012093,13.1665116 35.9012093,8.54211628 C35.9012093,3.91796512 32.1390349,0.156034884 27.5148837,0.156034884 C24.3084767,0.156034884 20.2029767,3.59515116 17.9637907,5.72836047 M20.7643605,8.54016279 C23.901907,5.54106977 26.5696395,4.13211628 27.5148837,4.13211628 C29.9464884,4.13211628 31.9246395,6.11051163 31.9246395,8.54211628 C31.9246395,10.9739651 29.9464884,12.9521163 27.5148837,12.9521163 C26.4050581,12.9521163 23.6606512,11.2975116 20.7643605,8.54016279 M4.00269767,8.54211628 C4.00269767,6.11051163 5.98133721,4.13211628 8.41294186,4.13211628 C9.52227907,4.13211628 12.2671744,5.78647674 15.1634651,8.54406977 C12.0254302,11.543407 9.35794186,12.9521163 8.41294186,12.9521163 C5.98133721,12.9521163 4.00269767,10.9739651 4.00269767,8.54211628" id="path-5"></path>
        <path d="M17.9637907,5.72836047 C15.7246047,3.59515116 11.6191047,0.156034884 8.41294186,0.156034884 C3.7887907,0.156034884 0.0266162791,3.91796512 0.0266162791,8.54211628 C0.0266162791,13.1665116 3.7887907,16.9284419 8.41294186,16.9284419 C11.6191047,16.9284419 15.7246047,13.4890814 17.9637907,11.3558721 C20.2029767,13.4890814 24.3084767,16.9284419 27.5148837,16.9284419 C32.1390349,16.9284419 35.9012093,13.1665116 35.9012093,8.54211628 C35.9012093,3.91796512 32.1390349,0.156034884 27.5148837,0.156034884 C24.3084767,0.156034884 20.2029767,3.59515116 17.9637907,5.72836047 M20.7643605,8.54016279 C23.901907,5.54106977 26.5696395,4.13211628 27.5148837,4.13211628 C29.9464884,4.13211628 31.9246395,6.11051163 31.9246395,8.54211628 C31.9246395,10.9739651 29.9464884,12.9521163 27.5148837,12.9521163 C26.4050581,12.9521163 23.6606512,11.2975116 20.7643605,8.54016279 M4.00269767,8.54211628 C4.00269767,6.11051163 5.98133721,4.13211628 8.41294186,4.13211628 C9.52227907,4.13211628 12.2671744,5.78647674 15.1634651,8.54406977 C12.0254302,11.543407 9.35794186,12.9521163 8.41294186,12.9521163 C5.98133721,12.9521163 4.00269767,10.9739651 4.00269767,8.54211628" id="path-7"></path>
        <path d="M17.9637907,5.72836047 C15.7246047,3.59515116 11.6191047,0.156034884 8.41294186,0.156034884 C3.7887907,0.156034884 0.0266162791,3.91796512 0.0266162791,8.54211628 C0.0266162791,13.1665116 3.7887907,16.9284419 8.41294186,16.9284419 C11.6191047,16.9284419 15.7246047,13.4890814 17.9637907,11.3558721 C20.2029767,13.4890814 24.3084767,16.9284419 27.5148837,16.9284419 C32.1390349,16.9284419 35.9012093,13.1665116 35.9012093,8.54211628 C35.9012093,3.91796512 32.1390349,0.156034884 27.5148837,0.156034884 C24.3084767,0.156034884 20.2029767,3.59515116 17.9637907,5.72836047 M20.7643605,8.54016279 C23.901907,5.54106977 26.5696395,4.13211628 27.5148837,4.13211628 C29.9464884,4.13211628 31.9246395,6.11051163 31.9246395,8.54211628 C31.9246395,10.9739651 29.9464884,12.9521163 27.5148837,12.9521163 C26.4050581,12.9521163 23.6606512,11.2975116 20.7643605,8.54016279 M4.00269767,8.54211628 C4.00269767,6.11051163 5.98133721,4.13211628 8.41294186,4.13211628 C9.52227907,4.13211628 12.2671744,5.78647674 15.1634651,8.54406977 C12.0254302,11.543407 9.35794186,12.9521163 8.41294186,12.9521163 C5.98133721,12.9521163 4.00269767,10.9739651 4.00269767,8.54211628" id="path-9"></path>
        <path d="M17.9637907,5.72836047 C15.7246047,3.59515116 11.6191047,0.156034884 8.41294186,0.156034884 C3.7887907,0.156034884 0.0266162791,3.91796512 0.0266162791,8.54211628 C0.0266162791,13.1665116 3.7887907,16.9284419 8.41294186,16.9284419 C11.6191047,16.9284419 15.7246047,13.4890814 17.9637907,11.3558721 C20.2029767,13.4890814 24.3084767,16.9284419 27.5148837,16.9284419 C32.1390349,16.9284419 35.9012093,13.1665116 35.9012093,8.54211628 C35.9012093,3.91796512 32.1390349,0.156034884 27.5148837,0.156034884 C24.3084767,0.156034884 20.2029767,3.59515116 17.9637907,5.72836047 Z M20.7643605,8.54016279 C23.901907,5.54106977 26.5696395,4.13211628 27.5148837,4.13211628 C29.9464884,4.13211628 31.9246395,6.11051163 31.9246395,8.54211628 C31.9246395,10.9739651 29.9464884,12.9521163 27.5148837,12.9521163 C26.4050581,12.9521163 23.6606512,11.2975116 20.7643605,8.54016279 Z M4.00269767,8.54211628 C4.00269767,6.11051163 5.98133721,4.13211628 8.41294186,4.13211628 C9.52227907,4.13211628 12.2671744,5.78647674 15.1634651,8.54406977 C12.0254302,11.543407 9.35794186,12.9521163 8.41294186,12.9521163 C5.98133721,12.9521163 4.00269767,10.9739651 4.00269767,8.54211628 Z" id="path-11"></path>
        <path d="M1.35816279,1.25560465 C1.00946512,2.37837209 0.152860465,2.57396512 0.152860465,2.57396512 L0.152860465,3.60052326 C0.152860465,3.60052326 1.827,4.89519767 2.69727907,4.89519767 C3.56804651,4.89519767 4.1929186,4.51573256 4.1929186,4.51573256 C4.1929186,4.51573256 4.68397674,4.87297674 6.06753488,4.69423256 C7.4515814,4.51573256 9.43803488,3.26574419 9.4605,2.95318605 C9.48272093,2.64111628 9.01388372,2.59618605 8.50060465,2.57396512 C7.98732558,2.5515 7.02743023,2.12759302 6.49193023,1.83725581 C5.95594186,1.54716279 4.30426744,0.22855814 3.81345349,0.22855814 C3.67011628,0.22855814 3.43594186,0.206093023 3.16587209,0.206093023 C2.50998837,0.206093023 1.64288372,0.339662791 1.35816279,1.25560465 Z" id="path-13"></path>
        <path d="M1.35816279,1.25560465 C1.00946512,2.37837209 0.152860465,2.57396512 0.152860465,2.57396512 L0.152860465,3.60052326 C0.152860465,3.60052326 1.827,4.89519767 2.69727907,4.89519767 C3.56804651,4.89519767 4.1929186,4.51573256 4.1929186,4.51573256 C4.1929186,4.51573256 4.68397674,4.87297674 6.06753488,4.69423256 C7.4515814,4.51573256 9.43803488,3.26574419 9.4605,2.95318605 C9.48272093,2.64111628 9.01388372,2.59618605 8.50060465,2.57396512 C7.98732558,2.5515 7.02743023,2.12759302 6.49193023,1.83725581 C5.95594186,1.54716279 4.30426744,0.22855814 3.81345349,0.22855814 C3.67011628,0.22855814 3.43594186,0.206093023 3.16587209,0.206093023 C2.50998837,0.206093023 1.64288372,0.339662791 1.35816279,1.25560465" id="path-15"></path>
        <path d="M5.8099186,0.22855814 C5.31934884,0.22855814 3.66743023,1.54716279 3.13144186,1.83725581 C2.59594186,2.12759302 1.63604651,2.5515 1.12276744,2.57396512 C0.609488372,2.59618605 0.140651163,2.64111628 0.163116279,2.95318605 C0.185337209,3.26574419 2.1717907,4.51573256 3.55583721,4.69423256 C4.93939535,4.87297674 5.43069767,4.51573256 5.43069767,4.51573256 C5.43069767,4.51573256 6.05532558,4.89519767 6.92609302,4.89519767 C7.79637209,4.89519767 9.47051163,3.60052326 9.47051163,3.60052326 L9.47051163,2.57396512 C9.47051163,2.57396512 8.61415116,2.37837209 8.26545349,1.25560465 C7.98073256,0.339662791 7.11362791,0.206093023 6.4575,0.206093023 C6.18743023,0.206093023 5.95325581,0.22855814 5.8099186,0.22855814 Z" id="path-17"></path>
        <path d="M5.8099186,0.22855814 C5.31934884,0.22855814 3.66743023,1.54716279 3.13144186,1.83725581 C2.59594186,2.12759302 1.63604651,2.5515 1.12276744,2.57396512 C0.609488372,2.59618605 0.140651163,2.64111628 0.163116279,2.95318605 C0.185337209,3.26574419 2.1717907,4.51573256 3.55583721,4.69423256 C4.93939535,4.87297674 5.43069767,4.51573256 5.43069767,4.51573256 C5.43069767,4.51573256 6.05532558,4.89519767 6.92609302,4.89519767 C7.79637209,4.89519767 9.47051163,3.60052326 9.47051163,3.60052326 L9.47051163,2.57396512 C9.47051163,2.57396512 8.61415116,2.37837209 8.26545349,1.25560465 C7.98073256,0.339662791 7.11362791,0.206093023 6.4575,0.206093023 C6.18743023,0.206093023 5.95325581,0.22855814 5.8099186,0.22855814" id="path-19"></path>
        <path d="M0.0180697674,1.29198837 C-0.110127907,2.32294186 0.686162791,3.18369767 2.38154651,3.8535 C2.46627907,3.88695349 2.55101163,3.92065116 2.64038372,3.95288372 C2.73659302,3.98804651 2.83451163,4.00465116 2.93096512,4.00465116 C3.03230233,4.00465116 3.13119767,3.98438372 3.22472093,3.9497093 C3.44986047,3.86595349 3.63910465,3.68989535 3.72774419,3.44644186 C3.88793023,3.00739535 3.66230233,2.52195349 3.22472093,2.36054651 C3.2235,2.36030233 3.22252326,2.35956977 3.22130233,2.3590814 C2.86503488,2.2294186 2.5917907,2.10634884 2.38154651,1.99524419 C1.90538372,1.74348837 1.75423256,1.55326744 1.71272093,1.4875814 C1.77498837,1.38746512 1.98987209,1.21165116 2.38154651,1.03559302 L2.38154651,0.589709302 C2.28387209,0.57627907 2.18351163,0.563825581 2.07924419,0.553325581 C1.50809302,0.494965116 1.00238372,0.388011628 0.565290698,0.241011628 C0.235639535,0.583116279 0.0610465116,0.947930233 0.0180697674,1.29198837" id="path-21"></path>
    </defs>
    <g id="Reco-Page" stroke="none" stroke-width="1" fill="none" fill-rule="evenodd">
        <g id="Refer_landing" transform="translate(-21.000000, -555.000000)">
            <g id="Group-6" transform="translate(10.000000, 531.000000)">
                <g id="Group-2-Copy-2">
                    <g id="Activ-Health" transform="translate(11.000000, 24.000000)">
                        <g id="Group-85" fill-rule="nonzero">
                            <path d="M34.9930081,17.6257395 C34.9930081,27.2720651 27.1734384,35.0911465 17.5276012,35.0911465 C7.88176395,35.0911465 0.06195,27.2720651 0.06195,17.6257395 C0.06195,7.97990233 7.88176395,0.16082093 17.5276012,0.16082093 C27.1734384,0.16082093 34.9930081,7.97990233 34.9930081,17.6257395" id="Fill-79" fill="#F9DED5"></path>
                            <path d="M31.1776012,23.9404884 C30.0680198,23.9404884 27.3236128,22.2861279 24.4270779,19.5285349 C27.5648686,16.5291977 30.232357,15.1204884 31.1776012,15.1204884 C33.6092058,15.1204884 35.5876012,17.0986395 35.5876012,19.5304884 C35.5876012,21.962093 33.6092058,23.9404884 31.1776012,23.9404884 M12.0756593,23.9404884 C9.64405465,23.9404884 7.6656593,21.962093 7.6656593,19.5304884 C7.6656593,17.0986395 9.64405465,15.1204884 12.0756593,15.1204884 C13.1849965,15.1204884 15.9298919,16.7748488 18.8261826,19.5324419 C15.6881477,22.5315349 13.0209035,23.9404884 12.0756593,23.9404884 M31.1776012,11.144407 C27.9714384,11.144407 23.8656942,14.5835233 21.6267523,16.7167326 C19.3875663,14.5835233 15.2818221,11.144407 12.0756593,11.144407 C7.45150814,11.144407 3.68957791,14.9063372 3.68957791,19.5304884 C3.68957791,24.1548837 7.45150814,27.916814 12.0756593,27.916814 C15.2818221,27.916814 19.3875663,24.4774535 21.6267523,22.3442442 C23.8656942,24.4774535 27.9714384,27.916814 31.1776012,27.916814 C35.8017523,27.916814 39.5639267,24.1548837 39.5639267,19.5304884 C39.5639267,14.9063372 35.8017523,11.144407 31.1776012,11.144407" id="Fill-81" fill="#FFFFFE"></path>
                            <path d="M12.075757,15.36465 C9.77869884,15.36465 7.90969884,17.2334058 7.90969884,19.5307081 C7.90969884,21.8275221 9.77869884,23.6962779 12.075757,23.6962779 C12.9059895,23.6962779 15.4220826,22.4028244 18.4709895,19.5329058 C15.5832453,16.8239058 13.0336988,15.36465 12.075757,15.36465 M12.075757,24.18465 C9.50936163,24.18465 7.42132674,22.0968593 7.42132674,19.5307081 C7.42132674,16.9640686 9.50936163,14.8762779 12.075757,14.8762779 C13.3587105,14.8762779 16.2684314,16.7601733 18.9945244,19.3556267 C19.0428733,19.4017779 19.0704663,19.4655105 19.0704663,19.5321733 C19.0704663,19.5990802 19.0431174,19.663057 18.9950128,19.7092081 C15.9534314,22.6159988 13.1596988,24.18465 12.075757,24.18465 M24.7822221,19.5280221 C27.6699663,22.2370221 30.219757,23.6962779 31.1776988,23.6962779 C33.4745128,23.6962779 35.3432686,21.8275221 35.3432686,19.5307081 C35.3432686,17.2334058 33.4745128,15.36465 31.1776988,15.36465 C30.3469779,15.36465 27.8308849,16.6581035 24.7822221,19.5280221 M31.1776988,24.18465 C29.8947453,24.18465 26.9850244,22.3007547 24.2589314,19.7053012 C24.2103384,19.65915 24.1829895,19.5954174 24.1829895,19.5287547 C24.1829895,19.4618477 24.2100942,19.3981151 24.258443,19.351964 C27.2997802,16.4449291 30.0932686,14.8762779 31.1776988,14.8762779 C33.74385,14.8762779 35.8316407,16.9640686 35.8316407,19.5307081 C35.8316407,22.0968593 33.74385,24.18465 31.1776988,24.18465 M21.6266058,22.1000337 C21.687164,22.1000337 21.7479663,22.1224988 21.7950942,22.1674291 C23.9529663,24.2234756 28.0413733,27.6726035 31.1776988,27.6726035 C35.6670593,27.6726035 39.3195942,24.0200686 39.3195942,19.5307081 C39.3195942,15.0411035 35.6670593,11.3885686 31.1776988,11.3885686 C28.0411291,11.3885686 23.9529663,14.8374523 21.7950942,16.8934988 C21.7010826,16.9833593 21.5523733,16.9833593 21.4583616,16.8934988 C19.3002453,14.8374523 15.2118384,11.3885686 12.075757,11.3885686 C7.58615233,11.3885686 3.93361744,15.0411035 3.93361744,19.5307081 C3.93361744,24.0200686 7.58615233,27.6726035 12.075757,27.6726035 C15.2115942,27.6726035 19.3002453,24.2234756 21.4583616,22.1674291 C21.5052453,22.1224988 21.5660477,22.1000337 21.6266058,22.1000337 M31.1776988,28.1609756 C27.9532221,28.1609756 23.8772686,24.8009756 21.6266058,22.680464 C19.375943,24.8009756 15.2995012,28.1609756 12.075757,28.1609756 C7.3170593,28.1609756 3.44524535,24.2894058 3.44524535,19.5307081 C3.44524535,14.7717663 7.3170593,10.9001965 12.075757,10.9001965 C15.2995012,10.9001965 19.375943,14.2601965 21.6266058,16.380464 C23.8770244,14.2601965 27.9529779,10.9001965 31.1776988,10.9001965 C35.9363965,10.9001965 39.8079663,14.7717663 39.8079663,19.5307081 C39.8079663,24.2894058 35.9363965,28.1609756 31.1776988,28.1609756" id="Fill-83" fill="#5A7A8E"></path>
                        </g>
                        <g id="Group-104" transform="translate(3.662791, 10.988372)">
                            <g id="Group-88">
                                <g id="Fill-86-Clipped">
                                    <mask id="mask-2" fill="white">
                                        <use xlink:href="#path-1"></use>
                                    </mask>
                                    <g id="path-1"></g>
                                    <path d="M8.76471628,4.59064884 C6.13898372,4.59064884 4.00284419,6.72678837 4.00284419,9.35252093 C4.00284419,11.9780093 6.13898372,14.1141488 8.76471628,14.1141488 C9.89749535,14.1141488 12.6633907,12.5664977 15.7582047,9.60867209 L16.0243674,9.35398605 L15.7577163,9.09978837 C12.9691116,6.44499767 10.0935767,4.59064884 8.76471628,4.59064884 M27.8666581,4.59064884 C26.7336349,4.59064884 23.8212279,5.78667209 20.7266581,8.74474186 L20.2656349,9.04191628 L20.8736581,9.6050093 C23.6622628,12.2598 26.5375535,14.1141488 27.8666581,14.1141488 C30.4921465,14.1141488 32.628286,11.9780093 32.628286,9.35252093 C32.628286,6.72678837 30.4921465,4.59064884 27.8666581,4.59064884 M27.8666581,17.3869744 C24.767693,17.3869744 20.7044372,13.9564047 18.5580419,11.9113465 L18.3155651,11.6803465 L18.0730884,11.9113465 C15.926693,13.9564047 11.8629488,17.3869744 8.76471628,17.3869744 C4.33420465,17.3869744 0.730262791,13.7830326 0.730262791,9.35252093 C0.730262791,4.9220093 4.33420465,1.31806744 8.76471628,1.31806744 C11.863193,1.31806744 15.926693,4.74839302 18.0730884,6.79345116 L18.3155651,7.02445116 L18.5580419,6.79345116 C20.7044372,4.74839302 24.7674488,1.31806744 27.8666581,1.31806744 C32.2969256,1.31806744 35.9011116,4.9220093 35.9011116,9.35252093 C35.9011116,13.7830326 32.2969256,17.3869744 27.8666581,17.3869744" id="Fill-86" fill="#E98875" fill-rule="nonzero" mask="url(#mask-2)"></path>
                                </g>
                            </g>
                            <g id="Group-91">
                                <g id="Fill-89-Clipped">
                                    <mask id="mask-4" fill="white">
                                        <use xlink:href="#path-3"></use>
                                    </mask>
                                    <g id="path-3"></g>
                                    <path d="M15.758107,9.60862326 C15.758107,9.60862326 18.1982581,7.1228093 18.7227698,6.63736744 C19.2470372,6.15192558 17.9638395,5.88063488 17.9638395,5.88063488 L14.9068744,8.88827442 L15.758107,9.60862326 Z" id="Fill-89" fill="#FFFFFE" fill-rule="nonzero" mask="url(#mask-4)"></path>
                                </g>
                            </g>
                            <g id="Group-94">
                                <g id="Fill-92-Clipped">
                                    <mask id="mask-6" fill="white">
                                        <use xlink:href="#path-5"></use>
                                    </mask>
                                    <g id="path-5"></g>
                                    <path d="M4.00284419,9.35252093 C4.00284419,6.72678837 6.13898372,4.59064884 8.76471628,4.59064884 C9.91971628,4.59064884 12.2436349,5.99252093 14.6630302,8.10253256 C14.7040535,8.06370698 14.7443442,8.02732326 14.7856116,7.9880093 L15.0520186,7.73332326 L14.7851233,7.47912558 C11.9965186,4.82433488 9.12122791,2.96998605 7.79236744,2.96998605 C5.16663488,2.96998605 3.03049535,5.10612558 3.03049535,7.73185814 C3.03049535,8.96573023 3.50616977,10.0880093 4.27877442,10.9346023 C4.10320465,10.4386605 4.00284419,9.90755581 4.00284419,9.35252093" id="Fill-92" fill="#E47460" fill-rule="nonzero" mask="url(#mask-6)"></path>
                                </g>
                            </g>
                            <g id="Group-97">
                                <g id="Fill-95-Clipped">
                                    <mask id="mask-8" fill="white">
                                        <use xlink:href="#path-7"></use>
                                    </mask>
                                    <g id="path-7"></g>
                                    <path d="M20.9957023,8.9817 C24.0404581,6.10006047 26.7487256,4.59074651 27.8666093,4.59074651 C29.2582256,4.59074651 30.508214,5.19437442 31.379714,6.14938605 C30.7252953,4.3004093 28.9642256,2.97008372 26.8940163,2.97008372 C25.7612372,2.97008372 22.9950977,4.51773488 19.9007721,7.47556047 L19.6343651,7.73024651 L19.9012605,7.98444419 C20.2658302,8.33167674 20.6318651,8.66401395 20.9957023,8.9817" id="Fill-95" fill="#E47460" fill-rule="nonzero" mask="url(#mask-8)"></path>
                                </g>
                            </g>
                            <g id="Group-100">
                                <g id="Fill-98-Clipped">
                                    <mask id="mask-10" fill="white">
                                        <use xlink:href="#path-9"></use>
                                    </mask>
                                    <g id="path-9"></g>
                                    <path d="M34.2241884,4.44828837 C34.6754442,5.45140465 34.9286651,6.56220698 34.9286651,7.73185814 C34.9286651,12.1623698 31.3244791,15.7665558 26.8939674,15.7665558 C23.7952465,15.7665558 19.7317465,12.335986 17.5855953,10.2909279 L17.3431186,10.0596837 L17.1006419,10.2909279 C14.9542465,12.335986 10.8905023,15.7665558 7.79226977,15.7665558 C5.20731628,15.7665558 2.90537442,14.5383 1.43464186,12.6360907 C2.69268837,15.433486 5.50375814,17.3869744 8.7646186,17.3869744 C11.8630953,17.3869744 15.9265953,13.9564047 18.0729907,11.9113465 L18.3157116,11.6803465 L18.5581884,11.9113465 C20.7043395,13.9564047 24.7675953,17.3869744 27.8665605,17.3869744 C32.2968279,17.3869744 35.901014,13.7830326 35.901014,9.35252093 C35.901014,7.50696279 35.2741884,5.80620698 34.2241884,4.44828837" id="Fill-98" fill="#E47460" fill-rule="nonzero" mask="url(#mask-10)"></path>
                                </g>
                            </g>
                            <g id="Group-103">
                                <g id="Fill-101-Clipped">
                                    <mask id="mask-12" fill="white">
                                        <use xlink:href="#path-11"></use>
                                    </mask>
                                    <g id="path-11"></g>
                                    <path d="M19.6343163,7.73024651 C19.6343163,7.73024651 17.6703279,9.74844419 17.3431186,10.0597814 C17.0159093,10.3711186 18.3325605,10.9850023 18.3325605,10.9850023 L21.0037116,8.31360698 L19.6343163,7.73024651 Z" id="Fill-101" fill="#E47460" fill-rule="nonzero" mask="url(#mask-12)"></path>
                                </g>
                            </g>
                        </g>
                        <g id="Group-127" transform="translate(3.418605, 3.662791)" fill-rule="nonzero">
                            <path d="M8.65715233,11.7018593 C6.36009419,11.7018593 4.49109419,13.5706151 4.49109419,15.8679174 C4.49109419,18.1647314 6.36009419,20.0334872 8.65715233,20.0334872 C9.48738488,20.0334872 12.0034779,18.7400337 15.0523849,15.8701151 C12.1646407,13.1611151 9.61509419,11.7018593 8.65715233,11.7018593 M8.65715233,20.5218593 C6.09075698,20.5218593 4.00272209,18.4340686 4.00272209,15.8679174 C4.00272209,13.3012779 6.09075698,11.2134872 8.65715233,11.2134872 C9.94010581,11.2134872 12.8498267,13.0973826 15.5759198,15.692836 C15.6242686,15.7389872 15.6518616,15.8027198 15.6518616,15.8693826 C15.6518616,15.9362895 15.6245128,16.0002663 15.5764081,16.0464174 C12.5348267,18.9532081 9.74109419,20.5218593 8.65715233,20.5218593 M21.3636174,15.8652314 C24.2513616,18.5742314 26.8011523,20.0334872 27.7590942,20.0334872 C30.0559081,20.0334872 31.924664,18.1647314 31.924664,15.8679174 C31.924664,13.5706151 30.0559081,11.7018593 27.7590942,11.7018593 C26.9283733,11.7018593 24.4122802,12.9953128 21.3636174,15.8652314 M27.7590942,20.5218593 C26.4761407,20.5218593 23.5664198,18.637964 20.8403267,16.0425105 C20.7917337,15.9963593 20.7643849,15.9326267 20.7643849,15.865964 C20.7643849,15.799057 20.7914895,15.7353244 20.8398384,15.6891733 C23.8811756,12.7821384 26.674664,11.2134872 27.7590942,11.2134872 C30.3252453,11.2134872 32.413036,13.3012779 32.413036,15.8679174 C32.413036,18.4340686 30.3252453,20.5218593 27.7590942,20.5218593 M18.2080012,18.437243 C18.2685593,18.437243 18.3293616,18.4597081 18.3764895,18.5046384 C20.5343616,20.5606849 24.6227686,24.0098128 27.7590942,24.0098128 C32.2484547,24.0098128 35.9009895,20.3572779 35.9009895,15.8679174 C35.9009895,11.3783128 32.2484547,7.72577791 27.7590942,7.72577791 C24.6225244,7.72577791 20.5343616,11.1746616 18.3764895,13.2307081 C18.2824779,13.3205686 18.1337686,13.3205686 18.039757,13.2307081 C15.8816407,11.1746616 11.7932337,7.72577791 8.65715233,7.72577791 C4.16754767,7.72577791 0.515012791,11.3783128 0.515012791,15.8679174 C0.515012791,20.3572779 4.16754767,24.0098128 8.65715233,24.0098128 C11.7929895,24.0098128 15.8816407,20.5606849 18.039757,18.5046384 C18.0866407,18.4597081 18.147443,18.437243 18.2080012,18.437243 M27.7590942,24.4981849 C24.5346174,24.4981849 20.458664,21.1381849 18.2080012,19.0176733 C15.9573384,21.1381849 11.8808965,24.4981849 8.65715233,24.4981849 C3.89845465,24.4981849 0.0266406977,20.6266151 0.0266406977,15.8679174 C0.0266406977,11.1089756 3.89845465,7.23740581 8.65715233,7.23740581 C11.8808965,7.23740581 15.9573384,10.5974058 18.2080012,12.7176733 C20.4584198,10.5974058 24.5343733,7.23740581 27.7590942,7.23740581 C32.5177919,7.23740581 36.3893616,11.1089756 36.3893616,15.8679174 C36.3893616,20.6266151 32.5177919,24.4981849 27.7590942,24.4981849" id="Fill-105" fill="#5A7A8E"></path>
                            <path d="M15.322186,16.1949802 C15.2596744,16.1949802 15.1971628,16.1712942 15.1497907,16.1236779 C15.0540698,16.0282012 15.0540698,15.8738756 15.1493023,15.7781547 L18.1457093,12.7763756 C18.2409419,12.6808988 18.396,12.6808988 18.4909884,12.7763756 C18.5864651,12.8716081 18.5864651,13.0259337 18.4914767,13.1216547 L15.4950698,16.1234337 C15.4474535,16.17105 15.3846977,16.1949802 15.322186,16.1949802" id="Fill-107" fill="#5A7A8E"></path>
                            <path d="M18.2080744,18.9256151 C18.145807,18.9256151 18.0835395,18.9019291 18.0359233,18.854557 C17.9402023,18.7593244 17.939714,18.6049988 18.0349465,18.5092779 L20.8355163,15.6935686 C20.9305047,15.5978477 21.0850744,15.5976035 21.1807953,15.6925919 C21.2762721,15.7875802 21.2767605,15.94215 21.1817721,16.0378709 L18.3812023,18.8535802 C18.333586,18.9016849 18.2708302,18.9256151 18.2080744,18.9256151" id="Fill-109" fill="#5A7A8E"></path>
                            <path d="M15.322186,15.9507942 L18.318593,12.9490151" id="Fill-111" fill="#FFFFFE"></path>
                            <path d="M15.322186,16.1949802 C15.2596744,16.1949802 15.1971628,16.1712942 15.1497907,16.1236779 C15.0540698,16.0282012 15.0540698,15.8738756 15.1493023,15.7781547 L18.1457093,12.7763756 C18.2409419,12.6808988 18.396,12.6808988 18.4909884,12.7763756 C18.5864651,12.8716081 18.5864651,13.0259337 18.4914767,13.1216547 L15.4950698,16.1234337 C15.4474535,16.17105 15.3846977,16.1949802 15.322186,16.1949802" id="Fill-113" fill="#5A7A8E"></path>
                            <path d="M21.0085953,15.8656465 L18.2080256,18.6813558" id="Fill-115" fill="#FFFFFE"></path>
                            <path d="M18.2080744,18.9256151 C18.145807,18.9256151 18.0835395,18.9019291 18.0359233,18.854557 C17.9402023,18.7593244 17.939714,18.6049988 18.0349465,18.5092779 L20.8355163,15.6935686 C20.9305047,15.5978477 21.0850744,15.5976035 21.1807953,15.6925919 C21.2762721,15.7875802 21.2767605,15.94215 21.1817721,16.0378709 L18.3812023,18.8535802 C18.333586,18.9016849 18.2708302,18.9256151 18.2080744,18.9256151" id="Fill-117" fill="#5A7A8E"></path>
                            <path d="M27.7461279,2.81815116 C27.7461279,2.81815116 28.6024884,2.62255814 28.9514302,1.4997907 C29.3531163,0.206825581 30.9154186,0.472988372 31.4064767,0.472988372 C31.8972907,0.472988372 33.5489651,1.79134884 34.0849535,2.08144186 C34.6204535,2.37177907 35.5803488,2.79568605 36.0938721,2.81815116 C36.606907,2.84037209 37.0757442,2.88505814 37.0535233,3.19761628 C37.030814,3.50993023 35.0448488,4.7599186 33.6608023,4.93866279 C32.277,5.11716279 31.7859419,4.7599186 31.7859419,4.7599186 C31.7859419,4.7599186 31.1608256,5.13938372 30.2903023,5.13938372 C29.4197791,5.13938372 27.7461279,3.8447093 27.7461279,3.8447093 L27.7461279,2.81815116 Z" id="Fill-119" fill="#FFFFFE"></path>
                            <path d="M27.990314,3.72347093 C28.5050581,4.10757558 29.686186,4.89507558 30.2903023,4.89507558 C31.0765814,4.89507558 31.6540814,4.55419186 31.6596977,4.55077326 C31.7444302,4.50047093 31.8508953,4.50511047 31.9297674,4.56249419 C31.9297674,4.56249419 32.2144884,4.74441279 32.9343488,4.74441279 C33.1489884,4.74441279 33.3826744,4.72829651 33.6295465,4.69630814 C34.8675698,4.53661047 36.5539186,3.48441279 36.798593,3.16892442 C36.731686,3.11691279 36.490186,3.07979651 36.0833721,3.06221512 C35.4799884,3.03584302 34.436093,2.5496686 33.9684767,2.29620349 C33.7797209,2.19388953 33.4793721,1.98462209 33.131407,1.74263372 C32.6166628,1.3841686 31.6584767,0.717052326 31.4064767,0.717052326 C31.3427442,0.717052326 31.2616744,0.712901163 31.1683953,0.708017442 C31.0502093,0.701912791 30.9105349,0.694343023 30.7588953,0.694343023 C29.8707907,0.694343023 29.3704535,0.973203488 29.1846279,1.57219186 C28.8984419,2.49350581 28.2982326,2.85929651 27.990314,2.9906686 L27.990314,3.72347093 Z M30.2903023,5.38344767 C29.3631279,5.38344767 27.7746977,4.17570349 27.596686,4.03798256 C27.5371047,3.99158721 27.5019419,3.92028488 27.5019419,3.8448314 L27.5019419,2.81802907 C27.5019419,2.70423837 27.5805698,2.60534302 27.6916744,2.57994767 C27.7195116,2.57335465 28.4188605,2.39094767 28.7179884,1.42714535 C28.9699884,0.616936047 29.6563953,0.20597093 30.7588953,0.20597093 C30.919814,0.20597093 31.0685233,0.213784884 31.1937907,0.220377907 C31.2773023,0.224773256 31.3495814,0.228680233 31.4064767,0.228680233 C31.7837442,0.228680233 32.4447558,0.669436047 33.4105116,1.34192442 C33.7323488,1.56584302 34.0363605,1.77755233 34.2014302,1.86668023 C34.8087209,2.19608721 35.6821744,2.55577326 36.1043721,2.57408721 C36.5712558,2.59435465 36.9741628,2.62976163 37.1785465,2.85856395 C37.2657209,2.95648256 37.3067442,3.07979651 37.2969767,3.2148314 C37.2569302,3.76718023 34.9659767,5.01619186 33.6920581,5.18077326 C33.4246744,5.21520349 33.1697442,5.23278488 32.9343488,5.23278488 C32.3304767,5.23278488 31.968593,5.11850581 31.7864302,5.0364593 C31.5481047,5.15440116 30.9947791,5.38344767 30.2903023,5.38344767 Z" id="Fill-121" fill="#5A7A8E"></path>
                            <path d="M26.5633395,2.81815116 C26.5633395,2.81815116 25.7072233,2.62255814 25.3582814,1.4997907 C24.9565953,0.206825581 23.3940488,0.472988372 22.9029907,0.472988372 C22.4121767,0.472988372 20.7605023,1.79134884 20.224514,2.08144186 C19.689014,2.37177907 18.7291186,2.79568605 18.2155953,2.81815116 C17.7025605,2.84037209 17.2337233,2.88505814 17.2561884,3.19761628 C17.2784093,3.50993023 19.2646186,4.7599186 20.6486651,4.93866279 C22.0324674,5.11716279 22.5237698,4.7599186 22.5237698,4.7599186 C22.5237698,4.7599186 23.1486419,5.13938372 24.0191651,5.13938372 C24.8896884,5.13938372 26.5633395,3.8447093 26.5633395,3.8447093 L26.5633395,2.81815116 Z" id="Fill-123" fill="#FFFFFE"></path>
                            <path d="M22.5259186,4.51719767 C22.5693837,4.51719767 22.6126047,4.52818605 22.6506977,4.55113953 C22.6555814,4.55431395 23.2330814,4.89519767 24.0191163,4.89519767 C24.6232326,4.89519767 25.8043605,4.10745349 26.3191047,3.72359302 L26.3191047,2.9907907 C26.011186,2.85917442 25.4112209,2.49338372 25.1252791,1.57206977 C24.9392093,0.973325581 24.4388721,0.694465116 23.5505233,0.694465116 C23.3991279,0.694465116 23.2592093,0.701790698 23.1412674,0.707895349 C23.0477442,0.713023256 22.9669186,0.716930233 22.9029419,0.716930233 C22.6509419,0.716930233 21.6927558,1.38404651 21.1780116,1.74251163 C20.8302907,1.98474419 20.5296977,2.19401163 20.3409419,2.29632558 C19.8733256,2.54954651 18.8294302,3.03572093 18.2265349,3.06209302 C17.826314,3.07943023 17.5862791,3.11556977 17.511314,3.16953488 C17.7569651,3.48526744 19.4423372,4.53673256 20.6798721,4.69643023 C20.9267442,4.72817442 21.1606744,4.7442907 21.3750698,4.7442907 C22.0973721,4.7442907 22.3816047,4.56139535 22.3842907,4.55944186 C22.4265349,4.53160465 22.4763488,4.51719767 22.5259186,4.51719767 M24.0191163,5.38356977 C23.3146395,5.38356977 22.7615581,5.15452326 22.5232326,5.0365814 C22.3410698,5.11838372 21.9789419,5.23266279 21.3750698,5.23266279 C21.1396744,5.23266279 20.8847442,5.21532558 20.6176047,5.18065116 C19.3427093,5.01606977 17.0517558,3.76681395 17.012686,3.21495349 C17.0029186,3.0799186 17.0439419,2.95660465 17.1311163,2.85868605 C17.3352558,2.62988372 17.738407,2.59423256 18.2052907,2.5742093 C18.6272442,2.55565116 19.5006977,2.19596512 20.1082326,1.86680233 C20.2730581,1.77743023 20.577314,1.56596512 20.898907,1.34180233 C21.8646628,0.669313953 22.5256744,0.228802326 22.9029419,0.228802326 C22.9598372,0.228802326 23.0318721,0.224651163 23.1156279,0.220255814 C23.2408953,0.213662791 23.3896047,0.206093023 23.5505233,0.206093023 C24.6530233,0.206093023 25.3396744,0.616813953 25.5916744,1.42726744 C25.8910465,2.39082558 26.5901512,2.57323256 26.6196977,2.58055814 C26.7288488,2.6074186 26.8074767,2.70582558 26.8074767,2.81815116 L26.8074767,3.8447093 C26.8074767,3.92040698 26.7725581,3.9917093 26.7127326,4.03786047 C26.5347209,4.1755814 24.9462907,5.38356977 24.0191163,5.38356977" id="Fill-125" fill="#5A7A8E"></path>
                        </g>
                        <g id="Group-134" transform="translate(31.011628, 3.906977)">
                            <g id="Group-130">
                                <g id="Fill-128-Clipped">
                                    <mask id="mask-14" fill="white">
                                        <use xlink:href="#path-13"></use>
                                    </mask>
                                    <g id="path-13"></g>
                                    <path d="M0.404909302,3.36756977 C0.404909302,3.36756977 1.26126977,3.17197674 1.61021163,2.0492093 C2.01189767,0.756244186 3.5742,1.02240698 4.06525814,1.02240698 C4.55607209,1.02240698 6.20774651,2.34076744 6.74373488,2.63086047 C7.27923488,2.92119767 8.23913023,3.34510465 8.75265349,3.36756977 C9.26568837,3.3897907 9.73452558,3.43447674 9.71230465,3.74703488 C9.68959535,4.05934884 7.70363023,5.30933721 6.31958372,5.4880814 C4.9357814,5.6665814 4.44472326,5.30933721 4.44472326,5.30933721 C4.44472326,5.30933721 3.81960698,5.68880233 2.94908372,5.68880233 C2.07856047,5.68880233 0.404909302,4.39412791 0.404909302,4.39412791 L0.404909302,3.36756977 Z" id="Fill-128" fill="#E98875" fill-rule="nonzero" mask="url(#mask-14)"></path>
                                </g>
                            </g>
                            <g id="Group-133">
                                <g id="Fill-131-Clipped">
                                    <mask id="mask-16" fill="white">
                                        <use xlink:href="#path-15"></use>
                                    </mask>
                                    <g id="path-15"></g>
                                    <path d="M8.7525314,3.36756977 C8.51054302,3.35706977 8.16868256,3.25573256 7.81949651,3.12289535 C7.16776395,3.47330233 6.38270581,3.79636047 5.72950814,3.88060465 C4.34570581,4.05910465 3.85464767,3.70186047 3.85464767,3.70186047 C3.85464767,3.70186047 3.22977558,4.08132558 2.35900814,4.08132558 C1.86819419,4.08132558 1.12196163,3.66938372 0.564240698,3.31043023 C0.467543023,3.35243023 0.404787209,3.36756977 0.404787209,3.36756977 L0.404787209,4.39412791 C0.404787209,4.39412791 2.07868256,5.68880233 2.94896163,5.68880233 C3.81972907,5.68880233 4.44460116,5.30933721 4.44460116,5.30933721 C4.44460116,5.30933721 4.9356593,5.6665814 6.31946163,5.4880814 C7.70350814,5.30933721 9.68971744,4.05934884 9.71242674,3.74703488 C9.73440349,3.43447674 9.26581047,3.3897907 8.7525314,3.36756977" id="Fill-131" fill="#E47460" fill-rule="nonzero" mask="url(#mask-16)"></path>
                                </g>
                            </g>
                        </g>
                        <path d="M31.4089186,7.38626163 C31.9236628,7.77036628 33.1047907,8.55786628 33.708907,8.55786628 C34.495186,8.55786628 35.072686,8.21698256 35.0783023,8.21356395 C35.1630349,8.16326163 35.2695,8.16790116 35.3483721,8.22528488 C35.3483721,8.22528488 35.633093,8.40720349 36.3529535,8.40720349 C36.567593,8.40720349 36.8012791,8.39108721 37.0481512,8.35909884 C38.2861744,8.19940116 39.9725233,7.14720349 40.2171977,6.83171512 C40.1502907,6.77970349 39.9087907,6.74258721 39.5019767,6.72500581 C38.898593,6.69863372 37.8546977,6.2124593 37.3870814,5.95899419 C37.1983256,5.85668023 36.8979767,5.64741279 36.5500116,5.40542442 C36.0352674,5.0469593 35.0770814,4.37984302 34.8250814,4.37984302 C34.7613488,4.37984302 34.6802791,4.37569186 34.587,4.37080814 C34.468814,4.36470349 34.3291395,4.35713372 34.1775,4.35713372 C33.2893953,4.35713372 32.7890581,4.63599419 32.6032326,5.23498256 C32.3170465,6.15629651 31.7168372,6.52208721 31.4089186,6.6534593 L31.4089186,7.38626163 Z M33.708907,9.04623837 C32.7817326,9.04623837 31.1933023,7.83849419 31.0152907,7.70077326 C30.9557093,7.65437791 30.9205465,7.58307558 30.9205465,7.50762209 L30.9205465,6.48081977 C30.9205465,6.36702907 30.9991744,6.26813372 31.1102791,6.24273837 C31.1381163,6.23614535 31.8374651,6.05373837 32.136593,5.08993605 C32.388593,4.27972674 33.075,3.86876163 34.1775,3.86876163 C34.3384186,3.86876163 34.4871279,3.87657558 34.6123953,3.8831686 C34.695907,3.88756395 34.768186,3.89147093 34.8250814,3.89147093 C35.2023488,3.89147093 35.8633605,4.33222674 36.8291163,5.00471512 C37.1509535,5.22863372 37.4549651,5.44034302 37.6200349,5.52947093 C38.2273256,5.85887791 39.1007791,6.21856395 39.5229767,6.23687791 C39.9898605,6.25714535 40.3927674,6.29255233 40.5971512,6.52135465 C40.6843256,6.61927326 40.7253488,6.74258721 40.7155814,6.87762209 C40.6755349,7.42997093 38.3845814,8.67898256 37.1106628,8.84356395 C36.8432791,8.87799419 36.5883488,8.89557558 36.3529535,8.89557558 C35.7490814,8.89557558 35.3871977,8.78129651 35.2050349,8.69925 C34.9667093,8.81719186 34.4133837,9.04623837 33.708907,9.04623837 Z" id="Fill-135" fill="#5A7A8E" fill-rule="nonzero"></path>
                        <g id="Group-143" transform="translate(20.511628, 3.906977)">
                            <g id="Group-139">
                                <g id="Fill-137-Clipped">
                                    <mask id="mask-18" fill="white">
                                        <use xlink:href="#path-17"></use>
                                    </mask>
                                    <g id="path-17"></g>
                                    <path d="M9.43930465,3.48966279 C9.43930465,3.48966279 8.58318837,3.29406977 8.23424651,2.17130233 C7.83256047,0.878337209 6.27001395,1.1445 5.77895581,1.1445 C5.28814186,1.1445 3.63646744,2.46286047 3.10047907,2.75295349 C2.56497907,3.0432907 1.60508372,3.46719767 1.09156047,3.48966279 C0.578525581,3.51188372 0.109688372,3.55656977 0.132153488,3.86912791 C0.154374419,4.18144186 2.14058372,5.43143023 3.52463023,5.61017442 C4.90843256,5.78867442 5.39973488,5.43143023 5.39973488,5.43143023 C5.39973488,5.43143023 6.02460698,5.81089535 6.89513023,5.81089535 C7.76565349,5.81089535 9.43930465,4.51622093 9.43930465,4.51622093 L9.43930465,3.48966279 Z" id="Fill-137" fill="#E98875" fill-rule="nonzero" mask="url(#mask-18)"></path>
                                </g>
                            </g>
                            <g id="Group-142">
                                <g id="Fill-140-Clipped">
                                    <mask id="mask-20" fill="white">
                                        <use xlink:href="#path-19"></use>
                                    </mask>
                                    <g id="path-19"></g>
                                    <path d="M8.79975698,3.11002674 C8.24594302,3.49266628 7.2716407,4.10166628 6.67460581,4.10166628 C5.80383837,4.10166628 5.17921047,3.72220116 5.17921047,3.72220116 C5.17921047,3.72220116 4.68790814,4.07944535 3.30410581,3.90070116 C2.79595465,3.8352593 2.20673372,3.62452674 1.66317558,3.36935233 C1.44853605,3.43601512 1.2480593,3.48265465 1.09178023,3.48973605 C0.578501163,3.51195698 0.109663953,3.55664302 0.13212907,3.86895698 C0.15435,4.18151512 2.1405593,5.43150349 3.52460581,5.61000349 C4.90840814,5.78874767 5.39971047,5.43150349 5.39971047,5.43150349 C5.39971047,5.43150349 6.02458256,5.8109686 6.89510581,5.8109686 C7.76562907,5.8109686 9.43928023,4.51629419 9.43928023,4.51629419 L9.43928023,3.48973605 C9.43928023,3.48973605 9.12501279,3.41623605 8.79975698,3.11002674" id="Fill-140" fill="#E47460" fill-rule="nonzero" mask="url(#mask-20)"></path>
                                </g>
                            </g>
                        </g>
                        <g id="Group-162" transform="translate(20.267442, 0.732558)" fill-rule="nonzero">
                            <path d="M5.6770814,7.44743023 C5.72054651,7.44743023 5.76376744,7.4584186 5.80186047,7.48137209 C5.80674419,7.48454651 6.38424419,7.82543023 7.17027907,7.82543023 C7.77439535,7.82543023 8.95552326,7.03768605 9.47026744,6.65382558 L9.47026744,5.92102326 C9.16234884,5.78940698 8.56238372,5.42361628 8.27644186,4.50230233 C8.09037209,3.90355814 7.59003488,3.62469767 6.70168605,3.62469767 C6.5502907,3.62469767 6.41037209,3.63202326 6.29243023,3.63812791 C6.19890698,3.64325581 6.1180814,3.64716279 6.05410465,3.64716279 C5.80210465,3.64716279 4.8439186,4.31427907 4.32917442,4.67274419 C3.98145349,4.91497674 3.68086047,5.12424419 3.49210465,5.22655814 C3.02448837,5.47977907 1.98059302,5.96595349 1.37769767,5.99232558 C0.977476744,6.00966279 0.73744186,6.04580233 0.662476744,6.09976744 C0.908127907,6.4155 2.5935,7.46696512 3.83103488,7.62666279 C4.07790698,7.65840698 4.31183721,7.67452326 4.52623256,7.67452326 C5.24853488,7.67452326 5.53276744,7.49162791 5.53545349,7.48967442 C5.57769767,7.46183721 5.62751163,7.44743023 5.6770814,7.44743023 M7.17027907,8.31380233 C6.46580233,8.31380233 5.91272093,8.08475581 5.67439535,7.96681395 C5.49223256,8.04861628 5.13010465,8.16289535 4.52623256,8.16289535 C4.29083721,8.16289535 4.03590698,8.14555814 3.76876744,8.11088372 C2.49387209,7.94630233 0.202918605,6.69704651 0.163848837,6.14518605 C0.154081395,6.01015116 0.195104651,5.88683721 0.28227907,5.7889186 C0.486418605,5.56011628 0.889569767,5.52446512 1.35645349,5.50444186 C1.77840698,5.48588372 2.65186047,5.12619767 3.25939535,4.79703488 C3.42422093,4.70766279 3.72847674,4.49619767 4.05006977,4.27203488 C5.01582558,3.59954651 5.67683721,3.15903488 6.05410465,3.15903488 C6.111,3.15903488 6.18303488,3.15488372 6.2667907,3.15048837 C6.39205814,3.14389535 6.54076744,3.13632558 6.70168605,3.13632558 C7.80418605,3.13632558 8.49083721,3.54704651 8.74283721,4.3575 C9.0422093,5.32105814 9.74131395,5.50346512 9.77086047,5.5107907 C9.88001163,5.53765116 9.95863953,5.63605814 9.95863953,5.74838372 L9.95863953,6.77494186 C9.95863953,6.85063953 9.92372093,6.92194186 9.86389535,6.96809302 C9.68588372,7.10581395 8.09745349,8.31380233 7.17027907,8.31380233" id="Fill-144" fill="#5A7A8E"></path>
                            <path d="M10.012336,19.1440395 C10.358836,19.1440395 10.6838477,18.9301326 10.8091151,18.5858302 C10.9697895,18.145807 10.7426965,17.6589 10.3026733,17.498714 C9.14034767,17.0750512 8.85367326,16.7219581 8.79433605,16.6269698 C8.92521977,16.4164814 9.72346395,15.8690163 11.4513244,15.692714 C13.4856384,15.4851558 14.7261035,14.6788535 14.7693244,13.5355744 C14.7978942,12.7800628 14.2413942,11.8675395 12.5943593,11.5723186 C12.3079291,11.5210395 11.98365,11.4663419 11.6356849,11.407493 C10.6064407,11.2336326 9.3254407,11.0175279 8.25297558,10.7547837 C7.23447558,10.5054698 6.74219651,10.2962023 6.51070814,10.1677605 C6.82815,10.0537256 7.40027791,9.96313256 7.88620814,9.96313256 C8.35480116,9.96313256 8.73451047,9.58366744 8.73451047,9.11507442 C8.73451047,8.6464814 8.35480116,8.26677209 7.88620814,8.26677209 C7.35437093,8.26677209 5.56863837,8.34173721 4.90982442,9.30627209 C4.62852209,9.7174814 4.58163837,10.2192837 4.77698721,10.7201093 C5.22311512,11.8643651 7.16634767,12.3730047 11.3529174,13.0801674 C11.6952663,13.1377953 12.0139291,13.1920047 12.2954756,13.2425512 C12.6705453,13.3094581 12.8920221,13.4149465 13.004836,13.4911326 C12.819743,13.6388651 12.3194058,13.8991674 11.2791733,14.0051442 C8.38337093,14.3003651 7.22128953,15.4521907 7.0994407,16.4316209 C6.96489419,17.5138535 7.84713837,18.4092837 9.72199884,19.0925163 C9.81796395,19.1276791 9.91588256,19.1440395 10.012336,19.1440395" id="Fill-146" fill="#FFFFFE"></path>
                            <path d="M7.88620814,8.51098256 C6.85305698,8.51098256 5.58133605,8.75614535 5.11152209,9.44401744 C4.87734767,9.78636628 4.83925465,10.2080756 5.00432442,10.6314942 C5.40503372,11.6587849 7.38367326,12.1620523 11.3936965,12.8394244 C11.7367779,12.8972965 12.0564174,12.9515058 12.3384523,13.0022965 C12.7638244,13.0782384 13.0097198,13.199843 13.141336,13.2884826 C13.2058012,13.3319477 13.2456035,13.4034942 13.2487779,13.4811453 C13.2519523,13.5587965 13.2180105,13.6332733 13.1572081,13.6818663 C12.9945802,13.8117733 12.4881384,14.1272616 11.3040802,14.2481337 C8.55088256,14.5287035 7.45204535,15.5755291 7.34191744,16.4616802 C7.22299884,17.4162035 8.05201047,18.2239709 9.80551047,18.86325 C10.111964,18.9750872 10.468964,18.8063547 10.5795802,18.502343 C10.6350105,18.3504593 10.6281733,18.1866105 10.5598012,18.040343 C10.4916733,17.8943198 10.3708012,17.7832151 10.2194058,17.7280291 C9.06513837,17.3075407 8.70130116,16.939064 8.58726628,16.756657 C8.5379407,16.6775407 8.53769651,16.5774244 8.58677791,16.498064 C8.78920814,16.172564 9.71247558,15.6246105 11.4264174,15.4500174 C13.3286267,15.2556453 14.4870453,14.5365174 14.5253826,13.5263198 C14.5500453,12.8733663 14.044336,12.08025 12.5511384,11.8126221 C12.2659291,11.7615872 11.9421384,11.7068895 11.59515,11.6482849 C10.5619988,11.473936 9.27611512,11.2568547 8.1948593,10.9919128 C7.15780116,10.7382035 6.64208023,10.5199012 6.39252209,10.3814477 C6.30852209,10.3350523 6.25968488,10.2437267 6.26725465,10.14825 C6.2750686,10.0525291 6.3380686,9.97048256 6.42817326,9.93800581 C6.78712674,9.80907558 7.38684767,9.71897093 7.88620814,9.71897093 C8.21927791,9.71897093 8.49032442,9.44792442 8.49032442,9.11509884 C8.49032442,8.78202907 8.21927791,8.51098256 7.88620814,8.51098256 M10.012336,19.38825 C9.88487093,19.38825 9.75887093,19.3660291 9.63824302,19.3218314 C7.64226628,18.5946453 6.70654535,17.6120407 6.85720814,16.4013663 C6.99077791,15.328657 8.21610349,14.0720756 11.2545105,13.7622035 C11.79465,13.7070174 12.169964,13.6100756 12.4214756,13.5182616 C12.3701965,13.5058081 12.3140337,13.493843 12.2524988,13.4828547 C11.9714407,13.4325523 11.6537547,13.3785872 11.3123826,13.3209593 C6.94609186,12.5832733 5.04168488,12.0712151 4.54940581,10.8087733 C4.32377791,10.2305407 4.38042907,9.64791279 4.70812674,9.1683314 C5.43433605,8.10514535 7.32433605,8.02261047 7.88620814,8.02261047 C8.48861512,8.02261047 8.97869651,8.51269186 8.97869651,9.11509884 C8.97869651,9.71726163 8.48861512,10.207343 7.88620814,10.207343 C7.7135686,10.207343 7.52212674,10.2202849 7.33483605,10.2425058 C7.58317326,10.3245523 7.90232442,10.4175872 8.31084767,10.5174593 C9.37525465,10.77825 10.6511267,10.9936221 11.676464,11.16675 C12.0251616,11.2255988 12.3501733,11.2805407 12.637336,11.332064 C14.4384523,11.6548779 15.0454988,12.6868081 15.0132663,13.5448779 C14.9649174,14.82075 13.64265,15.7144709 11.4759872,15.9357035 C10.1239291,16.0736686 9.41139419,16.4367733 9.13521977,16.6360291 C9.30102209,16.7747267 9.65558023,17.0030407 10.3864291,17.2692035 C10.6604058,17.3690756 10.8794407,17.5697965 11.0025105,17.83425 C11.1258244,18.0989477 11.1385221,18.3953895 11.0384058,18.6696105 C10.8823709,19.0993779 10.4696965,19.38825 10.012336,19.38825" id="Fill-148" fill="#5A7A8E"></path>
                            <path d="M15.7020663,9.30624767 C15.0432523,8.34171279 13.2572756,8.26674767 12.7256826,8.26674767 C12.2573337,8.26674767 11.8773802,8.64645698 11.8773802,9.11505 C11.8773802,9.58364302 12.2573337,9.96310814 12.7256826,9.96310814 C13.2116128,9.96310814 13.7837407,10.0539453 14.1009384,10.167736 C13.86945,10.2961779 13.3771709,10.5054453 12.3589151,10.7547593 C11.9752988,10.8485267 11.5648221,10.9357012 11.1489733,11.0179919 L11.1489733,11.3251779 C11.3155081,11.3535035 11.479357,11.3810965 11.6358802,11.4074686 C11.9836012,11.4663174 12.3081244,11.5210151 12.5943105,11.5722942 C13.1644849,11.6746081 13.6013337,11.8518872 13.9309849,12.0697012 C15.0068686,11.7100151 15.6104965,11.2953872 15.8349035,10.7200849 C16.0302523,10.2192593 15.9831244,9.71745698 15.7020663,9.30624767" id="Fill-150" fill="#FFFFFE"></path>
                            <path d="M11.6572709,11.1635267 L11.6765616,11.1669453 C12.0252593,11.22555 12.3502709,11.2804919 12.6374337,11.3320151 C13.1529105,11.4245616 13.5978174,11.5820616 13.9623872,11.8010965 C14.9127593,11.469736 15.4218872,11.1068756 15.6074686,10.6314453 C15.7725384,10.2080267 15.7344453,9.78631744 15.5005151,9.4439686 C15.030457,8.75609651 13.758736,8.51093372 12.7255849,8.51093372 C12.3925151,8.51093372 12.1214686,8.78198023 12.1214686,9.11505 C12.1214686,9.44811977 12.3925151,9.71892209 12.7255849,9.71892209 C13.2249453,9.71892209 13.8246663,9.80902674 14.1836198,9.93795698 C14.2737244,9.97043372 14.3367244,10.0527244 14.3445384,10.1482012 C14.3521081,10.2436779 14.3032709,10.3350035 14.2192709,10.3813988 C13.9697128,10.5198523 13.4539919,10.7381547 12.4166895,10.991864 C12.1900849,11.0475384 11.9388174,11.1041895 11.6572709,11.1635267 M13.9311314,12.3138872 C13.8835151,12.3138872 13.8368756,12.3002128 13.7963407,12.2733523 C13.4696198,12.0572477 13.0505965,11.9021895 12.551236,11.8128174 C12.2657826,11.7615384 11.942236,11.7068407 11.5952477,11.6484802 L11.1080965,11.5657012 C10.9908872,11.5456779 10.9049337,11.4440965 10.9049337,11.3251779 L10.9049337,11.0179919 C10.9049337,10.9012709 10.9874686,10.8011547 11.1017477,10.7784453 C11.5715616,10.6854105 11.9639686,10.5999453 12.3007012,10.5174105 C12.7094686,10.4175384 13.0286198,10.3245035 13.276957,10.2427012 C13.0896663,10.220236 12.8982244,10.2072942 12.7255849,10.2072942 C12.1231779,10.2072942 11.6330965,9.71745698 11.6330965,9.11505 C11.6330965,8.51264302 12.1231779,8.02256163 12.7255849,8.02256163 C13.287457,8.02256163 15.177457,8.1053407 15.9039105,9.16852674 C16.231364,9.64786395 16.2880151,10.2304919 16.0623872,10.8087244 C15.8125849,11.4494686 15.1791663,11.9100035 14.0085384,12.3014337 C13.983143,12.309736 13.9570151,12.3138872 13.9311314,12.3138872" id="Fill-152" fill="#5A7A8E"></path>
                            <path d="M10.3333186,0.367719767 C9.21152791,0.367719767 8.30242326,1.2770686 8.30242326,2.39861512 C8.30242326,3.20858023 8.77736512,3.90548721 9.46303953,4.23171977 L9.46303953,11.0178942 C9.7436093,11.0735686 10.0263767,11.1272895 10.3059698,11.1775919 C10.5938651,11.2293593 10.8763884,11.2784407 11.1491442,11.3250802 L11.1491442,11.0178942 L11.1491442,4.25833605 C11.8643651,3.9440686 12.3644581,3.23031279 12.3644581,2.39861512 C12.3644581,1.2770686 11.4551093,0.367719767 10.3333186,0.367719767" id="Fill-154" fill="#FFFFFE"></path>
                            <path d="M9.70710349,10.8169291 C9.92149884,10.8584407 10.1363826,10.8987314 10.3490686,10.9370686 C10.5370919,10.9710105 10.7226733,11.0037314 10.904836,11.0352314 L10.904836,4.25833605 C10.904836,4.16139419 10.9622198,4.0737314 11.0508593,4.03466163 C11.7006384,3.74920814 12.1203942,3.10699884 12.1203942,2.39861512 C12.1203942,1.4135686 11.3187314,0.611905814 10.3331965,0.611905814 C9.34790581,0.611905814 8.54648721,1.4135686 8.54648721,2.39861512 C8.54648721,3.0830686 8.9474407,3.71599884 9.56791744,4.01121977 C9.65289419,4.05175465 9.70710349,4.13746395 9.70710349,4.23171977 L9.70710349,10.8169291 Z M11.1490221,11.5692663 C11.1353477,11.5692663 11.1216733,11.5680453 11.1077547,11.5658477 C10.8342663,11.518964 10.5512547,11.4698826 10.2623826,11.4176267 C9.98181279,11.3673244 9.69758023,11.3133593 9.41554535,11.2574407 C9.30126628,11.2347314 9.2187314,11.1346151 9.2187314,11.0178942 L9.2187314,4.3799407 C8.50888256,3.97947558 8.05811512,3.21810349 8.05811512,2.39861512 C8.05811512,1.1442314 9.07881279,0.123533721 10.3331965,0.123533721 C11.5878244,0.123533721 12.6087663,1.1442314 12.6087663,2.39861512 C12.6087663,3.24642907 12.1365105,4.01976628 11.3932081,4.4114407 L11.3932081,11.3250802 C11.3932081,11.3971151 11.361464,11.4654872 11.3065221,11.5118826 C11.2620802,11.549243 11.2064058,11.5692663 11.1490221,11.5692663 Z" id="Fill-156" fill="#5A7A8E"></path>
                            <path d="M13.9310093,12.0697988 C13.6013581,11.8517407 13.1645093,11.6747058 12.5943349,11.5723919 C12.3081488,11.5211128 11.9836256,11.4661709 11.6359047,11.4075663 C11.4793814,11.3811942 11.3155326,11.353357 11.1489977,11.3250314 C10.8762419,11.2783919 10.5939628,11.2295547 10.3058233,11.177543 C10.0264744,11.1272407 9.74370698,11.0735198 9.46289302,11.0178453 C9.04728837,10.9357988 8.63656744,10.8486244 8.25295116,10.7546128 C7.23445116,10.505543 6.74241628,10.2960314 6.51068372,10.1678337 C6.82812558,10.0537988 7.40025349,9.96320581 7.88618372,9.96320581 C8.35477674,9.96320581 8.73448605,9.58349651 8.73448605,9.11490349 C8.73448605,8.64631047 8.35477674,8.26684535 7.88618372,8.26684535 C7.35434651,8.26684535 5.56861395,8.34156628 4.9098,9.30634535 C4.62849767,9.71731047 4.58161395,10.219357 4.77696279,10.7201826 C5.00112558,11.2954849 5.60475349,11.7098686 6.6808814,12.0697988 C7.39048605,12.3073919 8.31326512,12.5212988 9.46289302,12.7415547 C9.7327186,12.7933221 10.0106023,12.8453337 10.3058233,12.8980779 C10.5766256,12.9461826 10.8576837,12.995264 11.1489977,13.0450779 C11.217614,13.0567988 11.2830558,13.0682756 11.352893,13.0802407 C11.6952419,13.1378686 12.0139047,13.1920779 12.2954512,13.2426244 C12.6705209,13.3095314 12.8919977,13.4150198 13.0048116,13.4909616 C12.8197186,13.6389384 12.3193814,13.8989965 11.279393,14.0052174 C11.2342186,14.0096128 11.1934395,14.01645 11.1489977,14.0213337 L11.1489977,14.3609965 C11.9943698,14.6247174 12.5853,14.9866012 12.9652535,15.3807174 C14.0850907,15.0044267 14.7382884,14.3578221 14.7695442,13.5356477 C14.7881023,13.0416593 14.5539279,12.4817407 13.9310093,12.0697988" id="Fill-158" fill="#FFFFFE"></path>
                            <path d="M11.5094163,14.2244233 C12.1374628,14.4512721 12.6465907,14.7447837 13.0275209,15.099586 C13.9698349,14.7494233 14.4999628,14.1943884 14.5256023,13.5262953 C14.5434279,13.0484233 14.2777535,12.5917953 13.7962186,12.2733767 C13.4694977,12.0572721 13.0507186,11.902214 12.5513581,11.8128419 C12.2659047,11.7615628 11.942114,11.7068651 11.5953698,11.6482605 L11.1079744,11.5657256 C10.8342419,11.5188419 10.5512302,11.4700047 10.2626023,11.4177488 C9.98178837,11.3672023 9.69755581,11.3132372 9.41552093,11.2575628 C8.94424186,11.1645279 8.54499767,11.0775977 8.19483488,10.9918884 C7.15777674,10.7381791 6.64205581,10.5198767 6.39249767,10.3814233 C6.30849767,10.3350279 6.25966047,10.2437023 6.26723023,10.1482256 C6.27504419,10.0527488 6.33804419,9.97045814 6.42814884,9.9379814 C6.78710233,9.80905116 7.38682326,9.71894651 7.88618372,9.71894651 C8.21925349,9.71894651 8.4903,9.4479 8.4903,9.11507442 C8.4903,8.78200465 8.21925349,8.51095814 7.88618372,8.51095814 C6.85303256,8.51095814 5.58131163,8.75612093 5.11149767,9.44399302 C4.87732326,9.78634186 4.83947442,10.2080512 5.0043,10.6314698 C5.19647442,11.1247256 5.73734651,11.4968651 6.75828837,11.8382372 C7.40855581,12.055807 8.28249767,12.2665395 9.50904419,12.5016907 C9.77764884,12.553214 10.0548,12.6049814 10.3488,12.6574814 C10.6188698,12.705586 10.8994395,12.7546674 11.1902651,12.8044814 L11.3939163,12.8394 C11.7367535,12.8972721 12.056393,12.9514814 12.3386721,13.0022721 C12.7638,13.078214 13.0099395,13.1998186 13.1415558,13.2884581 C13.2057767,13.3319233 13.2455791,13.4034698 13.2487535,13.4811209 C13.2519279,13.5587721 13.217986,13.6332488 13.1571837,13.6818419 C13.0043233,13.8039349 12.5474512,14.0901209 11.5094163,14.2244233 M12.9652535,15.6248302 C12.9000558,15.6248302 12.8363233,15.5987023 12.7894395,15.5501093 C12.4092419,15.1555047 11.8168465,14.8248767 11.0764744,14.5941209 C10.9744047,14.5621326 10.9048116,14.4678767 10.9048116,14.3609233 L10.9048116,14.0212605 C10.9048116,13.897214 10.9980907,13.7927023 11.1216488,13.7787837 L11.1739047,13.7719465 C11.2002767,13.7685279 11.226893,13.7651093 11.2549744,13.7621791 C11.7948698,13.706993 12.1701837,13.6100512 12.4214512,13.5182372 C12.3701721,13.5057837 12.3140093,13.4938186 12.2524744,13.4828302 C11.9716605,13.4325279 11.6537302,13.3785628 11.3123581,13.3209349 L11.1079744,13.2857721 C10.8159279,13.2359581 10.5343814,13.1866326 10.2630907,13.1382837 C9.96664884,13.0852953 9.68754419,13.0332837 9.41698605,12.9812721 C8.16870698,12.742214 7.27449767,12.5261093 6.60323023,12.3014581 C5.43235814,11.9097837 4.79893953,11.449493 4.5493814,10.8087488 C4.32375349,10.2305163 4.38040465,9.64788837 4.70810233,9.16830698 C5.43431163,8.10512093 7.32431163,8.02258605 7.88618372,8.02258605 C8.4885907,8.02258605 8.97867209,8.51266744 8.97867209,9.11507442 C8.97867209,9.71723721 8.4885907,10.2073186 7.88618372,10.2073186 C7.71354419,10.2073186 7.52210233,10.2202605 7.33481163,10.2424814 C7.58314884,10.3245279 7.90254419,10.4175628 8.31082326,10.5174349 C8.65390465,10.6014349 9.04606744,10.6869 9.51002093,10.7784698 C9.78961395,10.8336558 10.0709163,10.8871326 10.3490442,10.9371907 C10.6366953,10.9889581 10.9182419,11.0377953 11.1902651,11.0844349 L11.6766837,11.1669698 C12.0251372,11.2255744 12.3501488,11.2805163 12.6373116,11.3320395 C13.2028465,11.4333767 13.6831605,11.6130977 14.0658,11.8660744 C14.6926256,12.2807023 15.0379047,12.8923884 15.013486,13.5448535 C14.9785674,14.4627488 14.2787302,15.1967721 13.0429047,15.6121326 C13.0175093,15.6206791 12.9911372,15.6248302 12.9652535,15.6248302" id="Fill-160" fill="#5A7A8E"></path>
                        </g>
                        <g id="Group-165" transform="translate(27.348837, 15.872093)">
                            <g id="Fill-163-Clipped">
                                <mask id="mask-22" fill="white">
                                    <use xlink:href="#path-21"></use>
                                </mask>
                                <g id="path-21"></g>
                                <path d="M2.20243605,0.933352326 C2.22197093,0.964363953 2.26787791,1.02418953 2.35920349,1.10428256 C2.37068023,0.993910465 2.39900581,0.847643023 2.40877326,0.739224419 C2.30108721,0.816387209 2.2329593,0.884026744 2.20243605,0.933352326" id="Fill-163" fill="#E47460" fill-rule="nonzero" mask="url(#mask-22)"></path>
                            </g>
                        </g>
                        <g id="Group-180" transform="translate(25.639535, 12.453488)" fill-rule="nonzero">
                            <path d="M2.34980233,3.94023488 C2.13418605,4.19565349 2.00354651,4.4701186 1.96960465,4.74092093 C1.85703488,5.64563023 2.60082558,6.42092093 4.18046512,7.04506047 C4.27081395,7.08071163 4.34993023,7.11196744 4.43295349,7.14200233 C4.56456977,7.19010698 4.70448837,7.19279302 4.84880233,7.13931628 C5.01680233,7.07704884 5.14744186,6.94665349 5.20751163,6.78158372 C5.32130233,6.46975814 5.16062791,6.12301395 4.8492907,6.00824651 C4.84538372,6.0067814 4.84123256,6.00507209 4.83732558,6.00336279 C4.51255814,5.88517674 4.22051163,5.75844419 3.97681395,5.62975814 C3.47037209,5.36213023 3.28234884,5.14285116 3.21519767,5.03589767 C3.16587209,4.9567814 3.16562791,4.85642093 3.2147093,4.77730465 C3.30872093,4.62615349 3.5350814,4.45571163 3.84666279,4.29967674 L3.84666279,4.22373488 C3.81931395,4.22056047 3.79147674,4.21763023 3.76339535,4.2147 C3.25060465,4.16244419 2.77615116,4.07038605 2.34980233,3.94023488 M4.64026744,7.66724651 C4.51255814,7.66724651 4.38680233,7.64502558 4.26617442,7.60107209 C4.179,7.56932791 4.09573256,7.53660698 4.01295349,7.50388605 C2.18790698,6.78304884 1.34155814,5.83463023 1.48513953,4.68036279 C1.53690698,4.26451395 1.74910465,3.85281628 2.09877907,3.4902 C2.16397674,3.42231628 2.26311628,3.39814186 2.35224419,3.42817674 C2.78225581,3.57273488 3.27404651,3.67407209 3.8132093,3.72901395 C3.92065116,3.74000233 4.02369767,3.75245581 4.12405814,3.76613023 C4.24493023,3.78273488 4.33503488,3.88602558 4.33503488,4.0081186 L4.33503488,4.45400233 C4.33503488,4.55021163 4.27862791,4.63714186 4.19096512,4.6767 C3.99146512,4.76656047 3.8535,4.85007209 3.76388372,4.9147814 C3.85081395,4.98706047 3.98926744,5.08400233 4.20488372,5.19779302 C4.42977907,5.31671163 4.70204651,5.43465349 5.01411628,5.5482 C5.01802326,5.54966512 5.02193023,5.55113023 5.0260814,5.55283953 C5.58404651,5.76332791 5.8712093,6.38771163 5.66633721,6.94860698 C5.55743023,7.24822326 5.32130233,7.48483953 5.019,7.59716512 C4.89324419,7.64380465 4.76602326,7.66724651 4.64026744,7.66724651" id="Fill-166" fill="#5A7A8E"></path>
                            <path d="M4.93380349,1.17705 C4.63858256,1.12430581 4.36045465,1.07229419 4.09087326,1.02052674 L4.09087326,1.32429419 L4.09087326,2.30055 C4.38951279,2.33424767 4.67228023,2.37624767 4.93380349,2.42752674 C5.24050116,2.48759651 5.51936163,2.5596314 5.77697791,2.6399686 L5.77697791,2.30055 L5.77697791,1.32429419 C5.48566395,1.27423605 5.20436163,1.22515465 4.93380349,1.17705" id="Fill-168" fill="#FFFFFE"></path>
                            <path d="M4.33501047,2.08417674 C4.56552209,2.11421163 4.78211512,2.14913023 4.98088256,2.18795581 C5.17061512,2.22507209 5.35326628,2.26731628 5.53274302,2.31517674 L5.53274302,1.52987442 C5.3127314,1.49202558 5.09882442,1.45442093 4.89102209,1.41754884 C4.69909186,1.3831186 4.5147314,1.34942093 4.33501047,1.31572326 L4.33501047,2.08417674 Z M5.77692907,2.88413023 C5.75275465,2.88413023 5.72809186,2.88046744 5.70416163,2.87314186 C5.43897558,2.79036279 5.17159186,2.72296744 4.88687093,2.66729302 C4.63975465,2.6187 4.36260349,2.57718837 4.06347558,2.54300233 C3.93991744,2.52908372 3.84663837,2.42481628 3.84663837,2.30052558 L3.84663837,1.02074651 C3.84663837,0.947734884 3.87911512,0.878630233 3.93527791,0.83247907 C3.9914407,0.786083721 4.06518488,0.766793023 4.1367314,0.780955814 C4.40558023,0.83247907 4.6827314,0.884246512 4.9767314,0.936746512 C5.24655698,0.984851163 5.52737093,1.03368837 5.81819651,1.08350233 C5.93540581,1.10352558 6.02111512,1.20510698 6.02111512,1.32426977 L6.02111512,2.63994419 C6.02111512,2.71759535 5.98424302,2.79085116 5.9217314,2.83675814 C5.87924302,2.86801395 5.82845233,2.88413023 5.77692907,2.88413023 Z" id="Fill-170" fill="#5A7A8E"></path>
                            <path d="M8.14016163,4.71059302 C8.09718488,4.36653488 7.92259186,4.00172093 7.59318488,3.65961628 C7.2132314,3.26574419 6.62230116,2.90386047 5.77692907,2.64013953 C5.51955698,2.55955814 5.24045233,2.48752326 4.93375465,2.42745349 C4.6722314,2.37617442 4.38970814,2.3344186 4.09082442,2.30047674 C4.04638256,2.29534884 4.00560349,2.28875581 3.96042907,2.28411628 C2.92019651,2.17813953 2.4198593,1.91783721 2.23476628,1.77010465 C2.34733605,1.6939186 2.56930116,1.58867442 2.94461512,1.52152326 C3.22567326,1.47097674 3.54482442,1.41701163 3.88668488,1.35913953 C3.95676628,1.3474186 4.02245233,1.33594186 4.09082442,1.32422093 L4.09082442,1.02069767 C2.94119651,0.800197674 2.01841744,0.586290698 1.3085686,0.34894186 C0.685894186,0.760639535 0.451719767,1.32080233 0.470277907,1.8147907 C0.501533721,2.63696512 1.1547314,3.28332558 2.2745686,3.65961628 C2.71166163,3.80661628 3.21737093,3.91356977 3.78852209,3.97193023 C3.89278953,3.98267442 3.99339419,3.99463953 4.09082442,4.00806977 C4.40582442,4.05055814 4.68615,4.1055 4.93375465,4.16776744 C5.27634767,4.2542093 5.55447558,4.3540814 5.77692907,4.45395349 C6.16860349,4.63025581 6.3837314,4.80606977 6.44551047,4.90618605 C6.40424302,4.97187209 6.25284767,5.16209302 5.77692907,5.41360465 L5.77692907,7.27186047 C7.47231279,6.60205814 8.2683593,5.74154651 8.14016163,4.71059302" id="Fill-172" fill="#FFFFFE"></path>
                            <path d="M6.02118837,5.55784535 L6.02118837,6.90526395 C7.37104884,6.30627558 8.00202558,5.57908953 7.89800233,4.74079884 C7.85917674,4.43043837 7.69313023,4.11519419 7.41744419,3.82900814 C7.03700233,3.43464767 6.44460698,3.10401977 5.70423488,2.87301977 C5.43904884,2.79048488 5.17166512,2.72308953 4.8867,2.66717093 C4.63982791,2.61882209 4.36267674,2.57706628 4.06330465,2.54312442 L3.93608372,2.52725233 C2.75153721,2.40638023 2.24509535,2.09089186 2.08246744,1.96098488 C2.02166512,1.91239186 1.98772326,1.83791512 1.99089767,1.76026395 C1.99407209,1.68285698 2.03387442,1.61131047 2.09833953,1.56784535 C2.22946744,1.47896163 2.47536279,1.35735698 2.90171163,1.28117093 C3.10487442,1.24478721 3.32781628,1.20645 3.56467674,1.1661593 C2.62846744,0.976915116 1.91324651,0.800124419 1.34868837,0.618938372 C0.927467442,0.932717442 0.697444186,1.35979884 0.714293023,1.80543837 C0.740909302,2.50576395 1.32256047,3.08228721 2.35229302,3.42829884 C2.78230465,3.57285698 3.27409535,3.67395 3.81325814,3.72889186 C3.92045581,3.73988023 4.02374651,3.75233372 4.12386279,3.76625233 C4.42909535,3.80727558 4.72187442,3.86270581 4.9934093,3.93107791 C5.31866512,4.01288023 5.61583953,4.11397326 5.87687442,4.23118256 C6.26317674,4.40504302 6.54618837,4.60429884 6.65338605,4.77791512 C6.70197907,4.8570314 6.70173488,4.95714767 6.6524093,5.03577558 C6.59136279,5.13296163 6.43068837,5.32293837 6.02118837,5.55784535 M5.77700233,7.51621744 C5.72865349,7.51621744 5.68054884,7.50181047 5.63976977,7.47372907 C5.57286279,7.42831047 5.53281628,7.35285698 5.53281628,7.2720314 L5.53281628,5.4135314 C5.53281628,5.32318256 5.58287442,5.23991512 5.66272326,5.19767093 C5.87858372,5.08363605 6.01679302,4.98669419 6.10372326,4.9146593 C6.01435116,4.85019419 5.87663023,4.76668256 5.67688605,4.67682209 C5.44173488,4.57108953 5.17166512,4.47951977 4.87424651,4.40455465 C4.62053721,4.34082209 4.34607209,4.28881047 4.05817674,4.25022907 C3.9627,4.23704302 3.86502558,4.22507791 3.76344419,4.21482209 C3.18838605,4.15621744 2.66118837,4.04731047 2.19674651,3.8910314 C0.96092093,3.47591512 0.261083721,2.74164767 0.226409302,1.82399651 C0.201746512,1.1715314 0.547025581,0.559601163 1.17385116,0.145217442 C1.23660698,0.103461628 1.3149907,0.09345 1.38629302,0.117380233 C2.03656047,0.33495 2.91050233,0.545682558 4.13680465,0.780833721 C4.25181628,0.802810465 4.33508372,0.903415116 4.33508372,1.02062442 L4.33508372,1.32414767 C4.33508372,1.44306628 4.24913023,1.54489186 4.13192093,1.56491512 L3.9277814,1.60007791 C3.58616512,1.65746163 3.26823488,1.71167093 2.98766512,1.76197326 C2.92613023,1.77296163 2.86972326,1.78492674 2.8182,1.79738023 C3.06971163,1.88919419 3.44502558,1.98613605 3.98516512,2.04132209 C4.01275814,2.04400814 4.0396186,2.04767093 4.06623488,2.05133372 L4.11824651,2.05792674 C4.43080465,2.09333372 4.72089767,2.13704302 4.98071163,2.18783372 C5.28325814,2.24717093 5.5674907,2.31871744 5.84976977,2.4068686 C6.67975814,2.66595 7.32563023,3.03027558 7.76882791,3.49007791 C8.11850233,3.85293837 8.3307,4.26439186 8.38246744,4.6802407 C8.52604884,5.83426395 7.6797,6.78268256 5.8666186,7.49912442 C5.83780465,7.51060116 5.8072814,7.51621744 5.77700233,7.51621744" id="Fill-174" fill="#5A7A8E"></path>
                            <path d="M4.93380349,4.16786512 C4.68619884,4.10559767 4.40587326,4.05065581 4.09087326,4.00816744 L4.09087326,4.45405116 L4.09087326,5.41394651 C4.30111744,5.52505116 4.57436163,5.64812093 4.93062907,5.77778372 C4.93185,5.77827209 4.93282674,5.77900465 4.93380349,5.77924884 C5.37162907,5.94065581 5.59725698,6.42609767 5.43707093,6.8649 C5.3484314,7.10835349 5.15918721,7.28465581 4.93380349,7.36816744 C4.84052442,7.40284186 4.74162907,7.4231093 4.64029186,7.4231093 C4.54383837,7.4231093 4.44591977,7.40674884 4.34971047,7.37158605 C4.26033837,7.3391093 4.17560581,7.30565581 4.09087326,7.27220233 L4.09087326,7.9761907 C4.09087326,8.39521395 4.43053605,8.73487674 4.84931512,8.73487674 L5.01829186,8.73487674 C5.4375593,8.73487674 5.77697791,8.39521395 5.77697791,7.9761907 L5.77697791,7.27195814 L5.77697791,5.41370233 L5.77697791,4.45405116 C5.55452442,4.35417907 5.27639651,4.25430698 4.93380349,4.16786512" id="Fill-176" fill="#FFFFFE"></path>
                            <path d="M5.0260814,5.55296163 C5.23803488,5.63305465 5.41116279,5.77272907 5.53276744,5.94610116 L5.53276744,4.6155314 C5.33351163,4.53543837 5.11252326,4.46462442 4.87419767,4.40455465 C4.70326744,4.36157791 4.52256977,4.32397326 4.33503488,4.29198488 L4.33503488,5.26384535 C4.53233721,5.36029884 4.7599186,5.45577558 5.01411628,5.54832209 C5.01802326,5.54954302 5.02193023,5.55125233 5.0260814,5.55296163 M4.33503488,7.6236593 L4.33503488,7.97601977 C4.33503488,8.25976395 4.5657907,8.49076395 4.8492907,8.49076395 L5.01826744,8.49076395 C5.30201163,8.49076395 5.53276744,8.25976395 5.53276744,7.97601977 L5.53276744,7.2036593 C5.40725581,7.38093837 5.229,7.51914767 5.019,7.59728721 C4.7897093,7.68201977 4.55504651,7.68788023 4.33503488,7.6236593 M5.01826744,8.97913605 L4.8492907,8.97913605 C4.29645349,8.97913605 3.84666279,8.52910116 3.84666279,7.97601977 L3.84666279,7.27227558 C3.84666279,7.19120581 3.8867093,7.11575233 3.95337209,7.07033372 C4.02027907,7.02467093 4.10501163,7.01514767 4.18046512,7.04493837 C4.27056977,7.08058953 4.34968605,7.11184535 4.43295349,7.14212442 C4.56456977,7.18998488 4.70448837,7.19291512 4.84880233,7.13943837 C5.01680233,7.07692674 5.14744186,6.9465314 5.20751163,6.78146163 C5.32130233,6.46963605 5.16062791,6.12289186 4.8492907,6.0083686 L4.8492907,6.00812442 C4.84538372,6.0066593 4.84147674,6.00519419 4.83756977,6.00348488 C4.51255814,5.88529884 4.22051163,5.75856628 3.97681395,5.62963605 C3.89672093,5.58739186 3.84666279,5.5043686 3.84666279,5.41377558 L3.84666279,4.00799651 C3.84666279,3.93767093 3.87718605,3.87051977 3.93017442,3.82412442 C3.98316279,3.77772907 4.05251163,3.75648488 4.12356977,3.76600814 C4.4292907,3.80727558 4.72182558,3.86270581 4.99336047,3.93107791 C5.31861628,4.01288023 5.6157907,4.11397326 5.87706977,4.23118256 C5.96473256,4.2707407 6.02113953,4.35791512 6.02113953,4.45412442 L6.02113953,7.97601977 C6.02113953,8.52910116 5.57110465,8.97913605 5.01826744,8.97913605" id="Fill-178" fill="#5A7A8E"></path>
                        </g>
                    </g>
                </g>
            </g>
        </g>
    </g>
</svg>