<?xml version="1.0" encoding="UTF-8"?>
<svg width="42px" height="42px" viewBox="0 0 42 42" version="1.1" xmlns="http://www.w3.org/2000/svg" xmlns:xlink="http://www.w3.org/1999/xlink">
    <!-- Generator: Sketch 58 (84663) - https://sketch.com -->
    <title>Assure</title>
    <desc>Created with Sketch.</desc>
    <defs>
        <path d="M0.198153846,8.62803846 C1.14988462,8.10115385 3.09157692,8.03707692 5.21392308,8.54646154 C8.04811538,9.226 10.1308846,10.6698846 9.86730769,11.7710385 C10.1308846,10.6698846 12.6422692,10.3279615 15.4767308,11.0075 C18.3101154,11.6875769 20.3936923,13.1309231 20.1293077,14.2323462 C20.3936923,13.1309231 22.9050769,12.7892692 25.739,13.4690769 C28.0942308,14.0339231 29.9293077,15.1261923 30.331,16.1115769 C30.2811923,8.91261538 25.3583077,2.401 18.0433077,0.646692308 C16.7876154,0.345692308 15.5305769,0.201384615 14.294,0.201384615 C8.41238462,0.200846154 2.97876923,3.46392308 0.198153846,8.62803846" id="path-1"></path>
        <path d="M0.198153846,8.62803846 C1.14988462,8.10115385 3.09157692,8.03707692 5.21392308,8.54646154 C8.04811538,9.226 10.1308846,10.6698846 9.86730769,11.7710385 C10.1308846,10.6698846 12.6422692,10.3279615 15.4767308,11.0075 C18.3101154,11.6875769 20.3936923,13.1309231 20.1293077,14.2323462 C20.3936923,13.1309231 22.9050769,12.7892692 25.739,13.4690769 C28.0942308,14.0339231 29.9293077,15.1261923 30.331,16.1115769 C30.2811923,8.91261538 25.3583077,2.401 18.0433077,0.646692308 C16.7876154,0.345692308 15.5305769,0.201384615 14.294,0.201384615 C8.41238462,0.200846154 2.97876923,3.46392308 0.198153846,8.62803846" id="path-3"></path>
    </defs>
    <g id="Reco-Page" stroke="none" stroke-width="1" fill="none" fill-rule="evenodd">
        <g id="Refer_landing" transform="translate(-21.000000, -638.000000)">
            <g id="Group-6" transform="translate(10.000000, 531.000000)">
                <g id="Group-2-Copy-2" transform="translate(0.000000, 87.000000)">
                    <g id="Assure" transform="translate(11.000000, 20.000000)">
                        <path d="M38.6057,22.6917654 C38.6057,33.3271885 29.9841231,41.9484962 19.3487,41.9484962 C8.71381538,41.9484962 0.0917,33.3271885 0.0917,22.6917654 C0.0917,12.0566115 8.71381538,3.43557308 19.3487,3.43557308 C29.9841231,3.43557308 38.6057,12.0566115 38.6057,22.6917654" id="Fill-1" fill="#F9DED5" fill-rule="nonzero"></path>
                        <path d="M20.9056077,12.0403231 C21.1691846,10.9389 23.6808385,10.5972462 26.5150308,11.2767846 C29.3486846,11.9565923 31.4322615,13.4002077 31.1676077,14.5019 C31.4322615,13.4002077 33.9436462,13.0585538 36.7773,13.7383615 C39.1325308,14.3029385 40.9678769,15.3954769 41.3695692,16.3808615 C41.3194923,9.1819 36.3966077,2.67028462 29.0816077,0.915976923 C21.8538385,-0.817869231 14.6018385,2.6474 11.2367231,8.89705385 C12.1884538,8.37043846 14.1301462,8.30636154 16.2524923,8.81547692 C19.0866846,9.49528462 21.1691846,10.9389 20.9056077,12.0403231" id="Fill-3" fill="#FFFFFE" fill-rule="nonzero"></path>
                        <path d="M34.0151,13.1194808 C34.8895615,13.1194808 35.8663308,13.2427885 36.8401385,13.4764808 C38.6827538,13.9182885 40.2391769,14.6804808 41.0700231,15.5059423 C40.6438308,8.62548077 35.7955231,2.80309615 29.0187154,1.17775 C27.8069077,0.886980769 26.5668308,0.739711538 25.3326769,0.739711538 C19.7838308,0.739711538 14.6808308,3.64848077 11.8407154,8.37967308 C12.9486,8.09159615 14.6415231,8.15217308 16.3153308,8.55386538 C18.7777154,9.14428846 20.6060615,10.2408654 21.0780231,11.3148269 C21.5936,10.8907885 22.5178692,10.6579038 23.7528308,10.6579038 C24.6272923,10.6579038 25.6040615,10.7814808 26.5778692,11.0149038 C27.9802923,11.3514423 29.2513308,11.8823654 30.1564846,12.5099423 C30.7522923,12.9229423 31.1529077,13.3553269 31.3394846,13.7772115 C31.8550615,13.3526346 32.7796,13.1194808 34.0151,13.1194808 M41.3694077,16.6501731 C41.2617154,16.6501731 41.1621,16.5852885 41.1203692,16.4824423 C40.7999846,15.6970962 39.1837923,14.5921731 36.7144077,14.0001346 C35.7815231,13.7761346 34.8478308,13.6579423 34.0151,13.6579423 C32.5766,13.6579423 31.5618692,14.0138654 31.4294077,14.5647115 C31.3949462,14.7090192 31.2482154,14.7978654 31.1047154,14.7634038 C30.9814077,14.7340577 30.8984846,14.6236731 30.8984846,14.50225 C30.8984846,14.48125 30.9009077,14.4599808 30.9057538,14.4389808 C31.0045615,14.0278654 30.6198308,13.4859038 29.8498308,12.9522885 C28.9977154,12.3621346 27.7912923,11.85975 26.4521385,11.5385577 C25.5189846,11.3148269 24.5855615,11.1963654 23.7528308,11.1963654 C22.3140615,11.1963654 21.2993308,11.5522885 21.1674077,12.1031346 C21.1326769,12.2477115 20.9872923,12.3365577 20.8429846,12.3020962 C20.7194077,12.2724808 20.6364846,12.1623654 20.6364846,12.0409423 C20.6362154,12.0202115 20.6386385,11.9986731 20.6437538,11.9776731 C20.8400231,11.1581346 19.0590615,9.76540385 16.1896,9.07751923 C14.2422538,8.61013462 12.2564077,8.64082692 11.3671385,9.13271154 C11.2618692,9.19032692 11.1318308,9.17228846 11.0472923,9.08855769 C10.9624846,9.00455769 10.9431,8.87451923 10.9996385,8.76951923 C13.8454077,3.48425 19.3374462,0.20125 25.3326769,0.20125 C26.6091,0.20125 27.8914462,0.353365385 29.1444462,0.654096154 C36.4314462,2.40167308 41.5621769,8.84086538 41.6381,16.3246731 C41.6421385,16.3429808 41.6440231,16.3615577 41.6440231,16.3809423 C41.6440231,16.5295577 41.5236769,16.6501731 41.3747923,16.6501731 C41.3737154,16.6499038 41.3712923,16.6501731 41.3694077,16.6501731" id="Fill-5" fill="#5A7A8E" fill-rule="nonzero"></path>
                        <g id="Group-10" transform="translate(11.038462, 0.269231)">
                            <g id="Fill-8-Clipped">
                                <mask id="mask-2" fill="white">
                                    <use xlink:href="#path-1"></use>
                                </mask>
                                <g id="path-1"></g>
                                <path d="M10.5625692,13.5158423 C10.8264154,12.4144192 13.3380692,12.0727654 16.1722615,12.7523038 C19.0059154,13.4321115 21.0894923,14.8757269 20.8248385,15.9774192 C21.0894923,14.8757269 23.6008769,14.5340731 26.4345308,15.2138808 C28.7897615,15.7784577 30.6251077,16.8709962 31.0268,17.8563808 C30.9767231,10.6574192 26.0538385,4.14580385 18.7388385,2.39149615 C11.5110692,0.65765 4.25906923,4.12291923 0.893953846,10.3725731 C1.84568462,9.84595769 3.78737692,9.78188077 5.90972308,10.2909962 C8.74391538,10.9708038 10.8264154,12.4144192 10.5625692,13.5158423" id="Fill-8" fill="#E98875" fill-rule="nonzero" mask="url(#mask-2)"></path>
                            </g>
                        </g>
                        <g id="Group-13" transform="translate(11.038462, 0.269231)">
                            <g id="Fill-11-Clipped">
                                <mask id="mask-4" fill="white">
                                    <use xlink:href="#path-3"></use>
                                </mask>
                                <g id="path-3"></g>
                                <path d="M30.5377154,14.0574538 C30.5387923,14.1231462 30.5425615,14.1883 30.5431,14.2539923 C30.1411385,13.2686077 28.3060615,12.1763385 25.9508308,11.6114923 C23.1171769,10.9319538 20.6055231,11.2733385 20.3411385,12.3750308 C20.6055231,11.2733385 18.5222154,9.82999231 15.6885615,9.14991538 C12.8541,8.47037692 10.3427154,8.8123 10.0788692,9.91345385 C10.3427154,8.8123 8.26021538,7.36841538 5.42602308,6.68887692 C4.90533077,6.56395385 4.39567692,6.47376154 3.90836923,6.41641538 C2.71890769,7.55633846 1.69529231,8.88418462 0.894061538,10.3724923 C1.84579231,9.84587692 3.78748462,9.7818 5.90956154,10.2911846 C8.74402308,10.9707231 10.8265231,12.4143385 10.5626769,13.5157615 C10.8265231,12.4143385 13.3379077,12.0726846 16.1723692,12.7522231 C19.0060231,13.4323 21.0893308,14.8756462 20.8249462,15.9773385 C21.0893308,14.8756462 23.6007154,14.5342615 26.4346385,15.2138 C28.7898692,15.7786462 30.6249462,16.8709154 31.0266385,17.8563 C31.0177538,16.5596846 30.8484077,15.2856846 30.5377154,14.0574538" id="Fill-11" fill="#E47460" fill-rule="nonzero" mask="url(#mask-4)"></path>
                            </g>
                        </g>
                        <path d="M34.0151,13.1194808 C34.8895615,13.1194808 35.8663308,13.2427885 36.8401385,13.4764808 C38.6827538,13.9182885 40.2391769,14.6804808 41.0700231,15.5059423 C40.6438308,8.62548077 35.7955231,2.80309615 29.0187154,1.17775 C27.8069077,0.886980769 26.5668308,0.739711538 25.3326769,0.739711538 C19.7838308,0.739711538 14.6808308,3.64848077 11.8407154,8.37967308 C12.9486,8.09159615 14.6415231,8.15217308 16.3153308,8.55386538 C18.7777154,9.14428846 20.6060615,10.2408654 21.0780231,11.3148269 C21.5936,10.8907885 22.5178692,10.6579038 23.7528308,10.6579038 C24.6272923,10.6579038 25.6040615,10.7814808 26.5778692,11.0149038 C27.9802923,11.3514423 29.2513308,11.8823654 30.1564846,12.5099423 C30.7522923,12.9229423 31.1529077,13.3553269 31.3394846,13.7772115 C31.8550615,13.3526346 32.7796,13.1194808 34.0151,13.1194808 M41.3694077,16.6501731 C41.2617154,16.6501731 41.1621,16.5852885 41.1203692,16.4824423 C40.7999846,15.6970962 39.1837923,14.5921731 36.7144077,14.0001346 C35.7815231,13.7761346 34.8478308,13.6579423 34.0151,13.6579423 C32.5766,13.6579423 31.5618692,14.0138654 31.4294077,14.5647115 C31.3949462,14.7090192 31.2482154,14.7978654 31.1047154,14.7634038 C30.9814077,14.7340577 30.8984846,14.6236731 30.8984846,14.50225 C30.8984846,14.48125 30.9009077,14.4599808 30.9057538,14.4389808 C31.0045615,14.0278654 30.6198308,13.4859038 29.8498308,12.9522885 C28.9977154,12.3621346 27.7912923,11.85975 26.4521385,11.5385577 C25.5189846,11.3148269 24.5855615,11.1963654 23.7528308,11.1963654 C22.3140615,11.1963654 21.2993308,11.5522885 21.1674077,12.1031346 C21.1326769,12.2477115 20.9872923,12.3365577 20.8429846,12.3020962 C20.7194077,12.2724808 20.6364846,12.1623654 20.6364846,12.0409423 C20.6362154,12.0202115 20.6386385,11.9986731 20.6437538,11.9776731 C20.8400231,11.1581346 19.0590615,9.76540385 16.1896,9.07751923 C14.2422538,8.61013462 12.2564077,8.64082692 11.3671385,9.13271154 C11.2618692,9.19032692 11.1318308,9.17228846 11.0472923,9.08855769 C10.9624846,9.00455769 10.9431,8.87451923 10.9996385,8.76951923 C13.8454077,3.48425 19.3374462,0.20125 25.3326769,0.20125 C26.6091,0.20125 27.8914462,0.353365385 29.1444462,0.654096154 C36.4314462,2.40167308 41.5621769,8.84086538 41.6381,16.3246731 C41.6421385,16.3429808 41.6440231,16.3615577 41.6440231,16.3809423 C41.6440231,16.5295577 41.5236769,16.6501731 41.3747923,16.6501731 C41.3737154,16.6499038 41.3712923,16.6501731 41.3694077,16.6501731" id="Fill-15" fill="#5A7A8E" fill-rule="nonzero"></path>
                        <path d="M26.5150308,11.2768115 L23.3741846,26.4040808" id="Fill-17" fill="#FFFFFE" fill-rule="nonzero"></path>
                        <path d="M23.3744269,26.6731769 C23.3563885,26.6731769 23.3378115,26.6712923 23.3195038,26.6675231 C23.17385,26.6373692 23.0801577,26.4946769 23.1105808,26.3492923 L26.2514269,11.2220231 C26.2815808,11.0763692 26.4242731,10.9824077 26.5696577,11.0131 C26.7153115,11.0435231 26.8090038,11.1859462 26.77885,11.3316 L23.6380038,26.4586 C23.61135,26.5856769 23.49935,26.6731769 23.3744269,26.6731769" id="Fill-19" fill="#5A7A8E" fill-rule="nonzero"></path>
                        <path d="M17.0669692,15.8211308 C17.0669692,16.9992846 16.1120077,17.9547846 14.9341231,17.9547846 C13.7557,17.9547846 12.8004692,16.9992846 12.8004692,15.8211308 C12.8004692,14.6429769 13.7557,13.6874769 14.9341231,13.6874769 C16.1120077,13.6874769 17.0669692,14.6429769 17.0669692,15.8211308" id="Fill-21" fill="#FFFFFE" fill-rule="nonzero"></path>
                        <path d="M14.93415,13.9567615 C13.9062269,13.9567615 13.0697269,14.7929923 13.0697269,15.8211846 C13.0697269,16.8491077 13.9062269,17.6856077 14.93415,17.6856077 C15.9618038,17.6856077 16.7977654,16.8491077 16.7977654,15.8211846 C16.7977654,14.7929923 15.9618038,13.9567615 14.93415,13.9567615 M14.93415,18.2240692 C13.6092654,18.2240692 12.5312654,17.1460692 12.5312654,15.8211846 C12.5312654,14.4960308 13.6092654,13.4183 14.93415,13.4183 C16.2584962,13.4183 17.3362269,14.4960308 17.3362269,15.8211846 C17.3362269,17.1460692 16.2584962,18.2240692 14.93415,18.2240692" id="Fill-23" fill="#5A7A8E" fill-rule="nonzero"></path>
                        <path d="M17.2999077,19.3594962 L12.0997154,19.3594962 C10.6760231,19.3594962 9.52183077,20.51315 9.52183077,21.9365731 L9.52183077,22.09165 L9.52183077,25.7854962 L9.52183077,28.8232269 C9.52183077,29.5738423 10.0713308,30.1823038 10.7481769,30.1823038 C11.4250231,30.1823038 11.9745231,29.5738423 11.9745231,28.8232269 L11.9745231,23.1858038 C11.9766769,23.1858038 11.9785615,28.35665 11.9807154,28.35665 L11.9807154,36.5243038 C11.9807154,37.27465 12.5897154,37.88365 13.3400615,37.88365 C14.0906769,37.88365 14.6996769,37.27465 14.6996769,36.5243038 C14.6996769,37.27465 15.3081385,37.88365 16.0595615,37.88365 C16.8099077,37.88365 17.4186385,37.27465 17.4186385,36.5243038 L17.4186385,30.1763808 C18.7863308,30.1141885 19.8769846,28.9888038 19.8769846,27.6054962 L19.8769846,21.9365731 C19.8769846,20.51315 18.7233308,19.3594962 17.2999077,19.3594962" id="Fill-25" fill="#FFFFFE" fill-rule="nonzero"></path>
                        <path d="M14.9688538,36.5244115 C14.9688538,37.1253346 15.4580462,37.6145269 16.0595077,37.6145269 C16.6604308,37.6145269 17.1496231,37.1253346 17.1496231,36.5244115 L17.1496231,30.1764885 C17.1496231,30.03245 17.2627,29.9139885 17.4064692,29.9075269 C18.6408923,29.8512577 19.6077,28.8400269 19.6077,27.6056038 L19.6077,21.9366808 C19.6077,20.6640269 18.5725077,19.6288346 17.2998538,19.6288346 L12.0996615,19.6288346 C10.8267385,19.6288346 9.79127692,20.6640269 9.79127692,21.9366808 L9.79127692,28.8233346 C9.79127692,29.4242577 10.2204308,29.9129115 10.7481231,29.9129115 C11.2758154,29.9129115 11.7052385,29.4242577 11.7052385,28.8233346 L11.7052385,23.1859115 C11.7052385,23.0370269 11.8258538,22.9166808 11.9744692,22.9166808 C12.1629308,22.9166808 12.2197385,23.0284115 12.2369692,23.1859115 L12.2437,23.1859115 L12.2437,23.3065269 C12.2442385,23.3393731 12.2445077,23.3730269 12.2445077,23.4074885 L12.2469308,25.7710654 C12.2477385,26.9406038 12.2488154,28.26495 12.2498923,28.3476038 C12.2498923,28.3508346 12.2498923,28.3535269 12.2498923,28.3567577 L12.2498923,36.5244115 C12.2498923,37.1253346 12.7390846,37.6145269 13.3400077,37.6145269 C13.9412,37.6145269 14.4303923,37.1253346 14.4303923,36.5244115 C14.4303923,36.3755269 14.5510077,36.2551808 14.6996231,36.2551808 C14.8482385,36.2551808 14.9688538,36.3755269 14.9688538,36.5244115 M16.0595077,38.1529885 C15.4919692,38.1529885 14.9914692,37.8614115 14.6996231,37.4204115 C14.4080462,37.8614115 13.9075462,38.1529885 13.3400077,38.1529885 C12.4421231,38.1529885 11.7114308,37.4222962 11.7114308,36.5244115 L11.7114308,30.0677192 C11.4510846,30.3070654 11.1148154,30.4513731 10.7481231,30.4513731 C9.92346923,30.4513731 9.25281538,29.72095 9.25281538,28.8233346 L9.25281538,21.9366808 C9.25281538,20.3670654 10.5297769,19.0903731 12.0996615,19.0903731 L17.2998538,19.0903731 C18.8694692,19.0903731 20.1461615,20.3670654 20.1461615,21.9366808 L20.1461615,27.6056038 C20.1461615,29.04195 19.0856615,30.2330269 17.6880846,30.4222962 L17.6880846,36.5244115 C17.6880846,37.4222962 16.9573923,38.1529885 16.0595077,38.1529885" id="Fill-27" fill="#5A7A8E" fill-rule="nonzero"></path>
                        <path d="M25.3297692,17.9547308 C26.5076538,17.9547308 27.4626154,16.9992308 27.4626154,15.8210769 C27.4626154,14.6429231 26.5076538,13.6874231 25.3297692,13.6874231 C24.1513462,13.6874231 23.1958462,14.6429231 23.1958462,15.8210769 C23.1958462,16.9992308 24.1513462,17.9547308 25.3297692,17.9547308" id="Fill-29" fill="#FFFFFE" fill-rule="nonzero"></path>
                        <path d="M25.3297692,13.9567615 C24.3015769,13.9567615 23.4650769,14.7929923 23.4650769,15.8211846 C23.4650769,16.8491077 24.3015769,17.6856077 25.3297692,17.6856077 C26.3571538,17.6856077 27.1933846,16.8491077 27.1933846,15.8211846 C27.1933846,14.7929923 26.3571538,13.9567615 25.3297692,13.9567615 M25.3297692,18.2240692 C24.0046154,18.2240692 22.9266154,17.1460692 22.9266154,15.8211846 C22.9266154,14.4960308 24.0046154,13.4183 25.3297692,13.4183 C26.6543846,13.4183 27.7318462,14.4960308 27.7318462,15.8211846 C27.7318462,17.1460692 26.6543846,18.2240692 25.3297692,18.2240692" id="Fill-31" fill="#5A7A8E" fill-rule="nonzero"></path>
                        <path d="M25.3234692,31.17135 L25.3355846,31.17135 C25.3345077,31.1912731 25.3296615,36.38985 25.3296615,36.4103115 C25.3296615,36.38985 25.3245462,31.1912731 25.3234692,31.17135 M30.7379692,27.0782346 L28.7120077,21.2111577 C28.4344308,20.22685 27.8827769,19.3593885 26.8594308,19.3593885 L26.2138154,19.3593885 L24.3413154,19.3593885 L23.6954308,19.3593885 C22.6720846,19.3593885 22.1207,20.22685 21.8428538,21.2111577 C21.3297,23.0349269 18.8247769,31.17135 18.8247769,31.17135 L23.2121615,31.17135 C23.2121615,31.17135 23.2347769,31.2103885 23.2347769,31.2303115 L23.2347769,36.4156962 C23.2347769,36.9940038 23.7037769,37.4630038 24.2818154,37.4630038 C24.8606615,37.4630038 25.3296615,36.9940038 25.3296615,36.4156962 C25.3296615,36.9940038 25.7983923,37.4630038 26.3767,37.4630038 C26.9552769,37.4630038 27.4242769,36.9940038 27.4242769,36.4156962 L27.4242769,31.2303115 C27.4242769,31.2103885 27.4194308,31.1912731 27.4183538,31.17135 L29.7999692,31.17135 C29.7999692,31.17135 29.3778154,29.7988115 28.8439308,28.0547346 C29.1452,28.5923885 29.6952385,28.8820808 30.1758154,28.7140808 C30.7339308,28.5194269 30.9851231,27.7873885 30.7379692,27.0782346" id="Fill-33" fill="#FFFFFE" fill-rule="nonzero"></path>
                        <path d="M25.599,36.4155615 C25.599,36.8447154 25.9479231,37.1939077 26.3768077,37.1939077 C26.8056923,37.1939077 27.1548846,36.8447154 27.1548846,36.4155615 L27.1548846,31.2301769 C27.1538077,31.2229077 27.1500385,31.1930231 27.1495,31.1854846 C27.1457308,31.1117154 27.1723846,31.0395615 27.223,30.9859846 C27.2738846,30.9324077 27.3444231,30.9019846 27.4184615,30.9019846 L29.4355385,30.9019846 C29.2772308,30.3869462 28.959,29.3506769 28.5866538,28.1334846 C28.5462692,28.0021 28.6114231,27.8612923 28.7382308,27.8071769 C28.8634231,27.7530615 29.0115,27.8028692 29.0788077,27.9232154 C29.3154615,28.3453692 29.7462308,28.5793308 30.0870769,28.4597923 C30.5038462,28.3144077 30.6818077,27.7344846 30.4839231,27.1669462 L28.4574231,21.2990615 C28.1429615,20.1857923 27.6069231,19.6287538 26.8595385,19.6287538 L23.6955385,19.6287538 C22.9478846,19.6287538 22.4118462,20.1857923 22.1022308,21.2842538 C21.6547692,22.8740615 19.6740385,29.3251 19.1894231,30.9019846 L23.2122692,30.9019846 C23.3081154,30.9019846 23.3966923,30.9531385 23.4448846,31.0363308 C23.4841923,31.1036385 23.5041154,31.1687923 23.5041154,31.2301769 L23.5041154,36.4155615 C23.5041154,36.8447154 23.8530385,37.1939077 24.2816538,37.1939077 C24.7110769,37.1939077 25.0605385,36.8447154 25.0605385,36.4155615 L25.0605385,36.4128692 L25.0605385,36.4104462 L25.0605385,36.4101769 C25.0605385,36.3625231 25.0551538,31.2729846 25.0543462,31.1757923 C25.0535385,31.1039077 25.0815385,31.0339077 25.1321538,30.9827538 C25.1825,30.9316 25.2514231,30.9019846 25.3235769,30.9019846 L25.3354231,30.9019846 C25.4094615,30.9019846 25.4802692,30.9324077 25.5308846,30.9859846 C25.5817692,31.0395615 25.6081538,31.1117154 25.6046538,31.1854846 C25.6038462,31.2681385 25.599,36.3622538 25.599,36.4101769 L25.599,36.4104462 L25.599,36.4128692 L25.599,36.4155615 Z M26.3768077,37.7323692 C25.9503462,37.7323692 25.5704615,37.5282923 25.3297692,37.2124846 C25.0888077,37.5282923 24.7086538,37.7323692 24.2816538,37.7323692 C23.5560769,37.7323692 22.9656538,37.1414077 22.9656538,36.4155615 L22.9656538,31.4404462 L18.8248846,31.4404462 C18.7392692,31.4404462 18.6590385,31.4000615 18.6084231,31.3311385 C18.5575385,31.2624846 18.5424615,31.1736385 18.5675,31.0923308 C18.5925385,31.0107538 21.0772692,22.9378692 21.5836923,21.1383308 C21.9616923,19.7983692 22.6918462,19.0902923 23.6955385,19.0902923 L26.8595385,19.0902923 C27.8629615,19.0902923 28.5931154,19.7983692 28.9711154,21.1380615 L30.9925,26.9903308 C31.2878462,27.8376 30.9612692,28.7252538 30.2645,28.9681 C30.1457692,29.0098308 30.0208462,29.0308308 29.8935,29.0308308 C29.7225385,29.0308308 29.5526538,28.9931385 29.3913846,28.9226 C29.7273846,30.0186385 29.9796538,30.8400615 30.0423846,31.0433308 C30.0628462,31.0815615 30.0744231,31.1251769 30.0744231,31.1712154 C30.0744231,31.3201 29.9540769,31.4404462 29.8051923,31.4404462 C29.8038462,31.4407154 29.8019615,31.4407154 29.8000769,31.4404462 L27.6933462,31.4404462 L27.6933462,36.4155615 C27.6933462,37.1414077 27.1026538,37.7323692 26.3768077,37.7323692 Z" id="Fill-35" fill="#5A7A8E" fill-rule="nonzero"></path>
                        <polygon id="Fill-37" fill="#FFFFFE" fill-rule="nonzero" points="17.7468846 27.6228077 23.1958462 27.6228077 23.1958462 23.7911154 17.7468846 23.7911154"></polygon>
                        <path d="M15.3921654,17.8195769 C14.4592808,17.8195769 13.7003192,17.0608846 13.7003192,16.1274615 C13.7003192,15.1945769 14.4592808,14.4356154 15.3921654,14.4356154 C16.32505,14.4356154 17.0837423,15.1945769 17.0837423,16.1274615 C17.0837423,17.0608846 16.32505,17.8195769 15.3921654,17.8195769" id="Fill-39" fill="#E98875" fill-rule="nonzero"></path>
                        <path d="M25.7877846,17.8195769 C24.8549,17.8195769 24.0956692,17.0608846 24.0956692,16.1274615 C24.0956692,15.1945769 24.8549,14.4356154 25.7877846,14.4356154 C26.7206692,14.4356154 27.4793615,15.1945769 27.4793615,16.1274615 C27.4793615,17.0608846 26.7206692,17.8195769 25.7877846,17.8195769" id="Fill-40" fill="#E98875" fill-rule="nonzero"></path>
                        <path d="M26.6186038,14.6553346 C26.8156808,14.9321038 26.9336038,15.26945 26.9336038,15.6350654 C26.9336038,16.56795 26.1749115,17.3269115 25.2420269,17.3269115 C24.9402192,17.3269115 24.6561808,17.2464115 24.4106423,17.1066808 C24.7175654,17.53745 25.21995,17.8196038 25.7877577,17.8196038 C26.7206423,17.8196038 27.4793346,17.0609115 27.4793346,16.1274885 C27.4793346,15.4964115 27.1317577,14.9463731 26.6186038,14.6553346" id="Fill-41" fill="#E47460" fill-rule="nonzero"></path>
                        <path d="M19.8928423,27.9265269 C19.8928423,27.9564115 19.89015,27.9862962 19.8885346,28.0161808 L20.7495346,28.2027577 L20.9708423,27.4876808 L19.8960731,27.4876808 L19.8928423,27.9265269 Z M25.3401885,31.4846808 C25.3418038,31.6020654 25.34665,36.66845 25.34665,36.7169115 L26.2294577,36.7169115 C26.2294577,36.66845 26.2343038,31.6020654 26.2353808,31.4846808 L26.2399577,31.0382962 L25.7941115,31.0361423 L25.3251115,31.0361423 L25.3412654,31.5043346 L25.3401885,31.4846808 Z M16.5174962,37.7486038 C16.0116115,37.7486038 15.5994192,37.33695 15.5994192,36.8305269 L14.7163423,36.8305269 C14.7163423,37.33695 14.3046885,37.7486038 13.7982654,37.7486038 C13.2921115,37.7486038 12.8804577,37.33695 12.8804577,36.8305269 L12.8804577,28.2218731 L12.8793808,28.2218731 C12.8783038,27.7353731 12.8748038,23.7138731 12.8748038,23.7138731 C12.8742654,23.4823346 12.8737269,23.0510269 12.4324577,23.0510269 L11.9911885,23.0510269 L11.9911885,29.1299885 C11.9911885,29.6361423 11.6395731,30.0475269 11.20665,30.0475269 C10.7739962,30.0475269 10.4221115,29.6361423 10.4221115,29.1299885 L10.4221115,22.2433346 C10.4221115,21.06545 11.3803038,20.1075269 12.5581885,20.1075269 L17.7583808,20.1075269 C18.9357269,20.1075269 19.8939192,21.06545 19.8939192,22.2433346 L19.8939192,24.5390654 L21.8644192,24.5390654 L21.9591885,24.2251423 C22.3487654,22.9341808 22.5996885,22.0877192 22.7262269,21.6378346 C23.0124192,20.6220269 23.4924577,20.1075269 24.1534192,20.1075269 L27.3174192,20.1075269 C27.9783808,20.1075269 28.4589577,20.6220269 28.74515,21.6378346 L30.7791885,27.5286038 C30.8658808,27.7762962 30.8726115,28.0396038 30.79965,28.2522962 C30.7643808,28.3556808 30.67715,28.53795 30.4892269,28.6039115 C30.4450731,28.6189885 30.3987654,28.6270654 30.3521885,28.6270654 C30.1117654,28.6270654 29.8508808,28.4377962 29.6874577,28.1456808 L28.8803038,28.4905654 C29.2047269,29.5518731 29.4887654,30.4756038 29.6605346,31.0361423 L27.4073423,31.0361423 L27.4369577,31.5221038 L27.4426115,31.5646423 L27.4409962,36.7220269 C27.4409962,37.0566808 27.1690731,37.3283346 26.8346885,37.3283346 C26.5008423,37.3283346 26.2294577,37.0566808 26.2294577,36.7220269 L25.34665,36.7220269 C25.34665,37.0566808 25.0741885,37.3283346 24.7403423,37.3283346 C24.4064962,37.3283346 24.1345731,37.0566808 24.1345731,36.7220269 L24.1345731,31.5369115 C24.1345731,31.4453731 24.1071115,31.3516808 24.0535346,31.2582577 L23.9261885,31.0361423 L19.8807269,31.0361423 C20.0053808,30.6328346 20.1868423,30.0407962 20.3998038,29.3448346 L19.5972269,28.9910654 C19.22865,29.6162192 18.57765,30.0092962 17.8569192,30.0421423 L17.4355731,30.0615269 L17.4355731,36.8305269 C17.4355731,37.33695 17.0239192,37.7486038 16.5174962,37.7486038 Z" id="Fill-42" fill="#E98875" fill-rule="nonzero"></path>
                        <path d="M18.9968154,21.8304423 L18.9968154,24.1261731 L19.8938923,24.1261731 L19.8938923,22.2431731 C19.8938923,21.2077115 19.1529692,20.3426731 18.1732385,20.1488269 C18.6740077,20.5400192 18.9968154,21.1476731 18.9968154,21.8304423" id="Fill-43" fill="#E47460" fill-rule="nonzero"></path>
                        <path d="M11.9839192,27.8087385 L11.9828423,27.8087385 C11.9817654,27.3225077 11.9782654,23.3010077 11.9782654,23.3010077 C11.9777269,23.0692 11.9771885,22.6381615 11.5359192,22.6381615 L11.0941115,22.6381615 L11.0941115,28.7168538 C11.0941115,29.1320077 10.85665,29.4793154 10.5324962,29.5926615 C10.6692654,29.8635077 10.9191115,30.0473923 11.20665,30.0473923 C11.6158808,30.0473923 11.94865,29.6777385 11.9839192,29.2092769 L11.9839192,27.8087385 Z" id="Fill-44" fill="#E47460" fill-rule="nonzero"></path>
                        <path d="M14.7028,36.4176615 L13.8199923,36.4176615 C13.8199923,36.8815462 13.4737615,37.2617 13.0265692,37.3230846 C13.1902615,37.5783154 13.4737615,37.7484692 13.7984538,37.7484692 C14.3046077,37.7484692 14.7165308,37.3368154 14.7165308,36.8303923 L14.8059154,36.8303923 C14.7421077,36.7062769 14.7028,36.5670846 14.7028,36.4176615" id="Fill-45" fill="#E47460" fill-rule="nonzero"></path>
                        <path d="M24.8975462,30.6234115 L24.4285462,30.6234115 L24.4436231,31.0746423 L24.4436231,31.0714115 L24.4447,31.0913346 L24.4436231,31.0746423 C24.4452385,31.2307962 24.4500846,36.2562577 24.4500846,36.3041808 L25.3328923,36.3041808 C25.3328923,36.26245 25.3361231,32.5537962 25.3382769,31.4063346 L25.3250846,31.0361423 L25.3388154,31.0361423 L25.3433923,30.6255654 L24.8975462,30.6234115 Z" id="Fill-46" fill="#E47460" fill-rule="nonzero"></path>
                        <path d="M18.9962769,27.5137154 C18.9962769,27.5436 18.9935846,27.5732154 18.9919692,27.6033692 L19.8529692,27.7899462 L19.8944308,27.6542538 L19.8960462,27.4876 L19.9463923,27.4876 L20.0742769,27.0746 L18.9995077,27.0746 L18.9962769,27.5137154 Z" id="Fill-47" fill="#E47460" fill-rule="nonzero"></path>
                        <path d="M23.1569962,30.8453385 L23.02965,30.6234923 L20.0075346,30.6234923 C19.9606885,30.7758769 19.91815,30.9153385 19.8807269,31.0362231 L23.2248423,31.0362231 C23.2132654,30.9726846 23.1938808,30.9094154 23.1569962,30.8453385" id="Fill-48" fill="#E47460" fill-rule="nonzero"></path>
                        <path d="M28.88025,28.4904846 L29.5743269,28.1937923 C29.5355577,28.2053692 29.4965192,28.2139846 29.4550577,28.2139846 C29.2151731,28.2139846 28.9542885,28.0249846 28.7908654,27.7331385 L27.9837115,28.0777538 C28.3081346,29.1387923 28.5916346,30.0627923 28.7639423,30.6233308 L26.51075,30.6233308 L26.5409038,31.1092923 L26.5460192,31.1518308 L26.5444038,36.3094846 C26.5444038,36.5334846 26.4208269,36.7262538 26.2404423,36.8315231 C26.2926731,37.1134077 26.53875,37.3285231 26.8346346,37.3285231 C27.1692885,37.3285231 27.4409423,37.0566 27.4409423,36.7222154 L27.4425577,31.5645615 L27.4369038,31.5220231 L27.4072885,31.0363308 L29.6604808,31.0363308 C29.4887115,30.4757923 29.2046731,29.5517923 28.88025,28.4904846" id="Fill-49" fill="#E47460" fill-rule="nonzero"></path>
                        <path d="M25.4927885,36.7168846 L25.3465962,36.7168846 C25.3465962,36.7101538 25.3465962,36.6054231 25.3460577,36.4344615 C25.3377115,36.3940769 25.3328654,36.3520769 25.3328654,36.3092692 L24.4500577,36.3092692 C24.4500577,36.5332692 24.3264808,36.7268462 24.1455577,36.8321154 C24.1975192,37.114 24.4438654,37.3283077 24.7402885,37.3283077 C25.0741346,37.3283077 25.3465962,37.0566538 25.3465962,36.7222692 L25.4976346,36.7222692 C25.4960192,36.7201154 25.4944038,36.7185 25.4927885,36.7168846" id="Fill-50" fill="#E47460" fill-rule="nonzero"></path>
                        <path d="M19.4006615,29.2668923 C19.4343154,29.1578538 19.4679692,29.0466615 19.5032385,28.9319692 L18.7006615,28.5782 C18.3320846,29.2036231 17.6816231,29.5969692 16.9603538,29.6295462 L16.5390077,29.6486615 L16.5390077,36.4176615 C16.5390077,36.8815462 16.1925077,37.2617 15.7455846,37.3230846 C15.9084692,37.5783154 16.1930462,37.7484692 16.5174692,37.7484692 C17.0238923,37.7484692 17.4355462,37.3368154 17.4355462,36.8303923 L17.4355462,30.0613923 L17.8568923,30.0422769 C18.4640077,30.0145462 19.0194308,29.7294308 19.4006615,29.2668923" id="Fill-51" fill="#E47460" fill-rule="nonzero"></path>
                        <path d="M30.7790808,27.5287115 L28.7450423,21.6376731 C28.4591192,20.6221346 27.9785423,20.1076346 27.3175808,20.1076346 L27.2979269,20.1076346 C27.5256962,20.3628654 27.7103885,20.7341346 27.8485038,21.2249423 L29.8825423,27.1159808 C29.9692346,27.3636731 29.9762346,27.6269808 29.9030038,27.8394038 C29.8704269,27.9349808 29.7899269,28.0940962 29.6300038,28.1700192 L29.68735,28.1457885 C29.8510423,28.4379038 30.1116577,28.6269038 30.3520808,28.6269038 C30.3989269,28.6269038 30.4452346,28.6190962 30.4893885,28.60375 C30.6770423,28.5380577 30.7642731,28.3555192 30.7995423,28.2524038 C30.8727731,28.0394423 30.8657731,27.7764038 30.7790808,27.5287115" id="Fill-52" fill="#E47460" fill-rule="nonzero"></path>
                        <path d="M15.1471115,36.6206346 L14.2643038,36.6206346 C14.2643038,37.1270577 13.8523808,37.5381731 13.3464962,37.5381731 C13.2974962,37.5381731 13.25065,37.5314423 13.2038038,37.5239038 C13.3642654,37.66175 13.5710346,37.7484423 13.7982654,37.7484423 C14.3046885,37.7484423 14.7163423,37.3367885 14.7163423,36.8303654 L15.1740346,36.8303654 C15.1576115,36.7630577 15.1471115,36.6933269 15.1471115,36.6206346" id="Fill-53" fill="#E47460" fill-rule="nonzero"></path>
                        <path d="M19.4406154,27.7164462 C19.4406154,27.7460615 19.4379231,27.7759462 19.4363077,27.8061 L19.8929231,27.9049077 L19.8958846,27.4876 L20.4534615,27.4876 L20.5186154,27.2776 L19.4433077,27.2776 L19.4406154,27.7164462 Z" id="Fill-54" fill="#E47460" fill-rule="nonzero"></path>
                        <polygon id="Fill-55" fill="#E47460" fill-rule="nonzero" points="25.3402962 31.4847615 25.3402962 31.4879923 25.3413731 31.5041462"></polygon>
                        <path d="M16.1535769,14.6187731 C16.3848462,14.9081962 16.5243077,15.2746192 16.5243077,15.6730808 C16.5243077,16.6059654 15.7656154,17.3649269 14.8327308,17.3649269 C14.5586538,17.3649269 14.2999231,17.2976192 14.0708077,17.18185 C14.3815,17.5698115 14.8575,17.8196577 15.3921923,17.8196577 C16.3250769,17.8196577 17.0837692,17.0606962 17.0837692,16.1275423 C17.0837692,15.4687346 16.7046923,14.8979654 16.1535769,14.6187731" id="Fill-56" fill="#E47460" fill-rule="nonzero"></path>
                        <path d="M25.8151385,36.7168846 L25.3466769,36.7168846 L25.3466769,36.5117308 L24.8938308,36.5117308 C24.8938308,36.8461154 24.6219077,37.1180385 24.2880615,37.1180385 C24.2869846,37.1180385 24.2859077,37.1175 24.2853692,37.1175 C24.3960231,37.2459231 24.5583692,37.3283077 24.7403692,37.3283077 C25.0742154,37.3283077 25.3466769,37.0566538 25.3466769,36.7222692 L25.8167538,36.7222692 C25.8162154,36.7201154 25.8156769,36.7185 25.8151385,36.7168846" id="Fill-57" fill="#E47460" fill-rule="nonzero"></path>
                        <path d="M23.4740962,30.8263846 L19.9455577,30.8263846 C19.9229423,30.9004231 19.9011346,30.9715 19.8806731,31.0361154 L23.5944423,31.0361154 L23.4740962,30.8263846 Z" id="Fill-58" fill="#E47460" fill-rule="nonzero"></path>
                        <path d="M14.9772808,13.9567615 C13.9493577,13.9567615 13.1128577,14.7929923 13.1128577,15.8211846 C13.1128577,16.8491077 13.9493577,17.6856077 14.9772808,17.6856077 C16.0049346,17.6856077 16.8408962,16.8491077 16.8408962,15.8211846 C16.8408962,14.7929923 16.0049346,13.9567615 14.9772808,13.9567615 M14.9772808,18.2240692 C13.6523962,18.2240692 12.5743962,17.1460692 12.5743962,15.8211846 C12.5743962,14.4960308 13.6523962,13.4183 14.9772808,13.4183 C16.3016269,13.4183 17.3793577,14.4960308 17.3793577,15.8211846 C17.3793577,17.1460692 16.3016269,18.2240692 14.9772808,18.2240692" id="Fill-59" fill="#5A7A8E" fill-rule="nonzero"></path>
                        <path d="M25.3729,13.9567615 C24.3447077,13.9567615 23.5082077,14.7929923 23.5082077,15.8211846 C23.5082077,16.8491077 24.3447077,17.6856077 25.3729,17.6856077 C26.4002846,17.6856077 27.2365154,16.8491077 27.2365154,15.8211846 C27.2365154,14.7929923 26.4002846,13.9567615 25.3729,13.9567615 M25.3729,18.2240692 C24.0477462,18.2240692 22.9697462,17.1460692 22.9697462,15.8211846 C22.9697462,14.4960308 24.0477462,13.4183 25.3729,13.4183 C26.6975154,13.4183 27.7749769,14.4960308 27.7749769,15.8211846 C27.7749769,17.1460692 26.6975154,18.2240692 25.3729,18.2240692" id="Fill-60" fill="#5A7A8E" fill-rule="nonzero"></path>
                        <path d="M14.9720308,36.5244115 C14.9720308,37.1253346 15.4612231,37.6145269 16.0626846,37.6145269 C16.6636077,37.6145269 17.1528,37.1253346 17.1528,36.5244115 L17.1528,30.1764885 C17.1528,30.03245 17.2658769,29.9139885 17.4096462,29.9075269 C18.1890692,29.8722577 18.8923,29.4476808 19.2907615,28.7721808 C19.3599538,28.6545269 19.5061462,28.6074115 19.6313385,28.6623346 C19.7559923,28.7172577 19.8200692,28.8569885 19.7799538,28.9875654 C19.5236462,29.8254115 19.3125692,30.5127577 19.1924923,30.9020654 L23.2158769,30.9020654 C23.3128,30.9020654 23.4021846,30.9542962 23.4501077,31.0385654 C23.4880692,31.1053346 23.5071846,31.1696808 23.5071846,31.2302577 L23.5071846,36.4156423 C23.5071846,36.8445269 23.8563769,37.1937192 24.2855308,37.1937192 C24.7146846,37.1937192 25.0636077,36.8445269 25.0636077,36.4156423 L25.0636077,36.41295 L25.0636077,36.4102577 C25.0636077,36.3620654 25.0590308,31.2682192 25.0579538,31.1758731 C25.0571462,31.1037192 25.0851462,31.0337192 25.1357615,30.9828346 C25.1861077,30.9316808 25.2550308,30.9020654 25.3271846,30.9020654 L25.3387615,30.9020654 C25.4125308,30.9020654 25.4833385,30.9322192 25.5339538,30.9860654 C25.5848385,31.0396423 25.6114923,31.1117962 25.6077231,31.1855654 C25.6069154,31.2682192 25.6020692,36.3620654 25.6020692,36.4102577 L25.6020692,36.41295 L25.6020692,36.4156423 C25.6020692,36.8445269 25.9509923,37.1937192 26.3798769,37.1937192 C26.8090308,37.1937192 27.1582231,36.8445269 27.1582231,36.4156423 L27.1582231,31.2302577 C27.1571462,31.2229885 27.1531077,31.1928346 27.1525692,31.1855654 C27.1490692,31.1117962 27.1754538,31.0396423 27.2263385,30.9860654 C27.2769538,30.9322192 27.3477615,30.9020654 27.4215308,30.9020654 L29.4386077,30.9020654 C29.2805692,30.3870269 28.9623385,29.3507577 28.5897231,28.1335654 C28.5496077,28.0021808 28.6147615,27.8613731 28.7415692,27.8072577 C28.8662231,27.7531423 29.0145692,27.80295 29.0818769,27.9232962 C29.3185308,28.34545 29.7501077,28.5794115 30.0906846,28.4596038 C30.2807615,28.3933731 30.4288385,28.2307577 30.5077231,28.0016423 C30.5941462,27.7496423 30.5868769,27.4532192 30.4869923,27.1670269 L28.4607615,21.2991423 C28.1463,20.1856038 27.6099923,19.6288346 26.8626077,19.6288346 L23.6986077,19.6288346 C22.9509538,19.6288346 22.4151846,20.1856038 22.1058385,21.2843346 C21.9806462,21.7288346 21.7227231,22.59845 21.3390692,23.86895 C21.3048769,23.9825654 21.2004154,24.0603731 21.0814154,24.0603731 L19.8801077,24.0603731 C19.7314923,24.0603731 19.6108769,23.9397577 19.6108769,23.7911423 L19.6108769,21.9366808 C19.6108769,20.6640269 18.5759538,19.6288346 17.3035692,19.6288346 L12.1028385,19.6288346 C10.8301846,19.6288346 9.79499231,20.6640269 9.79499231,21.9366808 L9.79499231,28.8233346 C9.79499231,29.4242577 10.2238769,29.9129115 10.7513,29.9129115 C11.2789923,29.9129115 11.7084154,29.4242577 11.7084154,28.8233346 L11.7084154,23.1859115 C11.7084154,23.0370269 11.8290308,22.9166808 11.9776462,22.9166808 C12.1661077,22.9166808 12.2229154,23.0284115 12.2401462,23.1859115 L12.2468769,23.1859115 L12.2468769,23.3065269 C12.2474154,23.3391038 12.2476846,23.3730269 12.2476846,23.4074885 L12.2501077,25.7710654 C12.2509154,26.9411423 12.2519923,28.2660269 12.2530692,28.3478731 C12.2530692,28.3508346 12.2530692,28.3535269 12.2530692,28.3567577 L12.2530692,36.5244115 C12.2530692,37.1253346 12.7422615,37.6145269 13.3431846,37.6145269 C13.9443769,37.6145269 14.4335692,37.1253346 14.4335692,36.5244115 C14.4335692,36.3755269 14.5541846,36.2551808 14.7028,36.2551808 C14.8514154,36.2551808 14.9720308,36.3755269 14.9720308,36.5244115 M16.0626846,38.1529885 C15.4951462,38.1529885 14.9946462,37.8614115 14.7028,37.4204115 C14.4112231,37.8614115 13.9107231,38.1529885 13.3431846,38.1529885 C12.4453,38.1529885 11.7146077,37.4222962 11.7146077,36.5244115 L11.7146077,30.0677192 C11.4542615,30.3070654 11.1179923,30.4513731 10.7513,30.4513731 C9.92691538,30.4513731 9.25653077,29.72095 9.25653077,28.8233346 L9.25653077,21.9366808 C9.25653077,20.3670654 10.5332231,19.0903731 12.1028385,19.0903731 L17.3035692,19.0903731 C18.8729154,19.0903731 20.1493385,20.3670654 20.1493385,21.9366808 L20.1493385,23.5219115 L20.8816462,23.5219115 C21.2321846,22.3585654 21.4696462,21.5573346 21.5873,21.1384115 C21.9647615,19.79845 22.6949154,19.0903731 23.6986077,19.0903731 L26.8626077,19.0903731 C27.8663,19.0903731 28.5961846,19.79845 28.9744538,21.1381423 L30.9958385,26.9904115 C31.1350308,27.3891423 31.1428385,27.8107577 31.0171077,28.1766423 C30.8835692,28.5651423 30.6175692,28.8462192 30.2681077,28.9681808 C30.1491077,29.0096423 30.0241846,29.0309115 29.8971077,29.0309115 C29.7261462,29.0309115 29.5559923,28.99295 29.3944538,28.9226808 C29.7301846,30.0187192 29.9829923,30.8401423 30.0454538,31.0434115 C30.0659154,31.0813731 30.0774923,31.1249885 30.0774923,31.1712962 C30.0774923,31.3201808 29.9571462,31.4405269 29.8082615,31.4405269 C29.8071846,31.4407962 29.8053,31.4407962 29.8031462,31.4405269 L27.6966846,31.4405269 L27.6966846,36.4156423 C27.6966846,37.1414885 27.1057231,37.7321808 26.3798769,37.7321808 C25.9534154,37.7321808 25.5735308,37.5283731 25.3328385,37.2128346 C25.0921462,37.5283731 24.7122615,37.7321808 24.2855308,37.7321808 C23.5594154,37.7321808 22.9687231,37.1414885 22.9687231,36.4156423 L22.9687231,31.4405269 L18.8279538,31.4405269 C18.7426077,31.4405269 18.6621077,31.4001423 18.6114923,31.3312192 C18.5606077,31.2625654 18.5455308,31.1737192 18.5708385,31.0918731 C18.5708385,31.0918731 18.7078769,30.6468346 18.9243385,29.9419885 C18.5606077,30.1947962 18.1395308,30.3609115 17.6912615,30.4220269 L17.6912615,36.5244115 C17.6912615,37.4222962 16.9605692,38.1529885 16.0626846,38.1529885" id="Fill-61" fill="#5A7A8E" fill-rule="nonzero"></path>
                        <path d="M21.9680731,23.3998154 C21.9680731,24.2909692 21.2459962,25.0130462 20.3551115,25.0130462 C19.4642269,25.0130462 18.7418808,24.2909692 18.7418808,23.3998154 C18.7418808,22.5086615 19.4642269,21.7865846 20.3551115,21.7865846 C21.2459962,21.7865846 21.9680731,22.5086615 21.9680731,23.3998154" id="Fill-62" fill="#FFFFFE" fill-rule="nonzero"></path>
                        <path d="M20.3550577,22.0557615 C19.6138654,22.0557615 19.0110577,22.6585692 19.0110577,23.3997615 C19.0110577,24.1409538 19.6138654,24.7437615 20.3550577,24.7437615 C21.0959808,24.7437615 21.6987885,24.1409538 21.6987885,23.3997615 C21.6987885,22.6585692 21.0959808,22.0557615 20.3550577,22.0557615 M20.3550577,25.2822231 C19.3171731,25.2822231 18.4725962,24.4379154 18.4725962,23.3997615 C18.4725962,22.3618769 19.3171731,21.5173 20.3550577,21.5173 C21.3926731,21.5173 22.23725,22.3618769 22.23725,23.3997615 C22.23725,24.4379154 21.3926731,25.2822231 20.3550577,25.2822231" id="Fill-63" fill="#5A7A8E" fill-rule="nonzero"></path>
                        <path d="M22.5990962,26.2280577 L18.0593269,26.2280577 C17.7036731,26.2280577 17.4150577,26.5161346 17.4150577,26.8723269 L17.4150577,31.9317115 C17.4150577,32.2876346 17.7036731,32.5765192 18.0593269,32.5765192 L18.7159808,32.5765192 L18.7159808,36.8187885 C18.7159808,37.1749808 19.0040577,37.4630577 19.36025,37.4630577 L21.3495962,37.4630577 C21.7057885,37.4630577 21.9944038,37.1749808 21.9944038,36.8187885 L21.9944038,32.5765192 L22.5990962,32.5765192 C22.9550192,32.5765192 23.2433654,32.2876346 23.2433654,31.9317115 L23.2433654,26.8723269 C23.2433654,26.5161346 22.9550192,26.2280577 22.5990962,26.2280577" id="Fill-64" fill="#FFFFFE" fill-rule="nonzero"></path>
                        <path d="M18.0592192,26.4972885 C17.85245,26.4972885 17.6841808,26.6655577 17.6841808,26.8723269 L17.6841808,31.9317115 C17.6841808,32.13875 17.85245,32.3072885 18.0592192,32.3072885 L18.7158731,32.3072885 C18.8647577,32.3072885 18.9851038,32.4276346 18.9851038,32.5765192 L18.9851038,36.8187885 C18.9851038,37.0255577 19.1533731,37.1938269 19.3601423,37.1938269 L21.3497577,37.1938269 C21.5565269,37.1938269 21.7250654,37.0255577 21.7250654,36.8187885 L21.7250654,32.5765192 C21.7250654,32.4276346 21.8454115,32.3072885 21.9942962,32.3072885 L22.5989885,32.3072885 C22.8057577,32.3072885 22.9740269,32.13875 22.9740269,31.9317115 L22.9740269,26.8723269 C22.9740269,26.6655577 22.8057577,26.4972885 22.5989885,26.4972885 L18.0592192,26.4972885 Z M21.3497577,37.7322885 L19.3601423,37.7322885 C18.8564115,37.7322885 18.4466423,37.3225192 18.4466423,36.8187885 L18.4466423,32.84575 L18.0592192,32.84575 C17.5554885,32.84575 17.1457192,32.4357115 17.1457192,31.9317115 L17.1457192,26.8723269 C17.1457192,26.3685962 17.5554885,25.9588269 18.0592192,25.9588269 L22.5989885,25.9588269 C23.1027192,25.9588269 23.5124885,26.3685962 23.5124885,26.8723269 L23.5124885,31.9317115 C23.5124885,32.4357115 23.1027192,32.84575 22.5989885,32.84575 L22.2635269,32.84575 L22.2635269,36.8187885 C22.2635269,37.3225192 21.8537577,37.7322885 21.3497577,37.7322885 Z" id="Fill-65" fill="#5A7A8E" fill-rule="nonzero"></path>
                        <path d="M20.4975615,24.8011885 C19.8514077,24.8011885 19.3253308,24.2753808 19.3253308,23.6294962 C19.3253308,22.9833423 19.8514077,22.4580731 20.4975615,22.4580731 C21.1429077,22.4580731 21.6689846,22.9833423 21.6689846,23.6294962 C21.6689846,24.2753808 21.1429077,24.8011885 20.4975615,24.8011885" id="Fill-66" fill="#E98875" fill-rule="nonzero"></path>
                        <path d="M20.9650269,22.5568808 C21.1378731,22.7612269 21.2461038,23.0213038 21.2461038,23.3088423 C21.2461038,23.9547269 20.7205654,24.4808038 20.0741423,24.4808038 C19.9074885,24.4808038 19.7497192,24.4447269 19.6062192,24.3817269 C19.8218731,24.6358808 20.1390269,24.8011885 20.4976423,24.8011885 C21.1429885,24.8011885 21.6687962,24.2753808 21.6687962,23.6294962 C21.6687962,23.1497269 21.3785654,22.7380731 20.9650269,22.5568808" id="Fill-67" fill="#E98875" fill-rule="nonzero"></path>
                        <path d="M19.8092192,37.5582308 C19.6972192,37.5582308 19.6062192,37.4672308 19.6062192,37.3552308 L19.6062192,32.6711538 L18.5077577,32.6711538 C18.3962962,32.6711538 18.3052962,32.5806923 18.3052962,32.4686923 L18.3052962,27.4085 C18.3052962,27.2967692 18.3962962,27.2060385 18.5077577,27.2060385 L23.0475269,27.2060385 C23.1595269,27.2060385 23.2510654,27.2967692 23.2510654,27.4085 L23.2510654,32.4686923 C23.2510654,32.5806923 23.1595269,32.6711538 23.0475269,32.6711538 L22.0012962,32.6711538 L22.0012962,37.3552308 C22.0012962,37.4672308 21.9108346,37.5582308 21.7988346,37.5582308 L19.8092192,37.5582308 Z" id="Fill-68" fill="#E98875" fill-rule="nonzero"></path>
                        <path d="M18.7217962,31.8076231 L18.3052962,31.8076231 L18.3052962,32.4685846 C18.3052962,32.5805846 18.3962962,32.6710462 18.5077577,32.6710462 L18.7217962,32.6710462 L18.7217962,31.8076231 Z" id="Fill-69" fill="#E47460" fill-rule="nonzero"></path>
                        <path d="M23.0476346,27.2061192 L22.36675,27.2061192 L22.36675,31.6050808 C22.36675,31.7170808 22.27575,31.8075423 22.16375,31.8075423 L21.11725,31.8075423 L21.11725,36.4918885 C21.11725,36.6044269 21.02625,36.6948885 20.9145192,36.6948885 L19.6063269,36.6948885 L19.6063269,37.3553115 C19.6063269,37.4673115 19.6973269,37.5583115 19.8093269,37.5583115 L21.7986731,37.5583115 C21.9106731,37.5583115 22.0011346,37.4673115 22.0011346,37.3553115 L22.0011346,32.6709654 L23.0476346,32.6709654 C23.1596346,32.6709654 23.2511731,32.5805038 23.2511731,32.4685038 L23.2511731,27.4085808 C23.2511731,27.29685 23.1596346,27.2061192 23.0476346,27.2061192" id="Fill-70" fill="#E47460" fill-rule="nonzero"></path>
                        <path d="M20.3550577,22.0557615 C19.6138654,22.0557615 19.0110577,22.6585692 19.0110577,23.3997615 C19.0110577,24.1409538 19.6138654,24.7437615 20.3550577,24.7437615 C21.0959808,24.7437615 21.6987885,24.1409538 21.6987885,23.3997615 C21.6987885,22.6585692 21.0959808,22.0557615 20.3550577,22.0557615 M20.3550577,25.2822231 C19.3171731,25.2822231 18.4725962,24.4379154 18.4725962,23.3997615 C18.4725962,22.3618769 19.3171731,21.5173 20.3550577,21.5173 C21.3926731,21.5173 22.23725,22.3618769 22.23725,23.3997615 C22.23725,24.4379154 21.3926731,25.2822231 20.3550577,25.2822231" id="Fill-71" fill="#5A7A8E" fill-rule="nonzero"></path>
                        <path d="M18.0592192,26.4972885 C17.85245,26.4972885 17.6841808,26.6655577 17.6841808,26.8723269 L17.6841808,31.9317115 C17.6841808,32.13875 17.85245,32.3072885 18.0592192,32.3072885 L18.7158731,32.3072885 C18.8647577,32.3072885 18.9851038,32.4276346 18.9851038,32.5765192 L18.9851038,36.8187885 C18.9851038,37.0255577 19.1533731,37.1938269 19.3601423,37.1938269 L21.3497577,37.1938269 C21.5565269,37.1938269 21.7250654,37.0255577 21.7250654,36.8187885 L21.7250654,32.5765192 C21.7250654,32.4276346 21.8454115,32.3072885 21.9942962,32.3072885 L22.5989885,32.3072885 C22.8057577,32.3072885 22.9740269,32.13875 22.9740269,31.9317115 L22.9740269,26.8723269 C22.9740269,26.6655577 22.8057577,26.4972885 22.5989885,26.4972885 L18.0592192,26.4972885 Z M21.3497577,37.7322885 L19.3601423,37.7322885 C18.8564115,37.7322885 18.4466423,37.3225192 18.4466423,36.8187885 L18.4466423,32.84575 L18.0592192,32.84575 C17.5554885,32.84575 17.1457192,32.4357115 17.1457192,31.9317115 L17.1457192,26.8723269 C17.1457192,26.3685962 17.5554885,25.9588269 18.0592192,25.9588269 L22.5989885,25.9588269 C23.1027192,25.9588269 23.5124885,26.3685962 23.5124885,26.8723269 L23.5124885,31.9317115 C23.5124885,32.4357115 23.1027192,32.84575 22.5989885,32.84575 L22.2635269,32.84575 L22.2635269,36.8187885 C22.2635269,37.3225192 21.8537577,37.7322885 21.3497577,37.7322885 Z" id="Fill-72" fill="#5A7A8E" fill-rule="nonzero"></path>
                        <path d="M14.6996231,36.6679654 L14.6996231,31.0967731" id="Fill-73" fill="#FFFFFE" fill-rule="nonzero"></path>
                        <path d="M14.6996231,36.9371962 C14.5510077,36.9371962 14.4303923,36.81685 14.4303923,36.6679654 L14.4303923,31.0967731 C14.4303923,30.9478885 14.5510077,30.8275423 14.6996231,30.8275423 C14.8482385,30.8275423 14.9688538,30.9478885 14.9688538,31.0967731 L14.9688538,36.6679654 C14.9688538,36.81685 14.8482385,36.9371962 14.6996231,36.9371962" id="Fill-74" fill="#5A7A8E" fill-rule="nonzero"></path>
                        <path d="M27.2538269,23.1518808 L28.8439038,28.0548423" id="Fill-75" fill="#FFFFFE" fill-rule="nonzero"></path>
                        <path d="M28.8439846,28.3241808 C28.7303692,28.3241808 28.6248308,28.2517577 28.5879462,28.1378731 L26.9978692,23.2349115 C26.9518308,23.0935654 27.0293692,22.9417192 27.1707154,22.8956808 C27.3131385,22.8496423 27.4644462,22.9277192 27.5099462,23.0687962 L29.1000231,27.9717577 C29.1460615,28.1131038 29.0685231,28.26495 28.9271769,28.3109885 C28.8994462,28.3198731 28.8714462,28.3241808 28.8439846,28.3241808" id="Fill-76" fill="#5A7A8E" fill-rule="nonzero"></path>
                    </g>
                </g>
            </g>
        </g>
    </g>
</svg>