<?xml version="1.0" encoding="UTF-8"?>
<svg width="97px" height="91px" viewBox="0 0 97 91" version="1.1" xmlns="http://www.w3.org/2000/svg" xmlns:xlink="http://www.w3.org/1999/xlink">
    <!-- Generator: Sketch 58 (84663) - https://sketch.com -->
    <title>Page 1</title>
    <desc>Created with Sketch.</desc>
    <defs>
        <path d="M3.56235769,0.175684886 C3.14894893,0.373153035 2.75790253,0.603621633 2.3883926,0.86540625 C2.18898435,1.0168125 1.9963357,1.17140625 1.80312376,1.3228125 C1.79580085,1.3291875 1.78735135,1.33503125 1.78059175,1.34140625 C1.77608535,1.34459375 1.77439545,1.3461875 1.77326885,1.34778125 C1.17516152,1.84617425 0.599834202,2.527525 0.0666947368,3.34315614 L0.0666947368,7.91291357 C2.63428607,7.0689706 6.4906446,7.05638471 9.8938037,8.17540625 C14.7404381,9.76809375 18.9268848,13.857125 18.5866515,16.534625 C19.7442333,13.9835625 21.1423442,10.049125 20.6686088,7.51984375 C20.6229815,7.28396875 20.5762276,7.05021875 20.513138,6.82284375 C20.5125747,6.82125 20.5103215,6.8201875 20.5114481,6.8180625 C19.7554993,4.031125 17.3558407,1.770125 12.8122617,0.2773125 C12.7062046,0.242438214 12.600786,0.208564392 12.4960026,0.175684886 L3.56235769,0.175684886 L3.56235769,0.175684886 Z" id="path-1"></path>
        <path d="M0.783525686,0.400084375 C5.09180386,1.89277919 7.38333615,4.10648058 8.11884495,6.8180625 C8.11771835,6.8201875 8.11997155,6.82125 8.12053485,6.82284375 C8.18362447,7.05021875 8.23037838,7.28396875 8.27600569,7.51984375 C8.74810323,10.0403803 7.36127534,13.9563737 6.20606346,16.5081156 L6.19726491,16.5081156 C6.44919295,14.3278095 3.72854131,11.2264416 0.101563016,9.29238084 L0.101563016,0.400084375 L0.783525686,0.400084375 L0.783525686,0.400084375 Z" id="path-3"></path>
        <path d="M0.296541684,11.7269423 C1.81623185,8.84354603 4.6575633,4.57146799 9.70481666,0.112246753 L9.91199807,0.112246753 C8.79287785,1.5001204 7.99805392,3.32495664 7.25981223,5.42302597 C2.65596017,18.5218312 20.3323186,79.2071169 20.3323186,79.2071169 L13.2786743,77.5250909 L8.97562447,85.6280779 C8.97562447,85.6280779 3.65837026,66.1831517 0.296541684,47.3955523 L0.296541684,11.7269423 L0.296541684,11.7269423 Z" id="path-5"></path>
        <path d="M0.447811124,5.61159562 C1.86497147,3.87413632 3.61354776,2.01014156 5.76171567,0.112246753 L5.96889707,0.112246753 C4.84977686,1.5001204 4.05495293,3.32495664 3.31671124,5.42302597 C-1.28714083,18.5218312 16.3892176,79.2071169 16.3892176,79.2071169 L9.33557326,77.5250909 L5.03252347,85.6280779 C5.03252347,85.6280779 2.87979561,77.7556624 0.447811124,67.1892517 L0.447811124,5.61159562 L0.447811124,5.61159562 Z" id="path-7"></path>
        <path d="M0.386489715,52.4679591 C10.1405791,45.7336581 51.5835478,16.2829652 54.4271636,0.13321 L54.9684184,0.13321 C56.7173795,11.179299 53.9670333,17.699 53.9670333,17.699 C53.8935058,17.9234 53.80671,18.1159 53.7464506,18.2897 C48.6409828,32.8603 3.43534128,65.9527 3.43534128,65.9527 L5.56874682,56.07855 L0.386489715,54.4911966 L0.386489715,52.4679591 L0.386489715,52.4679591 Z" id="path-9"></path>
        <path d="M0.504797252,48.8852314 C15.0517178,38.4808219 46.9684651,14.235759 49.451613,0.13321 L49.9928678,0.13321 C51.7418289,11.179299 48.9914827,17.699 48.9914827,17.699 C48.9179551,17.9234 48.8311594,18.1159 48.7709,18.2897 C44.3192595,30.9943287 9.38057366,57.7805662 0.504797252,64.4329176 L0.504797252,56.4876914 L0.593196201,56.07855 L0.504797252,56.0514729 L0.504797252,48.8852314 L0.504797252,48.8852314 Z" id="path-11"></path>
        <path d="M41.8602814,0.548561725 C42.776681,1.28548507 43.8621998,1.88423854 45.0567752,2.02227804 C57.7337209,45.6915584 21.8297984,56.4783416 21.809219,56.4861431 L21.8053256,56.4861431 C21.7938962,56.4812851 7.86834267,52.2968991 0.421739407,38.5961271 L0.421739407,1.42817663 C0.894909851,1.182274 1.33967679,0.879342956 1.75054949,0.548561725 L41.8602814,0.548561725 L41.8602814,0.548561725 Z" id="path-13"></path>
        <path d="M12.8803125,45.2291483 C15.1406284,43.3090389 17.4096839,40.9488944 19.4131678,38.0769299 L19.4131678,0.506098902 L0.113798837,0.506098902 L0.113798837,45.2291483 L12.8803125,45.2291483 L12.8803125,45.2291483 Z" id="path-15"></path>
        <path d="M23.705836,0.147951176 C24.5786431,0.811924292 25.5934123,1.33690564 26.702124,1.46502314 C39.3790698,45.1343035 3.47514729,55.9210867 3.45456783,55.9288882 L3.45067442,55.9288882 C3.44719369,55.9274088 2.15322551,55.5382924 0.144779264,54.6107976 L0.144779264,0.147951176 L23.705836,0.147951176 L23.705836,0.147951176 Z" id="path-17"></path>
    </defs>
    <g id="Page-1" stroke="none" stroke-width="1" fill="none" fill-rule="evenodd">
        <g id="Reco_Mobile" transform="translate(-15.000000, -1009.000000)">
            <g id="Page-1" transform="translate(16.000000, 1010.000000)">
                <g id="Group-7" transform="translate(15.000000, 0.000000)">
                    <path d="M79.9340556,41.076487 C79.9340556,62.9925349 62.1435,80.7576103 40.1979444,80.7576103 C18.2523889,80.7576103 0.461833333,62.9925349 0.461833333,41.076487 C0.461833333,19.1609938 18.2523889,1.3953637 40.1979444,1.3953637 C62.1435,1.3953637 79.9340556,19.1609938 79.9340556,41.076487" id="Fill-1" fill="#F9E0DB"></path>
                    <path d="M39.4425556,18.3770137 C39.7781111,15.5808493 35.6492222,11.3105959 30.8692222,9.64732192 C25.9497778,7.93467123 20.0708889,8.75965068 18.6397778,11.1369452 C19.4797778,7.44978082 21.0658889,4.09993151 22.8597778,2.51710274 C22.8608889,2.51543836 22.8631111,2.51377397 22.867,2.51044521 C22.8736667,2.50434247 22.8825556,2.49768493 22.8897778,2.4910274 C23.0797778,2.33291096 23.2697778,2.17146575 23.4664444,2.01334932 C25.8814444,0.201945205 29.2292222,-0.173650685 33.747,1.39863699 C38.2281111,2.95816438 40.5947778,5.31936986 41.3403333,8.22982192 C41.3392222,8.2320411 41.3414444,8.23315068 41.3425556,8.23481507 C41.4042222,8.47226712 41.4503333,8.71637671 41.4953333,8.96270548 C41.9631111,11.6040822 40.5842222,15.7128904 39.4425556,18.3770137" id="Fill-3" fill="#FEFEFE"></path>
                    <path d="M39.4425556,18.3770137 C39.7781111,15.5808493 35.6492222,11.3105959 30.8692222,9.64732192 C25.9497778,7.93467123 20.0708889,8.75965068 18.6397778,11.1369452 C19.4797778,7.44978082 21.0658889,4.09993151 22.8597778,2.51710274 C22.8608889,2.51543836 22.8631111,2.51377397 22.867,2.51044521 C22.8736667,2.50434247 22.8825556,2.49768493 22.8897778,2.4910274 C23.0797778,2.33291096 23.2697778,2.17146575 23.4664444,2.01334932 C25.8814444,0.201945205 29.2292222,-0.173650685 33.747,1.39863699 C38.2281111,2.95816438 40.5947778,5.31936986 41.3403333,8.22982192 C41.3392222,8.2320411 41.3414444,8.23315068 41.3425556,8.23481507 C41.4042222,8.47226712 41.4503333,8.71637671 41.4953333,8.96270548 C41.9631111,11.6040822 40.5842222,15.7128904 39.4425556,18.3770137 Z" id="Stroke-5" stroke="#5D98C1" stroke-width="2" stroke-linecap="round" stroke-linejoin="round"></path>
                </g>
                <g id="Group-16" transform="translate(36.000000, 1.000000)">
                    <g id="Group-10">
                        <mask id="mask-2" fill="white">
                            <use xlink:href="#path-1"></use>
                        </mask>
                        <g id="Clip-9"></g>
                        <path d="M19.7179835,18.4142406 C20.0599067,15.7372719 17.3132552,10.6133656 12.468874,9.02120938 C7.47859801,7.38124062 1.5200091,8.17120938 0.0666947368,10.4476156 C0.918404552,6.91639687 2.52831636,3.70924063 4.34664922,2.19358437 C4.34664922,2.19199063 4.35059232,2.19039687 4.35284552,2.18720937 C4.36073172,2.18083437 4.36974452,2.17605313 4.37594083,2.16914688 C4.56858947,2.01774063 4.76292802,1.86367812 4.96233627,1.71120938 C7.40987539,-0.023321875 10.8020688,-0.384040625 15.387332,1.12311563 C19.930911,2.61699062 22.3288797,4.87692812 23.085955,7.66386563 C23.0853917,7.66705313 23.087645,7.66705313 23.087645,7.66864688 C23.1484814,7.89602188 23.1969252,8.12977188 23.2414259,8.36617813 C23.7151613,10.8949281 20.8766919,15.8626469 19.7179835,18.4142406" id="Fill-8" fill="#F58F7B" mask="url(#mask-2)"></path>
                    </g>
                    <path d="M6.85254623,7.17500937 C5.10518919,6.60072813 3.24179232,6.33085312 1.49049218,6.31119687 C0.91254623,7.57132187 0.423038407,8.97647812 0.0664694168,10.4475094 C1.24151351,8.60513437 5.36712376,7.73866562 9.54061451,8.34216562 C8.68890469,7.88050937 7.78199147,7.48100937 6.85254623,7.17500937" id="Fill-11" fill="#F37D6C"></path>
                    <g id="Group-15" transform="translate(12.392603, 0.000000)">
                        <mask id="mask-4" fill="white">
                            <use xlink:href="#path-3"></use>
                        </mask>
                        <g id="Clip-14"></g>
                        <path d="M10.8487664,8.36617812 C10.8042657,8.12977187 10.7558219,7.89602187 10.6955488,7.66917812 C10.6955488,7.66705312 10.6927323,7.66705312 10.6938589,7.66386562 C9.9362202,4.87692812 7.53825149,2.61699062 2.99467255,1.12311563 C1.96833969,0.786303125 1.01016615,0.556271875 0.101563016,0.400084375 C2.90060142,1.81639687 4.49079772,3.65611562 5.07775647,5.81777187 C5.07662987,5.82095937 5.07888307,5.82149062 5.08000967,5.82308437 C5.14197269,6.05099062 5.1876,6.28367812 5.23266401,6.52008437 C5.48783898,7.88592812 5.01917326,10.3291469 4.51614623,12.0753656 C5.9734037,14.2067406 5.69231693,14.8532719 7.06000967,16.5081156 C8.21871807,13.9554594 11.3225018,10.8949281 10.8487664,8.36617812" id="Fill-13" fill="#F37D6C" mask="url(#mask-4)"></path>
                    </g>
                </g>
                <g id="Group-23" transform="translate(24.000000, 0.000000)">
                    <path d="M29.7912276,18.425225 C30.124469,15.621725 26.0240552,11.3402688 21.2770207,9.67263125 C16.3915034,7.9554875 10.5531586,8.78263125 9.13191724,11.1661625 C9.96612414,7.469325 11.5412966,4.1106875 13.3228138,2.52370625 C13.3239172,2.5220375 13.3261241,2.52036875 13.3299862,2.51703125 C13.3366069,2.5109125 13.3454345,2.5042375 13.3526069,2.4975625 C13.5412966,2.33903125 13.7299862,2.1771625 13.9252966,2.01863125 C16.3236414,0.202475 19.648331,-0.17410625 24.1349517,1.40230625 C28.5851586,2.965925 30.9355034,5.333325 31.6759172,8.2514125 C31.6748138,8.2536375 31.6770207,8.25475 31.6781241,8.25641875 C31.7393655,8.49449375 31.7851586,8.73924375 31.8298483,8.98621875 C32.2944,11.634525 30.9250207,15.7541125 29.7912276,18.425225 Z" id="Stroke-17" stroke="#5D98C1" stroke-width="2" stroke-linecap="round" stroke-linejoin="round"></path>
                    <path d="M9.86962759,8.73924375 C10.7672828,6.143225 11.7515586,3.96773125 13.322869,2.52370625 C3.7670069,10.6494062 1.57611034,18.4319 1.51873103,18.6421625 C1.51873103,18.6438312 1.51652414,18.6466125 1.51652414,18.6466125 C1.44921379,18.8463062 1.40783448,19.0359875 1.3510069,19.1984125 C-3.41313103,32.9806187 11.5496276,88.6295375 11.5496276,88.6295375 L15.7648,80.55835 L22.6729379,82.233775 C22.6729379,82.233775 5.35983448,21.7866437 9.86962759,8.73924375" id="Fill-19" fill="#FEFEFE"></path>
                    <path d="M9.86962759,8.73924375 C10.7672828,6.143225 11.7515586,3.96773125 13.322869,2.52370625 C3.7670069,10.6494062 1.57611034,18.4319 1.51873103,18.6421625 C1.51873103,18.6438312 1.51652414,18.6466125 1.51652414,18.6466125 C1.44921379,18.8463062 1.40783448,19.0359875 1.3510069,19.1984125 C-3.41313103,32.9806187 11.5496276,88.6295375 11.5496276,88.6295375 L15.7648,80.55835 L22.6729379,82.233775 C22.6729379,82.233775 5.35983448,21.7866437 9.86962759,8.73924375 Z" id="Stroke-21" stroke="#5D98C1" stroke-width="2" stroke-linecap="round" stroke-linejoin="round"></path>
                </g>
                <g id="Group-30" transform="translate(27.000000, 3.000000)">
                    <g id="Group-26">
                        <mask id="mask-6" fill="white">
                            <use xlink:href="#path-5"></use>
                        </mask>
                        <g id="Clip-25"></g>
                        <path d="M9.95069701,6.35227273 C10.8671863,3.74658442 11.8726771,1.56307792 13.4758293,0.112246753 C3.72116074,8.27051948 1.48260597,16.0836753 1.42345946,16.2942078 C1.42233286,16.2958831 1.42176956,16.2986753 1.42176956,16.2986753 C1.35473684,16.4991558 1.30967283,16.689026 1.25277952,16.8526494 C-3.61188051,30.6891558 11.6670725,86.5584416 11.6670725,86.5584416 L15.9689957,78.4543377 L23.0220768,80.1363636 C23.0220768,80.1363636 5.34515505,19.4516364 9.95069701,6.35227273" id="Fill-24" fill="#F58F7B" mask="url(#mask-6)"></path>
                    </g>
                    <g id="Group-29" transform="translate(3.943101, 0.000000)">
                        <mask id="mask-8" fill="white">
                            <use xlink:href="#path-7"></use>
                        </mask>
                        <g id="Clip-28"></g>
                        <path d="M6.00759602,6.35227273 C6.92408535,3.74658442 7.9295761,1.56307792 9.53272831,0.112246753 C5.1502532,3.77897403 2.28756188,7.37198701 0.454019915,10.2395844 C0.108716927,29.8168701 14.2813485,78.4789091 14.2813485,78.4789091 L7.22883073,76.7974416 L5.85663158,79.3835844 C6.97252916,83.8086753 7.72397155,86.5584416 7.72397155,86.5584416 L12.0258947,78.4543377 L19.0789758,80.1363636 C19.0789758,80.1363636 1.40205405,19.4516364 6.00759602,6.35227273" id="Fill-27" fill="#F37D6C" mask="url(#mask-8)"></path>
                    </g>
                </g>
                <g id="Group-37" transform="translate(0.000000, 2.000000)">
                    <path d="M34.5148519,6.53113462 C35.4222173,3.92838462 36.4171404,1.74725 38.0054481,0.299480769 C28.3462173,8.44625 26.1316212,16.2489231 26.0736212,16.4597308 C26.0736212,16.4614038 26.0713904,16.4641923 26.0713904,16.4641923 C26.0033519,16.6644038 25.961525,16.8545769 25.9040827,17.0174231 C21.0884096,30.8353654 36.213025,86.6285769 36.213025,86.6285769 L40.4737942,78.5364615 L47.4566596,80.2162308 C47.4566596,80.2162308 29.956275,19.6123654 34.5148519,6.53113462 Z" id="Stroke-31" stroke="#5D98C1" stroke-width="2" stroke-linecap="round" stroke-linejoin="round"></path>
                    <path d="M56.7127904,6.77891731 C57.9759635,24.4962442 -5.57692308e-05,63.5408404 -5.57692308e-05,63.5408404 L7.29065577,65.7861096 L5.13852115,75.7983596 C5.13852115,75.7983596 50.7415788,42.2431288 55.8907519,27.4687442 C55.9526558,27.2919558 56.0396558,27.0973212 56.1138288,26.869225 C56.1138288,26.869225 59.2670212,19.3565519 56.7127904,6.77891731" id="Fill-33" fill="#FEFEFE"></path>
                    <path d="M56.7127904,6.77891731 C57.9759635,24.4962442 -5.57692308e-05,63.5408404 -5.57692308e-05,63.5408404 L7.29065577,65.7861096 L5.13852115,75.7983596 C5.13852115,75.7983596 50.7415788,42.2431288 55.8907519,27.4687442 C55.9526558,27.2919558 56.0396558,27.0973212 56.1138288,26.869225 C56.1138288,26.869225 59.2670212,19.3565519 56.7127904,6.77891731 Z" id="Stroke-35" stroke="#5D98C1" stroke-width="2" stroke-linecap="round" stroke-linejoin="round"></path>
                </g>
                <g id="Group-46" transform="translate(1.000000, 12.000000)">
                    <g id="Group-40">
                        <mask id="mask-10" fill="white">
                            <use xlink:href="#path-9"></use>
                        </mask>
                        <g id="Clip-39"></g>
                        <path d="M56.605789,0.13321 C57.8596277,17.60506 0.386489715,56.11166 0.386489715,56.11166 L7.61541192,58.32596 L5.48034787,68.19956 C5.48034787,68.19956 50.6865423,35.10716 55.7914572,20.53656 C55.8528223,20.36166 55.939618,20.17081 56.0131456,19.94476 C56.0131456,19.94476 59.1394499,12.53626 56.605789,0.13321" id="Fill-38" fill="#F58F7B" mask="url(#mask-10)"></path>
                    </g>
                    <path d="M3.9481547,53.722735 L3.88457822,53.704035 C1.68925472,55.238535 0.386766135,56.111935 0.386766135,56.111935 L3.24328503,56.986985 L3.9481547,53.722735 Z" id="Fill-41" fill="#F37D6C"></path>
                    <g id="Group-45" transform="translate(4.975551, 0.000000)">
                        <mask id="mask-12" fill="white">
                            <use xlink:href="#path-11"></use>
                        </mask>
                        <g id="Clip-44"></g>
                        <path d="M51.6302384,0.13321 C51.8137809,2.69676 50.7263467,5.71626 48.7455247,8.99866 C48.3176273,13.09176 47.3706142,15.34346 47.3706142,15.34346 C47.2981923,15.56841 47.209738,15.75981 47.1494786,15.93416 C43.1579813,27.32686 14.6508405,50.04296 2.40490475,59.40946 L0.504797252,68.19956 C0.504797252,68.19956 45.7109916,35.10716 50.8159066,20.53656 C50.8772717,20.36166 50.9640674,20.17081 51.037595,19.94476 C51.037595,19.94476 54.1638993,12.53626 51.6302384,0.13321" id="Fill-43" fill="#F37D6C" mask="url(#mask-12)"></path>
                    </g>
                </g>
                <g id="Group-53" transform="translate(0.000000, 9.000000)">
                    <path d="M56.4955,0.0851645161 C57.7538333,17.5068742 -5.55555556e-05,55.9000032 -5.55555556e-05,55.9000032 L7.26272222,58.1078097 L5.11883333,67.9530032 C5.11883333,67.9530032 50.5471667,34.9576484 55.6766111,20.4297774 C55.7382778,20.2559387 55.8249444,20.0645516 55.8988333,19.8402613 C55.8988333,19.8402613 59.0399444,12.4529387 56.4955,0.0851645161 Z" id="Stroke-47" stroke="#5D98C1" stroke-width="2" stroke-linecap="round" stroke-linejoin="round"></path>
                    <path d="M86.049,4.77376452 L69.0023333,4.77376452 L68.999,4.77376452 L51.9551111,4.77376452 C51.9551111,4.77376452 49.3517778,9.2623129 45.7823333,9.66757097 C33.1228889,52.6419258 68.984,63.2570548 69.0023333,63.2647323 L69.0056667,63.2647323 C69.0262222,63.2570548 104.889,52.6419258 92.2267778,9.66757097 C88.6478889,9.26011935 86.049,4.77376452 86.049,4.77376452" id="Fill-49" fill="#FEFEFE"></path>
                    <path d="M86.049,4.77376452 L69.0023333,4.77376452 L68.999,4.77376452 L51.9551111,4.77376452 C51.9551111,4.77376452 49.3517778,9.2623129 45.7823333,9.66757097 C33.1228889,52.6419258 68.984,63.2570548 69.0023333,63.2647323 L69.0056667,63.2647323 C69.0262222,63.2570548 104.889,52.6419258 92.2267778,9.66757097 C88.6478889,9.26011935 86.049,4.77376452 86.049,4.77376452 Z" id="Stroke-51" stroke="#5D98C1" stroke-width="2" stroke-linecap="round" stroke-linejoin="round"></path>
                </g>
                <g id="Group-63" transform="translate(47.000000, 16.000000)">
                    <g id="Group-56">
                        <mask id="mask-14" fill="white">
                            <use xlink:href="#path-13"></use>
                        </mask>
                        <g id="Clip-55"></g>
                        <path d="M43.4453481,0.548561725 L26.3799721,0.548561725 L26.3777473,0.548561725 L9.31181512,0.548561725 C9.31181512,0.548561725 6.70489845,5.10913584 3.13185969,5.52150447 C-9.54397364,49.1913421 26.3588364,59.9781253 26.3799721,59.9853696 L26.3810845,59.9853696 C26.4038888,59.9781253 62.3078112,49.1913421 49.6314217,5.52150447 C46.0472589,5.10802133 43.4453481,0.548561725 43.4453481,0.548561725" id="Fill-54" fill="#F58F7B" mask="url(#mask-14)"></path>
                    </g>
                    <g id="Group-59" transform="translate(21.691860, 3.900784)">
                        <mask id="mask-16" fill="white">
                            <use xlink:href="#path-15"></use>
                        </mask>
                        <g id="Clip-58"></g>
                        <path d="M0.113798837,0.506098902 L0.113798837,45.2291483 C0.113798837,45.2291483 2.1088938,44.6261985 3.99775426,43.5490248 C5.88717093,42.4724083 16.8421167,36.0801373 18.7776981,25.0403605 C20.7127233,14.0016981 17.6113434,4.24695106 17.6113434,4.24695106 C17.6113434,4.24695106 13.0282426,3.00984518 12.9564926,0.506098902 L0.113798837,0.506098902 Z" id="Fill-57" fill="#F37D6C" mask="url(#mask-16)"></path>
                    </g>
                    <g id="Group-62" transform="translate(18.354651, 0.557255)">
                        <mask id="mask-18" fill="white">
                            <use xlink:href="#path-17"></use>
                        </mask>
                        <g id="Clip-61"></g>
                        <path d="M34.0953219,5.12089392 C30.5111591,4.70741078 27.9092483,0.147951176 27.9092483,0.147951176 L23.3356029,0.147951176 C34.8689983,41.1791869 3.2439343,52.8347304 0.144779264,53.8706673 C5.78744399,58.0656822 10.8349731,59.58253 10.8438723,59.584759 L10.8449847,59.584759 C10.867789,59.5786292 46.7717114,48.7912888 34.0953219,5.12089392" id="Fill-60" fill="#F37D6C" mask="url(#mask-18)"></path>
                    </g>
                </g>
                <g id="Group-68" transform="translate(43.000000, 14.000000)" stroke="#5D98C1" stroke-linecap="round" stroke-linejoin="round" stroke-width="2">
                    <path d="M43.0870894,0.391722222 L26.1129617,0.391722222 L26.1096426,0.391722222 L9.13828085,0.391722222 C9.13828085,0.391722222 6.54602553,4.93894444 2.99177021,5.3495 C-9.61380426,48.8856111 26.0947064,59.6395 26.1129617,59.6472778 L26.1162809,59.6472778 C26.1367489,59.6395 61.8469191,48.8856111 49.2385787,5.3495 C45.6749191,4.93672222 43.0870894,0.391722222 43.0870894,0.391722222 Z" id="Stroke-64"></path>
                    <path d="M38.8862638,7.72677778 L26.1130723,7.72677778 L13.3398809,7.72677778 C13.3398809,7.72677778 11.3909872,11.1473333 8.71741277,11.4562222 C-0.770374468,44.2156667 26.0992426,52.3073333 26.1130723,52.3134444 L26.1163915,52.3134444 C26.1318809,52.3073333 53.0014979,44.2156667 43.5159234,11.4562222 C40.8329447,11.1451111 38.8862638,7.72677778 38.8862638,7.72677778 Z" id="Stroke-66"></path>
                </g>
            </g>
        </g>
    </g>
</svg>