<?xml version="1.0" encoding="UTF-8"?>
<svg width="109px" height="80px" viewBox="0 0 109 80" version="1.1" xmlns="http://www.w3.org/2000/svg" xmlns:xlink="http://www.w3.org/1999/xlink">
    <!-- Generator: Sketch 58 (84663) - https://sketch.com -->
    <title>Page 1</title>
    <desc>Created with Sketch.</desc>
    <defs>
        <path d="M0.315820743,14.9059835 C1.18240719,13.3673834 2.37008764,11.8805183 3.9536321,11.0543286 C8.19134443,8.84501408 4.4365685,3.19597183 4.4365685,3.19597183 C4.4365685,3.19597183 3.59033717,0.863671362 7.10145967,0.495267606 C7.20143406,0.484741784 7.29758429,0.479755869 7.38881776,0.479755869 C10.5055058,0.479755869 8.69777209,6.39249765 9.5226974,6.51105164 C10.369475,6.63569953 9.28068289,4.424723 10.8524114,2.95332394 C12.4285105,1.47915493 15.4561502,2.82812207 14.7268289,5.77479812 C14.0013316,8.72258216 13.8789586,10.6864789 16.3029279,11.4232864 C18.7241656,12.1584319 17.7550149,14.8596901 14.2433461,14.3699624 C10.7333163,13.8785728 5.56414853,19.7852207 5.54502774,22.0482723 C5.52754588,24.3129859 4.22678617,56.9208732 4.22678617,56.9208732 L4.4365685,65.5642347 C4.4365685,65.5642347 3.06970289,66.4179335 1.47908259,66.4372378 L1.37001588,66.4372378 C1.02401056,66.4330005 0.668759439,66.3879545 0.315820743,66.2850344 L0.315820743,14.9059835 L0.315820743,14.9059835 Z" id="path-1"></path>
        <path d="M0.379431791,2.62629082 C1.3405737,1.75002037 2.4142731,1.03771924 3.54339912,0.492434132 L15.0611869,0.492434132 C19.9962314,1.87320797 23.2907062,1.76426162 25.6402414,0.979342723 C28.3695453,0.0701095462 35.2839276,0.0701095462 36.5552676,5.89522692 C37.8277022,11.7225352 41.1042897,37.171205 28.9151871,38.8313772 C28.9151871,38.8313772 22.0013521,39.9432707 15.4536499,35.7547731 C11.3072479,33.1038172 4.68311238,28.7754749 0.379431791,23.2768107 L0.379431791,2.62629082 L0.379431791,2.62629082 Z" id="path-3"></path>
        <path d="M8.09104683,0.216147069 C9.38311486,1.04654112 10.4141613,2.33327312 10.8329336,4.25203443 C12.1053682,10.0793427 15.3819557,35.5280125 3.19285312,37.1881847 C3.19285312,37.1881847 2.05464362,37.3712333 0.264502213,37.3090112 L0.264502213,0.216147069 L8.09104683,0.216147069 L8.09104683,0.216147069 Z" id="path-5"></path>
        <polygon id="path-7" points="99.5934625 0.526667161 99.5934625 24.0203237 0.513500822 24.0203237 0.513500822 0.526667161 99.5934625 0.526667161"></polygon>
    </defs>
    <g id="Page-1" stroke="none" stroke-width="1" fill="none" fill-rule="evenodd">
        <g id="Reco_Mobile" transform="translate(-18.000000, -723.000000)">
            <g id="Page-1" transform="translate(18.901408, 723.000000)">
                <g id="Group-15" transform="translate(6.760563, 0.000000)">
                    <path d="M84.4759283,40.2642222 C84.4759283,62.2103333 66.9034022,79.9997778 45.2267971,79.9997778 C23.5501921,79.9997778 5.97711725,62.2103333 5.97711725,40.2642222 C5.97711725,18.3186667 23.5501921,0.528666667 45.2267971,0.528666667 C66.9034022,0.528666667 84.4759283,18.3186667 84.4759283,40.2642222" id="Fill-1" fill="#F9E0DB"></path>
                    <path d="M2.537955,67.7381667 C2.537955,67.7381667 5.27126395,69.7692778 6.9136638,67.7381667 L6.18328151,27.8487222 L7.46076459,26.5553889 C7.46076459,26.5553889 7.82458387,22.3076111 10.3790013,19.7220556 C12.9334187,17.1359444 7.09475032,15.1059444 6.45930126,17.3231667 C5.81781599,19.5365 6.09328699,20.6459444 5.27126395,20.5526111 C4.45143589,20.4615 5.08962868,16.6270556 4.36199012,16.3737222 C3.62996159,16.1203889 -0.019754893,17.5981667 1.16937992,19.7220556 C2.35247851,21.8470556 2.71959027,24.8926111 2.537955,26.4631667 C2.35247851,28.0320556 2.537955,67.7381667 2.537955,67.7381667" id="Fill-3" fill="#FEFEFE"></path>
                    <path d="M3.08505579,67.4365 C3.45930126,67.6665 4.25114322,68.0853889 5.0490214,68.0853889 L5.04957015,68.0853889 C5.57362356,68.0853889 6.00384123,67.9042778 6.36107554,67.5320556 L5.63453448,27.8592778 C5.63179074,27.7081667 5.68940918,27.5631667 5.79476861,27.4559444 L6.93616243,26.3009444 C7.04591183,25.3870556 7.62319371,21.7259444 9.99103713,19.3292778 C10.6385586,18.6742778 10.4695445,18.2603889 10.4135723,18.1248333 C10.1534663,17.4887222 9.05871593,16.9303889 8.07042254,16.9303889 C7.72416316,16.9303889 7.12273642,17.0015 6.98609841,17.4776111 C6.76495336,18.2415 6.65739894,18.8653889 6.57124566,19.3665 C6.40826779,20.3126111 6.27382477,21.2203889 5.21035303,21.1053889 C4.31589537,21.0053889 4.27638559,19.8198333 4.23083958,18.4470556 C4.21492592,17.9692778 4.18913481,17.2059444 4.09694531,16.9031667 C3.44668008,16.9570556 2.09621365,17.5515 1.63526614,18.3520556 C1.42729102,18.7142778 1.4305835,19.0626111 1.64678983,19.4481667 C2.93524785,21.7609444 3.26175233,24.9803889 3.0828608,26.5276111 C2.94018657,27.7342778 3.02140113,53.6365 3.08505579,67.4365 M5.04957015,69.1965 L5.0490214,69.1965 C3.58990305,69.1965 2.26906896,68.2276111 2.21309676,68.1865 C2.07316627,68.0820556 1.99030547,67.9165 1.98920798,67.7409444 C1.98152552,66.1181667 1.80592647,27.9820556 1.9930492,26.3970556 C2.14999085,25.0403889 1.84488751,22.0665 0.691421255,19.9948333 C0.281507225,19.2626111 0.279860984,18.5009444 0.687580026,17.7931667 C1.39107372,16.5698333 3.20907262,15.7898333 4.15127126,15.7898333 C4.29998171,15.7898333 4.42619352,15.8087222 4.53923541,15.8481667 C5.24986281,16.0953889 5.28443388,17.1165 5.32723614,18.4098333 C5.33930858,18.7676111 5.35686848,19.2803889 5.40296323,19.6531667 C5.43259557,19.5053889 5.46222791,19.3353889 5.49021401,19.1753889 C5.57636729,18.6748333 5.69434791,17.9887222 5.93250412,17.1665 C6.17450155,16.3237222 6.97347723,15.8192778 8.07042254,15.8192778 C9.34241815,15.8192778 10.9464057,16.5220556 11.4276569,17.6998333 C11.6164258,18.1609444 11.7815987,19.0881667 10.7669654,20.1148333 C8.38101335,22.5292778 8.01115786,26.5631667 8.00731663,26.6031667 C7.99579294,26.7337222 7.94036949,26.8559444 7.84872874,26.9481667 L6.73586976,28.0742778 L7.46241083,67.7276111 C7.46405707,67.8598333 7.42015731,67.9881667 7.33784525,68.0903889 C6.75342967,68.8137222 5.96158771,69.1965 5.04957015,69.1965" id="Fill-5" fill="#5D98C1"></path>
                    <path d="M13.3231937,29.9571111 C13.3231937,29.9571111 13.2447229,23.3971111 19.682623,21.4926667 C26.1199744,19.5893333 26.7707884,17.896 28.8066398,17.5148889 C30.8435888,17.1321111 33.8732211,21.8387778 29.5595208,23.6237778 C25.2447229,25.4076667 19.9032193,27.8182222 19.2842327,30.7515556 C18.6635998,33.681 12.7733492,37.2921111 13.3231937,29.9571111" id="Fill-7" fill="#FEFEFE"></path>
                    <path d="M29.0471557,18.0479444 C28.9999634,18.0479444 28.9527712,18.0523889 28.9066764,18.0607222 C28.1987928,18.1935 27.6741906,18.5107222 26.8807024,18.9901667 C25.6520578,19.7329444 23.7972928,20.8551667 19.8364368,22.0257222 C13.8677154,23.7918333 13.8715566,29.8890556 13.8721054,29.9507222 C13.7151637,32.0729444 14.1053228,32.9701667 14.4598134,33.3579444 C14.6815072,33.5996111 14.9580757,33.7168333 15.3065301,33.7168333 C16.6098043,33.7168333 18.4426194,32.0751667 18.7477227,30.6346111 C19.3864642,27.6101667 24.2214743,25.2301667 29.352259,23.1090556 C31.1433693,22.3679444 31.3228096,21.1990556 31.1581855,20.3496111 C30.9107006,19.0746111 29.8011341,18.0479444 29.0471557,18.0479444 M15.3065301,34.8279444 C14.6540699,34.8279444 14.083373,34.5812778 13.6548015,34.1129444 C12.922773,33.3135 12.6269984,31.9012778 12.7762575,29.9151667 C12.7740626,29.8940556 12.7696726,22.9596111 19.5285897,20.9590556 C23.354454,19.8279444 25.0670935,18.7929444 26.3176879,18.0362778 C27.1484909,17.5340556 27.8047924,17.1368333 28.7069325,16.9685 C30.141906,16.6962778 31.8764953,18.2885 32.2353759,20.1351667 C32.3961588,20.9651667 32.4779221,23.0157222 29.7671118,24.1379444 C26.7347357,25.3912778 20.4263399,27.9996111 19.8210719,30.8673889 C19.4056704,32.8290556 17.126724,34.8279444 15.3065301,34.8279444" id="Fill-9" fill="#5D98C1"></path>
                    <path d="M7.08492775,26.9352222 C7.08492775,26.9352222 8.49301262,19.9702222 12.7507408,17.7524444 C17.0079202,15.5363333 13.2363819,9.87133333 13.2363819,9.87133333 C13.2363819,9.87133333 12.3863728,7.533 15.9131699,7.16355556 C19.4405158,6.79522222 17.4924639,13.0735556 18.3452168,13.1963333 C19.1952259,13.3207778 18.1021218,11.1041111 19.680867,9.62855556 C21.2640022,8.15022222 24.3051582,9.503 23.5725809,12.458 C22.8438449,15.4141111 22.7209256,17.3835556 25.1557161,18.1224444 C27.5872142,18.8596667 26.6142857,21.5685556 23.0869398,21.0774444 C19.5606914,20.5841111 14.3689958,26.5074444 14.3497896,28.7774444 C14.3322297,31.0485556 13.0256631,63.7485556 13.0256631,63.7485556 L13.2363819,72.4157778 C13.2363819,72.4157778 10.0761478,74.3863333 7.76537406,72.4157778 L7.64300348,58.7496667 L7.08492775,26.9352222 Z" id="Fill-11" fill="#FEFEFE"></path>
                    <path d="M8.31159685,72.143 C8.85266142,72.5368889 9.48975672,72.7357778 10.2108103,72.7357778 C11.2655021,72.7357778 12.2285531,72.3196667 12.6796232,72.0902222 L12.4771355,63.7618889 C12.4903055,63.3991111 13.784251,31.0096667 13.8012621,28.7735556 C13.8243095,26.0574444 19.3551308,19.9813333 23.1617889,20.5274444 C23.4186025,20.563 23.6682824,20.5807778 23.9042436,20.5807778 C25.1498994,20.5807778 25.8736967,20.0796667 25.9455826,19.5846667 C25.9999085,19.2046667 25.6371868,18.848 24.9978965,18.6546667 C21.9764953,17.7374444 22.3743369,15.0246667 23.0399671,12.3235556 C23.2369673,11.5296667 23.1299616,10.8357778 22.7304738,10.318 C22.3754344,9.85633333 21.8129687,9.58133333 21.2258094,9.58133333 C20.9135723,9.58133333 20.4564661,9.65966667 20.0525883,10.0368889 C19.3189135,10.723 19.2969636,11.6146667 19.2788549,12.3307778 C19.2662338,12.8641111 19.2442839,13.7563333 18.4096397,13.7563333 C18.3651911,13.7563333 18.3169014,13.753 18.2664167,13.7457778 C17.4976221,13.6357778 17.5283519,12.7396667 17.5700567,11.5002222 C17.610664,10.308 17.6660874,8.67577778 17.0344796,8.01355556 C16.7919334,7.75911111 16.4506128,7.66411111 15.9693616,7.71633333 C14.9053411,7.82744444 14.1798976,8.14411111 13.873148,8.63133333 C13.6168831,9.03744444 13.6991952,9.483 13.7381562,9.633 C14.0613682,10.1407778 15.8277849,13.0768889 15.1868484,15.6041111 C14.8949149,16.7546667 14.1595939,17.6435556 13.0017377,18.2463333 C9.22032193,20.2163333 7.77931224,26.3335556 7.63499177,26.9902222 L8.19142125,58.7396667 L8.31159685,72.143 Z M10.2108103,73.8468889 C9.13691238,73.8468889 8.19526248,73.5085556 7.41165173,72.8407778 C7.28982989,72.7363333 7.21849277,72.583 7.21684653,72.4207778 L7.0939272,58.7541111 L6.53634864,26.9452222 C6.53585147,26.9041111 6.5396927,26.8635556 6.54737516,26.8241111 C6.60718859,26.5291111 8.05917322,19.5713333 12.5001829,17.258 C13.3781782,16.8013333 13.9093653,16.1702222 14.1233766,15.3302222 C14.6918785,13.098 12.8003475,10.2102222 12.7811414,10.1818889 C12.7569965,10.1446667 12.7361441,10.1046667 12.721328,10.0635556 C12.7059631,10.0207778 12.34818,9.00688889 12.9358881,8.05355556 C13.4319554,7.24688889 14.4147613,6.76188889 15.8568685,6.61077778 C16.7079751,6.523 17.3456192,6.73966667 17.8241266,7.24188889 C18.4584781,7.90633333 18.6428571,8.97022222 18.6812694,10.0168889 C18.8360161,9.74188889 19.0396012,9.47133333 19.3084873,9.22022222 C19.8265045,8.73633333 20.5080483,8.47022222 21.2258094,8.47022222 C22.1482532,8.47022222 23.0344796,8.90522222 23.5963966,9.63411111 C24.2022133,10.4207778 24.3827511,11.4718889 24.1045363,12.5935556 C23.280867,15.9346667 23.5519481,17.0557778 25.3128773,17.5902222 C26.7489482,18.0252222 27.1358149,19.0235556 27.0310042,19.7457778 C26.8910737,20.7146667 25.8698555,21.6918889 23.9042436,21.6918889 C23.6194439,21.6918889 23.3187306,21.6702222 23.0125297,21.6274444 C22.8967441,21.6118889 22.7787635,21.6035556 22.6596854,21.6035556 C19.4127492,21.6035556 14.9146698,26.9107778 14.8987562,28.7824444 C14.8811963,31.0363333 13.6278581,62.4352222 13.5740808,63.7707778 L13.7853485,72.4024444 C13.7897384,72.5996667 13.6904152,72.7852222 13.5241449,72.8891111 C13.4615877,72.928 11.9668008,73.8468889 10.2108103,73.8468889 L10.2108103,73.8468889 Z" id="Fill-13" fill="#5D98C1"></path>
                </g>
                <g id="Group-18" transform="translate(15.774648, 6.760563)">
                    <mask id="mask-2" fill="white">
                        <use xlink:href="#path-1"></use>
                    </mask>
                    <g id="Clip-17"></g>
                    <path d="M0.315820743,20.211461 C0.315820743,20.211461 1.71764746,13.2660808 5.95645241,11.0545502 C10.1947111,8.84468169 6.43993513,3.19563944 6.43993513,3.19563944 C6.43993513,3.19563944 4.46557746,0.863892958 7.97615365,0.494935211 C11.4878224,0.128193427 9.54842851,6.38884131 10.3973914,6.51127324 C11.244169,6.63481315 10.7606863,4.05709484 12.3324149,2.58569577 C13.9085139,1.11041878 17.4595169,2.82778967 16.7301955,5.77501972 C16.0046983,8.72224977 15.8823252,10.6867005 18.3062945,11.422954 C20.7269859,12.1580995 19.7583816,14.8599117 16.2467128,14.36963 C12.7361366,13.8782404 7.56751515,19.7848883 7.54839437,22.0484939 C7.53091251,24.3132075 6.2301528,56.9210948 6.2301528,56.9210948 L6.43993513,65.5639023 C6.43993513,65.5639023 3.29374648,67.528907 0.993242851,65.5639023 L0.871416133,51.9362873 L0.315820743,20.211461 Z" id="Fill-16" fill="#F58F7B" mask="url(#mask-2)"></path>
                </g>
                <g id="Group-25" transform="translate(0.000000, 5.633803)">
                    <path d="M15.2550116,65.8641792 C15.7894099,66.2570677 16.4186557,66.4554514 17.1308255,66.4554514 C18.1725227,66.4554514 19.1237083,66.0403971 19.5692209,65.8115354 L19.369228,57.5043547 C19.3822357,57.1424983 20.6602389,24.8353175 20.6770405,22.6048857 C20.6998039,19.8956731 26.1624817,13.8349942 29.9222393,14.3797183 C30.1758888,14.4151836 30.4224924,14.4329162 30.6555464,14.4329162 C31.8858549,14.4329162 32.6007345,13.9330778 32.6717347,13.439335 C32.7253913,13.0603002 32.3671385,12.7045394 31.7357247,12.5116971 C28.7515493,11.5968044 29.1444892,8.89091665 29.8019183,6.1966659 C29.9964914,5.40479335 29.8908041,4.71266682 29.4962382,4.19620411 C29.1455732,3.73571 28.5900374,3.46140845 28.0101123,3.46140845 C27.7017222,3.46140845 27.2502478,3.53954283 26.8513461,3.91580697 C26.1267106,4.60017548 26.1050312,5.48957746 26.0871457,6.20386978 C26.07468,6.73584853 26.0530005,7.62580466 25.2286397,7.62580466 C25.1847388,7.62580466 25.137044,7.6224798 25.0871813,7.61527592 C24.3278588,7.5055553 24.35821,6.61172016 24.399401,5.37542369 C24.4395079,4.18622951 24.4942485,2.55815285 23.8704225,1.89761256 C23.6308647,1.64381436 23.2937493,1.54905565 22.8184275,1.60114523 C21.7675165,1.71197414 21.0510109,2.02783653 20.7480406,2.51382129 C20.4949331,2.91890095 20.5762311,3.36332487 20.6147121,3.51294389 C20.9339419,4.019432 22.6785951,6.94808589 22.0455554,9.4688894 C21.7572188,10.6165227 21.0309574,11.503154 19.8873667,12.1044008 C16.1525406,14.0693974 14.7292851,20.1710829 14.5867427,20.8260817 L15.1363166,52.494888 L15.2550116,65.8641792 Z M17.1308255,67.5637405 C16.0701587,67.5637405 15.1401105,67.2262665 14.3661544,66.5601847 C14.2458335,66.4560055 14.1753753,66.3030616 14.1737493,66.1412514 L14.0523444,52.5092958 L13.5016356,20.781196 C13.5011446,20.7401893 13.5049385,20.6997368 13.5125263,20.6603925 C13.5716028,20.3661418 15.005698,13.4260356 19.3919914,11.1185777 C20.2591692,10.6630709 20.7838117,10.0335627 20.9951863,9.19569614 C21.5566839,6.96914338 19.6884578,4.08870007 19.6694883,4.0604387 C19.6456409,4.02331101 19.6250455,3.98341261 19.6104118,3.94240591 C19.5952362,3.89973678 19.2418613,2.888423 19.8223284,1.93751097 C20.3122838,1.1328931 21.2829809,0.649124913 22.7073204,0.498397599 C23.5479408,0.410842761 24.1777287,0.626959132 24.6503405,1.1279058 C25.2768764,1.79066266 25.4589838,2.85184946 25.4969228,3.89585777 C25.6497629,3.62155622 25.8508397,3.35168783 26.1164129,3.1012145 C26.6280478,2.61855461 27.3011945,2.35311937 28.0101123,2.35311937 C28.9211909,2.35311937 29.7964985,2.78701455 30.3514922,3.51405218 C30.9498449,4.29872085 31.1281583,5.34716232 30.8533714,6.46598014 C30.0398502,9.7986054 30.3075914,10.9168691 32.0468247,11.4499561 C33.4652024,11.8838513 33.8473025,12.879649 33.7437832,13.6000369 C33.6055768,14.566465 32.5969406,15.5412053 30.6555464,15.5412053 C30.3742557,15.5412053 30.0772473,15.5195936 29.774819,15.4769245 C29.66046,15.4614085 29.543933,15.4530963 29.426322,15.4530963 C26.2193903,15.4530963 21.7767303,20.7468391 21.7610127,22.613752 C21.7436691,24.8619164 20.5057729,56.1810575 20.4526582,57.513221 L20.6613229,66.1229647 C20.6656588,66.319686 20.5675593,66.5047703 20.4033375,66.6083953 C20.3415511,66.6471854 18.865181,67.5637405 17.1308255,67.5637405 L17.1308255,67.5637405 Z" id="Fill-19" fill="#5D98C1"></path>
                    <path d="M32.971182,60.8979912 C32.971182,60.8979912 26.1242717,62.0223505 19.6394081,57.7853613 C13.1529185,53.5478181 0.541986094,45.0755022 0.541986094,34.3910413 C0.541986094,23.7065805 10.4505759,19.1021935 16.758752,21.3132302 C23.0625923,23.5248211 27.0261366,23.5248211 29.7284792,22.6027245 C32.4308219,21.6822905 39.2782742,21.6822905 40.5373079,27.5756176 C41.7974256,33.4717155 45.0422963,59.2183791 32.971182,60.8979912" id="Fill-21" fill="#FEFEFE"></path>
                    <path d="M13.4316078,21.3264188 C5.70234409,21.3264188 1.08408058,27.9689494 1.08408058,34.3909305 C1.08408058,45.0066774 14.2917397,53.6341538 19.931105,57.3181067 C24.140169,60.068326 28.5492259,60.4789471 30.8022621,60.4789471 C32.0802653,60.4789471 32.8780688,60.352048 32.8861986,60.3509397 C35.0302956,60.0522558 36.7857886,58.9145971 38.1174484,56.9673332 C43.2711942,49.4309674 40.9195165,31.9598984 40.0078959,27.6940937 C39.0464126,23.1949942 34.6476534,22.7090095 32.8005648,22.7090095 C31.738814,22.7090095 30.6813992,22.8619534 29.8993132,23.1284969 C28.7134477,23.5330224 27.3676962,23.73861 25.8994559,23.73861 C23.2767852,23.73861 20.2291974,23.1163057 16.5827149,21.8378943 C15.6147278,21.4987578 14.554603,21.3264188 13.4316078,21.3264188 M30.8022621,61.5872362 C28.4305309,61.5872362 23.78842,61.1538952 19.347928,58.2523944 C13.5578905,54.470912 0.000108397219,45.6140199 0.000108397219,34.3909305 C0.000108397219,29.0035373 2.38647317,25.6686955 4.3885698,23.8195151 C6.86761419,21.5308982 10.1634316,20.2181298 13.4316078,20.2181298 C14.6749239,20.2181298 15.8532016,20.4104179 16.9344639,20.7888986 C20.4167245,22.0102332 23.4328772,22.6303209 25.8994559,22.6303209 C27.2506272,22.6303209 28.4814776,22.4441284 29.556778,22.0767305 C30.4450932,21.7747218 31.6271649,21.6007204 32.8005648,21.6007204 C37.1933621,21.6007204 40.2832248,23.7901455 41.0663947,27.4569199 C42.2132373,32.8199307 44.2944639,49.8687416 39.0063056,57.6023828 C37.4936224,59.8134195 35.4877319,61.1067929 33.0444585,61.4470376 C33.0222371,61.4509166 32.1751129,61.5872362 30.8022621,61.5872362" id="Fill-23" fill="#5D98C1"></path>
                </g>
                <g id="Group-32" transform="translate(4.507042, 28.169014)">
                    <g id="Group-28">
                        <mask id="mask-4" fill="white">
                            <use xlink:href="#path-3"></use>
                        </mask>
                        <g id="Clip-27"></g>
                        <path d="M33.1256048,40.153928 C33.1256048,40.153928 26.2117698,41.2652739 19.6635203,37.0773239 C13.113629,32.8888263 0.379431791,24.5145696 0.379431791,13.9537715 C0.379431791,3.3929734 10.3848724,-1.15812207 16.7547074,1.02732394 C23.1201642,3.21331768 27.1224499,3.21331768 29.8512064,2.30189358 C32.579963,1.39211268 39.4943453,1.39211268 40.7656853,7.21723005 C42.0381199,13.0450861 45.3147074,38.4937559 33.1256048,40.153928" id="Fill-26" fill="#F58F7B" mask="url(#mask-4)"></path>
                    </g>
                    <g id="Group-31" transform="translate(25.722334, 1.643192)">
                        <mask id="mask-6" fill="white">
                            <use xlink:href="#path-5"></use>
                        </mask>
                        <g id="Clip-30"></g>
                        <path d="M15.0433513,5.57409233 C13.7720113,-0.251025039 6.85762897,-0.251025039 4.12887243,0.658208138 C3.06002736,1.01587637 1.79087646,1.22949139 0.264502213,1.23003912 C1.70002736,1.72135368 2.99599517,2.70672144 3.86508169,4.44028951 C6.53856258,9.77080595 16.0049288,33.6162676 4.60500926,38.2434977 C4.60500926,38.2434977 4.26459879,38.3902895 3.65601932,38.5863772 C5.91082817,38.7496009 7.40327082,38.5107903 7.40327082,38.5107903 C19.5929207,36.8506182 16.3157859,11.4019484 15.0433513,5.57409233" id="Fill-29" fill="#F37D6C" mask="url(#mask-6)"></path>
                    </g>
                </g>
                <g id="Group-38" transform="translate(0.000000, 25.915493)">
                    <path d="M13.6074423,1.36332246 C5.77699407,1.36332246 1.0982724,7.93884507 1.0982724,14.296043 C1.0982724,24.8047013 14.4788343,33.345146 20.1920252,36.9919362 C24.4561905,39.7144122 28.9229668,40.120891 31.2054977,40.120891 C32.5002314,40.120891 33.308479,39.9952721 33.3167152,39.9941749 C35.4888808,39.6985041 37.2673551,38.5723217 38.6164478,36.6447013 C43.8376618,29.1843603 41.4551981,11.8895345 40.5316434,7.66676205 C39.5575732,3.21304818 35.1012294,2.7319659 33.2299604,2.7319659 C32.1543101,2.7319659 31.0830525,2.88336694 30.2907282,3.14722165 C29.0893384,3.54766642 27.7259695,3.75118013 26.2385083,3.75118013 C23.581504,3.75118013 20.4940199,3.13515345 16.799801,1.86963825 C15.8191418,1.53392291 14.7451388,1.36332246 13.6074423,1.36332246 M31.2054977,41.218 C28.802718,41.218 24.0998367,40.7890304 19.6012137,37.9167991 C13.7353783,34.1734633 0.000109816258,25.405917 0.000109816258,14.296043 C0.000109816258,8.96299629 2.41771474,5.6617954 4.44602102,3.83126909 C6.95751884,1.56573907 10.2964822,0.266213491 13.6074423,0.266213491 C14.8670348,0.266213491 16.0607375,0.456561898 17.1561547,0.831224611 C20.684002,2.0402387 23.7396394,2.65407116 26.2385083,2.65407116 C27.607368,2.65407116 28.8543316,2.46975686 29.9437089,2.10606523 C30.8436531,1.80710304 32.0411994,1.63485693 33.2299604,1.63485693 C37.6802642,1.63485693 40.8105767,3.8021957 41.6039991,7.43198073 C42.7658552,12.740891 44.8743273,29.6177183 39.5169412,37.2733447 C37.9844553,39.4620771 35.9523054,40.7424033 33.477047,41.0792157 C33.4545346,41.0830556 32.5963206,41.218 31.2054977,41.218" id="Fill-33" fill="#5D98C1"></path>
                    <g id="Group-37" transform="translate(8.236219, 6.034099)">
                        <mask id="mask-8" fill="white">
                            <use xlink:href="#path-7"></use>
                        </mask>
                        <g id="Clip-36"></g>
                        <path d="M48.8623047,24.018513 C48.4746533,24.018513 48.1358702,23.7464299 48.0562534,23.3624418 L46.5166294,15.9322713 L43.6608577,15.9322713 C43.3972986,15.9322713 43.149663,15.8055552 42.994273,15.5927161 L42.0234972,14.2547917 L41.1779121,15.55706 C41.0258165,15.7912928 40.765552,15.9322713 40.4866187,15.9322713 L32.2866387,15.9322713 C32.0120981,15.9322713 31.7556771,15.7956812 31.6024834,15.5680311 L29.6960732,12.7309073 L27.5694814,15.5987502 C27.4140914,15.808298 27.168652,15.9322713 26.9078384,15.9322713 L23.3432027,15.9322713 L21.636658,19.0935908 C21.4642465,19.4128495 21.1035001,19.5818043 20.7465973,19.5093951 C20.3902435,19.4364374 20.1244882,19.1391208 20.0915433,18.778172 L19.3173387,10.3167191 L18.292753,21.3338873 C18.2565136,21.728298 17.9440864,22.0409741 17.549846,22.0771787 C17.1632928,22.1221601 16.7910157,21.8659852 16.6811994,21.4847398 L15.0883146,15.9322713 L12.5350866,15.9322713 C12.2435244,15.9322713 11.9728273,15.7781275 11.8251245,15.526341 L11.0833157,14.2663113 L10.2245525,15.5636427 C10.0719079,15.793487 9.81383971,15.9322713 9.53765182,15.9322713 L1.33712276,15.9322713 C0.882483449,15.9322713 0.513500822,15.5636427 0.513500822,15.1094396 C0.513500822,14.6552365 0.882483449,14.2866079 1.33712276,14.2866079 L9.09454322,14.2866079 L10.4381451,12.2586019 C10.5946333,12.0221749 10.8395236,11.8724196 11.1470091,11.8905219 C11.430335,11.8976531 11.6911486,12.0512483 11.8344589,12.2959036 L13.0061983,14.2866079 L15.7093255,14.2866079 C16.0766609,14.2866079 16.4000698,14.5296175 16.5011007,14.8828866 L17.0578692,16.8247695 L18.5046984,1.27324981 C18.5436831,0.850314307 18.8994878,0.526667161 19.3244767,0.526667161 L19.3250258,0.526667161 C19.7505638,0.527215715 20.1058194,0.851411416 20.1448042,1.27434692 L21.4834644,15.9108777 L22.1269876,14.7188688 C22.2702978,14.4528199 22.5486821,14.2866079 22.8517749,14.2866079 L26.492733,14.2866079 L29.0673751,10.814258 C29.2266087,10.5986761 29.4819315,10.4790912 29.7482359,10.4807368 C30.0161876,10.4873195 30.2638233,10.6228125 30.4126243,10.844977 L32.7253547,14.2866079 L40.0396665,14.2866079 L41.2943173,12.3535019 C41.4420202,12.1258517 41.6924012,11.9859703 41.9641965,11.9793877 C42.2387371,11.9557999 42.4924127,12.0989726 42.6516462,12.3183944 L44.0809048,14.2866079 L47.1870577,14.2866079 C47.5774545,14.2866079 47.9140413,14.5603365 47.9936581,14.942679 L48.5010092,17.389232 L49.7177734,2.16465085 C49.7512673,1.73842402 50.107072,1.40929133 50.5348063,1.40709711 L50.5386499,1.40709711 C50.964737,1.40709711 51.3210907,1.73238992 51.3589773,2.15642254 L52.693794,17.0392543 L53.464155,14.8379051 C53.5794621,14.5076753 53.8913402,14.2866079 54.2416541,14.2866079 L56.3243194,14.2866079 L58.5552367,10.4500178 C58.6985469,10.2037168 58.9582624,10.049573 59.2426865,10.0413447 C59.5172271,10.0221453 59.7956114,10.1719007 59.9537468,10.4077791 L62.5316834,14.2866079 L68.4551724,14.2866079 L70.2369412,11.7939763 C70.3945275,11.5734574 70.6608319,11.4588095 70.9205474,11.4494841 C71.1912444,11.4538725 71.4421746,11.5910111 71.5920738,11.8159185 L72.9340285,13.8280163 L75.6679042,13.8280163 C76.0670863,13.8280163 76.4086149,14.1138132 76.4788973,14.5060297 L76.9291439,17.0304774 L78.1107669,4.09336842 C78.1492025,3.67317569 78.4995164,3.35007709 78.9212108,3.3451401 L78.9310943,3.3451401 C79.3489452,3.3451401 79.7014554,3.65836471 79.7492254,4.07471757 L81.1658552,16.39196 L81.8802099,14.776467 C82.0119894,14.4786019 82.3073952,14.2866079 82.6335494,14.2866079 L86.4342901,14.2866079 L89.0100305,10.5701512 C89.1665186,10.3446953 89.4103107,10.2322417 89.6996766,10.2163336 C89.9742172,10.220722 90.2284418,10.361152 90.3777919,10.5904477 L92.7800226,14.2866079 L98.7699504,14.2866079 C99.2245897,14.2866079 99.5935723,14.6552365 99.5935723,15.1094396 C99.5935723,15.5636427 99.2245897,15.9322713 98.7699504,15.9322713 L92.3330704,15.9322713 C92.0541371,15.9322713 91.7938726,15.7912928 91.6423262,15.5576086 L89.6656335,12.515874 L87.5428853,15.5779051 C87.3891425,15.8000697 87.136016,15.9322713 86.865868,15.9322713 L83.1700019,15.9322713 L81.4475339,19.8281053 C81.2970856,20.1676605 80.9379864,20.3607517 80.570102,20.3091875 C80.2027666,20.253235 79.9183425,19.9586612 79.8755141,19.5894841 L79.0255363,12.1944211 L78.0141285,23.2708332 C77.9762419,23.681152 77.6407533,24.0004107 77.2289423,24.0179644 C76.8056006,24.0503291 76.4552868,23.7458814 76.382808,23.3404996 L74.9782581,15.4736798 L72.4931162,15.4736798 C72.2174774,15.4736798 71.9605073,15.3359926 71.8078627,15.1072454 L70.8832098,13.7210482 L69.5489423,15.5877791 C69.3946505,15.803361 69.1442694,15.9322713 68.878514,15.9322713 L62.089673,15.9322713 C61.8134851,15.9322713 61.555966,15.7940356 61.4033214,15.5647398 L59.3140671,12.4209741 L57.510335,15.5230497 C57.3626322,15.7764818 57.091386,15.9322713 56.7981766,15.9322713 L54.8258766,15.9322713 L52.991396,21.1770007 C52.8634601,21.5428866 52.4977719,21.7694396 52.1123169,21.7217153 C51.7274109,21.6745397 51.4281616,21.3651549 51.3930204,20.9789726 L50.5858709,11.9766449 L49.6837303,23.2609592 C49.6513345,23.6690838 49.3229839,23.9910852 48.9144674,24.0168673 C48.8963478,24.0179644 48.8793262,24.018513 48.8623047,24.018513" id="Fill-35" fill="#5D98C1" mask="url(#mask-8)"></path>
                    </g>
                </g>
            </g>
        </g>
    </g>
</svg>