<?xml version="1.0" encoding="UTF-8"?>
<svg width="35px" height="35px" viewBox="0 0 35 35" version="1.1" xmlns="http://www.w3.org/2000/svg" xmlns:xlink="http://www.w3.org/1999/xlink">
    <!-- Generator: Sketch 58 (84663) - https://sketch.com -->
    <title>2_fixed_benefit</title>
    <desc>Created with Sketch.</desc>
    <g id="Reco-Page" stroke="none" stroke-width="1" fill="none" fill-rule="evenodd">
        <g id="v3-default" transform="translate(-21.000000, -559.000000)">
            <g id="Group-2-Copy-3" transform="translate(-23.000000, 540.000000)">
                <g id="2_fixed_benefit" transform="translate(44.000000, 19.000000)">
                    <path d="M34.9310581,17.4649186 C34.9310581,27.1112442 27.1114884,34.9303256 17.4656512,34.9303256 C7.81981395,34.9303256 0,27.1112442 0,17.4649186 C0,7.8190814 7.81981395,0 17.4656512,0 C27.1114884,0 34.9310581,7.8190814 34.9310581,17.4649186" id="Fill-79" fill="#F9DED5" fill-rule="nonzero"></path>
                    <g id="health-insurance-(1)" transform="translate(2.000000, 1.000000)">
                        <path d="M5.03507813,2.76194531 L5.03507813,7.41004687 L0.483398438,7.41004687 L0.483398438,2.76194531 C0.483398438,1.50543164 1.50220898,0.486621094 2.75968945,0.486621094 C3.38791406,0.486621094 3.95677734,0.741791016 4.36876172,1.15287305 C4.78081055,1.56485742 5.03507813,2.1337207 5.03507813,2.76194531 Z" id="Path" fill="#F37D6C" fill-rule="nonzero"></path>
                        <path d="M5.03507813,2.76194531 L5.03507813,31.3532227 L27.8294414,31.3532227 L27.8294414,7.41004688 L27.8294414,2.76194531 C27.8294414,2.1337207 27.5752383,1.56485742 27.1631895,1.15287305 C26.7511406,0.741791016 26.1823418,0.486621094 25.5540527,0.486621094 L2.75968945,0.486621094 C3.38791406,0.486621094 3.95677734,0.741791016 4.36882617,1.15287305 C4.78081055,1.56485742 5.03507813,2.1337207 5.03507813,2.76194531 Z" id="Path" fill="#F58F7B"></path>
                        <path d="M27.1631895,1.15287305 C26.7511406,0.741855469 26.1823418,0.486621094 25.5540527,0.486621094 L23.9086934,0.486621094 C24.536918,0.486621094 25.1057812,0.741791016 25.5177656,1.15287305 C25.9298145,1.56485742 26.1840176,2.1337207 26.1840176,2.76194531 L26.1840176,7.41004688 L26.1840176,31.3532227 L27.829377,31.3532227 L27.829377,7.41004688 L27.829377,2.76194531 C27.829377,2.1337207 27.5751738,1.56485742 27.1631895,1.15287305 Z" id="Path" fill="#FFFFFF" fill-rule="nonzero"></path>
                        <path d="M28.6590176,13.3887832 L20.7712441,13.3887832 C20.2632246,15.1653691 18.7739063,16.5264902 16.9264219,16.8488848 C16.9181719,17.0372812 16.9136602,17.226709 16.9136602,17.417168 C16.9136602,22.724625 20.1276152,27.2810098 24.7151953,29.2476035 C29.3027109,27.2810098 32.5166016,22.7246895 32.5166016,17.417168 C32.5166016,17.226709 32.5120898,17.0372812 32.5038398,16.8488848 C30.6563555,16.5264902 29.1670371,15.1653691 28.6590176,13.3887832 Z" id="Path" fill="#FFFFFF" fill-rule="nonzero"></path>
                        <path d="M32.5038398,16.8488848 C30.6563555,16.5264902 29.1670371,15.1653691 28.6590176,13.3887832 L27.7724004,13.3887832 C28.166209,15.1653691 29.3207578,16.5264902 30.7529063,16.8488848 C30.7592871,17.0373457 30.762832,17.226709 30.762832,17.417168 C30.762832,22.7246895 28.2713965,27.2810098 24.7151309,29.247668 C29.3027109,27.2810098 32.5166016,22.7246895 32.5166016,17.417168 C32.5166016,17.226709 32.5120898,17.0373457 32.5038398,16.8488848 Z" id="Path" fill="#F37D6C" fill-rule="nonzero"></path>
                        <polygon id="Path" fill="#FFFFFF" points="21.2824219 19.4171484 23.4140801 19.4171484 23.4140801 17.2855547 26.0161172 17.2855547 26.0161172 19.4171484 28.1477754 19.4171484 28.1477754 22.01925 26.0161172 22.01925 26.0161172 24.1508437 23.4140801 24.1508437 23.4140801 22.01925 21.2824219 22.01925"></polygon>
                        <rect id="Rectangle" fill="#FFFFFF" fill-rule="nonzero" x="18.2241211" y="4.48365625" width="7.37279297" height="3.56876953"></rect>
                        <path d="M15.2945977,29.1572402 C15.561627,29.1572402 15.7779961,28.9408711 15.7779961,28.6738418 C15.7779961,28.4068125 15.561627,28.1904434 15.2945977,28.1904434 L7.26747656,28.1904434 C7.00044727,28.1904434 6.78407813,28.4068125 6.78407813,28.6738418 C6.78407813,28.9408711 7.00044727,29.1572402 7.26747656,29.1572402 L15.2945977,29.1572402 Z" id="Path" fill="#FFD6CE"></path>
                        <path d="M15.2945977,26.1572402 C15.561627,26.1572402 15.7779961,25.9408711 15.7779961,25.6738418 C15.7779961,25.4068125 15.561627,25.1904434 15.2945977,25.1904434 L7.26747656,25.1904434 C7.00044727,25.1904434 6.78407813,25.4068125 6.78407813,25.6738418 C6.78407813,25.9408711 7.00044727,26.1572402 7.26747656,26.1572402 L15.2945977,26.1572402 Z" id="Path" fill="#FFD6CE"></path>
                        <path d="M15.2945977,23.1572402 C15.561627,23.1572402 15.7779961,22.9408711 15.7779961,22.6738418 C15.7779961,22.4068125 15.561627,22.1904434 15.2945977,22.1904434 L7.26747656,22.1904434 C7.00044727,22.1904434 6.78407813,22.4068125 6.78407813,22.6738418 C6.78407813,22.9408711 7.00044727,23.1572402 7.26747656,23.1572402 L15.2945977,23.1572402 Z" id="Path" fill="#FFD6CE"></path>
                        <path d="M15.2945977,20.1572402 C15.561627,20.1572402 15.7779961,19.9408711 15.7779961,19.6738418 C15.7779961,19.4068125 15.561627,19.1904434 15.2945977,19.1904434 L7.26747656,19.1904434 C7.00044727,19.1904434 6.78407813,19.4068125 6.78407813,19.6738418 C6.78407813,19.9408711 7.00044727,20.1572402 7.26747656,20.1572402 L15.2945977,20.1572402 Z" id="Path" fill="#FFD6CE"></path>
                        <path d="M15.2945977,17.1572402 C15.561627,17.1572402 15.7779961,16.9408711 15.7779961,16.6738418 C15.7779961,16.4068125 15.561627,16.1904434 15.2945977,16.1904434 L7.26747656,16.1904434 C7.00044727,16.1904434 6.78407813,16.4068125 6.78407813,16.6738418 C6.78407813,16.9408711 7.00044727,17.1572402 7.26747656,17.1572402 L15.2945977,17.1572402 Z" id="Path" fill="#FFD6CE"></path>
                        <path d="M15.2945977,14.1572402 C15.561627,14.1572402 15.7779961,13.9408711 15.7779961,13.6738418 C15.7779961,13.4068125 15.561627,13.1904434 15.2945977,13.1904434 L7.26747656,13.1904434 C7.00044727,13.1904434 6.78407813,13.4068125 6.78407813,13.6738418 C6.78407813,13.9408711 7.00044727,14.1572402 7.26747656,14.1572402 L15.2945977,14.1572402 Z" id="Path" fill="#FFD6CE"></path>
                        <path d="M15.2945977,11.1572402 C15.561627,11.1572402 15.7779961,10.9408711 15.7779961,10.6738418 C15.7779961,10.4068125 15.561627,10.1904434 15.2945977,10.1904434 L7.26747656,10.1904434 C7.00044727,10.1904434 6.78407813,10.4068125 6.78407813,10.6738418 C6.78407813,10.9408711 7.00044727,11.1572402 7.26747656,11.1572402 L15.2945977,11.1572402 Z" id="Path" fill="#FFD6CE"></path>
                        <path d="M15.2945977,11.1572402 C15.561627,11.1572402 15.7779961,10.9408711 15.7779961,10.6738418 C15.7779961,10.4068125 15.561627,10.1904434 15.2945977,10.1904434 L7.26747656,10.1904434 C7.00044727,10.1904434 6.78407812,10.4068125 6.78407812,10.6738418 C6.78407812,10.9408711 7.00044727,11.1572402 7.26747656,11.1572402 L15.2945977,11.1572402 Z" id="Path" fill="#FFD6CE"></path>
                        <path d="M15.2945977,8.15724023 C15.561627,8.15724023 15.7779961,7.94087109 15.7779961,7.6738418 C15.7779961,7.4068125 15.561627,7.19044336 15.2945977,7.19044336 L7.26747656,7.19044336 C7.00044727,7.19044336 6.78407813,7.4068125 6.78407813,7.6738418 C6.78407813,7.94087109 7.00044727,8.15724023 7.26747656,8.15724023 L15.2945977,8.15724023 Z" id="Path" fill="#FFD6CE"></path>
                        <path d="M15.2945977,8.15724023 C15.561627,8.15724023 15.7779961,7.94087109 15.7779961,7.6738418 C15.7779961,7.4068125 15.561627,7.19044336 15.2945977,7.19044336 L7.26747656,7.19044336 C7.00044727,7.19044336 6.78407812,7.4068125 6.78407812,7.6738418 C6.78407812,7.94087109 7.00044727,8.15724023 7.26747656,8.15724023 L15.2945977,8.15724023 Z" id="Path" fill="#FFD6CE"></path>
                        <path d="M15.2945977,5.15724023 C15.561627,5.15724023 15.7779961,4.94087109 15.7779961,4.6738418 C15.7779961,4.4068125 15.561627,4.19044336 15.2945977,4.19044336 L7.26747656,4.19044336 C7.00044727,4.19044336 6.78407813,4.4068125 6.78407813,4.6738418 C6.78407813,4.94087109 7.00044727,5.15724023 7.26747656,5.15724023 L15.2945977,5.15724023 Z" id="Path" fill="#FFD6CE"></path>
                        <path d="M15.2945977,5.15724023 C15.561627,5.15724023 15.7779961,4.94087109 15.7779961,4.6738418 C15.7779961,4.4068125 15.561627,4.19044336 15.2945977,4.19044336 L7.26747656,4.19044336 C7.00044727,4.19044336 6.78407812,4.4068125 6.78407812,4.6738418 C6.78407812,4.94087109 7.00044727,5.15724023 7.26747656,5.15724023 L15.2945977,5.15724023 Z" id="Path" fill="#FFD6CE"></path>
                        <path d="M27.829377,29.2131211 C27.5623477,29.2131211 27.3459785,29.4294902 27.3459785,29.6965195 L27.3459785,30.8698242 L5.51841211,30.8698242 L5.51841211,7.41004688 L5.51841211,2.76200977 C5.51841211,2.71811719 5.51725195,2.67435352 5.51525391,2.6307832 C5.51460938,2.6163457 5.51332031,2.60197266 5.51241797,2.58753516 C5.51061328,2.5584668 5.50874414,2.52933398 5.50603711,2.50045898 C5.50449023,2.48357227 5.50236328,2.46687891 5.50049414,2.45005664 C5.4975293,2.42363086 5.4945,2.39726953 5.49082617,2.37110156 C5.48837695,2.35357031 5.48547656,2.33610352 5.48270508,2.31863672 C5.47864453,2.29337109 5.47439062,2.26823438 5.46962109,2.24316211 C5.46626953,2.2254375 5.46266016,2.20777734 5.45898633,2.19011719 C5.45383008,2.16543164 5.44835156,2.140875 5.44248633,2.11638281 C5.43829687,2.09891602 5.43404297,2.08144922 5.42953125,2.06411133 C5.42315039,2.03949023 5.41631836,2.01499805 5.40922852,1.99063477 C5.40433008,1.97387695 5.39956055,1.95705469 5.3944043,1.94036133 C5.38660547,1.91516016 5.37816211,1.8902168 5.3696543,1.86533789 C5.36430469,1.84980469 5.35921289,1.83420703 5.35360547,1.81873828 C5.34374414,1.79153906 5.33310937,1.76466211 5.32241016,1.73784961 C5.31731836,1.72508789 5.31254883,1.71213281 5.30726367,1.69943555 C5.29179492,1.66231055 5.27548828,1.62550781 5.25834375,1.5890918 C5.2573125,1.58690039 5.25641016,1.58458008 5.25537891,1.58238867 C5.23707422,1.54365234 5.21767383,1.50543164 5.19756445,1.4675332 C5.19150586,1.456125 5.18493164,1.44497461 5.17867969,1.43363086 C5.16430664,1.40752734 5.14980469,1.38148828 5.1345293,1.35577148 C5.12615039,1.34165625 5.11725586,1.32786328 5.10861914,1.31387695 C5.09469727,1.29138281 5.08071094,1.26895313 5.06608008,1.24678125 C5.0562832,1.23195703 5.04616406,1.21732617 5.03604492,1.20269531 C5.02167187,1.18187695 5.00723437,1.16112305 4.99228125,1.14062695 C4.98138867,1.12573828 4.97030273,1.11104297 4.95915234,1.09634766 C4.94407031,1.07656055 4.92879492,1.05690234 4.91319727,1.03750195 C4.90140234,1.02287109 4.88954297,1.00830469 4.87742578,0.993867188 C4.87085156,0.986003906 4.86459961,0.977882813 4.85796094,0.970083984 L25.5542461,0.970083984 C26.0322949,0.970083984 26.4824355,1.15661133 26.821459,1.49479688 C27.1598379,1.83311133 27.3461719,2.2831875 27.3461719,2.76207422 L27.3461719,11.2841953 C27.3461719,11.5512246 27.562541,11.7675938 27.8295703,11.7675938 C28.0965996,11.7675938 28.3129687,11.5512246 28.3129687,11.2841953 L28.3129687,2.76200977 C28.3129687,2.02485938 28.0260879,1.33198828 27.5047266,0.810691406 C26.9826562,0.289974609 26.2899785,0.00322265625 25.5541172,0.00322265625 L2.75968945,0.00322265625 C1.23801563,0.00322265625 0,1.24078711 0,2.76200977 L0,7.41004688 C0,7.67707617 0.216369141,7.89344531 0.483398438,7.89344531 L3.10141992,7.89344531 C3.36844922,7.89344531 3.58481836,7.67707617 3.58481836,7.41004688 C3.58481836,7.14301758 3.36844922,6.92664844 3.10141992,6.92664844 L0.966796875,6.92664844 L0.966796875,2.76200977 C0.966796875,1.77394336 1.77110742,0.970019531 2.75968945,0.970019531 C3.23773828,0.970019531 3.68794336,1.15654688 4.0269668,1.49473242 C4.36528125,1.83298242 4.55161523,2.28312305 4.55161523,2.76200977 L4.55161523,7.41004688 L4.55161523,31.3532227 C4.55161523,31.620252 4.76798438,31.8366211 5.03501367,31.8366211 L27.829377,31.8366211 C28.0964063,31.8366211 28.3129687,31.620252 28.3129687,31.3532227 L28.3129687,29.6965195 C28.3129687,29.4294902 28.0964063,29.2131211 27.829377,29.2131211 Z" id="Path" fill="#5D98C1" fill-rule="nonzero"></path>
                        <path d="M32.9867871,16.8277441 C32.9768613,16.600998 32.8105078,16.4116992 32.5869199,16.3726406 C30.9425273,16.0856953 29.5832109,14.8622461 29.1237891,13.2558809 C29.0644277,13.0484062 28.8748066,12.9053848 28.6590176,12.9053848 L20.7712441,12.9053848 C20.5554551,12.9053848 20.365834,13.0484062 20.3064727,13.2558809 C20.1961289,13.6417617 20.0333203,14.0052773 19.8276504,14.3393379 L19.0224375,15.3061348 C18.4190918,15.850248 17.6669883,16.2289746 16.8433418,16.3727051 C16.6197539,16.4116992 16.4534004,16.6010625 16.4434746,16.8278086 C16.434709,17.0285801 16.4302617,17.2269023 16.4302617,17.4172969 C16.4302617,17.9360156 16.4604902,18.4496426 16.5189492,18.9564375 L16.666418,19.9232344 C16.9106953,21.2064961 17.3398242,22.4345859 17.9312461,23.5735371 L18.4856719,24.540334 C19.8992578,26.7824648 21.9785801,28.600623 24.5246074,29.6921367 C24.5853867,29.7181758 24.6502266,29.7311953 24.7150664,29.7311953 C24.7799062,29.7311953 24.8447461,29.7181758 24.9055254,29.6921367 C29.8227187,27.5840684 33,22.7659395 33,17.417168 C33,17.2268379 32.9955527,17.0285156 32.9867871,16.8277441 Z M24.7150664,28.7198613 C22.3697461,27.6680508 20.4651562,25.945541 19.187373,23.8361191 C19.1768027,23.8155586 19.1648145,23.7959648 19.1515371,23.7772734 C18.0256699,21.8949844 17.3970586,19.7086699 17.3970586,17.4172324 C17.3970586,17.3595469 17.3975098,17.3010879 17.3984121,17.2419844 C18.6442266,16.9259707 19.7290371,16.1650371 20.4602578,15.1336582 C20.4780469,15.1125176 20.4937734,15.0897012 20.5078242,15.0656602 C20.7598359,14.6983418 20.9677617,14.2981523 21.1225137,13.8722461 L28.3078125,13.8722461 C28.9116094,15.5341699 30.3201035,16.8078281 32.0318496,17.2419844 C32.032752,17.3010879 32.0332031,17.3595469 32.0332031,17.4172324 C32.0332031,22.3093535 29.167875,26.7229102 24.7150664,28.7198613 Z" id="Shape" fill="#5D98C1" fill-rule="nonzero"></path>
                        <path d="M28.1477754,18.93375 L26.4995801,18.93375 L26.4995801,17.2855547 C26.4995801,17.0185254 26.2832109,16.8021562 26.0161816,16.8021562 L23.4140801,16.8021562 C23.1470508,16.8021562 22.9306816,17.0185254 22.9306816,17.2855547 L22.9306816,18.93375 L21.2824219,18.93375 C21.0153926,18.93375 20.7990234,19.1501191 20.7990234,19.4171484 L20.7990234,22.01925 C20.7990234,22.2862793 21.0153926,22.5026484 21.2824219,22.5026484 L22.9306172,22.5026484 L22.9306172,24.1508437 C22.9306172,24.417873 23.1469863,24.6342422 23.4140156,24.6342422 L26.0161172,24.6342422 C26.2831465,24.6342422 26.4995156,24.417873 26.4995156,24.1508437 L26.4995156,22.5026484 L28.1477109,22.5026484 C28.4147402,22.5026484 28.6311094,22.2862793 28.6311094,22.01925 L28.6311094,19.4171484 C28.6311094,19.1501191 28.4147402,18.93375 28.1477754,18.93375 Z M27.664377,21.5358516 L26.0161816,21.5358516 C25.7492168,21.5358516 25.5327832,21.7522207 25.5327832,22.01925 L25.5327832,23.6674453 L23.8974785,23.6674453 L23.8974785,22.01925 C23.8974785,21.7522207 23.6811094,21.5358516 23.4140801,21.5358516 L21.7658203,21.5358516 L21.7658203,19.9005469 L23.4140156,19.9005469 C23.6810449,19.9005469 23.8974141,19.6841777 23.8974141,19.4171484 L23.8974141,17.7689531 L25.5327188,17.7689531 L25.5327188,19.4171484 C25.5327188,19.6841777 25.7491523,19.9005469 26.0161172,19.9005469 L27.6643125,19.9005469 L27.6643125,21.5358516 L27.664377,21.5358516 Z" id="Shape" fill="#5D98C1" fill-rule="nonzero"></path>
                        <path d="M18.2239922,4 C17.9570273,4 17.7405937,4.21636914 17.7405937,4.48339844 L17.7405937,8.05249023 C17.7405937,8.31951953 17.9570273,8.53588867 18.2239922,8.53588867 L25.5969785,8.53588867 C25.8640078,8.53588867 26.080377,8.31951953 26.080377,8.05249023 L26.080377,4.48339844 C26.080377,4.21636914 25.8640078,4 25.5969785,4 L18.2239922,4 Z M25.1135801,7.5690918 L18.7073906,7.5690918 L18.7073906,4.96679688 L25.1135801,4.96679688 L25.1135801,7.5690918 L25.1135801,7.5690918 Z" id="Shape" fill="#5D98C1" fill-rule="nonzero"></path>
                    </g>
                </g>
            </g>
        </g>
    </g>
</svg>