<?xml version="1.0" encoding="UTF-8"?>
<svg width="35px" height="35px" viewBox="0 0 35 35" version="1.1" xmlns="http://www.w3.org/2000/svg" xmlns:xlink="http://www.w3.org/1999/xlink">
    <!-- Generator: Sketch 58 (84663) - https://sketch.com -->
    <title>Group 3</title>
    <desc>Created with Sketch.</desc>
    <g id="Reco-Page" stroke="none" stroke-width="1" fill="none" fill-rule="evenodd">
        <g id="Refer_landing" transform="translate(-20.000000, -475.000000)" fill-rule="nonzero">
            <g id="Group-2-Copy-2" transform="translate(-7.000000, 456.000000)">
                <g id="Group-3" transform="translate(27.000000, 19.000000)">
                    <path d="M34.9310581,17.4649186 C34.9310581,27.1112442 27.1114884,34.9303256 17.4656512,34.9303256 C7.81981395,34.9303256 -4.26325641e-14,27.1112442 -4.26325641e-14,17.4649186 C-4.26325641e-14,7.8190814 7.81981395,0 17.4656512,0 C27.1114884,0 34.9310581,7.8190814 34.9310581,17.4649186" id="Fill-79" fill="#F9DED5"></path>
                    <g id="hospital-bed-(1)" transform="translate(2.000000, 0.839179)">
                        <g id="Layer_2" transform="translate(0.533333, 0.345833)">
                            <path d="M21.3333333,3.38883333 C21.3396974,3.78053543 21.2857323,4.17088341 21.1733333,4.54616667 C20.5916599,4.15149407 19.9028682,3.94485657 19.2,3.95416667 C17.328,3.95416667 17.328,5.02083333 15.4613333,5.02083333 C13.5946667,5.02083333 13.5946667,3.95416667 11.728,3.95416667 C11.0268965,3.94560737 10.3400265,4.15222678 9.76,4.54616667 L9.75466667,4.54616667 C9.64678021,4.17003073 9.5946696,3.78009964 9.6,3.38883333 C9.6,1.27683333 10.9013333,0.220833333 12.64,0.220833333 C13.8214014,0.221818475 14.9069525,0.871100933 15.4666667,1.9115 C16.0263809,0.871100933 17.1119319,0.221818475 18.2933333,0.220833333 C20.032,0.220833333 21.3333333,1.27683333 21.3333333,3.38883333 Z" id="Shape" fill="#F5F5F5"></path>
                            <path d="M21.1733333,4.54616667 C20.8106667,5.8475 19.8506667,6.5195 19.1626667,7.18616667 C18.2933333,8.03416667 15.4666667,10.3541667 15.4666667,10.3541667 C15.4666667,10.3541667 12.64,8.03416667 11.7706667,7.18616667 C11.0826667,6.5195 10.1226667,5.8475 9.76,4.54616667 C10.3400265,4.15222678 11.0268965,3.94560737 11.728,3.95416667 C13.5946667,3.95416667 13.5946667,5.02083333 15.4613333,5.02083333 C17.328,5.02083333 17.328,3.95416667 19.2,3.95416667 C19.9028682,3.94485657 20.5916599,4.15149407 21.1733333,4.54616667 Z" id="Shape" fill="#F44335"></path>
                            <path d="M21.1733333,4.54616667 C20.8106667,5.8475 19.8506667,6.5195 19.1626667,7.18616667 C18.2933333,8.03416667 15.4666667,10.3541667 15.4666667,10.3541667 C15.4666667,10.3541667 12.64,8.03416667 11.7706667,7.18616667 C11.0826667,6.5195 10.1226667,5.8475 9.76,4.54616667 C10.3400265,4.15222678 11.0268965,3.94560737 11.728,3.95416667 C13.5946667,3.95416667 13.5946667,5.02083333 15.4613333,5.02083333 C17.328,5.02083333 17.328,3.95416667 19.2,3.95416667 C19.9028682,3.94485657 20.5916599,4.15149407 21.1733333,4.54616667 Z" id="Shape" fill="#E98875"></path>
                            <path d="M17.8986667,0.2475 C17.7798197,0.263937563 17.662089,0.287626203 17.5461333,0.318433333 L17.5413333,0.318433333 C17.6585545,0.286103392 17.7779846,0.262395627 17.8986667,0.2475 Z" id="Shape" fill="#F5F5F5"></path>
                            <path d="M21.3333333,3.38883333 C21.3396974,3.78053543 21.2857323,4.17088341 21.1733333,4.54616667 C20.7276378,4.25013213 20.2207806,4.05869327 19.6906667,3.98616667 C19.7217441,3.78861912 19.7360174,3.58879242 19.7333333,3.38883333 C19.7633529,2.64769503 19.5498007,1.9171216 19.1253333,1.30883333 C19.072,1.24483333 19.024,1.18083333 18.9706667,1.1275 C18.7025436,0.836170485 18.3727375,0.608403851 18.0053333,0.460833333 C17.952,0.4395 17.8986667,0.418166667 17.8453333,0.402166667 C17.7493333,0.370166667 17.648,0.3435 17.5466667,0.316833333 C17.6621218,0.285040005 17.7797787,0.261865157 17.8986667,0.2475 C17.9357015,0.241306357 17.9731284,0.237741893 18.0106667,0.236833333 C18.063514,0.227977723 18.1171115,0.224404549 18.1706667,0.226166667 C18.2113881,0.221619125 18.2523709,0.219837264 18.2933333,0.220833333 C20.032,0.220833333 21.3333333,1.27683333 21.3333333,3.38883333 L21.3333333,3.38883333 Z" id="Shape" fill="#E47460"></path>
                            <path d="M21.1733333,4.54616667 C20.8106667,5.8475 19.8506667,6.5195 19.1626667,7.18616667 C18.2933333,8.03416667 15.4666667,10.3541667 15.4666667,10.3541667 C15.4666667,10.3541667 15.28,10.1995 14.992,9.9595 C14.9378714,9.92004149 14.8862186,9.87729429 14.8373333,9.8315 C14.784,9.78883333 14.7253333,9.74083333 14.6666667,9.69283333 C15.568,8.94083333 16.992,7.74616667 17.5626667,7.18616667 C18.2506667,6.5195 19.2106667,5.8475 19.5733333,4.54616667 C19.6298317,4.3635699 19.6691142,4.17608545 19.6906667,3.98616667 C20.2207806,4.05869327 20.7276378,4.25013213 21.1733333,4.54616667 L21.1733333,4.54616667 Z" id="Shape" fill="#E47460"></path>
                            <path d="M2.13334811,8.22083333 L2.13334811,20.4768333 L1.06666667,20.4768333 C0.478292336,20.4750761 0.00175722667,19.998541 0,19.4101667 L0,8.22083333 C0.00175722667,7.63245899 0.478292336,7.15592389 1.06666667,7.15415189 C1.34964828,7.15266101 1.62108736,7.26624192 1.81866667,7.46883333 C2.02125808,7.66641264 2.13483897,7.93785173 2.13334811,8.22083333 Z" id="Shape" fill="#FFFFFF"></path>
                            <path d="M30.9333333,8.22083333 L30.9333333,19.4101667 C30.9315761,19.998541 30.455041,20.4750761 29.8666667,20.4768333 L28.8,20.4768333 L28.8,8.22083333 C28.8017572,7.63245899 29.2782923,7.15592389 29.8666667,7.15416667 C30.4539567,7.15852251 30.9289775,7.63354331 30.9333333,8.22083333 Z" id="Shape" fill="#FFFFFF"></path>
                            <polygon id="Rectangle-path" fill="#FFFFFF" points="2.13333333 14.0875 28.8 14.0875 28.8 16.8875 2.13333333 16.8875"></polygon>
                            <polygon id="Rectangle-path" fill="#E98875" points="2.13333333 16.0875 28.8 16.0875 28.8 18.8875 2.13333333 18.8875"></polygon>
                            <polygon id="Rectangle-path" fill="#E47460" points="26.2 16.0875 28.8 16.0875 28.8 18.8875 26.2 18.8875"></polygon>
                            <path d="M28.8,18.8875 L28.8,20.4768333 C28.7982428,21.0652077 28.3217077,21.5417428 27.7333333,21.5435 L3.2,21.5435 C2.61162567,21.5417428 2.13509056,21.0652077 2.13333333,20.4768333 L2.13333333,18.8875 L28.8,18.8875 Z" id="Shape" fill="#E98875"></path>
                            <path d="M26.2,18.8875 L26.2,20.4768333 C26.1982428,21.0652077 25.7217077,21.5417428 25.1333333,21.5435 L27.7333333,21.5435 C28.3217077,21.5417428 28.7982428,21.0652077 28.8,20.4768333 L28.8,18.8875 L26.2,18.8875 Z" id="Shape" fill="#E47460"></path>
                            <path d="M8.53333333,11.9541667 L8.53333333,14.0875 L2.13333333,14.0875 L2.13333333,10.8875 L7.46666667,10.8875 C8.05504101,10.8892572 8.53157611,11.3657923 8.53333333,11.9541667 Z" id="Shape" fill="#E98875"></path>
                            <path d="M5.86666667,21.5541667 L5.86666667,26.3541667 C5.86666667,26.6487185 5.62788517,26.8875 5.33333333,26.8875 L4.26666667,26.8875 C3.9721148,26.8875 3.73333333,26.6487185 3.73333333,26.3541667 L3.73333333,21.5541667 L5.86666667,21.5541667 Z" id="Shape" fill="#FFFFFF"></path>
                            <circle id="Oval" fill="#F5F5F5" cx="4.8" cy="30.0875" r="1.06666667"></circle>
                            <path d="M3.73333333,23.6875 L3.73333333,25.8208333 L2.13333333,25.8208333 C1.544959,25.8190761 1.06842389,25.342541 1.06666667,24.7541667 C1.07102252,24.1668766 1.54604332,23.6918558 2.13333333,23.6875 L3.73333333,23.6875 Z" id="Shape" fill="#F5F5F5"></path>
                            <path d="M27.2,21.5541667 L27.2,26.3541667 C27.2,26.6487185 26.9612185,26.8875 26.6666667,26.8875 L25.6,26.8875 C25.3054482,26.8875 25.0666667,26.6487185 25.0666667,26.3541667 L25.0666667,21.5541667 L27.2,21.5541667 Z" id="Shape" fill="#FFFFFF"></path>
                            <circle id="Oval" fill="#F5F5F5" cx="26.1333333" cy="30.0875" r="1.06666667"></circle>
                            <g id="Group" transform="translate(5.866667, 23.687500)" fill="#F5F5F5">
                                <polygon id="Rectangle-path" points="0 0 19.2 0 19.2 2.13333333 0 2.13333333"></polygon>
                                <path d="M24,1.06666667 C23.9956442,1.65395669 23.5206234,2.12897749 22.9333333,2.13333333 L21.3333333,2.13333333 L21.3333333,0 L22.9333333,0 C23.5217077,0.00175722667 23.9982428,0.47829232 24,1.06666667 Z" id="Shape"></path>
                            </g>
                        </g>
                        <g id="Layer_3" fill="#5A7A8E">
                            <path d="M15.6613333,11.1117333 C15.8581343,11.2735025 16.1418657,11.2735025 16.3386667,11.1117333 C16.4549333,11.0168 19.1904,8.76506667 20.0656,7.916 C21.0437333,6.96666667 22.4,6.0488 22.4,3.7336 C22.4,-0.289333333 17.9781333,-0.944266667 16,1.3336 C14.0224,-0.943733333 9.6,-0.292 9.6,3.7336 C9.6,5.788 10.736,6.81946667 11.5653333,7.5736 C12.0826667,8.04293333 12.5866667,8.5816 15.6613333,11.1117333 Z M19.7173333,6.78373333 C19.1418667,7.30693333 18.9104,7.59706667 16,10.0082667 C13.0853333,7.59386667 12.8576,7.3064 12.2826667,6.78373333 C11.723101,6.33972144 11.2667043,5.77941621 10.9450667,5.1416 C11.3490376,4.92477088 11.8030917,4.8184324 12.2613333,4.83333333 C13.9146667,4.83333333 13.9749333,5.9 15.9946667,5.9 C17.984,5.9 18.1045333,4.83333333 19.7333333,4.83333333 C20.1933137,4.81804499 20.6491866,4.92437856 21.0549333,5.1416 C20.7331525,5.77932325 20.276779,6.33959995 19.7173333,6.78373333 L19.7173333,6.78373333 Z M13.1733333,1.09999902 C14.1540034,1.10072446 15.0557708,1.63765151 15.5237333,2.49946667 C15.6245043,2.66486721 15.8041862,2.76579884 15.9978667,2.76579884 C16.1915471,2.76579884 16.371229,2.66486721 16.472,2.49946667 C16.9406925,1.63630706 17.8444669,1.09916006 18.8266667,1.09999902 C20.5925333,1.09999902 21.4650667,2.27813333 21.3125333,4.0808 C20.8157755,3.86080074 20.276468,3.75352207 19.7333333,3.76666667 C17.7546667,3.76666667 17.6064,4.83333333 15.9946667,4.83333333 C14.3413333,4.83333333 14.2816,3.76666667 12.2613333,3.76666667 C11.7206592,3.75409764 11.1839069,3.86137525 10.6896,4.0808 C10.5381333,2.2824 11.4058667,1.09999902 13.1733333,1.09999902 Z" id="Shape"></path>
                            <path d="M30.4,6.96666667 C29.5163444,6.96666667 28.8,7.68301109 28.8,8.56666667 L28.8,13.9 L9.6,13.9 L9.6,12.3 C9.6,11.4163444 8.88365557,10.7 8,10.7 L3.2,10.7 L3.2,8.56666667 C3.2,7.68301109 2.4836556,6.96666667 1.6,6.96666667 C0.7163444,6.96666667 0,7.68301109 0,8.56666667 L0,19.7549333 C0,20.6385889 0.7163444,21.3549333 1.6,21.3549333 L2.23146667,21.3549333 C2.45666909,21.9919205 3.05771444,22.4187993 3.73333333,22.4216 L3.73333333,23.5 L2.66666667,23.5 C1.78301109,23.5000001 1.06666674,24.2163444 1.06666674,25.1 C1.06666674,25.9836556 1.78301109,26.6999999 2.66666667,26.7 L3.73333333,26.7 C3.73333333,27.2891037 4.21089627,27.7666667 4.8,27.7666667 L4.8,28.9314667 C4.06530843,29.1912194 3.62460155,29.9424886 3.75637564,30.7105243 C3.88814972,31.4785599 4.55407525,32.0399611 5.33333333,32.0399611 C6.11259141,32.0399611 6.77851696,31.4785599 6.91029104,30.7105243 C7.04206512,29.9424886 6.60135824,29.1912194 5.86666667,28.9314667 L5.86666667,27.7666667 C6.4557704,27.7666667 6.93333333,27.2891037 6.93333333,26.7 L25.0666667,26.7 C25.0666667,27.2891037 25.5442296,27.7666667 26.1333333,27.7666667 L26.1333333,28.9314667 C25.3986418,29.1912194 24.9579349,29.9424886 25.089709,30.7105243 C25.221483,31.4785599 25.8874086,32.0399611 26.6666667,32.0399611 C27.4459247,32.0399611 28.1118503,31.4785599 28.2436244,30.7105243 C28.3753985,29.9424886 27.9346916,29.1912194 27.2,28.9314667 L27.2,27.7666667 C27.7891037,27.7666667 28.2666667,27.2891037 28.2666667,26.7 L29.3333333,26.7 C30.2169889,26.6999999 30.9333333,25.9836556 30.9333333,25.1 C30.9333333,24.2163444 30.2169889,23.5000001 29.3333333,23.5 L28.2666667,23.5 L28.2666667,22.4216 C28.9422855,22.4187993 29.5433309,21.9919205 29.7685333,21.3549333 L30.4,21.3549333 C31.2836556,21.3549333 32,20.6385889 32,19.7549333 L32,8.56666667 C32,7.68301109 31.2836556,6.96666667 30.4,6.96666667 Z M5.33333333,30.9666667 C5.03878147,30.9666667 4.8,30.7278852 4.8,30.4333333 C4.8,30.1387815 5.03878147,29.9 5.33333333,29.9 C5.62788517,29.9 5.86666667,30.1387815 5.86666667,30.4333333 C5.86666667,30.7278852 5.62788517,30.9666667 5.33333333,30.9666667 Z M26.6666667,30.9666667 C26.3721148,30.9666667 26.1333333,30.7278852 26.1333333,30.4333333 C26.1333333,30.1387815 26.3721148,29.9 26.6666667,29.9 C26.9612185,29.9 27.2,30.1387815 27.2,30.4333333 C27.2,30.7278852 26.9612185,30.9666667 26.6666667,30.9666667 Z M28.8,18.7 L3.2,18.7 L3.2,14.9666667 L28.8,14.9666667 L28.8,18.7 Z M8,11.7666667 C8.29455184,11.7666667 8.53333333,12.0054482 8.53333333,12.3 L8.53333333,13.9 L3.2,13.9 L3.2,11.7666667 L8,11.7666667 Z M1.06666667,19.7549333 L1.06666667,8.56666667 C1.06666667,8.27211483 1.30544813,8.03333333 1.6,8.03333333 C1.89455187,8.03333333 2.13333333,8.27211483 2.13333333,8.56666667 L2.13333333,20.2882667 L1.6,20.2882667 C1.30544813,20.2882667 1.06666667,20.0494852 1.06666667,19.7549333 Z M2.66666667,25.6333333 C2.3721148,25.6333333 2.13333333,25.3945518 2.13333333,25.1 C2.13333333,24.8054482 2.3721148,24.5666667 2.66666667,24.5666667 L3.73333333,24.5666667 L3.73333333,25.6333333 L2.66666667,25.6333333 Z M4.8,26.7 L4.8,22.4333333 L5.86666667,22.4333333 L5.86666667,26.7 L4.8,26.7 Z M6.93333333,25.6333333 L6.93333333,24.5666667 L25.0666667,24.5666667 L25.0666667,25.6333333 L6.93333333,25.6333333 Z M27.2,26.7 L26.1333333,26.7 L26.1333333,22.4333333 L27.2,22.4333333 L27.2,26.7 Z M29.3333333,24.5666667 C29.6278852,24.5666667 29.8666667,24.8054482 29.8666667,25.1 C29.8666667,25.3945518 29.6278852,25.6333333 29.3333333,25.6333333 L28.2666667,25.6333333 L28.2666667,24.5666667 L29.3333333,24.5666667 Z M25.0666667,23.5 L6.93333333,23.5 L6.93333333,22.4216 L25.0666667,22.4216 L25.0666667,23.5 Z M28.2666667,21.3549333 L3.73333333,21.3549333 C3.43878147,21.3549333 3.2,21.1161518 3.2,20.8216 L3.2,19.7666667 L28.8,19.7666667 L28.8,20.8216 C28.8,21.1161518 28.5612185,21.3549333 28.2666667,21.3549333 Z M30.9333333,19.7549333 C30.9333333,20.0494852 30.6945518,20.2882667 30.4,20.2882667 L29.8666667,20.2882667 L29.8666667,8.56666667 C29.8666667,8.27211483 30.1054482,8.03333333 30.4,8.03333333 C30.6945518,8.03333333 30.9333333,8.27211483 30.9333333,8.56666667 L30.9333333,19.7549333 Z" id="Shape"></path>
                        </g>
                    </g>
                </g>
            </g>
        </g>
    </g>
</svg>