<?xml version="1.0" encoding="UTF-8"?>
<svg width="53px" height="53px" viewBox="0 0 53 53" version="1.1" xmlns="http://www.w3.org/2000/svg" xmlns:xlink="http://www.w3.org/1999/xlink">
    <!-- Generator: sketchtool 57.1 (101010) - https://sketch.com -->
    <title>D07271B2-985A-4EB9-8BA8-9262B5B1AD9C</title>
    <desc>Created with sketchtool.</desc>
    <g id="Page-1" stroke="none" stroke-width="1" fill="none" fill-rule="evenodd">
        <g id="illustrations" transform="translate(-63.000000, -146.000000)" fill-rule="nonzero">
            <g id="med_eq_2" transform="translate(63.000000, 146.000000)">
                <ellipse id="Oval" fill="#F8D0CA" transform="translate(26.283027, 26.254528) rotate(-0.572939) translate(-26.283027, -26.254528) " cx="26.2830266" cy="26.2545281" rx="26.0243846" ry="25.9955966"></ellipse>
                <g id="Group" transform="translate(6.500000, 8.500000)">
                    <path d="M12.4845,0.15591849 C10.8373605,0.15591849 9.471,1.52227814 9.471,3.16941849 L9.471,7.9049185 L3.0135,7.9049185 C1.36636059,7.9049185 0,9.2712781 0,10.9184185 L0,28.9994185 C0,30.6465545 1.36636059,32.0132928 3.0135,32.0132928 L17.2199999,32.0132928 C17.6857612,32.0195054 18.118989,31.7747978 18.353792,31.3724987 C18.5885948,30.9701996 18.5885948,30.4726373 18.353792,30.0703382 C18.118989,29.6680391 17.6857612,29.4233314 17.2199999,29.4299184 L3.0135,29.4299184 C2.75266478,29.4299184 2.583,29.2602584 2.583,28.9994185 L2.583,21.2504185 L36.162,21.2504185 L36.162,28.9994185 C36.162,29.2602584 35.9923347,29.4299184 35.7314999,29.4299184 L21.525,29.4299184 C21.0592387,29.4233314 20.6260109,29.6680391 20.391208,30.0703382 C20.1564051,30.4726373 20.1564051,30.9701996 20.391208,31.3724987 C20.6260109,31.7747978 21.0592387,32.0195054 21.525,32.0132928 L35.7314999,32.0132928 C37.3786395,32.0132928 38.745,30.6465545 38.745,28.9994185 L38.745,10.9184185 C38.745,9.2712781 37.3786395,7.9049185 35.7314999,7.9049185 L29.274,7.9049185 L29.274,3.16941849 C29.274,1.52227814 27.9076395,0.15591849 26.2605,0.15591849 L12.4845,0.15591849 Z M12.4845,2.73891849 L26.2605,2.73891849 C26.5213348,2.73891849 26.6909999,2.90858284 26.6909999,3.16941849 L26.6909999,7.9049185 L12.054,7.9049185 L12.054,3.16941849 C12.054,2.90858284 12.2236652,2.73891849 12.4845,2.73891849 Z M3.0135,10.4879184 L35.7314999,10.4879184 C35.9923347,10.4879184 36.162,10.6575828 36.162,10.9184184 L36.162,18.6674184 L27.8883281,18.6674184 L10.8566719,18.6674184 L2.583,18.6674184 L2.583,10.9184184 C2.583,10.6575828 2.75266478,10.4879184 3.0135,10.4879184 Z" id="Shape" fill="#5C849E"></path>
                    <rect id="Rectangle" fill="#F37A64" x="1.5" y="19.5" width="36" height="1" rx="0.5"></rect>
                    <rect id="Rectangle" fill="#F37A64" x="3.5" y="22" width="32" height="6.5" rx="0.5"></rect>
                    <rect id="Rectangle" stroke="#E7CECE" stroke-width="0.5" fill="#F37A64" x="3.5" y="11" width="32" height="7" rx="0.5"></rect>
                    <rect id="Rectangle" fill="#5C849E" x="17" y="15" width="7" height="2" rx="0.5"></rect>
                    <rect id="Rectangle" fill="#F37A64" x="16" y="1" width="7" height="1" rx="0.5"></rect>
                    <path d="M10.7644024,13.9999166 C10.3494647,14.0043796 9.95347195,14.1751876 9.66464695,14.4744566 C9.37582195,14.7737257 9.218159,15.1765938 9.22678365,15.5933064 L9.22678365,18.1944815 L6.63710995,18.1944815 C6.58319505,18.1916574 6.52917025,18.1916574 6.47525535,18.1944815 C5.9200653,18.2234289 5.4224354,18.5477167 5.1698561,19.0451639 C4.91727679,19.5426111 4.9481301,20.1376255 5.25079155,20.6060255 C5.55345295,21.0744254 6.08192995,21.3450328 6.63710995,21.3158915 L9.22678365,21.3158915 L9.22678365,23.9170666 C9.2188588,24.4799129 9.51326675,25.0034444 9.997273,25.2871905 C10.4812792,25.5709365 11.0798966,25.5709365 11.5639028,25.2871905 C12.047909,25.0034444 12.3423169,24.4799129 12.3343921,23.9170666 L12.3343921,21.3158915 L14.9240658,21.3158915 C15.4844234,21.3238516 16.0056399,21.0281361 16.2881314,20.5419803 C16.5706228,20.0558245 16.5706228,19.4545485 16.2881314,18.9683927 C16.0056399,18.482237 15.4844234,18.1865215 14.9240658,18.1944815 L12.3343921,18.1944815 L12.3343921,15.5933064 C12.3431345,15.1709548 12.1810664,14.7630803 11.8852041,14.4628402 C11.5893416,14.1626 11.1849541,13.9956376 10.7644024,13.9999166 Z" id="Path" fill="#FFFFFF"></path>
                    <path d="M9.7637762,14.9999239 C9.3668793,15.0039988 8.9881036,15.159954 8.7118362,15.4331996 C8.43556885,15.7064452 8.2847608,16.0742813 8.29301045,16.454758 L8.29301045,18.829744 L5.8159313,18.829744 C5.7643605,18.8271654 5.7126846,18.8271654 5.66111385,18.829744 C5.13006245,18.8561742 4.65406866,19.1522631 4.41247106,19.6064539 C4.17087345,20.0606449 4.20038531,20.6039189 4.48988755,21.0315885 C4.77938979,21.459258 5.2848895,21.7063343 5.8159313,21.6797271 L8.29301045,21.6797271 L8.29301045,24.054713 C8.28543015,24.5686162 8.5670378,25.0466231 9.03000025,25.3056956 C9.4929627,25.5647681 10.0655532,25.5647681 10.5285156,25.3056956 C10.9914782,25.0466231 11.2730857,24.5686162 11.2655054,24.054713 L11.2655054,21.6797271 L13.7425846,21.6797271 C14.2785789,21.6869949 14.7771338,21.4169939 15.0473431,20.9731124 C15.3175523,20.529231 15.3175523,19.98024 15.0473431,19.5363586 C14.7771338,19.0924772 14.2785789,18.8224761 13.7425846,18.829744 L11.2655054,18.829744 L11.2655054,16.454758 C11.2738678,16.0691327 11.1188462,15.6967255 10.8358473,15.4225932 C10.5528485,15.148461 10.166043,14.996017 9.7637762,14.9999239 Z" id="Path" fill="#5C849E"></path>
                </g>
                <path d="M48.5000364,36.8076925 C48.505767,35.0474093 47.143764,33.5766038 45.3672619,33.4247185 C43.5907601,33.2728332 41.9928854,34.4905785 41.6920184,36.2256331 C41.3911515,37.9606878 42.4877436,39.633764 44.2142707,40.0738463 L44.2142707,45.2692309 C44.2142707,46.6711845 43.0630038,47.8076925 41.642844,47.8076925 L34.7857064,47.8076925 C33.3655467,47.8076925 32.2142798,46.6711845 32.2142798,45.2692309 L32.2142798,43.5176925 C35.6404999,43.0915646 38.2111438,40.2167257 38.2142752,36.8076925 L38.2142752,30.8846156 C38.2142752,29.482662 37.0630083,28.346154 35.6428486,28.346154 C35.6428486,27.8788362 35.259093,27.5000002 34.7857064,27.5000002 C34.3123199,27.5000002 33.9285642,27.8788362 33.9285642,28.346154 L33.9285642,30.0384617 C33.9285642,30.5057796 34.3123199,30.8846156 34.7857064,30.8846156 C35.259093,30.8846156 35.6428486,30.5057796 35.6428486,30.0384617 C36.1162352,30.0384617 36.5,30.4172977 36.5,30.8846156 L36.5,36.8076925 C36.5,39.6115997 34.197457,41.8846156 31.3571376,41.8846156 C28.5168182,41.8846156 26.2142844,39.6115997 26.2142844,36.8076925 L26.2142844,30.8846156 C26.2142844,30.4172977 26.59804,30.0384617 27.0714266,30.0384617 C27.0714266,30.5057796 27.4551823,30.8846156 27.9285688,30.8846156 C28.4019553,30.8846156 28.785711,30.5057796 28.785711,30.0384617 L28.785711,28.346154 C28.785711,27.8788362 28.4019553,27.5000002 27.9285688,27.5000002 C27.4551823,27.5000002 27.0714266,27.8788362 27.0714266,28.346154 C25.6512669,28.346154 24.5,29.482662 24.5,30.8846156 L24.5,36.8076925 C24.5031314,40.2167257 27.0737753,43.0915646 30.5,43.5176925 L30.5,45.2692309 C30.5,47.6058203 32.4187736,49.5000002 34.7857064,49.5000002 L41.642844,49.5000002 C44.0097769,49.5000002 45.928555,47.6058203 45.928555,45.2692309 L45.928555,40.0738463 C47.438328,39.6890308 48.4949185,38.3469792 48.5000364,36.8076925 Z" id="Path" stroke="#5C849E" fill="#FFFFFF"></path>
                <circle id="Oval" fill="#F37A64" cx="45.25" cy="36.7500002" r="1.75"></circle>
            </g>
        </g>
    </g>
</svg>