<?xml version="1.0" encoding="UTF-8"?>
<svg width="182px" height="162px" viewBox="0 0 182 162" version="1.1" xmlns="http://www.w3.org/2000/svg" xmlns:xlink="http://www.w3.org/1999/xlink">
    <!-- Generator: sketchtool 57.1 (101010) - https://sketch.com -->
    <title>C527C7BE-C596-4286-BC47-326C7CAB969E</title>
    <desc>Created with sketchtool.</desc>
    <defs>
        <linearGradient x1="63.3104478%" y1="54.1069781%" x2="42.3626866%" y2="44.103898%" id="linearGradient-1">
            <stop stop-color="#C5C5C5" offset="0%"></stop>
            <stop stop-color="#5B5B5A" offset="100%"></stop>
        </linearGradient>
    </defs>
    <g id="Page-1" stroke="none" stroke-width="1" fill="none" fill-rule="evenodd">
        <g id="illustrations" transform="translate(-222.000000, -88.000000)">
            <g id="renew-illustration-abc-" transform="translate(222.000000, 88.000000)">
                <g id="Group" transform="translate(0.000000, 0.177551)">
                    <g fill="#BFBFBF" fill-rule="nonzero" id="Path" opacity="0.2">
                        <path d="M35.832039,150.068156 C6.53367313,143.740809 -21.5267336,113.066933 24.8967334,66.781017 C71.3202004,20.495101 83.6997916,12.7234687 114.442443,14.9242849 C188.032235,20.219999 206.601622,110.866117 128.197544,124.071014 C60.1785683,135.556524 67.1248945,156.808155 35.832039,150.068156 Z"></path>
                        <path d="M171.938767,105.432852 C176.065297,70.7699964 148.761421,71.93918 131.086116,25.8595905 C107.28979,-36.0383655 4.40163243,25.515713 6.67122415,93.5346891 C7.70285675,125.377749 25.1718354,145.25387 77.0285675,157.49591 C140.714687,172.488971 168.087338,137.826115 171.938767,105.432852 Z"></path>
                    </g>
                    <g transform="translate(8.940816, 9.628571)" id="Path">
                        <path d="M13.6863258,127.509789 L163.341828,127.509789 C163.341828,127.509789 166.849379,90.9899953 151.237339,85.5567303 C140.921013,81.9804039 131.980197,90.9212198 118.500198,90.3022402 C104.951423,89.6832607 108.390198,44.5665283 86.9322404,44.5665283 C68.5004046,44.5665283 71.2514249,78.3353021 47.5238751,86.4508119 C22.2832642,95.0477502 28.0604067,114.442443 13.6863258,127.509789 Z" fill="#F58F7B" fill-rule="nonzero"></path>
                        <g transform="translate(30.948978, 39.202039)">
                            <path d="M48.9681607,88.238975 L19.3259174,88.238975 C15.5432645,88.238975 12.0357137,84.9377507 11.4167341,80.8799958 L0.41265304,7.84040776 C-0.20632652,3.78265287 2.33836723,0.481428547 6.12102009,0.481428547 L35.7632635,0.481428547 C39.5459163,0.481428547 43.0534672,3.78265287 43.6724467,7.84040776 L54.6765278,80.8799958 C55.2267318,84.9377507 52.6820381,88.238975 48.9681607,88.238975 Z" fill="#FFFFFF" fill-rule="nonzero"></path>
                            <path d="M53.8512217,88.3077505 L20.8389785,88.3077505 C18.0191827,88.3077505 15.336938,85.8318323 14.8555094,82.7369345 L3.36999983,6.05224459 C2.88857128,2.95734679 4.81428547,0.481428547 7.63408124,0.481428547 L40.6463244,0.481428547 C43.4661202,0.481428547 46.148365,2.95734679 46.6297935,6.05224459 L58.1840786,82.7369345 C58.5967317,85.7630568 56.6710175,88.3077505 53.8512217,88.3077505 Z" fill="#F37D6C" fill-rule="nonzero"></path>
                            <path d="M40.990202,2.88857128 L35.9008145,2.88857128 C35.1442839,2.88857128 34.5940798,3.43877533 34.5253043,4.26408141 L34.5253043,4.26408141 C34.4565288,5.43326503 33.6312228,6.1897956 32.5308146,6.1897956 L17.4689787,6.1897956 C16.3685706,6.1897956 15.336938,5.36448952 14.8555094,4.26408141 L14.8555094,4.26408141 C14.5804074,3.50755084 13.8238768,2.88857128 13.0673463,2.88857128 L7.97795877,2.88857128 C6.32734661,2.88857128 5.22693851,4.33285692 5.50204053,6.05224459 L17.0563257,82.7369345 C17.3314277,84.5250977 18.8444888,85.9006078 20.495101,85.9006078 L53.5073442,85.9006078 C55.1579563,85.9006078 56.2583644,84.4563222 55.9832624,82.7369345 L44.3602018,6.05224459 C44.1538753,4.33285692 42.5720386,2.88857128 40.990202,2.88857128 Z" fill="#FBD2CA" fill-rule="nonzero"></path>
                            <path d="M44.3602018,6.05224459 C44.0850998,4.26408141 42.5720386,2.88857128 40.9214265,2.88857128 L35.832039,2.88857128 C35.0755084,2.88857128 34.5253043,3.43877533 34.4565288,4.26408141 C34.3877533,5.43326503 33.5624472,6.1897956 32.4620391,6.1897956 L17.4689787,6.1897956 C16.3685706,6.1897956 15.336938,5.36448952 14.8555094,4.26408141 C14.5804074,3.50755084 13.8238768,2.88857128 13.0673463,2.88857128 L7.97795877,2.88857128 C6.32734661,2.88857128 5.22693851,4.33285692 5.50204053,6.05224459 L6.46489763,12.5171422 L45.3918344,12.5171422 L44.3602018,6.05224459 Z" fill="#5D98C1" fill-rule="nonzero"></path>
                            <g transform="translate(18.569387, 3.438775)" fill="#061C73" fill-rule="nonzero">
                                <path d="M1.85693868,1.8499999 C1.92571419,2.77499986 1.71938767,3.51499982 1.37551013,3.51499982 C1.0316326,3.51499982 0.756530573,2.77499986 0.687755067,1.8499999 C0.61897956,0.924999952 0.82530608,0.18499999 1.16918361,0.18499999 C1.51306115,0.18499999 1.78816317,0.924999952 1.85693868,1.8499999 Z"></path>
                                <path d="M11.1416321,3.14499984 L3.0948978,3.14499984 C2.81979577,3.14499984 2.61346925,2.58999987 2.54469375,1.8499999 L2.54469375,1.8499999 C2.47591824,1.10999994 2.68224476,0.554999971 2.88857128,0.554999971 L11.0040811,0.554999971 C11.2791831,0.554999971 11.4855096,1.10999994 11.5542851,1.8499999 L11.5542851,1.8499999 C11.5542851,2.58999987 11.3479586,3.14499984 11.1416321,3.14499984 Z"></path>
                            </g>
                            <path d="M4.67673445,26.5473456 L4.67673445,26.5473456 C4.33285692,26.5473456 3.98897939,26.203468 3.92020388,25.8595905 L1.65061216,10.8665301 C1.58183665,10.453877 1.85693868,10.178775 2.20081621,10.178775 L2.20081621,10.178775 C2.54469375,10.178775 2.88857128,10.5226525 2.95734679,10.8665301 L5.22693851,25.8595905 C5.22693851,26.203468 5.02061199,26.5473456 4.67673445,26.5473456 Z" stroke="#FFFFFF" stroke-width="1.54252992"></path>
                            <path d="M6.25857111,37.0699981 L6.25857111,37.0699981 C5.91469357,37.0699981 5.57081604,36.7261206 5.50204053,36.382243 L4.47040793,29.5734679 C4.40163243,29.1608148 4.67673445,28.8857128 5.02061199,28.8857128 L5.02061199,28.8857128 C5.36448952,28.8857128 5.70836705,29.2295903 5.77714256,29.5734679 L6.80877516,36.382243 C6.80877516,36.7948961 6.60244864,37.0699981 6.25857111,37.0699981 Z" stroke="#FFFFFF" stroke-width="1.09075994"></path>
                            <g transform="translate(7.565306, 8.253061)" stroke="#FFFFFF" stroke-width="1.8869999">
                                <path d="M0.481428547,0.813999958 L3.78265287,0.813999958"></path>
                                <path d="M0.61897956,1.70199991 L3.92020388,1.70199991"></path>
                                <path d="M0.756530573,2.66399986 L4.05775489,2.66399986"></path>
                            </g>
                        </g>
                        <path d="M77.0285675,30.6051005 C77.0285675,26.3410191 85.9693833,27.7165292 89.7520362,22.8334682 C93.4659135,17.9504072 95.2540767,15.5432645 99.5181581,16.7812236 C103.78224,18.0191827 105.432852,21.4579581 109.353056,20.9765295 C116.230606,20.1512235 117.881218,25.515713 121.595096,26.6161211 C125.377749,27.7165292 129.366728,26.8912231 129.366728,30.3987739 C129.366728,34.9379574 116.436933,34.1126513 103.232035,34.1126513 C90.0271382,34.1814268 77.097343,34.8691819 77.0285675,30.6051005 Z" fill="#FFFFFF" fill-rule="nonzero"></path>
                        <path d="M85.2128528,15.474489 C85.2128528,10.8665301 76.8910164,12.3795912 73.4522411,7.08387719 C70.0134658,1.78816317 68.3628536,-0.756530573 64.3738742,0.61897956 C60.3848948,1.99448969 58.8718337,5.63959155 55.2267318,5.158163 C48.8306097,4.26408141 47.3175486,10.041224 43.8787732,11.2104076 C40.3712224,12.3795912 36.657345,11.4855096 36.657345,15.2681625 C36.657345,20.219999 48.6930587,19.2571419 60.9350989,19.2571419 C73.1771391,19.3259174 85.1440772,20.0824479 85.2128528,15.474489 Z" fill="#FFFFFF" fill-rule="nonzero"></path>
                        <path d="M0.343877533,127.165912 L172.764073,127.165912" stroke="#061C73" stroke-width="1.8499999" fill="#FFFFFF" fill-rule="nonzero"></path>
                    </g>
                    <polygon id="Path" fill="url(#linearGradient-1)" fill-rule="nonzero" opacity="0.1" points="64.6489763 126.478157 72.9020371 135.075095 96.9046889 135.075095 95.1165257 126.478157"></polygon>
                    <g transform="translate(59.834691, 66.712241)" fill-rule="nonzero">
                        <path d="M43.3973447,59.7659153 L5.29571401,59.7659153 C3.64510185,59.7659153 2.40714273,58.4591807 2.40714273,56.877344 L2.40714273,5.77714256 C2.40714273,4.1265304 3.71387736,2.88857128 5.29571401,2.88857128 L43.4661202,2.88857128 C45.1167324,2.88857128 46.3546915,4.19530591 46.3546915,5.77714256 L46.3546915,56.877344 C46.3546915,58.4591807 45.0479569,59.7659153 43.3973447,59.7659153 Z" id="Path" fill="#5D98C1"></path>
                        <path d="M41.402855,57.4963236 L3.23244881,57.4963236 C1.58183665,57.4963236 0.343877533,56.1895889 0.343877533,54.6077523 L0.343877533,3.50755084 C0.343877533,1.85693868 1.65061216,0.61897956 3.23244881,0.61897956 L41.402855,0.61897956 C43.0534672,0.61897956 44.2914263,1.92571419 44.2914263,3.50755084 L44.2914263,54.6077523 C44.2914263,56.1208134 42.9846917,57.4963236 41.402855,57.4963236 Z" id="Path" fill="#FFFFFF"></path>
                        <path d="M34.2502023,48.2116302 L10.3851015,48.2116302 C9.07836688,48.2116302 8.11550979,47.1112221 8.11550979,45.9420384 L8.11550979,45.9420384 C8.11550979,44.6353038 9.21591789,43.6724467 10.3851015,43.6724467 L34.2502023,43.6724467 C35.5569369,43.6724467 36.519794,44.7728548 36.519794,45.9420384 L36.519794,45.9420384 C36.657345,47.2487731 35.5569369,48.2116302 34.2502023,48.2116302 Z" id="Path" fill="#F58F7B"></path>
                        <rect id="Rectangle" fill="#F58F7B" x="6.46489763" y="50.8938749" width="31.7742841" height="1"></rect>
                        <rect id="Rectangle" fill="#F58F7B" x="6.46489763" y="54.4702013" width="31.7742841" height="1"></rect>
                        <g transform="translate(4.814285, 4.126530)" id="Path">
                            <path d="M31.361631,5.98346908 L33.2185697,4.1265304 L27.0287741,4.1265304 L27.0287741,10.316326 L29.1608148,8.18428529 C31.6367331,10.8665301 33.2185697,14.4428564 33.2185697,18.3630603 C33.2185697,26.5473456 26.5473456,33.2185697 18.3630603,33.2185697 C10.178775,33.2185697 3.50755084,26.5473456 3.50755084,18.3630603 C3.50755084,10.178775 10.178775,3.50755084 18.3630603,3.50755084 L18.3630603,0.41265304 C8.45938732,0.41265304 0.41265304,8.45938732 0.41265304,18.3630603 C0.41265304,28.2667332 8.45938732,36.3134675 18.3630603,36.3134675 C28.2667332,36.3134675 36.3134675,28.2667332 36.3134675,18.3630603 C36.3134675,13.5487748 34.3877533,9.21591789 31.361631,5.98346908 Z" fill="#F58F7B"></path>
                            <g transform="translate(9.628571, 8.940816)">
                                <path d="M16.4373461,10.7977545 L16.4373461,2.54469375 C16.4373461,1.92571419 15.749591,1.51306115 15.199387,1.85693868 C14.5116319,2.33836723 13.6863258,2.54469375 12.7922442,2.54469375 C11.4167341,2.54469375 10.178775,1.92571419 9.35346891,0.962857093 C9.00959137,0.550204053 8.39061181,0.550204053 8.11550979,0.962857093 C7.29020371,1.92571419 6.05224459,2.54469375 4.67673445,2.54469375 C4.40163243,2.54469375 4.1265304,2.54469375 3.85142837,2.47591824 L3.85142837,10.8665301 C3.85142837,13.1361218 4.53918344,15.336938 5.91469357,17.1251012 C6.94632617,18.4318358 8.04673428,19.6010194 9.07836688,20.495101 C10.041224,20.0136724 12.7234687,18.5006113 14.8555094,15.6808155 C15.887142,14.2365299 16.4373461,12.5171422 16.4373461,10.7977545 Z" fill="#DFEAF3"></path>
                                <path d="M16.8499991,2.54469375 C16.8499991,1.58183665 15.8183665,0.962857093 14.9930605,1.51306115 C14.3053054,1.92571419 13.5487748,2.13204071 12.7922442,2.13204071 C11.6230606,2.13204071 10.453877,1.58183665 9.69734644,0.687755067 C9.69734644,0.687755067 9.69734644,0.687755067 9.69734644,0.687755067 C9.49101992,0.41265304 9.14714239,0.275102027 8.73448935,0.275102027 C8.39061181,0.275102027 8.04673428,0.41265304 7.77163225,0.687755067 C7.01510168,1.58183665 5.84591807,2.13204071 4.67673445,2.13204071 C3.92020388,2.13204071 3.0948978,1.92571419 2.47591824,1.51306115 C1.65061216,0.962857093 0.61897956,1.58183665 0.61897956,2.54469375 L0.61897956,10.7977545 C0.61897956,12.6546932 1.23795912,14.4428564 2.26959172,15.887142 C4.95183648,19.3946929 8.39061181,20.907754 8.52816283,20.9765295 C8.59693833,20.9765295 8.66571384,20.9765295 8.66571384,20.9765295 C8.66571384,20.9765295 8.80326485,20.9765295 8.80326485,20.9765295 C8.94081587,20.907754 12.4483667,19.3946929 15.061836,15.887142 C16.1622441,14.4428564 16.7124481,12.6546932 16.7124481,10.7977545 L16.7124481,2.54469375 L16.8499991,2.54469375 Z" fill="#5D98C1"></path>
                                <path d="M6.80877516,15.887142 C5.77714256,14.5116319 5.158163,12.7234687 5.158163,10.8665301 L5.158163,4.1265304 C5.02061199,4.1265304 4.81428547,4.1265304 4.67673445,4.1265304 C3.98897939,4.1265304 3.30122432,3.98897939 2.68224476,3.78265287 L2.68224476,10.728979 C2.68224476,12.1044892 3.0948978,13.4799993 3.92020388,14.5804074 C5.57081604,16.7812236 7.70285675,18.1567338 8.73448935,18.7069378 C8.87204036,18.6381623 9.07836688,18.5006113 9.21591789,18.4318358 C8.39061181,17.7440807 7.56530573,16.9187746 6.80877516,15.887142 Z" fill="#FFFFFF"></path>
                                <path d="M13.5487748,14.6491829 C14.3740809,13.5487748 14.7867339,12.2420402 14.7867339,10.7977545 L14.7867339,3.85142837 C14.1677544,4.05775489 13.4799993,4.19530591 12.7922442,4.19530591 C11.2791831,4.19530591 9.83489745,3.64510185 8.73448935,2.61346925 C7.77163225,3.50755084 6.53367313,4.05775489 5.158163,4.1265304 L5.158163,10.7977545 C5.158163,12.6546932 5.70836705,14.4428564 6.80877516,15.8183665 C7.56530573,16.8499991 8.39061181,17.7440807 9.21591789,18.4318358 C10.316326,17.8128562 12.1044892,16.5748971 13.5487748,14.6491829 Z" fill="#DFEAF3"></path>
                                <polygon fill="#FFFFFF" points="8.94081587 10.178775 8.94081587 7.70285675 9.90367296 7.70285675 9.90367296 6.60244864 7.49653023 6.60244864 7.49653023 9.00959137 5.08938749 9.00959137 5.08938749 11.4167341 6.46489763 11.4167341 6.46489763 10.178775"></polygon>
                                <path d="M9.90367296,6.1897956 L7.49653023,6.1897956 C7.29020371,6.1897956 7.08387719,6.39612212 7.08387719,6.60244864 L7.08387719,8.59693833 L5.08938749,8.59693833 C4.88306097,8.59693833 4.67673445,8.80326485 4.67673445,9.00959137 L4.67673445,11.4167341 C4.67673445,11.6230606 4.88306097,11.8293871 5.08938749,11.8293871 L7.08387719,11.8293871 L7.08387719,13.8238768 C7.08387719,14.0302034 7.29020371,14.2365299 7.49653023,14.2365299 L9.90367296,14.2365299 C10.1099995,14.2365299 10.316326,14.0302034 10.316326,13.8238768 L10.316326,11.8293871 L12.3108157,11.8293871 C12.5171422,11.8293871 12.7234687,11.6230606 12.7234687,11.4167341 L12.7234687,9.00959137 C12.7234687,8.80326485 12.5171422,8.59693833 12.3108157,8.59693833 L10.316326,8.59693833 L10.316326,6.60244864 C10.316326,6.32734661 10.178775,6.1897956 9.90367296,6.1897956 Z" fill="#F58F7B"></path>
                            </g>
                        </g>
                    </g>
                    <g transform="translate(86.657138, 76.340812)" fill-rule="nonzero" id="Path">
                        <path d="M27.3038761,61.1414254 C32.2557126,61.2102009 37.2763246,61.1414254 42.1593856,61.485303 C43.8787732,61.622854 45.6669364,61.622854 47.3863241,61.897956 C48.0740792,62.035507 50.6187729,62.2418335 50.8250994,62.7232621 C50.9626504,63.1359151 49.9310178,63.2046906 49.4495893,63.2734661 C43.1222427,64.0987722 36.7261206,63.7548947 30.2612229,63.6861192 C25.2406109,63.6173437 20.219999,63.5485682 15.199387,63.5485682 C12.1044892,63.5485682 8.94081587,63.6173437 5.84591807,63.4110171 C4.88306097,63.3422416 3.98897939,63.3422416 3.0948978,63.2046906 C2.47591824,63.1359151 1.23795912,63.1359151 0.756530573,62.8608131 C-0.756530573,62.173058 3.02612229,61.5540785 3.64510185,61.485303 C5.43326503,61.2789764 7.29020371,61.2102009 9.07836688,61.1414254 C11.9669382,61.0038744 14.9242849,61.0726499 17.8128562,61.0726499 C20.9765295,61.0726499 24.1402028,61.0726499 27.3038761,61.1414254 Z" fill="#43437A" opacity="0.1"></path>
                        <g transform="translate(2.751020, 0.000000)">
                            <path d="M33.4936717,32.6683657 C32.9434677,30.7426515 31.4304065,30.1236719 31.4304065,30.1236719 C31.4304065,30.1236719 26.6848966,27.5789782 22.2832642,34.8691819 C19.8761214,38.8581613 17.6753052,42.0218346 16.8499991,44.1538753 C15.749591,44.1538753 14.5116319,44.2226508 13.1361218,44.4289773 C11.4855096,44.7040793 9.35346891,45.1167324 7.35897921,45.6669364 C4.47040793,46.423467 1.99448969,47.3175486 2.13204071,48.0740792 C2.26959172,48.9681607 5.57081604,49.0369362 8.45938732,48.8306097 C9.90367296,48.7618342 11.2104076,48.6242832 12.0357137,48.5555077 C14.3740809,48.3491812 19.4634684,48.4867322 20.7014275,47.1112221 C21.3891826,46.6297935 22.2144887,45.8732629 23.3148968,44.7728548 C27.1663251,40.7150999 34.1126513,34.5940798 33.4936717,32.6683657 Z" fill="#F2B59E"></path>
                            <path d="M25.928366,28.0604067 C25.928366,28.0604067 21.4579581,35.7632635 21.4579581,35.9008145 C21.4579581,36.0383655 23.3148968,39.0644878 27.0975496,40.990202 C27.3038761,41.0589775 34.1814268,33.4248962 34.1814268,33.4248962 L31.1553045,28.4730598 L25.928366,28.0604067 Z" fill="#F27066"></path>
                            <path d="M44.2226508,14.3740809 C43.6036712,13.8238768 43.3285692,13.9614279 43.1910182,13.6863258 C43.0534672,13.3424483 42.9846917,13.0673463 42.7783651,13.0673463 C42.5720386,13.0673463 41.3340795,14.5804074 41.3340795,15.1306115 C41.402855,15.749591 41.677957,16.1622441 41.402855,16.5061216 C41.1965285,16.7124481 38.5830592,18.8444888 36.7948961,20.35755 C35.5569369,16.7124481 32.7371412,11.5542851 31.499182,12.0357137 C29.7110189,12.6546932 30.673876,15.9559175 30.673876,15.9559175 C30.673876,15.9559175 32.0493861,18.9820398 33.4248962,21.2516316 C34.0438758,22.3520397 35.4193859,24.6904069 37.0012226,24.2089783 C37.5514266,24.0714273 37.8953042,23.4524478 38.2391817,23.0397947 C38.6518347,22.5583662 39.0644878,22.0769376 39.4771408,21.5955091 C40.2336714,20.632652 41.0589775,19.7385704 41.7467325,18.7069378 C42.7783651,17.2626522 43.1222427,16.7812236 43.8099977,16.2997951 C44.4977528,15.8183665 44.8416303,14.9242849 44.2226508,14.3740809 Z" fill="#F2B59E"></path>
                            <path d="M41.540406,42.3657121 C40.5775489,40.3712224 38.7206102,38.8581613 37.1387736,37.3451001 C35.96959,36.1759165 34.8004064,34.9379574 33.6312228,33.7687738 C31.9118351,32.0493861 29.8485699,29.5734679 27.5102027,28.6793863 C27.2351006,28.5418353 26.8912231,28.4730598 26.6161211,28.5418353 C24.6904069,29.0920393 24.0714273,30.6051005 24.0714273,30.6051005 C24.0714273,30.6051005 21.5267336,35.3506104 28.8169373,39.7522428 C32.8746922,42.2281611 36.107141,44.4289773 38.2391817,45.1855079 C38.0328552,46.3546915 37.8265287,47.7302016 37.8265287,49.3120383 C37.8265287,50.9626504 37.8953042,53.2322422 38.0328552,55.2955074 C38.2391817,58.2528541 38.7206102,60.7975479 39.5459163,60.7975479 C40.4399979,60.7975479 40.990202,57.9777521 41.3340795,55.2955074 C41.540406,53.6448952 41.677957,52.0630585 41.7467325,51.1002014 C41.9530591,48.8306097 42.5032631,46.4922425 42.2281611,44.2226508 C42.0218346,43.6036712 41.815508,42.9846917 41.540406,42.3657121 Z" fill="#F2B59E"></path>
                            <path d="M24.9655089,28.2667332 C24.9655089,28.2667332 21.7330601,30.4675494 22.4895907,34.0438758 C23.2461213,37.6202021 28.1291822,40.4399979 28.8857128,40.852651 C29.5046924,41.1965285 30.8802025,39.4083653 31.0177535,38.9269368 C31.22408,38.2391817 30.948978,37.4826511 30.673876,36.8636716 C30.948978,37.5514266 32.6683657,37.5514266 33.0810187,37.1387736 C33.7687738,36.519794 34.3189778,35.694488 34.9379574,34.9379574 L31.499182,28.6106108 L24.9655089,28.2667332 Z" fill="#FF8578"></path>
                            <path d="M36.0383655,2.68224476 C36.0383655,2.81979577 36.5885695,4.81428547 36.519794,6.12102009 C36.4510185,7.49653023 36.0383655,8.39061181 35.2130594,8.66571384 C34.3877533,8.94081587 34.0438758,8.80326485 33.6999983,9.97244847 C33.3561207,11.0728566 33.2873452,11.4855096 33.2873452,11.4855096 L30.1924474,10.453877 L30.7426515,9.97244847 C31.2928555,9.00959137 31.7742841,7.29020371 31.8430596,7.15265269 C29.7797944,5.70836705 31.1553045,4.60795895 31.6367331,4.47040793 C31.9806106,4.40163243 31.9806106,4.95183648 32.0493861,5.158163 C32.3244881,5.77714256 32.8746922,5.29571401 33.1497942,4.95183648 C33.4248962,4.67673445 33.6312228,4.40163243 33.9063248,4.1265304 C34.1126513,3.85142837 34.2502023,3.43877533 34.5253043,3.23244881 C34.8004064,3.02612229 35.1442839,2.95734679 35.4881614,2.95734679 C35.7632635,2.88857128 35.96959,2.81979577 36.0383655,2.68224476 Z" fill="#F2B59E"></path>
                            <path d="M36.0383655,2.68224476 C35.9008145,2.75102027 35.7632635,2.81979577 35.5569369,2.88857128 C35.1442839,2.95734679 34.5940798,3.02612229 34.4565288,3.50755084 C34.3877533,3.71387736 34.5253043,3.92020388 34.4565288,4.19530591 C34.3877533,4.40163243 34.2502023,4.47040793 34.1126513,4.60795895 C33.8375493,4.81428547 33.7687738,5.02061199 33.6312228,5.29571401 C33.4936717,5.63959155 33.4936717,6.12102009 33.2185697,6.39612212 C33.0810187,6.53367313 32.8746922,6.53367313 32.6683657,6.60244864 C32.3244881,6.73999965 32.1181616,6.94632617 32.0493861,7.2214282 C31.9806106,7.35897921 31.9806106,7.49653023 31.9118351,7.63408124 C31.8430596,7.84040776 31.7742841,8.11550979 31.5679576,8.32183631 C31.22408,8.66571384 30.811427,8.45938732 30.3987739,8.32183631 C29.9861209,8.18428529 29.7110189,7.90918327 29.2983658,7.90918327 C28.8857128,7.90918327 28.4730598,7.97795877 28.1291822,8.11550979 C27.4414272,8.39061181 26.8224476,8.80326485 26.065917,8.80326485 C25.1718354,8.87204036 24.4153049,8.59693833 23.5899988,8.39061181 C22.6959172,8.18428529 21.7330601,8.2530608 20.907754,8.52816283 C19.1195909,9.14714239 16.9875501,8.87204036 15.199387,8.18428529 C14.9242849,8.04673428 14.6491829,7.97795877 14.3740809,7.70285675 C13.9614279,7.29020371 13.8926523,6.39612212 14.0302034,5.84591807 C14.2365299,5.158163 14.7179584,4.60795895 15.2681625,4.19530591 C15.8183665,3.71387736 16.3685706,3.50755084 17.1251012,3.43877533 C17.9504072,3.36999983 18.7069378,3.36999983 19.3259174,2.81979577 C19.8761214,2.26959172 20.35755,1.78816317 21.2516316,1.71938767 C22.0769376,1.65061216 22.6959172,2.26959172 23.4524478,2.40714273 C24.8967334,2.54469375 25.4469375,0.756530573 26.6848966,0.343877533 C28.2667332,-0.137551013 29.5734679,1.51306115 31.086529,1.44428564 C32.1181616,1.37551013 34.8691819,0.20632652 35.694488,0.962857093 C36.382243,1.58183665 36.519794,2.33836723 36.0383655,2.68224476 Z" fill="#000000"></path>
                            <path d="M33.8375493,4.81428547 C33.7687738,4.95183648 33.6999983,5.43326503 33.4936717,5.43326503 C33.2873452,5.43326503 33.2185697,5.22693851 33.1497942,5.08938749 C33.0122432,4.88306097 32.8059167,4.67673445 32.5995902,4.74550996 C32.1869371,4.81428547 32.1181616,5.29571401 32.0493861,5.57081604 C31.9806106,5.91469357 32.2557126,6.53367313 32.5308146,6.67122415 C32.8746922,6.80877516 33.2873452,6.67122415 33.4936717,6.39612212 C33.7687738,6.05224459 33.7687738,5.70836705 33.8375493,5.29571401" fill="#F2B59E"></path>
                            <path d="M34.0438758,22.0081621 C33.8375493,23.6587743 32.6683657,30.7426515 32.6683657,30.7426515 C32.0493861,30.4675494 25.1718354,28.2667332 25.1718354,28.2667332 C25.1718354,28.2667332 27.8540802,22.5583662 28.0604067,20.4263255 C28.1979577,18.8444888 27.6477537,17.5377542 27.2351006,15.61204 C27.1663251,15.1306115 27.0975496,14.5804074 27.0287741,14.0302034 C27.0287741,13.8238768 27.0287741,13.6863258 27.0287741,13.4799993 C26.8912231,10.2475505 30.3299984,9.42224441 30.3299984,9.42224441 C31.7742841,9.55979543 32.1869371,9.83489745 33.8375493,11.5542851 C35.4881614,13.2736728 36.3134675,14.5116319 36.382243,16.2310196 C36.3134675,17.8816317 34.4565288,17.9504072 34.0438758,22.0081621 Z" fill="#F2B59E"></path>
                            <path d="M30.0548964,13.4112238 L27.2351006,15.6808155 C27.1663251,15.199387 27.0975496,14.6491829 27.0287741,14.0989789 L30.0548964,13.4112238 Z" fill="#E0A08C"></path>
                            <path d="M28.6106108,10.178775 C28.6106108,10.178775 31.8430596,9.21591789 32.5308146,11.0040811 C32.7371412,11.4855096 31.9806106,12.3108157 30.7426515,13.1361218 C27.7853047,15.1306115 22.2144887,17.4002032 20.9765295,16.9187746 C19.1883664,16.2997951 21.045305,14.3740809 23.3148968,12.9985708 C25.5844885,11.6230606 28.6106108,10.178775 28.6106108,10.178775 Z" fill="#F2B59E"></path>
                            <path d="M36.107141,14.8555094 C35.832039,14.3053054 35.6257124,13.8238768 35.6257124,13.8238768 C35.6257124,13.8238768 33.5624472,14.0989789 33.0122432,13.3424483 L33.0122432,13.3424483 C32.8746922,13.0673463 32.6683657,12.7922442 32.5308146,12.5171422 C32.3244881,12.1044892 32.0493861,11.6918361 31.8430596,11.2104076 C31.6367331,10.7977545 31.4304065,10.316326 31.1553045,9.97244847 C31.086529,9.90367296 30.8802025,9.49101992 30.811427,9.49101992 C30.811427,9.49101992 30.3299984,9.42224441 30.3299984,9.42224441 C30.3299984,9.42224441 31.7742841,10.8665301 31.7742841,13.0673463 C31.7742841,15.199387 27.5102027,17.1251012 27.5102027,17.1251012 C27.5102027,17.1251012 28.2667332,18.6381623 27.8540802,20.9765295 C27.8540802,21.1828561 27.7853047,21.3204071 27.7165292,21.5267336 C26.2722435,26.203468 22.9022437,30.7426515 22.9022437,30.7426515 C22.9022437,30.7426515 25.378162,29.9173454 27.3726517,29.8485699 C29.2983658,29.7797944 32.7371412,30.7426515 32.7371412,30.7426515 C32.7371412,30.7426515 32.9434677,29.5734679 33.1497942,27.9916312 C33.1497942,27.8540802 33.2185697,27.7165292 33.2185697,27.5102027 C33.5624472,25.1718354 34.0438758,22.2832642 34.2502023,21.5955091 C34.2502023,21.5955091 34.2502023,21.5955091 34.2502023,21.5955091 C34.4565288,20.7014275 34.5940798,20.0136724 34.6628554,19.7385704 C35.0755084,18.6381623 36.382243,17.4002032 36.5885695,16.6436726 C36.657345,16.2310196 36.382243,15.474489 36.107141,14.8555094 Z" fill="#56548C"></path>
                            <path d="M20.35755,16.4373461 C20.35755,16.4373461 23.2461213,20.7014275 24.3465294,22.0769376 C25.4469375,23.4524478 25.790815,23.9338763 26.065917,24.6904069 C26.3410191,25.4469375 27.0975496,25.9971415 27.7853047,25.5844885 C28.4730598,25.1030599 28.4042843,24.8279579 28.7481618,24.7591824 C29.0920393,24.7591824 29.3671413,24.7591824 29.4359168,24.5528559 C29.5046924,24.3465294 28.4042843,22.7646927 27.8540802,22.6271417 C27.3038761,22.4895907 26.7536721,22.6959172 26.4785701,22.2832642 C26.203468,21.9393866 23.3836723,14.9930605 22.9022437,14.7867339 C22.4208152,14.5116319 20.2887745,13.8926523 20.35755,16.4373461 Z" fill="#F2B59E"></path>
                            <path d="M41.1965285,55.3642829 C40.852651,58.1153031 40.3024469,60.8663234 39.4083653,60.8663234 C38.5830592,60.8663234 38.1704062,58.2528541 37.8953042,55.3642829 L41.1965285,55.3642829 Z" fill="#E8EDEF"></path>
                            <path d="M8.39061181,48.8306097 C5.50204053,48.9681607 2.26959172,48.9681607 2.0632652,48.0740792 C1.92571419,47.2487731 4.40163243,46.3546915 7.29020371,45.6669364 L8.39061181,48.8306097 Z" fill="#E8EDEF"></path>
                            <path d="M4.26408141,48.8993852 C4.26408141,48.8993852 3.78265287,54.4702013 3.16367331,54.6765278 C3.0948978,54.6765278 3.02612229,54.6765278 2.95734679,54.6765278 C1.99448969,54.3326503 0.343877533,49.8622423 0.481428547,48.4867322 C0.550204053,48.0053036 0.82530608,47.6614261 1.23795912,47.4550996 C2.13204071,46.973671 3.43877533,46.9048955 3.43877533,46.9048955 L4.26408141,48.8993852 Z" fill="#56548C"></path>
                            <path d="M2.95734679,54.6765278 C1.99448969,54.3326503 0.343877533,49.8622423 0.481428547,48.4867322 C0.550204053,48.0053036 0.82530608,47.6614261 1.23795912,47.4550996 C1.30673463,48.6242832 1.58183665,51.1002014 2.95734679,54.6765278 Z" fill="#FF8578"></path>
                            <g transform="translate(37.826529, 58.459181)">
                                <path d="M7.84040776,3.71387736 C7.84040776,4.74550996 2.47591824,4.67673445 1.10040811,4.05775489 C0.82530608,3.92020388 0.61897956,3.71387736 0.481428547,3.36999983 C0.481428547,3.36999983 0.481428547,3.36999983 0.481428547,3.36999983 C0.0687755067,2.33836723 0.61897956,0.687755067 0.61897956,0.687755067 L2.81979577,0.61897956 C2.81979577,0.687755067 7.77163225,2.95734679 7.84040776,3.71387736 C7.84040776,3.71387736 7.84040776,3.71387736 7.84040776,3.71387736 Z" fill="#56548C"></path>
                                <path d="M7.84040776,3.71387736 C7.84040776,4.74550996 2.47591824,4.67673445 1.10040811,4.05775489 C0.82530608,3.92020388 0.61897956,3.71387736 0.481428547,3.36999983 C1.92571419,3.64510185 5.36448952,4.19530591 7.84040776,3.71387736 C7.84040776,3.71387736 7.84040776,3.71387736 7.84040776,3.71387736 Z" fill="#FF8578"></path>
                            </g>
                        </g>
                    </g>
                    <g transform="translate(113.479586, 69.463262)" fill-rule="nonzero">
                        <path d="M27.0975496,71.2514249 C32.0493861,71.3202004 37.0699981,71.2514249 41.9530591,71.5953024 C43.6724467,71.7328534 45.4606099,71.7328534 47.1799976,72.0079555 C47.8677526,72.1455065 50.4124464,72.351833 50.6187729,72.8332616 C50.7563239,73.2459146 49.7246913,73.3146901 49.2432628,73.3834656 C42.9159162,74.2087717 36.519794,73.8648942 30.0548964,73.7961186 C25.0342844,73.7273431 20.0136724,73.6585676 14.9930605,73.6585676 C11.8981627,73.6585676 8.73448935,73.7273431 5.63959155,73.5210166 C4.67673445,73.4522411 3.78265287,73.4522411 2.88857128,73.3146901 C2.26959172,73.2459146 1.0316326,73.2459146 0.550204053,72.9708126 C-0.962857093,72.2830575 2.81979577,71.6640779 3.43877533,71.5953024 C5.22693851,71.3889759 7.08387719,71.3202004 8.87204036,71.2514249 C11.7606116,71.1138739 14.7179584,71.1826494 17.6065297,71.1826494 C20.7014275,71.1826494 23.8651008,71.1826494 27.0975496,71.2514249 Z" id="Path" fill="#43437A" opacity="0.1"></path>
                        <g transform="translate(4.814285, 0.000000)">
                            <g transform="translate(2.063265, 0.000000)">
                                <path d="M24.0714273,34.0438758 C24.0714273,34.0438758 20.219999,38.6518347 27.4414272,44.7728548 C33.5624472,49.9310178 37.5514266,54.1950992 39.4083653,52.7508136 C41.265304,51.3753035 42.2969366,50.5499974 38.5142837,45.4606099 C34.7316309,40.4399979 29.2983658,31.7742841 27.0975496,32.0493861 C24.8279579,32.3244881 24.0714273,34.0438758 24.0714273,34.0438758 Z" id="Path" fill="#FFC8AF"></path>
                                <path d="M38.5142837,59.7659153 C38.2391817,60.5224459 37.8953042,61.760405 37.4138756,62.9983641 C36.657345,65.0616293 35.694488,67.3999965 34.8691819,68.7067312 C34.4565288,69.3257107 34.0438758,69.7383638 33.6312228,69.6008127 C33.2873452,69.5320372 33.1497942,69.1193842 33.0810187,68.4316291 C32.9434677,66.9873435 33.2185697,64.4426497 33.6999983,61.897956 C34.0438758,60.0410173 34.4565288,58.1840786 34.8004064,56.739793 C35.832039,52.4069361 38.0328552,49.4495893 38.0328552,49.4495893 C38.0328552,49.4495893 38.5830592,48.6242832 40.4399979,49.7934668 C42.2281611,51.0314259 39.4083653,57.0836705 38.5142837,59.7659153 Z" id="Path" fill="#FFC8AF"></path>
                                <path d="M29.9173454,32.0493861 C29.9173454,32.0493861 24.3465294,29.7797944 20.7014275,38.4455082 C17.6065297,45.8044874 14.7867339,50.8938749 16.6436726,52.2693851 C18.5693868,53.6448952 19.6697949,54.3326503 23.3148968,49.2432628 C26.9599986,44.1538753 33.5624472,36.3134675 32.6683657,34.3189778 C31.7742841,32.2557126 29.9173454,32.0493861 29.9173454,32.0493861 Z" id="Path" fill="#FFC8AF"></path>
                                <path d="M20.219999,52.131834 C20.35755,54.3326503 13.7551013,55.4330584 11.0040811,56.32714 C10.1099995,56.602242 8.73448935,57.014895 7.29020371,57.4275481 C4.1265304,58.2528541 0.481428547,59.0093847 0.137551013,58.0465276 C-0.20632652,57.152446 2.61346925,55.5018339 5.84591807,53.9199972 C7.77163225,53.0259156 9.76612195,52.131834 11.2791831,51.58163 C15.4057135,49.9310178 19.0508153,49.9997933 19.0508153,49.9997933 C19.1195909,49.9997933 20.0824479,49.9997933 20.219999,52.131834 Z" id="Path" fill="#FFC8AF"></path>
                                <g id="XMLID_35_" transform="translate(27.510203, 0.000000)">
                                    <g id="Group">
                                        <path d="M7.97795877,3.43877533 C8.32183631,3.64510185 8.45938732,4.1265304 8.59693833,4.53918344 C9.2846934,6.80877516 8.87204036,10.591428 8.11550979,10.728979 C7.77163225,10.7977545 6.12102009,10.591428 5.70836705,11.2791831 C5.29571401,11.9669382 4.67673445,14.3053054 3.64510185,15.199387 L0.687755067,11.4855096 C0.82530608,11.1416321 0.962857093,10.7977545 1.16918361,10.5226525 C1.37551013,10.1099995 1.78816317,8.94081587 1.78816317,8.73448935 C1.78816317,8.66571384 1.85693868,8.59693833 1.85693868,8.52816283 C1.85693868,8.39061181 1.71938767,8.18428529 1.71938767,8.11550979 C1.78816317,7.97795877 2.0632652,8.04673428 2.13204071,7.97795877 C2.26959172,7.90918327 2.40714273,7.77163225 2.54469375,7.63408124 C2.81979577,7.42775472 3.0948978,7.2214282 3.36999983,6.94632617 C3.64510185,6.67122415 3.85142837,6.32734661 4.05775489,6.05224459 C4.88306097,4.88306097 6.05224459,3.71387736 7.49653023,3.36999983 C7.70285675,3.30122432 7.84040776,3.36999983 7.97795877,3.43877533 Z" id="Path" fill="#FFC8AF"></path>
                                        <path d="M8.18428529,3.57632635 C8.18428529,3.57632635 8.11550979,3.64510185 8.04673428,3.64510185 C7.77163225,3.78265287 7.15265269,3.71387736 6.87755067,3.98897939 C6.32734661,4.47040793 7.01510168,5.29571401 6.25857111,5.57081604 C5.57081604,5.84591807 6.32734661,7.56530573 5.70836705,7.77163225 C5.08938749,7.97795877 5.29571401,5.84591807 4.67673445,5.91469357 C4.1265304,5.98346908 3.30122432,6.60244864 3.64510185,7.90918327 C3.92020388,9.00959137 2.26959172,8.94081587 1.65061216,8.94081587 C1.65061216,8.94081587 1.58183665,8.94081587 1.58183665,8.94081587 C1.58183665,8.94081587 1.51306115,8.87204036 1.51306115,8.87204036 C1.44428564,8.66571384 1.44428564,8.45938732 1.37551013,8.32183631 C1.30673463,8.11550979 1.23795912,7.97795877 1.16918361,7.77163225 C0.962857093,7.35897921 0.756530573,7.01510168 0.550204053,6.60244864 C0.137551013,5.77714256 -2.77555756e-17,4.81428547 0.343877533,3.92020388 C0.481428547,3.43877533 0.756530573,3.02612229 1.23795912,2.81979577 C1.44428564,2.75102027 1.58183665,2.75102027 1.65061216,2.61346925 C1.71938767,2.47591824 1.78816317,2.26959172 1.85693868,2.13204071 C2.47591824,1.0316326 4.1265304,1.0316326 5.22693851,0.962857093 C6.32734661,0.894081587 7.63408124,1.0316326 8.59693833,0.550204053 C8.66571384,0.894081587 8.80326485,1.23795912 8.80326485,1.65061216 C8.87204036,2.33836723 8.73448935,3.16367331 8.18428529,3.57632635 Z" id="Path" fill="#000000"></path>
                                    </g>
                                </g>
                                <path d="M38.9957123,45.5981609 C38.9957123,45.5981609 38.2391817,47.0424466 36.519794,48.6242832 C35.9008145,49.2432628 35.2818349,49.7246913 34.8004064,50.0685688 C34.2502023,50.5499974 33.8375493,50.8250994 33.8375493,50.8250994 C33.8375493,50.8250994 28.1291822,47.0424466 24.8279579,43.6724467 C24.5528559,43.3973447 24.3465294,43.1910182 24.1402028,42.9159162 C21.045305,39.4083653 21.8706111,35.5569369 21.8706111,35.5569369 L25.1030599,32.9434677 C25.1030599,32.9434677 31.1553045,31.0177535 31.6367331,34.2502023 C32.2557126,37.5514266 38.9957123,45.5981609 38.9957123,45.5981609 Z" id="Path" fill="#56548C"></path>
                                <path d="M34.8004064,50.1373444 C34.2502023,50.6187729 33.8375493,50.8938749 33.8375493,50.8938749 C33.8375493,50.8938749 28.1291822,47.1112221 24.8279579,43.7412222 L29.5046924,38.6518347 C29.5046924,38.6518347 29.5046924,42.9159162 30.673876,44.9791814 C31.499182,46.4922425 33.6999983,48.8993852 34.8004064,50.1373444 Z" id="Path" fill="#43437A"></path>
                                <path d="M23.6587743,50.1373444 C23.6587743,50.1373444 18.2942848,47.5238751 16.9875501,45.6669364 C16.8499991,45.5293854 23.5899988,32.1869371 23.7275498,32.1181616 C23.8651008,32.0493861 28.6106108,31.1553045 28.6793863,31.086529 C28.8169373,31.086529 29.7797944,32.5308146 29.9173454,32.6683657 C30.673876,33.6312228 31.361631,34.5940798 32.1181616,35.6257124 C32.4620391,36.0383655 32.7371412,36.519794 33.0810187,36.9324471 C32.5995902,37.4826511 32.3932636,38.1704062 32.1181616,38.8581613 C31.9118351,39.4083653 31.7055086,39.9585694 31.499182,40.5087734 C31.361631,40.852651 31.2928555,41.3340795 31.0177535,41.6091815 C30.4675494,42.1593856 29.7110189,42.5032631 29.0920393,42.9159162 C28.3355087,43.5348957 27.7853047,44.3602018 27.2351006,45.1855079 C26.6161211,46.010814 26.065917,46.83612 25.4469375,47.6614261 C24.8279579,48.4867322 24.2777539,49.3120383 23.6587743,50.1373444 Z" id="Path" fill="#56548C"></path>
                                <g transform="translate(17.193877, 11.691836)" id="Path">
                                    <path d="M7.2214282,2.20081621 C7.2214282,2.20081621 9.76612195,-0.962857093 11.4855096,0.41265304 C12.9297953,1.58183665 12.3795912,2.81979577 11.3479586,4.47040793 C8.94081587,8.45938732 3.50755084,14.2365299 1.78816317,14.3740809 C-0.687755067,14.5804074 0.481428547,11.3479586 2.40714273,8.39061181 C4.40163243,5.50204053 7.2214282,2.20081621 7.2214282,2.20081621 Z" fill="#FFC8AF"></path>
                                    <path d="M1.23795912,14.7867339 C2.88857128,16.2310196 7.2214282,17.5377542 9.42224441,18.2942848 C11.5542851,19.0508153 12.2420402,19.3946929 13.0673463,20.0136724 C13.8926523,20.7014275 15.061836,20.770203 15.5432645,19.8073459 C16.0246931,18.8444888 15.6808155,18.5693868 16.0246931,18.2942848 C16.3685706,18.0191827 16.7124481,17.8128562 16.6436726,17.6065297 C16.5748971,17.3314277 14.3053054,16.2997951 13.6175503,16.5748971 C12.9297953,16.8499991 12.4483667,17.3314277 11.9669382,17.1251012 C11.4855096,16.9187746 3.78265287,11.2791831 3.02612229,11.2791831 C2.26959172,11.2791831 -1.23795912,12.5859177 1.23795912,14.7867339 Z" fill="#FFC8AF"></path>
                                    <path d="M9.76612195,0 C9.76612195,0 6.39612212,1.78816317 2.33836723,7.97795877 C2.33836723,7.97795877 3.02612229,9.07836688 4.47040793,10.178775 C5.77714256,11.2791831 6.60244864,11.4855096 6.60244864,11.4855096 L8.94081587,8.94081587 L9.76612195,0 Z" fill="#F7C341"></path>
                                </g>
                                <path d="M21.9393866,35.5569369 C21.6642846,35.6257124 25.0342844,25.790815 24.5528559,23.1085702 C24.0714273,20.4263255 22.9022437,15.61204 24.9655089,13.3424483 C27.0287741,11.0728566 28.9544883,10.9353056 30.6051005,11.4167341 C32.2557126,11.9669382 34.4565288,14.3740809 34.7316309,18.7069378 C35.0067329,23.0397947 33.0810187,36.8636716 33.0810187,36.8636716 C33.0810187,36.8636716 23.7963253,35.0755084 21.9393866,35.5569369 Z" id="Path" fill="#FBD15B"></path>
                                <path d="M27.9916312,19.5322439 C27.9916312,19.5322439 26.203468,15.887142 28.1979577,14.9242849 C29.8485699,14.0989789 30.7426515,15.1306115 31.8430596,16.7812236 C34.4565288,20.632652 37.3451001,27.9916312 36.7948961,29.6422434 C35.96959,31.9806106 33.4936717,29.5734679 31.6367331,26.5473456 C29.7797944,23.4524478 27.9916312,19.5322439 27.9916312,19.5322439 Z" id="Path" fill="#FFC8AF"></path>
                                <path d="M37.0699981,30.1236719 C39.1332633,28.9544883 42.0218346,24.9655089 43.5348957,23.1085702 C45.0479569,21.1828561 45.6669364,20.632652 46.6297935,20.0136724 C47.5926506,19.3946929 48.1428547,18.2255093 47.3175486,17.4002032 C46.4922425,16.5748971 46.0795895,16.7812236 45.9420384,16.3685706 C45.8044874,15.887142 45.7357119,15.5432645 45.4606099,15.474489 C45.1855079,15.4057135 43.3285692,17.4002032 43.3285692,18.2255093 C43.3285692,19.0508153 43.7412222,19.6697949 43.2597937,20.1512235 C42.8471406,20.5638765 34.3877533,26.4097946 34.1126513,27.1663251 C33.9063248,27.8540802 34.0438758,31.8430596 37.0699981,30.1236719 Z" id="Path" fill="#FFC8AF"></path>
                                <path d="M29.5046924,25.2406109 C29.4359168,25.1718354 26.8224476,18.7757133 26.4785701,16.9875501 C26.1346925,15.474489 27.7165292,13.3424483 28.6106108,12.9297953 C30.8802025,11.9669382 32.3932636,13.7551013 33.0122432,14.5804074 C33.6312228,15.4057135 35.9008145,22.5583662 35.9008145,22.5583662 C35.9008145,22.5583662 34.5253043,23.3836723 32.7371412,24.2777539 C31.086529,25.1718354 29.5046924,25.2406109 29.5046924,25.2406109 Z" id="Path" fill="#F7C341"></path>
                                <path d="M7.29020371,57.4275481 C4.1265304,58.2528541 0.481428547,59.0093847 0.137551013,58.0465276 C-0.20632652,57.152446 2.61346925,55.5018339 5.84591807,53.9199972 L7.29020371,57.4275481 Z" id="Path" fill="#FF8578"></path>
                                <path d="M37.4138756,62.9983641 C36.657345,65.0616293 35.694488,67.3999965 34.8691819,68.7067312 L33.0810187,68.5004046 C32.9434677,67.056119 33.2185697,64.5114252 33.6999983,61.9667315 L37.4138756,62.9983641 Z" id="Path" fill="#FF8578"></path>
                                <path d="M33.4248962,34.1126513 C33.2873452,35.2818349 33.4248962,37.9640797 33.4248962,37.9640797 C33.4248962,37.9640797 32.9434677,39.1332633 31.22408,38.4455082 C22.8334682,35.2130594 21.3891826,38.0328552 20.5638765,37.6202021 C20.2887745,37.4826511 21.3204071,36.7261206 21.8706111,34.9379574 C22.3520397,33.1497942 24.4840804,28.2667332 24.4840804,28.2667332 L33.4248962,34.1126513 Z" id="Path" fill="#FBD15B"></path>
                            </g>
                            <g transform="translate(0.000000, 55.708160)" id="Path">
                                <path d="M4.53918344,2.75102027 C4.53918344,2.75102027 4.33285692,8.45938732 3.71387736,9.14714239 C3.71387736,9.14714239 3.64510185,9.21591789 3.64510185,9.21591789 C2.61346925,9.62857093 0.343877533,4.19530591 0.41265304,2.47591824 C0.41265304,2.0632652 0.61897956,1.71938767 0.962857093,1.44428564 C1.85693868,0.687755067 3.64510185,0.550204053 3.64510185,0.550204053 L4.53918344,2.75102027 Z" fill="#56548C"></path>
                                <path d="M3.71387736,9.14714239 C3.71387736,9.14714239 3.64510185,9.21591789 3.64510185,9.21591789 C2.61346925,9.62857093 0.343877533,4.19530591 0.41265304,2.47591824 C0.41265304,2.0632652 0.61897956,1.71938767 0.962857093,1.44428564 C1.0316326,2.13204071 1.30673463,3.71387736 2.0632652,5.50204053 C2.75102027,7.15265269 3.36999983,8.45938732 3.71387736,9.14714239 Z" fill="#B1B2F3"></path>
                                <polygon fill="#B1B2F3" points="1.71938767 3.23244881 3.50755084 3.92020388 3.50755084 4.81428547 1.71938767 3.71387736"></polygon>
                            </g>
                            <g transform="translate(33.699998, 66.712241)" id="Path">
                                <path d="M3.71387736,0.962857093 C3.71387736,0.962857093 8.11550979,4.53918344 8.2530608,5.50204053 C8.2530608,5.57081604 8.2530608,5.57081604 8.2530608,5.57081604 C7.97795877,6.67122415 2.20081621,5.158163 0.962857093,4.1265304 C0.61897956,3.85142837 0.481428547,3.50755084 0.481428547,3.0948978 C0.41265304,1.92571419 1.37551013,0.41265304 1.37551013,0.41265304 L3.71387736,0.962857093 Z" fill="#56548C"></path>
                                <path d="M8.2530608,5.43326503 C8.2530608,5.50204053 8.2530608,5.50204053 8.2530608,5.50204053 C7.97795877,6.60244864 2.20081621,5.08938749 0.962857093,4.05775489 C0.61897956,3.78265287 0.481428547,3.43877533 0.481428547,3.02612229 C1.10040811,3.36999983 2.47591824,4.1265304 4.40163243,4.60795895 C6.12102009,5.02061199 7.49653023,5.29571401 8.2530608,5.43326503 Z" fill="#B1B2F3"></path>
                                <polygon fill="#B1B2F3" points="2.33836723 3.50755084 3.98897939 2.47591824 4.67673445 3.02612229 2.75102027 3.78265287"></polygon>
                            </g>
                        </g>
                    </g>
                </g>
            </g>
        </g>
    </g>
</svg>