<?xml version="1.0" encoding="UTF-8"?>
<svg width="320px" height="177px" viewBox="0 0 320 177" version="1.1" xmlns="http://www.w3.org/2000/svg" xmlns:xlink="http://www.w3.org/1999/xlink">
    <!-- Generator: sketchtool 57.1 (101010) - https://sketch.com -->
    <title>E00ABF5D-9DBC-4F2B-B7C9-52FDD7802930</title>
    <desc>Created with sketchtool.</desc>
    <defs>
        <linearGradient x1="50.7591037%" y1="51.5468288%" x2="44.1163649%" y2="40.5332472%" id="linearGradient-1">
            <stop stop-color="#FFFFFF" offset="0%"></stop>
            <stop stop-color="#CD877E" offset="100%"></stop>
        </linearGradient>
        <polygon id="path-2" points="0.286509379 0.314800154 21.7798375 0.314800154 21.7798375 12.48 0.286509379 12.48"></polygon>
    </defs>
    <g id="Reco-Page" stroke="none" stroke-width="1" fill="none" fill-rule="evenodd">
        <g id="Refer_landing" transform="translate(0.000000, -159.000000)">
            <g id="2-ILL" transform="translate(-16.000000, 159.000000)">
                <path d="M4,109.190085 C19.5393934,88.1920015 49.3340301,72.0026397 83.5466141,65.9676944 C94.903684,63.9640605 106.861595,62.9782726 117.205482,59.3156299 C127.973492,55.5007109 136.055391,49.1371697 145.150471,43.7914745 C154.245552,38.4457792 165.87359,33.8374213 177.984656,34.8552673 C188.740885,35.7528953 198.106933,40.9703579 208.945631,40.986387 C226.61742,40.986387 236.761027,28.2833481 249.873495,20.485205 C271.079642,7.84628241 303.843139,7.84628241 331.163725,13.4003556 C351.615876,17.5598995 373.57602,24.3962984 393.321299,19.0105305 C405.77402,15.6283965 414.444978,7.97451498 426.308639,3.78291287 C448.810717,-4.16750641 476.343365,1.92354062 500,8.23899465 L500,172 L4.01178119,172 L4,109.190085 Z" id="Path" fill="url(#linearGradient-1)" fill-rule="nonzero" transform="translate(252.000000, 86.000000) scale(-1, 1) translate(-252.000000, -86.000000) "></path>
                <path d="M15,78.2886622 C15,78.2886622 108.011132,52.8315277 190.795819,97.069793 C273.580505,141.308058 367,131.410948 367,131.410948 L367,177 L15,177 L15,78.2886622 Z" id="Path" fill="#FCAD3A" transform="translate(191.000000, 124.000000) scale(-1, 1) translate(-191.000000, -124.000000) "></path>
                <path d="M0,122.449059 C0,122.449059 45.6724762,102.402967 159.275699,128.08018 C253.949397,149.448666 319.368375,151.243969 377,144.719575 L377,177 L3.04193467,177 L0,122.449059 Z" id="Path" fill="#FFEFD7" opacity="0.600000024" transform="translate(188.500000, 146.000000) scale(-1, 1) translate(-188.500000, -146.000000) "></path>
                <ellipse id="Oval" fill="#000000" opacity="0.049999997" cx="193.5" cy="162.5" rx="45.5" ry="4"></ellipse>
                <ellipse id="Oval" fill="#000000" opacity="0.049999997" cx="262.5" cy="168.5" rx="51.5" ry="2.5"></ellipse>
                <g id="Group-48" transform="translate(197.000000, 105.000000) scale(-1, 1) translate(-197.000000, -105.000000) translate(155.000000, 43.500000)">
                    <path d="M75,76.5746685 L71.4942461,113.5 L65.5240412,113.229332 C65.5240412,113.229332 67.5978747,106.843784 66.2165231,99.5278151 L64.2789155,90.3763775 C63.8537255,88.3701557 63.9156464,86.2872799 64.4579701,84.3111911 L67.1504964,74.5 L75,76.5746685 Z" id="Fill-1" fill="#894532"></path>
                    <g id="Group-5" transform="translate(62.000000, 109.500000)">
                        <mask id="mask-3" fill="white">
                            <use xlink:href="#path-2"></use>
                        </mask>
                        <g id="Clip-4"></g>
                        <path d="M4.70339535,2.707328 C5.30148837,3.509168 6.10269767,4.400448 7.08144186,4.249128 C7.75423256,4.144608 8.25562791,3.557528 8.57590698,2.946528 C8.89618605,2.335528 9.10339535,1.657968 9.5167907,1.107808 C9.92967442,0.557648 10.6444186,0.151008 11.2875349,0.379808 C12.0432093,0.649168 12.2882791,1.580488 12.548186,2.350088 C13.5289767,5.253248 16.3367907,7.420608 19.3513023,7.601568 C20.1791163,7.651488 21.1773023,7.649408 21.6106512,8.367528 C22.0327442,9.066408 21.5988837,9.983168 21.0355814,10.569728 C19.7447442,11.913928 17.8220465,12.474488 15.9735349,12.480249 C14.1255349,12.485408 12.3138605,11.995048 10.5282791,11.508328 C7.79874419,10.763688 5.06869767,10.020088 2.33916279,9.275448 C1.87613953,9.149608 1.40390698,9.019088 1.00534884,8.748168 C0.606790698,8.478288 0.288046512,8.037328 0.286509379,7.550088 C0.285488372,7.026968 0.633906977,6.580808 0.931674419,6.153368 C1.74362791,4.987528 2.17902326,3.714048 2.48702326,2.335008 C2.58934884,1.876888 2.73874419,1.142128 3.38288372,1.225328 C3.92981395,1.296568 4.4,2.301208 4.70339535,2.707328" id="Fill-3" fill="#FA5D5E" mask="url(#mask-3)"></path>
                    </g>
                    <path d="M75,76.5746685 C74.8904766,75.6636317 74.5443415,74.7911572 73.9776098,74.0627563 L56.4166768,51.5 L47.2931748,52.5754626 C44.16401,52.945019 41.8211401,55.7761423 42.0107395,59.0352011 C42.4379839,66.3872308 51.3346899,69.0410741 51.3346899,69.0410741 L66.0728135,80.5 C66.9180032,80.0024379 73.950229,76.8349647 75,76.5746685" id="Fill-6" fill="#894532"></path>
                    <path d="M69,66.1007675 L56.9579022,51.5 L47.4918892,52.5535123 C44.2452504,52.9148213 41.8144254,55.6873048 42.0111427,58.8782566 C42.4549626,66.0766453 51.6851292,68.6745048 51.6851292,68.6745048 L58.262025,73.5 C62.0848792,72.923164 67.355508,69.9996544 69,66.1007675" id="Fill-8" fill="#B94243"></path>
                    <path d="M44.0962598,91.482079 L7.25875496,104.5 L5,98.8373097 C5,98.8373097 11.649699,98.1448111 17.6923018,93.8571123 C17.6923018,93.8571123 25.1334315,88.3218628 25.162841,88.2992184 C29.4072627,85.1421619 35.5643525,84.2958917 40.7314974,84.5391878 C41.4551812,85.9025938 45.340912,87.3860681 46,88.7842307 C45.6880492,89.9975515 44.5494812,91.3335736 44.0962598,91.482079" id="Fill-10" fill="#B05A42"></path>
                    <path d="M7.10437433,98.8142253 C6.62315954,99.7052712 6.1450729,100.822615 6.69458579,101.672801 C7.07257141,102.257403 7.81967953,102.481081 8.51204491,102.526131 C9.2044103,102.571705 9.91033102,102.4837 10.5865343,102.641375 C11.2627375,102.798002 11.9342485,103.296171 11.9952476,103.990778 C12.0666738,104.807439 11.318523,105.422423 10.7241732,105.985023 C8.4838915,108.10499 7.68308335,111.6236 8.7836732,114.511511 C9.08554034,115.304075 9.50627743,116.234409 9.03236167,116.936874 C8.57147989,117.619957 7.5511794,117.596384 6.77904602,117.314036 C5.00903061,116.667622 3.68946978,115.107637 2.90847329,113.384738 C2.12799815,111.662364 1.81518247,109.769219 1.51018718,107.902265 C1.04409181,105.045785 0.577475078,102.190352 0.111379708,99.3349188 C0.0326544279,98.85037 -0.0465922122,98.3558683 0.0331757874,97.8718434 C0.112422427,97.3878184 0.380922557,96.9069365 0.825642188,96.7042118 C1.30372883,96.4862958 1.85741259,96.6256363 2.37251575,96.7262129 C3.77914361,96.9996556 5.12529377,96.8770778 6.51419541,96.5921108 C6.97507718,96.4972963 7.70915132,96.3322878 7.90361841,96.9677015 C8.068368,97.5072532 7.34837057,98.3626782 7.10437433,98.8142253" id="Fill-12" fill="#FA5D5E"></path>
                    <path d="M36,85.8855126 C36.8979034,86.7511951 38.0652311,87.2498283 39.1690707,87.8139869 C40.1758108,88.3291346 41.184685,88.8416187 42.2165002,89.3061572 C43.2717901,89.7808176 44.3473535,90.1878216 45.4442574,90.5 C45.4757347,90.4302127 45.5114801,90.363089 45.5397563,90.2917035 C47.29715,86.08422 49.0262675,81.377038 50.575591,76.1941302 C51.7882673,72.1363432 52.4183469,69.4204974 53.1770032,65.8027435 C53.8748389,65.1133939 55.0197591,62.9910067 55.6919862,61.6890202 C57.3672188,58.4441757 57.0369739,55.2909605 56.8193004,53.9820485 C53.9447292,53.4882099 51.0701581,52.9943713 48.1950534,52.5 C34.9969945,53.3438407 38.3858727,67.5090704 38.3858727,67.5090704 L36,85.8855126 Z" id="Fill-14" fill="#B05A42"></path>
                    <path d="M57.8221729,53.7184608 C54.9873946,53.2246915 48.6891147,52.9932372 45.8538103,52.5 C33.1920107,58.5657001 39.6433938,67.2290096 39.6433938,67.2290096 L38.9783679,72.4189077 C40.6861798,73.0738968 42.4623883,73.4867901 44.382756,73.7267577 C46.9518397,74.0486655 49.2473367,74.7563305 51.8516709,74.4040942 C52.6776921,71.4276446 53.6184092,68.4793951 54.2302962,65.5242286 C54.9179457,64.8362505 56.0475428,62.716448 56.7104642,61.416047 C58.3619804,58.1751541 58.0363071,55.0257788 57.8221729,53.7184608" id="Fill-16" fill="#D34D4E"></path>
                    <path d="M51.3049422,38.8332433 L70,45.9328922 L69.1649555,50.5 L50.7924226,44.8073184 C49.5313138,44.4141237 48.7754768,43.0725088 49.0596923,41.731434 L49.9879222,38.5 L51.3049422,38.8332433 Z" id="Fill-18" fill="#894532"></path>
                    <path d="M69.8710442,45.4015376 C71.0115272,44.9243798 72.2077502,44.3320278 73.4312968,44.5444502 C74.788182,44.7801228 75.8040699,46.0345775 75.9707433,47.3582544 C76.1379631,48.681403 75.5718201,50.0182903 74.6952821,51.048169 C74.0881538,51.7609995 73.2755528,52.3781869 72.3263343,52.4833413 C71.318097,52.5953651 70.3508449,52.1224346 69.454634,51.6632429 C68.4693484,51.1580791 67.4501817,50.6254379 66.7856741,49.758839 C66.1719882,48.9577635 65.6260645,47.1579856 66.3337433,46.2491136 C66.7326665,45.7370804 67.2693001,45.9775088 67.8594878,45.9426335 C68.5545977,45.9014172 69.2376853,45.6673298 69.8710442,45.4015376" id="Fill-20" fill="#894532"></path>
                    <path d="M49,38.8140316 L53.133107,40.5 L62.496078,24.3272887 C63.0870317,23.1832016 63.1619844,21.8742619 62.7010507,20.7618973 C61.7470607,18.4617621 58.9003871,17.7836305 56.7517425,19.3437493 L56.611015,19.445677 C55.9767213,19.9064321 55.4642894,20.5252792 55.1298065,21.2346132 L49,38.8140316 Z" id="Fill-22" fill="#B05A42"></path>
                    <path d="M60.3392442,17.7401413 C58.1318211,15.453874 56.3063291,15.2470344 54.6864513,15.6866376 C48.152607,17.4615973 45.7512886,20.7616545 45.2947825,31.3137846 C44.9613252,39.0275235 46.415007,48.8449592 43,54.4014988 C51.3129933,60.6778403 58.5861966,55.4770648 58.5861966,55.4770648 C58.7470657,52.4947133 59.0682713,48.4693385 59.3255554,44.126258 C60.7605935,35.4400971 62.9610917,35.9282386 64.2576332,32.5244858 C65.3901094,29.5509594 65.234567,28.0815708 63.7382708,25.5311004 C62.6872946,23.7390419 61.1425246,18.5719124 60.3392442,17.7401413" id="Fill-24" fill="#491B4A"></path>
                    <path d="M37.4406719,34.5970472 L54,47.4283399 L51.7657666,51.5 L35.1220974,39.9045733 C33.99934,39.1229744 33.6678849,37.6019085 34.361953,36.4200576 L36.8732742,33.0687023 L37.4406719,34.5970472 Z" id="Fill-28" fill="#B05A42"></path>
                    <path d="M58.5448159,47.1435666 C57.8438776,46.7439199 56.1821139,47.2575221 55.4428233,47.2751772 C55.4180962,47.2842722 55.3923598,47.2912272 55.3620817,47.2906922 C54.6737592,47.2778522 54.0333772,47.1136065 53.4555698,46.7824401 C53.3829024,46.7883251 53.3102349,46.7931401 53.2390813,46.7963501 C52.6935707,46.8188202 52.3110572,46.2554628 51.8094498,46.6272894 C50.918264,47.2874822 50.8637634,49.1846002 51.1650306,50.1422543 C51.4915296,51.1780187 52.228297,52.0003172 52.9433651,52.7862355 C53.5938399,53.5004635 54.303357,54.2500017 55.2212884,54.4484876 C56.0857286,54.6357383 56.9819607,54.2890569 57.7262976,53.7872248 C58.800666,53.0622967 59.694375,51.947352 59.9401323,50.6237563 C60.1858897,49.2990907 59.6661154,47.7828943 58.5448159,47.1435666" id="Fill-30" fill="#B05A42"></path>
                    <path d="M52.1872367,18.8465795 C50.3415921,17.837803 48.8998118,19.204074 47.4642528,20.7272423 L40.6249988,28.67478 L40.5353088,28.7790273 L39.2749427,30.2978672 L38.2500275,31.5189402 L36,34.2172596 L37.4785895,40.5 L43.2477843,34.7563969 L50.9227628,26.9341666 C51.8481773,26.0233193 52.6367238,25.12932 53.6409411,23.4039751 C54.4626677,21.9918985 53.83069,19.7453173 52.1872367,18.8465795 Z" id="Fill-32" fill="#B05A42"></path>
                    <path d="M65.908297,11.4659596 C66.1692064,11.9329351 65.8400359,12.5364111 65.3409709,12.4982793 C65.0370824,12.4745161 65.0042159,12.4811477 64.7018442,12.4347265 C64.5208257,12.4065421 64.3767188,12.2479363 64.2498036,12.1042515 C63.7916954,11.5864337 63.9267008,9.2813985 64.9642705,9.51682046 C64.9753945,9.69808432 64.9081446,9.93129575 65.0699489,10.1070333 C65.4476606,10.6685091 65.6342411,10.9752208 65.908297,11.4659596" id="Fill-34" fill="#B05A42"></path>
                    <path d="M54,16.5814688 C55.0077801,19.4013137 58.2889004,20.6995919 58.7873444,20.4751981 C59.0892116,20.3386827 59.3345436,16.7898344 62,16.3581804 C59.9133817,15.6673129 58.8023859,12.1908675 56.7157676,11.5 C56.7157676,11.5 55.6794606,14.2098588 54,16.5814688" id="Fill-36" fill="#8D4633"></path>
                    <path d="M62.9980827,5.55924104 C61.5155435,4.43906191 59.3803475,4.20121911 57.6240108,4.87493908 C55.8676742,5.54865905 54.5278705,7.07851232 54.0476636,8.81849367 C53.5674568,10.558475 56.8726596,11.9351414 56.9294354,13.7340795 C56.9856806,15.5254591 57.5115204,16.9494925 59.4132457,17.2251281 C61.3759917,17.509834 61.2491746,17.6383296 63.2389821,17.2881161 C63.7276788,17.2019485 63.9924558,16.8451843 64.1144973,16.2913935 C64.2296408,15.7718683 65.3120961,10.431995 64.9114815,8.57460401 C64.7475214,7.8121969 64.4726627,6.34331604 64.0306601,5.68824053 C63.5881269,5.03266111 62.9115924,5.2100354 62.0965673,5.29015618" id="Fill-38" fill="#B05A42"></path>
                    <path d="M54,11.5 C54,13.1566447 52.6565421,14.5 51,14.5 C49.3428738,14.5 48,13.1566447 48,11.5 C48,9.84335527 49.3428738,8.5 51,8.5 C52.6565421,8.5 54,9.84335527 54,11.5" id="Fill-40" fill="#2A0F2B"></path>
                    <path d="M57.3335678,9.73548051 C58.8675833,8.1736325 65.1914736,6.70906955 64.9955449,3.80690852 C64.9160596,2.62362624 63.471655,1.66029278 62.5714967,1.21457921 C60.3276826,0.102145833 57.2728148,0.334255269 55.0948165,1.59367367 C53.0003538,2.80497826 52.0693127,5.09487796 52.0040031,7.52013077 C51.9179362,10.7284225 53.2312155,12.3664066 54.8320594,13.1912146 C55.503381,13.5375282 56.344305,14.4606788 57.3335678,9.73548051" id="Fill-42" fill="#2A0F2B"></path>
                    <path d="M55,17.7438417 C55,17.7438417 58.998041,27.6802626 60.9662437,27.4975096 C62.9344463,27.3147567 61.8270733,24.2059034 59.8588707,20.4266137 L56.9065668,17.5 L55,17.7438417 Z" id="Fill-44" fill="#8D4633"></path>
                    <path d="M59.9964842,9.43356898 C60.0423765,9.98466877 59.6336483,10.461007 59.0829408,10.4977469 C58.5327113,10.5344869 58.0494081,10.1175308 58.0035158,9.56643102 C57.9576236,9.01533123 58.3663518,8.53856584 58.9165812,8.50225306 C59.4672887,8.46551308 59.9505919,8.88246919 59.9964842,9.43356898" id="Fill-46" fill="#B05A42"></path>
                </g>
                <g id="Group-2" transform="translate(210.000000, 35.000000)" fill-rule="nonzero">
                    <polygon id="Path" fill="#FFB297" points="35 40.0042194 29.1927126 49 24 48.0548523 27.71417 37"></polygon>
                    <path d="M25.7293951,42.8872431 L8.82985497,36 L6,40.1571647 L25.2960736,50.6608752 C26.5983072,51.3633718 28.2206042,50.9423691 29.0191015,49.6947111 L31,46.6100772 L25.7293951,42.8872431 Z" id="Path" fill="#FFB297"></path>
                    <path d="M7.97506446,34.6339707 C7.49543175,33.4853093 7.103005,32.2044279 5.99548948,31.4937454 C4.72749093,30.7510809 3.1016067,30.8540163 1.94913357,31.7499216 C0.82760705,32.6475199 0.141014658,33.9398145 0.0480439408,35.3281258 C-0.109739192,36.2803244 0.124393064,37.2535802 0.702088538,38.0468998 C1.44715678,38.7763043 2.40791113,39.2747323 3.45779644,39.4765288 C4.56627539,39.8891279 5.75816023,40.0613684 6.94603429,39.9806176 C8.01866743,39.83187 9.81510992,38.9063299 9.98952182,37.7494048 C10.0854484,37.0965685 9.50116852,36.9230297 9.11746235,36.4437322 C8.63201484,35.9056204 8.2458008,35.2937887 7.97506446,34.6339707 L7.97506446,34.6339707 Z" id="Path" fill="#FFB297"></path>
                    <path d="M33.3894336,43 L26,38.9993753 L30.5612723,24.2345426 C30.9432333,22.9123686 31.8930362,21.8338517 33.1480052,21.2972648 L33.1480052,21.2972648 C35.674381,20.2687818 38.4421851,22.0119734 38.9250419,24.9405352 L38.9250419,25.1322863 C39.0741788,26.0082368 39,26.9081577 38.7094809,27.7470737 L33.3894336,43 Z" id="Path" fill="#B94243"></path>
                    <path d="M48,101.179447 L90.8138978,107 L92,100.564058 C86.9164961,100.833131 81.8378484,99.9555874 77.1605431,97.9999382 L67.8386581,93.7264046 C62.5670927,91.3161317 55.6789137,91.743485 50.1261981,93.1024687 C49.3178914,95.7947949 48.6940895,98.4956681 48,101.179447 Z" id="Path" fill="#FFB297"></path>
                    <path d="M90.0223696,100.715263 C90.7281977,101.584526 91.4680416,102.662411 91.0683558,103.696833 C90.7271405,104.378421 90.1013747,104.864555 89.3675652,105.018111 C88.6311094,105.150831 87.9060294,105.342663 87.1990573,105.591824 C86.4873459,105.863746 86.0114327,106.553777 86,107.330349 C86.1020474,108.199611 87.0204743,108.721168 87.7688222,109.199262 C90.6324447,111.079479 92.1478109,114.504271 91.6381206,117.94404 C91.4935534,118.865458 91.2384348,119.960728 91.8932392,120.612675 C92.5480435,121.264621 93.5940297,120.99515 94.3593855,120.525749 C96.0589723,119.340317 97.2300454,117.515043 97.6163993,115.449257 C97.9864303,113.403346 98.0893752,111.316306 97.9225416,109.242725 C97.8034863,106.069918 97.6929349,102.888419 97.5738795,99.6808414 C97.5835139,99.1412882 97.5059351,98.6038108 97.3442728,98.0900916 C97.1777066,97.569184 96.7703982,97.1658498 96.2557669,97.0122065 C95.6914371,96.9584965 95.1245608,97.0828817 94.6315119,97.368604 C93.2258669,97.9252878 91.7245616,98.185492 90.2179605,98.1335547 C89.7077234,98.1335547 88.8998479,98.1335547 88.8318162,98.8463497 C88.7637846,99.5591447 89.6737075,100.280632 90.0223696,100.715263 Z" id="Path" fill="#491B4A"></path>
                    <path d="M33,69.168904 L44.9931555,98.569033 C45.5777687,100.001143 46.7610284,101.124744 48.2483107,101.660065 L48.2483107,101.660065 C49.6604204,102.170013 51.2247808,102.103995 52.5860314,101.477007 C53.9472819,100.850019 54.9898615,99.715289 55.4769374,98.330582 L55.6951601,97.7212071 C55.9791993,96.930935 56.066446,96.0865472 55.9497532,95.2572131 L53.2765252,75.1655058 C53.1547955,74.2868068 53.0819488,73.4023703 53.0583026,72.5160499 C52.9491912,68.5948552 51.876263,55.506543 42.0016861,57.1403742 L33,69.168904 Z" id="Path" fill="#FFB297"></path>
                    <path d="M41.4366197,88 L34,69.0353326 L43.2613459,56.1487498 C53.4178404,54.4096698 54.528169,68.4092638 54.6314554,72.6004466 C54.6586147,73.5543359 54.733305,74.5062384 54.8552426,75.4525378 L56,84.3218458 C51.2208892,85.8344606 46.3580806,87.0626205 41.4366197,88 Z" id="Path" fill="#2A0C2B"></path>
                    <path d="M15.1986124,80.2981381 L26.8418741,66 C29.48807,68.1198582 31.419793,71.0335727 33.8983964,73.29301 C35.2391357,74.5317749 36.6151575,75.735645 38,76.939515 L23.313613,87.8092405 C22.6452577,88.3068463 21.8692727,88.6442877 21.0467052,88.7950182 L20.4116182,88.9084262 C18.1803804,89.3211647 15.9256303,88.3139989 14.763559,86.3855162 C13.6014877,84.4570334 13.7786857,82.016456 15.207433,80.271967 L15.1986124,80.2981381 Z" id="Path" fill="#FFB297"></path>
                    <path d="M14.8949761,83 L14,125.584792 L20.3986612,126 C19.5634983,121.057567 19.8498312,115.982066 21.2350875,111.173607 L24.3298648,101.554617 C25.0081525,99.4460159 25.1747512,97.1972902 24.8149921,95.0064373 L23.0166755,84.063971 L14.8949761,83 Z" id="Path" fill="#FFB297"></path>
                    <path d="M19.7068473,123.418465 C18.948218,124.239228 17.9826897,125.139419 16.8878495,124.84818 C16.1700013,124.567816 15.617233,123.966153 15.3878323,123.215481 C15.1562077,122.469893 14.867969,121.743996 14.5257535,121.044432 C14.1692457,120.334411 13.4214576,119.92355 12.6464216,120.01186 C11.7843427,120.223669 11.3964073,121.229765 11.0170926,122.059353 C9.50404633,125.234454 6.31089484,127.204112 2.86182668,127.089833 C1.93940232,127.03688 0.835941393,126.913325 0.275590143,127.663484 C-0.284761108,128.413643 0.0945535848,129.472691 0.654904835,130.196374 C2.02245294,131.805481 3.95630823,132.795358 6.03427684,132.9499 C8.09529386,133.086305 10.1648827,132.943871 12.1895198,132.526281 L21.5258337,131.043613 C22.0583304,130.983961 22.5787483,130.841096 23.0689548,130.619994 C23.5625152,130.385418 23.9109954,129.916356 24,129.366786 C23.9869712,128.775669 23.7974375,128.202812 23.4568903,127.725262 C22.747266,126.35666 22.313393,124.856082 22.1810136,123.31256 C22.1206681,122.783036 22.043081,121.944623 21.3189348,121.962274 C20.5947886,121.979924 20.086162,123.003671 19.7068473,123.418465 Z" id="Path" fill="#491B4A"></path>
                    <path d="M27.6595584,81.1982422 C25.9711139,79.7802734 24.3090513,78.3300781 22.6733706,76.8476563 C21.8643242,76.109375 21.0376899,75.3798828 20.2814074,74.5888672 C20.1846736,74.4921875 20.0967338,74.3867188 20,74.28125 L34.756302,56 L49.4862221,57.6699219 C55.7651254,70.6425781 40.4811844,75.0371094 40.4811844,75.0371094 L29.866848,83 C29.1281535,82.4023438 28.354283,81.8134766 27.6595584,81.1982422 Z" id="Path" fill="#491B4A"></path>
                    <path d="M31.1798911,18.9676046 C33.2209478,17.3211257 35.9020026,16.6604676 38.4890141,17.166511 C43.5206567,17.8451839 45.5509686,20.8470066 46.2571641,34.359559 C46.6222211,42.2653017 47.8775381,50.1065679 50,57.7389719 L32.830623,58 C32.830623,58 27.2163691,40.0847744 27.0221653,29.1302969 C26.9292539,27.9662915 27.1293808,26.7976823 27.6047766,25.7282312 C27.9843567,24.8407358 29.643916,20.3249505 31.1798911,18.9676046 Z" id="Path" fill="#FA5D5E"></path>
                    <path d="M38.913179,29.5181545 C35.8282268,26.068603 34.7999093,21.7009538 35.0312808,17.1728603 C36.163113,16.9423799 37.3271733,16.9423799 38.4590055,17.1728603 C43.3435133,17.8681187 45.314455,20.9433003 46,34.7860743 C46,34.8573829 46,34.9286914 46,35 C43.368497,33.5830044 40.9751911,31.7317183 38.913179,29.5181545 Z" id="Path" fill="#C3C3C3" opacity="0.88" style="mix-blend-mode: multiply;"></path>
                    <path d="M33.0411234,13 C33.2449491,14.0926924 33.6001273,15.1545756 34.0972919,16.1576471 C34.354437,16.7084779 34.6562598,17.2392463 35,17.745098 C34.287318,19.0158326 33.4306167,20.2078301 32.445336,21.2996078 C31.5532002,22.2901597 30.5614846,23.1946268 29.4844534,24 C29.2501366,22.3622342 28.7824069,20.7628199 28.0942828,19.2462745 C27.5104225,17.9867506 26.8095194,16.7798224 26,15.64 L33.0411234,13 Z" id="Path" fill="#FFA98F"></path>
                    <path d="M24.6975634,4.4549576 C26.2588907,3.10207947 28.4311872,2.65371196 30.4166508,3.27452344 C32.3854391,3.92672591 33.932419,5.43969048 34.601983,7.36782749 C35.2578891,9.24062857 35.098051,11.2954797 34.1600535,13.0491976 C33.7594325,13.8102533 33.2454353,14.5086176 32.6349635,15.1213267 C31.8649376,15.9203954 30.8478005,16.4486587 29.7407587,16.6244694 C27.7067275,17.1011023 25.5894844,17.1243189 23.5450807,16.6924081 C23.0169279,16.6459374 22.534343,16.3800946 22.2192922,15.9620675 C21.9908641,15.424772 21.9393633,14.8309732 22.0719824,14.2636011 L22.8951844,7.9792754 C22.9551884,7.11523458 23.1754211,6.26915346 23.5450807,5.48252978 C23.9351189,4.68418434 24.7400348,4.15937062 25.6420794,4.11526431" id="Path" fill="#FFB297"></path>
                    <path d="M21.1529515,10.0647892 C20.7741772,10.4730446 21.1529515,10.9646173 21.6990913,10.9562856 C22.0457863,11.0145715 22.4006321,11.0145715 22.7473272,10.9562856 C22.9485015,10.8913418 23.1341094,10.789405 23.2934669,10.6563429 C23.857224,10.1731019 24.5002595,7.55693497 23.3991713,8.06517121 C22.5712325,8.64734797 21.8174586,9.31836861 21.1529515,10.0647892 Z" id="Path" fill="#FFB297"></path>
                    <path d="M30.5594092,13.8376411 C29.6774632,13.2386191 28.9470327,12.4436575 28.4256309,11.5153504 C28.2505384,11.2397843 28.1347461,10.9309726 28.0855865,10.6084705 C28.0260788,10.2524989 26.9889435,10.6593235 27.0739546,10.3118275 C27.3560984,9.21648141 27.3560984,8.06782122 27.0739546,6.97247515 C26.6659013,6.04864417 25.6457683,5.27737244 25.0081851,4.53152725 C21.565236,0.378525608 27.8475555,-0.74024218 30.2958749,0.446329717 C31.5200345,1.03961566 33.1522475,1.5650975 34.367906,2.14143243 C36.661011,3.38883429 38.0621543,5.8097343 37.9978795,8.41331245 C37.927446,10.4081013 37.1982704,12.3238728 35.923609,13.8630677 C34.9596913,15.009723 33.3241687,15.3309015 31.9960966,14.6343394 C31.4884895,14.4238625 31.0065044,14.1565832 30.5594092,13.8376411 L30.5594092,13.8376411 Z" id="Path" fill="#491B4A"></path>
                    <path d="M28,10.5 C28,11.3289474 28.4492754,12 29,12 C29.5507246,12 30,11.3289474 30,10.5 C30,9.67105263 29.5507246,9 29,9 C28.4492754,9 28,9.71052632 28,10.5 Z" id="Path" fill="#FFB297"></path>
                    <path d="M52.291086,57.0309085 L53.6486453,54.9506084 C54.0043849,54.4085625 54.0955126,53.7361017 53.8967396,53.11984 C53.6979667,52.5035782 53.2304417,52.009083 52.623907,51.7735811 C49.0588564,50.3768115 45.8080382,48.2910717 43.0596827,45.637131 C42.5691536,45.1681067 41.8944112,44.9397194 41.2177913,45.0136864 C40.5411715,45.0876535 39.9325166,45.4563399 39.5563038,46.0201152 L38.3739134,47.8392897 C37.9966641,48.4128893 37.8989528,49.124673 38.1078099,49.7777374 C38.316667,50.4308018 38.8099508,50.9559136 39.4512024,51.2078091 C43.0096553,52.6212721 46.2491004,54.7251102 48.9803929,57.3964842 C49.4436259,57.8411124 50.0821064,58.0575161 50.7221796,57.9868375 C51.3622527,57.9161588 51.9373612,57.5657473 52.291086,57.0309085 Z" id="Path" fill="#FFC23B"></path>
                    <path d="M39.7505964,45 L40,45.1662469 L38.1634825,48 L37.9065212,47.8337531 C37.6263573,47.6476091 37.5458565,47.2719888 37.7251368,46.9874055 L37.9065212,46.7153652 L37.2338873,46.2770781 C36.9961337,46.1225481 36.9284916,45.8046727 37.0827336,45.5667506 L37.3019064,45.2342569 C37.456457,44.9965352 37.7743749,44.9289021 38.0123288,45.0831234 L38.6774051,45.5214106" id="Path" fill="#491B4A"></path>
                    <path d="M46.0556449,46.4341572 C45.5934316,46.476514 45.1438046,46.6007734 44.7302949,46.8004324 C44.3098159,47.0008072 44.032272,47.3957483 44,47.8396317 C44.0288093,48.3026738 44.3431365,48.706415 44.8024228,48.8703131 C45.2545314,49.0236139 45.7456804,49.0414609 46.2089167,48.9214212 C47.3920542,48.6628579 48.3869957,47.9108657 48.9137126,46.8770947 C49.4907357,45.3182957 47.0203554,46.2808327 46.0556449,46.4341572 Z" id="Path" fill="#FFB297"></path>
                    <polygon id="Path" fill="#FFB297" points="61.0298862 28.2412476 60.0140449 33 49 29.2181965 52.0589888 22"></polygon>
                    <path d="M56.8874823,27.7458348 L47,48.1286778 L51.086826,51 L61.6334738,31.7426445 C62.3597369,30.4567149 61.9758961,28.8234098 60.7545864,28.0028359 L57.7136363,26 L56.8874823,27.7458348 Z" id="Path" fill="#FFB297"></path>
                    <path d="M46.6560398,48.0040765 C45.5013578,48.4670271 44.1817212,48.8775682 43.5136552,49.9606979 C42.7568081,51.2236391 42.8430274,52.8567221 43.7280961,54.0224343 C44.6238572,55.1438135 45.9079415,55.8363727 47.291115,55.944116 C48.2384046,56.1152891 49.2114272,55.8897697 50.0046177,55.315202 C50.7398222,54.5743932 51.2459084,53.6151101 51.456218,52.5637032 C51.8769891,51.4556021 52.0573803,50.2615596 51.9840726,49.0697364 C51.8438612,47.9953416 50.9366111,46.1959487 49.7736813,46.0125155 C49.1221107,45.9076965 48.9489084,46.484201 48.4705402,46.8860072 C47.9322945,47.368503 47.3181015,47.7469599 46.6560398,48.0040765 L46.6560398,48.0040765 Z" id="Path" fill="#FFB297"></path>
                    <path d="M55,22.7466967 L50.8142643,31 L36.0857068,26.2974358 C34.7253427,25.8644188 33.7748319,24.0544079 33.286496,22.8333001 L33.286496,22.8333001 C32.2749432,20.2871603 34.0451606,17.5245121 36.9751756,17.0655141 L37.1670218,17.0655141 C38.0456997,16.9263251 38.9455409,17.0097329 39.7831067,17.3080036 L55,22.7466967 Z" id="Path" fill="#FF696A"></path>
                </g>
            </g>
        </g>
    </g>
</svg>