<?xml version="1.0" encoding="UTF-8"?>
<svg width="90px" height="87px" viewBox="0 0 90 87" version="1.1" xmlns="http://www.w3.org/2000/svg" xmlns:xlink="http://www.w3.org/1999/xlink">
    <!-- Generator: Sketch 58 (84663) - https://sketch.com -->
    <title>Page 1</title>
    <desc>Created with Sketch.</desc>
    <defs>
        <path d="M0.075376,1.42655488 C0.353335638,1.09151735 0.657947695,0.780645204 0.985834762,0.497423077 L10.8634962,0.497423077 C12.5460835,1.95105878 13.61584,4.1330649 13.61584,6.57230769 C13.61584,10.95 10.17296,14.4963462 5.92536,14.4963462 C3.58321156,14.4963462 1.48605328,13.4189405 0.075376,11.7187685 L0.075376,1.42655488 L0.075376,1.42655488 Z" id="path-1"></path>
        <path d="M10.6415845,0.258 C11.7974048,1.64450912 12.49584,3.44751148 12.49584,5.41846154 C12.49584,9.79615385 9.05296,13.3425 4.80536,13.3425 C2.99517134,13.3425 1.33132418,12.6989266 0.01764,11.6216714 L0.01764,0.258 L10.6415845,0.258 L10.6415845,0.258 Z" id="path-3"></path>
        <path d="M27.3170969,0.461204136 C27.4026865,0.756444002 27.4485714,1.06861889 27.4485714,1.39153846 L27.4485714,22.7696923 L27.4485714,24.2030342 L27.4485714,63.5056923 C27.4485714,65.3427521 25.9617143,66.8327863 24.128,66.8327863 L22.0057143,66.8327863 C20.1714286,66.8327863 18.6845714,65.3427521 18.6845714,63.5056923 L18.6845714,27.5318462 L16.724,27.5318462 L16.724,54.1319915 C16.724,55.9707692 15.2382857,57.4602308 13.404,57.4602308 L11.2811429,57.4602308 C9.44742857,57.4602308 7.96057143,55.9707692 7.96057143,54.1319915 L7.96057143,24.2030342 L7.96057143,22.7696923 L7.96057143,5.80666667 C6.92285714,6.38389744 5.24,11.179265 4.84742857,14.2417949 C4.18057143,19.4425983 4.04057143,25.335735 4.15485714,28.2247521 C4.27142857,31.1131966 4.50114286,34.9270427 2.31085714,34.9270427 C1.42816533,34.9270427 0.713927178,34.5518808 0.160599422,33.8319814 L0.160599422,9.08640042 C0.473600091,7.99318682 0.841907619,6.89653506 1.27428571,5.80666667 C2.2571146,3.32610487 3.63323608,1.6245895 5.11174219,0.461204136 L27.3170969,0.461204136 L27.3170969,0.461204136 Z" id="path-5"></path>
        <path d="M7.33790786,0.536286325 C7.41010214,0.809194145 7.44857143,1.09586221 7.44857143,1.39153846 L7.44857143,22.7696923 L7.44857143,24.2030342 L7.44857143,63.5056923 C7.44857143,65.3427521 5.96171429,66.8327863 4.128,66.8327863 L2.00571429,66.8327863 C1.40558519,66.8327863 0.842645647,66.6732897 0.3568,66.394326 L0.3568,0.536286325 L7.33790786,0.536286325 L7.33790786,0.536286325 Z" id="path-7"></path>
        <path d="M10.4148063,0.0788064516 C10.613554,0.639954959 10.7938414,1.20103342 10.901,1.65346774 C11.2506842,3.13362903 15.609,11.8802419 13.1542632,12.7908065 C10.7024211,13.7025 5.445,13.8170968 3.22357895,13.8170968 C2.14588091,13.8170968 1.04017642,13.9782826 0.187984211,14.4313691 L0.187984211,19.2983141 C1.64913007,20.0811372 4.10703933,20.3780862 7.31384211,20.3107258 C12.6882105,20.196129 14.6734211,19.5130645 19.1122105,17.8037097 C23.5521579,16.0949194 20.9816316,9.9433871 19.1122105,3.79241935 C18.6196274,2.17152144 17.8837776,0.969765593 17.0221629,0.0788064516 L10.4148063,0.0788064516 L10.4148063,0.0788064516 Z" id="path-9"></path>
        <path d="M10.7541376,0.545435484 C10.8113123,0.737886074 10.8612001,0.920912376 10.901,1.08895161 C11.2506842,2.5691129 15.609,11.3157258 13.1542632,12.2262903 C10.7024211,13.1379839 5.445,13.2525806 3.22357895,13.2525806 C2.14563684,13.2525806 1.0396756,13.4138394 0.187405263,13.8671608 L0.187405263,18.7334877 C1.64848077,19.5165427 4.10661574,19.8135789 7.31384211,19.7462097 C12.6882105,19.6316129 14.6734211,18.9485484 19.1122105,17.2391935 C23.5521579,15.5304032 20.9816316,9.37887097 19.1122105,3.22790323 C18.7886248,2.16310938 18.3600601,1.27919155 17.8598263,0.545435484 L10.7541376,0.545435484 L10.7541376,0.545435484 Z" id="path-11"></path>
        <polygon id="path-13" points="0 51.2536 0 0.433028571 57.6277296 0.433028571 57.6277296 51.2536"></polygon>
    </defs>
    <g id="Page-1" stroke="none" stroke-width="1" fill="none" fill-rule="evenodd">
        <g id="Reco_Mobile" transform="translate(-22.000000, -356.000000)">
            <g id="Page-1" transform="translate(22.000000, 356.000000)">
                <g id="Group-11" transform="translate(8.000000, 0.000000)">
                    <path d="M81.8904389,44.2430702 C81.8904389,66.7414675 63.6551194,84.9785934 41.160925,84.9785934 C18.6667306,84.9785934 0.430841667,66.7414675 0.430841667,44.2430702 C0.430841667,21.7452424 18.6667306,3.50754702 41.160925,3.50754702 C63.6551194,3.50754702 81.8904389,21.7452424 81.8904389,44.2430702" id="Fill-1" fill="#F9E0DB"></path>
                    <path d="M48.2115014,28.8110821 C47.4940014,28.7803272 46.8875431,29.3396119 46.8567931,30.0583669 L45.1820569,69.6679166 C45.1621264,70.1480358 45.4075569,70.574049 45.7845292,70.8155325 L45.2031264,84.5857841 C45.1871819,84.9451616 45.4650708,85.2487245 45.8272375,85.2623934 C46.1848486,85.2783404 46.4877931,84.998698 46.5043069,84.6398901 L47.0857097,70.871347 C47.4831819,70.6623272 47.7639181,70.2585258 47.7832792,69.7772675 L49.4585847,30.1677179 C49.4893347,29.4495325 48.9312792,28.8412675 48.2115014,28.8110821" id="Fill-3" fill="#FEFEFE"></path>
                    <path d="M48.1864458,29.380049 C47.7622097,29.380049 47.4421819,29.6887377 47.4256681,30.082857 L45.7509319,69.6918371 C45.7401125,69.9515457 45.8676681,70.1918901 46.0914597,70.3359828 C46.2622931,70.4453338 46.3619458,70.636698 46.3534042,70.839453 L45.7720014,84.6097046 C45.7708625,84.6381815 45.7822514,84.6575457 45.7925014,84.6677974 C45.8073069,84.6843139 45.8260986,84.6922874 45.8488764,84.6934265 L45.8551403,85.2629629 L45.8551403,84.6934265 C45.8972792,84.6934265 45.9331542,84.6581152 45.9354319,84.6131219 L46.5168347,70.8474265 C46.5253764,70.644102 46.6415431,70.4612808 46.8214875,70.3667377 C47.0572375,70.2431483 47.2035847,70.0141947 47.2144042,69.7544861 L48.8897097,30.1437974 C48.8982514,29.9478768 48.8299181,29.7610689 48.6966681,29.6169762 C48.5645569,29.4723139 48.3834736,29.3885921 48.1875847,29.380049 L48.1864458,29.380049 Z M45.8551403,85.8324993 L45.8551403,85.8324993 C45.8471681,85.8324993 45.8101542,85.8324993 45.8021819,85.8313603 C45.4781681,85.8194 45.1763625,85.6804331 44.9548486,85.4400887 C44.7339042,85.2003139 44.6194458,84.8876384 44.6342514,84.561294 L45.2036958,71.081506 C44.8107792,70.7124464 44.5904042,70.1873338 44.6131819,69.643996 L46.2879181,30.0344464 C46.3306264,29.028645 47.1511958,28.2404066 48.1551264,28.2404066 C48.1636681,28.2404066 48.2274458,28.2415457 48.2359875,28.2421152 C48.7353903,28.2626185 49.1966403,28.4773338 49.5354597,28.8463934 C49.8742792,29.2143139 50.0490986,29.6927245 50.0274597,30.1922079 L48.3521542,69.8011881 C48.3305153,70.3450954 48.0657236,70.8502742 47.6426264,71.1851616 L47.0731819,84.6638106 C47.0424319,85.3204861 46.5077236,85.8324993 45.8551403,85.8324993 L45.8551403,85.8324993 Z" id="Fill-5" fill="#5D98C1"></path>
                    <path d="M67.3735347,8.76607682 C67.3735347,13.0877192 63.8725903,16.5886596 59.5527847,16.5886596 C55.2324097,16.5886596 51.7308958,13.0877192 51.7308958,8.76607682 C51.7308958,4.44614305 55.2324097,0.944063576 59.5527847,0.944063576 C63.8725903,0.944063576 67.3735347,4.44614305 67.3735347,8.76607682" id="Fill-7" fill="#FEFEFE"></path>
                    <path d="M59.5525569,1.51337219 C55.5539181,1.51337219 52.3006819,4.76713377 52.3006819,8.76584901 C52.3006819,12.7657033 55.5539181,16.0194649 59.5525569,16.0194649 C63.5506264,16.0194649 66.8038625,12.7657033 66.8038625,8.76584901 C66.8038625,4.76713377 63.5506264,1.51337219 59.5525569,1.51337219 M59.5525569,17.1585377 C54.9258208,17.1585377 51.1617931,13.3933325 51.1617931,8.76584901 C51.1617931,4.13836556 54.9258208,0.374299338 59.5525569,0.374299338 C64.1792931,0.374299338 67.9427514,4.13836556 67.9427514,8.76584901 C67.9427514,13.3933325 64.1792931,17.1585377 59.5525569,17.1585377" id="Fill-9" fill="#5D98C1"></path>
                </g>
                <g id="Group-18" transform="translate(61.000000, 3.000000)">
                    <g id="Group-14">
                        <mask id="mask-2" fill="white">
                            <use xlink:href="#path-1"></use>
                        </mask>
                        <g id="Clip-13"></g>
                        <path d="M13.938736,7.63915385 C13.938736,11.583 10.835776,14.7797308 7.007616,14.7797308 C3.178336,14.7797308 0.075376,11.583 0.075376,7.63915385 C0.075376,3.69530769 3.178336,0.497423077 7.007616,0.497423077 C10.835776,0.497423077 13.938736,3.69530769 13.938736,7.63915385" id="Fill-12" fill="#F58F7B" mask="url(#mask-2)"></path>
                    </g>
                    <g id="Group-17" transform="translate(1.120000, 1.153846)">
                        <mask id="mask-4" fill="white">
                            <use xlink:href="#path-3"></use>
                        </mask>
                        <g id="Clip-16"></g>
                        <path d="M9.27388,0.258 C9.94308,1.35646154 10.3362,2.65165385 10.3362,4.04434615 C10.3362,7.98819231 7.23324,11.1849231 3.40564,11.1849231 C2.17364,11.1849231 1.01948,10.8503077 0.01764,10.2705 C1.24236,12.2839615 3.41012,13.6258846 5.88756,13.6258846 C9.71572,13.6258846 12.81868,10.4291538 12.81868,6.48530769 C12.81868,3.80896154 11.38788,1.48107692 9.27388,0.258" id="Fill-15" fill="#F37D6C" mask="url(#mask-4)"></path>
                    </g>
                </g>
                <g id="Group-23" transform="translate(47.000000, 16.000000)">
                    <path d="M26.5357704,0.934025203 L15.9705111,0.934025203 C15.9705111,0.934025203 15.0095111,0.796643089 13.5972889,0.936334146 C13.3337889,0.938643089 13.0783259,0.974431707 12.8326222,1.03446423 C9.94158519,1.49452114 5.77782593,3.16504146 3.57625185,8.73883008 C-0.0157296296,17.8239439 0.793714815,27.3766187 1.02621481,31.5696593 C1.25814074,35.7621228 2.41604815,38.0924236 4.61762222,38.0924236 C6.81804815,38.0924236 6.58727037,34.2486106 6.47073333,31.3370333 C6.35534444,28.4248789 6.49599259,22.4845455 7.16593704,17.2420902 C7.56032593,14.1550333 9.25154815,9.32068374 10.2940667,8.73883008 L10.2940667,25.8382854 L10.2940667,27.2831065 L10.2940667,57.4517569 C10.2940667,59.305261 11.7878074,60.8072285 13.6300111,60.8072285 L15.7621222,60.8072285 C17.6049,60.8072285 19.0980667,59.305261 19.0980667,57.4517569 L19.0980667,30.638578 L21.0677148,30.638578 L21.0677148,66.899952 C21.0677148,68.7523016 22.5608815,70.2542691 24.4036593,70.2542691 L26.5357704,70.2542691 C28.3785481,70.2542691 29.8722889,68.7523016 29.8722889,66.899952 L29.8722889,27.2831065 L29.8722889,25.8382854 L29.8722889,4.28891951 C29.8722889,2.43599268 28.3785481,0.934025203 26.5357704,0.934025203" id="Fill-19" fill="#FEFEFE"></path>
                    <path d="M19.0980667,30.0613423 L21.0677148,30.0613423 C21.3846037,30.0613423 21.6417889,30.3193667 21.6417889,30.638578 L21.6417889,66.899952 C21.6417889,68.4313585 22.8806407,69.6770333 24.4036593,69.6770333 L26.5357704,69.6770333 C28.0587889,69.6770333 29.2982148,68.4313585 29.2982148,66.899952 L29.2982148,4.28891951 C29.2982148,2.75693577 28.0587889,1.51126098 26.5357704,1.51126098 L15.9705111,1.51126098 C15.9441037,1.51126098 15.9165481,1.50952927 15.8901407,1.50548862 C15.8861222,1.50491138 15.4917333,1.45122846 14.8516407,1.45122846 C14.4584,1.45122846 14.0554,1.47143171 13.6535481,1.51068374 C13.396937,1.51530163 13.1833815,1.54300894 12.9675296,1.5955374 C10.0449185,2.0619439 6.18082593,3.70879756 4.11014074,8.95240732 C0.766733333,17.4066024 1.29947407,26.4380333 1.55551111,30.7776919 L1.59971481,31.5379114 C1.81843704,35.5040984 2.83397407,37.5151878 4.61762222,37.5151878 C4.89145556,37.5151878 5.0986963,37.4314886 5.27149259,37.2502366 C6.10217778,36.379765 5.99023333,33.6442447 5.90871481,31.6470089 L5.89723333,31.3601228 C5.79102963,28.6852122 5.88977037,22.6987 6.59645556,17.1682041 C6.97878889,14.1804317 8.66197407,8.98935041 10.0156407,8.23432602 C10.1936037,8.13504146 10.4094556,8.13735041 10.5856963,8.24183008 C10.7607889,8.34573252 10.8681407,8.53448862 10.8681407,8.73940732 L10.8681407,57.4517569 C10.8681407,58.9831634 12.1069926,60.2299927 13.6300111,60.2299927 L15.7621222,60.2299927 C17.2851407,60.2299927 18.5239926,58.9831634 18.5239926,57.4517569 L18.5239926,30.638578 C18.5239926,30.3193667 18.7806037,30.0613423 19.0980667,30.0613423 M26.5357704,70.8315049 L24.4036593,70.8315049 C22.247437,70.8315049 20.4936407,69.0674724 20.4936407,66.899952 L20.4936407,31.2158138 L19.6721407,31.2158138 L19.6721407,57.4517569 C19.6721407,59.6204317 17.9177704,61.3844642 15.7621222,61.3844642 L13.6300111,61.3844642 C11.474363,61.3844642 9.71999259,59.6204317 9.71999259,57.4517569 L9.71999259,10.5594317 C8.95704815,12.1739602 8.03623333,14.9614317 7.73541852,17.3159764 C7.03734444,22.7754724 6.93975185,28.6782854 7.04423333,31.3139439 L7.05571481,31.5990984 C7.15617778,34.0483098 7.26984444,36.8242366 6.09930741,38.0497081 C5.70721481,38.4612772 5.20891852,38.6696593 4.61762222,38.6696593 C2.11351111,38.6696593 0.71277037,36.2920252 0.453288889,31.6019846 L0.409659259,30.8458057 C0.148455556,26.4230252 -0.394044444,17.2184236 3.04236296,8.52583008 C5.3134,2.77713902 9.57073333,0.969236585 12.7430667,0.46473252 C12.9985296,0.400082114 13.2999185,0.361407317 13.5921222,0.359098374 C13.9801963,0.31869187 14.4210852,0.296756911 14.8516407,0.296756911 C15.4595852,0.296756911 15.8757889,0.340626829 16.0072519,0.356789431 L26.5357704,0.356789431 C28.6919926,0.356789431 30.446363,2.12082195 30.446363,4.28891951 L30.446363,66.899952 C30.446363,69.0674724 28.6919926,70.8315049 26.5357704,70.8315049" id="Fill-21" fill="#5D98C1"></path>
                </g>
                <g id="Group-36" transform="translate(50.000000, 19.000000)">
                    <g id="Group-26">
                        <mask id="mask-6" fill="white">
                            <use xlink:href="#path-5"></use>
                        </mask>
                        <g id="Clip-25"></g>
                        <path d="M25.7946286,0.520595726 L15.2780571,0.520595726 C15.2780571,0.520595726 14.3220571,0.385450427 12.9163429,0.522886325 C12.6540571,0.525176923 12.3992,0.560108547 12.1540571,0.621382051 C9.27748571,1.07663846 5.13291429,2.73331368 2.94091429,8.2633906 C-0.634514286,17.2774675 0.1712,26.7531 0.402628571,30.9122538 C0.633485714,35.072553 1.78662857,37.3837667 3.97805714,37.3837667 C6.16777143,37.3837667 5.93862857,33.5699205 5.82262857,30.6820487 C5.7072,27.7930316 5.84777143,21.8998949 6.51462857,16.6990915 C6.90662857,13.6359889 8.59062857,8.84119402 9.6272,8.2633906 L9.6272,25.2275615 L9.6272,26.6597581 L9.6272,56.589288 C9.6272,58.4280658 11.1152,59.9175274 12.9483429,59.9175274 L15.0706286,59.9175274 C16.9049143,59.9175274 18.3912,58.4280658 18.3912,56.589288 L18.3912,29.9885701 L20.3517714,29.9885701 L20.3517714,65.9618436 C20.3517714,67.7994761 21.8386286,69.2906556 23.6717714,69.2906556 L25.7946286,69.2906556 C27.6294857,69.2906556 29.1152,67.7994761 29.1152,65.9618436 L29.1152,26.6597581 L29.1152,25.2275615 L29.1152,3.84883504 C29.1152,2.01120256 27.6294857,0.520595726 25.7946286,0.520595726" id="Fill-24" fill="#F58F7B" mask="url(#mask-6)"></path>
                    </g>
                    <path d="M6.45982857,17.1509692 L7.96097143,5.31430256 C5.19982857,4.98102051 3.73982857,10.3782427 3.34725714,13.4407726 C2.67982857,18.6421487 2.53982857,24.5358581 2.65468571,27.4237299 C2.77011429,30.2892684 2.99468571,34.0607385 0.859257143,34.1208667 C1.41411429,36.2402427 2.43925714,37.3838239 3.97811429,37.3838239 C6.16782857,37.3838239 5.93868571,33.5699778 5.82268571,30.682106 C5.71011429,27.8761231 5.84097143,22.2378154 6.45982857,17.1509692" id="Fill-27" fill="#F37D6C"></path>
                    <path d="M17.1841714,26.7305376 L15.2241714,26.7305376 L15.2241714,53.3312556 C15.2241714,55.170606 13.7378857,56.6600675 11.9036,56.6600675 L9.78074286,56.6600675 C9.72988571,56.6600675 9.68302857,56.6474692 9.63274286,56.644606 C9.66302857,58.4576145 11.1338857,59.9172983 12.9481714,59.9172983 L15.0710286,59.9172983 C15.8790286,59.9172983 16.6087429,59.6178026 17.1841714,59.1373496 L17.1841714,26.7305376 Z" id="Fill-29" fill="#F37D6C"></path>
                    <path d="M7.96091429,43.7086812 L7.96091429,41.7112795 L16.9837714,43.7086812 L16.7929143,54.7694077 C16.7929143,54.7694077 15.7466286,57.6429632 12.9717714,57.4608607 C10.1957714,57.2781855 7.97977143,56.5864248 7.97062857,54.3215957 C7.96091429,52.0573393 7.96091429,43.7086812 7.96091429,43.7086812" id="Fill-31" fill="#FEFEFE"></path>
                    <g id="Group-35" transform="translate(20.000000, 0.000000)">
                        <mask id="mask-8" fill="white">
                            <use xlink:href="#path-7"></use>
                        </mask>
                        <g id="Clip-34"></g>
                        <path d="M5.94194286,0.536286325 C5.94251429,0.554038462 5.94822857,0.571790598 5.94822857,0.591260684 L5.94822857,21.9694145 L5.94822857,23.4027564 L5.94822857,62.7048419 C5.94822857,64.5419017 4.46194286,66.0325085 2.62708571,66.0325085 L0.504228571,66.0325085 C0.453942857,66.0325085 0.407085714,66.0204829 0.3568,66.0181923 C0.387085714,67.8294829 1.85737143,69.290312 3.67165714,69.290312 L5.79451429,69.290312 C7.62937143,69.290312 9.11508571,67.7997051 9.11508571,65.9620726 L9.11508571,26.6599872 L9.11508571,25.2272179 L9.11508571,3.8490641 C9.11508571,2.06125214 7.70651429,0.614739316 5.94194286,0.536286325" id="Fill-33" fill="#F37D6C" mask="url(#mask-8)"></path>
                    </g>
                </g>
                <g id="Group-43" transform="translate(47.000000, 16.000000)">
                    <path d="M19.0799471,30.0613423 L21.0477265,30.0613423 C21.3643147,30.0613423 21.6212559,30.3193667 21.6212559,30.638578 L21.6212559,66.899952 C21.6212559,68.4313585 22.8589324,69.6770333 24.3805059,69.6770333 L26.5105941,69.6770333 C28.0321676,69.6770333 29.2704176,68.4313585 29.2704176,66.899952 L29.2704176,4.28891951 C29.2704176,2.75693577 28.0321676,1.51126098 26.5105941,1.51126098 L15.9553588,1.51126098 C15.9289765,1.51126098 15.9014471,1.50952927 15.8750647,1.50548862 C15.87105,1.50491138 15.4770353,1.45122846 14.83755,1.45122846 C14.4446824,1.45122846 14.0420647,1.47143171 13.6405941,1.51068374 C13.3842265,1.51530163 13.1708735,1.54300894 12.9552265,1.5955374 C10.0353882,2.0619439 6.17496176,3.70879756 4.10624118,8.95240732 C0.766005882,17.4066024 1.29824118,26.4380333 1.55403529,30.7776919 L1.59819706,31.5379114 C1.81671176,35.5040984 2.83128529,37.5151878 4.61324118,37.5151878 C4.88681471,37.5151878 5.09385882,37.4314886 5.26649118,37.2502366 C6.09638824,36.379765 5.98455,33.6442447 5.90310882,31.6470089 L5.89163824,31.3601228 C5.78553529,28.6852122 5.88418235,22.6987 6.59019706,17.1682041 C6.97216765,14.1804317 8.65375588,8.98935041 10.0061382,8.23432602 C10.1839324,8.13504146 10.3995794,8.13735041 10.5756529,8.24183008 C10.7505794,8.34573252 10.8578294,8.53448862 10.8578294,8.73940732 L10.8578294,57.4517569 C10.8578294,58.9831634 12.0955059,60.2299927 13.6170794,60.2299927 L15.7471676,60.2299927 C17.2687412,60.2299927 18.5064176,58.9831634 18.5064176,57.4517569 L18.5064176,30.638578 C18.5064176,30.3193667 18.7627853,30.0613423 19.0799471,30.0613423 M26.5105941,70.8315049 L24.3805059,70.8315049 C22.2263294,70.8315049 20.4741971,69.0674724 20.4741971,66.899952 L20.4741971,31.2158138 L19.6534765,31.2158138 L19.6534765,57.4517569 C19.6534765,59.6204317 17.9007706,61.3844642 15.7471676,61.3844642 L13.6170794,61.3844642 C11.4634765,61.3844642 9.71077059,59.6204317 9.71077059,57.4517569 L9.71077059,10.5594317 C8.94855,12.1739602 8.02860882,14.9614317 7.72807941,17.3159764 C7.03066765,22.7754724 6.93316765,28.6782854 7.03755,31.3139439 L7.04902059,31.5990984 C7.14938824,34.0483098 7.26294706,36.8242366 6.09352059,38.0497081 C5.7018,38.4612772 5.20397647,38.6696593 4.61324118,38.6696593 C2.11150588,38.6696593 0.712094118,36.2920252 0.452858824,31.6019846 L0.409270588,30.8458057 C0.148314706,26.4230252 -0.393670588,17.2184236 3.03947647,8.52583008 C5.30835882,2.77713902 9.56165294,0.969236585 12.7309765,0.46473252 C12.9861971,0.400082114 13.2873,0.361407317 13.5792265,0.359098374 C13.9669324,0.31869187 14.4074029,0.296756911 14.83755,0.296756911 C15.4449176,0.296756911 15.8607265,0.340626829 15.9920647,0.356789431 L26.5105941,0.356789431 C28.6647706,0.356789431 30.4174765,2.12082195 30.4174765,4.28891951 L30.4174765,66.899952 C30.4174765,69.0674724 28.6647706,70.8315049 26.5105941,70.8315049" id="Fill-37" fill="#5D98C1"></path>
                    <path d="M25.9600632,0.934025203 C28.3906809,0.934025203 33.7141809,1.05062683 35.5655338,7.34134228 C37.4180338,13.6309033 39.9645044,19.9216187 35.5655338,21.6683341 C31.1688574,23.4156268 29.2016515,24.1146593 23.8775779,24.231261 C18.5535044,24.3478626 15.3130632,23.4156268 15.3130632,20.8532772 C15.3130632,18.2903504 17.6278279,17.5913179 19.8261662,17.5913179 C22.026225,17.5913179 27.2344456,17.4747163 29.6633426,16.5424805 C32.0951074,15.6113992 27.7781515,6.66828537 27.4311662,5.15419593 C27.0836074,3.63952927 25.9600632,0.934025203 25.9600632,0.934025203" id="Fill-39" fill="#FEFEFE"></path>
                    <path d="M26.8141632,1.52032358 C27.180075,2.45313659 27.7524574,3.98858374 27.9904721,5.02356748 C28.0598691,5.32834797 28.3546632,6.08221789 28.6953397,6.95615285 C30.2140456,10.846722 31.5136632,14.4821528 30.7548838,16.2092423 C30.5707809,16.6288927 30.2639426,16.9302098 29.8670603,17.0820228 C27.3119868,18.0627463 21.9936485,18.1689577 19.8257074,18.1689577 C18.0288397,18.1689577 15.8861338,18.6342098 15.8861338,20.8531041 C15.8861338,22.7181528 18.288075,23.663665 23.0248544,23.663665 C23.2984279,23.663665 23.5788838,23.6602016 23.865075,23.6544293 C29.0985309,23.5395593 31.0531191,22.8416813 35.3551632,21.1319089 C38.7711044,19.7748276 37.3246632,15.0611203 35.6505309,9.60277886 C35.4371779,8.90778699 35.2221044,8.20644553 35.0156338,7.50510407 C33.4527662,2.1968439 29.266575,1.58959187 26.8141632,1.52032358 M23.0248544,24.8181366 C20.9750603,24.8181366 14.739075,24.8181366 14.739075,20.8531041 C14.739075,18.4137057 16.5932956,17.0144862 19.8257074,17.0144862 C21.4677221,17.0144862 27.0148985,16.9417545 29.4587074,16.0031691 C29.5332662,15.9748846 29.6278985,15.9194699 29.7058985,15.7428358 C30.3344868,14.3124455 28.5731779,9.8019252 27.6274279,7.3781122 C27.2408691,6.38699837 26.9609868,5.67064878 26.8726632,5.28390081 C26.5394426,3.83446179 25.4417074,1.18321789 25.4308103,1.15666504 C25.356825,0.978876423 25.376325,0.775112195 25.4830015,0.614063415 C25.5891044,0.453014634 25.7680456,0.35661626 25.9601779,0.35661626 C28.1883397,0.35661626 34.1077368,0.35661626 36.1156632,7.17723415 C36.3204132,7.87453496 36.5343397,8.57125854 36.7459721,9.26220976 C38.5118691,15.0189821 40.1802662,20.4565431 35.7761338,22.2055675 C31.3387368,23.9690228 29.3210603,24.6899902 23.8897368,24.8089008 C23.5955162,24.8146732 23.3070309,24.8181366 23.0248544,24.8181366" id="Fill-41" fill="#5D98C1"></path>
                </g>
                <g id="Group-50" transform="translate(64.000000, 20.000000)">
                    <g id="Group-46">
                        <mask id="mask-10" fill="white">
                            <use xlink:href="#path-9"></use>
                        </mask>
                        <g id="Clip-45"></g>
                        <path d="M10.9355632,0.0788064516 C13.3891421,0.0788064516 18.7635105,0.193403226 20.6317737,6.34493548 C22.5023526,12.4964677 25.0728789,18.6485645 20.6317737,20.3573548 C16.1941421,22.0650161 14.2077737,22.7486452 8.83398421,22.8632419 C3.45903684,22.9772742 0.187984211,22.0650161 0.187984211,19.559129 C0.187984211,17.0526774 2.52519474,16.3690484 4.74372105,16.3690484 C6.96456316,16.3690484 12.2225632,16.2555806 14.6738263,15.3438871 C17.1285632,14.4333226 12.7714053,5.68783871 12.4211421,4.20598387 C12.0697211,2.72469355 10.9355632,0.0788064516 10.9355632,0.0788064516" id="Fill-44" fill="#F58F7B" mask="url(#mask-10)"></path>
                    </g>
                    <g id="Group-49" transform="translate(0.000000, 0.564516)">
                        <mask id="mask-12" fill="white">
                            <use xlink:href="#path-11"></use>
                        </mask>
                        <g id="Clip-48"></g>
                        <path d="M20.6317737,5.78019355 C19.7691421,2.93785484 18.1556158,1.39390323 16.4297737,0.545435484 C16.6075105,0.943419355 16.7754053,1.36341935 16.9160895,1.82858065 C18.7860895,7.98067742 21.3566158,14.1322097 16.9160895,15.841 C12.4778789,17.5497903 10.4920895,18.2328548 5.11772105,18.3474516 C3.24308947,18.3869677 1.63187895,18.2989032 0.317668421,18.0640645 C0.235457895,18.3429355 0.187405263,18.6500323 0.187405263,18.9943871 C0.187405263,21.5008387 3.45903684,22.4125323 8.83398421,22.2990645 C14.2077737,22.1844677 16.1941421,21.5008387 20.6317737,19.7926129 C25.0728789,18.0838226 22.5017737,11.9317258 20.6317737,5.78019355" id="Fill-47" fill="#F37D6C" mask="url(#mask-12)"></path>
                    </g>
                </g>
                <g id="Group-110">
                    <path d="M74.7582934,17.5050286 C75.1258828,18.4284571 75.7008894,19.9484571 75.9399954,20.9730286 C76.0097106,21.2747429 76.3058563,22.0210286 76.6480947,22.8861714 C78.1737636,26.7376 79.4793397,30.3364571 78.7170815,32.0461714 C78.5321344,32.4616 78.2238894,32.7598857 77.8251874,32.9101714 C75.2583993,33.8810286 69.9156775,33.9861714 67.7377967,33.9861714 C65.9326907,33.9861714 63.7801609,34.4467429 63.7801609,36.6433143 C63.7801609,38.4896 66.1931146,39.4256 70.9516113,39.4256 C71.2264391,39.4256 71.5081808,39.4221714 71.7956841,39.4164571 C77.0531344,39.3027429 79.0166841,38.6118857 83.3384523,36.9193143 C86.770055,35.5758857 85.3169821,30.9096 83.6351742,25.5061714 C83.420843,24.8181714 83.2047834,24.1238857 82.9973662,23.4296 C81.4273331,18.1747429 77.221949,17.5736 74.7582934,17.5050286 M70.9516113,40.5684571 C68.8924192,40.5684571 62.627843,40.5684571 62.627843,36.6433143 C62.627843,34.2284571 64.4905649,32.8433143 67.7377967,32.8433143 C69.3873397,32.8433143 74.959949,32.7713143 77.4149623,31.8421714 C77.4898629,31.8141714 77.5849291,31.7593143 77.6632868,31.5844571 C78.294757,30.1684571 76.5253728,25.7033143 75.5752868,23.3038857 C75.1869556,22.3227429 74.9057901,21.6136 74.8170616,21.2307429 C74.4823132,19.7958857 73.379545,17.1713143 73.368598,17.1450286 C73.2942735,16.9690286 73.3138629,16.7673143 73.4210285,16.6078857 C73.5276179,16.4484571 73.7073795,16.3530286 73.9003927,16.3530286 C76.1387702,16.3530286 82.0853066,16.3530286 84.1024391,23.1050286 C84.3081278,23.7953143 84.5230351,24.4850286 84.7356377,25.1690286 C86.5096311,30.8678857 88.1856775,36.2507429 83.761353,37.9821714 C79.3036113,39.7278857 77.2766841,40.4416 71.8204589,40.5593143 C71.5248894,40.5650286 71.2350815,40.5684571 70.9516113,40.5684571" id="Fill-51" fill="#5D98C1"></path>
                    <path d="M74.0471404,16.8644 C74.0471404,16.8644 71.3288225,25.8238286 69.5600146,30.6992571 C67.7451139,35.7026857 67.5209881,36.6358286 65.4808093,39.8129714 C65.4808093,39.8129714 67.0468093,40.6135429 71.736743,40.3421143 C76.4266768,40.0718286 81.0336437,38.4861143 81.3735775,38.2838286 C81.3735775,38.2838286 81.705445,34.1935429 79.5235311,27.5432571 C77.790445,22.2672571 75.270902,18.6718286 74.5916106,16.8644 L74.0471404,16.8644 Z" id="Fill-53" fill="#FEFEFE"></path>
                    <path d="M66.3618139,39.4960571 C66.9800325,39.6452 68.1018139,39.8263429 69.8902113,39.8269143 L69.8907874,39.8269143 C70.4606086,39.8269143 71.0707609,39.8080571 71.7033834,39.7714857 C75.674847,39.5429143 79.6831848,38.3240571 80.8118801,37.9023429 C80.8314695,36.8063429 80.7415887,33.1029143 78.9756616,27.7206286 C77.8486947,24.2880571 76.3835225,21.5766286 75.3130192,19.5966286 C74.9373636,18.9012 74.6135623,18.3023429 74.3669662,17.7880571 C73.6703901,20.0583429 71.5558868,26.8863429 70.1022377,30.8926286 L69.552006,32.4154857 C68.3184497,35.8423429 67.8817212,37.0572 66.3618139,39.4960571 M69.8907874,40.9697714 L69.8902113,40.9697714 C66.5819066,40.9692 65.3466219,40.3874857 65.2169861,40.3206286 C65.0729464,40.2474857 64.9669331,40.1172 64.9248735,39.9617714 C64.8822377,39.8069143 64.9081649,39.6417714 64.9945887,39.5063429 C66.7737675,36.7354857 67.1321384,35.7394857 68.4665225,32.0314857 L69.0173305,30.5057714 C70.7613636,25.7000571 73.4681583,16.7892 73.4952377,16.6994857 C73.5689861,16.4583429 73.7925358,16.2932 74.047198,16.2932 L74.5916682,16.2932 C74.8325026,16.2932 75.0474099,16.4412 75.1321053,16.6646286 C75.3493172,17.2440571 75.7814364,18.0440571 76.3287874,19.0566286 C77.4188801,21.0743429 78.9122841,23.8377714 80.0715159,27.3663429 C82.2638007,34.0486286 81.9613172,38.1583429 81.9480656,38.3297714 C81.9325093,38.5137714 81.8293768,38.6789143 81.6692046,38.7737714 C81.1765887,39.0674857 76.4059927,40.6457714 71.7702179,40.9126286 C71.1157013,40.9503429 70.4825026,40.9697714 69.8907874,40.9697714" id="Fill-55" fill="#5D98C1"></path>
                    <path d="M66.9886172,63.0440571 C63.4118225,63.0440571 58.1272927,60.5577714 57.903743,60.4520571 C57.6168159,60.3160571 57.4952464,59.9749143 57.6329483,59.6897714 C57.7700742,59.4057714 58.1134649,59.2852 58.4015444,59.4206286 C58.4539748,59.4457714 63.6739748,61.9012 66.9886172,61.9012 C67.3072331,61.9012 67.5647762,62.1566286 67.5647762,62.4726286 C67.5647762,62.7886286 67.3072331,63.0440571 66.9886172,63.0440571" id="Fill-57" fill="#5D98C1"></path>
                    <path d="M59.6988238,67.8197143 C59.1860424,67.8197143 58.6513669,67.7934286 58.0930689,67.7357143 C57.7761815,67.7031429 57.5468702,67.422 57.5797113,67.1082857 C57.6125523,66.7945714 57.8891086,66.5597143 58.2123338,66.5991429 C63.4893735,67.1408571 66.5856517,64.5991429 66.6161881,64.574 C66.8604795,64.37 67.2234596,64.4008571 67.427996,64.6408571 C67.6336848,64.8814286 67.6037245,65.242 67.3611616,65.446 C67.2338305,65.5528571 64.473453,67.8197143 59.6988238,67.8197143" id="Fill-59" fill="#5D98C1"></path>
                    <path d="M64.5658113,72.0870286 C61.2488642,72.0870286 58.1266589,71.0253143 57.9630298,70.9687429 C57.662851,70.8647429 57.5038311,70.5396 57.6086921,70.2418857 C57.7129768,69.9436 58.0436921,69.7864571 58.3415662,69.8893143 C58.3893874,69.9053143 63.1254139,71.5127429 66.8692947,70.7247429 C67.1786921,70.6613143 67.4863609,70.8573143 67.5526192,71.1658857 C67.6183013,71.4744571 67.4195265,71.7773143 67.1078245,71.8430286 C66.2793079,72.0173143 65.4162219,72.0870286 64.5658113,72.0870286" id="Fill-61" fill="#5D98C1"></path>
                    <path d="M67.7448258,1.5184 C63.6990377,1.5184 60.4074417,4.78297143 60.4074417,8.79497143 C60.4074417,12.8081143 63.6990377,16.0726857 67.7448258,16.0726857 C71.7900377,16.0726857 75.0816338,12.8081143 75.0816338,8.79497143 C75.0816338,4.78297143 71.7900377,1.5184 67.7448258,1.5184 M67.7448258,17.2155429 C63.0635344,17.2155429 59.2551238,13.4378286 59.2551238,8.79497143 C59.2551238,4.15211429 63.0635344,0.375542857 67.7448258,0.375542857 C72.4261172,0.375542857 76.2339517,4.15211429 76.2339517,8.79497143 C76.2339517,13.4378286 72.4261172,17.2155429 67.7448258,17.2155429" id="Fill-63" fill="#5D98C1"></path>
                    <path d="M57.0515464,65.0139429 L47.9292219,61.7133714 L47.8975331,61.7630857 C49.6634603,58.3602286 50.6659768,54.5048 50.6659768,50.4145143 C50.6659768,36.6962286 39.4533477,25.5756571 25.6209238,25.5756571 C11.7896523,25.5756571 0.575870861,36.6962286 0.575870861,50.4145143 C0.575870861,64.1333714 11.7896523,75.2533714 25.6209238,75.2533714 C33.6808113,75.2533714 40.8453477,71.4739429 45.4263874,65.6093714 L45.3929702,65.6625143 L57.0515464,65.0139429 Z" id="Fill-65" fill="#FEFEFE"></path>
                    <g id="Group-69" transform="translate(0.000000, 24.571429)">
                        <mask id="mask-14" fill="white">
                            <use xlink:href="#path-13"></use>
                        </mask>
                        <g id="Clip-68"></g>
                        <path d="M25.6210967,1.57588571 C12.1291828,1.57588571 1.15220265,12.4621714 1.15220265,25.8433143 C1.15220265,39.2244571 12.1291828,50.1107429 25.6210967,50.1107429 C33.2407987,50.1107429 40.2935603,46.6764571 44.9713947,40.6878857 C45.1298384,40.4838857 45.4012093,40.4158857 45.6351298,40.5050286 L54.2239311,40.0273143 L47.9564742,37.7598857 C47.8423947,37.7701714 47.7196728,37.7496 47.6125073,37.6873143 C47.3440172,37.5364571 47.2443417,37.2021714 47.3855007,36.9296 C49.1802358,33.4718857 50.0899907,29.7416 50.0899907,25.8433143 C50.0899907,12.4621714 39.1130106,1.57588571 25.6210967,1.57588571 M25.6210967,51.2536 C11.4931033,51.2536 -0.000115231788,39.8541714 -0.000115231788,25.8433143 C-0.000115231788,11.8318857 11.4931033,0.433028571 25.6210967,0.433028571 C39.7490901,0.433028571 51.2423086,11.8318857 51.2423086,25.8433143 C51.2423086,29.6896 50.3965073,33.3793143 48.7267987,36.8221714 L57.2493417,39.9056 C57.5063086,39.9987429 57.6612954,40.2576 57.6215404,40.5261714 C57.5817854,40.7947429 57.3570834,40.9976 57.0834079,41.0130286 L45.6766132,41.6473143 C40.7792623,47.7570286 33.488547,51.2536 25.6210967,51.2536" id="Fill-67" fill="#5D98C1" mask="url(#mask-14)"></path>
                    </g>
                    <path d="M39.7077219,39.8147429 C40.9971656,39.8033143 41.9968013,40.2701714 42.6588079,41.3233143 C43.5195894,42.6924571 43.1715894,44.5004571 41.8879073,45.4547429 C40.5010927,46.4850286 38.7219139,46.3067429 37.5350265,44.9696 C37.1835695,44.5736 36.9306358,44.5718857 36.5232914,44.8696 C33.8280199,46.8376 31.1183444,48.7873143 28.412702,50.7416 C28.3055364,50.8198857 28.191457,50.8890286 28.0842914,50.9587429 C27.4804768,50.6496 27.0610331,50.2296 27.0477815,49.5141714 C27.0454768,49.3844571 27.0074503,49.1593143 26.944649,49.1433143 C26.0867483,48.9318857 26.2330927,47.6336 25.1723841,47.6604571 C25.1764172,47.6198857 25.1810265,47.5793143 25.1867881,47.5393143 C25.5324834,47.2953143 25.8822119,47.0558857 26.2250265,46.8073143 C28.7653113,44.9713143 31.3050199,43.1330286 33.8447285,41.2947429 C34.3494437,40.9296 34.3897748,40.7798857 34.1028477,40.3141714 C33.321,39.0438857 33.4523642,37.4650286 34.4231921,36.4604571 C35.4470265,35.4016 37.0429868,35.1581714 38.3243642,35.8644571 C39.5930662,36.5644571 40.1882384,38.0278857 39.7964503,39.4850286 C39.7710993,39.5810286 39.7451722,39.6776 39.7077219,39.8147429" id="Fill-70" fill="#FEFEFE"></path>
                    <path d="M26.2394305,47.5010857 C26.4468477,47.7005143 26.5833974,47.9376571 26.6928675,48.1296571 C26.861106,48.4233714 26.9486821,48.5559429 27.0835033,48.5885143 C27.5421258,48.7028 27.6193311,49.2108 27.6239404,49.5039429 C27.6291258,49.7890857 27.7143974,50.0370857 28.0675828,50.2845143 C28.0693113,50.2828 28.0710397,50.2816571 28.0727682,50.2805143 L29.7805033,49.0473714 C31.9169007,47.5050857 34.0538742,45.9633714 36.1816291,44.4090857 C36.3873179,44.2588 36.6679073,44.0862286 37.014755,44.0862286 C37.4664636,44.0862286 37.7747086,44.3748 37.9671457,44.5913714 C38.9218411,45.6679429 40.415245,45.8342286 41.5427881,44.9970857 C42.5925497,44.2170857 42.8679536,42.7353714 42.169649,41.6256571 C41.6384305,40.7793714 40.8704106,40.3862286 39.7526623,40.3862286 C39.5734768,40.3862286 39.3816159,40.3028 39.2721457,40.1616571 C39.1638278,40.0199429 39.1044834,39.8365143 39.1517285,39.6645143 L39.2387285,39.3405143 C39.5636821,38.1319429 39.0831656,36.9370857 38.0437748,36.3639429 C37.0205166,35.7988 35.655596,36.0119429 34.8391788,36.8559429 C34.0515695,37.6708 33.9507417,38.9702286 34.5948874,40.0159429 C35.1065166,40.8479429 34.8172848,41.2988 34.1840861,41.7559429 L26.5638079,47.2696571 C26.4566424,47.3468 26.3483245,47.4239429 26.2394305,47.5010857 M28.0842914,51.5302286 C27.9938344,51.5302286 27.9033775,51.5090857 27.8198344,51.4662286 C26.9452252,51.0182286 26.5038874,50.3976571 26.4727748,49.5713714 C26.0700397,49.3553714 25.8557086,48.9822286 25.6909272,48.6942286 C25.4627682,48.2965143 25.3947815,48.2313714 25.2052252,48.2313714 C25.0433245,48.2313714 24.8716291,48.1639429 24.7627351,48.0445143 C24.6532649,47.9256571 24.5835497,47.7668 24.599106,47.6062286 C24.6037152,47.5576571 24.6094768,47.5085143 24.6163907,47.4605143 C24.6382848,47.3045143 24.7235563,47.1645143 24.8531921,47.0730857 L25.2017682,46.8285143 C25.4305033,46.6690857 25.6592384,46.5096571 25.8850927,46.3462286 L33.5047947,40.8330857 C33.5808477,40.7782286 33.632702,40.7376571 33.6678477,40.7079429 C33.6534437,40.6828 33.6355828,40.6513714 33.6113841,40.6113714 C32.6947152,39.1239429 32.8577682,37.2536571 34.0072053,36.0645143 C34.7285563,35.3193714 35.7339536,34.8919429 36.7670066,34.8919429 C37.4076954,34.8919429 38.0426225,35.0553714 38.6043775,35.3650857 C40.0125099,36.1416571 40.7188808,37.6885143 40.4302252,39.2902286 C41.6240265,39.4525143 42.5262914,40.0325143 43.1479669,41.0205143 C44.159702,42.6302286 43.757543,44.7782286 42.2336026,45.9119429 C41.5491258,46.4199429 40.763245,46.6885143 39.9589272,46.6885143 C38.8849669,46.6885143 37.870351,46.2119429 37.1023311,45.3468 C37.0550861,45.2942286 37.0210927,45.2622286 36.9986225,45.2439429 C36.9709669,45.2576571 36.927755,45.2833714 36.8643775,45.3296571 C34.7354702,46.8845143 32.5967682,48.4279429 30.4586424,49.9708 L28.7520596,51.2033714 C28.6673642,51.2656571 28.5774834,51.3228 28.4881788,51.3799429 L28.4011788,51.4359429 C28.3055364,51.4982286 28.1954901,51.5302286 28.0842914,51.5302286" id="Fill-72" fill="#5D98C1"></path>
                    <path d="M26.6046,52.7678286 C25.7063682,53.8318286 24.8870702,54.8061143 24.0660437,55.7792571 C22.7264742,57.3712571 21.3932424,58.9684 20.0392689,60.5472571 C19.7258384,60.9141143 19.7166199,61.1798286 20.0675007,61.5284 C21.2347987,62.6838286 21.3978517,64.1586857 20.5503219,65.5449714 C19.8716066,66.6529714 18.3188583,67.2084 16.9971497,66.8169714 C15.5769179,66.3969714 14.7046132,65.1364 14.7460967,63.5666857 C14.7484013,63.5009714 14.7478252,63.4346857 14.7484013,63.3409714 C13.5522954,63.6472571 12.4835205,63.4598286 11.5559046,62.6221143 C10.3684411,61.5518286 10.2336199,59.6306857 11.270706,58.3438286 C12.2524808,57.1272571 14.1296066,56.8346857 15.4236596,57.6981143 C16.1525007,58.1832571 16.1525007,58.1838286 16.7246265,57.5049714 C18.6599444,55.2084 20.5941099,52.9112571 22.530004,50.6146857 C23.0208914,50.0324 23.773355,50.1198286 24.1276927,50.7826857 C24.193951,50.9072571 24.3449046,51.0666857 24.4624411,51.0712571 C24.8962887,51.0889714 25.1497987,51.2758286 25.2391033,51.6946857 C25.3825669,52.3786857 25.9374079,52.5992571 26.6046,52.7678286" id="Fill-74" fill="#FEFEFE"></path>
                    <path d="M14.7483437,62.7694857 C14.8756748,62.7694857 15.0001252,62.8112 15.1021053,62.8900571 C15.2432642,62.9992 15.325655,63.1666286 15.3245026,63.3443429 L15.3216219,63.5866286 C15.2876285,64.8934857 15.9922709,65.9237714 17.1618735,66.2694857 C17.3888801,66.3363429 17.6291384,66.3706286 17.8768868,66.3706286 C18.7699331,66.3706286 19.646847,65.9197714 20.0582245,65.2483429 C20.7755424,64.0740571 20.6343834,62.8969143 19.6606748,61.9329143 C19.2746483,61.5494857 18.9519993,60.9346286 19.6007543,60.1774857 C20.6361119,58.9700571 21.658794,57.7517714 22.6820523,56.5334857 L25.6319861,53.0312 C25.2154232,52.8163429 24.8103834,52.4552 24.6749861,51.8112 C24.6467543,51.6786286 24.6409927,51.6506286 24.4387609,51.6420571 C23.938655,51.6232 23.6494232,51.1089143 23.6188868,51.0500571 C23.4598669,50.7534857 23.1879199,50.7237714 22.9718603,50.9814857 L17.1664828,57.8717714 C16.7908272,58.3174857 16.5425026,58.6123429 16.0919464,58.6123429 C15.7641119,58.6123429 15.5152113,58.4472 15.1038338,58.1734857 C14.7108934,57.9112 14.238443,57.7729143 13.7371848,57.7729143 C12.9432377,57.7729143 12.1896219,58.1197714 11.7200523,58.7009143 C10.8713702,59.7540571 10.9716219,61.3237714 11.943602,62.1992 C12.6897278,62.8740571 13.5412907,63.0586286 14.604304,62.7877714 C14.651549,62.7757714 14.6999464,62.7694857 14.7483437,62.7694857 M17.8768868,67.5134857 C17.5179397,67.5134857 17.1659066,67.4632 16.8323106,67.3643429 C15.3129795,66.9152 14.3104629,65.6306286 14.1825556,64.0243429 C13.0290854,64.1517714 12.0242642,63.8180571 11.1680921,63.0443429 C9.75535033,61.7712 9.59921126,59.5020571 10.8206682,57.9872 C11.5062974,57.1374857 12.5969662,56.6300571 13.7371848,56.6300571 C14.4689066,56.6300571 15.1631781,56.8352 15.7450987,57.2237714 C15.847655,57.2923429 15.9588536,57.3660571 16.0423967,57.4169143 C16.1103834,57.3426286 16.2002642,57.2363429 16.2820788,57.1386286 L22.0874563,50.2483429 C22.4101053,49.8660571 22.8370391,49.6557714 23.2893238,49.6557714 C23.8441649,49.6557714 24.3471517,49.9757714 24.6352311,50.5123429 C25.2592113,50.5866286 25.6711649,50.9597714 25.8031053,51.5763429 C25.8630258,51.8626286 26.0191649,52.0300571 26.7468536,52.2140571 C26.9387146,52.2626286 27.0919728,52.4049143 27.1524695,52.5917714 C27.2141185,52.7792 27.1732113,52.9837714 27.0464563,53.1346286 L23.5670325,57.2649143 C22.5414695,58.4860571 21.5159066,59.7072 20.4782444,60.9174857 C20.4327278,60.9712 20.4073768,61.0083429 20.393549,61.0317714 C20.407953,61.0517714 20.4327278,61.0826286 20.4753636,61.1243429 C21.8206947,62.4569143 22.0338735,64.2203429 21.0434563,65.8414857 C20.4212046,66.8569143 19.1778536,67.5134857 17.8768868,67.5134857" id="Fill-76" fill="#5D98C1"></path>
                    <path d="M28.7635252,50.4146286 C28.549194,50.2334857 28.4938828,50.0534857 28.4904258,49.8443429 C28.4806311,49.2637714 28.2374921,48.8712 27.8209291,48.7672 C27.7419954,48.7483429 27.6377106,48.5654857 27.5363066,48.3889143 C27.4498828,48.2369143 27.3415649,48.0494857 27.1929159,47.8712 C27.2493795,47.8312 34.9802801,42.2386286 34.9802801,42.2386286 C35.5789093,41.8054857 36.049055,41.2672 35.4360219,40.2706286 C34.8322073,39.2917714 34.9238166,38.0769143 35.657843,37.3186286 C36.1372073,36.8232 36.7761675,36.5500571 37.4594921,36.5500571 C37.8754788,36.5500571 38.2874325,36.6563429 38.6527172,36.8574857 C39.6223927,37.3923429 40.0700682,38.5094857 39.7675848,39.6374857 L39.4207371,40.9100571 L40.4468762,40.9014857 C41.4989424,40.9014857 42.2202934,41.2694857 42.7169424,42.0597714 C43.3685781,43.0946286 43.1116113,44.4757714 42.1327172,45.2043429 C41.6798563,45.5409143 41.1682272,45.7186286 40.6531411,45.7186286 C39.9657834,45.7186286 39.3037768,45.4009143 38.7904192,44.8232 C38.666545,44.6837714 38.2908894,44.2592 37.7078166,44.2592 C37.3062338,44.2592 36.9824325,44.4626286 36.7721344,44.6157714 C34.6449556,46.1689143 32.5079821,47.7112 30.3733132,49.2529143 L28.7635252,50.4146286 Z" id="Fill-78" fill="#F58F7B"></path>
                    <path d="M18.5698907,66.5429714 C18.3400033,66.5429714 18.1153013,66.5109714 17.9055795,66.4486857 C16.8131821,66.1258286 16.1552086,65.1606857 16.1886258,63.9309714 C16.1897781,63.8789714 16.1978444,62.7229714 16.1978444,62.7229714 L15.254096,62.9658286 C14.9573742,63.0418286 14.673904,63.0806857 14.4117517,63.0806857 C13.7906523,63.0806857 13.2484868,62.8635429 12.7524139,62.4161143 C11.8478444,61.5995429 11.7562351,60.1344 12.5490298,59.1515429 C12.9851821,58.6115429 13.6886722,58.2886857 14.4307649,58.2886857 C14.8980298,58.2886857 15.3364868,58.4161143 15.6994669,58.6578286 C16.1235199,58.9401143 16.4035331,59.1275429 16.7843742,59.1275429 C17.3161689,59.1275429 17.6151954,58.7726857 17.9925795,58.3252571 L23.797957,51.4361143 C23.8734338,51.3446857 23.943149,51.3138286 23.9834801,51.3138286 C24.0376391,51.3138286 24.106202,51.3766857 24.1586325,51.4738286 C24.3216854,51.7784 24.6725662,52.1395429 25.1254272,52.1578286 C25.1542351,52.1578286 25.1761291,52.1612571 25.1928377,52.1635429 C25.1951424,52.1709714 25.1957185,52.1801143 25.1985993,52.1909714 C25.3282351,52.8058286 25.6762351,53.1841143 26.0582285,53.4235429 L23.1036854,56.9321143 C22.1276722,58.0949714 21.1510828,59.2572571 20.162394,60.4104 C19.5896921,61.0784 20.0108642,61.4355429 20.6302351,62.0475429 C21.5417185,62.9509714 21.2761093,64.4041143 20.6020033,65.5041143 C20.2228907,66.1258286 19.4058974,66.5429714 18.5698907,66.5429714" id="Fill-80" fill="#F58F7B"></path>
                    <path d="M39.4184901,40.2125714 L39.6086225,40.2114286 L39.7653377,39.6371429 C39.8609801,39.28 39.882298,38.9245714 39.8344768,38.5874286 C39.8183444,38.7045714 39.7964503,38.8217143 39.7653377,38.94 L39.4184901,40.2125714 Z" id="Fill-82" fill="#F37D6C"></path>
                    <path d="M42.1316225,44.5061143 C41.6781854,44.8432571 41.1659801,45.0204 40.6520464,45.0204 C39.9629603,45.0204 39.302106,44.7026857 38.7887483,44.1249714 C38.6648742,43.9861143 38.2886424,43.5621143 37.7061457,43.5621143 C37.3045629,43.5621143 36.9801854,43.7649714 36.7704636,43.9181143 C34.6427086,45.4712571 32.5068874,47.0135429 30.3710662,48.5558286 L28.7618543,49.7169714 C28.546947,49.5364 28.4927881,49.3564 28.488755,49.1472571 C28.4783841,48.5661143 28.2340927,48.1735429 27.8186821,48.0695429 C27.7397483,48.0506857 27.6366159,47.8678286 27.5352119,47.6912571 C27.5254172,47.6758286 27.5161987,47.6592571 27.5069801,47.6432571 C27.314543,47.7826857 27.1981589,47.8661143 27.1918212,47.8712571 C27.3404702,48.0495429 27.4476358,48.2369714 27.5352119,48.3889714 C27.6366159,48.5655429 27.7397483,48.7484 27.8186821,48.7672571 C28.2340927,48.8712571 28.4783841,49.2638286 28.488755,49.8444 C28.4927881,50.0535429 28.546947,50.2329714 28.7618543,50.4146857 L30.3710662,49.2529714 C32.5068874,47.7106857 34.6427086,46.1689714 36.7704636,44.6152571 C36.9801854,44.4626857 37.2094967,44.7364 37.5344503,44.9695429 C38.0166954,45.3141143 38.2506159,45.5318286 38.3744901,45.6712571 C38.8884238,46.2495429 39.9283907,46.0449714 40.6157483,46.0449714 C41.1308344,46.0449714 41.6781854,45.5409714 42.1316225,45.2044 C42.843755,44.6741143 43.1715894,43.7986857 43.0465629,42.9615429 C42.9589868,43.5604 42.6461325,44.1238286 42.1316225,44.5061143" id="Fill-84" fill="#F37D6C"></path>
                    <path d="M35.662798,40.7617143 C35.7757252,40.4497143 35.7382748,40.0685714 35.4340629,39.5731429 C35.2341358,39.2485714 35.1108377,38.8977143 35.0624404,38.5462857 C34.9800497,39.1154286 35.0993146,39.7291429 35.4340629,40.2708571 C35.542957,40.448 35.6172815,40.6108571 35.662798,40.7617143" id="Fill-86" fill="#F37D6C"></path>
                    <path d="M16.1960583,62.0256571 L15.2523099,62.2679429 C14.9555881,62.3450857 14.6715417,62.3828 14.4105417,62.3828 C13.7882901,62.3828 13.2461245,62.1656571 12.751204,61.7188 C12.349045,61.3565143 12.1076344,60.8650857 12.0327338,60.3462286 C11.9267205,61.1045143 12.1715881,61.8930857 12.751204,62.4165143 C13.2461245,62.8633714 13.7882901,63.0810857 14.4105417,63.0810857 C14.6715417,63.0810857 14.9555881,63.0416571 15.2523099,62.9662286 L16.1908728,62.7239429 C16.1931775,62.3942286 16.1960583,62.0256571 16.1960583,62.0256571" id="Fill-88" fill="#F37D6C"></path>
                    <path d="M20.6010815,64.8057714 C20.2208166,65.4280571 19.4038232,65.8446286 18.5689689,65.8446286 C18.3367768,65.8446286 18.1143795,65.8137714 17.9029291,65.7514857 C16.8877371,65.4503429 16.2482007,64.5943429 16.1900086,63.4852 C16.1888563,63.7137714 16.1865517,63.9109143 16.1865517,63.9309143 C16.1537106,65.1606286 16.8122603,66.1257714 17.9029291,66.4486286 C18.1143795,66.5109143 18.3367768,66.5429143 18.5689689,66.5429143 C19.4038232,66.5429143 20.2208166,66.1257714 20.6010815,65.5040571 C20.9565715,64.9223429 21.0856311,64.3412 20.9957503,63.7880571 C20.9410152,64.1240571 20.8090748,64.4652 20.6010815,64.8057714" id="Fill-90" fill="#F37D6C"></path>
                    <path d="M23.1026483,56.2343429 C22.1254828,57.3977714 21.1483172,58.5600571 20.1602046,59.7126286 C19.7874298,60.1492 19.6687411,60.6006286 19.8029861,61.0320571 C19.8663636,60.8234857 19.9856285,60.6154857 20.1602046,60.4103429 C21.1483172,59.2572 22.1254828,58.0949143 23.1026483,56.9320571 L26.0566152,53.4234857 C25.9327411,53.3463429 25.8152046,53.2520571 25.7057344,53.1434857 L23.1026483,56.2343429 Z" id="Fill-92" fill="#F37D6C"></path>
                    <path d="M26.2394305,47.5010857 C26.4468477,47.7005143 26.5833974,47.9376571 26.6928675,48.1296571 C26.861106,48.4233714 26.9486821,48.5559429 27.0835033,48.5885143 C27.5421258,48.7028 27.6193311,49.2108 27.6239404,49.5039429 C27.6291258,49.7890857 27.7143974,50.0370857 28.0675828,50.2845143 C28.0693113,50.2828 28.0710397,50.2816571 28.0727682,50.2805143 L29.7805033,49.0473714 C31.9169007,47.5050857 34.0538742,45.9633714 36.1816291,44.4090857 C36.3873179,44.2588 36.6679073,44.0862286 37.014755,44.0862286 C37.4664636,44.0862286 37.7747086,44.3748 37.9671457,44.5913714 C38.9218411,45.6679429 40.415245,45.8342286 41.5427881,44.9970857 C42.5925497,44.2170857 42.8679536,42.7353714 42.169649,41.6256571 C41.6384305,40.7793714 40.8704106,40.3862286 39.7526623,40.3862286 C39.5734768,40.3862286 39.3816159,40.3028 39.2721457,40.1616571 C39.1638278,40.0199429 39.1044834,39.8365143 39.1517285,39.6645143 L39.2387285,39.3405143 C39.5636821,38.1319429 39.0831656,36.9370857 38.0437748,36.3639429 C37.0205166,35.7988 35.655596,36.0119429 34.8391788,36.8559429 C34.0515695,37.6708 33.9507417,38.9702286 34.5948874,40.0159429 C35.1065166,40.8479429 34.8172848,41.2988 34.1840861,41.7559429 L26.5638079,47.2696571 C26.4566424,47.3468 26.3483245,47.4239429 26.2394305,47.5010857 M28.0842914,51.5302286 C27.9938344,51.5302286 27.9033775,51.5090857 27.8198344,51.4662286 C26.9452252,51.0182286 26.5038874,50.3976571 26.4727748,49.5713714 C26.0700397,49.3553714 25.8557086,48.9822286 25.6909272,48.6942286 C25.4627682,48.2965143 25.3947815,48.2313714 25.2052252,48.2313714 C25.0433245,48.2313714 24.8716291,48.1639429 24.7627351,48.0445143 C24.6532649,47.9256571 24.5835497,47.7668 24.599106,47.6062286 C24.6037152,47.5576571 24.6094768,47.5085143 24.6163907,47.4605143 C24.6382848,47.3045143 24.7235563,47.1645143 24.8531921,47.0730857 L25.2017682,46.8285143 C25.4305033,46.6690857 25.6592384,46.5096571 25.8850927,46.3462286 L33.5047947,40.8330857 C33.5808477,40.7782286 33.632702,40.7376571 33.6678477,40.7079429 C33.6534437,40.6828 33.6355828,40.6513714 33.6113841,40.6113714 C32.6947152,39.1239429 32.8577682,37.2536571 34.0072053,36.0645143 C34.7285563,35.3193714 35.7339536,34.8919429 36.7670066,34.8919429 C37.4076954,34.8919429 38.0426225,35.0553714 38.6043775,35.3650857 C40.0125099,36.1416571 40.7188808,37.6885143 40.4302252,39.2902286 C41.6240265,39.4525143 42.5262914,40.0325143 43.1479669,41.0205143 C44.159702,42.6302286 43.757543,44.7782286 42.2336026,45.9119429 C41.5491258,46.4199429 40.763245,46.6885143 39.9589272,46.6885143 C38.8849669,46.6885143 37.870351,46.2119429 37.1023311,45.3468 C37.0550861,45.2942286 37.0210927,45.2622286 36.9986225,45.2439429 C36.9709669,45.2576571 36.927755,45.2833714 36.8643775,45.3296571 C34.7354702,46.8845143 32.5967682,48.4279429 30.4586424,49.9708 L28.7520596,51.2033714 C28.6673642,51.2656571 28.5774834,51.3228 28.4881788,51.3799429 L28.4011788,51.4359429 C28.3055364,51.4982286 28.1954901,51.5302286 28.0842914,51.5302286" id="Fill-94" fill="#5D98C1"></path>
                    <path d="M14.7483437,62.7694857 C14.8756748,62.7694857 15.0001252,62.8112 15.1021053,62.8900571 C15.2432642,62.9992 15.325655,63.1666286 15.3245026,63.3443429 L15.3216219,63.5866286 C15.2876285,64.8934857 15.9922709,65.9237714 17.1618735,66.2694857 C17.3888801,66.3363429 17.6291384,66.3706286 17.8768868,66.3706286 C18.7699331,66.3706286 19.646847,65.9197714 20.0582245,65.2483429 C20.7755424,64.0740571 20.6343834,62.8969143 19.6606748,61.9329143 C19.2746483,61.5494857 18.9519993,60.9346286 19.6007543,60.1774857 C20.6361119,58.9700571 21.658794,57.7517714 22.6820523,56.5334857 L25.6319861,53.0312 C25.2154232,52.8163429 24.8103834,52.4552 24.6749861,51.8112 C24.6467543,51.6786286 24.6409927,51.6506286 24.4387609,51.6420571 C23.938655,51.6232 23.6494232,51.1089143 23.6188868,51.0500571 C23.4598669,50.7534857 23.1879199,50.7237714 22.9718603,50.9814857 L17.1664828,57.8717714 C16.7908272,58.3174857 16.5425026,58.6123429 16.0919464,58.6123429 C15.7641119,58.6123429 15.5152113,58.4472 15.1038338,58.1734857 C14.7108934,57.9112 14.238443,57.7729143 13.7371848,57.7729143 C12.9432377,57.7729143 12.1896219,58.1197714 11.7200523,58.7009143 C10.8713702,59.7540571 10.9716219,61.3237714 11.943602,62.1992 C12.6897278,62.8740571 13.5412907,63.0586286 14.604304,62.7877714 C14.651549,62.7757714 14.6999464,62.7694857 14.7483437,62.7694857 M17.8768868,67.5134857 C17.5179397,67.5134857 17.1659066,67.4632 16.8323106,67.3643429 C15.3129795,66.9152 14.3104629,65.6306286 14.1825556,64.0243429 C13.0290854,64.1517714 12.0242642,63.8180571 11.1680921,63.0443429 C9.75535033,61.7712 9.59921126,59.5020571 10.8206682,57.9872 C11.5062974,57.1374857 12.5969662,56.6300571 13.7371848,56.6300571 C14.4689066,56.6300571 15.1631781,56.8352 15.7450987,57.2237714 C15.847655,57.2923429 15.9588536,57.3660571 16.0423967,57.4169143 C16.1103834,57.3426286 16.2002642,57.2363429 16.2820788,57.1386286 L22.0874563,50.2483429 C22.4101053,49.8660571 22.8370391,49.6557714 23.2893238,49.6557714 C23.8441649,49.6557714 24.3471517,49.9757714 24.6352311,50.5123429 C25.2592113,50.5866286 25.6711649,50.9597714 25.8031053,51.5763429 C25.8630258,51.8626286 26.0191649,52.0300571 26.7468536,52.2140571 C26.9387146,52.2626286 27.0919728,52.4049143 27.1524695,52.5917714 C27.2141185,52.7792 27.1732113,52.9837714 27.0464563,53.1346286 L23.5670325,57.2649143 C22.5414695,58.4860571 21.5159066,59.7072 20.4782444,60.9174857 C20.4327278,60.9712 20.4073768,61.0083429 20.393549,61.0317714 C20.407953,61.0517714 20.4327278,61.0826286 20.4753636,61.1243429 C21.8206947,62.4569143 22.0338735,64.2203429 21.0434563,65.8414857 C20.4212046,66.8569143 19.1778536,67.5134857 17.8768868,67.5134857" id="Fill-96" fill="#5D98C1"></path>
                    <path d="M22.0116338,48.5831429 C21.968998,48.5831429 21.9257861,48.5785714 21.881998,48.5688571 L16.067402,47.2448571 C15.7574285,47.1745714 15.5632629,46.8677143 15.6347066,46.5602857 C15.7061503,46.2528571 16.0172762,46.0597143 16.324945,46.1311429 L22.1401172,47.4545714 C22.4500907,47.5248571 22.6442563,47.8322857 22.5728126,48.1397143 C22.5111636,48.4042857 22.2737861,48.5831429 22.0116338,48.5831429" id="Fill-98" fill="#5D98C1"></path>
                    <path d="M22.5354775,46.5038857 C22.4006563,46.5038857 22.2652589,46.4576 22.1563649,46.3627429 L17.2653517,42.1181714 C17.0256695,41.9101714 17.0014709,41.5490286 17.2106166,41.3118857 C17.4203384,41.0736 17.7844709,41.0501714 18.0235768,41.2576 L22.9145901,45.5021714 C23.1542722,45.7101714 23.1784709,46.0713143 22.9693252,46.3084571 C22.8552457,46.4381714 22.6956497,46.5038857 22.5354775,46.5038857" id="Fill-100" fill="#5D98C1"></path>
                    <path d="M24.4569099,44.8582286 C24.138294,44.8582286 23.880751,44.6028 23.880751,44.2868 L23.880751,41.0822286 C23.880751,40.7662286 24.138294,40.5108 24.4569099,40.5108 C24.7755258,40.5108 25.0330689,40.7662286 25.0330689,41.0822286 L25.0330689,44.2868 C25.0330689,44.6028 24.7755258,44.8582286 24.4569099,44.8582286" id="Fill-102" fill="#5D98C1"></path>
                    <path d="M26.6051762,59.0446286 C26.5659974,59.0446286 26.5256662,59.0406286 26.4859113,59.0326286 C26.1747854,58.9669143 25.9748583,58.6640571 26.0411166,58.3554857 L26.6293748,55.5834857 C26.695057,55.2749143 27.0009974,55.0766286 27.3121232,55.1423429 C27.623249,55.2074857 27.8226,55.5103429 27.7569179,55.8189143 L27.1686596,58.5909143 C27.1110437,58.8600571 26.8719377,59.0446286 26.6051762,59.0446286" id="Fill-104" fill="#5D98C1"></path>
                    <path d="M31.0946066,60.3258857 C30.8618384,60.3258857 30.6423219,60.1847429 30.5553219,59.9561714 L28.6338318,54.8984571 C28.5214808,54.6030286 28.6724344,54.2733143 28.9697325,54.1624571 C29.2681828,54.0510286 29.6000503,54.2001714 29.7124013,54.4956 L31.6338914,59.5527429 C31.7462424,59.8481714 31.5952887,60.1778857 31.2979907,60.2893143 C31.2305801,60.3138857 31.1620172,60.3258857 31.0946066,60.3258857" id="Fill-106" fill="#5D98C1"></path>
                    <path d="M34.0834311,54.6679429 C34.0252391,54.6679429 33.9664709,54.6593714 33.9077026,54.6405143 L30.9024576,53.6873714 C30.5988219,53.5913714 30.4317358,53.2702286 30.5291066,52.9690857 C30.6259013,52.6690857 30.9479742,52.5010857 31.2533384,52.5993714 L34.2591596,53.5525143 C34.5622192,53.6485143 34.7293053,53.9696571 34.6319344,54.2708 C34.5535768,54.5130857 34.3277225,54.6679429 34.0834311,54.6679429" id="Fill-108" fill="#5D98C1"></path>
                </g>
            </g>
        </g>
    </g>
</svg>