<?xml version="1.0" encoding="UTF-8"?>
<svg width="39px" height="39px" viewBox="0 0 39 39" version="1.1" xmlns="http://www.w3.org/2000/svg" xmlns:xlink="http://www.w3.org/1999/xlink">
    <!-- Generator: Sketch 51.1 (57501) - http://www.bohemiancoding.com/sketch -->
    <title>ios-alert</title>
    <desc>Created with Sketch.</desc>
    <defs></defs>
    <g id="Page-1" stroke="none" stroke-width="1" fill="none" fill-rule="evenodd">
        <g id="Alerts" transform="translate(-1619.000000, -1021.000000)" fill="#FFFFFF" fill-rule="nonzero">
            <g id="ios-alert" transform="translate(1619.000000, 1021.000000)">
                <path d="M19.5,0 C8.728125,0 0,8.728125 0,19.5 C0,30.271875 8.728125,39 19.5,39 C30.271875,39 39,30.271875 39,19.5 C39,8.728125 30.271875,0 19.5,0 Z M21.9995626,9.14779661 L21.6391768,23.1938983 C21.6159261,24.1945763 20.9532813,25 20.0000028,25 C19.0467242,25 18.3840794,24.1945763 18.3608287,23.1938983 L18.0004429,9.14779661 C17.9771922,7.97627119 18.872344,7 20.0000028,7 C21.1160362,7 22.0228133,7.9640678 21.9995626,9.14779661 Z M20,31 C18.8795812,31 18,30.1195652 18,29 C18,27.8804348 18.8795812,27 20,27 C21.1204188,27 22,27.8804348 22,29 C22,30.1195652 21.1204188,31 20,31 Z" id="Shape"></path>
            </g>
        </g>
    </g>
</svg>