<?xml version="1.0" encoding="UTF-8"?>
<svg width="18px" height="18px" viewBox="0 0 18 18" version="1.1" xmlns="http://www.w3.org/2000/svg" xmlns:xlink="http://www.w3.org/1999/xlink">
    <!-- Generator: Sketch 51.1 (57501) - http://www.bohemiancoding.com/sketch -->
    <title>arrow-right</title>
    <desc>Created with Sketch.</desc>
    <defs>
        <path d="M0.49826741,8 C0.22308192,8 0,8.214035 0,8.5046844 L0,9.4953156 C0,9.7740451 0.21990657,10 0.49826741,10 L14,10 L7.8494682,16.1505318 C7.6564623,16.3435377 7.6605263,16.6605263 7.8479004,16.8479004 L8.6520996,17.6520996 C8.8442397,17.8442397 9.1562119,17.8437881 9.3528107,17.6471893 L17.6471893,9.3528107 C17.8420413,9.1579587 17.8437881,8.8437881 17.6471893,8.6471893 L9.3528107,0.35281067 C9.1579587,0.15795872 8.8394737,0.16052628 8.6520996,0.34790039 L7.8479004,1.15209961 C7.6557603,1.34423969 7.660675,1.66067505 7.8494682,1.84946823 L14,8 L0.49826741,8 Z" id="path-1"></path>
    </defs>
    <g id="Page-1" stroke="none" stroke-width="1" fill="none" fill-rule="evenodd">
        <g id="arrow-right" transform="translate(9.000000, 9.000000) rotate(-90.000000) translate(-9.000000, -9.000000) translate(-7.000000, -7.000000)">
            <rect id="Icon-BG" x="0" y="0" width="32" height="32"></rect>
            <g id="Arrow" transform="translate(7.000000, 7.000000)" fill="#000000" fill-rule="nonzero">
                <path d="M0.49826741,8 C0.22308192,8 0,8.214035 0,8.5046844 L0,9.4953156 C0,9.7740451 0.21990657,10 0.49826741,10 L14,10 L7.8494682,16.1505318 C7.6564623,16.3435377 7.6605263,16.6605263 7.8479004,16.8479004 L8.6520996,17.6520996 C8.8442397,17.8442397 9.1562119,17.8437881 9.3528107,17.6471893 L17.6471893,9.3528107 C17.8420413,9.1579587 17.8437881,8.8437881 17.6471893,8.6471893 L9.3528107,0.35281067 C9.1579587,0.15795872 8.8394737,0.16052628 8.6520996,0.34790039 L7.8479004,1.15209961 C7.6557603,1.34423969 7.660675,1.66067505 7.8494682,1.84946823 L14,8 L0.49826741,8 Z" id="path-1"></path>
            </g>
            <g id="Fill/Secondary/Black-Clipped" transform="translate(7.000000, 7.000000)">
                <mask id="mask-2" fill="white">
                    <use xlink:href="#path-1"></use>
                </mask>
                <g id="path-1"></g>
                <g id="Fill/Secondary/Black" mask="url(#mask-2)" fill="#000000" fill-rule="nonzero">
                    <g transform="translate(-7.000000, -7.000000)" id="Rectangle-Copy">
                        <rect x="0" y="0" width="32" height="32"></rect>
                    </g>
                </g>
            </g>
        </g>
    </g>
</svg>