<?xml version="1.0" encoding="UTF-8"?>
<svg width="32px" height="32px" viewBox="0 0 32 32" version="1.1" xmlns="http://www.w3.org/2000/svg" xmlns:xlink="http://www.w3.org/1999/xlink">
    <!-- Generator: sketchtool 51.1 (57501) - http://www.bohemiancoding.com/sketch -->
    <title>BDDE1133-C277-4607-BCB0-1340F0352939</title>
    <desc>Created with sketchtool.</desc>
    <defs>
        <path d="M7.49826741,15 C7.22308192,15 7,15.214035 7,15.5046844 L7,16.4953156 C7,16.7740451 7.21990657,17 7.49826741,17 L21,17 L14.8494682,23.1505318 C14.6564623,23.3435377 14.6605263,23.6605263 14.8479004,23.8479004 L15.6520996,24.6520996 C15.8442397,24.8442397 16.1562119,24.8437881 16.3528107,24.6471893 L24.6471893,16.3528107 C24.8420413,16.1579587 24.8437881,15.8437881 24.6471893,15.6471893 L16.3528107,7.35281067 C16.1579587,7.15795872 15.8394737,7.16052628 15.6520996,7.34790039 L14.8479004,8.15209961 C14.6557603,8.34423969 14.660675,8.66067505 14.8494682,8.84946823 L21,15 L7.49826741,15 Z" id="path-1"></path>
    </defs>
    <g id="Symbols" stroke="none" stroke-width="1" fill="none" fill-rule="evenodd">
        <g id="Icon/32px/Arrow-Right">
            <rect id="Icon-BG" x="0" y="0" width="32" height="32"></rect>
            <mask id="mask-2" fill="white">
                <use xlink:href="#path-1"></use>
            </mask>
            <use id="Arrow" fill="#000000" xlink:href="#path-1"></use>
            <g id="Fill/Secondary/Black" mask="url(#mask-2)" fill="#000000">
                <rect id="Rectangle-Copy" x="0" y="0" width="32" height="32"></rect>
            </g>
        </g>
    </g>
</svg>