<?xml version="1.0" encoding="UTF-8"?>
<svg width="49px" height="48px" viewBox="0 0 49 48" version="1.1" xmlns="http://www.w3.org/2000/svg" xmlns:xlink="http://www.w3.org/1999/xlink">
    <!-- Generator: sketchtool 51.1 (57501) - http://www.bohemiancoding.com/sketch -->
    <title>A9BF16A1-7B17-4503-99B0-71A6C72F9409</title>
    <desc>Created with sketchtool.</desc>
    <defs></defs>
    <g id="Page-1" stroke="none" stroke-width="1" fill="none" fill-rule="evenodd">
        <g id="Thankyou-Web_new" transform="translate(-579.000000, -1420.000000)" stroke="#684744" stroke-width="3.98095233">
            <g id="Group-14" transform="translate(284.000000, 1287.000000)">
                <g id="Group-10" transform="translate(297.333333, 107.000000)">
                    <g id="bills" transform="translate(0.333333, 28.000000)">
                        <path d="M0,38 L0,44 L24,44 L24,38.834 C24,36.072 26.238,34 29,34 L4,34 C1.79,34 0,35.79 0,38 Z" id="Shape"></path>
                        <path d="M29,34 C31.588,34 34,35.848 34,39 C34,41.762 36.238,44 39,44 C41.762,44 44,41.762 44,39 L44,0 L12,0 L12,34" id="Shape"></path>
                        <path d="M22,12 L34,12" id="Shape" stroke-linecap="square"></path>
                        <path d="M22,22 L34,22" id="Shape" stroke-linecap="square"></path>
                    </g>
                </g>
            </g>
        </g>
    </g>
</svg>