<?xml version="1.0" encoding="UTF-8"?>
<svg width="160px" height="174px" viewBox="0 0 160 174" version="1.1" xmlns="http://www.w3.org/2000/svg" xmlns:xlink="http://www.w3.org/1999/xlink">
    <!-- Generator: Sketch 51.1 (57501) - http://www.bohemiancoding.com/sketch -->
    <title>Cancer_booster</title>
    <desc>Created with Sketch.</desc>
    <defs>
        <path d="M8.792,3.533 C8.439,3.818 8.097,4.109 7.755,4.394 C7.741,4.406 7.726,4.418 7.714,4.429 C7.706,4.436 7.703,4.438 7.7,4.441 C4.472,7.294 1.616,13.332 0.105,19.979 C2.681,15.694 13.263,14.206 22.116,17.293 C30.722,20.291 38.153,27.989 37.55,33.029 C39.605,28.226 42.087,20.82 41.246,16.059 C41.164,15.616 41.081,15.175 40.97,14.747 C40.967,14.744 40.964,14.742 40.966,14.738 C39.624,9.492 35.364,5.237 27.298,2.426 C23.82,1.214 20.728,0.644 17.987,0.644 C14.319,0.644 11.28,1.665 8.792,3.533" id="path-1"></path>
        <path d="M8.792,3.533 C8.439,3.818 8.097,4.109 7.755,4.394 C7.741,4.406 7.726,4.418 7.714,4.429 C7.706,4.436 7.703,4.438 7.7,4.441 C4.472,7.294 1.616,13.332 0.105,19.979 C2.681,15.694 13.263,14.206 22.116,17.293 C30.722,20.291 38.153,27.989 37.55,33.029 C39.605,28.226 42.087,20.82 41.246,16.059 C41.164,15.616 41.081,15.175 40.97,14.747 C40.967,14.744 40.964,14.742 40.966,14.738 C39.624,9.492 35.364,5.237 27.298,2.426 C23.82,1.214 20.728,0.644 17.987,0.644 C14.319,0.644 11.28,1.665 8.792,3.533" id="path-3"></path>
        <path d="M8.792,3.533 C8.439,3.818 8.097,4.109 7.755,4.394 C7.741,4.406 7.726,4.418 7.714,4.429 C7.706,4.436 7.703,4.438 7.7,4.441 C4.472,7.294 1.616,13.332 0.105,19.979 C2.681,15.694 13.263,14.206 22.116,17.293 C30.722,20.291 38.153,27.989 37.55,33.029 C39.605,28.226 42.087,20.82 41.246,16.059 C41.164,15.616 41.081,15.175 40.97,14.747 C40.967,14.744 40.964,14.742 40.966,14.738 C39.624,9.492 35.364,5.237 27.298,2.426 C23.82,1.214 20.728,0.644 17.987,0.644 C14.319,0.644 11.28,1.665 8.792,3.533" id="path-5"></path>
        <path d="M2.306,29.418 C2.306,29.421 2.301,29.426 2.301,29.426 C2.179,29.786 2.104,30.126 2.001,30.418 C-6.634,55.195 20.486,155.238 20.486,155.238 L28.126,140.729 L40.648,143.74 C40.648,143.74 9.267,35.071 17.441,11.616 C19.068,6.948 20.852,3.037 23.7,0.441 C6.382,15.049 2.409,29.04 2.306,29.418" id="path-7"></path>
        <path d="M2.306,29.418 C2.306,29.421 2.301,29.426 2.301,29.426 C2.179,29.786 2.104,30.126 2.001,30.418 C-6.634,55.195 20.486,155.238 20.486,155.238 L28.126,140.729 L40.648,143.74 C40.648,143.74 9.267,35.071 17.441,11.616 C19.068,6.948 20.852,3.037 23.7,0.441 C6.382,15.049 2.409,29.04 2.306,29.418" id="path-9"></path>
        <path d="M0.553,101.84 L13.626,105.865 L9.767,123.818 C9.767,123.818 91.538,63.651 100.771,37.158 C100.882,36.842 101.038,36.492 101.171,36.084 C101.171,36.084 106.825,22.612 102.246,0.059 C104.51,31.828 0.553,101.84 0.553,101.84" id="path-11"></path>
        <path d="M0.553,101.84 L13.626,105.865 L9.767,123.818 C9.767,123.818 91.538,63.651 100.771,37.158 C100.882,36.842 101.038,36.492 101.171,36.084 C101.171,36.084 106.825,22.612 102.246,0.059 C104.51,31.828 0.553,101.84 0.553,101.84 Z" id="path-13"></path>
        <path d="M0.553,101.84 L13.626,105.865 L9.767,123.818 C9.767,123.818 91.538,63.651 100.771,37.158 C100.882,36.842 101.038,36.492 101.171,36.084 C101.171,36.084 106.825,22.612 102.246,0.059 C104.51,31.828 0.553,101.84 0.553,101.84" id="path-15"></path>
        <path d="M29.988,0.883 C26.554,0.883 23.769,3.667 23.769,7.103 L23.769,24.342 L6.526,24.342 C3.091,24.342 0.307,27.127 0.307,30.562 L0.307,41.876 C0.307,45.313 3.091,48.097 6.526,48.097 L23.769,48.097 L23.769,65.339 C23.769,68.772 26.554,71.557 29.988,71.557 L41.301,71.557 C44.735,71.557 47.521,68.772 47.521,65.339 L47.521,48.097 L64.764,48.097 C68.196,48.097 70.981,45.313 70.981,41.876 L70.981,30.562 C70.981,27.127 68.196,24.342 64.764,24.342 L47.521,24.342 L47.521,7.103 C47.521,3.667 44.735,0.883 41.301,0.883" id="path-17"></path>
        <path d="M29.988,0.883 C26.554,0.883 23.769,3.667 23.769,7.103 L23.769,24.342 L6.526,24.342 C3.091,24.342 0.307,27.127 0.307,30.562 L0.307,41.876 C0.307,45.313 3.091,48.097 6.526,48.097 L23.769,48.097 L23.769,65.339 C23.769,68.772 26.554,71.557 29.988,71.557 L41.301,71.557 C44.735,71.557 47.521,68.772 47.521,65.339 L47.521,48.097 L64.764,48.097 C68.196,48.097 70.981,45.313 70.981,41.876 L70.981,30.562 C70.981,27.127 68.196,24.342 64.764,24.342 L47.521,24.342 L47.521,7.103 C47.521,3.667 44.735,0.883 41.301,0.883 L29.988,0.883 Z" id="path-19"></path>
        <path d="M29.988,0.883 C26.554,0.883 23.769,3.667 23.769,7.103 L23.769,24.342 L6.526,24.342 C3.091,24.342 0.307,27.127 0.307,30.562 L0.307,41.876 C0.307,45.313 3.091,48.097 6.526,48.097 L23.769,48.097 L23.769,65.339 C23.769,68.772 26.554,71.557 29.988,71.557 L41.301,71.557 C44.735,71.557 47.521,68.772 47.521,65.339 L47.521,48.097 L64.764,48.097 C68.196,48.097 70.981,45.313 70.981,41.876 L70.981,30.562 C70.981,27.127 68.196,24.342 64.764,24.342 L47.521,24.342 L47.521,7.103 C47.521,3.667 44.735,0.883 41.301,0.883 L29.988,0.883 Z" id="path-21"></path>
        <path d="M29.988,0.883 C26.554,0.883 23.769,3.667 23.769,7.103 L23.769,24.342 L6.526,24.342 C3.091,24.342 0.307,27.127 0.307,30.562 L0.307,41.876 C0.307,45.313 3.091,48.097 6.526,48.097 L23.769,48.097 L23.769,65.339 C23.769,68.772 26.554,71.557 29.988,71.557 L41.301,71.557 C44.735,71.557 47.521,68.772 47.521,65.339 L47.521,48.097 L64.764,48.097 C68.196,48.097 70.981,45.313 70.981,41.876 L70.981,30.562 C70.981,27.127 68.196,24.342 64.764,24.342 L47.521,24.342 L47.521,7.103 C47.521,3.667 44.735,0.883 41.301,0.883" id="path-23"></path>
    </defs>
    <g id="Page-1" stroke="none" stroke-width="1" fill="none" fill-rule="evenodd">
        <g id="Artboard-7" transform="translate(-276.000000, -162.000000)">
            <g id="Cancer_booster" transform="translate(276.000000, 162.000000)">
                <g id="Group-450" transform="translate(13.000000, 0.000000)">
                    <path d="M143.421,71.75 C143.421,111.253 111.398,143.275 71.896,143.275 C32.394,143.275 0.37,111.253 0.37,71.75 C0.37,32.248 32.394,0.226 71.896,0.226 C111.398,0.226 143.421,32.248 143.421,71.75" id="Fill-444" fill="#F9DED5"></path>
                    <path d="M86.5499,46.0283 C87.1539,40.9883 79.7219,33.2913 71.1159,30.2933 C62.2629,27.2063 51.6809,28.6933 49.1049,32.9783 C50.6159,26.3323 53.4719,20.2943 56.6999,17.4413 C56.7019,17.4383 56.7059,17.4353 56.7139,17.4293 C56.7259,17.4183 56.7409,17.4063 56.7549,17.3943 C57.0969,17.1093 57.4389,16.8183 57.7919,16.5333 C62.1399,13.2683 68.1649,12.5903 76.2979,15.4253 C84.3639,18.2363 88.6239,22.4923 89.9659,27.7383 C89.9639,27.7423 89.9679,27.7443 89.9699,27.7473 C90.0809,28.1753 90.1639,28.6153 90.2449,29.0593 C91.0869,33.8203 88.6049,41.2263 86.5499,46.0283" id="Fill-446" fill="#FFFFFE"></path>
                    <path d="M61.2569,27.6543 C64.7429,27.6543 68.2669,28.2403 71.4449,29.3473 C78.6299,31.8513 84.9259,37.3723 86.9249,42.3513 C88.2889,38.5943 89.9269,33.0023 89.2609,29.2343 C89.1879,28.8343 89.1119,28.4333 89.0129,28.0433 C89.0069,28.0233 89.0019,28.0053 88.9969,27.9853 C87.6789,22.8323 83.2949,18.9243 75.9689,16.3703 C68.5919,13.7993 62.6779,14.1133 58.3929,17.3323 C58.1639,17.5173 57.9139,17.7273 57.6659,17.9363 L57.3969,18.1623 C57.3599,18.2033 57.3389,18.2183 57.3109,18.2363 C54.8459,20.4463 52.5179,24.7713 50.9429,29.9463 C53.4119,28.4923 57.0489,27.6543 61.2569,27.6543 M86.5499,47.0283 C86.4639,47.0283 86.3769,47.0173 86.2909,46.9943 C85.8109,46.8653 85.4979,46.4033 85.5569,45.9093 C86.0529,41.7673 79.5749,34.2993 70.7869,31.2363 C67.8179,30.2013 64.5219,29.6543 61.2569,29.6543 C55.8809,29.6543 51.3419,31.1973 49.9619,33.4933 C49.7079,33.9143 49.1829,34.0883 48.7319,33.9063 C48.2759,33.7223 48.0209,33.2353 48.1289,32.7563 C49.7229,25.7503 52.7539,19.5933 56.0379,16.6923 L56.0379,16.6933 C56.0459,16.6853 56.0549,16.6773 56.0629,16.6723 C56.0829,16.6533 56.1029,16.6363 56.1179,16.6243 L56.3799,16.4043 C56.6379,16.1873 56.8979,15.9703 57.1629,15.7553 C62.0429,12.0903 68.5779,11.6753 76.6269,14.4813 C84.6069,17.2613 89.4159,21.6233 90.9229,27.4453 C90.9289,27.4623 90.9339,27.4783 90.9379,27.4963 C91.0549,27.9473 91.1439,28.4113 91.2289,28.8813 C92.2179,34.4703 88.9289,43.0093 87.4689,46.4223 C87.3089,46.7973 86.9419,47.0283 86.5499,47.0283" id="Fill-448" fill="#5A7A8E"></path>
                </g>
                <g id="Group-460" transform="translate(62.000000, 13.000000)">
                    <g id="Group-453">
                        <mask id="mask-2" fill="white">
                            <use xlink:href="#path-1"></use>
                        </mask>
                        <g id="Clip-452"></g>
                        <path d="M39.5577,36.5664 C40.1647,31.5274 35.2887,21.8824 26.6887,18.8854 C17.8287,15.7984 7.2507,17.2854 4.6707,21.5704 C6.1827,14.9234 9.0407,8.8864 12.2697,6.0334 C12.2697,6.0304 12.2767,6.0274 12.2807,6.0214 C12.2937,6.0094 12.3107,6.0004 12.3217,5.9874 C12.6627,5.7024 13.0077,5.4124 13.3627,5.1254 C17.7067,1.8604 23.7297,1.1814 31.8697,4.0184 C39.9357,6.8304 44.1927,11.0844 45.5367,16.3304 C45.5357,16.3364 45.5397,16.3364 45.5397,16.3394 C45.6477,16.7674 45.7337,17.2074 45.8117,17.6524 C46.6537,22.4124 41.6147,31.7634 39.5577,36.5664" id="Fill-451" fill="#E98875" mask="url(#mask-2)"></path>
                    </g>
                    <g id="Group-456">
                        <mask id="mask-4" fill="white">
                            <use xlink:href="#path-3"></use>
                        </mask>
                        <g id="Clip-455"></g>
                        <path d="M16.7178,15.4102 C13.6158,14.3292 10.3078,13.8212 7.1978,13.7842 C6.1728,16.1562 5.3038,18.8012 4.6708,21.5702 C6.7568,18.1022 14.0808,16.4712 21.4898,17.6072 C19.9778,16.7382 18.3678,15.9862 16.7178,15.4102" id="Fill-454" fill="#E47460" mask="url(#mask-4)"></path>
                    </g>
                    <g id="Group-459">
                        <mask id="mask-6" fill="white">
                            <use xlink:href="#path-5"></use>
                        </mask>
                        <g id="Clip-458"></g>
                        <path d="M45.8116,17.6523 C45.7336,17.2073 45.6476,16.7673 45.5406,16.3403 C45.5406,16.3363 45.5356,16.3363 45.5376,16.3303 C44.1926,11.0843 39.9356,6.8303 31.8696,4.0183 C30.0476,3.3843 28.3466,2.9513 26.7336,2.6573 C31.7026,5.3233 34.5256,8.7863 35.5676,12.8553 C35.5656,12.8613 35.5696,12.8623 35.5716,12.8653 C35.6816,13.2943 35.7626,13.7323 35.8426,14.1773 C36.2956,16.7483 35.4636,21.3473 34.5706,24.6343 C37.1576,28.6463 36.6586,29.8633 39.0866,32.9783 C41.1436,28.1733 46.6536,22.4123 45.8116,17.6523" id="Fill-457" fill="#E47460" mask="url(#mask-6)"></path>
                    </g>
                </g>
                <g id="Group-467" transform="translate(45.000000, 12.000000)">
                    <path d="M29.2569,15.6543 C32.7429,15.6543 36.2669,16.2403 39.4449,17.3473 C46.6299,19.8513 52.9259,25.3723 54.9249,30.3513 C56.2889,26.5943 57.9269,21.0023 57.2609,17.2343 C57.1879,16.8343 57.1119,16.4333 57.0129,16.0433 C57.0069,16.0233 57.0019,16.0053 56.9969,15.9853 C55.6789,10.8323 51.2949,6.9243 43.9689,4.3703 C36.5919,1.7993 30.6779,2.1133 26.3929,5.3323 C26.1639,5.5173 25.9139,5.7273 25.6659,5.9363 L25.3969,6.1623 C25.3599,6.2033 25.3389,6.2183 25.3109,6.2363 C22.8459,8.4463 20.5179,12.7713 18.9429,17.9463 C21.4119,16.4923 25.0489,15.6543 29.2569,15.6543 M54.5499,35.0283 C54.4639,35.0283 54.3769,35.0173 54.2909,34.9943 C53.8109,34.8653 53.4979,34.4033 53.5569,33.9093 C54.0529,29.7673 47.5749,22.2993 38.7869,19.2363 C35.8179,18.2013 32.5219,17.6543 29.2569,17.6543 C23.8809,17.6543 19.3419,19.1973 17.9619,21.4933 C17.7079,21.9143 17.1829,22.0883 16.7319,21.9063 C16.2759,21.7223 16.0209,21.2353 16.1289,20.7563 C17.7229,13.7503 20.7539,7.5933 24.0379,4.6923 L24.0379,4.6933 C24.0459,4.6853 24.0549,4.6773 24.0629,4.6723 C24.0829,4.6533 24.1029,4.6363 24.1179,4.6243 L24.3799,4.4043 C24.6379,4.1873 24.8979,3.9703 25.1629,3.7553 C30.0429,0.0903 36.5779,-0.3247 44.6269,2.4813 C52.6069,5.2613 57.4159,9.6233 58.9229,15.4453 C58.9289,15.4623 58.9339,15.4783 58.9379,15.4963 C59.0549,15.9473 59.1439,16.4113 59.2289,16.8813 C60.2179,22.4703 56.9289,31.0093 55.4689,34.4223 C55.3089,34.7973 54.9419,35.0283 54.5499,35.0283" id="Fill-461" fill="#5A7A8E"></path>
                    <path d="M18.4415,16.6152 C20.0685,11.9482 21.8525,8.0372 24.7005,5.4412 C7.3815,20.0492 3.4095,34.0402 3.3055,34.4182 C3.3055,34.4212 3.3015,34.4262 3.3015,34.4262 C3.1785,34.7852 3.1045,35.1262 3.0015,35.4182 C-5.6335,60.1952 21.4865,160.2382 21.4865,160.2382 L29.1265,145.7282 L41.6475,148.7402 C41.6475,148.7402 10.2665,40.0712 18.4415,16.6152" id="Fill-463" fill="#FFFFFE"></path>
                    <path d="M4.2374,34.7793 C4.1864,34.9313 4.1454,35.0803 4.1054,35.2213 C4.0524,35.4093 4.0024,35.5883 3.9434,35.7523 C-3.7396,57.7983 17.7134,141.9493 21.7964,157.5043 L28.2414,145.2613 C28.4544,144.8573 28.9194,144.6483 29.3594,144.7563 L40.2144,147.3673 C36.1634,133.1293 9.7684,38.4633 17.4974,16.2853 C18.0084,14.8163 18.5604,13.3383 19.1924,11.9113 C7.2854,24.0783 4.3024,34.5623 4.2704,34.6813 L4.2694,34.6813 C4.2604,34.7153 4.2504,34.7473 4.2374,34.7793 M21.4864,161.2383 C21.4504,161.2383 21.4134,161.2363 21.3774,161.2323 C20.9674,161.1873 20.6294,160.8963 20.5214,160.5003 C19.4104,156.4043 -6.5806,59.8743 2.0564,35.0903 C2.1024,34.9593 2.1394,34.8233 2.1794,34.6803 C2.2324,34.4963 2.2874,34.3003 2.3554,34.1013 C2.3564,34.0993 2.3564,34.0973 2.3574,34.0953 C2.6854,32.9443 6.8964,19.1503 24.0554,4.6773 C24.4714,4.3263 25.0934,4.3733 25.4524,4.7833 C25.8114,5.1923 25.7764,5.8143 25.3744,6.1813 C22.4944,8.8053 20.7944,12.9043 19.3854,16.9433 C11.4084,39.8343 42.2954,147.3793 42.6084,148.4633 C42.7074,148.8043 42.6164,149.1743 42.3704,149.4313 C42.1254,149.6893 41.7574,149.7933 41.4144,149.7133 L29.6484,146.8833 L22.3714,160.7053 C22.1974,161.0353 21.8544,161.2383 21.4864,161.2383" id="Fill-465" fill="#5A7A8E"></path>
                </g>
                <g id="Group-474" transform="translate(46.000000, 17.000000)">
                    <g id="Group-470">
                        <mask id="mask-8" fill="white">
                            <use xlink:href="#path-7"></use>
                        </mask>
                        <g id="Clip-469"></g>
                        <path d="M22.2178,13.2793 C23.8448,8.6133 25.6298,4.7033 28.4758,2.1053 C11.1588,16.7143 7.1848,30.7053 7.0798,31.0823 C7.0768,31.0853 7.0768,31.0903 7.0768,31.0903 C6.9578,31.4493 6.8778,31.7893 6.7768,32.0823 C-1.8592,56.8593 25.2648,156.9043 25.2648,156.9043 L32.9018,142.3923 L45.4228,145.4043 C45.4228,145.4043 14.0418,36.7363 22.2178,13.2793" id="Fill-468" fill="#E98875" mask="url(#mask-8)"></path>
                    </g>
                    <g id="Group-473">
                        <mask id="mask-10" fill="white">
                            <use xlink:href="#path-9"></use>
                        </mask>
                        <g id="Clip-472"></g>
                        <path d="M22.2178,13.2793 C23.8448,8.6133 25.6298,4.7033 28.4758,2.1053 C20.6958,8.6713 15.6138,15.1053 12.3588,20.2403 C11.7448,55.2973 36.9058,142.4373 36.9058,142.4373 L24.3858,139.4253 L21.9498,144.0563 C23.9308,151.9803 25.2648,156.9043 25.2648,156.9043 L32.9018,142.3923 L45.4228,145.4043 C45.4228,145.4043 14.0418,36.7363 22.2178,13.2793" id="Fill-471" fill="#E47460" mask="url(#mask-10)"></path>
                    </g>
                </g>
                <g id="Group-481" transform="translate(0.000000, 16.000000)">
                    <path d="M49.2374,30.7793 C49.1864,30.9313 49.1454,31.0803 49.1054,31.2213 C49.0524,31.4093 49.0024,31.5883 48.9434,31.7523 C41.2604,53.7983 62.7134,137.9493 66.7964,153.5043 L73.2414,141.2613 C73.4544,140.8573 73.9194,140.6483 74.3594,140.7563 L85.2144,143.3673 C81.1634,129.1293 54.7684,34.4633 62.4974,12.2853 C63.0084,10.8163 63.5604,9.3383 64.1924,7.9113 C52.2854,20.0783 49.3024,30.5623 49.2704,30.6813 L49.2694,30.6813 C49.2604,30.7153 49.2504,30.7473 49.2374,30.7793 M66.4864,157.2383 C66.4504,157.2383 66.4134,157.2363 66.3774,157.2323 C65.9674,157.1873 65.6294,156.8963 65.5214,156.5003 C64.4104,152.4043 38.4194,55.8743 47.0564,31.0903 C47.1024,30.9593 47.1394,30.8233 47.1794,30.6803 C47.2324,30.4963 47.2874,30.3003 47.3554,30.1013 C47.3564,30.0993 47.3564,30.0973 47.3574,30.0953 C47.6854,28.9443 51.8964,15.1503 69.0554,0.6773 C69.4714,0.3263 70.0934,0.3733 70.4524,0.7833 C70.8114,1.1923 70.7764,1.8143 70.3744,2.1813 C67.4944,4.8053 65.7944,8.9043 64.3854,12.9433 C56.4084,35.8343 87.2954,143.3793 87.6084,144.4633 C87.7074,144.8043 87.6164,145.1743 87.3704,145.4313 C87.1254,145.6893 86.7574,145.7933 86.4144,145.7133 L74.6484,142.8833 L67.3714,156.7053 C67.1974,157.0353 66.8544,157.2383 66.4864,157.2383" id="Fill-475" fill="#5A7A8E"></path>
                    <path d="M103.2452,13.0596 C105.5102,44.8286 1.5532,114.8396 1.5532,114.8396 L14.6262,118.8656 L10.7662,136.8186 C10.7662,136.8186 92.5382,76.6506 101.7712,50.1586 C101.8822,49.8416 102.0382,49.4926 102.1712,49.0836 C102.1712,49.0836 107.8252,35.6126 103.2452,13.0596" id="Fill-477" fill="#FFFFFE"></path>
                    <path d="M3.8311,114.4961 L14.9201,117.9101 C15.4161,118.0621 15.7131,118.5681 15.6031,119.0761 L12.3041,134.4261 C25.2221,124.7401 92.6301,73.3501 100.8271,49.8291 C100.8771,49.6871 100.9351,49.5391 100.9961,49.3831 C101.0691,49.1951 101.1481,48.9941 101.2201,48.7741 C101.2951,48.5881 105.6311,37.8901 103.3691,19.9531 C99.4421,33.4231 82.8551,52.4331 53.8901,76.6311 C32.1971,94.7521 10.0591,110.2151 3.8311,114.4961 M10.7671,137.8181 C10.5781,137.8181 10.3891,137.7661 10.2241,137.6581 C9.8751,137.4331 9.7011,137.0161 9.7891,136.6091 L13.4561,119.5511 L1.2591,115.7971 C0.8911,115.6831 0.6201,115.3671 0.5631,114.9861 C0.5071,114.6051 0.6751,114.2261 0.9941,114.0121 C2.0291,113.3141 104.4451,43.9631 102.2481,13.1311 C102.2101,12.6051 102.5881,12.1411 103.1091,12.0681 C103.6331,11.9961 104.1201,12.3441 104.2261,12.8601 C108.8131,35.4551 103.3291,48.9091 103.0931,49.4711 C103.0371,49.6521 102.9441,49.8911 102.8571,50.1131 C102.8071,50.2441 102.7571,50.3691 102.7161,50.4881 C93.4861,76.9691 14.7081,135.1601 11.3591,137.6251 C11.1841,137.7541 10.9761,137.8181 10.7671,137.8181" id="Fill-479" fill="#5A7A8E"></path>
                </g>
                <g id="Group-491" transform="translate(1.000000, 29.000000)">
                    <g id="Group-484">
                        <mask id="mask-12" fill="white">
                            <use xlink:href="#path-11"></use>
                        </mask>
                        <g id="Clip-483"></g>
                        <path d="M105.9444,4.1465 C108.2124,35.9135 4.2524,105.9255 4.2524,105.9255 L17.3284,109.9515 L13.4654,127.9045 C13.4654,127.9045 95.2374,67.7355 104.4714,41.2435 C104.5814,40.9255 104.7394,40.5785 104.8724,40.1675 C104.8724,40.1675 110.5274,26.6975 105.9444,4.1465" id="Fill-482" fill="#E98875" mask="url(#mask-12)"></path>
                    </g>
                    <g id="Group-487">
                        <mask id="mask-14" fill="white">
                            <use xlink:href="#path-13"></use>
                        </mask>
                        <g id="Clip-486"></g>
                        <path d="M10.6944,101.582 L10.5794,101.549 C6.6084,104.338 4.2524,105.926 4.2524,105.926 L9.4194,107.518 L10.6944,101.582 Z" id="Fill-485" fill="#E47460" mask="url(#mask-14)"></path>
                    </g>
                    <g id="Group-490">
                        <mask id="mask-16" fill="white">
                            <use xlink:href="#path-15"></use>
                        </mask>
                        <g id="Clip-489"></g>
                        <path d="M105.9444,4.1465 C106.2764,8.8075 104.3094,14.2975 100.7264,20.2655 C99.9524,27.7075 98.2394,31.8015 98.2394,31.8015 C98.1084,32.2105 97.9484,32.5585 97.8394,32.8755 C90.6194,53.5895 39.0534,94.8925 16.9034,111.9215 L13.4654,127.9045 C13.4654,127.9045 95.2374,67.7355 104.4714,41.2435 C104.5814,40.9255 104.7394,40.5785 104.8724,40.1675 C104.8724,40.1675 110.5274,26.6975 105.9444,4.1465" id="Fill-488" fill="#E47460" mask="url(#mask-16)"></path>
                    </g>
                </g>
                <g id="Group-498" transform="translate(0.000000, 2.000000)">
                    <path d="M3.8311,128.4961 L14.9201,131.9101 C15.4161,132.0621 15.7131,132.5681 15.6031,133.0761 L12.3041,148.4261 C25.2221,138.7401 92.6301,87.3501 100.8271,63.8291 C100.8771,63.6871 100.9351,63.5391 100.9961,63.3831 C101.0691,63.1951 101.1481,62.9941 101.2201,62.7741 C101.2951,62.5881 105.6311,51.8901 103.3691,33.9531 C99.4421,47.4231 82.8551,66.4331 53.8901,90.6311 C32.1971,108.7521 10.0591,124.2151 3.8311,128.4961 M10.7671,151.8181 C10.5781,151.8181 10.3891,151.7661 10.2241,151.6581 C9.8751,151.4331 9.7011,151.0161 9.7891,150.6091 L13.4561,133.5511 L1.2591,129.7971 C0.8911,129.6831 0.6201,129.3671 0.5631,128.9861 C0.5071,128.6051 0.6751,128.2261 0.9941,128.0121 C2.0291,127.3141 104.4451,57.9631 102.2481,27.1311 C102.2101,26.6051 102.5881,26.1411 103.1091,26.0681 C103.6331,25.9961 104.1201,26.3441 104.2261,26.8601 C108.8131,49.4551 103.3291,62.9091 103.0931,63.4711 C103.0371,63.6521 102.9441,63.8911 102.8571,64.1131 C102.8071,64.2441 102.7571,64.3691 102.7161,64.4881 C93.4861,90.9691 14.7081,149.1601 11.3591,151.6251 C11.1841,151.7541 10.9761,151.8181 10.7671,151.8181" id="Fill-492" fill="#5A7A8E"></path>
                    <path d="M152.7647,25.3418 L135.5207,25.3418 L135.5207,8.1028 C135.5207,4.6668 132.7357,1.8828 129.3017,1.8828 L117.9877,1.8828 C114.5537,1.8828 111.7687,4.6668 111.7687,8.1028 L111.7687,25.3418 L94.5267,25.3418 C91.0907,25.3418 88.3077,28.1268 88.3077,31.5618 L88.3077,42.8758 C88.3077,46.3128 91.0907,49.0968 94.5267,49.0968 L111.7687,49.0968 L111.7687,66.3388 C111.7687,69.7728 114.5537,72.5568 117.9877,72.5568 L129.3017,72.5568 C132.7357,72.5568 135.5207,69.7728 135.5207,66.3388 L135.5207,49.0968 L152.7647,49.0968 C156.1967,49.0968 158.9807,46.3128 158.9807,42.8758 L158.9807,31.5618 C158.9807,28.1268 156.1967,25.3418 152.7647,25.3418" id="Fill-494" fill="#FFFFFE"></path>
                    <path d="M94.5264,26.3418 C91.6484,26.3418 89.3074,28.6838 89.3074,31.5618 L89.3074,42.8758 C89.3074,45.7548 91.6484,48.0968 94.5264,48.0968 L111.7684,48.0968 C112.3214,48.0968 112.7684,48.5448 112.7684,49.0968 L112.7684,66.3388 C112.7684,69.2158 115.1094,71.5568 117.9874,71.5568 L129.3014,71.5568 C132.1794,71.5568 134.5204,69.2158 134.5204,66.3388 L134.5204,49.0968 C134.5204,48.5448 134.9674,48.0968 135.5204,48.0968 L152.7644,48.0968 C155.6404,48.0968 157.9804,45.7548 157.9804,42.8758 L157.9804,31.5618 C157.9804,28.6838 155.6404,26.3418 152.7644,26.3418 L135.5204,26.3418 C134.9674,26.3418 134.5204,25.8938 134.5204,25.3418 L134.5204,8.1028 C134.5204,5.2248 132.1794,2.8828 129.3014,2.8828 L117.9874,2.8828 C115.1094,2.8828 112.7684,5.2248 112.7684,8.1028 L112.7684,25.3418 C112.7684,25.8938 112.3214,26.3418 111.7684,26.3418 L94.5264,26.3418 Z M129.3014,73.5568 L117.9874,73.5568 C114.0064,73.5568 110.7684,70.3188 110.7684,66.3388 L110.7684,50.0968 L94.5264,50.0968 C90.5464,50.0968 87.3074,46.8578 87.3074,42.8758 L87.3074,31.5618 C87.3074,27.5808 90.5464,24.3418 94.5264,24.3418 L110.7684,24.3418 L110.7684,8.1028 C110.7684,4.1218 114.0064,0.8828 117.9874,0.8828 L129.3014,0.8828 C133.2824,0.8828 136.5204,4.1218 136.5204,8.1028 L136.5204,24.3418 L152.7644,24.3418 C156.7434,24.3418 159.9804,27.5808 159.9804,31.5618 L159.9804,42.8758 C159.9804,46.8578 156.7434,50.0968 152.7644,50.0968 L136.5204,50.0968 L136.5204,66.3388 C136.5204,70.3188 133.2824,73.5568 129.3014,73.5568 Z" id="Fill-496" fill="#5A7A8E"></path>
                </g>
                <g id="Group-511" transform="translate(88.000000, 3.000000)">
                    <g id="Group-501">
                        <mask id="mask-18" fill="white">
                            <use xlink:href="#path-17"></use>
                        </mask>
                        <g id="Clip-500"></g>
                        <path d="M69.2247,19.5928 L51.9837,19.5928 L51.9837,2.3528 C51.9837,-1.0812 49.1977,-3.8662 45.7637,-3.8662 L34.4497,-3.8662 C31.0147,-3.8662 23.6237,-1.0812 23.6237,2.3528 L23.6237,19.5928 L10.9887,19.5928 C7.5517,19.5928 4.7687,22.3778 4.7687,25.8128 L4.7687,37.1268 C4.7687,40.5628 7.5517,43.3468 10.9887,43.3468 L28.2297,43.3468 L28.2297,60.5888 C28.2297,64.0238 31.0147,66.8068 34.4497,66.8068 L45.7637,66.8068 C49.1977,66.8068 51.9837,64.0238 51.9837,60.5888 L51.9837,47.9498 L69.2247,47.9498 C72.6597,47.9498 75.4447,40.5628 75.4447,37.1268 L75.4447,25.8128 C75.4447,22.3778 72.6597,19.5928 69.2247,19.5928" id="Fill-499" fill="#E98875" mask="url(#mask-18)"></path>
                    </g>
                    <g id="Group-504">
                        <mask id="mask-20" fill="white">
                            <use xlink:href="#path-19"></use>
                        </mask>
                        <g id="Clip-503"></g>
                        <path d="M23.7686,27.4375 L23.7686,19.5925 L10.9886,19.5925 C7.5516,19.5925 4.7686,22.3775 4.7686,25.8125 L4.7686,27.4375 L23.7686,27.4375 Z" id="Fill-502" fill="#E47460" mask="url(#mask-20)"></path>
                    </g>
                    <g id="Group-507">
                        <mask id="mask-22" fill="white">
                            <use xlink:href="#path-21"></use>
                        </mask>
                        <g id="Clip-506"></g>
                        <path d="M41.4766,48.7256 L41.4766,66.8066 L45.7636,66.8066 C49.1976,66.8066 51.9836,64.0236 51.9836,60.5886 L51.9836,48.7256 L41.4766,48.7256 Z" id="Fill-505" fill="#E47460" mask="url(#mask-22)"></path>
                    </g>
                    <g id="Group-510">
                        <mask id="mask-24" fill="white">
                            <use xlink:href="#path-23"></use>
                        </mask>
                        <g id="Clip-509"></g>
                        <path d="M69.2247,19.5928 L51.9837,19.5928 L51.9837,2.3528 C51.9837,-1.0832 49.1977,-3.8662 45.7637,-3.8662 L34.4497,-3.8662 C31.0147,-3.8662 23.6237,-1.0832 23.6237,2.3528 L23.6237,3.9928 C23.7277,3.9888 23.8407,3.9778 23.9427,3.9778 L35.2557,3.9778 C38.6927,3.9778 41.4767,6.7618 41.4767,10.1968 L41.4767,27.4378 L58.7177,27.4378 C62.1537,27.4378 64.9347,30.2228 64.9347,33.6558 L64.9347,44.9718 C64.9347,45.7898 64.7727,46.8368 64.4877,47.9498 L69.2247,47.9498 C72.6597,47.9498 75.4447,40.5628 75.4447,37.1268 L75.4447,25.8128 C75.4447,22.3778 72.6597,19.5928 69.2247,19.5928" id="Fill-508" fill="#E47460" mask="url(#mask-24)"></path>
                    </g>
                </g>
                <path d="M94.5264,28.3418 C91.6484,28.3418 89.3074,30.6838 89.3074,33.5618 L89.3074,44.8758 C89.3074,47.7548 91.6484,50.0968 94.5264,50.0968 L111.7684,50.0968 C112.3214,50.0968 112.7684,50.5448 112.7684,51.0968 L112.7684,68.3388 C112.7684,71.2158 115.1094,73.5568 117.9874,73.5568 L129.3014,73.5568 C132.1794,73.5568 134.5204,71.2158 134.5204,68.3388 L134.5204,51.0968 C134.5204,50.5448 134.9674,50.0968 135.5204,50.0968 L152.7644,50.0968 C155.6404,50.0968 157.9804,47.7548 157.9804,44.8758 L157.9804,33.5618 C157.9804,30.6838 155.6404,28.3418 152.7644,28.3418 L135.5204,28.3418 C134.9674,28.3418 134.5204,27.8938 134.5204,27.3418 L134.5204,10.1028 C134.5204,7.2248 132.1794,4.8828 129.3014,4.8828 L117.9874,4.8828 C115.1094,4.8828 112.7684,7.2248 112.7684,10.1028 L112.7684,27.3418 C112.7684,27.8938 112.3214,28.3418 111.7684,28.3418 L94.5264,28.3418 Z M129.3014,75.5568 L117.9874,75.5568 C114.0064,75.5568 110.7684,72.3188 110.7684,68.3388 L110.7684,52.0968 L94.5264,52.0968 C90.5464,52.0968 87.3074,48.8578 87.3074,44.8758 L87.3074,33.5618 C87.3074,29.5808 90.5464,26.3418 94.5264,26.3418 L110.7684,26.3418 L110.7684,10.1028 C110.7684,6.1218 114.0064,2.8828 117.9874,2.8828 L129.3014,2.8828 C133.2824,2.8828 136.5204,6.1218 136.5204,10.1028 L136.5204,26.3418 L152.7644,26.3418 C156.7434,26.3418 159.9804,29.5808 159.9804,33.5618 L159.9804,44.8758 C159.9804,48.8578 156.7434,52.0968 152.7644,52.0968 L136.5204,52.0968 L136.5204,68.3388 C136.5204,72.3188 133.2824,75.5568 129.3014,75.5568 Z" id="Fill-512" fill="#5A7A8E"></path>
            </g>
        </g>
    </g>
</svg>