<?xml version="1.0" encoding="UTF-8"?>
<svg width="67px" height="63px" viewBox="0 0 67 63" version="1.1" xmlns="http://www.w3.org/2000/svg" xmlns:xlink="http://www.w3.org/1999/xlink">
    <!-- Generator: sketchtool 51.1 (57501) - http://www.bohemiancoding.com/sketch -->
    <title>9D946A80-52EE-4652-B3A5-E04856ED1D19</title>
    <desc>Created with sketchtool.</desc>
    <defs>
        <path d="M2.43729195,0.122804943 C2.15444617,0.260836537 1.88690026,0.421935672 1.63408915,0.604924919 C1.49765813,0.710758929 1.36585188,0.818821023 1.23366023,0.924655032 C1.22865005,0.929111201 1.22286908,0.933196023 1.2182443,0.937652192 C1.21516111,0.939880276 1.21400491,0.940994318 1.21323412,0.94210836 C0.804021371,1.29048849 0.410394239,1.76675735 0.0456311688,2.33688913 L0.0456311688,5.53118099 C1.80232441,4.94125905 4.4407657,4.93246143 6.76913724,5.71466518 C10.0851049,6.82796469 12.9493857,9.68622565 12.7166051,11.5578166 C13.5085988,9.77460633 14.4651576,7.02440747 14.1410376,5.25642248 C14.1098203,5.09154424 14.0778322,4.92815138 14.0346676,4.76921469 C14.0342822,4.76810065 14.0327406,4.76735795 14.0335114,4.76587256 C13.5163068,2.81778409 11.8745097,1.23732955 8.76588628,0.193843344 C8.69332417,0.169465979 8.62119889,0.145787944 8.5495083,0.122804943 L2.43729195,0.122804943 Z" id="path-1"></path>
        <path d="M0.536072178,0.279661729 C3.4837076,1.32306567 5.05152691,2.87045816 5.55474693,4.76587256 C5.55397613,4.76735795 5.55551773,4.76810065 5.55590312,4.76921469 C5.59906774,4.92815138 5.63105581,5.09154424 5.66227308,5.25642248 C5.98527252,7.0182949 5.03643337,9.75560118 4.24606112,11.5392863 L4.24004134,11.5392863 C4.41240533,10.0152374 2.55099137,7.84735985 0.0694873289,6.49543809 L0.0694873289,0.279661729 L0.536072178,0.279661729 Z" id="path-3"></path>
        <path d="M0.202887729,7.99387156 C1.24262852,6.02835499 3.18660913,3.11621965 6.63983619,0.0765149266 L6.78158546,0.0765149266 C6.01590639,1.02258283 5.47210419,2.26651379 4.96701439,3.69669877 C1.81715339,12.6257242 13.9109547,53.9928912 13.9109547,53.9928912 L9.08499614,52.8463093 L6.14093787,58.3698496 C6.14093787,58.3698496 2.50298178,45.1148817 0.202887729,32.307992 L0.202887729,7.99387156 Z" id="path-5"></path>
        <path d="M0.306383172,3.8252405 C1.27597517,2.64087154 2.47231514,1.37024751 3.9420475,0.0765149266 L4.08379676,0.0765149266 C3.3181177,1.02258283 2.77431549,2.26651379 2.26922569,3.69669877 C-0.880635311,12.6257242 11.213166,53.9928912 11.213166,53.9928912 L6.38720744,52.8463093 L3.44314918,58.3698496 C3.44314918,58.3698496 1.97029699,53.0034823 0.306383172,45.8007071 L0.306383172,3.8252405 Z" id="path-7"></path>
        <path d="M0.263207509,35.8974997 C6.90594461,31.2900294 35.1294656,11.1404703 37.0660269,0.0911395455 L37.4346327,0.0911395455 C38.6257114,7.64864672 36.7526686,12.1092922 36.7526686,12.1092922 C36.7025948,12.2628221 36.6434851,12.3945266 36.6024472,12.513437 C33.1255178,22.4823422 2.33953864,45.1234825 2.33953864,45.1234825 L3.79243204,38.3677919 L0.263207509,37.2817573 L0.263207509,35.8974997 Z" id="path-9"></path>
        <path d="M0.343777395,33.4462711 C10.2505319,26.3277878 31.9864985,9.73981386 33.6775738,0.0911395455 L34.0461795,0.0911395455 C35.2372583,7.64864672 33.3642155,12.1092922 33.3642155,12.1092922 C33.3141417,12.2628221 33.255032,12.3945266 33.2139941,12.513437 C30.1823346,21.205683 6.38836516,39.5322764 0.343777395,44.0836785 L0.343777395,38.647718 L0.403978912,38.3677919 L0.343777395,38.3492663 L0.343777395,33.4462711 Z" id="path-11"></path>
        <path d="M28.4246067,0.374633512 C29.0468743,0.877906287 29.7839798,1.28681763 30.5951386,1.38109002 C39.2032317,31.2044902 14.8232027,38.5711916 14.8092285,38.5765196 L14.8065847,38.5765196 C14.7988238,38.5732019 5.34288204,35.7155267 0.286375924,26.3587523 L0.286375924,0.975355735 C0.607675335,0.807419547 0.909687765,0.600536502 1.18868481,0.374633512 L28.4246067,0.374633512 Z" id="path-13"></path>
        <path d="M8.74618625,30.8886929 C10.2810204,29.5773777 11.8217891,27.9655459 13.1822253,26.0041729 L13.1822253,0.345634046 L0.0772734219,0.345634046 L0.0772734219,30.8886929 L8.74618625,30.8886929 Z" id="path-15"></path>
        <path d="M16.0970983,0.101041444 C16.689765,0.554493751 17.3788291,0.913023332 18.1316835,1.00051961 C26.7397765,30.8239198 2.35974751,38.1906212 2.34577333,38.1959492 L2.34312957,38.1959492 C2.34076603,38.1949388 1.46211602,37.9291965 0.0983102235,37.2957754 L0.0983102235,0.101041444 L16.0970983,0.101041444 Z" id="path-17"></path>
    </defs>
    <g id="Page-1" stroke="none" stroke-width="1" fill="none" fill-rule="evenodd">
        <g id="Web-_Activ-Assure_cross-sell" transform="translate(-158.000000, -2031.000000)">
            <g id="Group-12" transform="translate(146.000000, 2017.000000)">
                <g id="Group">
                    <g id="Group-38">
                        <g id="Page-1" transform="translate(13.000000, 15.000000)">
                            <g id="Group-7" transform="translate(10.298701, 0.000000)">
                                <path d="M54.6172792,28.1219496 C54.6172792,43.1262024 42.4613623,55.2885996 27.4664202,55.2885996 C12.4714781,55.2885996 0.31556112,43.1262024 0.31556112,28.1219496 C0.31556112,13.1180766 12.4714781,0.955299502 27.4664202,0.955299502 C42.4613623,0.955299502 54.6172792,13.1180766 54.6172792,28.1219496" id="Fill-1" fill="#F9E0DB"></path>
                                <path d="M26.9502786,12.581345 C27.1795568,10.6670237 24.3583728,7.7435056 21.0922981,6.60478829 C17.7309439,5.4322665 13.7140213,5.99706725 12.7361728,7.62462017 C13.3101274,5.10029888 14.3938841,2.80691158 15.6196111,1.72326899 C15.6203703,1.72212951 15.6218887,1.72099004 15.6245459,1.71871108 C15.6291011,1.714533 15.6351747,1.70997509 15.6401095,1.70541719 C15.7699326,1.59716687 15.8997556,1.48663761 16.0341339,1.3783873 C17.6842532,0.138256538 19.9717202,-0.11888543 23.0586239,0.957540473 C26.120474,2.02523039 27.7375681,3.64176837 28.2469907,5.63433375 C28.2462315,5.63585305 28.2477499,5.6366127 28.2485091,5.63775218 C28.2906447,5.80031756 28.3221515,5.96744085 28.352899,6.13608344 C28.6725219,7.94443337 27.7303557,10.7574222 26.9502786,12.581345" id="Fill-3" fill="#FEFEFE"></path>
                                <path d="M26.9502786,12.581345 C27.1795568,10.6670237 24.3583728,7.7435056 21.0922981,6.60478829 C17.7309439,5.4322665 13.7140213,5.99706725 12.7361728,7.62462017 C13.3101274,5.10029888 14.3938841,2.80691158 15.6196111,1.72326899 C15.6203703,1.72212951 15.6218887,1.72099004 15.6245459,1.71871108 C15.6291011,1.714533 15.6351747,1.70997509 15.6401095,1.70541719 C15.7699326,1.59716687 15.8997556,1.48663761 16.0341339,1.3783873 C17.6842532,0.138256538 19.9717202,-0.11888543 23.0586239,0.957540473 C26.120474,2.02523039 27.7375681,3.64176837 28.2469907,5.63433375 C28.2462315,5.63585305 28.2477499,5.6366127 28.2485091,5.63775218 C28.2906447,5.80031756 28.3221515,5.96744085 28.352899,6.13608344 C28.6725219,7.94443337 27.7303557,10.7574222 26.9502786,12.581345 Z" id="Stroke-5" stroke="#5D98C1" stroke-width="2" stroke-linecap="round" stroke-linejoin="round"></path>
                            </g>
                            <g id="Group-16" transform="translate(24.558442, 0.792208)">
                                <g id="Group-10">
                                    <mask id="mask-2" fill="white">
                                        <use xlink:href="#path-1"></use>
                                    </mask>
                                    <g id="Clip-9"></g>
                                    <path d="M13.4906392,12.8716808 C13.7245761,11.0004612 11.8453735,7.41881554 8.53094742,6.30588738 C5.11670312,5.15953795 1.039959,5.71173153 0.0456311688,7.30295515 C0.628353528,4.83460897 1.72982211,2.5927847 2.9738881,1.53333056 C2.9738881,1.53221652 2.97658589,1.53110248 2.97812748,1.52887439 C2.98352306,1.52441822 2.98968943,1.5210761 2.99392882,1.51624858 C3.12573506,1.41041457 3.25869751,1.30272382 3.39512854,1.19614712 C5.06968452,-0.016302151 7.3905536,-0.268447037 10.5276965,0.785065544 C13.6363198,1.82929444 15.2769608,3.40900629 15.7949362,5.35709476 C15.7945508,5.35932285 15.7960924,5.35932285 15.7960924,5.36043689 C15.8377154,5.51937358 15.8708597,5.68276644 15.9013061,5.84801603 C16.2254262,7.61562967 14.2834037,11.0880992 13.4906392,12.8716808" id="Fill-8" fill="#F58F7B" mask="url(#mask-2)"></path>
                                </g>
                                <path d="M4.68837136,5.01538088 C3.49286557,4.61395434 2.21796771,4.42530986 1.01976413,4.41157001 C0.624345384,5.29240605 0.289434187,6.27461993 0.0454770095,7.30288088 C0.849418041,6.01504809 3.67207582,5.40938048 6.52749245,5.83123113 C5.94477009,5.50853024 5.32427869,5.22927699 4.68837136,5.01538088" id="Fill-11" fill="#F37D6C"></path>
                                <g id="Group-15" transform="translate(8.478764, 0.000000)">
                                    <mask id="mask-4" fill="white">
                                        <use xlink:href="#path-3"></use>
                                    </mask>
                                    <g id="Clip-14"></g>
                                    <path d="M7.42250312,5.84801603 C7.39205665,5.68276644 7.35891239,5.51937358 7.31767476,5.36080824 C7.31767476,5.35932285 7.31574777,5.35932285 7.31651857,5.35709476 C6.79815774,3.40900629 5.15751681,1.82929444 2.04889344,0.785065544 C1.34669758,0.549631291 0.691134925,0.388837865 0.0694873289,0.279661729 C1.98453191,1.2696739 3.07251155,2.55564996 3.47409667,4.06666254 C3.47332587,4.06889062 3.47486746,4.06926197 3.47563826,4.07037601 C3.51803208,4.22968405 3.54924935,4.39233421 3.58008122,4.55758381 C3.75466669,5.51231798 3.43401523,7.22014468 3.08985448,8.4407636 C4.0868801,9.93060937 3.8945663,10.3825392 4.83031358,11.5392863 C5.62307806,9.75496205 7.74662317,7.61562967 7.42250312,5.84801603" id="Fill-13" fill="#F37D6C" mask="url(#mask-4)"></path>
                                </g>
                            </g>
                            <g id="Group-23" transform="translate(16.636364, 0.000000)">
                                <path d="M20.6507373,12.628525 C20.8817342,10.707025 18.0394019,7.77254375 14.7488439,6.62955625 C11.3622922,5.4526375 7.31525768,6.01955625 6.330079,7.6532125 C6.90833605,5.119425 8.00021693,2.8174375 9.23513229,1.72973125 C9.23589718,1.7285875 9.23742696,1.72744375 9.24010408,1.72515625 C9.24469342,1.7209625 9.25081254,1.7163875 9.25578433,1.7118125 C9.38658056,1.60315625 9.5173768,1.4922125 9.65276238,1.38355625 C11.3152514,0.138775 13.6198658,-0.11933125 16.7299097,0.96113125 C19.8147122,2.032825 21.4439285,3.655425 21.9571699,5.6554625 C21.956405,5.6569875 21.9579348,5.65775 21.9586997,5.65889375 C22.0011511,5.82206875 22.032894,5.98981875 22.0638721,6.15909375 C22.3858909,7.974225 21.4366621,10.7977625 20.6507373,12.628525 Z" id="Stroke-17" stroke="#5D98C1" stroke-width="2" stroke-linecap="round" stroke-linejoin="round"></path>
                                <path d="M6.84144639,5.98981875 C7.46368464,4.210525 8.14596677,2.71945625 9.23517053,1.72973125 C2.61122069,7.29903125 1.09253103,12.6331 1.05275674,12.7772125 C1.05275674,12.7783563 1.05122696,12.7802625 1.05122696,12.7802625 C1.00456865,12.9171313 0.975885266,13.0471375 0.936493417,13.1584625 C-2.36592038,22.6046938 8.00599185,60.7460875 8.00599185,60.7460875 L10.9278727,55.21415 L15.7164683,56.362475 C15.7164683,56.362475 3.71533981,14.9324188 6.84144639,5.98981875" id="Fill-19" fill="#FEFEFE"></path>
                                <path d="M6.84144639,5.98981875 C7.46368464,4.210525 8.14596677,2.71945625 9.23517053,1.72973125 C2.61122069,7.29903125 1.09253103,12.6331 1.05275674,12.7772125 C1.05275674,12.7783563 1.05122696,12.7802625 1.05122696,12.7802625 C1.00456865,12.9171313 0.975885266,13.0471375 0.936493417,13.1584625 C-2.36592038,22.6046938 8.00599185,60.7460875 8.00599185,60.7460875 L10.9278727,55.21415 L15.7164683,56.362475 C15.7164683,56.362475 3.71533981,14.9324188 6.84144639,5.98981875 Z" id="Stroke-21" stroke="#5D98C1" stroke-width="2" stroke-linecap="round" stroke-linejoin="round"></path>
                            </g>
                            <g id="Group-30" transform="translate(18.220779, 2.376623)">
                                <g id="Group-26">
                                    <mask id="mask-6" fill="white">
                                        <use xlink:href="#path-5"></use>
                                    </mask>
                                    <g id="Clip-25"></g>
                                    <path d="M6.80806248,4.33013577 C7.43510565,2.5539236 8.12304177,1.0654989 9.21988557,0.0765149266 C2.54594173,5.63774161 1.01436855,10.9637134 0.97390172,11.1072265 C0.973130923,11.1083685 0.972745525,11.1102719 0.972745525,11.1102719 C0.926883117,11.2469329 0.896051246,11.3763611 0.857126009,11.4878978 C-2.47117445,20.91979 7.98237136,59.0040479 7.98237136,59.0040479 L10.9256588,53.4797463 L15.751232,54.6263282 C15.751232,54.6263282 3.65704528,13.2595419 6.80806248,4.33013577" id="Fill-24" fill="#F58F7B" mask="url(#mask-6)"></path>
                                </g>
                                <g id="Group-29" transform="translate(2.697789, 0.000000)">
                                    <mask id="mask-8" fill="white">
                                        <use xlink:href="#path-7"></use>
                                    </mask>
                                    <g id="Clip-28"></g>
                                    <path d="M4.11027378,4.33013577 C4.73731695,2.5539236 5.42525307,1.0654989 6.52209688,0.0765149266 C3.52369744,2.57600253 1.56510284,5.02524152 0.310631099,6.97998853 C0.0743818884,20.3251815 9.77100527,53.4964959 9.77100527,53.4964959 L4.94581748,52.3502947 L4.00698701,54.1131833 C4.77046121,57.1296225 5.28458266,59.0040479 5.28458266,59.0040479 L8.22787013,53.4797463 L13.0534433,54.6263282 C13.0534433,54.6263282 0.959256581,13.2595419 4.11027378,4.33013577" id="Fill-27" fill="#F37D6C" mask="url(#mask-8)"></path>
                                </g>
                            </g>
                            <g id="Group-37" transform="translate(0.000000, 1.584416)">
                                <path d="M23.5714954,4.46035839 C24.1911695,2.68284216 24.87064,1.19326299 25.9553553,0.204526723 C19.3587019,5.76826299 17.8462706,11.097003 17.8066602,11.2409715 C17.8066602,11.2421141 17.8051367,11.2440185 17.8051367,11.2440185 C17.7586707,11.3807505 17.7301055,11.5106269 17.690876,11.6218407 C14.4020711,21.0586351 24.7312419,59.1619256 24.7312419,59.1619256 L27.641082,53.6355145 L32.4099444,54.7826923 C32.4099444,54.7826923 20.4582711,13.3940247 23.5714954,4.46035839 Z" id="Stroke-31" stroke="#5D98C1" stroke-width="2" stroke-linecap="round" stroke-linejoin="round"></path>
                                <path d="M38.7313056,4.62957855 C39.5939742,16.72941 -3.80869131e-05,43.3944387 -3.80869131e-05,43.3944387 L4.97906406,44.9278178 L3.50929008,51.7655613 C3.50929008,51.7655613 34.6533398,28.8494274 38.1699045,18.7594424 C38.2121809,18.6387069 38.2715965,18.5057836 38.3222521,18.3500081 C38.3222521,18.3500081 40.4756862,13.2193201 38.7313056,4.62957855" id="Fill-33" fill="#FEFEFE"></path>
                                <path d="M38.7313056,4.62957855 C39.5939742,16.72941 -3.80869131e-05,43.3944387 -3.80869131e-05,43.3944387 L4.97906406,44.9278178 L3.50929008,51.7655613 C3.50929008,51.7655613 34.6533398,28.8494274 38.1699045,18.7594424 C38.2121809,18.6387069 38.2715965,18.5057836 38.3222521,18.3500081 C38.3222521,18.3500081 40.4756862,13.2193201 38.7313056,4.62957855 Z" id="Stroke-35" stroke="#5D98C1" stroke-width="2" stroke-linecap="round" stroke-linejoin="round"></path>
                            </g>
                            <g id="Group-46" transform="translate(0.792208, 7.922078)">
                                <g id="Group-40">
                                    <mask id="mask-10" fill="white">
                                        <use xlink:href="#path-9"></use>
                                    </mask>
                                    <g id="Clip-39"></g>
                                    <path d="M38.5497159,0.0911395455 C39.4036061,12.0450204 0.263207509,38.3904451 0.263207509,38.3904451 L5.18625341,39.9054236 L3.73223053,46.6607379 C3.73223053,46.6607379 34.5185862,24.0195977 37.9951391,14.0506925 C38.03693,13.9310295 38.0960397,13.8004538 38.1461135,13.6457951 C38.1461135,13.6457951 40.2751916,8.57705156 38.5497159,0.0911395455" id="Fill-38" fill="#F58F7B" mask="url(#mask-10)"></path>
                                </g>
                                <path d="M2.68877521,36.7559917 L2.64547831,36.7431975 C1.15041749,37.7930709 0.263395757,38.3906332 0.263395757,38.3906332 L2.20874435,38.9893244 L2.68877521,36.7559917 Z" id="Fill-41" fill="#F37D6C"></path>
                                <g id="Group-45" transform="translate(3.388453, 0.000000)">
                                    <mask id="mask-12" fill="white">
                                        <use xlink:href="#path-11"></use>
                                    </mask>
                                    <g id="Clip-44"></g>
                                    <path d="M35.1612628,0.0911395455 C35.2862591,1.84506779 34.5456938,3.91094766 33.196713,6.15669831 C32.905306,8.95711325 32.2603704,10.4976801 32.2603704,10.4976801 C32.2110496,10.6515863 32.1508104,10.7825382 32.1097725,10.9018249 C29.3914801,18.6964762 9.97752614,34.2383652 1.63779,40.6467321 L0.343777395,46.6607379 C0.343777395,46.6607379 31.1301331,24.0195977 34.606686,14.0506925 C34.6484769,13.9310295 34.7075866,13.8004538 34.7576604,13.6457951 C34.7576604,13.6457951 36.8867384,8.57705156 35.1612628,0.0911395455" id="Fill-43" fill="#F37D6C" mask="url(#mask-12)"></path>
                                </g>
                            </g>
                            <g id="Group-53" transform="translate(0.000000, 6.337662)">
                                <path d="M38.6316461,0.0585384059 C39.4920949,12.0334683 -3.79889117e-05,38.4232452 -3.79889117e-05,38.4232452 L4.96625243,39.9407958 L3.50026033,46.7079562 C3.50026033,46.7079562 34.5641733,24.028376 38.0716895,14.0425456 C38.1138572,13.9230564 38.1731199,13.7915052 38.2236452,13.6373377 C38.2236452,13.6373377 40.3715382,8.55961161 38.6316461,0.0585384059 Z" id="Stroke-47" stroke="#5D98C1" stroke-width="2" stroke-linecap="round" stroke-linejoin="round"></path>
                                <path d="M58.8403415,3.28127932 L47.1838238,3.28127932 L47.1815445,3.28127932 L35.5269263,3.28127932 C35.5269263,3.28127932 33.7467659,6.3665134 31.3059783,6.64507027 C22.649445,36.1837836 47.1712875,43.4801643 47.1838238,43.4854414 L47.1861032,43.4854414 C47.2001591,43.4801643 71.7231412,36.1837836 63.0647085,6.64507027 C60.6174628,6.36500565 58.8403415,3.28127932 58.8403415,3.28127932" id="Fill-49" fill="#FEFEFE"></path>
                                <path d="M58.8403415,3.28127932 L47.1838238,3.28127932 L47.1815445,3.28127932 L35.5269263,3.28127932 C35.5269263,3.28127932 33.7467659,6.3665134 31.3059783,6.64507027 C22.649445,36.1837836 47.1712875,43.4801643 47.1838238,43.4854414 L47.1861032,43.4854414 C47.2001591,43.4801643 71.7231412,36.1837836 63.0647085,6.64507027 C60.6174628,6.36500565 58.8403415,3.28127932 58.8403415,3.28127932 Z" id="Stroke-51" stroke="#5D98C1" stroke-width="2" stroke-linecap="round" stroke-linejoin="round"></path>
                            </g>
                            <g id="Group-63" transform="translate(32.480519, 11.090909)">
                                <g id="Group-56">
                                    <mask id="mask-14" fill="white">
                                        <use xlink:href="#path-13"></use>
                                    </mask>
                                    <g id="Clip-55"></g>
                                    <path d="M29.5009228,0.374633512 L17.912931,0.374633512 L17.9114202,0.374633512 L6.32305071,0.374633512 C6.32305071,0.374633512 4.5528624,3.48922175 2.12664313,3.77084385 C-6.48069453,33.5946246 17.8985791,40.961326 17.912931,40.9662734 L17.9136863,40.9662734 C17.9291712,40.961326 42.3092002,33.5946246 33.7014849,3.77084385 C31.267712,3.48846061 29.5009228,0.374633512 29.5009228,0.374633512" id="Fill-54" fill="#F58F7B" mask="url(#mask-14)"></path>
                                </g>
                                <g id="Group-59" transform="translate(14.729538, 2.663993)">
                                    <mask id="mask-16" fill="white">
                                        <use xlink:href="#path-15"></use>
                                    </mask>
                                    <g id="Clip-58"></g>
                                    <path d="M0.0772734219,0.345634046 L0.0772734219,30.8886929 C0.0772734219,30.8886929 1.43201323,30.4769157 2.71461607,29.7412731 C3.99759659,29.0060111 11.4363909,24.6404879 12.7507189,17.1010075 C14.0646692,9.56228824 11.958723,2.90040321 11.958723,2.90040321 C11.958723,2.90040321 8.846636,2.0555369 8.79791522,0.345634046 L0.0772734219,0.345634046 Z" id="Fill-57" fill="#F37D6C" mask="url(#mask-16)"></path>
                                </g>
                                <g id="Group-62" transform="translate(12.463455, 0.380570)">
                                    <mask id="mask-18" fill="white">
                                        <use xlink:href="#path-17"></use>
                                    </mask>
                                    <g id="Clip-61"></g>
                                    <path d="M23.1519254,3.49725178 C20.7181526,3.21486854 18.9513634,0.101041444 18.9513634,0.101041444 L15.845697,0.101041444 C23.677279,28.1228213 2.20274574,36.082832 0.0983102235,36.7903124 C3.92987848,39.6552464 7.35732865,40.6911591 7.36337153,40.6926814 L7.3641269,40.6926814 C7.37961179,40.6884951 31.7596408,33.3214131 23.1519254,3.49725178" id="Fill-60" fill="#F37D6C" mask="url(#mask-18)"></path>
                                </g>
                            </g>
                            <g id="Group-68" transform="translate(29.311688, 9.506494)" stroke="#5D98C1" stroke-linecap="round" stroke-linejoin="round" stroke-width="2">
                                <path d="M29.5389761,0.268948677 L17.9021179,0.268948677 L17.8998424,0.268948677 L6.26488035,0.268948677 C6.26488035,0.268948677 4.4877223,3.3909809 2.05105126,3.67286017 C-6.59088229,33.5638871 17.8896027,40.9472931 17.9021179,40.9526331 L17.9043933,40.9526331 C17.9184255,40.9472931 42.4000482,33.5638871 33.7562184,3.67286017 C31.3131002,3.38945517 29.5389761,0.268948677 29.5389761,0.268948677 Z" id="Stroke-64"></path>
                                <path d="M26.6590395,5.30505176 L17.9021937,5.30505176 L9.14534789,5.30505176 C9.14534789,5.30505176 7.80925573,7.65353709 5.97634816,7.86561405 C-0.528141337,30.3575962 17.8927125,35.9131734 17.9021937,35.9173692 L17.9044692,35.9173692 C17.9150881,35.9131734 36.335942,30.3575962 29.8329695,7.86561405 C27.9936147,7.65201135 26.6590395,5.30505176 26.6590395,5.30505176 Z" id="Stroke-66"></path>
                            </g>
                        </g>
                    </g>
                </g>
            </g>
        </g>
    </g>
</svg>