<?xml version="1.0" encoding="UTF-8"?>
<svg width="18px" height="18px" viewBox="0 0 18 18" version="1.1" xmlns="http://www.w3.org/2000/svg" xmlns:xlink="http://www.w3.org/1999/xlink">
    <!-- Generator: Sketch 50.2 (55047) - http://www.bohemiancoding.com/sketch -->
    <title>Close</title>
    <desc>Created with Sketch.</desc>
    <defs>
        <path d="M7.5,9 L0.35997089,1.85997089 C0.163306296,1.6633063 0.15576031,1.34423969 0.347900391,1.15209961 L1.15209961,0.347900391 C1.33947372,0.160526276 1.66116446,0.161164457 1.85997089,0.35997089 L9,7.5 L16.1400291,0.35997089 C16.3388355,0.161164457 16.6605263,0.160526276 16.8479004,0.347900391 L17.6520996,1.15209961 C17.8442397,1.34423969 17.8366937,1.6633063 17.6400291,1.85997089 L10.5,9 L17.6400291,16.1400291 C17.8366937,16.3366937 17.8442397,16.6557603 17.6520996,16.8479004 L16.8479004,17.6520996 C16.6605263,17.8394737 16.3388355,17.8388355 16.1400291,17.6400291 L9,10.5 L1.85997089,17.6400291 C1.66116446,17.8388355 1.33947372,17.8394737 1.15209961,17.6520996 L0.347900391,16.8479004 C0.15576031,16.6557603 0.163306296,16.3366937 0.35997089,16.1400291 L7.5,9 Z" id="path-1"></path>
    </defs>
    <g id="Symbols" stroke="none" stroke-width="1" fill="none" fill-rule="evenodd">
        <mask id="mask-2" fill="white">
            <use xlink:href="#path-1"></use>
        </mask>
        <use id="Close" fill="#FFFFFF" xlink:href="#path-1"></use>
    </g>
</svg>