<?xml version="1.0" encoding="UTF-8"?>
<svg width="83px" height="61px" viewBox="0 0 83 61" version="1.1" xmlns="http://www.w3.org/2000/svg" xmlns:xlink="http://www.w3.org/1999/xlink">
    <!-- Generator: sketchtool 51.1 (57501) - http://www.bohemiancoding.com/sketch -->
    <title>34F0562C-E65B-4471-B817-96023A8CE293</title>
    <desc>Created with sketchtool.</desc>
    <defs>
        <path d="M0.240813316,11.3658125 C0.901585486,10.1926298 1.80719183,9.05889521 3.01464447,8.42892559 C6.24590013,6.74432324 3.38288348,2.43692852 3.38288348,2.43692852 C3.38288348,2.43692852 2.7376321,0.658549413 5.414863,0.377641549 C5.49109347,0.36961561 5.56440802,0.36581385 5.63397354,0.36581385 C8.01044814,0.365391432 6.63205122,4.87427946 7.26105676,4.96467688 C7.90672471,5.05972089 7.0765207,3.37385129 8.27496372,2.25190951 C9.47673922,1.12785563 11.7853146,2.15644308 11.229207,4.40328357 C10.6760154,6.6509689 10.5827059,8.14844014 12.4309825,8.71025587 C14.2771763,9.27080434 13.5381989,11.3305137 10.8605514,10.9570964 C8.18415365,10.5824117 4.24266325,15.0862308 4.22808365,16.8118076 C4.21475373,18.5386518 3.22292446,43.4021658 3.22292446,43.4021658 L3.38288348,49.992729 C3.38288348,49.992729 2.34064845,50.6436743 1.12780047,50.6583938 L1.04463711,50.6583938 C0.780808051,50.6551629 0.509929072,50.6208153 0.240813316,50.5423388 L0.240813316,11.3658125 Z" id="path-1"></path>
        <path d="M0.28931674,2.00254675 C1.02218745,1.33439053 1.84088324,0.791260921 2.70184183,0.375481025 L11.484155,0.375481025 C15.2471265,1.42832107 17.7591635,1.34524949 19.5506841,0.746748826 C21.6317783,0.053458529 26.9039948,0.053458529 27.8733915,4.49511052 C28.8436229,8.9384331 31.3420209,28.3430438 22.0478302,29.6089251 C22.0478302,29.6089251 16.776031,30.4567439 11.783408,27.2630145 C8.62177649,25.2416606 3.57087319,21.9412996 0.28931674,17.7485682 L0.28931674,2.00254675 Z" id="path-3"></path>
        <path d="M6.16942321,0.16481214 C7.15462508,0.797987607 7.94079796,1.77912075 8.26011187,3.24217625 C9.23034326,7.68549883 11.7287412,27.0901095 2.4345505,28.3559908 C2.4345505,28.3559908 1.56666576,28.4955654 0.201682938,28.4481211 L0.201682938,0.16481214 L6.16942321,0.16481214 Z" id="path-5"></path>
        <polygon id="path-7" points="75.9400152 0.40158371 75.9400152 18.3154968 0.391544377 18.3154968 0.391544377 0.40158371 75.9400152 0.40158371"></polygon>
    </defs>
    <g id="Page-1" stroke="none" stroke-width="1" fill="none" fill-rule="evenodd">
        <g id="Web-_Activ-Assure_cross-sell" transform="translate(-157.000000, -1868.000000)">
            <g id="Group-12" transform="translate(146.000000, 1858.000000)">
                <g id="Group">
                    <g id="Page-1" transform="translate(11.000000, 10.000000)">
                        <g id="Group-15" transform="translate(5.154930, 0.000000)">
                            <path d="M64.4128953,30.7014694 C64.4128953,47.4353792 51.0138442,60.9998306 34.4854328,60.9998306 C17.9570214,60.9998306 4.5575519,47.4353792 4.5575519,30.7014694 C4.5575519,13.9679833 17.9570214,0.403108333 34.4854328,0.403108333 C51.0138442,0.403108333 64.4128953,13.9679833 64.4128953,30.7014694" id="Fill-1" fill="#F9E0DB"></path>
                            <path d="M1.93519069,51.6503521 C1.93519069,51.6503521 4.01933876,53.1990743 5.27166865,51.6503521 L4.71475215,21.2346507 L5.688833,20.248484 C5.688833,20.248484 5.9662452,17.0095535 7.91398848,15.0380674 C9.86173175,13.0661576 5.40974712,11.5182826 4.92521721,13.2089146 C4.43608469,14.8965813 4.64613133,15.7425326 4.01933876,15.671366 C3.39421986,15.6018938 3.88084187,12.6781299 3.32601747,12.4849632 C2.76784571,12.2917965 -0.0150631059,13.4186021 0.891652186,15.0380674 C1.79376486,16.6583799 2.07368758,18.980616 1.93519069,20.1781646 C1.79376486,21.3744424 1.93519069,51.6503521 1.93519069,51.6503521" id="Fill-3" fill="#FEFEFE"></path>
                            <path d="M2.35235504,51.4203312 C2.63771721,51.5957062 3.24149671,51.915109 3.84987882,51.915109 L3.85029724,51.915109 C4.24988796,51.915109 4.57792894,51.7770118 4.8503201,51.4931924 L4.29633254,21.2426993 C4.29424044,21.1274771 4.3381745,21.0169146 4.41851107,20.9351576 L5.28882385,20.0544701 C5.37250777,19.3576299 5.8126852,16.5660326 7.61816581,14.7385743 C8.11190095,14.2391368 7.98302771,13.9235465 7.94034891,13.8201854 C7.74201802,13.3351507 6.9072709,12.9094215 6.15369718,12.9094215 C5.88967441,12.9094215 5.43108652,12.9636437 5.32690004,13.3266785 C5.15827693,13.9091437 5.07626669,14.384859 5.01057481,14.7669562 C4.88630419,15.488366 4.78379138,16.1805465 3.97289418,16.092859 C3.29087022,16.016609 3.26074401,15.1126229 3.22601518,14.0658799 C3.21388101,13.7015743 3.19421529,13.1195326 3.1239208,12.8886646 C2.62809356,12.9297549 1.5983629,13.3830187 1.24689043,13.9934424 C1.0883094,14.2696368 1.09081992,14.535241 1.25567725,14.8292271 C2.23812649,16.5927201 2.48708615,19.0475465 2.35068136,20.2273035 C2.24189226,21.1473868 2.30381836,40.8978312 2.35235504,51.4203312 M3.85029724,52.7623313 L3.84987882,52.7623313 C2.73730108,52.7623313 1.73016508,52.0235535 1.68748628,51.9922062 C1.58078928,51.9125674 1.51760792,51.7863313 1.51677108,51.6524701 C1.51091321,50.4151021 1.37701893,21.3363174 1.51970002,20.1277549 C1.63936803,19.0932965 1.40672672,16.8257062 0.527208707,15.2460604 C0.214649259,14.687741 0.213394,14.1069701 0.52427977,13.5672896 C1.06069371,12.6344979 2.44691787,12.0397479 3.16534434,12.0397479 C3.27873605,12.0397479 3.37497256,12.0541507 3.461167,12.0842271 C4.0030204,12.272734 4.02938083,13.0513312 4.06201756,14.0374979 C4.07122279,14.3103035 4.08461222,14.7012965 4.11975947,14.9855396 C4.14235412,14.872859 4.16494878,14.743234 4.18628818,14.621234 C4.25198006,14.2395604 4.34194028,13.7164007 4.52353439,13.0894562 C4.70805744,12.4468382 5.31727639,12.0621993 6.15369718,12.0621993 C7.12359384,12.0621993 8.34663435,12.5980674 8.71358835,13.4961229 C8.85752469,13.8477201 8.983469,14.5547271 8.20981114,15.3375604 C6.39052268,17.1785743 6.10850787,20.2544146 6.10557893,20.2849146 C6.09679212,20.3844632 6.05453174,20.4776576 5.98465566,20.5479771 L5.1361007,21.4066368 L5.69008826,51.6423035 C5.69134352,51.7431229 5.65786995,51.8409771 5.59510701,51.9189215 C5.14949012,52.4704632 4.54571063,52.7623313 3.85029724,52.7623313" id="Fill-5" fill="#5D98C1"></path>
                            <path d="M10.1589352,22.8422972 C10.1589352,22.8422972 10.0991012,17.8402972 15.008,16.3881583 C19.9164805,14.9368667 20.4127261,13.6457 21.9650629,13.3551028 C23.5182365,13.0632347 25.8283311,16.6520681 22.5391346,18.0131306 C19.2491012,19.3733458 15.1762047,21.2113944 14.7042274,23.4480611 C14.2309948,25.6817625 9.73967875,28.4352347 10.1589352,22.8422972" id="Fill-7" fill="#FEFEFE"></path>
                            <path d="M22.1484562,13.7615576 C22.1124721,13.7615576 22.076488,13.7649465 22.0413408,13.7713007 C21.5015795,13.8725438 21.1015703,14.1144257 20.4965356,14.4800021 C19.5596941,15.0463701 18.1454358,15.9020646 15.1252831,16.7946132 C10.574133,18.1412729 10.5770619,22.7904049 10.5774803,22.8374257 C10.4578123,24.4556201 10.7553087,25.1397521 11.0256077,25.4354326 C11.1946493,25.6197035 11.4055327,25.7090854 11.6712292,25.7090854 C12.6649758,25.7090854 14.0624973,24.4573146 14.2951386,23.358891 C14.782179,21.0527521 18.4688742,19.2380021 22.3810975,17.6206549 C23.7468191,17.0555576 23.8836423,16.1642799 23.7581164,15.5165785 C23.5694092,14.544391 22.7233647,13.7615576 22.1484562,13.7615576 M11.6712292,26.5563076 C11.1737283,26.5563076 10.7385719,26.3682243 10.4117862,26.0111201 C9.85361441,25.4015438 9.62808624,24.3247243 9.74189638,22.8103146 C9.7402227,22.7942174 9.73687534,17.5067035 14.8905497,15.9812799 C17.8077712,15.1188076 19.1136588,14.3296201 20.0672371,13.7526618 C20.7007243,13.3697174 21.2011542,13.0668354 21.889036,12.9384813 C22.9832033,12.7309118 24.3058277,13.9449813 24.5794741,15.3530646 C24.7020711,15.9859396 24.7644156,17.5494882 22.6974227,18.4051826 C20.385236,19.3608493 15.5750841,21.3497035 15.1135673,23.536384 C14.7968237,25.0321549 13.059127,26.5563076 11.6712292,26.5563076" id="Fill-9" fill="#5D98C1"></path>
                            <path d="M5.40225741,20.5381069 C5.40225741,20.5381069 6.47592212,15.2272944 9.72243987,13.5362389 C12.9685392,11.8464542 10.0927412,7.52689167 10.0927412,7.52689167 C10.0927412,7.52689167 9.44460925,5.7439125 12.1337921,5.46221111 C14.8233933,5.18135694 13.3380037,9.96858611 13.9882278,10.0622042 C14.6363597,10.1570931 13.8028679,8.46688472 15.0066611,7.34177361 C16.2138017,6.21454444 18.5326831,7.2460375 17.974093,9.499225 C17.4184317,11.7532597 17.3247057,13.2549611 19.1812335,13.8183639 C21.0352508,14.3804958 20.2933929,16.4460236 17.6037916,16.0715514 C14.9150272,15.6953847 10.9563593,20.2119264 10.9417146,21.9428014 C10.9283252,23.6745236 9.93206809,48.6082736 9.93206809,48.6082736 L10.0927412,55.2170306 C10.0927412,55.2170306 7.68306269,56.7195792 5.92109772,55.2170306 L5.82779015,44.7966208 L5.40225741,20.5381069 Z" id="Fill-11" fill="#FEFEFE"></path>
                            <path d="M6.3375926,55.0090375 C6.75015434,55.3093778 7.2359395,55.4610306 7.78574287,55.4610306 C8.58994535,55.4610306 9.32427177,55.1437458 9.66821269,54.9687944 L9.51381585,48.6184403 C9.52385792,48.3418222 10.5104914,23.6448708 10.5234624,21.9398361 C10.541036,19.8688014 14.7582872,15.2357667 17.660864,15.6521764 C17.8566844,15.6792875 18.0470653,15.6928431 18.2269858,15.6928431 C19.1767983,15.6928431 19.7286938,15.3107458 19.7835067,14.9333083 C19.8249303,14.6435583 19.5483549,14.3716 19.0608961,14.2241833 C16.7570777,13.5248014 17.0604319,11.4563083 17.5679749,9.39671111 C17.7181875,8.79137083 17.6365957,8.26228056 17.3319862,7.867475 C17.0612687,7.51545417 16.6323887,7.30576667 16.1846797,7.30576667 C15.9465989,7.30576667 15.5980554,7.36549583 15.2900985,7.65312778 C14.7306715,8.1762875 14.7139347,8.85618333 14.7001269,9.40221806 C14.6905032,9.80888472 14.6737665,10.4892042 14.0373502,10.4892042 C14.0034582,10.4892042 13.9666373,10.4866625 13.9281427,10.4811556 C13.3419368,10.3972806 13.3653683,9.71399583 13.3971682,8.76891944 C13.4281313,7.85985 13.4703917,6.61528056 12.9887907,6.11033611 C12.8038492,5.91632222 12.5435922,5.84388472 12.1766382,5.88370417 C11.3653226,5.96842639 10.8121719,6.20988472 10.5782753,6.58139167 C10.3828734,6.89105139 10.4456363,7.2307875 10.4753441,7.3451625 C10.7217933,7.73234306 12.068686,9.97112778 11.5799719,11.8981347 C11.3573726,12.7754333 10.7966904,13.4532111 9.913825,13.9128292 C7.03049547,15.4149542 5.93172558,20.0793361 5.82168122,20.5800444 L6.24595871,44.7889958 L6.3375926,55.0090375 Z M7.78574287,56.3082528 C6.96689569,56.3082528 6.24888764,56.0502736 5.65138444,55.5410931 C5.55849529,55.4614542 5.50410074,55.3445375 5.50284548,55.2208431 L5.40911949,44.8000097 L4.98400517,20.5457319 C4.98358675,20.5143847 4.98651569,20.4834611 4.99237356,20.4533847 C5.0379813,20.2284472 6.14511958,14.9231417 9.53138947,13.159225 C10.2008608,12.8110167 10.605891,12.3297944 10.7690747,11.6892944 C11.2025574,9.987225 9.760265,7.78529444 9.74562031,7.76369028 C9.72720985,7.73530833 9.7113099,7.70480833 9.70001258,7.67346111 C9.68829683,7.64084306 9.41548724,6.86775278 9.86361464,6.14083611 C10.241866,5.52575278 10.9912555,5.15594028 12.0908622,5.04071806 C12.739831,4.9737875 13.2260346,5.13899583 13.5908965,5.52194028 C14.0745896,6.02857917 14.2151786,6.83979444 14.2444679,7.63787778 C14.3624623,7.42819028 14.5176959,7.22189167 14.7227216,7.03041944 C15.1177097,6.66145417 15.6373868,6.45854444 16.1846797,6.45854444 C16.888043,6.45854444 17.5637907,6.79023194 17.9922524,7.34600972 C18.4541876,7.94584306 18.5918477,8.74731528 18.3797089,9.60258611 C17.7516611,12.1501833 17.9583604,13.0050306 19.3010689,13.4125444 C20.396073,13.7442319 20.6910589,14.5054611 20.6111407,15.0561556 C20.5044437,15.7949333 19.7257648,16.5400653 18.2269858,16.5400653 C18.009826,16.5400653 17.7805321,16.5235444 17.5470539,16.4909264 C17.4587674,16.4790653 17.3688072,16.4727111 17.2780101,16.4727111 C14.8022213,16.4727111 11.3724358,20.5194681 11.3603016,21.9466139 C11.3469122,23.6652042 10.3912418,47.6068569 10.3502366,48.6252181 L10.5113282,55.2068639 C10.5146756,55.3572458 10.4389416,55.4987319 10.3121605,55.5779472 C10.2644606,55.6076 9.12468561,56.3082528 7.78574287,56.3082528 Z" id="Fill-13" fill="#5D98C1"></path>
                        </g>
                        <g id="Group-18" transform="translate(12.028169, 5.154930)">
                            <mask id="mask-2" fill="white">
                                <use xlink:href="#path-1"></use>
                            </mask>
                            <g id="Clip-17"></g>
                            <path d="M0.240813316,15.411239 C0.240813316,15.411239 1.30970619,10.1153866 4.54179496,8.42909455 C7.77346718,6.74406979 4.91045053,2.43667507 4.91045053,2.43667507 C4.91045053,2.43667507 3.40500282,0.65871838 6.08181716,0.377388099 C8.75946462,0.0977474883 7.28067674,4.8714915 7.92801093,4.96484585 C8.57367887,5.05904502 8.2050233,3.09353481 9.40346633,1.97159303 C10.6052418,0.846694319 13.3128816,2.15618962 12.7567741,4.40345254 C12.2035824,6.65071545 12.110273,8.14860911 13.9585496,8.71000242 C15.8043268,9.27055089 15.0657659,11.3306827 12.3881185,10.9568429 C9.71130414,10.5821583 5.7702303,15.0859773 5.7556507,16.8119766 C5.74232079,18.5388207 4.75049151,43.4023348 4.75049151,43.4023348 L4.91045053,49.9924755 C4.91045053,49.9924755 2.51148169,51.4907916 0.757347674,49.9924755 L0.664454802,39.6014191 L0.240813316,15.411239 Z" id="Fill-16" fill="#F58F7B" mask="url(#mask-2)"></path>
                        </g>
                        <g id="Group-25" transform="translate(0.000000, 4.295775)">
                            <path d="M11.6319463,50.2214366 C12.039425,50.5210141 12.519225,50.6722817 13.0622544,50.6722817 C13.8565486,50.6722817 14.5818276,50.3558028 14.9215309,50.1812958 L14.7690364,43.8470704 C14.7789547,43.5711549 15.7534322,18.9369296 15.7662434,17.2362254 C15.7836005,15.1704507 19.9488923,10.5491831 22.8157074,10.9645352 C23.0091152,10.9915775 23.1971505,11.0050986 23.3748542,11.0050986 C24.3129643,11.0050986 24.8580601,10.6239718 24.9121977,10.247493 C24.9531109,9.95847887 24.6799431,9.68721127 24.1984901,9.54016901 C21.9230563,8.84256338 22.222673,6.77932394 22.7239627,4.72495775 C22.8723247,4.12115493 22.7917381,3.59340845 22.4908816,3.19960563 C22.2234996,2.84847887 21.7999035,2.63932394 21.3577106,2.63932394 C21.1225632,2.63932394 20.778314,2.69890141 20.4741514,2.98580282 C19.9216169,3.5076338 19.9050863,4.18580282 19.8914486,4.7304507 C19.8819435,5.13608451 19.8654129,5.81467606 19.2368378,5.81467606 C19.2033633,5.81467606 19.1669961,5.81214085 19.1289758,5.80664789 C18.5499923,5.72298592 18.5731351,5.04143662 18.6045432,4.09876056 C18.6351248,3.192 18.6768645,1.95059155 18.2011972,1.44692958 C18.0185343,1.25340845 17.7614839,1.18115493 17.399051,1.22087324 C16.5977313,1.30538028 16.0513958,1.54622535 15.820381,1.91678873 C15.6273865,2.22566197 15.6893762,2.56453521 15.718718,2.67861972 C15.9621307,3.0648169 17.2924288,5.29791549 16.809736,7.22002817 C16.5898793,8.09509859 16.036105,8.77115493 15.1641171,9.22960563 C12.3163122,10.7279155 11.2310799,15.3804507 11.1223913,15.8798873 L11.5414414,40.0273521 L11.6319463,50.2214366 Z M13.0622544,51.5173521 C12.253496,51.5173521 11.5443343,51.2600282 10.9541927,50.7521408 C10.862448,50.6727042 10.8087237,50.5560845 10.8074839,50.4327042 L10.7149126,40.038338 L10.295036,15.845662 C10.2946227,15.8143944 10.2975156,15.7835493 10.3033013,15.7535493 C10.3483471,15.5291831 11.4418447,10.2373521 14.7863935,8.47791549 C15.4476165,8.13059155 15.8476564,7.65059155 16.0088296,7.01171831 C16.4369715,5.31397183 15.0124491,3.1176338 14.9979848,3.09608451 C14.9798012,3.06777465 14.9640972,3.03735211 14.952939,3.00608451 C14.9413676,2.9735493 14.6719192,2.20242254 15.1145254,1.47735211 C15.4881164,0.863830986 16.228273,0.494957746 17.3143318,0.380028169 C17.9553049,0.313267606 18.4355181,0.478056338 18.7958846,0.860028169 C19.2736183,1.36538028 19.4124751,2.17453521 19.4414036,2.97059155 C19.5579442,2.76143662 19.7112653,2.55566197 19.9137648,2.36467606 C20.3038864,1.99664789 20.8171608,1.79425352 21.3577106,1.79425352 C22.0524081,1.79425352 22.7198301,2.12509859 23.1430128,2.67946479 C23.5992567,3.27777465 23.7352207,4.07721127 23.5256957,4.93030986 C22.9053858,7.47143662 23.1095384,8.32411268 24.4357039,8.73059155 C25.5172168,9.06143662 25.8085682,9.82073239 25.7296347,10.3700282 C25.6242523,11.1069296 24.8551672,11.850169 23.3748542,11.850169 C23.1603699,11.850169 22.9339011,11.8336901 22.7032995,11.8011549 C22.6161007,11.7893239 22.5272489,11.7829859 22.4375705,11.7829859 C19.9922851,11.7829859 16.6047568,15.8194648 16.5927722,17.2429859 C16.5795477,18.9572113 15.6356518,42.8380563 15.5951519,43.853831 L15.7542587,50.4187606 C15.7575648,50.5687606 15.682764,50.7098873 15.5575448,50.7889014 C15.5104327,50.8184789 14.3847005,51.5173521 13.0622544,51.5173521 Z" id="Fill-19" fill="#5D98C1"></path>
                            <path d="M25.1405263,46.4347183 C25.1405263,46.4347183 19.9197572,47.2920423 14.9750487,44.061338 C10.0291004,40.8302113 0.413264397,34.3700704 0.413264397,26.223169 C0.413264397,18.0762676 7.96856409,14.5654225 12.7785484,16.251338 C17.5852266,17.9376761 20.6074291,17.9376761 22.6679654,17.2345775 C24.7285017,16.5327465 29.9496841,16.5327465 30.9096973,21.0264085 C31.870537,25.5221831 34.3447509,45.1540141 25.1405263,46.4347183" id="Fill-21" fill="#FEFEFE"></path>
                            <path d="M10.2416009,16.2613944 C4.34803737,16.2613944 0.826611446,21.3263239 0.826611446,26.2230845 C0.826611446,34.3175915 10.8974515,40.8960423 15.1974676,43.7050563 C18.4068789,45.8020986 21.7687847,46.1151972 23.4867248,46.1151972 C24.4612023,46.1151972 25.0695275,46.0184366 25.0757264,46.0175915 C26.7106004,45.7898451 28.0491638,44.9223803 29.0645544,43.4375915 C32.9942855,37.6911127 31.2011313,24.3694225 30.5060206,21.1167465 C29.7728896,17.6861831 26.4188357,17.3156197 25.0104307,17.3156197 C24.2008457,17.3156197 23.3945669,17.4322394 22.7982264,17.6354789 C21.8940039,17.9439296 20.8678684,18.1006901 19.7483351,18.1006901 C17.7485487,18.1006901 15.424763,17.6261831 12.6443201,16.6513944 C11.9062299,16.3928028 11.0978848,16.2613944 10.2416009,16.2613944 M23.4867248,46.9602676 C21.6782798,46.9602676 18.1386703,46.6298451 14.7527951,44.4174507 C10.3378915,41.5340704 8.26528793e-05,34.7806901 8.26528793e-05,26.2230845 C8.26528793e-05,22.1151972 1.81968579,19.5723803 3.34628447,18.1623803 C5.23655582,16.4173099 7.74961662,15.4163239 10.2416009,15.4163239 C11.1896295,15.4163239 12.0880663,15.5629437 12.9125287,15.8515352 C15.5677525,16.7828028 17.8675688,17.2556197 19.7483351,17.2556197 C20.7786032,17.2556197 21.7171267,17.1136479 22.5370433,16.833507 C23.2143836,16.6032254 24.1157132,16.4705493 25.0104307,16.4705493 C28.3599386,16.4705493 30.7159589,18.1399859 31.313126,20.9359014 C32.1875934,25.0251972 33.7745287,38.0249155 29.742308,43.9218169 C28.5888871,45.6077324 27.0593955,46.5939296 25.1963996,46.8533662 C25.1794558,46.8563239 24.5335236,46.9602676 23.4867248,46.9602676" id="Fill-23" fill="#5D98C1"></path>
                        </g>
                        <g id="Group-32" transform="translate(3.436620, 21.478873)">
                            <g id="Group-28">
                                <mask id="mask-4" fill="white">
                                    <use xlink:href="#path-3"></use>
                                </mask>
                                <g id="Clip-27"></g>
                                <path d="M25.2582737,30.6173701 C25.2582737,30.6173701 19.9864745,31.4647713 14.9934342,28.2714595 C9.99914209,25.07773 0.28931674,18.6923594 0.28931674,10.6397508 C0.28931674,2.58714221 7.91846523,-0.883068075 12.7754644,0.783334507 C17.6291252,2.45015473 20.680868,2.45015473 22.7615449,1.75519386 C24.8422218,1.06148592 30.1144383,1.06148592 31.0838351,5.50313791 C32.0540664,9.94687813 34.5524644,29.3514888 25.2582737,30.6173701" id="Fill-26" fill="#F58F7B" mask="url(#mask-4)"></path>
                            </g>
                            <g id="Group-31" transform="translate(19.613280, 1.252934)">
                                <mask id="mask-6" fill="white">
                                    <use xlink:href="#path-5"></use>
                                </mask>
                                <g id="Clip-30"></g>
                                <path d="M11.4705554,4.2502454 C10.5011586,-0.191406592 5.22894209,-0.191406592 3.14826523,0.501883705 C2.33327087,0.774605732 1.3655433,0.937487187 0.201682938,0.937904832 C1.29627087,1.31253218 2.28444632,2.0638751 2.94712479,3.38572076 C4.98565396,7.45023953 12.2037582,25.632404 3.51131956,29.160667 C3.51131956,29.160667 3.25175658,29.2725958 2.78771473,29.4221126 C4.50700648,29.5465707 5.644994,29.3644776 5.644994,29.3644776 C14.9396021,28.0985963 12.4407868,8.69398562 11.4705554,4.2502454" id="Fill-29" fill="#F37D6C" mask="url(#mask-6)"></path>
                            </g>
                        </g>
                        <g id="Group-38" transform="translate(0.000000, 19.760563)">
                            <path d="M10.3756748,1.03953338 C4.40495798,1.03953338 0.837432702,6.05336937 0.837432702,10.9007328 C0.837432702,18.9135847 11.0401112,25.4256739 15.3964192,28.2063514 C18.6478452,30.2822393 22.0537622,30.5921794 23.794192,30.5921794 C24.7814264,30.5921794 25.3977152,30.4963949 25.4039954,30.4955584 C27.0602716,30.2701094 28.4163583,29.4113953 29.4450415,27.9415847 C33.4262171,22.2530747 31.6095886,9.06577003 30.9053781,5.84590606 C30.1626495,2.44994924 26.7646874,2.083124 25.3378448,2.083124 C24.5176615,2.083124 23.7008276,2.19856729 23.0966803,2.3997565 C22.1806205,2.70509564 21.1410518,2.86027485 20.0068626,2.86027485 C17.9808968,2.86027485 15.6266902,2.3905545 12.8098482,1.42559917 C12.0620956,1.16961622 11.2431683,1.03953338 10.3756748,1.03953338 M23.794192,31.428725 C21.9620724,31.428725 18.3761255,31.1016357 14.9459254,28.9115593 C10.4732259,26.0572658 8.37348967e-05,19.3720117 8.37348967e-05,10.9007328 C8.37348967e-05,6.83428467 1.84350749,4.317119 3.39009103,2.92134268 C5.30510811,1.19387604 7.85106765,0.202987787 10.3756748,0.202987787 C11.336114,0.202987787 12.2463124,0.348128447 13.081568,0.633808766 C15.7715515,1.55568201 18.101475,2.02372926 20.0068626,2.02372926 C21.0506181,2.02372926 22.0014278,1.8831896 22.832078,1.60587474 C23.5182855,1.37791607 24.4314145,1.24657841 25.3378448,1.24657841 C28.7312015,1.24657841 31.1180647,2.89917422 31.7230493,5.6668853 C32.6089646,9.71492941 34.2166746,22.5835102 30.1316676,28.4209253 C28.9631472,30.0898338 27.4136329,31.0660825 25.5262483,31.322902 C25.5090827,31.3258299 24.8546944,31.428725 23.794192,31.428725" id="Fill-33" fill="#5D98C1"></path>
                            <g id="Group-37" transform="translate(6.280117, 4.601001)">
                                <mask id="mask-8" fill="white">
                                    <use xlink:href="#path-7"></use>
                                </mask>
                                <g id="Clip-36"></g>
                                <path d="M37.2575073,18.3141161 C36.9619232,18.3141161 36.703601,18.1066528 36.6428932,17.8138619 L35.4689299,12.1483569 L33.291404,12.1483569 C33.0904402,12.1483569 32.901618,12.0517359 32.7831331,11.889446 L32.0429167,10.8692787 L31.3981579,11.8622583 C31.2821851,12.0408608 31.0837334,12.1483569 30.8710468,12.1483569 L24.618562,12.1483569 C24.4092248,12.1483569 24.2137038,12.0442069 24.0968936,11.8706237 L22.6432558,9.70731685 L21.0217295,11.894047 C20.9032447,12.0538272 20.7160972,12.1483569 20.5172268,12.1483569 L17.799192,12.1483569 L16.4979518,14.558863 C16.366488,14.8022978 16.0914188,14.9311258 15.8192804,14.8759138 C15.5475607,14.8202835 15.3449222,14.5935796 15.3198018,14.3183561 L14.7294707,7.86649828 L13.9482242,16.2670891 C13.9205916,16.5678272 13.6823659,16.8062427 13.3817576,16.8338487 C13.0870107,16.8681471 12.8031494,16.6728137 12.7194145,16.3821141 L11.5048399,12.1483569 L9.55800352,12.1483569 C9.33568737,12.1483569 9.12928085,12.0308222 9.01665741,11.838835 L8.45102818,10.8780624 L7.79622129,11.8672776 C7.67982978,12.0425339 7.48305278,12.1483569 7.27245951,12.1483569 L1.0195561,12.1483569 C0.67289363,12.1483569 0.391544377,11.8672776 0.391544377,11.5209477 C0.391544377,11.1746178 0.67289363,10.8935385 1.0195561,10.8935385 L6.9345892,10.8935385 L7.95908567,9.34718397 C8.07840789,9.1669084 8.26513671,9.05271992 8.49959442,9.06652292 C8.71563046,9.07196047 8.91450084,9.18907685 9.02377488,9.37562652 L9.91722622,10.8935385 L11.9783607,10.8935385 C12.2584539,10.8935385 12.5050532,11.0788333 12.5820893,11.348201 L13.0066252,12.8288867 L14.1098325,0.970852984 C14.1395584,0.648364659 14.4108595,0.40158371 14.7349135,0.40158371 L14.7353322,0.40158371 C15.0598049,0.402001983 15.3306873,0.649201205 15.3604132,0.971689529 L16.3811416,12.1320442 L16.8718281,11.2231375 C16.9811021,11.0202751 17.1933701,10.8935385 17.4244784,10.8935385 L20.2007089,10.8935385 L22.1638735,8.2458717 C22.2852891,8.08149049 22.4799728,7.99030702 22.6830299,7.99156184 C22.887343,7.99658112 23.0761652,8.0998945 23.189626,8.26929498 L24.9530829,10.8935385 L30.5302457,10.8935385 L31.4869169,9.41954516 C31.5995404,9.24596195 31.7904559,9.13930239 31.9976998,9.13428312 C32.207037,9.11629739 32.4004647,9.22546659 32.5218803,9.3927757 L33.6116899,10.8935385 L35.9801315,10.8935385 C36.2778091,10.8935385 36.5344565,11.1022566 36.5951643,11.3937928 L36.9820195,13.2592894 L37.9098022,1.65054628 C37.9353413,1.32554831 38.2066424,1.07458464 38.5327898,1.07291155 L38.5357205,1.07291155 C38.8606119,1.07291155 39.1323317,1.32094731 39.1612202,1.64427218 L40.1790179,12.9924314 L40.7664182,11.3139027 C40.8543398,11.0621024 41.0921469,10.8935385 41.3592613,10.8935385 L42.9472936,10.8935385 L44.648368,7.96813857 C44.757642,7.78033408 44.9556751,7.66279943 45.1725485,7.65652533 C45.3818857,7.64188579 45.5941537,7.75607426 45.7147319,7.93593156 L47.6804086,10.8935385 L52.1970689,10.8935385 L53.5556676,8.99290691 C53.6758272,8.82476125 53.8788843,8.73734223 54.0769174,8.7302316 C54.2833239,8.73357778 54.4746581,8.83814598 54.5889563,9.00963782 L55.6121967,10.5438624 L57.696777,10.5438624 C58.0011533,10.5438624 58.2615688,10.7617826 58.3151592,11.0608476 L58.6584722,12.985739 L59.5594597,3.12119342 C59.5887669,2.80079646 59.8558813,2.55443378 60.1774233,2.55066933 L60.1849594,2.55066933 C60.5035707,2.55066933 60.7723597,2.78950309 60.8087844,3.10697215 L61.8889646,12.4988695 L62.4336601,11.2670561 C62.5341419,11.039934 62.7593888,10.8935385 63.0080814,10.8935385 L65.9061462,10.8935385 L67.8701482,8.05974031 C67.9894705,7.88783019 68.1753619,7.80208427 68.3960034,7.78995436 C68.6053406,7.79330054 68.7991869,7.90037837 68.9130664,8.0752164 L70.7447672,10.8935385 L75.3120872,10.8935385 C75.6587496,10.8935385 75.9400989,11.1746178 75.9400989,11.5209477 C75.9400989,11.8672776 75.6587496,12.1483569 75.3120872,12.1483569 L70.4039662,12.1483569 C70.1912796,12.1483569 69.9928279,12.0408608 69.8772737,11.8626766 L68.3700456,9.54335391 L66.75145,11.8781527 C66.6342211,12.0475531 66.4412122,12.1483569 66.2352244,12.1483569 L63.4171264,12.1483569 L62.1037446,15.1189303 C61.9890278,15.3778411 61.7152146,15.5250731 61.4347027,15.4857555 C61.1546095,15.4430917 60.9377361,15.2184792 60.9050795,14.9369816 L60.2569714,9.29824605 L59.485773,17.7440103 C59.4568845,18.0568784 59.2010744,18.3003131 58.8870685,18.3136979 C58.5642705,18.338376 58.2971562,18.1062346 58.2418911,17.797131 L57.1709218,11.7986808 L55.2760011,11.7986808 C55.0658265,11.7986808 54.8698868,11.6936943 54.7534953,11.5192746 L54.0484475,10.4622992 L53.0310685,11.8856816 C52.913421,12.0500628 52.7225054,12.1483569 52.519867,12.1483569 L47.3433756,12.1483569 C47.1327824,12.1483569 46.9364241,12.0429521 46.8200325,11.8681141 L45.2269761,9.47099272 L43.8516305,11.8363254 C43.739007,12.0295674 43.5321818,12.1483569 43.3086097,12.1483569 L41.8047309,12.1483569 L40.4059395,16.1474631 C40.3083883,16.426451 40.0295511,16.5991977 39.7356416,16.562808 C39.4421508,16.5268365 39.2139732,16.2909306 39.187178,15.9964666 L38.5717265,9.13219175 L37.8838444,17.7364814 C37.8591426,18.0476764 37.6087752,18.2932025 37.2972814,18.3128613 C37.2834652,18.3136979 37.2704863,18.3141161 37.2575073,18.3141161" id="Fill-35" fill="#5D98C1" mask="url(#mask-8)"></path>
                            </g>
                        </g>
                    </g>
                </g>
            </g>
        </g>
    </g>
</svg>