<?xml version="1.0" encoding="UTF-8"?>
<svg width="32px" height="41px" viewBox="0 0 32 41" version="1.1" xmlns="http://www.w3.org/2000/svg" xmlns:xlink="http://www.w3.org/1999/xlink">
    <!-- Generator: sketchtool 51.1 (57501) - http://www.bohemiancoding.com/sketch -->
    <title>8E65B67F-6AA1-4B30-8F84-50FF52C5D877</title>
    <desc>Created with sketchtool.</desc>
    <defs></defs>
    <g id="Page-1" stroke="none" stroke-width="1" fill="none" fill-rule="evenodd">
        <g id="Thankyou-Web_new" transform="translate(-336.000000, -1424.000000)" stroke="#684744" stroke-width="4.39999974">
            <g id="Group-14" transform="translate(284.000000, 1287.000000)">
                <g id="Group-12" transform="translate(55.000000, 107.000000)">
                    <g id="customer-service" transform="translate(0.000000, 33.000000)">
                        <path d="M19.5,22 L6.5,22 C2.81666667,22 0,24.8166667 0,28.5 L0,35 L26,35 L26,28.5 C26,24.8166667 23.1833333,22 19.5,22 Z" id="Shape"></path>
                        <path d="M13.5,15 C9.81666667,15 7,12.2142857 7,8.57142857 L7,6.42857143 C7,2.78571429 9.81666667,0 13.5,0 C17.1833333,0 20,2.78571429 20,6.42857143 L20,8.57142857 C20,12.2142857 17.1833333,15 13.5,15 Z" id="Shape"></path>
                    </g>
                </g>
            </g>
        </g>
    </g>
</svg>