<?xml version="1.0" encoding="UTF-8"?>
<svg width="155px" height="156px" viewBox="0 0 155 156" version="1.1" xmlns="http://www.w3.org/2000/svg" xmlns:xlink="http://www.w3.org/1999/xlink">
    <!-- Generator: Sketch 51.1 (57501) - http://www.bohemiancoding.com/sketch -->
    <title>Assure</title>
    <desc>Created with Sketch.</desc>
    <defs>
        <path d="M0.736,32.047 C4.271,30.09 11.483,29.852 19.366,31.744 C29.893,34.268 37.629,39.631 36.65,43.721 C37.629,39.631 46.957,38.361 57.485,40.885 C68.009,43.411 75.748,48.772 74.766,52.863 C75.748,48.772 85.076,47.503 95.602,50.028 C104.35,52.126 111.166,56.183 112.658,59.843 C112.473,33.104 94.188,8.918 67.018,2.402 C62.354,1.284 57.685,0.748 53.092,0.748 C31.246,0.746 11.064,12.866 0.736,32.047" id="path-1"></path>
        <path d="M0.736,32.047 C4.271,30.09 11.483,29.852 19.366,31.744 C29.893,34.268 37.629,39.631 36.65,43.721 C37.629,39.631 46.957,38.361 57.485,40.885 C68.009,43.411 75.748,48.772 74.766,52.863 C75.748,48.772 85.076,47.503 95.602,50.028 C104.35,52.126 111.166,56.183 112.658,59.843 C112.473,33.104 94.188,8.918 67.018,2.402 C62.354,1.284 57.685,0.748 53.092,0.748 C31.246,0.746 11.064,12.866 0.736,32.047" id="path-3"></path>
    </defs>
    <g id="Page-1" stroke="none" stroke-width="1" fill="none" fill-rule="evenodd">
        <g id="Artboard-1" transform="translate(-283.000000, -159.000000)">
            <g id="Assure" transform="translate(283.000000, 159.000000)">
                <path d="M143.3926,84.2837 C143.3926,123.7867 111.3696,155.8087 71.8666,155.8087 C32.3656,155.8087 0.3406,123.7867 0.3406,84.2837 C0.3406,44.7817 32.3656,12.7607 71.8666,12.7607 C111.3696,12.7607 143.3926,44.7817 143.3926,84.2837" id="Fill-1" fill="#F9DED5"></path>
                <path d="M77.6494,44.7212 C78.6284,40.6302 87.9574,39.3612 98.4844,41.8852 C109.0094,44.4102 116.7484,49.7722 115.7654,53.8642 C116.7484,49.7722 126.0764,48.5032 136.6014,51.0282 C145.3494,53.1252 152.1664,57.1832 153.6584,60.8432 C153.4724,34.1042 135.1874,9.9182 108.0174,3.4022 C81.1714,-3.0378 54.2354,9.8332 41.7364,33.0462 C45.2714,31.0902 52.4834,30.8522 60.3664,32.7432 C70.8934,35.2682 78.6284,40.6302 77.6494,44.7212" id="Fill-3" fill="#FFFFFE"></path>
                <path d="M126.3418,48.7295 C129.5898,48.7295 133.2178,49.1875 136.8348,50.0555 C143.6788,51.6965 149.4598,54.5275 152.5458,57.5935 C150.9628,32.0375 132.9548,10.4115 107.7838,4.3745 C103.2828,3.2945 98.6768,2.7475 94.0928,2.7475 C73.4828,2.7475 54.5288,13.5515 43.9798,31.1245 C48.0948,30.0545 54.3828,30.2795 60.5998,31.7715 C69.7458,33.9645 76.5368,38.0375 78.2898,42.0265 C80.2048,40.4515 83.6378,39.5865 88.2248,39.5865 C91.4728,39.5865 95.1008,40.0455 98.7178,40.9125 C103.9268,42.1625 108.6478,44.1345 112.0098,46.4655 C114.2228,47.9995 115.7108,49.6055 116.4038,51.1725 C118.3188,49.5955 121.7528,48.7295 126.3418,48.7295 M153.6578,61.8435 C153.2578,61.8435 152.8878,61.6025 152.7328,61.2205 C151.5428,58.3035 145.5398,54.1995 136.3678,52.0005 C132.9028,51.1685 129.4348,50.7295 126.3418,50.7295 C120.9988,50.7295 117.2298,52.0515 116.7378,54.0975 C116.6098,54.6335 116.0648,54.9635 115.5318,54.8355 C115.0738,54.7265 114.7658,54.3165 114.7658,53.8655 C114.7658,53.7875 114.7748,53.7085 114.7928,53.6305 C115.1598,52.1035 113.7308,50.0905 110.8708,48.1085 C107.7058,45.9165 103.2248,44.0505 98.2508,42.8575 C94.7848,42.0265 91.3178,41.5865 88.2248,41.5865 C82.8808,41.5865 79.1118,42.9085 78.6218,44.9545 C78.4928,45.4915 77.9528,45.8215 77.4168,45.6935 C76.9578,45.5835 76.6498,45.1745 76.6498,44.7235 C76.6488,44.6465 76.6578,44.5665 76.6768,44.4885 C77.4058,41.4445 70.7908,36.2715 60.1328,33.7165 C52.8998,31.9805 45.5238,32.0945 42.2208,33.9215 C41.8298,34.1355 41.3468,34.0685 41.0328,33.7575 C40.7178,33.4455 40.6458,32.9625 40.8558,32.5725 C51.4258,12.9415 71.8248,0.7475 94.0928,0.7475 C98.8338,0.7475 103.5968,1.3125 108.2508,2.4295 C135.3168,8.9205 154.3738,32.8375 154.6558,60.6345 C154.6708,60.7025 154.6778,60.7715 154.6778,60.8435 C154.6778,61.3955 154.2308,61.8435 153.6778,61.8435 C153.6738,61.8425 153.6648,61.8435 153.6578,61.8435" id="Fill-5" fill="#5A7A8E"></path>
                <g id="Group-10" transform="translate(41.000000, 1.000000)">
                    <mask id="mask-2" fill="white">
                        <use xlink:href="#path-1"></use>
                    </mask>
                    <g id="Clip-9"></g>
                    <path d="M39.2324,50.2017 C40.2124,46.1107 49.5414,44.8417 60.0684,47.3657 C70.5934,49.8907 78.3324,55.2527 77.3494,59.3447 C78.3324,55.2527 87.6604,53.9837 98.1854,56.5087 C106.9334,58.6057 113.7504,62.6637 115.2424,66.3237 C115.0564,39.5847 96.7714,15.3987 69.6014,8.8827 C42.7554,2.4427 15.8194,15.3137 3.3204,38.5267 C6.8554,36.5707 14.0674,36.3327 21.9504,38.2237 C32.4774,40.7487 40.2124,46.1107 39.2324,50.2017" id="Fill-8" fill="#E98875" mask="url(#mask-2)"></path>
                </g>
                <g id="Group-13" transform="translate(41.000000, 1.000000)">
                    <mask id="mask-4" fill="white">
                        <use xlink:href="#path-3"></use>
                    </mask>
                    <g id="Clip-12"></g>
                    <path d="M113.4258,52.2134 C113.4298,52.4574 113.4438,52.6994 113.4458,52.9434 C111.9528,49.2834 105.1368,45.2264 96.3888,43.1284 C85.8638,40.6044 76.5348,41.8724 75.5528,45.9644 C76.5348,41.8724 68.7968,36.5114 58.2718,33.9854 C47.7438,31.4614 38.4158,32.7314 37.4358,36.8214 C38.4158,32.7314 30.6808,27.3684 20.1538,24.8444 C18.2198,24.3804 16.3268,24.0454 14.5168,23.8324 C10.0988,28.0664 6.2968,32.9984 3.3208,38.5264 C6.8558,36.5704 14.0678,36.3324 21.9498,38.2244 C32.4778,40.7484 40.2128,46.1104 39.2328,50.2014 C40.2128,46.1104 49.5408,44.8414 60.0688,47.3654 C70.5938,49.8914 78.3318,55.2524 77.3498,59.3444 C78.3318,55.2524 87.6598,53.9844 98.1858,56.5084 C106.9338,58.6064 113.7498,62.6634 115.2418,66.3234 C115.2088,61.5074 114.5798,56.7754 113.4258,52.2134" id="Fill-11" fill="#E47460" mask="url(#mask-4)"></path>
                </g>
                <path d="M126.3418,48.7295 C129.5898,48.7295 133.2178,49.1875 136.8348,50.0555 C143.6788,51.6965 149.4598,54.5275 152.5458,57.5935 C150.9628,32.0375 132.9548,10.4115 107.7838,4.3745 C103.2828,3.2945 98.6768,2.7475 94.0928,2.7475 C73.4828,2.7475 54.5288,13.5515 43.9798,31.1245 C48.0948,30.0545 54.3828,30.2795 60.5998,31.7715 C69.7458,33.9645 76.5368,38.0375 78.2898,42.0265 C80.2048,40.4515 83.6378,39.5865 88.2248,39.5865 C91.4728,39.5865 95.1008,40.0455 98.7178,40.9125 C103.9268,42.1625 108.6478,44.1345 112.0098,46.4655 C114.2228,47.9995 115.7108,49.6055 116.4038,51.1725 C118.3188,49.5955 121.7528,48.7295 126.3418,48.7295 M153.6578,61.8435 C153.2578,61.8435 152.8878,61.6025 152.7328,61.2205 C151.5428,58.3035 145.5398,54.1995 136.3678,52.0005 C132.9028,51.1685 129.4348,50.7295 126.3418,50.7295 C120.9988,50.7295 117.2298,52.0515 116.7378,54.0975 C116.6098,54.6335 116.0648,54.9635 115.5318,54.8355 C115.0738,54.7265 114.7658,54.3165 114.7658,53.8655 C114.7658,53.7875 114.7748,53.7085 114.7928,53.6305 C115.1598,52.1035 113.7308,50.0905 110.8708,48.1085 C107.7058,45.9165 103.2248,44.0505 98.2508,42.8575 C94.7848,42.0265 91.3178,41.5865 88.2248,41.5865 C82.8808,41.5865 79.1118,42.9085 78.6218,44.9545 C78.4928,45.4915 77.9528,45.8215 77.4168,45.6935 C76.9578,45.5835 76.6498,45.1745 76.6498,44.7235 C76.6488,44.6465 76.6578,44.5665 76.6768,44.4885 C77.4058,41.4445 70.7908,36.2715 60.1328,33.7165 C52.8998,31.9805 45.5238,32.0945 42.2208,33.9215 C41.8298,34.1355 41.3468,34.0685 41.0328,33.7575 C40.7178,33.4455 40.6458,32.9625 40.8558,32.5725 C51.4258,12.9415 71.8248,0.7475 94.0928,0.7475 C98.8338,0.7475 103.5968,1.3125 108.2508,2.4295 C135.3168,8.9205 154.3738,32.8375 154.6558,60.6345 C154.6708,60.7025 154.6778,60.7715 154.6778,60.8435 C154.6778,61.3955 154.2308,61.8435 153.6778,61.8435 C153.6738,61.8425 153.6648,61.8435 153.6578,61.8435" id="Fill-15" fill="#5A7A8E"></path>
                <path d="M98.4844,41.8853 L86.8184,98.0723" id="Fill-17" fill="#FFFFFE"></path>
                <path d="M86.8193,99.0718 C86.7523,99.0718 86.6833,99.0648 86.6153,99.0508 C86.0743,98.9388 85.7263,98.4088 85.8393,97.8688 L97.5053,41.6818 C97.6173,41.1408 98.1473,40.7918 98.6873,40.9058 C99.2283,41.0188 99.5763,41.5478 99.4643,42.0888 L87.7983,98.2748 C87.6993,98.7468 87.2833,99.0718 86.8193,99.0718" id="Fill-19" fill="#5A7A8E"></path>
                <path d="M63.3916,58.7642 C63.3916,63.1402 59.8446,66.6892 55.4696,66.6892 C51.0926,66.6892 47.5446,63.1402 47.5446,58.7642 C47.5446,54.3882 51.0926,50.8392 55.4696,50.8392 C59.8446,50.8392 63.3916,54.3882 63.3916,58.7642" id="Fill-21" fill="#FFFFFE"></path>
                <path d="M55.4697,51.8394 C51.6517,51.8394 48.5447,54.9454 48.5447,58.7644 C48.5447,62.5824 51.6517,65.6894 55.4697,65.6894 C59.2867,65.6894 62.3917,62.5824 62.3917,58.7644 C62.3917,54.9454 59.2867,51.8394 55.4697,51.8394 M55.4697,67.6894 C50.5487,67.6894 46.5447,63.6854 46.5447,58.7644 C46.5447,53.8424 50.5487,49.8394 55.4697,49.8394 C60.3887,49.8394 64.3917,53.8424 64.3917,58.7644 C64.3917,63.6854 60.3887,67.6894 55.4697,67.6894" id="Fill-23" fill="#5A7A8E"></path>
                <path d="M64.2568,71.9067 L44.9418,71.9067 C39.6538,71.9067 35.3668,76.1917 35.3668,81.4787 L35.3668,82.0547 L35.3668,95.7747 L35.3668,107.0577 C35.3668,109.8457 37.4078,112.1057 39.9218,112.1057 C42.4358,112.1057 44.4768,109.8457 44.4768,107.0577 L44.4768,86.1187 C44.4848,86.1187 44.4918,105.3247 44.4998,105.3247 L44.4998,135.6617 C44.4998,138.4487 46.7618,140.7107 49.5488,140.7107 C52.3368,140.7107 54.5988,138.4487 54.5988,135.6617 C54.5988,138.4487 56.8588,140.7107 59.6498,140.7107 C62.4368,140.7107 64.6978,138.4487 64.6978,135.6617 L64.6978,112.0837 C69.7778,111.8527 73.8288,107.6727 73.8288,102.5347 L73.8288,81.4787 C73.8288,76.1917 69.5438,71.9067 64.2568,71.9067" id="Fill-25" fill="#FFFFFE"></path>
                <path d="M55.5986,135.6621 C55.5986,137.8941 57.4156,139.7111 59.6496,139.7111 C61.8816,139.7111 63.6986,137.8941 63.6986,135.6621 L63.6986,112.0841 C63.6986,111.5491 64.1186,111.1091 64.6526,111.0851 C69.2376,110.8761 72.8286,107.1201 72.8286,102.5351 L72.8286,81.4791 C72.8286,76.7521 68.9836,72.9071 64.2566,72.9071 L44.9416,72.9071 C40.2136,72.9071 36.3676,76.7521 36.3676,81.4791 L36.3676,107.0581 C36.3676,109.2901 37.9616,111.1051 39.9216,111.1051 C41.8816,111.1051 43.4766,109.2901 43.4766,107.0581 L43.4766,86.1191 C43.4766,85.5661 43.9246,85.1191 44.4766,85.1191 C45.1766,85.1191 45.3876,85.5341 45.4516,86.1191 L45.4766,86.1191 L45.4766,86.5671 C45.4786,86.6891 45.4796,86.8141 45.4796,86.9421 L45.4886,95.7211 C45.4916,100.0651 45.4956,104.9841 45.4996,105.2911 C45.4996,105.3031 45.4996,105.3131 45.4996,105.3251 L45.4996,135.6621 C45.4996,137.8941 47.3166,139.7111 49.5486,139.7111 C51.7816,139.7111 53.5986,137.8941 53.5986,135.6621 C53.5986,135.1091 54.0466,134.6621 54.5986,134.6621 C55.1506,134.6621 55.5986,135.1091 55.5986,135.6621 M59.6496,141.7111 C57.5416,141.7111 55.6826,140.6281 54.5986,138.9901 C53.5156,140.6281 51.6566,141.7111 49.5486,141.7111 C46.2136,141.7111 43.4996,138.9971 43.4996,135.6621 L43.4996,111.6801 C42.5326,112.5691 41.2836,113.1051 39.9216,113.1051 C36.8586,113.1051 34.3676,110.3921 34.3676,107.0581 L34.3676,81.4791 C34.3676,75.6491 39.1106,70.9071 44.9416,70.9071 L64.2566,70.9071 C70.0866,70.9071 74.8286,75.6491 74.8286,81.4791 L74.8286,102.5351 C74.8286,107.8701 70.8896,112.2941 65.6986,112.9971 L65.6986,135.6621 C65.6986,138.9971 62.9846,141.7111 59.6496,141.7111" id="Fill-27" fill="#5A7A8E"></path>
                <path d="M94.082,66.689 C98.457,66.689 102.004,63.14 102.004,58.764 C102.004,54.388 98.457,50.839 94.082,50.839 C89.705,50.839 86.156,54.388 86.156,58.764 C86.156,63.14 89.705,66.689 94.082,66.689" id="Fill-29" fill="#FFFFFE"></path>
                <path d="M94.082,51.8394 C90.263,51.8394 87.156,54.9454 87.156,58.7644 C87.156,62.5824 90.263,65.6894 94.082,65.6894 C97.898,65.6894 101.004,62.5824 101.004,58.7644 C101.004,54.9454 97.898,51.8394 94.082,51.8394 M94.082,67.6894 C89.16,67.6894 85.156,63.6854 85.156,58.7644 C85.156,53.8424 89.16,49.8394 94.082,49.8394 C99.002,49.8394 103.004,53.8424 103.004,58.7644 C103.004,63.6854 99.002,67.6894 94.082,67.6894" id="Fill-31" fill="#5A7A8E"></path>
                <path d="M94.0586,115.7793 L94.1036,115.7793 C94.0996,115.8533 94.0816,135.1623 94.0816,135.2383 C94.0816,135.1623 94.0626,115.8533 94.0586,115.7793 M114.1696,100.5763 L106.6446,78.7843 C105.6136,75.1283 103.5646,71.9063 99.7636,71.9063 L97.3656,71.9063 L90.4106,71.9063 L88.0116,71.9063 C84.2106,71.9063 82.1626,75.1283 81.1306,78.7843 C79.2246,85.5583 69.9206,115.7793 69.9206,115.7793 L86.2166,115.7793 C86.2166,115.7793 86.3006,115.9243 86.3006,115.9983 L86.3006,135.2583 C86.3006,137.4063 88.0426,139.1483 90.1896,139.1483 C92.3396,139.1483 94.0816,137.4063 94.0816,135.2583 C94.0816,137.4063 95.8226,139.1483 97.9706,139.1483 C100.1196,139.1483 101.8616,137.4063 101.8616,135.2583 L101.8616,115.9983 C101.8616,115.9243 101.8436,115.8533 101.8396,115.7793 L110.6856,115.7793 C110.6856,115.7793 109.1176,110.6813 107.1346,104.2033 C108.2536,106.2003 110.2966,107.2763 112.0816,106.6523 C114.1546,105.9293 115.0876,103.2103 114.1696,100.5763" id="Fill-33" fill="#FFFFFE"></path>
                <path d="M95.082,135.2578 C95.082,136.8518 96.378,138.1488 97.971,138.1488 C99.564,138.1488 100.861,136.8518 100.861,135.2578 L100.861,115.9978 C100.857,115.9708 100.843,115.8598 100.841,115.8318 C100.827,115.5578 100.926,115.2898 101.114,115.0908 C101.303,114.8918 101.565,114.7788 101.84,114.7788 L109.332,114.7788 C108.744,112.8658 107.562,109.0168 106.179,104.4958 C106.029,104.0078 106.271,103.4848 106.742,103.2838 C107.207,103.0828 107.757,103.2678 108.007,103.7148 C108.886,105.2828 110.486,106.1518 111.752,105.7078 C113.3,105.1678 113.961,103.0138 113.226,100.9058 L105.699,79.1108 C104.531,74.9758 102.54,72.9068 99.764,72.9068 L88.012,72.9068 C85.235,72.9068 83.244,74.9758 82.094,79.0558 C80.432,84.9608 73.075,108.9218 71.275,114.7788 L86.217,114.7788 C86.573,114.7788 86.902,114.9688 87.081,115.2778 C87.227,115.5278 87.301,115.7698 87.301,115.9978 L87.301,135.2578 C87.301,136.8518 88.597,138.1488 90.189,138.1488 C91.784,138.1488 93.082,136.8518 93.082,135.2578 L93.082,135.2478 L93.082,135.2388 L93.082,135.2378 C93.082,135.0608 93.062,116.1568 93.059,115.7958 C93.056,115.5288 93.16,115.2688 93.348,115.0788 C93.535,114.8888 93.791,114.7788 94.059,114.7788 L94.103,114.7788 C94.378,114.7788 94.641,114.8918 94.829,115.0908 C95.018,115.2898 95.116,115.5578 95.103,115.8318 C95.1,116.1388 95.082,135.0598 95.082,135.2378 L95.082,135.2388 L95.082,135.2478 L95.082,135.2578 Z M97.971,140.1488 C96.387,140.1488 94.976,139.3908 94.082,138.2178 C93.187,139.3908 91.775,140.1488 90.189,140.1488 C87.494,140.1488 85.301,137.9538 85.301,135.2578 L85.301,116.7788 L69.921,116.7788 C69.603,116.7788 69.305,116.6288 69.117,116.3728 C68.928,116.1178 68.872,115.7878 68.965,115.4858 C69.058,115.1828 78.287,85.1978 80.168,78.5138 C81.572,73.5368 84.284,70.9068 88.012,70.9068 L99.764,70.9068 C103.491,70.9068 106.203,73.5368 107.607,78.5128 L115.115,100.2498 C116.212,103.3968 114.999,106.6938 112.411,107.5958 C111.97,107.7508 111.506,107.8288 111.033,107.8288 C110.398,107.8288 109.767,107.6888 109.168,107.4268 C110.416,111.4978 111.353,114.5488 111.586,115.3038 C111.662,115.4458 111.705,115.6078 111.705,115.7788 C111.705,116.3318 111.258,116.7788 110.705,116.7788 C110.7,116.7798 110.693,116.7798 110.686,116.7788 L102.861,116.7788 L102.861,135.2578 C102.861,137.9538 100.667,140.1488 97.971,140.1488 Z" id="Fill-35" fill="#5A7A8E"></path>
                <polygon id="Fill-37" fill="#FFFFFE" points="65.917 102.599 86.156 102.599 86.156 88.367 65.917 88.367"></polygon>
                <path d="M57.1709,66.187 C53.7059,66.187 50.8869,63.369 50.8869,59.902 C50.8869,56.437 53.7059,53.618 57.1709,53.618 C60.6359,53.618 63.4539,56.437 63.4539,59.902 C63.4539,63.369 60.6359,66.187 57.1709,66.187" id="Fill-39" fill="#E98875"></path>
                <path d="M95.7832,66.187 C92.3182,66.187 89.4982,63.369 89.4982,59.902 C89.4982,56.437 92.3182,53.618 95.7832,53.618 C99.2482,53.618 102.0662,56.437 102.0662,59.902 C102.0662,63.369 99.2482,66.187 95.7832,66.187" id="Fill-40" fill="#E98875"></path>
                <path d="M98.8691,54.4341 C99.6011,55.4621 100.0391,56.7151 100.0391,58.0731 C100.0391,61.5381 97.2211,64.3571 93.7561,64.3571 C92.6351,64.3571 91.5801,64.0581 90.6681,63.5391 C91.8081,65.1391 93.6741,66.1871 95.7831,66.1871 C99.2481,66.1871 102.0661,63.3691 102.0661,59.9021 C102.0661,57.5581 100.7751,55.5151 98.8691,54.4341" id="Fill-41" fill="#E47460"></path>
                <path d="M73.8877,103.7271 C73.8877,103.8381 73.8777,103.9491 73.8717,104.0601 L77.0697,104.7531 L77.8917,102.0971 L73.8997,102.0971 L73.8877,103.7271 Z M94.1207,116.9431 C94.1267,117.3791 94.1447,136.1971 94.1447,136.3771 L97.4237,136.3771 C97.4237,136.1971 97.4417,117.3791 97.4457,116.9431 L97.4627,115.2851 L95.8067,115.2771 L94.0647,115.2771 L94.1247,117.0161 L94.1207,116.9431 Z M61.3507,140.2091 C59.4717,140.2091 57.9407,138.6801 57.9407,136.7991 L54.6607,136.7991 C54.6607,138.6801 53.1317,140.2091 51.2507,140.2091 C49.3707,140.2091 47.8417,138.6801 47.8417,136.7991 L47.8417,104.8241 L47.8377,104.8241 C47.8337,103.0171 47.8207,88.0801 47.8207,88.0801 C47.8187,87.2201 47.8167,85.6181 46.1777,85.6181 L44.5387,85.6181 L44.5387,108.1971 C44.5387,110.0771 43.2327,111.6051 41.6247,111.6051 C40.0177,111.6051 38.7107,110.0771 38.7107,108.1971 L38.7107,82.6181 C38.7107,78.2431 42.2697,74.6851 46.6447,74.6851 L65.9597,74.6851 C70.3327,74.6851 73.8917,78.2431 73.8917,82.6181 L73.8917,91.1451 L81.2107,91.1451 L81.5627,89.9791 C83.0097,85.1841 83.9417,82.0401 84.4117,80.3691 C85.4747,76.5961 87.2577,74.6851 89.7127,74.6851 L101.4647,74.6851 C103.9197,74.6851 105.7047,76.5961 106.7677,80.3691 L114.3227,102.2491 C114.6447,103.1691 114.6697,104.1471 114.3987,104.9371 C114.2677,105.3211 113.9437,105.9981 113.2457,106.2431 C113.0817,106.2991 112.9097,106.3291 112.7367,106.3291 C111.8437,106.3291 110.8747,105.6261 110.2677,104.5411 L107.2697,105.8221 C108.4747,109.7641 109.5297,113.1951 110.1677,115.2771 L101.7987,115.2771 L101.9087,117.0821 L101.9297,117.2401 L101.9237,136.3961 C101.9237,137.6391 100.9137,138.6481 99.6717,138.6481 C98.4317,138.6481 97.4237,137.6391 97.4237,136.3961 L94.1447,136.3961 C94.1447,137.6391 93.1327,138.6481 91.8927,138.6481 C90.6527,138.6481 89.6427,137.6391 89.6427,136.3961 L89.6427,117.1371 C89.6427,116.7971 89.5407,116.4491 89.3417,116.1021 L88.8687,115.2771 L73.8427,115.2771 C74.3057,113.7791 74.9797,111.5801 75.7707,108.9951 L72.7897,107.6811 C71.4207,110.0031 69.0027,111.4631 66.3257,111.5851 L64.7607,111.6571 L64.7607,136.7991 C64.7607,138.6801 63.2317,140.2091 61.3507,140.2091 Z" id="Fill-42" fill="#E98875"></path>
                <path d="M70.5596,81.0845 L70.5596,89.6115 L73.8916,89.6115 L73.8916,82.6175 C73.8916,78.7715 71.1396,75.5585 67.5006,74.8385 C69.3606,76.2915 70.5596,78.5485 70.5596,81.0845" id="Fill-43" fill="#E47460"></path>
                <path d="M44.5117,103.2896 L44.5077,103.2896 C44.5037,101.4836 44.4907,86.5466 44.4907,86.5466 C44.4887,85.6856 44.4867,84.0846 42.8477,84.0846 L41.2067,84.0846 L41.2067,106.6626 C41.2067,108.2046 40.3247,109.4946 39.1207,109.9156 C39.6287,110.9216 40.5567,111.6046 41.6247,111.6046 C43.1447,111.6046 44.3807,110.2316 44.5117,108.4916 L44.5117,103.2896 Z" id="Fill-44" fill="#E47460"></path>
                <path d="M54.6104,135.2656 L51.3314,135.2656 C51.3314,136.9886 50.0454,138.4006 48.3844,138.6286 C48.9924,139.5766 50.0454,140.2086 51.2514,140.2086 C53.1314,140.2086 54.6614,138.6796 54.6614,136.7986 L54.9934,136.7986 C54.7564,136.3376 54.6104,135.8206 54.6104,135.2656" id="Fill-45" fill="#E47460"></path>
                <path d="M92.4766,113.7441 L90.7346,113.7441 L90.7906,115.4201 L90.7906,115.4081 L90.7946,115.4821 L90.7906,115.4201 C90.7966,116.0001 90.8146,134.6661 90.8146,134.8441 L94.0936,134.8441 C94.0936,134.6891 94.1056,120.9141 94.1136,116.6521 L94.0646,115.2771 L94.1156,115.2771 L94.1326,113.7521 L92.4766,113.7441 Z" id="Fill-46" fill="#E47460"></path>
                <path d="M70.5576,102.1938 C70.5576,102.3048 70.5476,102.4148 70.5416,102.5268 L73.7396,103.2198 L73.8936,102.7158 L73.8996,102.0968 L74.0866,102.0968 L74.5616,100.5628 L70.5696,100.5628 L70.5576,102.1938 Z" id="Fill-47" fill="#E47460"></path>
                <path d="M86.0117,114.5684 L85.5387,113.7444 L74.3137,113.7444 C74.1397,114.3104 73.9817,114.8284 73.8427,115.2774 L86.2637,115.2774 C86.2207,115.0414 86.1487,114.8064 86.0117,114.5684" id="Fill-48" fill="#E47460"></path>
                <path d="M107.2695,105.8218 L109.8475,104.7198 C109.7035,104.7628 109.5585,104.7948 109.4045,104.7948 C108.5135,104.7948 107.5445,104.0928 106.9375,103.0088 L103.9395,104.2888 C105.1445,108.2298 106.1975,111.6618 106.8375,113.7438 L98.4685,113.7438 L98.5805,115.5488 L98.5995,115.7068 L98.5935,134.8638 C98.5935,135.6958 98.1345,136.4118 97.4645,136.8028 C97.6585,137.8498 98.5725,138.6488 99.6715,138.6488 C100.9145,138.6488 101.9235,137.6388 101.9235,136.3968 L101.9295,117.2398 L101.9085,117.0818 L101.7985,115.2778 L110.1675,115.2778 C109.5295,113.1958 108.4745,109.7638 107.2695,105.8218" id="Fill-49" fill="#E47460"></path>
                <path d="M94.6875,136.377 L94.1445,136.377 C94.1445,136.352 94.1445,135.963 94.1425,135.328 C94.1115,135.178 94.0935,135.022 94.0935,134.863 L90.8145,134.863 C90.8145,135.695 90.3555,136.414 89.6835,136.805 C89.8765,137.852 90.7915,138.648 91.8925,138.648 C93.1325,138.648 94.1445,137.639 94.1445,136.397 L94.7055,136.397 C94.6995,136.389 94.6935,136.383 94.6875,136.377" id="Fill-50" fill="#E47460"></path>
                <path d="M72.0596,108.7056 C72.1846,108.3006 72.3096,107.8876 72.4406,107.4616 L69.4596,106.1476 C68.0906,108.4706 65.6746,109.9316 62.9956,110.0526 L61.4306,110.1236 L61.4306,135.2656 C61.4306,136.9886 60.1436,138.4006 58.4836,138.6286 C59.0886,139.5766 60.1456,140.2086 61.3506,140.2086 C63.2316,140.2086 64.7606,138.6796 64.7606,136.7986 L64.7606,111.6566 L66.3256,111.5856 C68.5806,111.4826 70.6436,110.4236 72.0596,108.7056" id="Fill-51" fill="#E47460"></path>
                <path d="M114.3223,102.2495 L106.7673,80.3685 C105.7053,76.5965 103.9203,74.6855 101.4653,74.6855 L101.3923,74.6855 C102.2383,75.6335 102.9243,77.0125 103.4373,78.8355 L110.9923,100.7165 C111.3143,101.6365 111.3403,102.6145 111.0683,103.4035 C110.9473,103.7585 110.6483,104.3495 110.0543,104.6315 L110.2673,104.5415 C110.8753,105.6265 111.8433,106.3285 112.7363,106.3285 C112.9103,106.3285 113.0823,106.2995 113.2463,106.2425 C113.9433,105.9985 114.2673,105.3205 114.3983,104.9375 C114.6703,104.1465 114.6443,103.1695 114.3223,102.2495" id="Fill-52" fill="#E47460"></path>
                <path d="M56.2607,136.0195 L52.9817,136.0195 C52.9817,137.9005 51.4517,139.4275 49.5727,139.4275 C49.3907,139.4275 49.2167,139.4025 49.0427,139.3745 C49.6387,139.8865 50.4067,140.2085 51.2507,140.2085 C53.1317,140.2085 54.6607,138.6795 54.6607,136.7985 L56.3607,136.7985 C56.2997,136.5485 56.2607,136.2895 56.2607,136.0195" id="Fill-53" fill="#E47460"></path>
                <path d="M72.208,102.9468 C72.208,103.0568 72.198,103.1678 72.192,103.2798 L73.888,103.6468 L73.899,102.0968 L75.97,102.0968 L76.212,101.3168 L72.218,101.3168 L72.208,102.9468 Z" id="Fill-54" fill="#E47460"></path>
                <polygon id="Fill-55" fill="#E47460" points="94.1211 116.9434 94.1211 116.9554 94.1251 117.0154"></polygon>
                <path d="M59.999,54.2983 C60.858,55.3733 61.376,56.7343 61.376,58.2143 C61.376,61.6793 58.558,64.4983 55.093,64.4983 C54.075,64.4983 53.114,64.2483 52.263,63.8183 C53.417,65.2593 55.185,66.1873 57.171,66.1873 C60.636,66.1873 63.454,63.3683 63.454,59.9023 C63.454,57.4553 62.046,55.3353 59.999,54.2983" id="Fill-56" fill="#E47460"></path>
                <path d="M95.8848,136.377 L94.1448,136.377 L94.1448,135.615 L92.4628,135.615 C92.4628,136.857 91.4528,137.867 90.2128,137.867 C90.2088,137.867 90.2048,137.865 90.2028,137.865 C90.6138,138.342 91.2168,138.648 91.8928,138.648 C93.1328,138.648 94.1448,137.639 94.1448,136.397 L95.8908,136.397 C95.8888,136.389 95.8868,136.383 95.8848,136.377" id="Fill-57" fill="#E47460"></path>
                <path d="M87.1895,114.498 L74.0835,114.498 C73.9995,114.773 73.9185,115.037 73.8425,115.277 L87.6365,115.277 L87.1895,114.498 Z" id="Fill-58" fill="#E47460"></path>
                <path d="M55.6299,51.8394 C51.8119,51.8394 48.7049,54.9454 48.7049,58.7644 C48.7049,62.5824 51.8119,65.6894 55.6299,65.6894 C59.4469,65.6894 62.5519,62.5824 62.5519,58.7644 C62.5519,54.9454 59.4469,51.8394 55.6299,51.8394 M55.6299,67.6894 C50.7089,67.6894 46.7049,63.6854 46.7049,58.7644 C46.7049,53.8424 50.7089,49.8394 55.6299,49.8394 C60.5489,49.8394 64.5519,53.8424 64.5519,58.7644 C64.5519,63.6854 60.5489,67.6894 55.6299,67.6894" id="Fill-59" fill="#5A7A8E"></path>
                <path d="M94.2422,51.8394 C90.4232,51.8394 87.3162,54.9454 87.3162,58.7644 C87.3162,62.5824 90.4232,65.6894 94.2422,65.6894 C98.0582,65.6894 101.1642,62.5824 101.1642,58.7644 C101.1642,54.9454 98.0582,51.8394 94.2422,51.8394 M94.2422,67.6894 C89.3202,67.6894 85.3162,63.6854 85.3162,58.7644 C85.3162,53.8424 89.3202,49.8394 94.2422,49.8394 C99.1622,49.8394 103.1642,53.8424 103.1642,58.7644 C103.1642,63.6854 99.1622,67.6894 94.2422,67.6894" id="Fill-60" fill="#5A7A8E"></path>
                <path d="M55.6104,135.6621 C55.6104,137.8941 57.4274,139.7111 59.6614,139.7111 C61.8934,139.7111 63.7104,137.8941 63.7104,135.6621 L63.7104,112.0841 C63.7104,111.5491 64.1304,111.1091 64.6644,111.0851 C67.5594,110.9541 70.1714,109.3771 71.6514,106.8681 C71.9084,106.4311 72.4514,106.2561 72.9164,106.4601 C73.3794,106.6641 73.6174,107.1831 73.4684,107.6681 C72.5164,110.7801 71.7324,113.3331 71.2864,114.7791 L86.2304,114.7791 C86.5904,114.7791 86.9224,114.9731 87.1004,115.2861 C87.2414,115.5341 87.3124,115.7731 87.3124,115.9981 L87.3124,135.2581 C87.3124,136.8511 88.6094,138.1481 90.2034,138.1481 C91.7974,138.1481 93.0934,136.8511 93.0934,135.2581 L93.0934,135.2481 L93.0934,135.2381 C93.0934,135.0591 93.0764,116.1391 93.0724,115.7961 C93.0694,115.5281 93.1734,115.2681 93.3614,115.0791 C93.5484,114.8891 93.8044,114.7791 94.0724,114.7791 L94.1154,114.7791 C94.3894,114.7791 94.6524,114.8911 94.8404,115.0911 C95.0294,115.2901 95.1284,115.5581 95.1144,115.8321 C95.1114,116.1391 95.0934,135.0591 95.0934,135.2381 L95.0934,135.2481 L95.0934,135.2581 C95.0934,136.8511 96.3894,138.1481 97.9824,138.1481 C99.5764,138.1481 100.8734,136.8511 100.8734,135.2581 L100.8734,115.9981 C100.8694,115.9711 100.8544,115.8591 100.8524,115.8321 C100.8394,115.5581 100.9374,115.2901 101.1264,115.0911 C101.3144,114.8911 101.5774,114.7791 101.8514,114.7791 L109.3434,114.7791 C108.7564,112.8661 107.5744,109.0171 106.1904,104.4961 C106.0414,104.0081 106.2834,103.4851 106.7544,103.2841 C107.2174,103.0831 107.7684,103.2681 108.0184,103.7151 C108.8974,105.2831 110.5004,106.1521 111.7654,105.7071 C112.4714,105.4611 113.0214,104.8571 113.3144,104.0061 C113.6354,103.0701 113.6084,101.9691 113.2374,100.9061 L105.7114,79.1111 C104.5434,74.9751 102.5514,72.9071 99.7754,72.9071 L88.0234,72.9071 C85.2464,72.9071 83.2564,74.9751 82.1074,79.0561 C81.6424,80.7071 80.6844,83.9371 79.2594,88.6561 C79.1324,89.0781 78.7444,89.3671 78.3024,89.3671 L73.8404,89.3671 C73.2884,89.3671 72.8404,88.9191 72.8404,88.3671 L72.8404,81.4791 C72.8404,76.7521 68.9964,72.9071 64.2704,72.9071 L44.9534,72.9071 C40.2264,72.9071 36.3814,76.7521 36.3814,81.4791 L36.3814,107.0581 C36.3814,109.2901 37.9744,111.1051 39.9334,111.1051 C41.8934,111.1051 43.4884,109.2901 43.4884,107.0581 L43.4884,86.1191 C43.4884,85.5661 43.9364,85.1191 44.4884,85.1191 C45.1884,85.1191 45.3994,85.5341 45.4634,86.1191 L45.4884,86.1191 L45.4884,86.5671 C45.4904,86.6881 45.4914,86.8141 45.4914,86.9421 L45.5004,95.7211 C45.5034,100.0671 45.5074,104.9881 45.5114,105.2921 C45.5114,105.3031 45.5114,105.3131 45.5114,105.3251 L45.5114,135.6621 C45.5114,137.8941 47.3284,139.7111 49.5604,139.7111 C51.7934,139.7111 53.6104,137.8941 53.6104,135.6621 C53.6104,135.1091 54.0584,134.6621 54.6104,134.6621 C55.1624,134.6621 55.6104,135.1091 55.6104,135.6621 M59.6614,141.7111 C57.5534,141.7111 55.6944,140.6281 54.6104,138.9901 C53.5274,140.6281 51.6684,141.7111 49.5604,141.7111 C46.2254,141.7111 43.5114,138.9971 43.5114,135.6621 L43.5114,111.6801 C42.5444,112.5691 41.2954,113.1051 39.9334,113.1051 C36.8714,113.1051 34.3814,110.3921 34.3814,107.0581 L34.3814,81.4791 C34.3814,75.6491 39.1234,70.9071 44.9534,70.9071 L64.2704,70.9071 C70.0994,70.9071 74.8404,75.6491 74.8404,81.4791 L74.8404,87.3671 L77.5604,87.3671 C78.8624,83.0461 79.7444,80.0701 80.1814,78.5141 C81.5834,73.5371 84.2954,70.9071 88.0234,70.9071 L99.7754,70.9071 C103.5034,70.9071 106.2144,73.5371 107.6194,78.5131 L115.1274,100.2501 C115.6444,101.7311 115.6734,103.2971 115.2064,104.6561 C114.7104,106.0991 113.7224,107.1431 112.4244,107.5961 C111.9824,107.7501 111.5184,107.8291 111.0464,107.8291 C110.4114,107.8291 109.7794,107.6881 109.1794,107.4271 C110.4264,111.4981 111.3654,114.5491 111.5974,115.3041 C111.6734,115.4451 111.7164,115.6071 111.7164,115.7791 C111.7164,116.3321 111.2694,116.7791 110.7164,116.7791 C110.7124,116.7801 110.7054,116.7801 110.6974,116.7791 L102.8734,116.7791 L102.8734,135.2581 C102.8734,137.9541 100.6784,140.1481 97.9824,140.1481 C96.3984,140.1481 94.9874,139.3911 94.0934,138.2191 C93.1994,139.3911 91.7884,140.1481 90.2034,140.1481 C87.5064,140.1481 85.3124,137.9541 85.3124,135.2581 L85.3124,116.7791 L69.9324,116.7791 C69.6154,116.7791 69.3164,116.6291 69.1284,116.3731 C68.9394,116.1181 68.8834,115.7881 68.9774,115.4841 C68.9774,115.4841 69.4864,113.8311 70.2904,111.2131 C68.9394,112.1521 67.3754,112.7691 65.7104,112.9961 L65.7104,135.6621 C65.7104,138.9971 62.9964,141.7111 59.6614,141.7111" id="Fill-61" fill="#5A7A8E"></path>
                <path d="M81.5957,86.9136 C81.5957,90.2236 78.9137,92.9056 75.6047,92.9056 C72.2957,92.9056 69.6127,90.2236 69.6127,86.9136 C69.6127,83.6036 72.2957,80.9216 75.6047,80.9216 C78.9137,80.9216 81.5957,83.6036 81.5957,86.9136" id="Fill-62" fill="#FFFFFE"></path>
                <path d="M75.6045,81.9214 C72.8515,81.9214 70.6125,84.1604 70.6125,86.9134 C70.6125,89.6664 72.8515,91.9054 75.6045,91.9054 C78.3565,91.9054 80.5955,89.6664 80.5955,86.9134 C80.5955,84.1604 78.3565,81.9214 75.6045,81.9214 M75.6045,93.9054 C71.7495,93.9054 68.6125,90.7694 68.6125,86.9134 C68.6125,83.0584 71.7495,79.9214 75.6045,79.9214 C79.4585,79.9214 82.5955,83.0584 82.5955,86.9134 C82.5955,90.7694 79.4585,93.9054 75.6045,93.9054" id="Fill-63" fill="#5A7A8E"></path>
                <path d="M83.9395,97.4185 L67.0775,97.4185 C65.7565,97.4185 64.6845,98.4885 64.6845,99.8115 L64.6845,118.6035 C64.6845,119.9255 65.7565,120.9985 67.0775,120.9985 L69.5165,120.9985 L69.5165,136.7555 C69.5165,138.0785 70.5865,139.1485 71.9095,139.1485 L79.2985,139.1485 C80.6215,139.1485 81.6935,138.0785 81.6935,136.7555 L81.6935,120.9985 L83.9395,120.9985 C85.2615,120.9985 86.3325,119.9255 86.3325,118.6035 L86.3325,99.8115 C86.3325,98.4885 85.2615,97.4185 83.9395,97.4185" id="Fill-64" fill="#FFFFFE"></path>
                <path d="M67.0771,98.4185 C66.3091,98.4185 65.6841,99.0435 65.6841,99.8115 L65.6841,118.6035 C65.6841,119.3725 66.3091,119.9985 67.0771,119.9985 L69.5161,119.9985 C70.0691,119.9985 70.5161,120.4455 70.5161,120.9985 L70.5161,136.7555 C70.5161,137.5235 71.1411,138.1485 71.9091,138.1485 L79.2991,138.1485 C80.0671,138.1485 80.6931,137.5235 80.6931,136.7555 L80.6931,120.9985 C80.6931,120.4455 81.1401,119.9985 81.6931,119.9985 L83.9391,119.9985 C84.7071,119.9985 85.3321,119.3725 85.3321,118.6035 L85.3321,99.8115 C85.3321,99.0435 84.7071,98.4185 83.9391,98.4185 L67.0771,98.4185 Z M79.2991,140.1485 L71.9091,140.1485 C70.0381,140.1485 68.5161,138.6265 68.5161,136.7555 L68.5161,121.9985 L67.0771,121.9985 C65.2061,121.9985 63.6841,120.4755 63.6841,118.6035 L63.6841,99.8115 C63.6841,97.9405 65.2061,96.4185 67.0771,96.4185 L83.9391,96.4185 C85.8101,96.4185 87.3321,97.9405 87.3321,99.8115 L87.3321,118.6035 C87.3321,120.4755 85.8101,121.9985 83.9391,121.9985 L82.6931,121.9985 L82.6931,136.7555 C82.6931,138.6265 81.1711,140.1485 79.2991,140.1485 Z" id="Fill-65" fill="#5A7A8E"></path>
                <path d="M76.1338,92.1187 C73.7338,92.1187 71.7798,90.1657 71.7798,87.7667 C71.7798,85.3667 73.7338,83.4157 76.1338,83.4157 C78.5308,83.4157 80.4848,85.3667 80.4848,87.7667 C80.4848,90.1657 78.5308,92.1187 76.1338,92.1187" id="Fill-66" fill="#E98875"></path>
                <path d="M77.8701,83.7827 C78.5121,84.5417 78.9141,85.5077 78.9141,86.5757 C78.9141,88.9747 76.9621,90.9287 74.5611,90.9287 C73.9421,90.9287 73.3561,90.7947 72.8231,90.5607 C73.6241,91.5047 74.8021,92.1187 76.1341,92.1187 C78.5311,92.1187 80.4841,90.1657 80.4841,87.7667 C80.4841,85.9847 79.4061,84.4557 77.8701,83.7827" id="Fill-67" fill="#E98875"></path>
                <path d="M73.5771,139.502 C73.1611,139.502 72.8231,139.164 72.8231,138.748 L72.8231,121.35 L68.7431,121.35 C68.3291,121.35 67.9911,121.014 67.9911,120.598 L67.9911,101.803 C67.9911,101.388 68.3291,101.051 68.7431,101.051 L85.6051,101.051 C86.0211,101.051 86.3611,101.388 86.3611,101.803 L86.3611,120.598 C86.3611,121.014 86.0211,121.35 85.6051,121.35 L81.7191,121.35 L81.7191,138.748 C81.7191,139.164 81.3831,139.502 80.9671,139.502 L73.5771,139.502 Z" id="Fill-68" fill="#E98875"></path>
                <path d="M69.5381,118.1426 L67.9911,118.1426 L67.9911,120.5976 C67.9911,121.0136 68.3291,121.3496 68.7431,121.3496 L69.5381,121.3496 L69.5381,118.1426 Z" id="Fill-69" fill="#E47460"></path>
                <path d="M85.6055,101.0513 L83.0765,101.0513 L83.0765,117.3903 C83.0765,117.8063 82.7385,118.1423 82.3225,118.1423 L78.4355,118.1423 L78.4355,135.5413 C78.4355,135.9593 78.0975,136.2953 77.6825,136.2953 L72.8235,136.2953 L72.8235,138.7483 C72.8235,139.1643 73.1615,139.5023 73.5775,139.5023 L80.9665,139.5023 C81.3825,139.5023 81.7185,139.1643 81.7185,138.7483 L81.7185,121.3493 L85.6055,121.3493 C86.0215,121.3493 86.3615,121.0133 86.3615,120.5973 L86.3615,101.8033 C86.3615,101.3883 86.0215,101.0513 85.6055,101.0513" id="Fill-70" fill="#E47460"></path>
                <path d="M75.6045,81.9214 C72.8515,81.9214 70.6125,84.1604 70.6125,86.9134 C70.6125,89.6664 72.8515,91.9054 75.6045,91.9054 C78.3565,91.9054 80.5955,89.6664 80.5955,86.9134 C80.5955,84.1604 78.3565,81.9214 75.6045,81.9214 M75.6045,93.9054 C71.7495,93.9054 68.6125,90.7694 68.6125,86.9134 C68.6125,83.0584 71.7495,79.9214 75.6045,79.9214 C79.4585,79.9214 82.5955,83.0584 82.5955,86.9134 C82.5955,90.7694 79.4585,93.9054 75.6045,93.9054" id="Fill-71" fill="#5A7A8E"></path>
                <path d="M67.0771,98.4185 C66.3091,98.4185 65.6841,99.0435 65.6841,99.8115 L65.6841,118.6035 C65.6841,119.3725 66.3091,119.9985 67.0771,119.9985 L69.5161,119.9985 C70.0691,119.9985 70.5161,120.4455 70.5161,120.9985 L70.5161,136.7555 C70.5161,137.5235 71.1411,138.1485 71.9091,138.1485 L79.2991,138.1485 C80.0671,138.1485 80.6931,137.5235 80.6931,136.7555 L80.6931,120.9985 C80.6931,120.4455 81.1401,119.9985 81.6931,119.9985 L83.9391,119.9985 C84.7071,119.9985 85.3321,119.3725 85.3321,118.6035 L85.3321,99.8115 C85.3321,99.0435 84.7071,98.4185 83.9391,98.4185 L67.0771,98.4185 Z M79.2991,140.1485 L71.9091,140.1485 C70.0381,140.1485 68.5161,138.6265 68.5161,136.7555 L68.5161,121.9985 L67.0771,121.9985 C65.2061,121.9985 63.6841,120.4755 63.6841,118.6035 L63.6841,99.8115 C63.6841,97.9405 65.2061,96.4185 67.0771,96.4185 L83.9391,96.4185 C85.8101,96.4185 87.3321,97.9405 87.3321,99.8115 L87.3321,118.6035 C87.3321,120.4755 85.8101,121.9985 83.9391,121.9985 L82.6931,121.9985 L82.6931,136.7555 C82.6931,138.6265 81.1711,140.1485 79.2991,140.1485 Z" id="Fill-72" fill="#5A7A8E"></path>
                <path d="M54.5986,136.1953 L54.5986,115.5023" id="Fill-73" fill="#FFFFFE"></path>
                <path d="M54.5986,137.1953 C54.0466,137.1953 53.5986,136.7483 53.5986,136.1953 L53.5986,115.5023 C53.5986,114.9493 54.0466,114.5023 54.5986,114.5023 C55.1506,114.5023 55.5986,114.9493 55.5986,115.5023 L55.5986,136.1953 C55.5986,136.7483 55.1506,137.1953 54.5986,137.1953" id="Fill-74" fill="#5A7A8E"></path>
                <path d="M101.2285,85.9927 L107.1345,104.2037" id="Fill-75" fill="#FFFFFE"></path>
                <path d="M107.1348,105.2041 C106.7128,105.2041 106.3208,104.9351 106.1838,104.5121 L100.2778,86.3011 C100.1068,85.7761 100.3948,85.2121 100.9198,85.0411 C101.4488,84.8701 102.0108,85.1601 102.1798,85.6841 L108.0858,103.8951 C108.2568,104.4201 107.9688,104.9841 107.4438,105.1551 C107.3408,105.1881 107.2368,105.2041 107.1348,105.2041" id="Fill-76" fill="#5A7A8E"></path>
            </g>
        </g>
    </g>
</svg>