<?xml version="1.0" encoding="UTF-8"?>
<svg width="41px" height="41px" viewBox="0 0 41 41" version="1.1" xmlns="http://www.w3.org/2000/svg" xmlns:xlink="http://www.w3.org/1999/xlink">
    <!-- Generator: sketchtool 51.1 (57501) - http://www.bohemiancoding.com/sketch -->
    <title>D4263160-C6B9-4FF4-815B-E4E4B1AD43CF</title>
    <desc>Created with sketchtool.</desc>
    <defs></defs>
    <g id="Page-1" stroke="none" stroke-width="1" fill="none" fill-rule="evenodd" stroke-linecap="square">
        <g id="Thankyou-Web_new" transform="translate(-2142.000000, -844.000000)" stroke="#FFFFFF" stroke-width="3.30000007">
            <g id="Group-8" transform="translate(2120.000000, 819.000000)">
                <g id="doctor" transform="translate(24.200001, 27.500001)">
                    <polyline id="Shape" points="11.5500003 24.7500005 11.5500003 36.3000008 31.3500007 36.3000008 31.3500007 26.4000006"></polyline>
                    <circle id="Oval" cx="31.3500007" cy="21.4500005" r="4.95000011"></circle>
                    <path d="M16.5000004,1.65000004 L21.1200005,1.65000004 C22.1100005,1.65000004 22.9350005,2.47500005 22.7700005,3.46500008 L20.1300004,21.7800005 C19.9650004,23.4300005 18.4800004,24.5850005 16.8300004,24.5850005 L6.10500013,24.5850005 C4.4550001,24.5850005 3.13500007,23.4300005 2.80500006,21.7800005 L0.330000007,3.46500008 C0.165000004,2.47500005 0.825000018,1.65000004 1.98000004,1.65000004 L6.60000014,1.65000004" id="Shape"></path>
                    <path d="M6.60000014,0 L6.60000014,3.30000007" id="Shape"></path>
                    <path d="M16.5000004,0 L16.5000004,3.30000007" id="Shape"></path>
                </g>
            </g>
        </g>
    </g>
</svg>