<?xml version="1.0" encoding="UTF-8"?>
<svg width="154px" height="178px" viewBox="0 0 154 178" version="1.1" xmlns="http://www.w3.org/2000/svg" xmlns:xlink="http://www.w3.org/1999/xlink">
    <!-- Generator: Sketch 51.1 (57501) - http://www.bohemiancoding.com/sketch -->
    <title>Hospital_boostr</title>
    <desc>Created with Sketch.</desc>
    <defs>
        <path d="M0.175,14.332 C0.175,21.919 6.323,28.066 13.909,28.066 C21.495,28.066 27.644,21.919 27.644,14.332 C27.644,6.746 21.495,0.597 13.909,0.597 C6.323,0.597 0.175,6.746 0.175,14.332" id="path-1"></path>
        <path d="M0.175,14.332 C0.175,21.919 6.323,28.066 13.909,28.066 C21.495,28.066 27.644,21.919 27.644,14.332 C27.644,6.746 21.495,0.597 13.909,0.597 C6.323,0.597 0.175,6.746 0.175,14.332" id="path-3"></path>
        <path d="M23.014,0.561 C22.555,0.565 22.11,0.628 21.682,0.732 C16.645,1.528 9.394,4.423 5.557,14.079 C-0.698,29.818 0.712,46.366 1.118,53.631 C1.521,60.894 3.538,64.93 7.374,64.93 C11.206,64.93 10.803,58.271 10.601,53.228 C10.399,48.182 10.646,37.892 11.811,28.81 C12.499,23.462 15.445,15.087 17.261,14.079 L17.261,43.701 L17.261,46.205 L17.261,98.469 C17.261,101.68 19.863,104.281 23.071,104.281 L26.786,104.281 C29.995,104.281 32.597,101.68 32.597,98.469 L32.597,52.018 L36.029,52.018 L36.029,114.837 C36.029,118.046 38.628,120.648 41.839,120.648 L45.554,120.648 C48.763,120.648 51.365,118.046 51.365,114.837 L51.365,46.205 L51.365,43.701 L51.365,6.369 C51.365,3.159 48.763,0.558 45.554,0.558 L27.149,0.558 C27.149,0.558 26.412,0.453 25.198,0.453 C24.581,0.453 23.842,0.48 23.014,0.561" id="path-5"></path>
        <path d="M23.014,0.561 C22.555,0.565 22.11,0.628 21.682,0.732 C16.645,1.528 9.394,4.423 5.557,14.079 C-0.698,29.818 0.712,46.366 1.118,53.631 C1.521,60.894 3.538,64.93 7.374,64.93 C11.206,64.93 10.803,58.271 10.601,53.228 C10.399,48.182 10.646,37.892 11.811,28.81 C12.499,23.462 15.445,15.087 17.261,14.079 L17.261,43.701 L17.261,46.205 L17.261,98.469 C17.261,101.68 19.863,104.281 23.071,104.281 L26.786,104.281 C29.995,104.281 32.597,101.68 32.597,98.469 L32.597,52.018 L36.029,52.018 L36.029,114.837 C36.029,118.046 38.628,120.648 41.839,120.648 L45.554,120.648 C48.763,120.648 51.365,118.046 51.365,114.837 L51.365,46.205 L51.365,43.701 L51.365,6.369 C51.365,3.159 48.763,0.558 45.554,0.558 L27.149,0.558 C27.149,0.558 26.412,0.453 25.198,0.453 C24.581,0.453 23.842,0.48 23.014,0.561" id="path-7"></path>
        <path d="M23.014,0.561 C22.555,0.565 22.11,0.628 21.682,0.732 C16.645,1.528 9.394,4.423 5.557,14.079 C-0.698,29.818 0.712,46.366 1.118,53.631 C1.521,60.894 3.538,64.93 7.374,64.93 C11.206,64.93 10.803,58.271 10.601,53.228 C10.399,48.182 10.646,37.892 11.811,28.81 C12.499,23.462 15.445,15.087 17.261,14.079 L17.261,43.701 L17.261,46.205 L17.261,98.469 C17.261,101.68 19.863,104.281 23.071,104.281 L26.786,104.281 C29.995,104.281 32.597,101.68 32.597,98.469 L32.597,52.018 L36.029,52.018 L36.029,114.837 C36.029,118.046 38.628,120.648 41.839,120.648 L45.554,120.648 C48.763,120.648 51.365,118.046 51.365,114.837 L51.365,46.205 L51.365,43.701 L51.365,6.369 C51.365,3.159 48.763,0.558 45.554,0.558 L27.149,0.558 C27.149,0.558 26.412,0.453 25.198,0.453 C24.581,0.453 23.842,0.48 23.014,0.561 Z" id="path-9"></path>
        <path d="M23.014,0.561 C22.555,0.565 22.11,0.628 21.682,0.732 C16.645,1.528 9.394,4.423 5.557,14.079 C-0.698,29.818 0.712,46.366 1.118,53.631 C1.521,60.894 3.538,64.93 7.374,64.93 C11.206,64.93 10.803,58.271 10.601,53.228 C10.399,48.182 10.646,37.892 11.811,28.81 C12.499,23.462 15.445,15.087 17.261,14.079 L17.261,43.701 L17.261,46.205 L17.261,98.469 C17.261,101.68 19.863,104.281 23.071,104.281 L26.786,104.281 C29.995,104.281 32.597,101.68 32.597,98.469 L32.597,52.018 L36.029,52.018 L36.029,114.837 C36.029,118.046 38.628,120.648 41.839,120.648 L45.554,120.648 C48.763,120.648 51.365,118.046 51.365,114.837 L51.365,46.205 L51.365,43.701 L51.365,6.369 C51.365,3.159 48.763,0.558 45.554,0.558 L27.149,0.558 C27.149,0.558 26.412,0.453 25.198,0.453 C24.581,0.453 23.842,0.48 23.014,0.561" id="path-11"></path>
        <path d="M23.014,0.561 C22.555,0.565 22.11,0.628 21.682,0.732 C16.645,1.528 9.394,4.423 5.557,14.079 C-0.698,29.818 0.712,46.366 1.118,53.631 C1.521,60.894 3.538,64.93 7.374,64.93 C11.206,64.93 10.803,58.271 10.601,53.228 C10.399,48.182 10.646,37.892 11.811,28.81 C12.499,23.462 15.445,15.087 17.261,14.079 L17.261,43.701 L17.261,46.205 L17.261,98.469 C17.261,101.68 19.863,104.281 23.071,104.281 L26.786,104.281 C29.995,104.281 32.597,101.68 32.597,98.469 L32.597,52.018 L36.029,52.018 L36.029,114.837 C36.029,118.046 38.628,120.648 41.839,120.648 L45.554,120.648 C48.763,120.648 51.365,118.046 51.365,114.837 L51.365,46.205 L51.365,43.701 L51.365,6.369 C51.365,3.159 48.763,0.558 45.554,0.558 L27.149,0.558 C27.149,0.558 26.412,0.453 25.198,0.453 C24.581,0.453 23.842,0.48 23.014,0.561" id="path-13"></path>
        <path d="M21.159,7.868 C21.763,10.491 29.29,25.985 25.049,27.597 C20.816,29.213 11.733,29.415 7.897,29.415 C4.065,29.415 0.029,30.626 0.029,35.066 C0.029,39.505 5.679,41.119 14.962,40.918 C24.245,40.716 27.675,39.505 35.341,36.478 C43.011,33.451 38.571,22.554 35.341,11.658 C32.113,0.759 22.831,0.558 18.593,0.558 C18.593,0.558 20.552,5.245 21.159,7.868" id="path-15"></path>
        <path d="M21.159,7.868 C21.763,10.491 29.29,25.985 25.049,27.597 C20.816,29.213 11.733,29.415 7.897,29.415 C4.065,29.415 0.029,30.626 0.029,35.066 C0.029,39.505 5.679,41.119 14.962,40.918 C24.245,40.716 27.675,39.505 35.341,36.478 C43.011,33.451 38.571,22.554 35.341,11.658 C32.113,0.759 22.831,0.558 18.593,0.558 C18.593,0.558 20.552,5.245 21.159,7.868" id="path-17"></path>
        <path d="M29.69,0.582 C26.257,0.582 23.472,3.366 23.472,6.802 L23.472,24.041 L6.23,24.041 C2.794,24.041 0.011,26.826 0.011,30.26 L0.011,41.575 C0.011,45.012 2.794,47.796 6.23,47.796 L23.472,47.796 L23.472,65.038 C23.472,68.472 26.257,71.255 29.69,71.255 L41.005,71.255 C44.438,71.255 47.224,68.472 47.224,65.038 L47.224,47.796 L64.468,47.796 C67.9,47.796 70.684,45.012 70.684,41.575 L70.684,30.26 C70.684,26.826 67.9,24.041 64.468,24.041 L47.224,24.041 L47.224,6.802 C47.224,3.366 44.438,0.582 41.005,0.582" id="path-19"></path>
        <path d="M29.69,0.582 C26.257,0.582 23.472,3.366 23.472,6.802 L23.472,24.041 L6.23,24.041 C2.794,24.041 0.011,26.826 0.011,30.26 L0.011,41.575 C0.011,45.012 2.794,47.796 6.23,47.796 L23.472,47.796 L23.472,65.038 C23.472,68.472 26.257,71.255 29.69,71.255 L41.005,71.255 C44.438,71.255 47.224,68.472 47.224,65.038 L47.224,47.796 L64.468,47.796 C67.9,47.796 70.684,45.012 70.684,41.575 L70.684,30.26 C70.684,26.826 67.9,24.041 64.468,24.041 L47.224,24.041 L47.224,6.802 C47.224,3.366 44.438,0.582 41.005,0.582 L29.69,0.582 Z" id="path-21"></path>
        <path d="M29.69,0.582 C26.257,0.582 23.472,3.366 23.472,6.802 L23.472,24.041 L6.23,24.041 C2.794,24.041 0.011,26.826 0.011,30.26 L0.011,41.575 C0.011,45.012 2.794,47.796 6.23,47.796 L23.472,47.796 L23.472,65.038 C23.472,68.472 26.257,71.255 29.69,71.255 L41.005,71.255 C44.438,71.255 47.224,68.472 47.224,65.038 L47.224,47.796 L64.468,47.796 C67.9,47.796 70.684,45.012 70.684,41.575 L70.684,30.26 C70.684,26.826 67.9,24.041 64.468,24.041 L47.224,24.041 L47.224,6.802 C47.224,3.366 44.438,0.582 41.005,0.582 L29.69,0.582 Z" id="path-23"></path>
        <path d="M29.69,0.582 C26.257,0.582 23.472,3.366 23.472,6.802 L23.472,24.041 L6.23,24.041 C2.794,24.041 0.011,26.826 0.011,30.26 L0.011,41.575 C0.011,45.012 2.794,47.796 6.23,47.796 L23.472,47.796 L23.472,65.038 C23.472,68.472 26.257,71.255 29.69,71.255 L41.005,71.255 C44.438,71.255 47.224,68.472 47.224,65.038 L47.224,47.796 L64.468,47.796 C67.9,47.796 70.684,45.012 70.684,41.575 L70.684,30.26 C70.684,26.826 67.9,24.041 64.468,24.041 L47.224,24.041 L47.224,6.802 C47.224,3.366 44.438,0.582 41.005,0.582" id="path-25"></path>
    </defs>
    <g id="Page-1" stroke="none" stroke-width="1" fill="none" fill-rule="evenodd">
        <g id="Artboard-6" transform="translate(-278.000000, -162.000000)">
            <g id="Hospital_boostr" transform="translate(278.000000, 162.000000)">
                <g id="Group-358">
                    <path d="M143.1201,71.75 C143.1201,111.253 111.0951,143.274 71.5951,143.274 C32.0951,143.274 0.0691,111.253 0.0691,71.75 C0.0691,32.248 32.0951,0.226 71.5951,0.226 C111.0951,0.226 143.1201,32.248 143.1201,71.75" id="Fill-348" fill="#F9DED5"></path>
                    <path d="M35.9932,77.5264 C34.7332,77.4724 33.6692,78.4544 33.6142,79.7164 L30.6732,149.2634 C30.6382,150.1064 31.0692,150.8544 31.7312,151.2784 L30.7102,175.4564 C30.6822,176.0874 31.1712,176.6204 31.8062,176.6444 C32.4342,176.6724 32.9662,176.1814 32.9952,175.5514 L34.0162,151.3764 C34.7142,151.0094 35.2082,150.3004 35.2412,149.4554 L38.1842,79.9084 C38.2372,78.6474 37.2572,77.5794 35.9932,77.5264" id="Fill-350" fill="#FFFFFE"></path>
                    <path d="M35.9483,78.5254 C35.2043,78.5254 34.6433,79.0674 34.6143,79.7584 L31.6733,149.3054 C31.6533,149.7604 31.8783,150.1844 32.2703,150.4364 C32.5713,150.6284 32.7453,150.9644 32.7313,151.3204 L31.7103,175.4984 C31.7083,175.5474 31.7273,175.5814 31.7453,175.6004 C31.7723,175.6294 31.8053,175.6434 31.8443,175.6454 L31.8563,176.6454 L31.8563,175.6454 C31.9303,175.6454 31.9933,175.5834 31.9973,175.5044 L33.0183,151.3344 C33.0323,150.9774 33.2373,150.6564 33.5523,150.4914 C33.9663,150.2734 34.2233,149.8714 34.2433,149.4154 L37.1843,79.8664 C37.2003,79.5224 37.0793,79.1944 36.8463,78.9414 C36.6143,78.6874 36.2963,78.5404 35.9523,78.5254 L35.9483,78.5254 Z M31.8563,177.6454 C31.8413,177.6454 31.7763,177.6434 31.7623,177.6434 C31.1943,177.6224 30.6633,177.3784 30.2743,176.9564 C29.8863,176.5344 29.6863,175.9874 29.7123,175.4134 L30.7123,151.7454 C30.0223,151.0974 29.6343,150.1754 29.6753,149.2214 L32.6163,79.6744 C32.6903,77.9074 34.1323,76.5244 35.8953,76.5244 C35.9093,76.5244 36.0223,76.5264 36.0363,76.5274 C36.9133,76.5644 37.7233,76.9404 38.3193,77.5884 C38.9133,78.2344 39.2193,79.0734 39.1823,79.9504 L36.2413,149.4974 C36.2023,150.4524 35.7373,151.3404 34.9953,151.9284 L33.9953,175.5934 C33.9403,176.7464 33.0013,177.6454 31.8563,177.6454 Z" id="Fill-352" fill="#5A7A8E"></path>
                    <path d="M69.6436,42.3311 C69.6436,49.9191 63.4956,56.0661 55.9096,56.0661 C48.3236,56.0661 42.1746,49.9191 42.1746,42.3311 C42.1746,34.7461 48.3236,28.5971 55.9096,28.5971 C63.4956,28.5971 69.6436,34.7461 69.6436,42.3311" id="Fill-354" fill="#FFFFFE"></path>
                    <path d="M55.9092,29.5967 C48.8882,29.5967 43.1752,35.3097 43.1752,42.3307 C43.1752,49.3537 48.8882,55.0667 55.9092,55.0667 C62.9302,55.0667 68.6432,49.3537 68.6432,42.3307 C68.6432,35.3097 62.9302,29.5967 55.9092,29.5967 M55.9092,57.0667 C47.7842,57.0667 41.1752,50.4557 41.1752,42.3307 C41.1752,34.2057 47.7842,27.5967 55.9092,27.5967 C64.0342,27.5967 70.6432,34.2057 70.6432,42.3307 C70.6432,50.4557 64.0342,57.0667 55.9092,57.0667" id="Fill-356" fill="#5A7A8E"></path>
                </g>
                <g id="Group-365" transform="translate(42.000000, 28.000000)">
                    <g id="Group-361">
                        <mask id="mask-2" fill="white">
                            <use xlink:href="#path-1"></use>
                        </mask>
                        <g id="Clip-360"></g>
                        <path d="M28.2198,16.1807 C28.2198,23.0167 22.6788,28.5577 15.8428,28.5577 C9.0048,28.5577 3.4638,23.0167 3.4638,16.1807 C3.4638,9.3447 9.0048,3.8017 15.8428,3.8017 C22.6788,3.8017 28.2198,9.3447 28.2198,16.1807" id="Fill-359" fill="#E98875" mask="url(#mask-2)"></path>
                    </g>
                    <g id="Group-364">
                        <mask id="mask-4" fill="white">
                            <use xlink:href="#path-3"></use>
                        </mask>
                        <g id="Clip-363"></g>
                        <path d="M21.8897,5.3867 C23.0847,7.2907 23.7877,9.5357 23.7877,11.9497 C23.7877,18.7857 18.2447,24.3267 11.4107,24.3267 C9.2117,24.3267 7.1497,23.7467 5.3607,22.7417 C7.5477,26.2317 11.4187,28.5577 15.8427,28.5577 C22.6787,28.5577 28.2197,23.0167 28.2197,16.1807 C28.2197,11.5417 25.6647,7.5067 21.8897,5.3867" id="Fill-362" fill="#E47460" mask="url(#mask-4)"></path>
                    </g>
                </g>
                <g id="Group-370" transform="translate(21.000000, 55.000000)">
                    <path d="M46.5537,1.5576 L28.1497,1.5576 C28.1497,1.5576 26.4737,1.3196 24.0147,1.5616 C23.5557,1.5656 23.1107,1.6276 22.6827,1.7316 C17.6457,2.5286 10.3937,5.4226 6.5577,15.0786 C0.3017,30.8176 1.7117,47.3666 2.1177,54.6306 C2.5207,61.8936 4.5377,65.9306 8.3737,65.9306 C12.2057,65.9306 11.8037,59.2716 11.6007,54.2276 C11.3997,49.1826 11.6457,38.8916 12.8117,29.8096 C13.4987,24.4616 16.4447,16.0866 18.2607,15.0786 L18.2607,44.7016 L18.2607,47.2046 L18.2607,99.4686 C18.2607,102.6796 20.8627,105.2816 24.0717,105.2816 L27.7857,105.2816 C30.9947,105.2816 33.5967,102.6796 33.5967,99.4686 L33.5967,53.0176 L37.0287,53.0176 L37.0287,115.8366 C37.0287,119.0456 39.6277,121.6476 42.8387,121.6476 L46.5537,121.6476 C49.7627,121.6476 52.3647,119.0456 52.3647,115.8366 L52.3647,47.2046 L52.3647,44.7016 L52.3647,7.3696 C52.3647,4.1596 49.7627,1.5576 46.5537,1.5576" id="Fill-366" fill="#FFFFFE"></path>
                    <path d="M33.5967,52.0176 L37.0287,52.0176 C37.5807,52.0176 38.0287,52.4656 38.0287,53.0176 L38.0287,115.8366 C38.0287,118.4896 40.1867,120.6476 42.8387,120.6476 L46.5537,120.6476 C49.2057,120.6476 51.3647,118.4896 51.3647,115.8366 L51.3647,7.3696 C51.3647,4.7156 49.2057,2.5576 46.5537,2.5576 L28.1497,2.5576 C28.1027,2.5576 28.0557,2.5536 28.0087,2.5476 C28.0027,2.5466 27.3137,2.4526 26.1967,2.4526 C25.5127,2.4526 24.8117,2.4876 24.1127,2.5556 C23.6647,2.5646 23.2937,2.6126 22.9207,2.7036 C17.8267,3.5126 11.0967,6.3646 7.4877,15.4486 C1.6647,30.0946 2.5927,45.7396 3.0397,53.2586 L3.1167,54.5756 C3.4967,61.4466 5.2667,64.9306 8.3737,64.9306 C8.8507,64.9306 9.2117,64.7846 9.5127,64.4716 C10.9597,62.9636 10.7647,58.2246 10.6217,54.7646 L10.6027,54.2676 C10.4167,49.6336 10.5887,39.2626 11.8197,29.6826 C12.4857,24.5066 15.4187,15.5136 17.7767,14.2046 C18.0847,14.0326 18.4617,14.0366 18.7687,14.2166 C19.0737,14.3966 19.2607,14.7236 19.2607,15.0796 L19.2607,99.4686 C19.2607,102.1216 21.4187,104.2816 24.0717,104.2816 L27.7857,104.2816 C30.4387,104.2816 32.5967,102.1216 32.5967,99.4686 L32.5967,53.0176 C32.5967,52.4656 33.0437,52.0176 33.5967,52.0176 M46.5537,122.6476 L42.8387,122.6476 C39.0847,122.6476 36.0287,119.5926 36.0287,115.8366 L36.0287,54.0176 L34.5967,54.0176 L34.5967,99.4686 C34.5967,103.2256 31.5417,106.2816 27.7857,106.2816 L24.0717,106.2816 C20.3177,106.2816 17.2607,103.2256 17.2607,99.4686 L17.2607,18.2326 C15.9327,21.0306 14.3267,25.8596 13.8037,29.9366 C12.5887,39.3956 12.4187,49.6216 12.6007,54.1876 L12.6197,54.6826 C12.7957,58.9246 12.9927,63.7336 10.9537,65.8566 C10.2707,66.5696 9.4037,66.9306 8.3737,66.9306 C4.0107,66.9306 1.5717,62.8116 1.1197,54.6866 L1.0437,53.3766 C0.5887,45.7136 -0.3563,29.7686 5.6277,14.7096 C9.5847,4.7506 17.0007,1.6186 22.5267,0.7446 C22.9677,0.6336 23.4917,0.5656 24.0047,0.5616 C24.6807,0.4916 25.4487,0.4526 26.1967,0.4526 C27.2587,0.4526 27.9837,0.5296 28.2137,0.5576 L46.5537,0.5576 C50.3097,0.5576 53.3647,3.6136 53.3647,7.3696 L53.3647,115.8366 C53.3647,119.5926 50.3097,122.6476 46.5537,122.6476" id="Fill-368" fill="#5A7A8E"></path>
                </g>
                <g id="Group-386" transform="translate(22.000000, 56.000000)">
                    <g id="Group-373">
                        <mask id="mask-6" fill="white">
                            <use xlink:href="#path-5"></use>
                        </mask>
                        <g id="Clip-372"></g>
                        <path d="M48.4698,4.8486 L30.0658,4.8486 C30.0658,4.8486 28.3938,4.6126 25.9328,4.8526 C25.4738,4.8566 25.0288,4.9176 24.5988,5.0246 C19.5658,5.8196 12.3118,8.7126 8.4758,18.3696 C2.2198,34.1106 3.6278,50.6576 4.0338,57.9206 C4.4388,65.1856 6.4558,69.2216 10.2918,69.2216 C14.1238,69.2216 13.7218,62.5616 13.5188,57.5186 C13.3178,52.4736 13.5618,42.1826 14.7298,33.1006 C15.4168,27.7516 18.3628,19.3786 20.1768,18.3696 L20.1768,47.9936 L20.1768,50.4946 L20.1768,102.7596 C20.1768,105.9706 22.7808,108.5716 25.9898,108.5716 L29.7038,108.5716 C32.9128,108.5716 35.5128,105.9706 35.5128,102.7596 L35.5128,56.3076 L38.9448,56.3076 L38.9448,119.1266 C38.9448,122.3356 41.5458,124.9396 44.7548,124.9396 L48.4698,124.9396 C51.6808,124.9396 54.2808,122.3356 54.2808,119.1266 L54.2808,50.4946 L54.2808,47.9936 L54.2808,10.6606 C54.2808,7.4516 51.6808,4.8486 48.4698,4.8486" id="Fill-371" fill="#E98875" mask="url(#mask-6)"></path>
                    </g>
                    <g id="Group-376">
                        <mask id="mask-8" fill="white">
                            <use xlink:href="#path-7"></use>
                        </mask>
                        <g id="Clip-375"></g>
                        <path d="M14.6338,33.8896 L17.2608,13.2196 C12.4288,12.6376 9.8738,22.0626 9.1868,27.4106 C8.0188,36.4936 7.7748,46.7856 7.9738,51.8286 C8.1768,56.8326 8.5698,63.4186 4.8328,63.5236 C5.8038,67.2246 7.5988,69.2216 10.2918,69.2216 C14.1238,69.2216 13.7218,62.5616 13.5188,57.5186 C13.3218,52.6186 13.5518,42.7726 14.6338,33.8896" id="Fill-374" fill="#E47460" mask="url(#mask-8)"></path>
                    </g>
                    <g id="Group-379">
                        <mask id="mask-10" fill="white">
                            <use xlink:href="#path-9"></use>
                        </mask>
                        <g id="Clip-378"></g>
                        <path d="M33.4014,50.6182 L29.9714,50.6182 L29.9714,97.0702 C29.9714,100.2822 27.3704,102.8832 24.1594,102.8832 L20.4444,102.8832 C20.3564,102.8832 20.2744,102.8612 20.1864,102.8562 C20.2394,106.0222 22.8134,108.5712 25.9894,108.5712 L29.7044,108.5712 C31.1184,108.5712 32.3934,108.0482 33.4014,107.2092 L33.4014,50.6182 Z" id="Fill-377" fill="#E47460" mask="url(#mask-10)"></path>
                    </g>
                    <g id="Group-382">
                        <mask id="mask-12" fill="white">
                            <use xlink:href="#path-11"></use>
                        </mask>
                        <g id="Clip-381"></g>
                        <path d="M17.2608,80.2666 L17.2608,76.7786 L33.0518,80.2666 L32.7178,99.5816 C32.7178,99.5816 30.8858,104.5996 26.0288,104.2816 C21.1728,103.9626 17.2938,102.7546 17.2788,98.7996 C17.2608,94.8456 17.2608,80.2666 17.2608,80.2666" id="Fill-380" fill="#FFFFFE" mask="url(#mask-12)"></path>
                    </g>
                    <g id="Group-385">
                        <mask id="mask-14" fill="white">
                            <use xlink:href="#path-13"></use>
                        </mask>
                        <g id="Clip-384"></g>
                        <path d="M48.7276,4.876 C48.7276,4.907 48.7396,4.938 48.7396,4.972 L48.7396,42.304 L48.7396,44.807 L48.7396,113.439 C48.7396,116.647 46.1376,119.25 42.9266,119.25 L39.2116,119.25 C39.1236,119.25 39.0416,119.229 38.9546,119.225 C39.0066,122.388 41.5796,124.939 44.7546,124.939 L48.4696,124.939 C51.6806,124.939 54.2806,122.336 54.2806,119.127 L54.2806,50.495 L54.2806,47.993 L54.2806,10.661 C54.2806,7.539 51.8156,5.013 48.7276,4.876" id="Fill-383" fill="#E47460" mask="url(#mask-14)"></path>
                    </g>
                </g>
                <g id="Group-393" transform="translate(21.000000, 55.000000)">
                    <path d="M33.5967,52.0176 L37.0287,52.0176 C37.5807,52.0176 38.0287,52.4656 38.0287,53.0176 L38.0287,115.8366 C38.0287,118.4896 40.1867,120.6476 42.8387,120.6476 L46.5537,120.6476 C49.2057,120.6476 51.3647,118.4896 51.3647,115.8366 L51.3647,7.3696 C51.3647,4.7156 49.2057,2.5576 46.5537,2.5576 L28.1497,2.5576 C28.1027,2.5576 28.0557,2.5536 28.0087,2.5476 C28.0027,2.5466 27.3137,2.4526 26.1967,2.4526 C25.5127,2.4526 24.8117,2.4876 24.1127,2.5556 C23.6647,2.5646 23.2937,2.6126 22.9207,2.7036 C17.8267,3.5126 11.0967,6.3646 7.4877,15.4486 C1.6647,30.0946 2.5927,45.7396 3.0397,53.2586 L3.1167,54.5756 C3.4967,61.4466 5.2667,64.9306 8.3737,64.9306 C8.8507,64.9306 9.2117,64.7846 9.5127,64.4716 C10.9597,62.9636 10.7647,58.2246 10.6217,54.7646 L10.6027,54.2676 C10.4167,49.6336 10.5887,39.2626 11.8197,29.6826 C12.4857,24.5066 15.4187,15.5136 17.7767,14.2046 C18.0847,14.0326 18.4617,14.0366 18.7687,14.2166 C19.0737,14.3966 19.2607,14.7236 19.2607,15.0796 L19.2607,99.4686 C19.2607,102.1216 21.4187,104.2816 24.0717,104.2816 L27.7857,104.2816 C30.4387,104.2816 32.5967,102.1216 32.5967,99.4686 L32.5967,53.0176 C32.5967,52.4656 33.0437,52.0176 33.5967,52.0176 M46.5537,122.6476 L42.8387,122.6476 C39.0847,122.6476 36.0287,119.5926 36.0287,115.8366 L36.0287,54.0176 L34.5967,54.0176 L34.5967,99.4686 C34.5967,103.2256 31.5417,106.2816 27.7857,106.2816 L24.0717,106.2816 C20.3177,106.2816 17.2607,103.2256 17.2607,99.4686 L17.2607,18.2326 C15.9327,21.0306 14.3267,25.8596 13.8037,29.9366 C12.5887,39.3956 12.4187,49.6216 12.6007,54.1876 L12.6197,54.6826 C12.7957,58.9246 12.9927,63.7336 10.9537,65.8566 C10.2707,66.5696 9.4037,66.9306 8.3737,66.9306 C4.0107,66.9306 1.5717,62.8116 1.1197,54.6866 L1.0437,53.3766 C0.5887,45.7136 -0.3563,29.7686 5.6277,14.7096 C9.5847,4.7506 17.0007,1.6186 22.5267,0.7446 C22.9677,0.6336 23.4917,0.5656 24.0047,0.5616 C24.6807,0.4916 25.4487,0.4526 26.1967,0.4526 C27.2587,0.4526 27.9837,0.5296 28.2137,0.5576 L46.5537,0.5576 C50.3097,0.5576 53.3647,3.6136 53.3647,7.3696 L53.3647,115.8366 C53.3647,119.5926 50.3097,122.6476 46.5537,122.6476" id="Fill-387" fill="#5A7A8E"></path>
                    <path d="M45.5928,1.5576 C49.8308,1.5576 59.1128,1.7596 62.3408,12.6576 C65.5718,23.5536 70.0108,34.4516 62.3408,37.4776 C54.6748,40.5046 51.2448,41.7156 41.9618,41.9176 C32.6788,42.1196 27.0288,40.5046 27.0288,36.0656 C27.0288,31.6256 31.0658,30.4146 34.8978,30.4146 C38.7338,30.4146 47.8158,30.2126 52.0498,28.5976 C56.2898,26.9846 48.7628,11.4916 48.1588,8.8686 C47.5518,6.2446 45.5928,1.5576 45.5928,1.5576" id="Fill-389" fill="#FFFFFE"></path>
                    <path d="M47.083,2.5732 C47.72,4.1902 48.718,6.8482 49.134,8.6422 C49.255,9.1702 49.769,10.4772 50.362,11.9912 C53.011,18.7312 55.276,25.0282 53.954,28.0202 C53.632,28.7472 53.097,29.2682 52.405,29.5322 C47.95,31.2312 38.677,31.4152 34.897,31.4152 C31.765,31.4152 28.028,32.2212 28.028,36.0652 C28.028,39.2962 32.216,40.9342 40.476,40.9342 C40.952,40.9342 41.442,40.9282 41.94,40.9182 C51.065,40.7192 54.474,39.5092 61.974,36.5482 C67.931,34.1982 65.409,26.0312 62.489,16.5752 C62.118,15.3712 61.743,14.1552 61.382,12.9402 C58.657,3.7452 51.358,2.6932 47.083,2.5732 M40.476,42.9342 C36.901,42.9342 26.028,42.9342 26.028,36.0652 C26.028,31.8392 29.261,29.4152 34.897,29.4152 C37.761,29.4152 47.433,29.2882 51.694,27.6632 C51.823,27.6142 51.989,27.5182 52.124,27.2122 C53.22,24.7352 50.151,16.9212 48.501,12.7232 C47.827,11.0052 47.339,9.7622 47.185,9.0932 C46.604,6.5832 44.69,1.9892 44.671,1.9432 C44.542,1.6342 44.575,1.2822 44.761,1.0032 C44.946,0.7252 45.259,0.5572 45.593,0.5572 C49.479,0.5572 59.8,0.5572 63.3,12.3722 C63.657,13.5812 64.03,14.7882 64.401,15.9852 C67.479,25.9582 70.388,35.3782 62.708,38.4082 C54.972,41.4632 51.454,42.7112 41.983,42.9182 C41.47,42.9282 40.968,42.9342 40.476,42.9342" id="Fill-391" fill="#5A7A8E"></path>
                </g>
                <g id="Group-400" transform="translate(48.000000, 56.000000)">
                    <g id="Group-396">
                        <mask id="mask-16" fill="white">
                            <use xlink:href="#path-15"></use>
                        </mask>
                        <g id="Clip-395"></g>
                        <path d="M21.2178,5.0791 C25.4558,5.0791 34.7388,5.2821 37.9658,16.1791 C41.1968,27.0761 45.6378,37.9741 37.9658,41.0011 C30.3018,44.0261 26.8698,45.2371 17.5888,45.4401 C8.3038,45.6421 2.6538,44.0261 2.6538,39.5871 C2.6538,35.1471 6.6908,33.9361 10.5228,33.9361 C14.3588,33.9361 23.4408,33.7351 27.6748,32.1201 C31.9148,30.5071 24.3898,15.0151 23.7838,12.3901 C23.1768,9.7661 21.2178,5.0791 21.2178,5.0791" id="Fill-394" fill="#E98875" mask="url(#mask-16)"></path>
                    </g>
                    <g id="Group-399">
                        <mask id="mask-18" fill="white">
                            <use xlink:href="#path-17"></use>
                        </mask>
                        <g id="Clip-398"></g>
                        <path d="M37.9659,16.1787 C36.4759,11.1437 33.6889,8.4087 30.7079,6.9057 C31.0149,7.6107 31.3059,8.3547 31.5479,9.1787 C34.7779,20.0767 39.2179,30.9737 31.5479,34.0007 C23.8819,37.0277 20.4519,38.2377 11.1689,38.4407 C7.9309,38.5107 5.1479,38.3547 2.8779,37.9387 C2.7359,38.4327 2.6529,38.9767 2.6529,39.5867 C2.6529,44.0267 8.3039,45.6417 17.5889,45.4407 C26.8699,45.2377 30.3019,44.0267 37.9659,41.0007 C45.6379,37.9737 41.1959,27.0757 37.9659,16.1787" id="Fill-397" fill="#E47460" mask="url(#mask-18)"></path>
                    </g>
                </g>
                <g id="Group-427" transform="translate(38.000000, 1.000000)">
                    <path d="M30.083,56.5732 C30.72,58.1902 31.718,60.8482 32.134,62.6422 C32.255,63.1702 32.769,64.4772 33.362,65.9912 C36.011,72.7312 38.276,79.0282 36.954,82.0202 C36.632,82.7472 36.097,83.2682 35.405,83.5322 C30.95,85.2312 21.677,85.4152 17.897,85.4152 C14.765,85.4152 11.028,86.2212 11.028,90.0652 C11.028,93.2962 15.216,94.9342 23.476,94.9342 C23.952,94.9342 24.442,94.9282 24.94,94.9182 C34.065,94.7192 37.474,93.5092 44.974,90.5482 C50.931,88.1982 48.409,80.0312 45.489,70.5752 C45.118,69.3712 44.743,68.1552 44.382,66.9402 C41.657,57.7452 34.358,56.6932 30.083,56.5732 M23.476,96.9342 C19.901,96.9342 9.028,96.9342 9.028,90.0652 C9.028,85.8392 12.261,83.4152 17.897,83.4152 C20.761,83.4152 30.433,83.2882 34.694,81.6632 C34.823,81.6142 34.989,81.5182 35.124,81.2122 C36.22,78.7352 33.151,70.9212 31.501,66.7232 C30.827,65.0052 30.339,63.7622 30.185,63.0932 C29.604,60.5832 27.69,55.9892 27.671,55.9432 C27.542,55.6342 27.575,55.2822 27.761,55.0032 C27.946,54.7252 28.259,54.5572 28.593,54.5572 C32.479,54.5572 42.8,54.5572 46.3,66.3722 C46.657,67.5812 47.03,68.7882 47.401,69.9852 C50.479,79.9582 53.388,89.3782 45.708,92.4082 C37.972,95.4632 34.454,96.7112 24.983,96.9182 C24.47,96.9282 23.968,96.9342 23.476,96.9342" id="Fill-401" fill="#5A7A8E"></path>
                    <path d="M28.8487,55.4521 C28.8487,55.4521 24.1297,71.1311 21.0597,79.6631 C17.9097,88.4191 17.5207,90.0521 13.9797,95.6121 C13.9797,95.6121 16.6987,97.0131 24.8387,96.5381 C32.9777,96.0651 40.9737,93.2901 41.5637,92.9361 C41.5637,92.9361 42.1397,85.7781 38.3527,74.1401 C35.3447,64.9071 30.9717,58.6151 29.7917,55.4521 L28.8487,55.4521 Z" id="Fill-403" fill="#FFFFFE"></path>
                    <path d="M15.5088,95.0576 C16.5828,95.3186 18.5298,95.6356 21.6338,95.6356 C22.6238,95.6356 23.6828,95.6036 24.7798,95.5396 C31.6748,95.1396 38.6298,93.0066 40.5888,92.2686 C40.6238,90.3506 40.4678,83.8696 37.4018,74.4506 C35.4448,68.4426 32.9018,63.6966 31.0438,60.2306 C30.3918,59.0146 29.8308,57.9676 29.4038,57.0696 C28.1948,61.0436 24.5248,72.9916 22.0008,80.0016 L21.0478,82.6646 C18.9068,88.6626 18.1478,90.7876 15.5088,95.0576 M21.6338,97.6356 C15.8918,97.6356 13.7468,96.6186 13.5228,96.5016 C13.2728,96.3726 13.0888,96.1456 13.0148,95.8736 C12.9408,95.6026 12.9858,95.3136 13.1358,95.0756 C16.2238,90.2256 16.8468,88.4816 19.1648,81.9926 L20.1178,79.3256 C23.1458,70.9146 27.8428,55.3206 27.8898,55.1636 C28.0188,54.7416 28.4068,54.4526 28.8488,54.4526 L29.7918,54.4526 C30.2098,54.4526 30.5828,54.7116 30.7298,55.1026 C31.1068,56.1156 31.8568,57.5146 32.8058,59.2866 C34.6998,62.8176 37.2918,67.6536 39.3038,73.8306 C43.1088,85.5246 42.5848,92.7156 42.5618,93.0166 C42.5338,93.3386 42.3548,93.6276 42.0768,93.7936 C41.2218,94.3076 32.9428,97.0696 24.8958,97.5366 C23.7608,97.6026 22.6628,97.6356 21.6338,97.6356" id="Fill-405" fill="#5A7A8E"></path>
                    <path d="M16.5967,136.2666 C10.3897,136.2666 1.2177,131.9146 0.8287,131.7306 C0.3307,131.4926 0.1197,130.8956 0.3587,130.3976 C0.5967,129.8986 1.1947,129.6886 1.6927,129.9256 C1.7837,129.9696 10.8447,134.2666 16.5967,134.2666 C17.1497,134.2666 17.5967,134.7136 17.5967,135.2666 C17.5967,135.8196 17.1497,136.2666 16.5967,136.2666" id="Fill-407" fill="#5A7A8E"></path>
                    <path d="M3.9444,144.624 C3.0554,144.624 2.1264,144.578 1.1574,144.478 C0.6084,144.42 0.2104,143.929 0.2664,143.379 C0.3234,142.829 0.8014,142.432 1.3644,142.487 C10.5264,143.443 15.8974,138.988 15.9504,138.944 C16.3744,138.586 17.0054,138.64 17.3604,139.062 C17.7174,139.482 17.6654,140.113 17.2434,140.47 C17.0224,140.657 12.2314,144.624 3.9444,144.624" id="Fill-409" fill="#5A7A8E"></path>
                    <path d="M12.3916,152.0928 C6.6356,152.0928 1.2156,150.2338 0.9326,150.1348 C0.4116,149.9528 0.1356,149.3838 0.3176,148.8628 C0.4986,148.3398 1.0716,148.0638 1.5886,148.2458 C1.6706,148.2748 9.8936,151.0848 16.3896,149.7078 C16.9306,149.5928 17.4616,149.9398 17.5756,150.4798 C17.6906,151.0198 17.3446,151.5498 16.8036,151.6648 C15.3666,151.9698 13.8686,152.0928 12.3916,152.0928" id="Fill-411" fill="#5A7A8E"></path>
                    <path d="M17.9092,28.5967 C10.8882,28.5967 5.1752,34.3097 5.1752,41.3307 C5.1752,48.3537 10.8882,54.0667 17.9092,54.0667 C24.9302,54.0667 30.6432,48.3537 30.6432,41.3307 C30.6432,34.3097 24.9302,28.5967 17.9092,28.5967 M17.9092,56.0667 C9.7842,56.0667 3.1752,49.4557 3.1752,41.3307 C3.1752,33.2057 9.7842,26.5967 17.9092,26.5967 C26.0342,26.5967 32.6432,33.2057 32.6432,41.3307 C32.6432,49.4557 26.0342,56.0667 17.9092,56.0667" id="Fill-413" fill="#5A7A8E"></path>
                    <path d="M4.7451,45.0957 C4.7451,45.0957 14.1611,45.6837 29.4601,33.9147 C29.4601,33.9147 25.5751,29.7957 23.3391,28.7367 C23.3391,28.7367 15.0201,39.7987 4.1751,40.8587 C4.1751,40.8587 4.0401,43.6837 4.7451,45.0957" id="Fill-415" fill="#FFFFFE"></path>
                    <path d="M5.166,41.7446 C5.183,42.5046 5.26,43.4116 5.438,44.0886 C7.814,43.9736 15.859,42.8646 27.954,33.8026 C26.789,32.6376 24.957,30.9186 23.589,30.0286 C21.587,32.4566 14.413,40.3946 5.166,41.7446 M4.976,46.1006 C4.781,46.1006 4.683,46.0936 4.683,46.0936 C4.329,46.0696 4.009,45.8596 3.851,45.5426 C3.052,43.9426 3.161,41.1266 3.176,40.8106 C3.199,40.3146 3.583,39.9116 4.077,39.8636 C14.349,38.8596 22.459,28.2426 22.54,28.1346 C22.827,27.7556 23.341,27.6316 23.767,27.8326 C26.146,28.9596 30.023,33.0556 30.187,33.2286 C30.382,33.4346 30.479,33.7126 30.457,33.9946 C30.435,34.2766 30.294,34.5356 30.069,34.7076 C15.974,45.5506 6.693,46.1006 4.976,46.1006" id="Fill-417" fill="#5A7A8E"></path>
                    <path d="M4.9034,36.9189 C4.9034,36.9189 13.6884,33.2829 18.7494,27.5969 C18.7494,27.5969 21.2214,27.6779 23.3394,28.7359 C23.3394,28.7359 15.0204,38.8569 4.1744,40.8579 L4.9034,36.9189 Z" id="Fill-419" fill="#FFFFFE"></path>
                    <path d="M5.7901,37.6255 L5.4331,39.5575 C13.1251,37.5795 19.3721,31.5585 21.6441,29.1305 C20.6431,28.8125 19.6941,28.6815 19.1611,28.6295 C14.6371,33.4945 7.7201,36.7705 5.7901,37.6255 M4.1751,41.8585 C3.9121,41.8585 3.6571,41.7545 3.4681,41.5655 C3.2351,41.3325 3.1321,41.0005 3.1911,40.6765 L3.9201,36.7375 C3.9811,36.4045 4.2081,36.1245 4.5201,35.9955 C4.6061,35.9595 13.1571,32.3755 18.0021,26.9325 C18.1991,26.7105 18.4651,26.5905 18.7821,26.5975 C18.8921,26.6005 21.4991,26.6985 23.7861,27.8415 C24.0591,27.9785 24.2541,28.2305 24.3171,28.5285 C24.3801,28.8255 24.3051,29.1365 24.1111,29.3715 C23.7631,29.7955 15.4341,39.7975 4.3561,41.8415 C4.2961,41.8535 4.2351,41.8585 4.1751,41.8585" id="Fill-421" fill="#5A7A8E"></path>
                    <path d="M108.4678,25.041 L91.2238,25.041 L91.2238,7.802 C91.2238,4.366 88.4388,1.582 85.0048,1.582 L73.6908,1.582 C70.2568,1.582 67.4718,4.366 67.4718,7.802 L67.4718,25.041 L50.2298,25.041 C46.7938,25.041 44.0108,27.826 44.0108,31.261 L44.0108,42.575 C44.0108,46.012 46.7938,48.796 50.2298,48.796 L67.4718,48.796 L67.4718,66.038 C67.4718,69.472 70.2568,72.256 73.6908,72.256 L85.0048,72.256 C88.4388,72.256 91.2238,69.472 91.2238,66.038 L91.2238,48.796 L108.4678,48.796 C111.8998,48.796 114.6848,46.012 114.6848,42.575 L114.6848,31.261 C114.6848,27.826 111.8998,25.041 108.4678,25.041" id="Fill-423" fill="#FFFFFE"></path>
                    <path d="M50.2295,26.041 C47.3515,26.041 45.0105,28.383 45.0105,31.261 L45.0105,42.575 C45.0105,45.454 47.3515,47.796 50.2295,47.796 L67.4715,47.796 C68.0245,47.796 68.4715,48.244 68.4715,48.796 L68.4715,66.038 C68.4715,68.915 70.8125,71.256 73.6905,71.256 L85.0045,71.256 C87.8825,71.256 90.2235,68.915 90.2235,66.038 L90.2235,48.796 C90.2235,48.244 90.6705,47.796 91.2235,47.796 L108.4675,47.796 C111.3445,47.796 113.6845,45.454 113.6845,42.575 L113.6845,31.261 C113.6845,28.383 111.3445,26.041 108.4675,26.041 L91.2235,26.041 C90.6705,26.041 90.2235,25.593 90.2235,25.041 L90.2235,7.802 C90.2235,4.924 87.8825,2.582 85.0045,2.582 L73.6905,2.582 C70.8125,2.582 68.4715,4.924 68.4715,7.802 L68.4715,25.041 C68.4715,25.593 68.0245,26.041 67.4715,26.041 L50.2295,26.041 Z M85.0045,73.256 L73.6905,73.256 C69.7095,73.256 66.4715,70.018 66.4715,66.038 L66.4715,49.796 L50.2295,49.796 C46.2495,49.796 43.0105,46.557 43.0105,42.575 L43.0105,31.261 C43.0105,27.28 46.2495,24.041 50.2295,24.041 L66.4715,24.041 L66.4715,7.802 C66.4715,3.821 69.7095,0.582 73.6905,0.582 L85.0045,0.582 C88.9855,0.582 92.2235,3.821 92.2235,7.802 L92.2235,24.041 L108.4675,24.041 C112.4475,24.041 115.6845,27.28 115.6845,31.261 L115.6845,42.575 C115.6845,46.557 112.4475,49.796 108.4675,49.796 L92.2235,49.796 L92.2235,66.038 C92.2235,70.018 88.9855,73.256 85.0045,73.256 Z" id="Fill-425" fill="#5A7A8E"></path>
                </g>
                <g id="Group-440" transform="translate(82.000000, 2.000000)">
                    <g id="Group-430">
                        <mask id="mask-20" fill="white">
                            <use xlink:href="#path-19"></use>
                        </mask>
                        <g id="Clip-429"></g>
                        <path d="M68.9287,19.292 L51.6867,19.292 L51.6867,2.052 C51.6867,-1.382 48.9017,-4.167 45.4677,-4.167 L34.1537,-4.167 C30.7177,-4.167 23.3267,-1.382 23.3267,2.052 L23.3267,19.292 L10.6927,19.292 C7.2547,19.292 4.4717,22.077 4.4717,25.512 L4.4717,36.826 C4.4717,40.262 7.2547,43.046 10.6927,43.046 L27.9327,43.046 L27.9327,60.288 C27.9327,63.723 30.7177,66.506 34.1537,66.506 L45.4677,66.506 C48.9017,66.506 51.6867,63.723 51.6867,60.288 L51.6867,47.649 L68.9287,47.649 C72.3627,47.649 75.1477,40.262 75.1477,36.826 L75.1477,25.512 C75.1477,22.077 72.3627,19.292 68.9287,19.292" id="Fill-428" fill="#E98875" mask="url(#mask-20)"></path>
                    </g>
                    <g id="Group-433">
                        <mask id="mask-22" fill="white">
                            <use xlink:href="#path-21"></use>
                        </mask>
                        <g id="Clip-432"></g>
                        <path d="M23.4717,27.1367 L23.4717,19.2917 L10.6927,19.2917 C7.2547,19.2917 4.4717,22.0767 4.4717,25.5117 L4.4717,27.1367 L23.4717,27.1367 Z" id="Fill-431" fill="#E47460" mask="url(#mask-22)"></path>
                    </g>
                    <g id="Group-436">
                        <mask id="mask-24" fill="white">
                            <use xlink:href="#path-23"></use>
                        </mask>
                        <g id="Clip-435"></g>
                        <path d="M41.1807,48.4248 L41.1807,66.5058 L45.4677,66.5058 C48.9017,66.5058 51.6867,63.7228 51.6867,60.2878 L51.6867,48.4248 L41.1807,48.4248 Z" id="Fill-434" fill="#E47460" mask="url(#mask-24)"></path>
                    </g>
                    <g id="Group-439">
                        <mask id="mask-26" fill="white">
                            <use xlink:href="#path-25"></use>
                        </mask>
                        <g id="Clip-438"></g>
                        <path d="M68.9287,19.292 L51.6867,19.292 L51.6867,2.052 C51.6867,-1.384 48.9017,-4.167 45.4677,-4.167 L34.1537,-4.167 C30.7177,-4.167 23.3267,-1.384 23.3267,2.052 L23.3267,3.692 C23.4307,3.688 23.5437,3.677 23.6457,3.677 L34.9597,3.677 C38.3957,3.677 41.1807,6.461 41.1807,9.896 L41.1807,27.137 L58.4207,27.137 C61.8567,27.137 64.6377,29.922 64.6377,33.355 L64.6377,44.671 C64.6377,45.489 64.4757,46.536 64.1907,47.649 L68.9287,47.649 C72.3627,47.649 75.1477,40.262 75.1477,36.826 L75.1477,25.512 C75.1477,22.077 72.3627,19.292 68.9287,19.292" id="Fill-437" fill="#E47460" mask="url(#mask-26)"></path>
                    </g>
                </g>
                <path d="M88.2295,27.041 C85.3515,27.041 83.0105,29.383 83.0105,32.261 L83.0105,43.575 C83.0105,46.454 85.3515,48.796 88.2295,48.796 L105.4715,48.796 C106.0245,48.796 106.4715,49.244 106.4715,49.796 L106.4715,67.038 C106.4715,69.915 108.8125,72.256 111.6905,72.256 L123.0045,72.256 C125.8825,72.256 128.2235,69.915 128.2235,67.038 L128.2235,49.796 C128.2235,49.244 128.6705,48.796 129.2235,48.796 L146.4675,48.796 C149.3445,48.796 151.6845,46.454 151.6845,43.575 L151.6845,32.261 C151.6845,29.383 149.3445,27.041 146.4675,27.041 L129.2235,27.041 C128.6705,27.041 128.2235,26.593 128.2235,26.041 L128.2235,8.802 C128.2235,5.924 125.8825,3.582 123.0045,3.582 L111.6905,3.582 C108.8125,3.582 106.4715,5.924 106.4715,8.802 L106.4715,26.041 C106.4715,26.593 106.0245,27.041 105.4715,27.041 L88.2295,27.041 Z M123.0045,74.256 L111.6905,74.256 C107.7095,74.256 104.4715,71.018 104.4715,67.038 L104.4715,50.796 L88.2295,50.796 C84.2495,50.796 81.0105,47.557 81.0105,43.575 L81.0105,32.261 C81.0105,28.28 84.2495,25.041 88.2295,25.041 L104.4715,25.041 L104.4715,8.802 C104.4715,4.821 107.7095,1.582 111.6905,1.582 L123.0045,1.582 C126.9855,1.582 130.2235,4.821 130.2235,8.802 L130.2235,25.041 L146.4675,25.041 C150.4475,25.041 153.6845,28.28 153.6845,32.261 L153.6845,43.575 C153.6845,47.557 150.4475,50.796 146.4675,50.796 L130.2235,50.796 L130.2235,67.038 C130.2235,71.018 126.9855,74.256 123.0045,74.256 Z" id="Fill-441" fill="#5A7A8E"></path>
            </g>
        </g>
    </g>
</svg>