<?xml version="1.0" encoding="UTF-8"?>
<svg width="145px" height="165px" viewBox="0 0 145 165" version="1.1" xmlns="http://www.w3.org/2000/svg" xmlns:xlink="http://www.w3.org/1999/xlink">
    <!-- Generator: Sketch 51.1 (57501) - http://www.bohemiancoding.com/sketch -->
    <title>PED</title>
    <desc>Created with Sketch.</desc>
    <defs>
        <path d="M33.135,9.331 L33.135,30.965 L16.114,30.965 C13.435,30.965 11.127,32.538 10.049,34.808 C9.854,35.165 9.695,35.549 9.589,35.96 L1.042,68.564 C0.348,71.255 1.967,74.001 4.658,74.696 C7.351,75.389 10.096,73.771 10.791,71.079 L17.784,44.402 L43.577,44.402 C47.287,44.402 50.295,41.394 50.295,37.682 C50.295,37.388 50.27,37.1 50.234,36.816 C50.271,36.49 50.295,36.159 50.295,35.822 L50.295,9.331 C50.295,4.593 46.454,0.751 41.714,0.751 C36.977,0.751 33.135,4.593 33.135,9.331 Z" id="path-1"></path>
        <path d="M33.135,9.331 L33.135,30.965 L16.114,30.965 C13.435,30.965 11.127,32.538 10.049,34.808 C9.854,35.165 9.695,35.549 9.589,35.96 L1.042,68.564 C0.348,71.255 1.967,74.001 4.658,74.696 C7.351,75.389 10.096,73.771 10.791,71.079 L17.784,44.402 L43.577,44.402 C47.287,44.402 50.295,41.394 50.295,37.682 C50.295,37.388 50.27,37.1 50.234,36.816 C50.271,36.49 50.295,36.159 50.295,35.822 L50.295,9.331 C50.295,4.593 46.454,0.751 41.714,0.751 C36.977,0.751 33.135,4.593 33.135,9.331 Z" id="path-3"></path>
        <path d="M40.351,4.529 L33.082,32.26 L5.663,32.26 C2.578,32.26 0.078,34.759 0.078,37.843 C0.078,40.927 2.578,43.426 5.663,43.426 L35.726,43.426 C35.9,43.426 36.068,43.416 36.237,43.4 C38.647,43.615 40.928,42.069 41.554,39.65 L50.101,7.045 C50.795,4.354 49.176,1.608 46.485,0.913 C46.063,0.804 45.64,0.752 45.224,0.752 C42.982,0.752 40.938,2.259 40.351,4.529" id="path-5"></path>
        <path d="M40.351,4.529 L33.082,32.26 L5.663,32.26 C2.578,32.26 0.078,34.759 0.078,37.843 C0.078,40.927 2.578,43.426 5.663,43.426 L35.726,43.426 C35.9,43.426 36.068,43.416 36.237,43.4 C38.647,43.615 40.928,42.069 41.554,39.65 L50.101,7.045 C50.795,4.354 49.176,1.608 46.485,0.913 C46.063,0.804 45.64,0.752 45.224,0.752 C42.982,0.752 40.938,2.259 40.351,4.529" id="path-7"></path>
    </defs>
    <g id="Page-1" stroke="none" stroke-width="1" fill="none" fill-rule="evenodd">
        <g id="Artboard-3" transform="translate(-288.000000, -162.000000)">
            <g id="PED" transform="translate(288.000000, 162.000000)">
                <g id="Group-196">
                    <path d="M143.5254,71.749 C143.5254,111.253 111.5024,143.274 72.0004,143.274 C32.4984,143.274 0.4744,111.253 0.4744,71.749 C0.4744,32.247 32.4984,0.226 72.0004,0.226 C111.5024,0.226 143.5254,32.247 143.5254,71.749" id="Fill-182" fill="#F9DED5"></path>
                    <path d="M72.5371,77.9443 C72.1891,77.9443 71.8391,77.8873 71.4981,77.7683 C70.2241,77.3263 69.3721,76.1273 69.3721,74.7793 L69.3721,44.9003 C69.3721,43.1523 70.7891,41.7353 72.5371,41.7353 C74.2851,41.7353 75.7031,43.1523 75.7031,44.9003 L75.7031,65.6753 L81.8731,57.8763 C82.9581,56.5053 84.9491,56.2733 86.3191,57.3573 C87.6901,58.4423 87.9231,60.4323 86.8381,61.8033 L75.0191,76.7433 C74.4081,77.5163 73.4861,77.9443 72.5371,77.9443" id="Fill-184" fill="#FFFFFE"></path>
                    <path d="M72.5371,42.7354 C71.3441,42.7354 70.3721,43.7064 70.3721,44.9004 L70.3721,74.7794 C70.3721,75.7004 70.9561,76.5224 71.8261,76.8234 C72.6831,77.1234 73.6711,76.8354 74.2351,76.1234 L86.0541,61.1834 C86.7951,60.2474 86.6351,58.8824 85.6991,58.1414 C84.7881,57.4214 83.3751,57.5894 82.6571,58.4964 L76.4871,66.2964 C76.2231,66.6304 75.7741,66.7594 75.3751,66.6204 C74.9731,66.4804 74.7031,66.1014 74.7031,65.6754 L74.7031,44.9004 C74.7031,43.7064 73.7311,42.7354 72.5371,42.7354 M72.5371,78.9444 C72.0681,78.9444 71.6081,78.8664 71.1681,78.7124 C69.4961,78.1314 68.3721,76.5504 68.3721,74.7794 L68.3721,44.9004 C68.3721,42.6044 70.2401,40.7354 72.5371,40.7354 C74.8341,40.7354 76.7031,42.6044 76.7031,44.9004 L76.7031,62.7994 L81.0891,57.2554 C81.8841,56.2514 83.0751,55.6744 84.3571,55.6744 C85.2901,55.6744 86.2071,55.9934 86.9391,56.5734 C88.7411,57.9984 89.0471,60.6234 87.6221,62.4244 L75.8041,77.3634 C75.0101,78.3684 73.8191,78.9444 72.5371,78.9444" id="Fill-186" fill="#5A7A8E"></path>
                    <path d="M73.5039,29.5928 C62.4409,29.5928 52.0289,33.5418 43.8659,40.6178 L44.1899,35.4168 C44.2979,33.6718 42.9719,32.1698 41.2269,32.0618 C39.4749,31.9438 37.9799,33.2788 37.8709,35.0248 L37.0109,48.8568 C37.0109,48.8618 37.0109,48.8638 37.0099,48.8678 L37.0089,48.8798 C37.0079,48.9028 37.0139,48.9248 37.0119,48.9478 C37.0049,49.1378 37.0119,49.3278 37.0379,49.5158 C37.0489,49.5908 37.0699,49.6618 37.0879,49.7368 C37.1159,49.8718 37.1469,50.0068 37.1929,50.1378 C37.2209,50.2168 37.2589,50.2898 37.2929,50.3668 C37.3469,50.4878 37.4019,50.6048 37.4729,50.7188 C37.5179,50.7938 37.5699,50.8638 37.6229,50.9348 C37.6969,51.0378 37.7749,51.1378 37.8639,51.2318 C37.8929,51.2618 37.9119,51.2978 37.9409,51.3258 C37.9869,51.3718 38.0419,51.4048 38.0899,51.4478 C38.1379,51.4888 38.1759,51.5368 38.2249,51.5758 C38.2579,51.6018 38.2939,51.6158 38.3269,51.6398 C38.4169,51.7038 38.5109,51.7598 38.6069,51.8148 C38.6929,51.8638 38.7799,51.9138 38.8709,51.9548 C38.9659,51.9968 39.0629,52.0298 39.1609,52.0638 C39.2589,52.0968 39.3559,52.1288 39.4539,52.1528 C39.5539,52.1748 39.6539,52.1888 39.7549,52.2008 C39.8569,52.2148 39.9569,52.2278 40.0589,52.2318 C40.0959,52.2328 40.1319,52.2418 40.1679,52.2418 C40.2439,52.2418 40.3199,52.2388 40.3969,52.2338 L53.6859,51.2738 C55.4289,51.1478 56.7399,49.6318 56.6139,47.8888 C56.4889,46.1448 54.9629,44.8428 53.2289,44.9588 L48.0949,45.3298 C55.1059,39.2918 64.0269,35.9238 73.5039,35.9238 C95.0309,35.9238 112.5439,53.4378 112.5439,74.9638 C112.5439,96.4898 95.0309,114.0038 73.5039,114.0038 C51.9789,114.0038 34.4649,96.4898 34.4649,74.9638 C34.4649,71.6168 34.8879,68.2978 35.7219,65.0958 C36.1629,63.4038 35.1489,61.6738 33.4569,61.2348 C31.7599,60.7908 30.0369,61.8078 29.5959,63.4988 C28.6259,67.2228 28.1339,71.0798 28.1339,74.9638 C28.1339,99.9818 48.4869,120.3338 73.5039,120.3338 C98.5219,120.3338 118.8749,99.9818 118.8749,74.9638 C118.8749,49.9468 98.5219,29.5928 73.5039,29.5928" id="Fill-188" fill="#FFFFFE"></path>
                    <path d="M32.6523,62.1304 C31.6723,62.1304 30.8123,62.7974 30.5633,63.7514 C29.6153,67.3934 29.1333,71.1664 29.1333,74.9634 C29.1333,99.4294 49.0383,119.3344 73.5043,119.3344 C97.9703,119.3344 117.8753,99.4294 117.8753,74.9634 C117.8753,50.4974 97.9703,30.5924 73.5043,30.5924 C62.8343,30.5924 52.5413,34.4214 44.5213,41.3734 C44.2163,41.6384 43.7823,41.6924 43.4233,41.5144 C43.0613,41.3364 42.8423,40.9584 42.8683,40.5564 L43.1913,35.3554 C43.2273,34.7774 43.0363,34.2204 42.6533,33.7874 C42.2703,33.3544 41.7423,33.0954 41.1653,33.0594 L41.0103,33.0544 C39.8813,33.0544 38.9393,33.9464 38.8693,35.0864 L38.0103,48.8954 C38.0113,48.9434 38.0113,48.9954 38.0073,49.0314 C38.0063,49.1154 38.0093,49.2464 38.0283,49.3764 C38.0293,49.3814 38.0593,49.5004 38.0603,49.5054 C38.0863,49.6224 38.1033,49.7134 38.1343,49.8004 C38.1373,49.8064 38.2053,49.9564 38.2073,49.9624 C38.2423,50.0394 38.2773,50.1184 38.3243,50.1944 C38.3543,50.2444 38.3823,50.2794 38.4093,50.3164 C38.4833,50.4184 38.5333,50.4834 38.5893,50.5434 C38.6063,50.5614 38.6343,50.5944 38.6603,50.6254 C38.6923,50.6514 38.7423,50.6904 38.7573,50.7044 C38.7783,50.7214 38.8063,50.7484 38.8373,50.7784 C38.8603,50.7934 38.8813,50.8074 38.9043,50.8224 C38.9713,50.8714 39.0373,50.9084 39.1023,50.9464 C39.1633,50.9804 39.2203,51.0154 39.2823,51.0444 C39.3423,51.0704 39.4113,51.0924 39.4803,51.1154 C39.5503,51.1394 39.6173,51.1634 39.6853,51.1794 C39.7423,51.1924 39.8113,51.2004 39.8803,51.2094 C39.9583,51.2194 40.0273,51.2294 40.0963,51.2324 C40.1313,51.2334 40.2153,51.2414 40.2503,51.2464 C40.2193,51.2424 40.2693,51.2404 40.3193,51.2364 L53.6133,50.2764 C54.8033,50.1904 55.7033,49.1514 55.6173,47.9614 C55.5363,46.8344 54.5813,45.9514 53.4433,45.9514 L53.2953,45.9564 L48.1673,46.3274 C47.7203,46.3524 47.3353,46.1094 47.1703,45.7124 C47.0063,45.3134 47.1153,44.8544 47.4423,44.5724 C54.6663,38.3504 63.9223,34.9234 73.5043,34.9234 C95.5823,34.9234 113.5443,52.8854 113.5443,74.9634 C113.5443,97.0424 95.5823,115.0044 73.5043,115.0044 C51.4263,115.0044 33.4643,97.0424 33.4643,74.9634 C33.4643,71.5324 33.8983,68.1284 34.7543,64.8434 C34.9003,64.2834 34.8193,63.7004 34.5263,63.2014 C34.2343,62.7024 33.7643,62.3474 33.2063,62.2024 C33.0223,62.1544 32.8373,62.1304 32.6523,62.1304 M73.5043,121.3344 C47.9353,121.3344 27.1333,100.5324 27.1333,74.9634 C27.1333,70.9964 27.6363,67.0544 28.6283,63.2474 C29.1063,61.4114 30.7613,60.1304 32.6523,60.1304 C33.0073,60.1304 33.3633,60.1764 33.7103,60.2674 C34.7853,60.5464 35.6883,61.2294 36.2523,62.1894 C36.8143,63.1494 36.9703,64.2714 36.6893,65.3484 C35.8773,68.4674 35.4653,71.7034 35.4653,74.9634 C35.4653,95.9394 52.5293,113.0044 73.5043,113.0044 C94.4793,113.0044 111.5443,95.9394 111.5443,74.9634 C111.5443,53.9884 94.4793,36.9234 73.5043,36.9234 C65.4803,36.9234 57.6993,39.4524 51.2673,44.0984 L53.1563,43.9614 C53.2563,43.9554 53.3493,43.9514 53.4433,43.9514 C55.6263,43.9514 57.4563,45.6504 57.6113,47.8174 C57.6913,48.9264 57.3353,50.0004 56.6073,50.8414 C55.8793,51.6834 54.8673,52.1904 53.7573,52.2714 L40.4683,53.2314 C40.3713,53.2384 40.2693,53.2424 40.1683,53.2424 C40.1213,53.2424 40.0173,53.2334 39.9713,53.2274 C39.8863,53.2254 39.7553,53.2104 39.6213,53.1924 C39.4973,53.1764 39.3653,53.1574 39.2343,53.1284 C39.0933,53.0944 38.9663,53.0534 38.8393,53.0104 C38.7143,52.9684 38.5893,52.9234 38.4653,52.8694 C38.3393,52.8124 38.2233,52.7484 38.1093,52.6824 C37.9843,52.6104 37.8623,52.5364 37.7443,52.4524 C37.7313,52.4494 37.6733,52.4134 37.6173,52.3704 C37.5423,52.3104 37.4893,52.2604 37.4383,52.2084 C37.3543,52.1424 37.2923,52.0914 37.2343,52.0334 C37.1993,51.9984 37.1243,51.9094 37.0943,51.8684 C37.0173,51.7924 36.9113,51.6574 36.8103,51.5174 C36.7363,51.4174 36.6713,51.3274 36.6143,51.2314 C36.5273,51.0904 36.4513,50.9354 36.3803,50.7754 C36.3153,50.6364 36.2783,50.5524 36.2483,50.4644 C36.1893,50.3004 36.1463,50.1214 36.1093,49.9404 C36.0813,49.8334 36.0603,49.7464 36.0483,49.6574 C36.0133,49.4094 36.0043,49.1604 36.0123,48.9124 C36.0123,48.9054 36.0123,48.8814 36.0113,48.8574 L36.0103,48.8574 L36.0113,48.8374 L36.0113,48.7974 C36.0133,48.7814 36.0153,48.7644 36.0173,48.7464 L36.8733,34.9624 C37.0133,32.6764 38.9893,30.9014 41.2943,31.0644 C42.3993,31.1324 43.4163,31.6304 44.1523,32.4634 C44.8883,33.2974 45.2563,34.3684 45.1873,35.4794 L45.0063,38.3834 C53.1033,32.0544 63.1343,28.5924 73.5043,28.5924 C99.0733,28.5924 119.8753,49.3944 119.8753,74.9634 C119.8753,100.5324 99.0733,121.3344 73.5043,121.3344" id="Fill-190" fill="#5A7A8E"></path>
                    <path d="M128.2949,98.3311 C128.2949,93.5931 124.4539,89.7511 119.7149,89.7511 C114.9769,89.7511 111.1349,93.5931 111.1349,98.3311 L111.1349,119.9651 L94.1139,119.9651 C91.4349,119.9651 89.1269,121.5381 88.0489,123.8081 C87.8549,124.1651 87.6949,124.5491 87.5889,124.9601 L79.0419,157.5631 C78.3479,160.2551 79.9669,163.0011 82.6579,163.6951 C85.3509,164.3901 88.0959,162.7711 88.7909,160.0791 L95.7839,133.4011 L121.5759,133.4011 C125.2869,133.4011 128.2949,130.3941 128.2949,126.6831 C128.2949,126.3881 128.2699,126.1001 128.2329,125.8151 C128.2709,125.4891 128.2949,125.1581 128.2949,124.8221 L128.2949,98.3311 Z" id="Fill-192" fill="#FFFFFE"></path>
                    <path d="M94.1142,120.9648 C91.9232,120.9648 89.8962,122.2488 88.9522,124.2358 C88.7612,124.5898 88.6362,124.9018 88.5562,125.2108 L80.0102,157.8178 C79.7412,158.8568 79.8942,159.9428 80.4412,160.8698 C80.9892,161.7988 81.8652,162.4578 82.9082,162.7268 C83.2402,162.8128 83.5812,162.8568 83.9202,162.8568 C85.7582,162.8568 87.3622,161.6108 87.8232,159.8288 L94.8162,133.1478 C94.9322,132.7078 95.3292,132.4018 95.7842,132.4018 L121.5762,132.4018 C124.7292,132.4018 127.2952,129.8358 127.2952,126.6828 C127.2952,126.4308 127.2722,126.1848 127.2412,125.9418 C127.2312,125.8618 127.2302,125.7818 127.2402,125.7018 C127.2722,125.4128 127.2952,125.1198 127.2952,124.8218 L127.2952,98.3308 C127.2952,94.1518 123.8942,90.7508 119.7152,90.7508 C115.5352,90.7508 112.1352,94.1518 112.1352,98.3308 L112.1352,119.9648 C112.1352,120.5178 111.6872,120.9648 111.1352,120.9648 L94.1142,120.9648 Z M83.9202,164.8568 C83.4122,164.8568 82.9032,164.7908 82.4082,164.6638 C80.8472,164.2608 79.5382,163.2748 78.7182,161.8868 C77.9002,160.4978 77.6712,158.8738 78.0732,157.3138 L86.6212,124.7058 C86.7422,124.2418 86.9272,123.7778 87.1702,123.3298 C88.4192,120.6968 91.1542,118.9648 94.1142,118.9648 L110.1352,118.9648 L110.1352,98.3308 C110.1352,93.0478 114.4322,88.7508 119.7152,88.7508 C124.9972,88.7508 129.2952,93.0478 129.2952,98.3308 L129.2952,124.8218 C129.2952,125.1548 129.2732,125.4848 129.2402,125.8098 C129.2732,126.0958 129.2952,126.3858 129.2952,126.6828 C129.2952,130.9388 125.8322,134.4018 121.5762,134.4018 L96.5552,134.4018 L89.7592,160.3328 C89.0712,162.9938 86.6702,164.8568 83.9202,164.8568 Z" id="Fill-194" fill="#5A7A8E"></path>
                </g>
                <g id="Group-203" transform="translate(78.000000, 89.000000)">
                    <g id="Group-199">
                        <mask id="mask-2" fill="white">
                            <use xlink:href="#path-1"></use>
                        </mask>
                        <g id="Clip-198"></g>
                        <path d="M53.5791,12.0654 C53.5791,7.3274 49.7381,3.4854 44.9991,3.4854 C40.2611,3.4854 36.4191,7.3274 36.4191,12.0654 L36.4191,33.6994 L19.3981,33.6994 C16.7191,33.6994 14.4111,35.2724 13.3331,37.5424 C13.1391,37.8994 12.9791,38.2834 12.8731,38.6944 L4.3261,71.2974 C3.6321,73.9894 5.2511,76.7354 7.9421,77.4294 C10.6351,78.1244 13.3801,76.5054 14.0751,73.8134 L21.0681,47.1354 L46.8601,47.1354 C50.5711,47.1354 53.5791,44.1284 53.5791,40.4174 C53.5791,40.1224 53.5541,39.8344 53.5171,39.5494 C53.5551,39.2234 53.5791,38.8924 53.5791,38.5564 L53.5791,12.0654 Z" id="Fill-197" fill="#E98875" mask="url(#mask-2)"></path>
                    </g>
                    <g id="Group-202">
                        <mask id="mask-4" fill="white">
                            <use xlink:href="#path-3"></use>
                        </mask>
                        <g id="Clip-201"></g>
                        <path d="M53.5791,12.0654 C53.5791,8.4144 51.2941,5.3034 48.0791,4.0644 L48.0791,28.1434 C48.0791,28.4794 48.0551,28.8104 48.0171,29.1364 C48.0541,29.4204 48.0791,29.7094 48.0791,30.0034 C48.0791,33.7144 45.0711,36.7224 41.3601,36.7224 L15.5681,36.7224 L8.5751,63.4004 C8.1511,65.0394 6.9651,66.2714 5.4961,66.8344 L4.3261,71.2974 C3.6321,73.9894 5.2511,76.7354 7.9421,77.4294 C10.6351,78.1244 13.3801,76.5054 14.0751,73.8134 L21.0681,47.1354 L46.8601,47.1354 C50.5711,47.1354 53.5791,44.1284 53.5791,40.4174 C53.5791,40.1224 53.5541,39.8344 53.5171,39.5494 C53.5551,39.2234 53.5791,38.8924 53.5791,38.5564 L53.5791,12.0654 Z" id="Fill-200" fill="#E47460" mask="url(#mask-4)"></path>
                    </g>
                </g>
                <g id="Group-220" transform="translate(77.000000, 67.000000)">
                    <path d="M51.8008,10.7773 C51.8008,15.6323 47.8638,19.5703 43.0078,19.5703 C38.1528,19.5703 34.2158,15.6323 34.2158,10.7773 C34.2158,5.9213 38.1528,1.9843 43.0078,1.9843 C47.8638,1.9843 51.8008,5.9213 51.8008,10.7773" id="Fill-204" fill="#FFFFFE"></path>
                    <path d="M43.0078,2.9844 C38.7108,2.9844 35.2158,6.4804 35.2158,10.7774 C35.2158,15.0744 38.7108,18.5704 43.0078,18.5704 C47.3048,18.5704 50.8008,15.0744 50.8008,10.7774 C50.8008,6.4804 47.3048,2.9844 43.0078,2.9844 M43.0078,20.5704 C37.6088,20.5704 33.2158,16.1774 33.2158,10.7774 C33.2158,5.3774 37.6088,0.9844 43.0078,0.9844 C48.4068,0.9844 52.8008,5.3774 52.8008,10.7774 C52.8008,16.1774 48.4068,20.5704 43.0078,20.5704" id="Fill-206" fill="#5A7A8E"></path>
                    <path d="M52.1621,11.9443 C52.1621,16.1553 48.7481,19.5703 44.5361,19.5703 C40.3251,19.5703 36.9111,16.1553 36.9111,11.9443 C36.9111,7.7323 40.3251,4.3183 44.5361,4.3183 C48.7481,4.3183 52.1621,7.7323 52.1621,11.9443" id="Fill-208" fill="#E98875"></path>
                    <path d="M48.3008,5.3174 C48.9338,6.4284 49.2998,7.7124 49.2998,9.0824 C49.2998,13.2934 45.8858,16.7084 41.6738,16.7084 C40.3038,16.7084 39.0218,16.3414 37.9098,15.7094 C39.2228,18.0124 41.6958,19.5704 44.5358,19.5704 C48.7478,19.5704 52.1618,16.1554 52.1618,11.9444 C52.1618,9.1024 50.6058,6.6294 48.3008,5.3174" id="Fill-210" fill="#E47460"></path>
                    <path d="M43.0078,2.9844 C38.7108,2.9844 35.2158,6.4804 35.2158,10.7774 C35.2158,15.0744 38.7108,18.5704 43.0078,18.5704 C47.3048,18.5704 50.8008,15.0744 50.8008,10.7774 C50.8008,6.4804 47.3048,2.9844 43.0078,2.9844 M43.0078,20.5704 C37.6088,20.5704 33.2158,16.1774 33.2158,10.7774 C33.2158,5.3774 37.6088,0.9844 43.0078,0.9844 C48.4068,0.9844 52.8008,5.3774 52.8008,10.7774 C52.8008,16.1774 48.4068,20.5704 43.0078,20.5704" id="Fill-212" fill="#5A7A8E"></path>
                    <path d="M17.1142,53.9648 C14.9232,53.9648 12.8962,55.2488 11.9522,57.2358 C11.7612,57.5898 11.6362,57.9018 11.5562,58.2108 L3.0102,90.8178 C2.7412,91.8568 2.8942,92.9428 3.4412,93.8698 C3.9892,94.7988 4.8652,95.4578 5.9082,95.7268 C6.2402,95.8128 6.5812,95.8568 6.9202,95.8568 C8.7582,95.8568 10.3622,94.6108 10.8232,92.8288 L17.8162,66.1478 C17.9322,65.7078 18.3292,65.4018 18.7842,65.4018 L44.5762,65.4018 C47.7292,65.4018 50.2952,62.8358 50.2952,59.6828 C50.2952,59.4308 50.2722,59.1848 50.2412,58.9418 C50.2312,58.8618 50.2302,58.7818 50.2402,58.7018 C50.2722,58.4128 50.2952,58.1198 50.2952,57.8218 L50.2952,31.3308 C50.2952,27.1518 46.8942,23.7508 42.7152,23.7508 C38.5352,23.7508 35.1352,27.1518 35.1352,31.3308 L35.1352,52.9648 C35.1352,53.5178 34.6872,53.9648 34.1352,53.9648 L17.1142,53.9648 Z M6.9202,97.8568 C6.4122,97.8568 5.9032,97.7908 5.4082,97.6638 C3.8472,97.2608 2.5382,96.2748 1.7182,94.8868 C0.9002,93.4978 0.6712,91.8738 1.0732,90.3138 L9.6212,57.7058 C9.7422,57.2418 9.9272,56.7778 10.1702,56.3298 C11.4192,53.6968 14.1542,51.9648 17.1142,51.9648 L33.1352,51.9648 L33.1352,31.3308 C33.1352,26.0478 37.4322,21.7508 42.7152,21.7508 C47.9972,21.7508 52.2952,26.0478 52.2952,31.3308 L52.2952,57.8218 C52.2952,58.1548 52.2732,58.4848 52.2402,58.8098 C52.2732,59.0958 52.2952,59.3858 52.2952,59.6828 C52.2952,63.9388 48.8322,67.4018 44.5762,67.4018 L19.5552,67.4018 L12.7592,93.3328 C12.0712,95.9938 9.6702,97.8568 6.9202,97.8568 Z" id="Fill-214" fill="#5A7A8E"></path>
                    <path d="M62.4843,29.9131 C59.7923,29.2191 57.0473,30.8381 56.3513,33.5291 L49.0823,61.2601 L21.6623,61.2601 C18.5783,61.2601 16.0783,63.7591 16.0783,66.8431 C16.0783,69.9271 18.5783,72.4261 21.6623,72.4261 L51.7263,72.4261 C51.8993,72.4261 52.0683,72.4161 52.2373,72.4001 C54.6473,72.6151 56.9273,71.0691 57.5533,68.6491 L66.1003,36.0451 C66.7953,33.3531 65.1753,30.6071 62.4843,29.9131" id="Fill-216" fill="#FFFFFE"></path>
                    <path d="M21.6621,62.2598 C19.1351,62.2598 17.0781,64.3158 17.0781,66.8428 C17.0781,69.3698 19.1351,71.4258 21.6621,71.4258 L51.7261,71.4258 C51.8681,71.4258 52.0071,71.4168 52.1451,71.4048 C52.2061,71.3988 52.2671,71.3988 52.3261,71.4048 C54.3001,71.5878 56.0961,70.2928 56.5861,68.3998 L65.1331,35.7918 C65.4011,34.7518 65.2481,33.6668 64.7011,32.7388 C64.1531,31.8098 63.2771,31.1508 62.2341,30.8818 C61.9021,30.7958 61.5621,30.7528 61.2241,30.7528 C59.3861,30.7528 57.7801,31.9968 57.3191,33.7798 L50.0501,61.5138 C49.9331,61.9528 49.5371,62.2598 49.0821,62.2598 L21.6621,62.2598 Z M51.7261,73.4258 L21.6621,73.4258 C18.0311,73.4258 15.0781,70.4728 15.0781,66.8428 C15.0781,63.2128 18.0311,60.2598 21.6621,60.2598 L48.3101,60.2598 L55.3841,33.2758 C56.0721,30.6138 58.4741,28.7528 61.2241,28.7528 C61.7301,28.7528 62.2391,28.8168 62.7341,28.9448 C65.9551,29.7758 67.9001,33.0728 67.0691,36.2948 L58.5211,68.9038 C57.8331,71.5618 55.4331,73.4198 52.6831,73.4198 C52.5361,73.4198 52.3891,73.4148 52.2401,73.4048 C52.0701,73.4178 51.9001,73.4258 51.7261,73.4258 Z" id="Fill-218" fill="#5A7A8E"></path>
                </g>
                <g id="Group-227" transform="translate(93.000000, 96.000000)">
                    <g id="Group-223">
                        <mask id="mask-6" fill="white">
                            <use xlink:href="#path-5"></use>
                        </mask>
                        <g id="Clip-222"></g>
                        <path d="M49.6513,4.0605 C46.9593,3.3665 44.2143,4.9855 43.5183,7.6765 L36.2493,35.4075 L8.8293,35.4075 C5.7453,35.4075 3.2453,37.9065 3.2453,40.9905 C3.2453,44.0745 5.7453,46.5735 8.8293,46.5735 L38.8933,46.5735 C39.0663,46.5735 39.2353,46.5635 39.4043,46.5475 C41.8143,46.7625 44.0943,45.2165 44.7203,42.7965 L53.2673,10.1925 C53.9623,7.5005 52.3423,4.7545 49.6513,4.0605" id="Fill-221" fill="#E98875" mask="url(#mask-6)"></path>
                    </g>
                    <g id="Group-226">
                        <mask id="mask-8" fill="white">
                            <use xlink:href="#path-7"></use>
                        </mask>
                        <g id="Clip-225"></g>
                        <path d="M49.6513,4.0605 C49.0263,3.8995 48.4003,3.8745 47.7963,3.9475 L39.3863,36.0275 C38.7603,38.4475 36.4803,39.9935 34.0703,39.7785 C33.9013,39.7935 33.7323,39.8035 33.5593,39.8035 L3.4953,39.8035 C3.4553,39.8035 3.4163,39.7985 3.3763,39.7975 C3.2923,40.1825 3.2453,40.5805 3.2453,40.9905 C3.2453,44.0745 5.7453,46.5735 8.8293,46.5735 L38.8933,46.5735 C39.0663,46.5735 39.2353,46.5635 39.4043,46.5475 C41.8143,46.7625 44.0943,45.2165 44.7203,42.7965 L53.2673,10.1925 C53.9623,7.5005 52.3423,4.7545 49.6513,4.0605" id="Fill-224" fill="#E47460" mask="url(#mask-8)"></path>
                    </g>
                </g>
                <path d="M98.6621,129.2598 C96.1351,129.2598 94.0781,131.3158 94.0781,133.8428 C94.0781,136.3698 96.1351,138.4258 98.6621,138.4258 L128.7261,138.4258 C128.8681,138.4258 129.0071,138.4168 129.1451,138.4048 C129.2061,138.3988 129.2671,138.3988 129.3261,138.4048 C131.3001,138.5878 133.0961,137.2928 133.5861,135.3998 L142.1331,102.7918 C142.4011,101.7518 142.2481,100.6668 141.7011,99.7388 C141.1531,98.8098 140.2771,98.1508 139.2341,97.8818 C138.9021,97.7958 138.5621,97.7528 138.2241,97.7528 C136.3861,97.7528 134.7801,98.9968 134.3191,100.7798 L127.0501,128.5138 C126.9331,128.9528 126.5371,129.2598 126.0821,129.2598 L98.6621,129.2598 Z M128.7261,140.4258 L98.6621,140.4258 C95.0311,140.4258 92.0781,137.4728 92.0781,133.8428 C92.0781,130.2128 95.0311,127.2598 98.6621,127.2598 L125.3101,127.2598 L132.3841,100.2758 C133.0721,97.6138 135.4741,95.7528 138.2241,95.7528 C138.7301,95.7528 139.2391,95.8168 139.7341,95.9448 C142.9551,96.7758 144.9001,100.0728 144.0691,103.2948 L135.5211,135.9038 C134.8331,138.5618 132.4331,140.4198 129.6831,140.4198 C129.5361,140.4198 129.3891,140.4148 129.2401,140.4048 C129.0701,140.4178 128.9001,140.4258 128.7261,140.4258 Z" id="Fill-228" fill="#5A7A8E"></path>
            </g>
        </g>
    </g>
</svg>