<?xml version="1.0" encoding="UTF-8"?>
<svg width="63px" height="61px" viewBox="0 0 63 61" version="1.1" xmlns="http://www.w3.org/2000/svg" xmlns:xlink="http://www.w3.org/1999/xlink">
    <!-- Generator: sketchtool 51.1 (57501) - http://www.bohemiancoding.com/sketch -->
    <title>F0E90289-019A-4CB1-BA95-999925CBDD28</title>
    <desc>Created with sketchtool.</desc>
    <defs>
        <path d="M0.0543742901,1.00495362 C0.254887158,0.768932435 0.474626391,0.549934837 0.71115561,0.350415627 L7.83664421,0.350415627 C9.05041898,1.37444666 9.82211359,2.91158693 9.82211359,4.62994064 C9.82211359,7.71385827 7.33850931,10.2121242 4.27440092,10.2121242 C2.58483582,10.2121242 1.07200027,9.45313287 0.0543742901,8.25542641 L0.0543742901,1.00495362 Z" id="path-1"></path>
        <path d="M7.67656289,0.181751181 C8.51034161,1.15849409 9.01417466,2.42864063 9.01417466,3.81709994 C9.01417466,6.90101757 6.53057038,9.39928346 3.46646198,9.39928346 C2.16063887,9.39928346 0.96038271,8.94591048 0.0127250382,8.18702523 L0.0127250382,0.181751181 L7.67656289,0.181751181 Z" id="path-3"></path>
        <path d="M19.2366579,0.324019077 C19.29693,0.531439916 19.3292421,0.750758462 19.3292421,0.977625681 L19.3292421,15.9968528 L19.3292421,17.0038475 L19.3292421,44.6159394 C19.3292421,45.9065663 18.2821996,46.9533901 16.9909008,46.9533901 L15.4963904,46.9533901 C14.2046892,46.9533901 13.1576467,45.9065663 13.1576467,44.6159394 L13.1576467,19.3425051 L11.7770153,19.3425051 L11.7770153,38.0304436 C11.7770153,39.3222774 10.7307775,40.368699 9.43907634,40.368699 L7.94416358,40.368699 C6.65286478,40.368699 5.60582225,39.3222774 5.60582225,38.0304436 L5.60582225,17.0038475 L5.60582225,15.9968528 L5.60582225,4.07947507 C4.87506543,4.48500868 3.69,7.85399529 3.4135518,10.0055764 C2.94395202,13.6594021 2.84536423,17.7996268 2.92584406,19.8293064 C3.00793348,21.8585838 3.16969793,24.5380023 1.62730207,24.5380023 C1.00571185,24.5380023 0.502746429,24.2744322 0.113093868,23.7686667 L0.113093868,6.3836528 C0.333508461,5.61561533 0.59287006,4.84516237 0.897350055,4.07947507 C1.58945666,2.33675577 2.5585193,1.14135574 3.59968105,0.324019077 L19.2366579,0.324019077 Z" id="path-5"></path>
        <path d="M5.16734351,0.376768087 C5.21818261,0.568499541 5.24527263,0.769898259 5.24527263,0.977625681 L5.24527263,15.9968528 L5.24527263,17.0038475 L5.24527263,44.6159394 C5.24527263,45.9065663 4.1982301,46.9533901 2.9069313,46.9533901 L1.41242094,46.9533901 C0.989810946,46.9533901 0.593389778,46.8413357 0.251258015,46.6453497 L0.251258015,0.376768087 L5.16734351,0.376768087 Z" id="path-7"></path>
        <path d="M7.28530519,0.0558766404 C7.424332,0.453751342 7.55044561,0.851576377 7.62540458,1.17236877 C7.87001366,2.22185696 10.9187176,8.42352362 9.20159421,9.06914698 C7.48649578,9.71557087 3.80885496,9.79682415 2.25493933,9.79682415 C1.50107422,9.79682415 0.727618205,9.91111073 0.13149763,10.2323656 L0.13149763,13.6832066 C1.15358995,14.2382567 2.87293244,14.4488043 5.1161366,14.4010433 C8.87558377,14.31979 10.2642668,13.8354724 13.3692632,12.6234777 C16.4750695,11.4118832 14.6769498,7.0502231 13.3692632,2.68896325 C13.0246943,1.53968768 12.5099569,0.687599076 11.9072451,0.0558766404 L7.28530519,0.0558766404 Z" id="path-9"></path>
        <path d="M7.52267225,0.386733596 C7.56266676,0.523188064 7.59756397,0.652960369 7.62540458,0.772106299 C7.87001366,1.82159449 10.9187176,8.02326115 9.20159421,8.66888451 C7.48649578,9.3153084 3.80885496,9.39656168 2.25493933,9.39656168 C1.50090349,9.39656168 0.727267875,9.51090004 0.131092648,9.83232138 L0.131092648,13.2827241 C1.15313575,13.8379386 2.87263614,14.0485481 5.1161366,14.0007808 C8.87558377,13.9195276 10.2642668,13.43521 13.3692632,12.2232152 C16.4750695,11.0116207 14.6769498,6.64996063 13.3692632,2.28870079 C13.1429103,1.53372322 12.8431232,0.906993331 12.4932026,0.386733596 L7.52267225,0.386733596 Z" id="path-11"></path>
        <polygon id="path-13" points="0 35.9550482 0 0.303775016 40.1376606 0.303775016 40.1376606 35.9550482"></polygon>
    </defs>
    <g id="Page-1" stroke="none" stroke-width="1" fill="none" fill-rule="evenodd">
        <g id="Web-_Activ-Assure_cross-sell" transform="translate(-160.000000, -1623.000000)">
            <g id="Group-39" transform="translate(146.000000, 1614.000000)">
                <g id="Group-38">
                    <g id="Page-1" transform="translate(14.000000, 9.000000)">
                        <g id="Group-11" transform="translate(5.290076, 0.000000)">
                            <path d="M57.6328168,31.1346125 C57.6328168,46.9671232 44.7991718,59.8009036 28.9682176,59.8009036 C13.1372634,59.8009036 0.303217557,46.9671232 0.303217557,31.1346125 C0.303217557,15.3025026 13.1372634,2.46832141 28.9682176,2.46832141 C44.7991718,2.46832141 57.6328168,15.3025026 57.6328168,31.1346125" id="Fill-1" fill="#F9E0DB"></path>
                            <path d="M33.9302691,20.274856 C33.4253073,20.2532132 32.9984943,20.6467915 32.9768531,21.1525918 L31.798208,49.0265159 C31.7841813,49.3643841 31.9569103,49.664177 32.2222156,49.834113 L31.8130363,59.5244769 C31.8018149,59.777377 31.9973874,59.9909995 32.2522729,60.0006185 C32.5039523,60.0118407 32.7171584,59.8150515 32.7287805,59.5625522 L33.1379599,49.8733907 C33.4176927,49.7262998 33.6152691,49.4421378 33.628895,49.1034681 L34.8079408,21.229544 C34.8295821,20.7241445 34.436834,20.296098 33.9302691,20.274856" id="Fill-3" fill="#FEFEFE"></path>
                            <path d="M33.9126355,20.6752478 C33.6140668,20.6752478 33.3888378,20.8924774 33.3772156,21.1698259 L32.1985706,49.0433492 C32.1909561,49.2261106 32.2807271,49.3952451 32.4382271,49.4966456 C32.5584561,49.5735978 32.6285897,49.7082641 32.6225782,49.8509463 L32.2133989,59.5413102 C32.2125973,59.5613498 32.2206126,59.5749768 32.2278263,59.582191 C32.2382462,59.593814 32.2514714,59.5994251 32.2675019,59.6002267 L32.2719103,60.0010193 L32.2719103,59.6002267 C32.3015668,59.6002267 32.3268149,59.5753776 32.3284179,59.5437149 L32.7375973,49.8565574 C32.7436088,49.7134744 32.8253645,49.58482 32.9520057,49.5182884 C33.1179218,49.4313164 33.2209179,49.2701978 33.2285324,49.0874364 L34.4075782,21.2127107 C34.4135897,21.0748381 34.3654981,20.9433781 34.2717195,20.8419775 C34.1787424,20.7401762 34.0512996,20.6812597 33.913437,20.6752478 L33.9126355,20.6752478 Z M32.2719103,60.4018119 C32.2662996,60.4018119 32.24025,60.4014111 32.2346393,60.4010103 C32.006605,60.3925937 31.7942004,60.2948003 31.6383034,60.1256658 C31.4828073,59.9569321 31.4022538,59.736897 31.4126737,59.5072428 L31.813437,50.0212832 C31.5369103,49.7615696 31.3818149,49.3920388 31.3978454,49.0096826 L32.5764905,21.1357585 C32.6065477,20.4279588 33.1840477,19.8732618 33.8905935,19.8732618 C33.896605,19.8732618 33.9414905,19.8740634 33.9475019,19.8744642 C34.2989714,19.8888927 34.6235897,20.0399915 34.8620439,20.2997051 C35.1004981,20.5586172 35.2235324,20.895283 35.2083034,21.2467781 L34.0292576,49.1203014 C34.0140286,49.5030583 33.8276737,49.8585614 33.5299065,50.0942274 L33.1291431,59.5793855 C33.1075019,60.0414994 32.7311851,60.4018119 32.2719103,60.4018119 Z" id="Fill-5" fill="#5D98C1"></path>
                            <path d="M47.4161164,6.16883963 C47.4161164,9.210054 44.9522233,11.6737262 41.9120324,11.6737262 C38.8714408,11.6737262 36.4071469,9.210054 36.4071469,6.16883963 C36.4071469,3.12882764 38.8714408,0.664353841 41.9120324,0.664353841 C44.9522233,0.664353841 47.4161164,3.12882764 47.4161164,6.16883963" id="Fill-7" fill="#FEFEFE"></path>
                            <path d="M41.9118721,1.06498614 C39.0977118,1.06498614 36.8081508,3.35471436 36.8081508,6.16867931 C36.8081508,8.98344586 39.0977118,11.2731741 41.9118721,11.2731741 C44.7256317,11.2731741 47.0151927,8.98344586 47.0151927,6.16867931 C47.0151927,3.35471436 44.7256317,1.06498614 41.9118721,1.06498614 M41.9118721,12.0747593 C38.6556698,12.0747593 36.006624,9.42511932 36.006624,6.16867931 C36.006624,2.91223931 38.6556698,0.263400907 41.9118721,0.263400907 C45.1680744,0.263400907 47.8167195,2.91223931 47.8167195,6.16867931 C47.8167195,9.42511932 45.1680744,12.0747593 41.9118721,12.0747593" id="Fill-9" fill="#5D98C1"></path>
                        </g>
                        <g id="Group-18" transform="translate(42.801527, 1.921260)">
                            <g id="Group-14">
                                <mask id="mask-2" fill="white">
                                    <use xlink:href="#path-1"></use>
                                </mask>
                                <g id="Clip-13"></g>
                                <path d="M10.0550424,5.38149316 C10.0550424,8.15978268 7.81664757,10.4117578 5.05511231,10.4117578 C2.2927691,10.4117578 0.0543742901,8.15978268 0.0543742901,5.38149316 C0.0543742901,2.60320363 2.2927691,0.350415627 5.05511231,0.350415627 C7.81664757,0.350415627 10.0550424,2.60320363 10.0550424,5.38149316" id="Fill-12" fill="#F58F7B" mask="url(#mask-2)"></path>
                            </g>
                            <g id="Group-17" transform="translate(0.807939, 0.812841)">
                                <mask id="mask-4" fill="white">
                                    <use xlink:href="#path-3"></use>
                                </mask>
                                <g id="Clip-16"></g>
                                <path d="M6.68993634,0.181751181 C7.17267985,0.95557553 7.45626641,1.86798922 7.45626641,2.84908795 C7.45626641,5.62737747 5.2178716,7.87935263 2.45674031,7.87935263 C1.56800748,7.87935263 0.735426412,7.64362883 0.0127250382,7.23517638 C0.89620626,8.6535834 2.45997206,9.59891714 4.24713298,9.59891714 C7.00866824,9.59891714 9.24706305,7.34694197 9.24706305,4.56865245 C9.24706305,2.68326844 8.21492107,1.04336233 6.68993634,0.181751181" id="Fill-15" fill="#F37D6C" mask="url(#mask-4)"></path>
                            </g>
                        </g>
                        <g id="Group-23" transform="translate(33.183206, 11.527559)">
                            <path d="M18.5247252,0.650824038 L11.1490763,0.650824038 C11.1490763,0.650824038 10.4781985,0.555096876 9.49232061,0.652432898 C9.30837023,0.654041758 9.13003053,0.678979086 8.95850382,0.720809442 C6.94025954,1.04137477 4.0335229,2.20538489 2.49659542,6.08917261 C-0.010980916,12.419634 0.55409542,19.0758895 0.71640458,21.997579 C0.878312977,24.9188663 1.68665267,26.5426081 3.22358015,26.5426081 C4.75970611,26.5426081 4.59859924,23.8642586 4.51724427,21.8354864 C4.43669084,19.8063118 4.53487786,15.6671176 5.0025687,12.0142013 C5.27789313,9.86315564 6.45854198,6.49460529 7.18632824,6.08917261 L7.18632824,18.0039866 L7.18632824,19.0107306 L7.18632824,40.0320937 C7.18632824,41.3236059 8.2291145,42.3701693 9.51516412,42.3701693 L11.0035992,42.3701693 C12.2900496,42.3701693 13.3324351,41.3236059 13.3324351,40.0320937 L13.3324351,21.3488062 L14.7074542,21.3488062 L14.7074542,46.6155483 C14.7074542,47.9062561 15.7498397,48.9528194 17.0362901,48.9528194 L18.5247252,48.9528194 C19.8111756,48.9528194 20.8539618,47.9062561 20.8539618,46.6155483 L20.8539618,19.0107306 L20.8539618,18.0039866 L20.8539618,2.98849743 C20.8539618,1.69738738 19.8111756,0.650824038 18.5247252,0.650824038" id="Fill-19" fill="#FEFEFE"></path>
                            <path d="M13.3324351,20.9465913 L14.7074542,20.9465913 C14.9286756,20.9465913 15.1082176,21.1263814 15.1082176,21.3488062 L15.1082176,46.6155483 C15.1082176,47.6826246 15.9730649,48.5506045 17.0362901,48.5506045 L18.5247252,48.5506045 C19.5879504,48.5506045 20.4531985,47.6826246 20.4531985,46.6155483 L20.4531985,2.98849743 C20.4531985,1.9210189 19.5879504,1.05303901 18.5247252,1.05303901 L11.1490763,1.05303901 C11.1306412,1.05303901 11.1114046,1.05183236 11.0929695,1.04901686 C11.0901641,1.04861464 10.8148397,1.01120865 10.3679885,1.01120865 C10.0934656,1.01120865 9.81212977,1.02528617 9.53159542,1.05263679 C9.3524542,1.05585451 9.20337023,1.07516083 9.05268321,1.11176239 C7.01239695,1.43675208 4.31485878,2.58427138 2.86930534,6.23799215 C0.535259542,12.1288326 0.907167939,18.4218879 1.0859084,21.44574 L1.11676718,21.9754572 C1.26945802,24.7390762 1.9784084,26.1403931 3.22358015,26.1403931 C3.41474427,26.1403931 3.55941985,26.082072 3.68004962,25.9557765 C4.2599542,25.3492363 4.18180534,23.4431396 4.12489695,22.0514758 L4.11688168,21.851575 C4.04274046,19.9877108 4.11167176,15.8163394 4.60501145,11.9627178 C4.87191985,9.8808531 6.04695802,6.2637339 6.99195802,5.73763673 C7.11619466,5.66845575 7.26688168,5.67006461 7.38991603,5.74286552 C7.51214885,5.81526421 7.5870916,5.94678851 7.5870916,6.08957482 L7.5870916,40.0320937 C7.5870916,41.09917 8.45193893,41.9679543 9.51516412,41.9679543 L11.0035992,41.9679543 C12.0668244,41.9679543 12.9316718,41.09917 12.9316718,40.0320937 L12.9316718,21.3488062 C12.9316718,21.1263814 13.110813,20.9465913 13.3324351,20.9465913 M18.5247252,49.3550344 L17.0362901,49.3550344 C15.5310229,49.3550344 14.3066908,48.1258655 14.3066908,46.6155483 L14.3066908,21.7510212 L13.7331985,21.7510212 L13.7331985,40.0320937 C13.7331985,41.5432153 12.5084656,42.7723842 11.0035992,42.7723842 L9.51516412,42.7723842 C8.01029771,42.7723842 6.78556489,41.5432153 6.78556489,40.0320937 L6.78556489,7.35775861 C6.25295038,8.48275388 5.61012595,10.42505 5.40012595,12.0656848 C4.91279771,15.869834 4.84466794,19.9828842 4.91760687,21.8193978 L4.92562214,22.0180919 C4.99575573,23.7246901 5.07510687,25.6589418 4.25795038,26.5128442 C3.98422901,26.7996235 3.63636641,26.9448231 3.22358015,26.9448231 C1.47545038,26.9448231 0.497587786,25.2880996 0.316442748,22.020103 L0.285984733,21.4932014 C0.103637405,18.4114303 -0.275083969,11.9977105 2.1238855,5.94075528 C3.70930534,1.93509643 6.68136641,0.675359151 8.89598473,0.32382327 C9.07432443,0.278775194 9.28472519,0.251826791 9.48871374,0.250217931 C9.75962977,0.222062883 10.067416,0.206778715 10.3679885,0.206778715 C10.7923969,0.206778715 11.0829504,0.237347052 11.1747252,0.248609071 L18.5247252,0.248609071 C20.0299924,0.248609071 21.2547252,1.47777801 21.2547252,2.98849743 L21.2547252,46.6155483 C21.2547252,48.1258655 20.0299924,49.3550344 18.5247252,49.3550344" id="Fill-21" fill="#5D98C1"></path>
                        </g>
                        <g id="Group-36" transform="translate(35.106870, 13.448819)">
                            <g id="Group-26">
                                <mask id="mask-6" fill="white">
                                    <use xlink:href="#path-5"></use>
                                </mask>
                                <g id="Clip-25"></g>
                                <path d="M18.1645381,0.365744653 L10.7587845,0.365744653 C10.7587845,0.365744653 10.0855708,0.270798291 9.09566892,0.367353913 C8.91096772,0.368963174 8.73149771,0.393504395 8.55886848,0.43655211 C6.53319128,0.756392611 3.6145904,1.92029018 2.07098735,5.80544706 C-0.446823991,12.138289 0.120558779,18.7953969 0.283530425,21.7174114 C0.446099673,24.6402306 1.25814111,26.2639743 2.80134177,26.2639743 C4.34333522,26.2639743 4.18197317,23.5845557 4.10028615,21.5556807 C4.01900153,19.5260011 4.11799171,15.3857764 4.58759149,11.7319507 C4.8636373,9.57996728 6.04950752,6.21138299 6.77945954,5.80544706 L6.77945954,17.7236294 L6.77945954,18.7298195 L6.77945954,39.7568179 C6.77945954,41.0486517 7.82730687,42.0950733 9.11820327,42.0950733 L10.6127136,42.0950733 C11.9044148,42.0950733 12.951055,41.0486517 12.951055,39.7568179 L12.951055,21.0684771 L14.3316864,21.0684771 L14.3316864,46.3415091 C14.3316864,47.6325382 15.3787289,48.6801668 16.6696253,48.6801668 L18.1645381,48.6801668 C19.4566417,48.6801668 20.5028794,47.6325382 20.5028794,46.3415091 L20.5028794,18.7298195 L20.5028794,17.7236294 L20.5028794,2.70399999 C20.5028794,1.41297085 19.4566417,0.365744653 18.1645381,0.365744653" id="Fill-24" fill="#F58F7B" mask="url(#mask-6)"></path>
                            </g>
                            <path d="M4.54900142,12.0494176 L5.60610393,3.73356455 C3.66171134,3.49941716 2.63358157,7.29123693 2.35713337,9.44281806 C1.88713119,13.0970461 1.7885434,17.237673 1.86942563,19.2665481 C1.95071025,21.2797328 2.10885311,23.92938 0.605087568,23.9716231 C0.995817121,25.4605913 1.71772116,26.2640145 2.80138201,26.2640145 C4.34337546,26.2640145 4.18201341,23.584596 4.10032639,21.555721 C4.02105376,19.584377 4.11320316,15.6231826 4.54900142,12.0494176" id="Fill-27" fill="#F37D6C"></path>
                            <path d="M12.1010673,18.7795456 L10.7208383,18.7795456 L10.7208383,37.4678864 C10.7208383,38.7601225 9.67419815,39.8065441 8.38249695,39.8065441 L6.88758419,39.8065441 C6.85177067,39.8065441 6.81877394,39.7976932 6.78336281,39.7956816 C6.80468997,41.0694112 7.84046532,42.0949123 9.11808255,42.0949123 L10.6129953,42.0949123 C11.1819877,42.0949123 11.6958514,41.8845016 12.1010673,41.5469592 L12.1010673,18.7795456 Z" id="Fill-29" fill="#F37D6C"></path>
                            <path d="M5.60606369,30.7075445 L5.60606369,29.3042695 L11.9599459,30.7075445 L11.8255446,38.4782606 C11.8255446,38.4782606 11.0887518,40.4970777 9.13470164,40.3691415 C7.17984667,40.240803 5.61934286,39.7548064 5.61290447,38.1636502 C5.60606369,36.5728963 5.60606369,30.7075445 5.60606369,30.7075445" id="Fill-31" fill="#FEFEFE"></path>
                            <g id="Group-35" transform="translate(14.083969, 0.000000)">
                                <mask id="mask-8" fill="white">
                                    <use xlink:href="#path-7"></use>
                                </mask>
                                <g id="Clip-34"></g>
                                <path d="M4.18430709,0.376768087 C4.18470949,0.389239855 4.18873348,0.401711623 4.18873348,0.415390336 L4.18873348,15.4346175 L4.18873348,16.4416122 L4.18873348,44.0533018 C4.18873348,45.3439286 3.14209335,46.3911548 1.84998975,46.3911548 L0.35507699,46.3911548 C0.319665867,46.3911548 0.286669138,46.3827062 0.251258015,46.3810969 C0.272585169,47.6536196 1.30795812,48.6799254 2.58557535,48.6799254 L4.08048811,48.6799254 C5.37259171,48.6799254 6.41882944,47.6326992 6.41882944,46.34167 L6.41882944,18.7299804 L6.41882944,17.723388 L6.41882944,2.70416091 C6.41882944,1.44813319 5.42691559,0.431885255 4.18430709,0.376768087" id="Fill-33" fill="#F37D6C" mask="url(#mask-8)"></path>
                            </g>
                        </g>
                        <g id="Group-43" transform="translate(33.183206, 11.527559)">
                            <path d="M13.4108612,20.9465913 L14.7939686,20.9465913 C15.0164913,20.9465913 15.1970894,21.1263814 15.1970894,21.3488062 L15.1970894,46.6155483 C15.1970894,47.6826246 16.0670241,48.5506045 17.1365035,48.5506045 L18.6336942,48.5506045 C19.7031736,48.5506045 20.5735114,47.6826246 20.5735114,46.6155483 L20.5735114,2.98849743 C20.5735114,1.9210189 19.7031736,1.05303901 18.6336942,1.05303901 L11.2146591,1.05303901 C11.1961156,1.05303901 11.1767658,1.05183236 11.1582222,1.04901686 C11.1554004,1.04861464 10.8784564,1.01120865 10.4289767,1.01120865 C10.152839,1.01120865 9.86984818,1.02528617 9.58766363,1.05263679 C9.40746863,1.05585451 9.2575077,1.07516083 9.10593428,1.11176239 C7.05364634,1.43675208 4.3402403,2.58427138 2.88618361,6.23799215 C0.538408128,12.1288326 0.912504221,18.4218879 1.09229609,21.44574 L1.12333639,21.9754572 C1.27692542,24.7390762 1.99004609,26.1403931 3.24254239,26.1403931 C3.43483101,26.1403931 3.58035761,26.082072 3.70169697,25.9557765 C4.28501275,25.3492363 4.2064042,23.4431396 4.14916105,22.0514758 L4.14109863,21.851575 C4.06652128,19.9877108 4.13585806,15.8163394 4.63209975,11.9627178 C4.9005782,9.8808531 6.08252836,6.2637339 7.03308718,5.73763673 C7.15805463,5.66845575 7.30962804,5.67006461 7.43338612,5.74286552 C7.55633797,5.81526421 7.63172155,5.94678851 7.63172155,6.08957482 L7.63172155,40.0320937 C7.63172155,41.09917 8.50165622,41.9679543 9.57113568,41.9679543 L11.0683263,41.9679543 C12.1378057,41.9679543 13.0077404,41.09917 13.0077404,40.0320937 L13.0077404,21.3488062 C13.0077404,21.1263814 13.1879354,20.9465913 13.4108612,20.9465913 M18.6336942,49.3550344 L17.1365035,49.3550344 C15.6223819,49.3550344 14.3908478,48.1258655 14.3908478,46.6155483 L14.3908478,21.7510212 L13.813982,21.7510212 L13.813982,40.0320937 C13.813982,41.5432153 12.5820449,42.7723842 11.0683263,42.7723842 L9.57113568,42.7723842 C8.05741711,42.7723842 6.82547997,41.5432153 6.82547997,40.0320937 L6.82547997,7.35775861 C6.28973244,8.48275388 5.6431267,10.42505 5.4318914,12.0656848 C4.94169652,15.869834 4.87316599,19.9828842 4.94653397,21.8193978 L4.95459639,22.0180919 C5.02514252,23.7246901 5.10496044,25.6589418 4.28299715,26.5128442 C4.00766565,26.7996235 3.6577568,26.9448231 3.24254239,26.9448231 C1.4841295,26.9448231 0.500514773,25.2880996 0.318304176,22.020103 L0.287666996,21.4932014 C0.104247036,18.4114303 -0.27670211,11.9977105 2.13637894,5.94075528 C3.73112479,1.93509643 6.72066857,0.675359151 8.94831405,0.32382327 C9.12770281,0.278775194 9.33934122,0.251826791 9.5445297,0.250217931 C9.81703936,0.222062883 10.1266361,0.206778715 10.4289767,0.206778715 C10.8558816,0.206778715 11.1481442,0.237347052 11.2404589,0.248609071 L18.6336942,0.248609071 C20.1478159,0.248609071 21.379753,1.47777801 21.379753,2.98849743 L21.379753,46.6155483 C21.379753,48.1258655 20.1478159,49.3550344 18.6336942,49.3550344" id="Fill-37" fill="#5D98C1"></path>
                            <path d="M18.2467385,0.650824038 C19.9551644,0.650824038 23.6969316,0.732071461 24.9982055,5.11541017 C26.3002857,9.49794445 28.090142,13.8812832 24.9982055,15.0983857 C21.9078815,16.3158904 20.5251772,16.8029727 16.7830069,16.8842201 C13.0408366,16.9654675 10.7632042,16.3158904 10.7632042,14.5304581 C10.7632042,12.7446237 12.3901997,12.2575413 13.9353617,12.2575413 C15.481733,12.2575413 19.1424729,12.1762939 20.8496895,11.5267167 C22.5589216,10.877944 19.5246314,4.64642752 19.2807433,3.59141766 C19.0364521,2.53600559 18.2467385,0.650824038 18.2467385,0.650824038" id="Fill-39" fill="#FEFEFE"></path>
                            <path d="M18.847066,1.05935378 C19.1042571,1.70933317 19.5065716,2.77922498 19.6738667,3.50039642 C19.7226444,3.71276592 19.9298484,4.23805866 20.1693022,4.84701212 C21.236766,7.557941 22.1502378,10.0910909 21.6169089,11.294518 C21.4875072,11.5869283 21.2718376,11.7968845 20.992878,11.9026671 C19.1969748,12.5860303 15.4588358,12.6600379 13.9350392,12.6600379 C12.6720617,12.6600379 11.1660025,12.9842231 11.1660025,14.5303375 C11.1660025,15.829894 12.8542723,16.4887221 16.1836469,16.4887221 C16.3759356,16.4887221 16.5730616,16.4863088 16.7742189,16.4822867 C20.4526961,16.4022459 21.8265318,15.915968 24.8503408,14.7246073 C27.2513282,13.7789999 26.2346576,10.4945125 25.057948,6.69116775 C24.9079871,6.20690093 24.7568168,5.71820974 24.6116933,5.22951856 C23.5131891,1.53074972 20.5708105,1.10761958 18.847066,1.05935378 M16.1836469,17.2931521 C14.7428932,17.2931521 10.3597609,17.2931521 10.3597609,14.5303375 C10.3597609,12.830577 11.6630504,11.8556079 13.9350392,11.8556079 C15.089174,11.8556079 18.9881583,11.8049288 20.705856,11.1509273 C20.7582617,11.1312188 20.8247766,11.0926061 20.879601,10.9695284 C21.3214214,9.97283966 20.0834375,6.82993191 19.4186913,5.14103127 C19.1469879,4.45042817 18.9502649,3.95127939 18.8881843,3.68179537 C18.6539711,2.67183358 17.8823979,0.824460239 17.8747387,0.805958351 C17.8227361,0.682076141 17.8364422,0.540094258 17.9114226,0.427876282 C17.986,0.315658306 18.1117737,0.248488407 18.2468191,0.248488407 C19.8129434,0.248488407 23.9735531,0.248488407 25.384879,5.00106046 C25.5287931,5.48693614 25.6791572,5.9724096 25.8279087,6.45386092 C27.0691176,10.4651508 28.241796,14.2540158 25.1462315,15.4727271 C22.0272859,16.7014938 20.609107,17.2038603 16.7915531,17.2867166 C16.5847521,17.2907388 16.3819824,17.2931521 16.1836469,17.2931521" id="Fill-41" fill="#5D98C1"></path>
                        </g>
                        <g id="Group-50" transform="translate(44.725191, 13.929134)">
                            <g id="Group-46">
                                <mask id="mask-10" fill="white">
                                    <use xlink:href="#path-9"></use>
                                </mask>
                                <g id="Clip-45"></g>
                                <path d="M7.649582,0.0558766404 C9.36589538,0.0558766404 13.1253425,0.137129921 14.4322192,4.49879003 C15.7407158,8.86045013 17.5388355,13.2225105 14.4322192,14.434105 C11.3280328,15.644899 9.93853982,16.1296168 6.17949763,16.2108701 C2.41964548,16.2917231 0.13149763,15.644899 0.13149763,13.8681339 C0.13149763,12.0909685 1.76640964,11.6062507 3.31830036,11.6062507 C4.87181101,11.6062507 8.54985681,11.5257979 10.2645503,10.879374 C11.9816736,10.2337507 8.93377967,4.03288451 8.68876561,2.98219554 C8.44294158,1.93190682 7.649582,0.0558766404 7.649582,0.0558766404" id="Fill-44" fill="#F58F7B" mask="url(#mask-10)"></path>
                            </g>
                            <g id="Group-49" transform="translate(0.000000, 0.400262)">
                                <mask id="mask-12" fill="white">
                                    <use xlink:href="#path-11"></use>
                                </mask>
                                <g id="Clip-48"></g>
                                <path d="M14.4322192,4.09836745 C13.8287961,2.08304593 12.7001115,0.988328084 11.4928604,0.386733596 C11.6171899,0.668918635 11.7346346,0.966713911 11.8330452,1.29653018 C13.1411368,5.65859055 14.9392566,10.0202507 11.8330452,11.2318451 C8.72845384,12.4434396 7.33936585,12.9277572 3.57991868,13.0090105 C2.26858722,13.0370289 1.14152254,12.9745879 0.22221358,12.8080787 C0.164706147,13.0058084 0.131092648,13.2235512 0.131092648,13.4677113 C0.131092648,15.2448766 2.41964548,15.8913005 6.17949763,15.8108478 C9.93853982,15.7295945 11.3280328,15.2448766 14.4322192,14.0336824 C17.5388355,12.8220879 15.7403108,8.46002756 14.4322192,4.09836745" id="Fill-47" fill="#F37D6C" mask="url(#mask-12)"></path>
                            </g>
                        </g>
                        <g id="Group-110">
                            <path d="M52.0690825,12.2799988 C52.3251081,12.9277956 52.7255997,13.9940948 52.8921368,14.7128446 C52.9406934,14.924501 53.1469586,15.4480299 53.3853273,16.0549385 C54.4479543,18.7567644 55.3572869,21.2814081 54.8263747,22.4807943 C54.6975593,22.7722227 54.4828669,22.9814739 54.2051713,23.0869012 C52.4174058,23.7679698 48.696205,23.8417288 47.179313,23.8417288 C45.9220583,23.8417288 44.4228233,24.1648255 44.4228233,25.7057481 C44.4228233,27.0009409 46.1034433,27.6575567 49.4177319,27.6575567 C49.6091492,27.6575567 49.805382,27.6551515 50.0056278,27.6511429 C53.6674371,27.5713709 55.0350477,27.0867259 58.0451553,25.8993656 C60.4352633,24.9569335 59.4231994,21.6834751 58.2518218,17.8929017 C58.1025403,17.410261 57.952055,16.9232108 57.8075891,16.4361605 C56.7140625,12.7498118 53.7850163,12.3281025 52.0690825,12.2799988 M49.4177319,28.4592855 C47.9835065,28.4592855 43.620235,28.4592855 43.620235,25.7057481 C43.620235,24.0116953 44.917619,23.0400001 47.179313,23.0400001 C48.3282182,23.0400001 52.2095354,22.9894912 53.9194499,22.3376857 C53.9716181,22.3180434 54.0378317,22.2795604 54.0924077,22.1568959 C54.5322261,21.163554 53.2998517,18.0311999 52.6381176,16.3479704 C52.3676453,15.6596863 52.1718138,15.1622136 52.1100145,14.8936345 C51.8768626,13.887064 51.1087855,12.045894 51.1011609,12.0274543 C51.049394,11.903988 51.063038,11.7624829 51.1376787,11.6506418 C51.2119181,11.5388006 51.3371219,11.4718562 51.4715554,11.4718562 C53.0305833,11.4718562 57.1723404,11.4718562 58.5772713,16.2084696 C58.7205334,16.6927137 58.8702161,17.176557 59.0182936,17.6563917 C60.2538784,21.654212 61.4212431,25.4303543 58.3397052,26.6449733 C55.2348922,27.869614 53.8231393,28.3702936 50.0228835,28.4528716 C49.8170196,28.4568803 49.6151686,28.4592855 49.4177319,28.4592855" id="Fill-51" fill="#5D98C1"></path>
                            <path d="M51.5737651,11.8305898 C51.5737651,11.8305898 49.6804592,18.1157422 48.4484861,21.5359169 C47.1844094,25.0458853 47.028306,25.7004968 45.6073233,27.9293027 C45.6073233,27.9293027 46.6980409,28.4909137 49.9645754,28.3005031 C53.23111,28.1108942 56.4398582,26.9984956 56.6766217,26.8565896 C56.6766217,26.8565896 56.9077672,23.9872025 55.3880662,19.321943 C54.1809733,15.6207623 52.4261139,13.0985238 51.9529881,11.8305898 L51.5737651,11.8305898 Z" id="Fill-53" fill="#FEFEFE"></path>
                            <path d="M46.2209422,27.7069833 C46.6515309,27.8116089 47.4328506,27.9386829 48.6784678,27.9390838 L48.678869,27.9390838 C49.075749,27.9390838 49.5007195,27.9258553 49.9413405,27.9001999 C52.7074612,27.7398542 55.4992648,26.8848105 56.2854001,26.5889726 C56.2990441,25.8201147 56.2364422,23.2221128 55.0064755,19.4463713 C54.2215441,17.0383791 53.2010531,15.1362777 52.4554485,13.7472826 C52.1938047,13.2594307 51.9682774,12.8393249 51.7965235,12.4785469 C51.3113588,14.071181 49.8386092,18.8611094 48.826144,21.6715694 L48.4429081,22.739873 C47.5837373,25.1438566 47.2795563,25.9960942 46.2209422,27.7069833 M48.678869,28.7408125 L48.6784678,28.7408125 C46.3742366,28.7404116 45.5138619,28.3323317 45.4235707,28.2854306 C45.3232472,28.23412 45.2494091,28.1427229 45.2201146,28.0336878 C45.1904188,27.9250535 45.2084771,27.8092037 45.2686712,27.7141989 C46.5078676,25.7704076 46.7574726,25.071701 47.6868699,22.4704921 L48.0705071,21.4001842 C49.2852245,18.0289149 51.1705046,11.777836 51.1893654,11.7149003 C51.240731,11.5457355 51.3964332,11.4298857 51.5738052,11.4298857 L51.9530282,11.4298857 C52.1207692,11.4298857 52.2704519,11.5337096 52.3294421,11.6904476 C52.48073,12.096924 52.7817007,12.6581342 53.1629301,13.3684658 C53.9221787,14.7839179 54.9623332,16.722498 55.7697371,19.1978354 C57.2966614,23.8855433 57.0859819,26.7685598 57.0767522,26.8888191 C57.0659172,27.0178975 56.9940856,27.1337473 56.8825258,27.2002908 C56.5394193,27.406335 53.2167035,28.5135224 49.9878906,28.7007261 C49.5320205,28.7271831 49.0909982,28.7408125 48.678869,28.7408125" id="Fill-55" fill="#5D98C1"></path>
                            <path d="M46.6575102,44.226203 C44.166276,44.226203 40.4856058,42.4820421 40.3299037,42.4078822 C40.1300592,42.3124765 40.0453861,42.0731604 40.1412954,41.8731291 C40.2368034,41.6738995 40.4759748,41.5893172 40.6766218,41.684322 C40.7131396,41.70196 44.3488648,43.4244742 46.6575102,43.4244742 C46.8794259,43.4244742 47.0588043,43.6036606 47.0588043,43.8253386 C47.0588043,44.0470166 46.8794259,44.226203 46.6575102,44.226203" id="Fill-57" fill="#5D98C1"></path>
                            <path d="M41.5801758,47.5763868 C41.223024,47.5763868 40.850623,47.557947 40.461769,47.5174597 C40.2410572,47.4946105 40.0813421,47.2973852 40.1042158,47.0773107 C40.1270896,46.8572361 40.3197108,46.6924809 40.5448368,46.7201405 C44.2202902,47.1001599 46.376845,45.3171152 46.3981136,45.2994772 C46.5682624,45.1563686 46.8210777,45.1780153 46.9635371,45.3463783 C47.1067991,45.5151422 47.0859318,45.7680877 46.916987,45.9111962 C46.828301,45.9861579 44.9057006,47.5763868 41.5801758,47.5763868" id="Fill-59" fill="#5D98C1"></path>
                            <path d="M44.9700281,50.5699617 C42.6597775,50.5699617 40.4851644,49.8251557 40.3711969,49.7854701 C40.1621226,49.7125128 40.0513654,49.484421 40.1244009,49.2755707 C40.1970352,49.0663195 40.427378,48.9560818 40.6348471,49.0282374 C40.6681545,49.0394616 43.9667926,50.167093 46.5744022,49.6143011 C46.7898971,49.5698051 47.0041882,49.7073016 47.050337,49.9237684 C47.0960846,50.1402351 46.9576381,50.3526932 46.7405379,50.3987926 C46.1634769,50.5210563 45.5623383,50.5699617 44.9700281,50.5699617" id="Fill-61" fill="#5D98C1"></path>
                            <path d="M47.1842088,1.06517679 C44.3663211,1.06517679 42.0737275,3.35531491 42.0737275,6.16978362 C42.0737275,8.98505406 44.3663211,11.2751922 47.1842088,11.2751922 C50.0016952,11.2751922 52.2942888,8.98505406 52.2942888,6.16978362 C52.2942888,3.35531491 50.0016952,1.06517679 47.1842088,1.06517679 M47.1842088,12.0769209 C43.9236936,12.0769209 41.2711392,9.4268066 41.2711392,6.16978362 C41.2711392,2.91276065 43.9236936,0.263448061 47.1842088,0.263448061 C50.4447239,0.263448061 53.0968771,2.91276065 53.0968771,6.16978362 C53.0968771,9.4268066 50.4447239,12.0769209 47.1842088,12.0769209" id="Fill-63" fill="#5D98C1"></path>
                            <path d="M39.7363495,45.6081027 L33.3826589,43.2927101 L33.3605877,43.3275853 C34.5905543,40.940438 35.2888062,38.2358061 35.2888062,35.366419 C35.2888062,25.7428682 27.4792203,17.9416468 17.8449499,17.9416468 C8.21148198,17.9416468 0.401093524,25.7428682 0.401093524,35.366419 C0.401093524,44.9903707 8.21148198,52.7911912 17.8449499,52.7911912 C23.458654,52.7911912 28.448747,50.1398743 31.639437,46.0258034 L31.6161619,46.0630837 L39.7363495,45.6081027 Z" id="Fill-65" fill="#FEFEFE"></path>
                            <g id="Group-69" transform="translate(0.000000, 17.237168)">
                                <mask id="mask-14" fill="white">
                                    <use xlink:href="#path-13"></use>
                                </mask>
                                <g id="Clip-68"></g>
                                <path d="M17.8450702,1.10550375 C8.44796463,1.10550375 0.802508084,8.74237078 0.802508084,18.1294116 C0.802508084,27.5164525 8.44796463,35.1533195 17.8450702,35.1533195 C23.1521857,35.1533195 28.0644276,32.7441247 31.322535,28.5430661 C31.4328909,28.3999575 31.6219004,28.3522547 31.7848259,28.4147895 L37.7669181,28.0796669 L33.4016401,26.4890371 C33.3221838,26.4962527 33.2367082,26.4818215 33.1620675,26.4381273 C32.9750644,26.3322991 32.9056405,26.0977935 33.0039576,25.9065812 C34.2539889,23.4809509 34.8876324,20.8641083 34.8876324,18.1294116 C34.8876324,8.74237078 27.2421758,1.10550375 17.8450702,1.10550375 M17.8450702,35.9550482 C8.00493587,35.9550482 -8.02588342e-05,27.958205 -8.02588342e-05,18.1294116 C-8.02588342e-05,8.30021738 8.00493587,0.303775016 17.8450702,0.303775016 C27.6852046,0.303775016 35.6902207,8.30021738 35.6902207,18.1294116 C35.6902207,20.8276297 35.1011209,23.4160109 33.9381704,25.8312187 L39.8741138,27.9942828 C40.053091,28.0596237 40.1610391,28.2412153 40.1333498,28.4296215 C40.1056605,28.6180278 39.9491558,28.7603346 39.758541,28.7711579 L31.813719,29.2161174 C28.4027186,33.5021592 23.3247421,35.9550482 17.8450702,35.9550482" id="Fill-67" fill="#5D98C1" mask="url(#mask-14)"></path>
                            </g>
                            <path d="M27.6563917,27.9305454 C28.554488,27.9225281 29.2507334,28.2500343 29.7118204,28.9888273 C30.3113539,29.9492983 30.0689722,31.2176332 29.1748888,31.8870767 C28.2089738,32.6098351 26.9697774,32.4847654 26.1431114,31.5467428 C25.8983219,31.2689438 25.7221538,31.2677412 25.4384388,31.4765915 C23.5611847,32.8571684 21.6738982,34.2249176 19.7894208,35.5958738 C19.71478,35.6507922 19.6353238,35.6992968 19.5606831,35.7482022 C19.1401268,35.5313346 18.8479846,35.2366993 18.8387549,34.7348171 C18.8371497,34.6438209 18.8106643,34.4858803 18.7669232,34.4746561 C18.1693962,34.3263363 18.2713249,33.4155725 17.5325423,33.4344131 C17.5353514,33.4059517 17.5385618,33.3774904 17.5425747,33.3494299 C17.7833512,33.1782608 18.0269368,33.0102986 18.2657068,32.8359226 C20.0350128,31.5479454 21.8039175,30.2583647 23.5728222,28.9687841 C23.9243559,28.7126317 23.9524465,28.6076053 23.752602,28.2809008 C23.2080458,27.3897793 23.2995409,26.2821911 23.9757216,25.5774715 C24.6888213,24.8346699 25.8004061,24.6639017 26.6928844,25.15937 C27.5765341,25.6504289 27.991071,26.6770425 27.718191,27.6992466 C27.700534,27.7665918 27.6824758,27.8343379 27.6563917,27.9305454" id="Fill-70" fill="#FEFEFE"></path>
                            <path d="M18.2757391,33.322612 C18.420205,33.4625137 18.5153118,33.6288724 18.5915577,33.7635628 C18.7087356,33.9696071 18.7697323,34.0626077 18.8636351,34.0854569 C19.1830653,34.1656298 19.2368387,34.5219982 19.240049,34.7276416 C19.2436607,34.927673 19.3030522,35.1016481 19.5490455,35.2752224 C19.5502494,35.2740198 19.5514533,35.273218 19.5526572,35.2724163 L20.7420931,34.407351 C22.2300919,33.3254181 23.718492,32.243886 25.2004714,31.153535 C25.3437334,31.0481076 25.5391636,30.9270466 25.7807427,30.9270466 C26.0953574,30.9270466 26.3100497,31.1294831 26.444082,31.2814107 C27.1090264,32.0366392 28.1491809,32.1532907 28.9345136,31.5660244 C29.6656716,31.0188445 29.8574902,29.9794032 29.3711217,29.2009246 C29.0011285,28.6072445 28.4662033,28.3314498 27.6876926,28.3314498 C27.5628901,28.3314498 27.4292592,28.2729236 27.3530133,28.1739101 C27.27757,28.0744958 27.2362367,27.9458183 27.2691428,27.8251581 L27.3297382,27.597868 C27.5560681,26.7500399 27.2213888,25.9118325 26.4974541,25.5097655 C25.7847557,25.1133107 24.8340898,25.2628331 24.2654559,25.8549098 C23.7168868,26.4265424 23.6466603,27.3381079 24.0953072,28.0716897 C24.4516564,28.6553482 24.2502068,28.9716302 23.8091845,29.2923217 L18.5016678,33.160262 C18.427027,33.2143787 18.3515837,33.2684953 18.2757391,33.322612 M19.5606831,36.1491067 C19.4976799,36.1491067 19.4346767,36.1342747 19.3764891,36.1042099 C18.7673245,35.7899322 18.4599332,35.3545935 18.4382633,34.7749436 C18.1577587,34.6234169 18.0084772,34.3616525 17.8937071,34.1596168 C17.7347946,33.8806152 17.6874419,33.8349167 17.5554161,33.8349167 C17.4426524,33.8349167 17.3230668,33.7876147 17.2472222,33.703834 C17.1709763,33.6204543 17.1224197,33.509014 17.1332546,33.3963711 C17.136465,33.3622976 17.1404779,33.3278233 17.1452935,33.2941507 C17.1605426,33.1847147 17.2199342,33.0865029 17.3102254,33.0223646 L17.5530083,32.8507947 C17.7123221,32.7389535 17.8716359,32.6271124 18.0289432,32.5124652 L23.3360586,28.6449258 C23.3890295,28.6064428 23.4251459,28.5779814 23.4496249,28.5571365 C23.4395925,28.5394984 23.4271524,28.5174509 23.4102981,28.4893904 C22.771839,27.4459404 22.8854053,26.1339114 23.6859872,25.2997126 C24.1884075,24.7769855 24.8886658,24.4771389 25.6081862,24.4771389 C26.0544254,24.4771389 26.4966515,24.5917862 26.8879134,24.8090546 C27.8686763,25.3538293 28.360663,26.4389691 28.1596146,27.562592 C28.9910961,27.6764374 29.6195228,28.0833148 30.0525192,28.7764093 C30.7571917,29.9056442 30.4770884,31.4124933 29.4156653,32.2078082 C28.9389279,32.5641767 28.3915626,32.7525829 27.8313559,32.7525829 C27.0833436,32.7525829 26.3766646,32.418262 25.8417394,31.8113534 C25.8088333,31.7744739 25.785157,31.7520255 25.7695065,31.7391978 C25.7502444,31.7488185 25.7201473,31.7668574 25.676005,31.7993274 C24.193223,32.8900794 22.703619,33.972814 21.2144164,35.0551478 L20.025783,35.9198123 C19.9667928,35.9635065 19.9041909,36.0035929 19.8419903,36.0436793 L19.7813949,36.0829641 C19.71478,36.1266583 19.6381329,36.1491067 19.5606831,36.1491067" id="Fill-72" fill="#5D98C1"></path>
                            <path d="M18.5300794,37.0172987 C17.9044618,37.7637082 17.3338215,38.4471819 16.7619773,39.1298539 C15.8289683,40.2466621 14.9003736,41.367078 13.9573323,42.4746662 C13.7390283,42.7320211 13.7326076,42.918423 13.9769957,43.1629503 C14.7900177,43.9734981 14.903584,45.008129 14.3132802,45.9806259 C13.8405557,46.7579019 12.7590679,47.1475421 11.8384991,46.87295 C10.849309,46.5783147 10.2417496,45.6940079 10.2706428,44.5928335 C10.2722479,44.5467341 10.2718466,44.5002338 10.2722479,44.4344921 C9.43916124,44.6493554 8.69476055,44.5178719 8.04867693,43.9302047 C7.22160965,43.1793857 7.12770681,41.8316798 7.85003632,40.9289332 C8.53384159,40.075493 9.841258,39.8702504 10.7425647,40.4759565 C11.2502018,40.8162903 11.2502018,40.8166912 11.6486869,40.3404643 C12.9966341,38.7293904 14.3437786,37.1179157 15.692127,35.5068418 C16.0340296,35.098361 16.5581198,35.1596933 16.8049157,35.6246959 C16.8510646,35.7120843 16.9562036,35.8239255 17.0380677,35.8271324 C17.3402422,35.8395592 17.5168116,35.9706419 17.5790122,36.2644754 C17.6789345,36.7443101 18.0653807,36.8990437 18.5300794,37.0172987" id="Fill-74" fill="#FEFEFE"></path>
                            <path d="M10.2722078,44.0335876 C10.3608938,44.0335876 10.4475734,44.0628507 10.5186024,44.11817 C10.6169195,44.1947351 10.6743046,44.3121884 10.673502,44.4368572 L10.6714955,44.6068237 C10.6478191,45.5236005 11.1386019,46.2463589 11.9532291,46.4888819 C12.111339,46.535783 12.2786787,46.5598349 12.4512352,46.5598349 C13.0732411,46.5598349 13.6840108,46.2435529 13.9705349,45.7725372 C14.4701461,44.948761 14.3718291,44.1229804 13.6936419,43.4467222 C13.4247748,43.1777422 13.2000501,42.7464121 13.6519073,42.2152669 C14.3730329,41.3682405 15.0853301,40.5135976 15.7980285,39.6589548 L17.8526547,37.2020571 C17.562519,37.0513321 17.2804092,36.7979858 17.1861051,36.3462117 C17.1664417,36.2532112 17.1624287,36.2335688 17.0215745,36.2275558 C16.6732511,36.2143273 16.4718015,35.8535494 16.4505329,35.8122604 C16.3397757,35.6042117 16.1503648,35.5833668 15.9998795,35.7641566 L11.9564394,40.5977791 C11.6947956,40.9104534 11.5218379,41.1172994 11.2080258,41.1172994 C10.9796894,41.1172994 10.8063303,41.0014496 10.5198063,40.8094355 C10.2461237,40.6254388 9.91706246,40.5284296 9.56793654,40.5284296 C9.01495317,40.5284296 8.49006039,40.7717543 8.16300564,41.1794333 C7.57189933,41.9182264 7.64172451,43.0194008 8.31870778,43.633525 C8.83838373,44.1069458 9.43149652,44.236425 10.1718843,44.0464153 C10.2047904,44.0379971 10.2384991,44.0335876 10.2722078,44.0335876 M12.4512352,47.3615636 C12.2012289,47.3615636 11.9560381,47.3262875 11.7236888,47.256938 C10.6654761,46.9418586 9.96722424,46.0407155 9.87813693,44.9138858 C9.074746,45.0032785 8.37488896,44.7691737 7.77856583,44.2264034 C6.79459252,43.3332776 6.6858418,41.7414452 7.53658544,40.6787538 C8.0141255,40.0826684 8.77377537,39.7267009 9.56793654,39.7267009 C10.0775801,39.7267009 10.5611396,39.8706112 10.9664467,40.143199 C11.0378771,40.1913027 11.1153269,40.2430142 11.1735145,40.2786911 C11.2208672,40.2265787 11.2834691,40.152018 11.3404529,40.0834702 L15.383893,35.2498476 C15.6086177,34.9816694 15.9059767,34.8341513 16.2209926,34.8341513 C16.6074389,34.8341513 16.9577687,35.0586353 17.1584158,35.435047 C17.5930174,35.4871594 17.8799427,35.7489238 17.9718391,36.1814564 C18.0135737,36.3822895 18.1223244,36.4997427 18.6291589,36.6288211 C18.7627899,36.6628945 18.8695341,36.7627098 18.91167,36.8937924 C18.9546085,37.0252759 18.9261166,37.1687854 18.8378319,37.2746136 L16.4144164,40.1720612 C15.7001128,41.0287083 14.9858091,41.8853555 14.2630783,42.7343862 C14.2313761,42.7720675 14.2137192,42.7981237 14.2040881,42.8145591 C14.2141204,42.8285893 14.2313761,42.850236 14.2610719,42.8794991 C15.1980938,43.8143148 15.3465726,45.0513823 14.6567479,46.1886345 C14.2233502,46.9009704 13.3573574,47.3615636 12.4512352,47.3615636" id="Fill-76" fill="#5D98C1"></path>
                            <path d="M20.0337688,35.3664992 C19.8844873,35.2394252 19.8459631,35.1131529 19.8435553,34.9664365 C19.8367333,34.5591583 19.6673872,34.2837645 19.3772515,34.2108072 C19.3222742,34.1975787 19.24964,34.0693021 19.1790122,33.945435 C19.1188181,33.8388051 19.0433748,33.7073216 18.9398409,33.5822519 C18.9791677,33.5541914 24.3637329,29.6309318 24.3637329,29.6309318 C24.7806775,29.3270766 25.1081336,28.9494624 24.6811566,28.250355 C24.2606003,27.5636743 24.3244061,26.7114367 24.8356548,26.1794896 C25.1695316,25.8319402 25.6145668,25.6403271 26.0905017,25.6403271 C26.3802361,25.6403271 26.6671614,25.7148878 26.9215819,25.8559921 C27.59696,26.2312011 27.9087656,27.014891 27.6980862,27.8061972 L27.4565071,28.6989222 L28.171212,28.6929092 C28.9039751,28.6929092 29.4063954,28.9510659 29.752311,29.5054613 C30.2061747,30.2314267 30.0271975,31.2003158 29.3453987,31.7114179 C29.0299815,31.947527 28.6736323,32.0721958 28.3148753,32.0721958 C27.8361313,32.0721958 27.3750443,31.8493152 27.0174912,31.4440414 C26.931213,31.3462305 26.6695692,31.0483882 26.2634595,31.0483882 C25.9837575,31.0483882 25.7582301,31.1910959 25.6117578,31.2985276 C24.1301797,32.3880769 22.6417796,33.4700099 21.1549847,34.5515419 L20.0337688,35.3664992 Z" id="Fill-78" fill="#F58F7B"></path>
                            <path d="M12.9339118,46.6807356 C12.7737954,46.6807356 12.6172907,46.6582871 12.4712196,46.6145929 C11.7103659,46.3881046 11.2520879,45.7110447 11.275363,44.8483845 C11.2761656,44.8119059 11.2817837,44.0009573 11.2817837,44.0009573 L10.6244638,44.1713246 C10.4177973,44.2246396 10.2203606,44.2518984 10.0377718,44.2518984 C9.60517663,44.2518984 9.22755882,44.0995699 8.88204454,43.7856931 C8.25201269,43.2128579 8.18820692,42.1850417 8.7403877,41.495555 C9.04416738,41.1167382 9.53414757,40.8902498 10.0510145,40.8902498 C10.376464,40.8902498 10.6818489,40.9796425 10.9346642,41.1492082 C11.2300167,41.3472352 11.4250457,41.4787187 11.6903011,41.4787187 C12.0606957,41.4787187 12.2689673,41.2297819 12.531815,40.9159051 L16.5752551,36.0830843 C16.6278246,36.018946 16.6763812,35.9972993 16.7044718,35.9972993 C16.7421935,35.9972993 16.7899475,36.0413944 16.8264652,36.1095414 C16.9400315,36.3232021 17.1844196,36.5765484 17.4998369,36.589376 C17.5199016,36.589376 17.5351508,36.5917812 17.5467883,36.5933847 C17.5483935,36.5985959 17.5487948,36.6050097 17.5508012,36.6126261 C17.6410924,37.0439562 17.8834741,37.3093284 18.1495321,37.4772906 L16.0916956,39.9385978 C15.4119033,40.7543568 14.7317097,41.5697149 14.0430889,42.3786592 C13.6442025,42.8472696 13.9375485,43.0978099 14.3689397,43.5271356 C15.0037871,44.1609021 14.8187905,45.1803002 14.3492763,45.9519641 C14.0852248,46.3881046 13.5161896,46.6807356 12.9339118,46.6807356" id="Fill-80" fill="#F58F7B"></path>
                            <path d="M27.454942,28.2096271 L27.5877895,28.2088254 L27.697288,27.8059567 C27.7641143,27.5554165 27.7790093,27.3060789 27.7455962,27.0695689 C27.7343243,27.1517461 27.7190267,27.2339233 27.697288,27.3169022 L27.454942,28.2096271 Z" id="Fill-82" fill="#F37D6C"></path>
                            <path d="M29.3446363,31.2216017 C29.0288178,31.4581117 28.6720672,31.5823797 28.3141128,31.5823797 C27.834165,31.5823797 27.3738806,31.3594991 27.0163275,30.9542252 C26.9300492,30.8568152 26.6680041,30.5593738 26.2622957,30.5593738 C25.9825937,30.5593738 25.7566651,30.7016806 25.610594,30.8091123 C24.1286146,31.8986616 22.6410171,32.9805946 21.1534196,34.0625275 L20.032605,34.8770839 C19.8829223,34.7504107 19.8452006,34.6241385 19.8423916,34.4774221 C19.8351683,34.069743 19.6650196,33.7943492 19.3756865,33.7213919 C19.3207092,33.7081634 19.2488775,33.5798868 19.1782497,33.4560197 C19.1714277,33.4451964 19.165007,33.4335713 19.1585863,33.4223471 C19.0245541,33.520158 18.9434926,33.5786842 18.9390784,33.582292 C19.0426123,33.7073617 19.117253,33.8388452 19.1782497,33.9454751 C19.2488775,34.0693422 19.3207092,34.1976188 19.3756865,34.2108473 C19.6650196,34.2838046 19.8351683,34.5591984 19.8423916,34.9664766 C19.8452006,35.113193 19.8829223,35.2390644 20.032605,35.3665393 L21.1534196,34.551582 C22.6410171,33.4696491 24.1286146,32.388117 25.610594,31.2981668 C25.7566651,31.191136 25.9163802,31.3831501 26.1427101,31.5467027 C26.4785933,31.7884239 26.6415187,31.9411533 26.727797,32.0389642 C27.0857514,32.4446389 27.8100874,32.3011295 28.2888313,32.3011295 C28.6475883,32.3011295 29.0288178,31.9475671 29.3446363,31.711458 C29.8406359,31.3394558 30.0689722,30.7253316 29.9818914,30.1380653 C29.9208947,30.5581712 29.702992,30.9534235 29.3446363,31.2216017" id="Fill-84" fill="#F37D6C"></path>
                            <path d="M24.840489,28.5948578 C24.9193923,28.3759859 24.8932254,28.1086093 24.6806694,27.7610599 C24.5409783,27.533369 24.4548287,27.2872382 24.421013,27.0407066 C24.3634458,27.4399676 24.4467774,27.8704959 24.6806694,28.2505153 C24.7567548,28.3747833 24.8086861,28.4890296 24.840489,28.5948578" id="Fill-86" fill="#F37D6C"></path>
                            <path d="M11.2805397,43.5117825 L10.6232198,43.681749 C10.4165533,43.7358657 10.2187153,43.7623227 10.036929,43.7623227 C9.60353133,43.7623227 9.22591351,43.6099943 8.88120182,43.2965183 C8.60109849,43.0423703 8.43295623,42.697627 8.38078799,42.3336421 C8.30694986,42.8655891 8.47749988,43.4187819 8.88120182,43.7859737 C9.22591351,44.0994496 9.60353133,44.252179 10.036929,44.252179 C10.2187153,44.252179 10.4165533,44.2245193 10.6232198,44.1716052 L11.276928,44.0016387 C11.2785332,43.77034 11.2805397,43.5117825 11.2805397,43.5117825" id="Fill-88" fill="#F37D6C"></path>
                            <path d="M14.3486343,45.4620678 C14.0837801,45.8986091 13.514745,46.1908392 12.9332697,46.1908392 C12.7715482,46.1908392 12.6166486,46.1691925 12.4693737,46.1254983 C11.7622933,45.9142428 11.3168568,45.313748 11.2763261,44.5356702 C11.2755235,44.696016 11.2739183,44.8343142 11.2739183,44.8483444 C11.2510445,45.7110046 11.7097238,46.3880645 12.4693737,46.6145528 C12.6166486,46.6582471 12.7715482,46.6806955 12.9332697,46.6806955 C13.514745,46.6806955 14.0837801,46.3880645 14.3486343,45.951924 C14.5962328,45.5438441 14.6861227,45.1361651 14.6235208,44.7481284 C14.5853978,44.9838366 14.4935015,45.2231526 14.3486343,45.4620678" id="Fill-90" fill="#F37D6C"></path>
                            <path d="M16.0909733,39.4491023 C15.4103784,40.2652622 14.7297835,41.0806203 14.041564,41.8891637 C13.7819266,42.1954241 13.69926,42.5121069 13.7927616,42.8147595 C13.8369039,42.668444 13.9199718,42.5225294 14.041564,42.3786191 C14.7297835,41.5696748 15.4103784,40.7543167 16.0909733,39.9385577 L18.1484085,37.4772505 C18.0621303,37.4231338 17.9802662,37.3569912 17.9040204,37.280827 L16.0909733,39.4491023 Z" id="Fill-92" fill="#F37D6C"></path>
                            <path d="M18.2757391,33.322612 C18.420205,33.4625137 18.5153118,33.6288724 18.5915577,33.7635628 C18.7087356,33.9696071 18.7697323,34.0626077 18.8636351,34.0854569 C19.1830653,34.1656298 19.2368387,34.5219982 19.240049,34.7276416 C19.2436607,34.927673 19.3030522,35.1016481 19.5490455,35.2752224 C19.5502494,35.2740198 19.5514533,35.273218 19.5526572,35.2724163 L20.7420931,34.407351 C22.2300919,33.3254181 23.718492,32.243886 25.2004714,31.153535 C25.3437334,31.0481076 25.5391636,30.9270466 25.7807427,30.9270466 C26.0953574,30.9270466 26.3100497,31.1294831 26.444082,31.2814107 C27.1090264,32.0366392 28.1491809,32.1532907 28.9345136,31.5660244 C29.6656716,31.0188445 29.8574902,29.9794032 29.3711217,29.2009246 C29.0011285,28.6072445 28.4662033,28.3314498 27.6876926,28.3314498 C27.5628901,28.3314498 27.4292592,28.2729236 27.3530133,28.1739101 C27.27757,28.0744958 27.2362367,27.9458183 27.2691428,27.8251581 L27.3297382,27.597868 C27.5560681,26.7500399 27.2213888,25.9118325 26.4974541,25.5097655 C25.7847557,25.1133107 24.8340898,25.2628331 24.2654559,25.8549098 C23.7168868,26.4265424 23.6466603,27.3381079 24.0953072,28.0716897 C24.4516564,28.6553482 24.2502068,28.9716302 23.8091845,29.2923217 L18.5016678,33.160262 C18.427027,33.2143787 18.3515837,33.2684953 18.2757391,33.322612 M19.5606831,36.1491067 C19.4976799,36.1491067 19.4346767,36.1342747 19.3764891,36.1042099 C18.7673245,35.7899322 18.4599332,35.3545935 18.4382633,34.7749436 C18.1577587,34.6234169 18.0084772,34.3616525 17.8937071,34.1596168 C17.7347946,33.8806152 17.6874419,33.8349167 17.5554161,33.8349167 C17.4426524,33.8349167 17.3230668,33.7876147 17.2472222,33.703834 C17.1709763,33.6204543 17.1224197,33.509014 17.1332546,33.3963711 C17.136465,33.3622976 17.1404779,33.3278233 17.1452935,33.2941507 C17.1605426,33.1847147 17.2199342,33.0865029 17.3102254,33.0223646 L17.5530083,32.8507947 C17.7123221,32.7389535 17.8716359,32.6271124 18.0289432,32.5124652 L23.3360586,28.6449258 C23.3890295,28.6064428 23.4251459,28.5779814 23.4496249,28.5571365 C23.4395925,28.5394984 23.4271524,28.5174509 23.4102981,28.4893904 C22.771839,27.4459404 22.8854053,26.1339114 23.6859872,25.2997126 C24.1884075,24.7769855 24.8886658,24.4771389 25.6081862,24.4771389 C26.0544254,24.4771389 26.4966515,24.5917862 26.8879134,24.8090546 C27.8686763,25.3538293 28.360663,26.4389691 28.1596146,27.562592 C28.9910961,27.6764374 29.6195228,28.0833148 30.0525192,28.7764093 C30.7571917,29.9056442 30.4770884,31.4124933 29.4156653,32.2078082 C28.9389279,32.5641767 28.3915626,32.7525829 27.8313559,32.7525829 C27.0833436,32.7525829 26.3766646,32.418262 25.8417394,31.8113534 C25.8088333,31.7744739 25.785157,31.7520255 25.7695065,31.7391978 C25.7502444,31.7488185 25.7201473,31.7668574 25.676005,31.7993274 C24.193223,32.8900794 22.703619,33.972814 21.2144164,35.0551478 L20.025783,35.9198123 C19.9667928,35.9635065 19.9041909,36.0035929 19.8419903,36.0436793 L19.7813949,36.0829641 C19.71478,36.1266583 19.6381329,36.1491067 19.5606831,36.1491067" id="Fill-94" fill="#5D98C1"></path>
                            <path d="M10.2722078,44.0335876 C10.3608938,44.0335876 10.4475734,44.0628507 10.5186024,44.11817 C10.6169195,44.1947351 10.6743046,44.3121884 10.673502,44.4368572 L10.6714955,44.6068237 C10.6478191,45.5236005 11.1386019,46.2463589 11.9532291,46.4888819 C12.111339,46.535783 12.2786787,46.5598349 12.4512352,46.5598349 C13.0732411,46.5598349 13.6840108,46.2435529 13.9705349,45.7725372 C14.4701461,44.948761 14.3718291,44.1229804 13.6936419,43.4467222 C13.4247748,43.1777422 13.2000501,42.7464121 13.6519073,42.2152669 C14.3730329,41.3682405 15.0853301,40.5135976 15.7980285,39.6589548 L17.8526547,37.2020571 C17.562519,37.0513321 17.2804092,36.7979858 17.1861051,36.3462117 C17.1664417,36.2532112 17.1624287,36.2335688 17.0215745,36.2275558 C16.6732511,36.2143273 16.4718015,35.8535494 16.4505329,35.8122604 C16.3397757,35.6042117 16.1503648,35.5833668 15.9998795,35.7641566 L11.9564394,40.5977791 C11.6947956,40.9104534 11.5218379,41.1172994 11.2080258,41.1172994 C10.9796894,41.1172994 10.8063303,41.0014496 10.5198063,40.8094355 C10.2461237,40.6254388 9.91706246,40.5284296 9.56793654,40.5284296 C9.01495317,40.5284296 8.49006039,40.7717543 8.16300564,41.1794333 C7.57189933,41.9182264 7.64172451,43.0194008 8.31870778,43.633525 C8.83838373,44.1069458 9.43149652,44.236425 10.1718843,44.0464153 C10.2047904,44.0379971 10.2384991,44.0335876 10.2722078,44.0335876 M12.4512352,47.3615636 C12.2012289,47.3615636 11.9560381,47.3262875 11.7236888,47.256938 C10.6654761,46.9418586 9.96722424,46.0407155 9.87813693,44.9138858 C9.074746,45.0032785 8.37488896,44.7691737 7.77856583,44.2264034 C6.79459252,43.3332776 6.6858418,41.7414452 7.53658544,40.6787538 C8.0141255,40.0826684 8.77377537,39.7267009 9.56793654,39.7267009 C10.0775801,39.7267009 10.5611396,39.8706112 10.9664467,40.143199 C11.0378771,40.1913027 11.1153269,40.2430142 11.1735145,40.2786911 C11.2208672,40.2265787 11.2834691,40.152018 11.3404529,40.0834702 L15.383893,35.2498476 C15.6086177,34.9816694 15.9059767,34.8341513 16.2209926,34.8341513 C16.6074389,34.8341513 16.9577687,35.0586353 17.1584158,35.435047 C17.5930174,35.4871594 17.8799427,35.7489238 17.9718391,36.1814564 C18.0135737,36.3822895 18.1223244,36.4997427 18.6291589,36.6288211 C18.7627899,36.6628945 18.8695341,36.7627098 18.91167,36.8937924 C18.9546085,37.0252759 18.9261166,37.1687854 18.8378319,37.2746136 L16.4144164,40.1720612 C15.7001128,41.0287083 14.9858091,41.8853555 14.2630783,42.7343862 C14.2313761,42.7720675 14.2137192,42.7981237 14.2040881,42.8145591 C14.2141204,42.8285893 14.2313761,42.850236 14.2610719,42.8794991 C15.1980938,43.8143148 15.3465726,45.0513823 14.6567479,46.1886345 C14.2233502,46.9009704 13.3573574,47.3615636 12.4512352,47.3615636" id="Fill-96" fill="#5D98C1"></path>
                            <path d="M15.3310826,34.0816888 C15.3013869,34.0816888 15.2712898,34.0784819 15.2407915,34.0716672 L11.1909307,33.1428645 C10.9750344,33.0935581 10.8397983,32.878294 10.8895588,32.6626289 C10.9393192,32.4469639 11.1560181,32.3114718 11.3703092,32.3615798 L15.4205712,33.2899817 C15.6364675,33.339288 15.7717036,33.554953 15.7219432,33.7706181 C15.6790047,33.9562183 15.5136715,34.0816888 15.3310826,34.0816888" id="Fill-98" fill="#5D98C1"></path>
                            <path d="M15.6959393,32.6230636 C15.6020365,32.6230636 15.5077323,32.5905936 15.4318877,32.5240501 L12.0253015,29.5464296 C11.8583631,29.400515 11.8415088,29.1471687 11.9871786,28.98081 C12.1332497,28.8136496 12.3868676,28.7972141 12.5534047,28.9427279 L15.9599909,31.9203484 C16.1269292,32.066263 16.1437836,32.3196093 15.9981138,32.485968 C15.9186576,32.5769642 15.8074991,32.6230636 15.6959393,32.6230636" id="Fill-100" fill="#5D98C1"></path>
                            <path d="M17.0342152,31.4686143 C16.8122996,31.4686143 16.6329211,31.289428 16.6329211,31.06775 L16.6329211,28.8197026 C16.6329211,28.5980246 16.8122996,28.4188383 17.0342152,28.4188383 C17.2561309,28.4188383 17.4355094,28.5980246 17.4355094,28.8197026 L17.4355094,31.06775 C17.4355094,31.289428 17.2561309,31.4686143 17.0342152,31.4686143" id="Fill-102" fill="#5D98C1"></path>
                            <path d="M18.5304807,41.4205533 C18.5031927,41.4205533 18.4751021,41.4177472 18.4474128,41.4121351 C18.2307139,41.3660357 18.0914649,41.1535776 18.1376137,40.9371108 L18.547335,38.9925178 C18.5930826,38.776051 18.8061698,38.6369511 19.0228686,38.6830505 C19.2395675,38.728749 19.3784153,38.9412072 19.3326677,39.1576739 L18.9229464,41.102267 C18.882817,41.2910741 18.7162799,41.4205533 18.5304807,41.4205533" id="Fill-104" fill="#5D98C1"></path>
                            <path d="M21.6573649,42.3193713 C21.495242,42.3193713 21.3423489,42.2203578 21.2817535,42.0600121 L19.9434375,38.5119616 C19.8651851,38.3047147 19.9703242,38.073416 20.177392,37.9956483 C20.3852623,37.9174797 20.6164078,38.0221053 20.6946601,38.2293522 L22.0329762,41.7770019 C22.1112286,41.9842487 22.0060895,42.2155475 21.7990217,42.293716 C21.7520703,42.3109532 21.7043163,42.3193713 21.6573649,42.3193713" id="Fill-106" fill="#5D98C1"></path>
                            <path d="M23.7390784,38.3502529 C23.6985477,38.3502529 23.6576157,38.3442399 23.6166837,38.3310114 L21.5235333,37.6623697 C21.3120512,37.5950244 21.1956759,37.3697387 21.2634946,37.1584832 C21.3309121,36.9480294 21.5552355,36.8301752 21.7679214,36.8991239 L23.8614731,37.5677657 C24.0725538,37.6351109 24.1889291,37.8603967 24.1211104,38.0716522 C24.0665344,38.2416187 23.9092271,38.3502529 23.7390784,38.3502529" id="Fill-108" fill="#5D98C1"></path>
                        </g>
                    </g>
                </g>
            </g>
        </g>
    </g>
</svg>