<?xml version="1.0" encoding="UTF-8"?>
<svg width="167px" height="144px" viewBox="0 0 167 144" version="1.1" xmlns="http://www.w3.org/2000/svg" xmlns:xlink="http://www.w3.org/1999/xlink">
    <!-- Generator: Sketch 51.1 (57501) - http://www.bohemiancoding.com/sketch -->
    <title>Activ Health</title>
    <desc>Created with Sketch.</desc>
    <defs>
        <path d="M73.566,23.459 C64.396,14.723 47.583,0.639 34.453,0.639 C15.516,0.639 0.109,16.045 0.109,34.982 C0.109,53.92 15.516,69.326 34.453,69.326 C47.583,69.326 64.396,55.241 73.566,46.505 C82.736,55.241 99.549,69.326 112.68,69.326 C131.617,69.326 147.024,53.92 147.024,34.982 C147.024,16.045 131.617,0.639 112.68,0.639 C99.549,0.639 82.736,14.723 73.566,23.459 M85.035,34.974 C97.884,22.692 108.809,16.922 112.68,16.922 C122.638,16.922 130.739,25.024 130.739,34.982 C130.739,44.941 122.638,53.042 112.68,53.042 C108.135,53.042 96.896,46.266 85.035,34.974 M16.392,34.982 C16.392,25.024 24.495,16.922 34.453,16.922 C38.996,16.922 50.237,23.697 62.098,34.99 C49.247,47.273 38.323,53.042 34.453,53.042 C24.495,53.042 16.392,44.941 16.392,34.982" id="path-1"></path>
        <path d="M73.566,23.459 C64.396,14.723 47.583,0.639 34.453,0.639 C15.516,0.639 0.109,16.045 0.109,34.982 C0.109,53.92 15.516,69.326 34.453,69.326 C47.583,69.326 64.396,55.241 73.566,46.505 C82.736,55.241 99.549,69.326 112.68,69.326 C131.617,69.326 147.024,53.92 147.024,34.982 C147.024,16.045 131.617,0.639 112.68,0.639 C99.549,0.639 82.736,14.723 73.566,23.459 Z M85.035,34.974 C97.884,22.692 108.809,16.922 112.68,16.922 C122.638,16.922 130.739,25.024 130.739,34.982 C130.739,44.941 122.638,53.042 112.68,53.042 C108.135,53.042 96.896,46.266 85.035,34.974 Z M16.392,34.982 C16.392,25.024 24.495,16.922 34.453,16.922 C38.996,16.922 50.237,23.697 62.098,34.99 C49.247,47.273 38.323,53.042 34.453,53.042 C24.495,53.042 16.392,44.941 16.392,34.982 Z" id="path-3"></path>
        <path d="M73.566,23.459 C64.396,14.723 47.583,0.639 34.453,0.639 C15.516,0.639 0.109,16.045 0.109,34.982 C0.109,53.92 15.516,69.326 34.453,69.326 C47.583,69.326 64.396,55.241 73.566,46.505 C82.736,55.241 99.549,69.326 112.68,69.326 C131.617,69.326 147.024,53.92 147.024,34.982 C147.024,16.045 131.617,0.639 112.68,0.639 C99.549,0.639 82.736,14.723 73.566,23.459 M85.035,34.974 C97.884,22.692 108.809,16.922 112.68,16.922 C122.638,16.922 130.739,25.024 130.739,34.982 C130.739,44.941 122.638,53.042 112.68,53.042 C108.135,53.042 96.896,46.266 85.035,34.974 M16.392,34.982 C16.392,25.024 24.495,16.922 34.453,16.922 C38.996,16.922 50.237,23.697 62.098,34.99 C49.247,47.273 38.323,53.042 34.453,53.042 C24.495,53.042 16.392,44.941 16.392,34.982" id="path-5"></path>
        <path d="M73.566,23.459 C64.396,14.723 47.583,0.639 34.453,0.639 C15.516,0.639 0.109,16.045 0.109,34.982 C0.109,53.92 15.516,69.326 34.453,69.326 C47.583,69.326 64.396,55.241 73.566,46.505 C82.736,55.241 99.549,69.326 112.68,69.326 C131.617,69.326 147.024,53.92 147.024,34.982 C147.024,16.045 131.617,0.639 112.68,0.639 C99.549,0.639 82.736,14.723 73.566,23.459 M85.035,34.974 C97.884,22.692 108.809,16.922 112.68,16.922 C122.638,16.922 130.739,25.024 130.739,34.982 C130.739,44.941 122.638,53.042 112.68,53.042 C108.135,53.042 96.896,46.266 85.035,34.974 M16.392,34.982 C16.392,25.024 24.495,16.922 34.453,16.922 C38.996,16.922 50.237,23.697 62.098,34.99 C49.247,47.273 38.323,53.042 34.453,53.042 C24.495,53.042 16.392,44.941 16.392,34.982" id="path-7"></path>
        <path d="M73.566,23.459 C64.396,14.723 47.583,0.639 34.453,0.639 C15.516,0.639 0.109,16.045 0.109,34.982 C0.109,53.92 15.516,69.326 34.453,69.326 C47.583,69.326 64.396,55.241 73.566,46.505 C82.736,55.241 99.549,69.326 112.68,69.326 C131.617,69.326 147.024,53.92 147.024,34.982 C147.024,16.045 131.617,0.639 112.68,0.639 C99.549,0.639 82.736,14.723 73.566,23.459 M85.035,34.974 C97.884,22.692 108.809,16.922 112.68,16.922 C122.638,16.922 130.739,25.024 130.739,34.982 C130.739,44.941 122.638,53.042 112.68,53.042 C108.135,53.042 96.896,46.266 85.035,34.974 M16.392,34.982 C16.392,25.024 24.495,16.922 34.453,16.922 C38.996,16.922 50.237,23.697 62.098,34.99 C49.247,47.273 38.323,53.042 34.453,53.042 C24.495,53.042 16.392,44.941 16.392,34.982" id="path-9"></path>
        <path d="M73.566,23.459 C64.396,14.723 47.583,0.639 34.453,0.639 C15.516,0.639 0.109,16.045 0.109,34.982 C0.109,53.92 15.516,69.326 34.453,69.326 C47.583,69.326 64.396,55.241 73.566,46.505 C82.736,55.241 99.549,69.326 112.68,69.326 C131.617,69.326 147.024,53.92 147.024,34.982 C147.024,16.045 131.617,0.639 112.68,0.639 C99.549,0.639 82.736,14.723 73.566,23.459 Z M85.035,34.974 C97.884,22.692 108.809,16.922 112.68,16.922 C122.638,16.922 130.739,25.024 130.739,34.982 C130.739,44.941 122.638,53.042 112.68,53.042 C108.135,53.042 96.896,46.266 85.035,34.974 Z M16.392,34.982 C16.392,25.024 24.495,16.922 34.453,16.922 C38.996,16.922 50.237,23.697 62.098,34.99 C49.247,47.273 38.323,53.042 34.453,53.042 C24.495,53.042 16.392,44.941 16.392,34.982 Z" id="path-11"></path>
        <path d="M5.562,5.142 C4.134,9.74 0.626,10.541 0.626,10.541 L0.626,14.745 C0.626,14.745 7.482,20.047 11.046,20.047 C14.612,20.047 17.171,18.493 17.171,18.493 C17.171,18.493 19.182,19.956 24.848,19.224 C30.516,18.493 38.651,13.374 38.743,12.094 C38.834,10.816 36.914,10.632 34.812,10.541 C32.71,10.449 28.779,8.713 26.586,7.524 C24.391,6.336 17.627,0.936 15.617,0.936 C15.03,0.936 14.071,0.844 12.965,0.844 C10.279,0.844 6.728,1.391 5.562,5.142 Z" id="path-13"></path>
        <path d="M5.562,5.142 C4.134,9.74 0.626,10.541 0.626,10.541 L0.626,14.745 C0.626,14.745 7.482,20.047 11.046,20.047 C14.612,20.047 17.171,18.493 17.171,18.493 C17.171,18.493 19.182,19.956 24.848,19.224 C30.516,18.493 38.651,13.374 38.743,12.094 C38.834,10.816 36.914,10.632 34.812,10.541 C32.71,10.449 28.779,8.713 26.586,7.524 C24.391,6.336 17.627,0.936 15.617,0.936 C15.03,0.936 14.071,0.844 12.965,0.844 C10.279,0.844 6.728,1.391 5.562,5.142" id="path-15"></path>
        <path d="M23.793,0.936 C21.784,0.936 15.019,6.336 12.824,7.524 C10.631,8.713 6.7,10.449 4.598,10.541 C2.496,10.632 0.576,10.816 0.668,12.094 C0.759,13.374 8.894,18.493 14.562,19.224 C20.228,19.956 22.24,18.493 22.24,18.493 C22.24,18.493 24.798,20.047 28.364,20.047 C31.928,20.047 38.784,14.745 38.784,14.745 L38.784,10.541 C38.784,10.541 35.277,9.74 33.849,5.142 C32.683,1.391 29.132,0.844 26.445,0.844 C25.339,0.844 24.38,0.936 23.793,0.936 Z" id="path-17"></path>
        <path d="M23.793,0.936 C21.784,0.936 15.019,6.336 12.824,7.524 C10.631,8.713 6.7,10.449 4.598,10.541 C2.496,10.632 0.576,10.816 0.668,12.094 C0.759,13.374 8.894,18.493 14.562,19.224 C20.228,19.956 22.24,18.493 22.24,18.493 C22.24,18.493 24.798,20.047 28.364,20.047 C31.928,20.047 38.784,14.745 38.784,14.745 L38.784,10.541 C38.784,10.541 35.277,9.74 33.849,5.142 C32.683,1.391 29.132,0.844 26.445,0.844 C25.339,0.844 24.38,0.936 23.793,0.936" id="path-19"></path>
        <path d="M0.074,5.291 C-0.451,9.513 2.81,13.038 9.753,15.781 C10.1,15.918 10.447,16.056 10.813,16.188 C11.207,16.332 11.608,16.4 12.003,16.4 C12.418,16.4 12.823,16.317 13.206,16.175 C14.128,15.832 14.903,15.111 15.266,14.114 C15.922,12.316 14.998,10.328 13.206,9.667 C13.201,9.666 13.197,9.663 13.192,9.661 C11.733,9.13 10.614,8.626 9.753,8.171 C7.803,7.14 7.184,6.361 7.014,6.092 C7.269,5.682 8.149,4.962 9.753,4.241 L9.753,2.415 C9.353,2.36 8.942,2.309 8.515,2.266 C6.176,2.027 4.105,1.589 2.315,0.987 C0.965,2.388 0.25,3.882 0.074,5.291" id="path-21"></path>
    </defs>
    <g id="Page-1" stroke="none" stroke-width="1" fill="none" fill-rule="evenodd">
        <g id="Artboard-2" transform="translate(-277.000000, -171.000000)">
            <g id="Activ-Health" transform="translate(277.000000, 171.000000)">
                <g id="Group-85">
                    <path d="M143.3047,72.1816 C143.3047,111.6856 111.2817,143.7066 71.7797,143.7066 C32.2777,143.7066 0.2537,111.6856 0.2537,72.1816 C0.2537,32.6796 32.2777,0.6586 71.7797,0.6586 C111.2817,0.6586 143.3047,32.6796 143.3047,72.1816" id="Fill-79" fill="#F9DED5"></path>
                    <path d="M127.6797,98.042 C123.1357,98.042 111.8967,91.267 100.0347,79.974 C112.8847,67.691 123.8087,61.922 127.6797,61.922 C137.6377,61.922 145.7397,70.023 145.7397,79.982 C145.7397,89.94 137.6377,98.042 127.6797,98.042 M49.4527,98.042 C39.4947,98.042 31.3927,89.94 31.3927,79.982 C31.3927,70.023 39.4947,61.922 49.4527,61.922 C53.9957,61.922 65.2367,68.697 77.0977,79.99 C64.2467,92.272 53.3237,98.042 49.4527,98.042 M127.6797,45.639 C114.5497,45.639 97.7357,59.723 88.5667,68.459 C79.3967,59.723 62.5827,45.639 49.4527,45.639 C30.5157,45.639 15.1097,61.045 15.1097,79.982 C15.1097,98.92 30.5157,114.326 49.4527,114.326 C62.5827,114.326 79.3967,100.241 88.5667,91.505 C97.7357,100.241 114.5497,114.326 127.6797,114.326 C146.6167,114.326 162.0237,98.92 162.0237,79.982 C162.0237,61.045 146.6167,45.639 127.6797,45.639" id="Fill-81" fill="#FFFFFE"></path>
                    <path d="M49.4531,62.9219 C40.0461,62.9219 32.3921,70.5749 32.3921,79.9829 C32.3921,89.3889 40.0461,97.0419 49.4531,97.0419 C52.8531,97.0419 63.1571,91.7449 75.6431,79.9919 C63.8171,68.8979 53.3761,62.9219 49.4531,62.9219 M49.4531,99.0419 C38.9431,99.0419 30.3921,90.4919 30.3921,79.9829 C30.3921,69.4719 38.9431,60.9219 49.4531,60.9219 C54.7071,60.9219 66.6231,68.6369 77.7871,79.2659 C77.9851,79.4549 78.0981,79.7159 78.0981,79.9889 C78.0981,80.2629 77.9861,80.5249 77.7891,80.7139 C65.3331,92.6179 53.8921,99.0419 49.4531,99.0419 M101.4891,79.9719 C113.3151,91.0659 123.7571,97.0419 127.6801,97.0419 C137.0861,97.0419 144.7391,89.3889 144.7391,79.9829 C144.7391,70.5749 137.0861,62.9219 127.6801,62.9219 C124.2781,62.9219 113.9741,68.2189 101.4891,79.9719 M127.6801,99.0419 C122.4261,99.0419 110.5101,91.3269 99.3461,80.6979 C99.1471,80.5089 99.0351,80.2479 99.0351,79.9749 C99.0351,79.7009 99.1461,79.4399 99.3441,79.2509 C111.7991,67.3459 123.2391,60.9219 127.6801,60.9219 C138.1891,60.9219 146.7391,69.4719 146.7391,79.9829 C146.7391,90.4919 138.1891,99.0419 127.6801,99.0419 M88.5661,90.5049 C88.8141,90.5049 89.0631,90.5969 89.2561,90.7809 C98.0931,99.2009 114.8361,113.3259 127.6801,113.3259 C146.0651,113.3259 161.0231,98.3679 161.0231,79.9829 C161.0231,61.5969 146.0651,46.6389 127.6801,46.6389 C114.8351,46.6389 98.0931,60.7629 89.2561,69.1829 C88.8711,69.5509 88.2621,69.5509 87.8771,69.1829 C79.0391,60.7629 62.2961,46.6389 49.4531,46.6389 C31.0671,46.6389 16.1091,61.5969 16.1091,79.9829 C16.1091,98.3679 31.0671,113.3259 49.4531,113.3259 C62.2951,113.3259 79.0391,99.2009 87.8771,90.7809 C88.0691,90.5969 88.3181,90.5049 88.5661,90.5049 M127.6801,115.3259 C114.4751,115.3259 97.7831,101.5659 88.5661,92.8819 C79.3491,101.5659 62.6551,115.3259 49.4531,115.3259 C29.9651,115.3259 14.1091,99.4709 14.1091,79.9829 C14.1091,60.4939 29.9651,44.6389 49.4531,44.6389 C62.6551,44.6389 79.3491,58.3989 88.5661,67.0819 C97.7821,58.3989 114.4741,44.6389 127.6801,44.6389 C147.1681,44.6389 163.0231,60.4939 163.0231,79.9829 C163.0231,99.4709 147.1681,115.3259 127.6801,115.3259" id="Fill-83" fill="#5A7A8E"></path>
                </g>
                <g id="Group-104" transform="translate(15.000000, 45.000000)">
                    <g id="Group-88">
                        <mask id="mask-2" fill="white">
                            <use xlink:href="#path-1"></use>
                        </mask>
                        <g id="Clip-87"></g>
                        <path d="M35.8936,18.7998 C25.1406,18.7998 16.3926,27.5478 16.3926,38.3008 C16.3926,49.0528 25.1406,57.8008 35.8936,57.8008 C40.5326,57.8008 51.8596,51.4628 64.5336,39.3498 L65.6236,38.3068 L64.5316,37.2658 C53.1116,26.3938 41.3356,18.7998 35.8936,18.7998 M114.1206,18.7998 C109.4806,18.7998 97.5536,23.6978 84.8806,35.8118 L82.9926,37.0288 L85.4826,39.3348 C96.9026,50.2068 108.6776,57.8008 114.1206,57.8008 C124.8726,57.8008 133.6206,49.0528 133.6206,38.3008 C133.6206,27.5478 124.8726,18.7998 114.1206,18.7998 M114.1206,71.2038 C101.4296,71.2038 84.7896,57.1548 75.9996,48.7798 L75.0066,47.8338 L74.0136,48.7798 C65.2236,57.1548 48.5816,71.2038 35.8936,71.2038 C17.7496,71.2038 2.9906,56.4448 2.9906,38.3008 C2.9906,20.1568 17.7496,5.3978 35.8936,5.3978 C48.5826,5.3978 65.2236,19.4458 74.0136,27.8208 L75.0066,28.7668 L75.9996,27.8208 C84.7896,19.4458 101.4286,5.3978 114.1206,5.3978 C132.2636,5.3978 147.0236,20.1568 147.0236,38.3008 C147.0236,56.4448 132.2636,71.2038 114.1206,71.2038" id="Fill-86" fill="#E98875" mask="url(#mask-2)"></path>
                    </g>
                    <g id="Group-91">
                        <mask id="mask-4" fill="white">
                            <use xlink:href="#path-3"></use>
                        </mask>
                        <g id="Clip-90"></g>
                        <path d="M64.5332,39.3496 C64.5332,39.3496 74.5262,29.1696 76.6742,27.1816 C78.8212,25.1936 73.5662,24.0826 73.5662,24.0826 L61.0472,36.3996 L64.5332,39.3496 Z" id="Fill-89" fill="#FFFFFE" mask="url(#mask-4)"></path>
                    </g>
                    <g id="Group-94">
                        <mask id="mask-6" fill="white">
                            <use xlink:href="#path-5"></use>
                        </mask>
                        <g id="Clip-93"></g>
                        <path d="M16.3926,38.3008 C16.3926,27.5478 25.1406,18.7998 35.8936,18.7998 C40.6236,18.7998 50.1406,24.5408 60.0486,33.1818 C60.2166,33.0228 60.3816,32.8738 60.5506,32.7128 L61.6416,31.6698 L60.5486,30.6288 C49.1286,19.7568 37.3536,12.1628 31.9116,12.1628 C21.1586,12.1628 12.4106,20.9108 12.4106,31.6638 C12.4106,36.7168 14.3586,41.3128 17.5226,44.7798 C16.8036,42.7488 16.3926,40.5738 16.3926,38.3008" id="Fill-92" fill="#E47460" mask="url(#mask-6)"></path>
                    </g>
                    <g id="Group-97">
                        <mask id="mask-8" fill="white">
                            <use xlink:href="#path-7"></use>
                        </mask>
                        <g id="Clip-96"></g>
                        <path d="M85.9824,36.7822 C98.4514,24.9812 109.5424,18.8002 114.1204,18.8002 C119.8194,18.8002 124.9384,21.2722 128.5074,25.1832 C125.8274,17.6112 118.6154,12.1632 110.1374,12.1632 C105.4984,12.1632 94.1704,18.5012 81.4984,30.6142 L80.4074,31.6572 L81.5004,32.6982 C82.9934,34.1202 84.4924,35.4812 85.9824,36.7822" id="Fill-95" fill="#E47460" mask="url(#mask-8)"></path>
                    </g>
                    <g id="Group-100">
                        <mask id="mask-10" fill="white">
                            <use xlink:href="#path-9"></use>
                        </mask>
                        <g id="Clip-99"></g>
                        <path d="M140.1562,18.2168 C142.0042,22.3248 143.0412,26.8738 143.0412,31.6638 C143.0412,49.8078 128.2812,64.5678 110.1372,64.5678 C97.4472,64.5678 80.8062,50.5188 72.0172,42.1438 L71.0242,41.1968 L70.0312,42.1438 C61.2412,50.5188 44.5992,64.5678 31.9112,64.5678 C21.3252,64.5678 11.8982,59.5378 5.8752,51.7478 C11.0272,63.2038 22.5392,71.2038 35.8932,71.2038 C48.5822,71.2038 65.2232,57.1548 74.0132,48.7798 L75.0072,47.8338 L76.0002,48.7798 C84.7892,57.1548 101.4292,71.2038 114.1202,71.2038 C132.2632,71.2038 147.0232,56.4448 147.0232,38.3008 C147.0232,30.7428 144.4562,23.7778 140.1562,18.2168" id="Fill-98" fill="#E47460" mask="url(#mask-10)"></path>
                    </g>
                    <g id="Group-103">
                        <mask id="mask-12" fill="white">
                            <use xlink:href="#path-11"></use>
                        </mask>
                        <g id="Clip-102"></g>
                        <path d="M80.4072,31.6572 C80.4072,31.6572 72.3642,39.9222 71.0242,41.1972 C69.6842,42.4722 75.0762,44.9862 75.0762,44.9862 L86.0152,34.0462 L80.4072,31.6572 Z" id="Fill-101" fill="#E47460" mask="url(#mask-12)"></path>
                    </g>
                </g>
                <g id="Group-127" transform="translate(14.000000, 15.000000)">
                    <path d="M35.4531,47.9219 C26.0461,47.9219 18.3921,55.5749 18.3921,64.9829 C18.3921,74.3889 26.0461,82.0419 35.4531,82.0419 C38.8531,82.0419 49.1571,76.7449 61.6431,64.9919 C49.8171,53.8979 39.3761,47.9219 35.4531,47.9219 M35.4531,84.0419 C24.9431,84.0419 16.3921,75.4919 16.3921,64.9829 C16.3921,54.4719 24.9431,45.9219 35.4531,45.9219 C40.7071,45.9219 52.6231,53.6369 63.7871,64.2659 C63.9851,64.4549 64.0981,64.7159 64.0981,64.9889 C64.0981,65.2629 63.9861,65.5249 63.7891,65.7139 C51.3331,77.6179 39.8921,84.0419 35.4531,84.0419 M87.4891,64.9719 C99.3151,76.0659 109.7571,82.0419 113.6801,82.0419 C123.0861,82.0419 130.7391,74.3889 130.7391,64.9829 C130.7391,55.5749 123.0861,47.9219 113.6801,47.9219 C110.2781,47.9219 99.9741,53.2189 87.4891,64.9719 M113.6801,84.0419 C108.4261,84.0419 96.5101,76.3269 85.3461,65.6979 C85.1471,65.5089 85.0351,65.2479 85.0351,64.9749 C85.0351,64.7009 85.1461,64.4399 85.3441,64.2509 C97.7991,52.3459 109.2391,45.9219 113.6801,45.9219 C124.1891,45.9219 132.7391,54.4719 132.7391,64.9829 C132.7391,75.4919 124.1891,84.0419 113.6801,84.0419 M74.5661,75.5049 C74.8141,75.5049 75.0631,75.5969 75.2561,75.7809 C84.0931,84.2009 100.8361,98.3259 113.6801,98.3259 C132.0651,98.3259 147.0231,83.3679 147.0231,64.9829 C147.0231,46.5969 132.0651,31.6389 113.6801,31.6389 C100.8351,31.6389 84.0931,45.7629 75.2561,54.1829 C74.8711,54.5509 74.2621,54.5509 73.8771,54.1829 C65.0391,45.7629 48.2961,31.6389 35.4531,31.6389 C17.0671,31.6389 2.1091,46.5969 2.1091,64.9829 C2.1091,83.3679 17.0671,98.3259 35.4531,98.3259 C48.2951,98.3259 65.0391,84.2009 73.8771,75.7809 C74.0691,75.5969 74.3181,75.5049 74.5661,75.5049 M113.6801,100.3259 C100.4751,100.3259 83.7831,86.5659 74.5661,77.8819 C65.3491,86.5659 48.6551,100.3259 35.4531,100.3259 C15.9651,100.3259 0.1091,84.4709 0.1091,64.9829 C0.1091,45.4939 15.9651,29.6389 35.4531,29.6389 C48.6551,29.6389 65.3491,43.3989 74.5661,52.0819 C83.7821,43.3989 100.4741,29.6389 113.6801,29.6389 C133.1681,29.6389 149.0231,45.4939 149.0231,64.9829 C149.0231,84.4709 133.1681,100.3259 113.6801,100.3259" id="Fill-105" fill="#5A7A8E"></path>
                    <path d="M62.748,66.3223 C62.492,66.3223 62.236,66.2253 62.042,66.0303 C61.65,65.6393 61.65,65.0073 62.04,64.6153 L74.311,52.3223 C74.701,51.9313 75.336,51.9313 75.725,52.3223 C76.116,52.7123 76.116,53.3443 75.727,53.7363 L63.456,66.0293 C63.261,66.2243 63.004,66.3223 62.748,66.3223" id="Fill-107" fill="#5A7A8E"></path>
                    <path d="M74.5664,77.5049 C74.3114,77.5049 74.0564,77.4079 73.8614,77.2139 C73.4694,76.8239 73.4674,76.1919 73.8574,75.7999 L85.3264,64.2689 C85.7154,63.8769 86.3484,63.8759 86.7404,64.2649 C87.1314,64.6539 87.1334,65.2869 86.7444,65.6789 L75.2754,77.2099 C75.0804,77.4069 74.8234,77.5049 74.5664,77.5049" id="Fill-109" fill="#5A7A8E"></path>
                    <path d="M62.748,65.3223 L75.019,53.0293" id="Fill-111" fill="#FFFFFE"></path>
                    <path d="M62.748,66.3223 C62.492,66.3223 62.236,66.2253 62.042,66.0303 C61.65,65.6393 61.65,65.0073 62.04,64.6153 L74.311,52.3223 C74.701,51.9313 75.336,51.9313 75.725,52.3223 C76.116,52.7123 76.116,53.3443 75.727,53.7363 L63.456,66.0293 C63.261,66.2243 63.004,66.3223 62.748,66.3223" id="Fill-113" fill="#5A7A8E"></path>
                    <path d="M86.0352,64.9736 L74.5662,76.5046" id="Fill-115" fill="#FFFFFE"></path>
                    <path d="M74.5664,77.5049 C74.3114,77.5049 74.0564,77.4079 73.8614,77.2139 C73.4694,76.8239 73.4674,76.1919 73.8574,75.7999 L85.3264,64.2689 C85.7154,63.8769 86.3484,63.8759 86.7404,64.2649 C87.1314,64.6539 87.1334,65.2869 86.7444,65.6789 L75.2754,77.2099 C75.0804,77.4069 74.8234,77.5049 74.5664,77.5049" id="Fill-117" fill="#5A7A8E"></path>
                    <path d="M113.627,11.541 C113.627,11.541 117.134,10.74 118.563,6.142 C120.208,0.847 126.606,1.937 128.617,1.937 C130.627,1.937 137.391,7.336 139.586,8.524 C141.779,9.713 145.71,11.449 147.813,11.541 C149.914,11.632 151.834,11.815 151.743,13.095 C151.65,14.374 143.517,19.493 137.849,20.225 C132.182,20.956 130.171,19.493 130.171,19.493 C130.171,19.493 127.611,21.047 124.046,21.047 C120.481,21.047 113.627,15.745 113.627,15.745 L113.627,11.541 Z" id="Fill-119" fill="#FFFFFE"></path>
                    <path d="M114.627,15.2485 C116.735,16.8215 121.572,20.0465 124.046,20.0465 C127.266,20.0465 129.631,18.6505 129.654,18.6365 C130.001,18.4305 130.437,18.4495 130.76,18.6845 C130.76,18.6845 131.926,19.4295 134.874,19.4295 C135.753,19.4295 136.71,19.3635 137.721,19.2325 C142.791,18.5785 149.697,14.2695 150.699,12.9775 C150.425,12.7645 149.436,12.6125 147.77,12.5405 C145.299,12.4325 141.024,10.4415 139.109,9.4035 C138.336,8.9845 137.106,8.1275 135.681,7.1365 C133.573,5.6685 129.649,2.9365 128.617,2.9365 C128.356,2.9365 128.024,2.9195 127.642,2.8995 C127.158,2.8745 126.586,2.8435 125.965,2.8435 C122.328,2.8435 120.279,3.9855 119.518,6.4385 C118.346,10.2115 115.888,11.7095 114.627,12.2475 L114.627,15.2485 Z M124.046,22.0465 C120.249,22.0465 113.744,17.1005 113.015,16.5365 C112.771,16.3465 112.627,16.0545 112.627,15.7455 L112.627,11.5405 C112.627,11.0745 112.949,10.6695 113.404,10.5655 C113.518,10.5385 116.382,9.7915 117.607,5.8445 C118.639,2.5265 121.45,0.8435 125.965,0.8435 C126.624,0.8435 127.233,0.8755 127.746,0.9025 C128.088,0.9205 128.384,0.9365 128.617,0.9365 C130.162,0.9365 132.869,2.7415 136.824,5.4955 C138.142,6.4125 139.387,7.2795 140.063,7.6445 C142.55,8.9935 146.127,10.4665 147.856,10.5415 C149.768,10.6245 151.418,10.7695 152.255,11.7065 C152.612,12.1075 152.78,12.6125 152.74,13.1655 C152.576,15.4275 143.194,20.5425 137.977,21.2165 C136.882,21.3575 135.838,21.4295 134.874,21.4295 C132.401,21.4295 130.919,20.9615 130.173,20.6255 C129.197,21.1085 126.931,22.0465 124.046,22.0465 Z" id="Fill-121" fill="#5A7A8E"></path>
                    <path d="M108.7832,11.541 C108.7832,11.541 105.2772,10.74 103.8482,6.142 C102.2032,0.847 95.8042,1.937 93.7932,1.937 C91.7832,1.937 85.0192,7.336 82.8242,8.524 C80.6312,9.713 76.7002,11.449 74.5972,11.541 C72.4962,11.632 70.5762,11.815 70.6682,13.095 C70.7592,14.374 78.8932,19.493 84.5612,20.225 C90.2282,20.956 92.2402,19.493 92.2402,19.493 C92.2402,19.493 94.7992,21.047 98.3642,21.047 C101.9292,21.047 108.7832,15.745 108.7832,15.745 L108.7832,11.541 Z" id="Fill-123" fill="#FFFFFE"></path>
                    <path d="M92.249,18.499 C92.427,18.499 92.604,18.544 92.76,18.638 C92.78,18.651 95.145,20.047 98.364,20.047 C100.838,20.047 105.675,16.821 107.783,15.249 L107.783,12.248 C106.522,11.709 104.065,10.211 102.894,6.438 C102.132,3.986 100.083,2.844 96.445,2.844 C95.825,2.844 95.252,2.874 94.769,2.899 C94.386,2.92 94.055,2.936 93.793,2.936 C92.761,2.936 88.837,5.668 86.729,7.136 C85.305,8.128 84.074,8.985 83.301,9.404 C81.386,10.441 77.111,12.432 74.642,12.54 C73.003,12.611 72.02,12.759 71.713,12.98 C72.719,14.273 79.621,18.579 84.689,19.233 C85.7,19.363 86.658,19.429 87.536,19.429 C90.494,19.429 91.658,18.68 91.669,18.672 C91.842,18.558 92.046,18.499 92.249,18.499 M98.364,22.047 C95.479,22.047 93.214,21.109 92.238,20.626 C91.492,20.961 90.009,21.429 87.536,21.429 C86.572,21.429 85.528,21.358 84.434,21.216 C79.213,20.542 69.831,15.426 69.671,13.166 C69.631,12.613 69.799,12.108 70.156,11.707 C70.992,10.77 72.643,10.624 74.555,10.542 C76.283,10.466 79.86,8.993 82.348,7.645 C83.023,7.279 84.269,6.413 85.586,5.495 C89.541,2.741 92.248,0.937 93.793,0.937 C94.026,0.937 94.321,0.92 94.664,0.902 C95.177,0.875 95.786,0.844 96.445,0.844 C100.96,0.844 103.772,2.526 104.804,5.845 C106.03,9.791 108.893,10.538 109.014,10.568 C109.461,10.678 109.783,11.081 109.783,11.541 L109.783,15.745 C109.783,16.055 109.64,16.347 109.395,16.536 C108.666,17.1 102.161,22.047 98.364,22.047" id="Fill-125" fill="#5A7A8E"></path>
                </g>
                <g id="Group-134" transform="translate(127.000000, 16.000000)">
                    <g id="Group-130">
                        <mask id="mask-14" fill="white">
                            <use xlink:href="#path-13"></use>
                        </mask>
                        <g id="Clip-129"></g>
                        <path d="M1.6582,13.791 C1.6582,13.791 5.1652,12.99 6.5942,8.392 C8.2392,3.097 14.6372,4.187 16.6482,4.187 C18.6582,4.187 25.4222,9.586 27.6172,10.774 C29.8102,11.963 33.7412,13.699 35.8442,13.791 C37.9452,13.882 39.8652,14.065 39.7742,15.345 C39.6812,16.624 31.5482,21.743 25.8802,22.475 C20.2132,23.206 18.2022,21.743 18.2022,21.743 C18.2022,21.743 15.6422,23.297 12.0772,23.297 C8.5122,23.297 1.6582,17.995 1.6582,17.995 L1.6582,13.791 Z" id="Fill-128" fill="#E98875" mask="url(#mask-14)"></path>
                    </g>
                    <g id="Group-133">
                        <mask id="mask-16" fill="white">
                            <use xlink:href="#path-15"></use>
                        </mask>
                        <g id="Clip-132"></g>
                        <path d="M35.8437,13.791 C34.8527,13.748 33.4527,13.333 32.0227,12.789 C29.3537,14.224 26.1387,15.547 23.4637,15.892 C17.7967,16.623 15.7857,15.16 15.7857,15.16 C15.7857,15.16 13.2267,16.714 9.6607,16.714 C7.6507,16.714 4.5947,15.027 2.3107,13.557 C1.9147,13.729 1.6577,13.791 1.6577,13.791 L1.6577,17.995 C1.6577,17.995 8.5127,23.297 12.0767,23.297 C15.6427,23.297 18.2017,21.743 18.2017,21.743 C18.2017,21.743 20.2127,23.206 25.8797,22.475 C31.5477,21.743 39.6817,16.624 39.7747,15.345 C39.8647,14.065 37.9457,13.882 35.8437,13.791" id="Fill-131" fill="#E47460" mask="url(#mask-16)"></path>
                    </g>
                </g>
                <path d="M128.627,30.2485 C130.735,31.8215 135.572,35.0465 138.046,35.0465 C141.266,35.0465 143.631,33.6505 143.654,33.6365 C144.001,33.4305 144.437,33.4495 144.76,33.6845 C144.76,33.6845 145.926,34.4295 148.874,34.4295 C149.753,34.4295 150.71,34.3635 151.721,34.2325 C156.791,33.5785 163.697,29.2695 164.699,27.9775 C164.425,27.7645 163.436,27.6125 161.77,27.5405 C159.299,27.4325 155.024,25.4415 153.109,24.4035 C152.336,23.9845 151.106,23.1275 149.681,22.1365 C147.573,20.6685 143.649,17.9365 142.617,17.9365 C142.356,17.9365 142.024,17.9195 141.642,17.8995 C141.158,17.8745 140.586,17.8435 139.965,17.8435 C136.328,17.8435 134.279,18.9855 133.518,21.4385 C132.346,25.2115 129.888,26.7095 128.627,27.2475 L128.627,30.2485 Z M138.046,37.0465 C134.249,37.0465 127.744,32.1005 127.015,31.5365 C126.771,31.3465 126.627,31.0545 126.627,30.7455 L126.627,26.5405 C126.627,26.0745 126.949,25.6695 127.404,25.5655 C127.518,25.5385 130.382,24.7915 131.607,20.8445 C132.639,17.5265 135.45,15.8435 139.965,15.8435 C140.624,15.8435 141.233,15.8755 141.746,15.9025 C142.088,15.9205 142.384,15.9365 142.617,15.9365 C144.162,15.9365 146.869,17.7415 150.824,20.4955 C152.142,21.4125 153.387,22.2795 154.063,22.6445 C156.55,23.9935 160.127,25.4665 161.856,25.5415 C163.768,25.6245 165.418,25.7695 166.255,26.7065 C166.612,27.1075 166.78,27.6125 166.74,28.1655 C166.576,30.4275 157.194,35.5425 151.977,36.2165 C150.882,36.3575 149.838,36.4295 148.874,36.4295 C146.401,36.4295 144.919,35.9615 144.173,35.6255 C143.197,36.1085 140.931,37.0465 138.046,37.0465 Z" id="Fill-135" fill="#5A7A8E"></path>
                <g id="Group-143" transform="translate(84.000000, 16.000000)">
                    <g id="Group-139">
                        <mask id="mask-18" fill="white">
                            <use xlink:href="#path-17"></use>
                        </mask>
                        <g id="Clip-138"></g>
                        <path d="M38.6562,14.291 C38.6562,14.291 35.1502,13.49 33.7212,8.892 C32.0762,3.597 25.6772,4.687 23.6662,4.687 C21.6562,4.687 14.8922,10.086 12.6972,11.274 C10.5042,12.463 6.5732,14.199 4.4702,14.291 C2.3692,14.382 0.4492,14.565 0.5412,15.845 C0.6322,17.124 8.7662,22.243 14.4342,22.975 C20.1012,23.706 22.1132,22.243 22.1132,22.243 C22.1132,22.243 24.6722,23.797 28.2372,23.797 C31.8022,23.797 38.6562,18.495 38.6562,18.495 L38.6562,14.291 Z" id="Fill-137" fill="#E98875" mask="url(#mask-18)"></path>
                    </g>
                    <g id="Group-142">
                        <mask id="mask-20" fill="white">
                            <use xlink:href="#path-19"></use>
                        </mask>
                        <g id="Clip-141"></g>
                        <path d="M36.0371,12.7363 C33.7691,14.3033 29.7791,16.7973 27.3341,16.7973 C23.7681,16.7973 21.2101,15.2433 21.2101,15.2433 C21.2101,15.2433 19.1981,16.7063 13.5311,15.9743 C11.4501,15.7063 9.0371,14.8433 6.8111,13.7983 C5.9321,14.0713 5.1111,14.2623 4.4711,14.2913 C2.3691,14.3823 0.4491,14.5653 0.5411,15.8443 C0.6321,17.1243 8.7661,22.2433 14.4341,22.9743 C20.1011,23.7063 22.1131,22.2433 22.1131,22.2433 C22.1131,22.2433 24.6721,23.7973 28.2371,23.7973 C31.8021,23.7973 38.6561,18.4953 38.6561,18.4953 L38.6561,14.2913 C38.6561,14.2913 37.3691,13.9903 36.0371,12.7363" id="Fill-140" fill="#E47460" mask="url(#mask-20)"></path>
                    </g>
                </g>
                <g id="Group-162" transform="translate(83.000000, 3.000000)">
                    <path d="M23.249,30.499 C23.427,30.499 23.604,30.544 23.76,30.638 C23.78,30.651 26.145,32.047 29.364,32.047 C31.838,32.047 36.675,28.821 38.783,27.249 L38.783,24.248 C37.522,23.709 35.065,22.211 33.894,18.438 C33.132,15.986 31.083,14.844 27.445,14.844 C26.825,14.844 26.252,14.874 25.769,14.899 C25.386,14.92 25.055,14.936 24.793,14.936 C23.761,14.936 19.837,17.668 17.729,19.136 C16.305,20.128 15.074,20.985 14.301,21.404 C12.386,22.441 8.111,24.432 5.642,24.54 C4.003,24.611 3.02,24.759 2.713,24.98 C3.719,26.273 10.621,30.579 15.689,31.233 C16.7,31.363 17.658,31.429 18.536,31.429 C21.494,31.429 22.658,30.68 22.669,30.672 C22.842,30.558 23.046,30.499 23.249,30.499 M29.364,34.047 C26.479,34.047 24.214,33.109 23.238,32.626 C22.492,32.961 21.009,33.429 18.536,33.429 C17.572,33.429 16.528,33.358 15.434,33.216 C10.213,32.542 0.831,27.426 0.671,25.166 C0.631,24.613 0.799,24.108 1.156,23.707 C1.992,22.77 3.643,22.624 5.555,22.542 C7.283,22.466 10.86,20.993 13.348,19.645 C14.023,19.279 15.269,18.413 16.586,17.495 C20.541,14.741 23.248,12.937 24.793,12.937 C25.026,12.937 25.321,12.92 25.664,12.902 C26.177,12.875 26.786,12.844 27.445,12.844 C31.96,12.844 34.772,14.526 35.804,17.845 C37.03,21.791 39.893,22.538 40.014,22.568 C40.461,22.678 40.783,23.081 40.783,23.541 L40.783,27.745 C40.783,28.055 40.64,28.347 40.395,28.536 C39.666,29.1 33.161,34.047 29.364,34.047" id="Fill-144" fill="#5A7A8E"></path>
                    <path d="M41.0029,78.3994 C42.4219,78.3994 43.7529,77.5234 44.2659,76.1134 C44.9239,74.3114 43.9939,72.3174 42.1919,71.6614 C37.4319,69.9264 36.2579,68.4804 36.0149,68.0914 C36.5509,67.2294 39.8199,64.9874 46.8959,64.2654 C55.2269,63.4154 60.3069,60.1134 60.4839,55.4314 C60.6009,52.3374 58.3219,48.6004 51.5769,47.3914 C50.4039,47.1814 49.0759,46.9574 47.6509,46.7164 C43.4359,46.0044 38.1899,45.1194 33.7979,44.0434 C29.6269,43.0224 27.6109,42.1654 26.6629,41.6394 C27.9629,41.1724 30.3059,40.8014 32.2959,40.8014 C34.2149,40.8014 35.7699,39.2474 35.7699,37.3284 C35.7699,35.4094 34.2149,33.8544 32.2959,33.8544 C30.1179,33.8544 22.8049,34.1614 20.1069,38.1114 C18.9549,39.7954 18.7629,41.8504 19.5629,43.9014 C21.3899,48.5874 29.3479,50.6704 46.4929,53.5664 C47.8949,53.8024 49.1999,54.0244 50.3529,54.2314 C51.8889,54.5054 52.7959,54.9374 53.2579,55.2494 C52.4999,55.8544 50.4509,56.9204 46.1909,57.3544 C34.3319,58.5634 29.5729,63.2804 29.0739,67.2914 C28.5229,71.7234 32.1359,75.3904 39.8139,78.1884 C40.2069,78.3324 40.6079,78.3994 41.0029,78.3994" id="Fill-146" fill="#FFFFFE"></path>
                    <path d="M32.2959,34.8545 C28.0649,34.8545 22.8569,35.8585 20.9329,38.6755 C19.9739,40.0775 19.8179,41.8045 20.4939,43.5385 C22.1349,47.7455 30.2379,49.8065 46.6599,52.5805 C48.0649,52.8175 49.3739,53.0395 50.5289,53.2475 C52.2709,53.5585 53.2779,54.0565 53.8169,54.4195 C54.0809,54.5975 54.2439,54.8905 54.2569,55.2085 C54.2699,55.5265 54.1309,55.8315 53.8819,56.0305 C53.2159,56.5625 51.1419,57.8545 46.2929,58.3495 C35.0179,59.4985 30.5179,63.7855 30.0669,67.4145 C29.5799,71.3235 32.9749,74.6315 40.1559,77.2495 C41.4109,77.7075 42.8729,77.0165 43.3259,75.7715 C43.5529,75.1495 43.5249,74.4785 43.2449,73.8795 C42.9659,73.2815 42.4709,72.8265 41.8509,72.6005 C37.1239,70.8785 35.6339,69.3695 35.1669,68.6225 C34.9649,68.2985 34.9639,67.8885 35.1649,67.5635 C35.9939,66.2305 39.7749,63.9865 46.7939,63.2715 C54.5839,62.4755 59.3279,59.5305 59.4849,55.3935 C59.5859,52.7195 57.5149,49.4715 51.3999,48.3755 C50.2319,48.1665 48.9059,47.9425 47.4849,47.7025 C43.2539,46.9885 37.9879,46.0995 33.5599,45.0145 C29.3129,43.9755 27.2009,43.0815 26.1789,42.5145 C25.8349,42.3245 25.6349,41.9505 25.6659,41.5595 C25.6979,41.1675 25.9559,40.8315 26.3249,40.6985 C27.7949,40.1705 30.2509,39.8015 32.2959,39.8015 C33.6599,39.8015 34.7699,38.6915 34.7699,37.3285 C34.7699,35.9645 33.6599,34.8545 32.2959,34.8545 M41.0029,79.3995 C40.4809,79.3995 39.9649,79.3085 39.4709,79.1275 C31.2969,76.1495 27.4649,72.1255 28.0819,67.1675 C28.6289,62.7745 33.6469,57.6285 46.0899,56.3595 C48.3019,56.1335 49.8389,55.7365 50.8689,55.3605 C50.6589,55.3095 50.4289,55.2605 50.1769,55.2155 C49.0259,55.0095 47.7249,54.7885 46.3269,54.5525 C28.4459,51.5315 20.6469,49.4345 18.6309,44.2645 C17.7069,41.8965 17.9389,39.5105 19.2809,37.5465 C22.2549,33.1925 29.9949,32.8545 32.2959,32.8545 C34.7629,32.8545 36.7699,34.8615 36.7699,37.3285 C36.7699,39.7945 34.7629,41.8015 32.2959,41.8015 C31.5889,41.8015 30.8049,41.8545 30.0379,41.9455 C31.0549,42.2815 32.3619,42.6625 34.0349,43.0715 C38.3939,44.1395 43.6189,45.0215 47.8179,45.7305 C49.2459,45.9715 50.5769,46.1965 51.7529,46.4075 C59.1289,47.7295 61.6149,51.9555 61.4829,55.4695 C61.2849,60.6945 55.8699,64.3545 46.9969,65.2605 C41.4599,65.8255 38.5419,67.3125 37.4109,68.1285 C38.0899,68.6965 39.5419,69.6315 42.5349,70.7215 C43.6569,71.1305 44.5539,71.9525 45.0579,73.0355 C45.5629,74.1195 45.6149,75.3335 45.2049,76.4565 C44.5659,78.2165 42.8759,79.3995 41.0029,79.3995" id="Fill-148" fill="#5A7A8E"></path>
                    <path d="M64.3037,38.1113 C61.6057,34.1613 54.2917,33.8543 52.1147,33.8543 C50.1967,33.8543 48.6407,35.4093 48.6407,37.3283 C48.6407,39.2473 50.1967,40.8013 52.1147,40.8013 C54.1047,40.8013 56.4477,41.1733 57.7467,41.6393 C56.7987,42.1653 54.7827,43.0223 50.6127,44.0433 C49.0417,44.4273 47.3607,44.7843 45.6577,45.1213 L45.6577,46.3793 C46.3397,46.4953 47.0107,46.6083 47.6517,46.7163 C49.0757,46.9573 50.4047,47.1813 51.5767,47.3913 C53.9117,47.8103 55.7007,48.5363 57.0507,49.4283 C61.4567,47.9553 63.9287,46.2573 64.8477,43.9013 C65.6477,41.8503 65.4547,39.7953 64.3037,38.1113" id="Fill-150" fill="#FFFFFE"></path>
                    <path d="M47.7393,45.7173 L47.8183,45.7313 C49.2463,45.9713 50.5773,46.1963 51.7533,46.4073 C53.8643,46.7863 55.6863,47.4313 57.1793,48.3283 C61.0713,46.9713 63.1563,45.4853 63.9163,43.5383 C64.5923,41.8043 64.4363,40.0773 63.4783,38.6753 C61.5533,35.8583 56.3453,34.8543 52.1143,34.8543 C50.7503,34.8543 49.6403,35.9643 49.6403,37.3283 C49.6403,38.6923 50.7503,39.8013 52.1143,39.8013 C54.1593,39.8013 56.6153,40.1703 58.0853,40.6983 C58.4543,40.8313 58.7123,41.1683 58.7443,41.5593 C58.7753,41.9503 58.5753,42.3243 58.2313,42.5143 C57.2093,43.0813 55.0973,43.9753 50.8493,45.0143 C49.9213,45.2423 48.8923,45.4743 47.7393,45.7173 M57.0513,50.4283 C56.8563,50.4283 56.6653,50.3723 56.4993,50.2623 C55.1613,49.3773 53.4453,48.7423 51.4003,48.3763 C50.2313,48.1663 48.9063,47.9423 47.4853,47.7033 L45.4903,47.3643 C45.0103,47.2823 44.6583,46.8663 44.6583,46.3793 L44.6583,45.1213 C44.6583,44.6433 44.9963,44.2333 45.4643,44.1403 C47.3883,43.7593 48.9953,43.4093 50.3743,43.0713 C52.0483,42.6623 53.3553,42.2813 54.3723,41.9463 C53.6053,41.8543 52.8213,41.8013 52.1143,41.8013 C49.6473,41.8013 47.6403,39.7953 47.6403,37.3283 C47.6403,34.8613 49.6473,32.8543 52.1143,32.8543 C54.4153,32.8543 62.1553,33.1933 65.1303,37.5473 C66.4713,39.5103 66.7033,41.8963 65.7793,44.2643 C64.7563,46.8883 62.1623,48.7743 57.3683,50.3773 C57.2643,50.4113 57.1573,50.4283 57.0513,50.4283" id="Fill-152" fill="#5A7A8E"></path>
                    <path d="M42.3174,1.5059 C37.7234,1.5059 34.0004,5.2299 34.0004,9.8229 C34.0004,13.1399 35.9454,15.9939 38.7534,17.3299 L38.7534,45.1209 C39.9024,45.3489 41.0604,45.5689 42.2054,45.7749 C43.3844,45.9869 44.5414,46.1879 45.6584,46.3789 L45.6584,45.1209 L45.6584,17.4389 C48.5874,16.1519 50.6354,13.2289 50.6354,9.8229 C50.6354,5.2299 46.9114,1.5059 42.3174,1.5059" id="Fill-154" fill="#FFFFFE"></path>
                    <path d="M39.7529,44.2979 C40.6309,44.4679 41.5109,44.6329 42.3819,44.7899 C43.1519,44.9289 43.9119,45.0629 44.6579,45.1919 L44.6579,17.4389 C44.6579,17.0419 44.8929,16.6829 45.2559,16.5229 C47.9169,15.3539 49.6359,12.7239 49.6359,9.8229 C49.6359,5.7889 46.3529,2.5059 42.3169,2.5059 C38.2819,2.5059 34.9999,5.7889 34.9999,9.8229 C34.9999,12.6259 36.6419,15.2179 39.1829,16.4269 C39.5309,16.5929 39.7529,16.9439 39.7529,17.3299 L39.7529,44.2979 Z M45.6579,47.3789 C45.6019,47.3789 45.5459,47.3739 45.4889,47.3649 C44.3689,47.1729 43.2099,46.9719 42.0269,46.7579 C40.8779,46.5519 39.7139,46.3309 38.5589,46.1019 C38.0909,46.0089 37.7529,45.5989 37.7529,45.1209 L37.7529,17.9369 C34.8459,16.2969 32.9999,13.1789 32.9999,9.8229 C32.9999,4.6859 37.1799,0.5059 42.3169,0.5059 C47.4549,0.5059 51.6359,4.6859 51.6359,9.8229 C51.6359,13.2949 49.7019,16.4619 46.6579,18.0659 L46.6579,46.3789 C46.6579,46.6739 46.5279,46.9539 46.3029,47.1439 C46.1209,47.2969 45.8929,47.3789 45.6579,47.3789 Z" id="Fill-156" fill="#5A7A8E"></path>
                    <path d="M57.0508,49.4287 C55.7008,48.5357 53.9118,47.8107 51.5768,47.3917 C50.4048,47.1817 49.0758,46.9567 47.6518,46.7167 C47.0108,46.6087 46.3398,46.4947 45.6578,46.3787 C44.5408,46.1877 43.3848,45.9877 42.2048,45.7747 C41.0608,45.5687 39.9028,45.3487 38.7528,45.1207 C37.0508,44.7847 35.3688,44.4277 33.7978,44.0427 C29.6268,43.0227 27.6118,42.1647 26.6628,41.6397 C27.9628,41.1727 30.3058,40.8017 32.2958,40.8017 C34.2148,40.8017 35.7698,39.2467 35.7698,37.3277 C35.7698,35.4087 34.2148,33.8547 32.2958,33.8547 C30.1178,33.8547 22.8048,34.1607 20.1068,38.1117 C18.9548,39.7947 18.7628,41.8507 19.5628,43.9017 C20.4808,46.2577 22.9528,47.9547 27.3598,49.4287 C30.2658,50.4017 34.0448,51.2777 38.7528,52.1797 C39.8578,52.3917 40.9958,52.6047 42.2048,52.8207 C43.3138,53.0177 44.4648,53.2187 45.6578,53.4227 C45.9388,53.4707 46.2068,53.5177 46.4928,53.5667 C47.8948,53.8027 49.1998,54.0247 50.3528,54.2317 C51.8888,54.5057 52.7958,54.9377 53.2578,55.2487 C52.4998,55.8547 50.4508,56.9197 46.1918,57.3547 C46.0068,57.3727 45.8398,57.4007 45.6578,57.4207 L45.6578,58.8117 C49.1198,59.8917 51.5398,61.3737 53.0958,62.9877 C57.6818,61.4467 60.3568,58.7987 60.4848,55.4317 C60.5608,53.4087 59.6018,51.1157 57.0508,49.4287" id="Fill-158" fill="#FFFFFE"></path>
                    <path d="M47.1338,58.2524 C49.7058,59.1814 51.7908,60.3834 53.3508,61.8364 C57.2098,60.4024 59.3808,58.1294 59.4858,55.3934 C59.5588,53.4364 58.4708,51.5664 56.4988,50.2624 C55.1608,49.3774 53.4458,48.7424 51.4008,48.3764 C50.2318,48.1664 48.9058,47.9424 47.4858,47.7024 L45.4898,47.3644 C44.3688,47.1724 43.2098,46.9724 42.0278,46.7584 C40.8778,46.5514 39.7138,46.3304 38.5588,46.1024 C36.6288,45.7214 34.9938,45.3654 33.5598,45.0144 C29.3128,43.9754 27.2008,43.0814 26.1788,42.5144 C25.8348,42.3244 25.6348,41.9504 25.6658,41.5594 C25.6978,41.1684 25.9558,40.8314 26.3248,40.6984 C27.7948,40.1704 30.2508,39.8014 32.2958,39.8014 C33.6598,39.8014 34.7698,38.6914 34.7698,37.3284 C34.7698,35.9644 33.6598,34.8544 32.2958,34.8544 C28.0648,34.8544 22.8568,35.8584 20.9328,38.6754 C19.9738,40.0774 19.8188,41.8044 20.4938,43.5384 C21.2808,45.5584 23.4958,47.0824 27.6768,48.4804 C30.3398,49.3714 33.9188,50.2344 38.9418,51.1974 C40.0418,51.4084 41.1768,51.6204 42.3808,51.8354 C43.4868,52.0324 44.6358,52.2334 45.8268,52.4374 L46.6608,52.5804 C48.0648,52.8174 49.3738,53.0394 50.5298,53.2474 C52.2708,53.5584 53.2788,54.0564 53.8178,54.4194 C54.0808,54.5974 54.2438,54.8904 54.2568,55.2084 C54.2698,55.5264 54.1308,55.8314 53.8818,56.0304 C53.2558,56.5304 51.3848,57.7024 47.1338,58.2524 M53.0958,63.9874 C52.8288,63.9874 52.5678,63.8804 52.3758,63.6814 C50.8188,62.0654 48.3928,60.7114 45.3608,59.7664 C44.9428,59.6354 44.6578,59.2494 44.6578,58.8114 L44.6578,57.4204 C44.6578,56.9124 45.0398,56.4844 45.5458,56.4274 L45.7598,56.3994 C45.8678,56.3854 45.9768,56.3714 46.0918,56.3594 C48.3028,56.1334 49.8398,55.7364 50.8688,55.3604 C50.6588,55.3094 50.4288,55.2604 50.1768,55.2154 C49.0268,55.0094 47.7248,54.7884 46.3268,54.5524 L45.4898,54.4084 C44.2938,54.2044 43.1408,54.0024 42.0298,53.8044 C40.8158,53.5874 39.6728,53.3744 38.5648,53.1614 C33.4528,52.1824 29.7908,51.2974 27.0418,50.3774 C22.2468,48.7734 19.6528,46.8884 18.6308,44.2644 C17.7068,41.8964 17.9388,39.5104 19.2808,37.5464 C22.2548,33.1924 29.9948,32.8544 32.2958,32.8544 C34.7628,32.8544 36.7698,34.8614 36.7698,37.3284 C36.7698,39.7944 34.7628,41.8014 32.2958,41.8014 C31.5888,41.8014 30.8048,41.8544 30.0378,41.9454 C31.0548,42.2814 32.3628,42.6624 34.0348,43.0714 C35.4398,43.4154 37.0458,43.7654 38.9458,44.1404 C40.0908,44.3664 41.2428,44.5854 42.3818,44.7904 C43.5598,45.0024 44.7128,45.2024 45.8268,45.3934 L47.8188,45.7314 C49.2458,45.9714 50.5768,46.1964 51.7528,46.4074 C54.0688,46.8224 56.0358,47.5584 57.6028,48.5944 C60.1698,50.2924 61.5838,52.7974 61.4838,55.4694 C61.3408,59.2284 58.4748,62.2344 53.4138,63.9354 C53.3098,63.9704 53.2018,63.9874 53.0958,63.9874" id="Fill-160" fill="#5A7A8E"></path>
                </g>
                <g id="Group-165" transform="translate(112.000000, 65.000000)">
                    <mask id="mask-22" fill="white">
                        <use xlink:href="#path-21"></use>
                    </mask>
                    <g id="Clip-164"></g>
                    <path d="M9.0195,3.8223 C9.0995,3.9493 9.2875,4.1943 9.6615,4.5223 C9.7085,4.0703 9.8245,3.4713 9.8645,3.0273 C9.4235,3.3433 9.1445,3.6203 9.0195,3.8223" id="Fill-163" fill="#E47460" mask="url(#mask-22)"></path>
                </g>
                <g id="Group-180" transform="translate(105.000000, 51.000000)">
                    <path d="M9.623,16.1362 C8.74,17.1822 8.205,18.3062 8.066,19.4152 C7.605,23.1202 10.651,26.2952 17.12,28.8512 C17.49,28.9972 17.814,29.1252 18.154,29.2482 C18.693,29.4452 19.266,29.4562 19.857,29.2372 C20.545,28.9822 21.08,28.4482 21.326,27.7722 C21.792,26.4952 21.134,25.0752 19.859,24.6052 C19.843,24.5992 19.826,24.5922 19.81,24.5852 C18.48,24.1012 17.284,23.5822 16.286,23.0552 C14.212,21.9592 13.442,21.0612 13.167,20.6232 C12.965,20.2992 12.964,19.8882 13.165,19.5642 C13.55,18.9452 14.477,18.2472 15.753,17.6082 L15.753,17.2972 C15.641,17.2842 15.527,17.2722 15.412,17.2602 C13.312,17.0462 11.369,16.6692 9.623,16.1362 M19.003,31.3992 C18.48,31.3992 17.965,31.3082 17.471,31.1282 C17.114,30.9982 16.773,30.8642 16.434,30.7302 C8.96,27.7782 5.494,23.8942 6.082,19.1672 C6.294,17.4642 7.163,15.7782 8.595,14.2932 C8.862,14.0152 9.268,13.9162 9.633,14.0392 C11.394,14.6312 13.408,15.0462 15.616,15.2712 C16.056,15.3162 16.478,15.3672 16.889,15.4232 C17.384,15.4912 17.753,15.9142 17.753,16.4142 L17.753,18.2402 C17.753,18.6342 17.522,18.9902 17.163,19.1522 C16.346,19.5202 15.781,19.8622 15.414,20.1272 C15.77,20.4232 16.337,20.8202 17.22,21.2862 C18.141,21.7732 19.256,22.2562 20.534,22.7212 C20.55,22.7272 20.566,22.7332 20.583,22.7402 C22.868,23.6022 24.044,26.1592 23.205,28.4562 C22.759,29.6832 21.792,30.6522 20.554,31.1122 C20.039,31.3032 19.518,31.3992 19.003,31.3992" id="Fill-166" fill="#5A7A8E"></path>
                    <path d="M20.2051,4.8203 C18.9961,4.6043 17.8571,4.3913 16.7531,4.1793 L16.7531,5.4233 L16.7531,9.4213 C17.9761,9.5593 19.1341,9.7313 20.2051,9.9413 C21.4611,10.1873 22.6031,10.4823 23.6581,10.8113 L23.6581,9.4213 L23.6581,5.4233 C22.4651,5.2183 21.3131,5.0173 20.2051,4.8203" id="Fill-168" fill="#FFFFFE"></path>
                    <path d="M17.7529,8.5352 C18.6969,8.6582 19.5839,8.8012 20.3979,8.9602 C21.1749,9.1122 21.9229,9.2852 22.6579,9.4812 L22.6579,6.2652 C21.7569,6.1102 20.8809,5.9562 20.0299,5.8052 C19.2439,5.6642 18.4889,5.5262 17.7529,5.3882 L17.7529,8.5352 Z M23.6579,11.8112 C23.5589,11.8112 23.4579,11.7962 23.3599,11.7662 C22.2739,11.4272 21.1789,11.1512 20.0129,10.9232 C19.0009,10.7242 17.8659,10.5542 16.6409,10.4142 C16.1349,10.3572 15.7529,9.9302 15.7529,9.4212 L15.7529,4.1802 C15.7529,3.8812 15.8859,3.5982 16.1159,3.4092 C16.3459,3.2192 16.6479,3.1402 16.9409,3.1982 C18.0419,3.4092 19.1769,3.6212 20.3809,3.8362 C21.4859,4.0332 22.6359,4.2332 23.8269,4.4372 C24.3069,4.5192 24.6579,4.9352 24.6579,5.4232 L24.6579,10.8112 C24.6579,11.1292 24.5069,11.4292 24.2509,11.6172 C24.0769,11.7452 23.8689,11.8112 23.6579,11.8112 Z" id="Fill-170" fill="#5A7A8E"></path>
                    <path d="M33.3359,19.291 C33.1599,17.882 32.4449,16.388 31.0959,14.987 C29.5399,13.374 27.1199,11.892 23.6579,10.812 C22.6039,10.482 21.4609,10.187 20.2049,9.941 C19.1339,9.731 17.9769,9.56 16.7529,9.421 C16.5709,9.4 16.4039,9.373 16.2189,9.354 C11.9589,8.92 9.9099,7.854 9.1519,7.249 C9.6129,6.937 10.5219,6.506 12.0589,6.231 C13.2099,6.024 14.5169,5.803 15.9169,5.566 C16.2039,5.518 16.4729,5.471 16.7529,5.423 L16.7529,4.18 C12.0449,3.277 8.2659,2.401 5.3589,1.429 C2.8089,3.115 1.8499,5.409 1.9259,7.432 C2.0539,10.799 4.7289,13.446 9.3149,14.987 C11.1049,15.589 13.1759,16.027 15.5149,16.266 C15.9419,16.31 16.3539,16.359 16.7529,16.414 C18.0429,16.588 19.1909,16.813 20.2049,17.068 C21.6079,17.422 22.7469,17.831 23.6579,18.24 C25.2619,18.962 26.1429,19.682 26.3959,20.092 C26.2269,20.361 25.6069,21.14 23.6579,22.17 L23.6579,29.78 C30.6009,27.037 33.8609,23.513 33.3359,19.291" id="Fill-172" fill="#FFFFFE"></path>
                    <path d="M24.6582,22.7607 L24.6582,28.2787 C30.1862,25.8257 32.7702,22.8477 32.3442,19.4147 C32.1852,18.1437 31.5052,16.8527 30.3762,15.6807 C28.8182,14.0657 26.3922,12.7117 23.3602,11.7657 C22.2742,11.4277 21.1792,11.1517 20.0122,10.9227 C19.0012,10.7247 17.8662,10.5537 16.6402,10.4147 L16.1192,10.3497 C11.2682,9.8547 9.1942,8.5627 8.5282,8.0307 C8.2792,7.8317 8.1402,7.5267 8.1532,7.2087 C8.1662,6.8917 8.3292,6.5987 8.5932,6.4207 C9.1302,6.0567 10.1372,5.5587 11.8832,5.2467 C12.7152,5.0977 13.6282,4.9407 14.5982,4.7757 C10.7642,4.0007 7.8352,3.2767 5.5232,2.5347 C3.7982,3.8197 2.8562,5.5687 2.9252,7.3937 C3.0342,10.2617 5.4162,12.6227 9.6332,14.0397 C11.3942,14.6317 13.4082,15.0457 15.6162,15.2707 C16.0552,15.3157 16.4782,15.3667 16.8882,15.4237 C18.1382,15.5917 19.3372,15.8187 20.4492,16.0987 C21.7812,16.4337 22.9982,16.8477 24.0672,17.3277 C25.6492,18.0397 26.8082,18.8557 27.2472,19.5667 C27.4462,19.8907 27.4452,20.3007 27.2432,20.6227 C26.9932,21.0207 26.3352,21.7987 24.6582,22.7607 M23.6582,30.7807 C23.4602,30.7807 23.2632,30.7217 23.0962,30.6067 C22.8222,30.4207 22.6582,30.1117 22.6582,29.7807 L22.6582,22.1697 C22.6582,21.7997 22.8632,21.4587 23.1902,21.2857 C24.0742,20.8187 24.6402,20.4217 24.9962,20.1267 C24.6302,19.8627 24.0662,19.5207 23.2482,19.1527 C22.2852,18.7197 21.1792,18.3447 19.9612,18.0377 C18.9222,17.7767 17.7982,17.5637 16.6192,17.4057 C16.2282,17.3517 15.8282,17.3027 15.4122,17.2607 C13.0572,17.0207 10.8982,16.5747 8.9962,15.9347 C3.9352,14.2347 1.0692,11.2277 0.9272,7.4697 C0.8262,4.7977 2.2402,2.2917 4.8072,0.5947 C5.0642,0.4237 5.3852,0.3827 5.6772,0.4807 C8.3402,1.3717 11.9192,2.2347 16.9412,3.1977 C17.4122,3.2877 17.7532,3.6997 17.7532,4.1797 L17.7532,5.4227 C17.7532,5.9097 17.4012,6.3267 16.9212,6.4087 L16.0852,6.5527 C14.6862,6.7877 13.3842,7.0097 12.2352,7.2157 C11.9832,7.2607 11.7522,7.3097 11.5412,7.3607 C12.5712,7.7367 14.1082,8.1337 16.3202,8.3597 C16.4332,8.3707 16.5432,8.3857 16.6522,8.4007 L16.8652,8.4277 C18.1452,8.5727 19.3332,8.7517 20.3972,8.9597 C21.6362,9.2027 22.8002,9.4957 23.9562,9.8567 C27.3552,10.9177 30.0002,12.4097 31.8152,14.2927 C33.2472,15.7787 34.1162,17.4637 34.3282,19.1667 C34.9162,23.8927 31.4502,27.7767 24.0252,30.7107 C23.9072,30.7577 23.7822,30.7807 23.6582,30.7807" id="Fill-174" fill="#5A7A8E"></path>
                    <path d="M20.2051,17.0684 C19.1911,16.8134 18.0431,16.5884 16.7531,16.4144 L16.7531,18.2404 L16.7531,22.1714 C17.6141,22.6264 18.7331,23.1304 20.1921,23.6614 C20.1971,23.6634 20.2011,23.6664 20.2051,23.6674 C21.9981,24.3284 22.9221,26.3164 22.2661,28.1134 C21.9031,29.1104 21.1281,29.8324 20.2051,30.1744 C19.8231,30.3164 19.4181,30.3994 19.0031,30.3994 C18.6081,30.3994 18.2071,30.3324 17.8131,30.1884 C17.4471,30.0554 17.1001,29.9184 16.7531,29.7814 L16.7531,32.6644 C16.7531,34.3804 18.1441,35.7714 19.8591,35.7714 L20.5511,35.7714 C22.2681,35.7714 23.6581,34.3804 23.6581,32.6644 L23.6581,29.7804 L23.6581,22.1704 L23.6581,18.2404 C22.7471,17.8314 21.6081,17.4224 20.2051,17.0684" id="Fill-176" fill="#FFFFFE"></path>
                    <path d="M20.583,22.7407 C21.451,23.0687 22.16,23.6407 22.658,24.3507 L22.658,18.9017 C21.842,18.5737 20.937,18.2837 19.961,18.0377 C19.261,17.8617 18.521,17.7077 17.753,17.5767 L17.753,21.5567 C18.561,21.9517 19.493,22.3427 20.534,22.7217 C20.55,22.7267 20.566,22.7337 20.583,22.7407 M17.753,31.2207 L17.753,32.6637 C17.753,33.8257 18.698,34.7717 19.859,34.7717 L20.551,34.7717 C21.713,34.7717 22.658,33.8257 22.658,32.6637 L22.658,29.5007 C22.144,30.2267 21.414,30.7927 20.554,31.1127 C19.615,31.4597 18.654,31.4837 17.753,31.2207 M20.551,36.7717 L19.859,36.7717 C17.595,36.7717 15.753,34.9287 15.753,32.6637 L15.753,29.7817 C15.753,29.4497 15.917,29.1407 16.19,28.9547 C16.464,28.7677 16.811,28.7287 17.12,28.8507 C17.489,28.9967 17.813,29.1247 18.154,29.2487 C18.693,29.4447 19.266,29.4567 19.857,29.2377 C20.545,28.9817 21.08,28.4477 21.326,27.7717 C21.792,26.4947 21.134,25.0747 19.859,24.6057 L19.859,24.6047 C19.843,24.5987 19.827,24.5927 19.811,24.5857 C18.48,24.1017 17.284,23.5827 16.286,23.0547 C15.958,22.8817 15.753,22.5417 15.753,22.1707 L15.753,16.4137 C15.753,16.1257 15.878,15.8507 16.095,15.6607 C16.312,15.4707 16.596,15.3837 16.887,15.4227 C18.139,15.5917 19.337,15.8187 20.449,16.0987 C21.781,16.4337 22.998,16.8477 24.068,17.3277 C24.427,17.4897 24.658,17.8467 24.658,18.2407 L24.658,32.6637 C24.658,34.9287 22.815,36.7717 20.551,36.7717" id="Fill-178" fill="#5A7A8E"></path>
                </g>
            </g>
        </g>
    </g>
</svg>