<?xml version="1.0" encoding="UTF-8"?>
<svg width="54px" height="52px" viewBox="0 0 54 52" version="1.1" xmlns="http://www.w3.org/2000/svg" xmlns:xlink="http://www.w3.org/1999/xlink">
    <!-- Generator: sketchtool 51.1 (57501) - http://www.bohemiancoding.com/sketch -->
    <title>1BB967CB-E801-46BB-8433-B53387A20F03</title>
    <desc>Created with sketchtool.</desc>
    <defs></defs>
    <g id="Page-1" stroke="none" stroke-width="1" fill="none" fill-rule="evenodd">
        <g id="Thankyou-Web_new" transform="translate(-820.000000, -1416.000000)" stroke="#684744">
            <g id="Group-14" transform="translate(284.000000, 1287.000000)">
                <g id="Group-7" transform="translate(537.666667, 107.000000)">
                    <g id="Group" transform="translate(0.666667, 25.000000)">
                        <g id="nutrition" transform="translate(32.000000, 26.500000) rotate(180.000000) translate(-32.000000, -26.500000) translate(15.000000, 6.000000)" stroke-linecap="square" stroke-width="3.64878059">
                            <polyline id="Shape" points="9.2 40.3333333 0 40.3333333 0 0 33.12 0 33.12 7.33333333"></polyline>
                            <path d="M9.2,11 L20.24,11" id="Shape"></path>
                            <path d="M9.2,20.1666667 L14.72,20.1666667" id="Shape"></path>
                            <path d="M9.2,29.3333333 L11.04,29.3333333" id="Shape"></path>
                        </g>
                        <g id="protection" stroke-width="3.46780156">
                            <path d="M32,18 L2,18" id="Shape"></path>
                            <path d="M32,12 L2,12" id="Shape"></path>
                            <path d="M16.5,0 C11.55,3.3 4.95,4.95 0,4.95 C0,16.5 4.95,28.05 16.5,33 C28.05,28.05 33,16.5 33,4.95 C28.05,4.95 21.45,3.3 16.5,0 Z" id="Shape" stroke-linecap="square"></path>
                        </g>
                    </g>
                </g>
            </g>
        </g>
    </g>
</svg>