<?xml version="1.0" encoding="UTF-8"?>
<svg width="161px" height="150px" viewBox="0 0 161 150" version="1.1" xmlns="http://www.w3.org/2000/svg" xmlns:xlink="http://www.w3.org/1999/xlink">
    <!-- Generator: Sketch 51.1 (57501) - http://www.bohemiancoding.com/sketch -->
    <title>Reload_SI</title>
    <desc>Created with Sketch.</desc>
    <defs>
        <path d="M29.113,7.655 C33.998,12.305 38.625,15.095 40.496,15.095 C44.596,15.095 47.931,11.759 47.931,7.658 C47.931,3.559 44.596,0.222 40.496,0.222 C38.903,0.222 34.404,2.598 29.113,7.655 Z M0.85,7.658 C0.85,11.759 4.185,15.095 8.285,15.095 C9.88,15.095 14.379,12.719 19.67,7.661 C14.785,3.012 10.156,0.222 8.285,0.222 C4.185,0.222 0.85,3.559 0.85,7.658 Z" id="path-1"></path>
        <path d="M29.113,7.655 C33.998,12.305 38.625,15.095 40.496,15.095 C44.596,15.095 47.931,11.759 47.931,7.658 C47.931,3.559 44.596,0.222 40.496,0.222 C38.903,0.222 34.404,2.598 29.113,7.655 M0.85,7.658 C0.85,11.759 4.185,15.095 8.285,15.095 C9.88,15.095 14.379,12.719 19.67,7.661 C14.785,3.012 10.156,0.222 8.285,0.222 C4.185,0.222 0.85,3.559 0.85,7.658" id="path-3"></path>
        <path d="M29.113,7.655 C33.998,12.305 38.625,15.095 40.496,15.095 C44.596,15.095 47.931,11.759 47.931,7.658 C47.931,3.559 44.596,0.222 40.496,0.222 C38.903,0.222 34.404,2.598 29.113,7.655 M0.85,7.658 C0.85,11.759 4.185,15.095 8.285,15.095 C9.88,15.095 14.379,12.719 19.67,7.661 C14.785,3.012 10.156,0.222 8.285,0.222 C4.185,0.222 0.85,3.559 0.85,7.658" id="path-5"></path>
        <path d="M29.113,7.655 C33.998,12.305 38.625,15.095 40.496,15.095 C44.596,15.095 47.931,11.759 47.931,7.658 C47.931,3.559 44.596,0.222 40.496,0.222 C38.903,0.222 34.404,2.598 29.113,7.655 Z M0.85,7.658 C0.85,11.759 4.185,15.095 8.285,15.095 C9.88,15.095 14.379,12.719 19.67,7.661 C14.785,3.012 10.156,0.222 8.285,0.222 C4.185,0.222 0.85,3.559 0.85,7.658 Z" id="path-7"></path>
        <path d="M6.055,0.049 C3.234,0.049 0.939,2.343 0.939,5.161 C0.939,7.971 3.234,10.258 6.056,10.258 L20.572,10.242 C21.571,10.471 23.672,11.207 25.141,13.487 L6.055,13.487 C3.234,13.487 0.939,15.773 0.939,18.583 C0.939,21.403 3.234,23.698 6.055,23.698 L25.762,23.698 C25.428,24.27 25.006,24.782 24.492,25.237 C21.973,27.478 17.039,28.761 10.955,28.761 C8.9,28.761 7.485,28.608 7.416,28.6 L7.333,28.592 L6.877,28.572 C4.99,28.572 3.257,29.605 2.351,31.277 C1.363,33.121 1.617,35.428 2.988,37.019 L26.533,64.283 C27.506,65.399 28.908,66.04 30.381,66.04 C31.586,66.04 32.762,65.605 33.67,64.832 C34.72,63.958 35.361,62.722 35.471,61.366 C35.586,60.005 35.141,58.628 34.242,57.582 L17.779,38.519 C22.447,37.832 27.484,36.247 31.273,32.872 C34.039,30.417 35.807,27.34 36.551,23.698 L41.31,23.698 C44.131,23.698 46.424,21.403 46.424,18.583 C46.424,15.773 44.131,13.487 41.31,13.487 L36.116,13.487 C35.807,12.362 35.41,11.283 34.932,10.258 L41.31,10.258 C44.131,10.258 46.424,7.971 46.424,5.161 C46.424,2.343 44.131,0.049 41.31,0.049" id="path-9"></path>
        <path d="M6.055,0.049 C3.234,0.049 0.939,2.343 0.939,5.161 C0.939,7.971 3.234,10.258 6.056,10.258 L20.572,10.242 C21.571,10.471 23.672,11.207 25.141,13.487 L6.055,13.487 C3.234,13.487 0.939,15.773 0.939,18.583 C0.939,21.403 3.234,23.698 6.055,23.698 L25.762,23.698 C25.428,24.27 25.006,24.782 24.492,25.237 C21.973,27.478 17.039,28.761 10.955,28.761 C8.9,28.761 7.485,28.608 7.416,28.6 L7.333,28.592 L6.877,28.572 C4.99,28.572 3.257,29.605 2.351,31.277 C1.363,33.121 1.617,35.428 2.988,37.019 L26.533,64.283 C27.506,65.399 28.908,66.04 30.381,66.04 C31.586,66.04 32.762,65.605 33.67,64.832 C34.72,63.958 35.361,62.722 35.471,61.366 C35.586,60.005 35.141,58.628 34.242,57.582 L17.779,38.519 C22.447,37.832 27.484,36.247 31.273,32.872 C34.039,30.417 35.807,27.34 36.551,23.698 L41.31,23.698 C44.131,23.698 46.424,21.403 46.424,18.583 C46.424,15.773 44.131,13.487 41.31,13.487 L36.116,13.487 C35.807,12.362 35.41,11.283 34.932,10.258 L41.31,10.258 C44.131,10.258 46.424,7.971 46.424,5.161 C46.424,2.343 44.131,0.049 41.31,0.049" id="path-11"></path>
        <path d="M6.055,0.049 C3.234,0.049 0.939,2.343 0.939,5.161 C0.939,7.971 3.234,10.258 6.056,10.258 L20.572,10.242 C21.571,10.471 23.672,11.207 25.141,13.487 L6.055,13.487 C3.234,13.487 0.939,15.773 0.939,18.583 C0.939,21.403 3.234,23.698 6.055,23.698 L25.762,23.698 C25.428,24.27 25.006,24.782 24.492,25.237 C21.973,27.478 17.039,28.761 10.955,28.761 C8.9,28.761 7.485,28.608 7.416,28.6 L7.333,28.592 L6.877,28.572 C4.99,28.572 3.257,29.605 2.351,31.277 C1.363,33.121 1.617,35.428 2.988,37.019 L26.533,64.283 C27.506,65.399 28.908,66.04 30.381,66.04 C31.586,66.04 32.762,65.605 33.67,64.832 C34.72,63.958 35.361,62.722 35.471,61.366 C35.586,60.005 35.141,58.628 34.242,57.582 L17.779,38.519 C22.447,37.832 27.484,36.247 31.273,32.872 C34.039,30.417 35.807,27.34 36.551,23.698 L41.31,23.698 C44.131,23.698 46.424,21.403 46.424,18.583 C46.424,15.773 44.131,13.487 41.31,13.487 L36.116,13.487 C35.807,12.362 35.41,11.283 34.932,10.258 L41.31,10.258 C44.131,10.258 46.424,7.971 46.424,5.161 C46.424,2.343 44.131,0.049 41.31,0.049" id="path-13"></path>
        <path d="M6.055,0.049 C3.234,0.049 0.939,2.343 0.939,5.161 C0.939,7.971 3.234,10.258 6.056,10.258 L20.572,10.242 C21.571,10.471 23.672,11.207 25.141,13.487 L6.055,13.487 C3.234,13.487 0.939,15.773 0.939,18.583 C0.939,21.403 3.234,23.698 6.055,23.698 L25.762,23.698 C25.428,24.27 25.006,24.782 24.492,25.237 C21.973,27.478 17.039,28.761 10.955,28.761 C8.9,28.761 7.485,28.608 7.416,28.6 L7.333,28.592 L6.877,28.572 C4.99,28.572 3.257,29.605 2.351,31.277 C1.363,33.121 1.617,35.428 2.988,37.019 L26.533,64.283 C27.506,65.399 28.908,66.04 30.381,66.04 C31.586,66.04 32.762,65.605 33.67,64.832 C34.72,63.958 35.361,62.722 35.471,61.366 C35.586,60.005 35.141,58.628 34.242,57.582 L17.779,38.519 C22.447,37.832 27.484,36.247 31.273,32.872 C34.039,30.417 35.807,27.34 36.551,23.698 L41.31,23.698 C44.131,23.698 46.424,21.403 46.424,18.583 C46.424,15.773 44.131,13.487 41.31,13.487 L36.116,13.487 C35.807,12.362 35.41,11.283 34.932,10.258 L41.31,10.258 C44.131,10.258 46.424,7.971 46.424,5.161 C46.424,2.343 44.131,0.049 41.31,0.049" id="path-15"></path>
        <path d="M6.055,0.049 C3.234,0.049 0.939,2.343 0.939,5.161 C0.939,7.971 3.234,10.258 6.056,10.258 L20.572,10.242 C21.571,10.471 23.672,11.207 25.141,13.487 L6.055,13.487 C3.234,13.487 0.939,15.773 0.939,18.583 C0.939,21.403 3.234,23.698 6.055,23.698 L25.762,23.698 C25.428,24.27 25.006,24.782 24.492,25.237 C21.973,27.478 17.039,28.761 10.955,28.761 C8.9,28.761 7.485,28.608 7.416,28.6 L7.333,28.592 L6.877,28.572 C4.99,28.572 3.257,29.605 2.351,31.277 C1.363,33.121 1.617,35.428 2.988,37.019 L26.533,64.283 C27.506,65.399 28.908,66.04 30.381,66.04 C31.586,66.04 32.762,65.605 33.67,64.832 C34.72,63.958 35.361,62.722 35.471,61.366 C35.586,60.005 35.141,58.628 34.242,57.582 L17.779,38.519 C22.447,37.832 27.484,36.247 31.273,32.872 C34.039,30.417 35.807,27.34 36.551,23.698 L41.31,23.698 C44.131,23.698 46.424,21.403 46.424,18.583 C46.424,15.773 44.131,13.487 41.31,13.487 L36.116,13.487 C35.807,12.362 35.41,11.283 34.932,10.258 L41.31,10.258 C44.131,10.258 46.424,7.971 46.424,5.161 C46.424,2.343 44.131,0.049 41.31,0.049" id="path-17"></path>
    </defs>
    <g id="Page-1" stroke="none" stroke-width="1" fill="none" fill-rule="evenodd">
        <g id="Artboard-4" transform="translate(-279.000000, -161.000000)">
            <g id="Reload_SI" transform="translate(279.000000, 161.000000)">
                <g id="Group-237" transform="translate(0.000000, 2.000000)">
                    <path d="M160.8535,71.5537 C160.8535,111.0577 128.8305,143.0787 89.3285,143.0787 C49.8265,143.0787 17.8025,111.0577 17.8025,71.5537 C17.8025,32.0517 49.8265,0.0307 89.3285,0.0307 C128.8305,0.0307 160.8535,32.0517 160.8535,71.5537" id="Fill-231" fill="#F9DED5"></path>
                    <path d="M47.4961,49.0947 C45.6251,49.0947 40.9981,46.3047 36.1131,41.6547 C41.4041,36.5977 45.9021,34.2227 47.4961,34.2227 C51.5961,34.2227 54.9321,37.5587 54.9321,41.6577 C54.9321,45.7587 51.5961,49.0947 47.4961,49.0947 M15.2851,49.0947 C11.1851,49.0947 7.8501,45.7587 7.8501,41.6577 C7.8501,37.5587 11.1851,34.2227 15.2851,34.2227 C17.1561,34.2227 21.7851,37.0117 26.6701,41.6607 C21.3791,46.7187 16.8811,49.0947 15.2851,49.0947 M47.4961,27.5177 C42.0901,27.5177 35.1661,33.3167 31.3911,36.9137 C27.6151,33.3167 20.6911,27.5177 15.2851,27.5177 C7.4881,27.5177 1.1461,33.8617 1.1461,41.6577 C1.1461,49.4547 7.4881,55.7987 15.2851,55.7987 C20.6911,55.7987 27.6151,49.9987 31.3911,46.4027 C35.1661,49.9987 42.0901,55.7987 47.4961,55.7987 C55.2931,55.7987 61.6371,49.4547 61.6371,41.6577 C61.6371,33.8617 55.2931,27.5177 47.4961,27.5177" id="Fill-233" fill="#FFFFFE"></path>
                    <path d="M15.2851,35.2227 C11.7361,35.2227 8.8491,38.1097 8.8491,41.6587 C8.8491,45.2077 11.7361,48.0947 15.2851,48.0947 C16.2431,48.0947 20.0041,46.4567 25.2071,41.6627 C20.4211,37.2747 16.4991,35.2227 15.2851,35.2227 M15.2851,50.0947 C10.6341,50.0947 6.8491,46.3097 6.8491,41.6587 C6.8491,37.0067 10.6341,33.2227 15.2851,33.2227 C17.6221,33.2227 22.5881,36.3947 27.3591,40.9367 C27.5571,41.1257 27.6701,41.3867 27.6701,41.6597 C27.6701,41.9337 27.5581,42.1957 27.3611,42.3837 C22.0651,47.4467 17.2771,50.0947 15.2851,50.0947 M37.5761,41.6527 C42.3631,46.0427 46.2831,48.0947 47.4961,48.0947 C51.0451,48.0947 53.9311,45.2077 53.9311,41.6587 C53.9311,38.1097 51.0451,35.2227 47.4961,35.2227 C46.5381,35.2227 42.7791,36.8597 37.5761,41.6527 M47.4961,50.0947 C45.1601,50.0947 40.1961,46.9217 35.4241,42.3787 C35.2251,42.1897 35.1131,41.9287 35.1131,41.6557 C35.1131,41.3817 35.2241,41.1197 35.4231,40.9307 C40.7181,35.8707 45.5051,33.2227 47.4961,33.2227 C52.1471,33.2227 55.9311,37.0067 55.9311,41.6587 C55.9311,46.3097 52.1471,50.0947 47.4961,50.0947 M31.3901,45.4027 C31.6391,45.4027 31.8881,45.4937 32.0801,45.6787 C35.6561,49.0847 42.4131,54.7987 47.4961,54.7987 C54.7421,54.7987 60.6371,48.9037 60.6371,41.6587 C60.6371,34.4127 54.7421,28.5177 47.4961,28.5177 C42.4111,28.5177 35.6551,34.2317 32.0801,37.6387 C31.6951,38.0067 31.0861,38.0067 30.7011,37.6387 C27.1261,34.2317 20.3701,28.5177 15.2851,28.5177 C8.0401,28.5177 2.1461,34.4127 2.1461,41.6587 C2.1461,48.9037 8.0401,54.7987 15.2851,54.7987 C20.3681,54.7987 27.1251,49.0847 30.7011,45.6787 C30.8931,45.4937 31.1421,45.4027 31.3901,45.4027 M47.4961,56.7987 C42.2731,56.7987 35.9781,52.0377 31.3901,47.7757 C26.8031,52.0377 20.5081,56.7987 15.2851,56.7987 C6.9371,56.7987 0.1461,50.0067 0.1461,41.6587 C0.1461,33.3097 6.9371,26.5177 15.2851,26.5177 C20.5101,26.5177 26.8041,31.2787 31.3901,35.5407 C35.9771,31.2787 42.2711,26.5177 47.4961,26.5177 C55.8451,26.5177 62.6371,33.3097 62.6371,41.6587 C62.6371,50.0067 55.8451,56.7987 47.4961,56.7987" id="Fill-235" fill="#5A7A8E"></path>
                </g>
                <g id="Group-250" transform="translate(7.000000, 36.000000)">
                    <g id="Group-240">
                        <mask id="mask-2" fill="white">
                            <use xlink:href="#path-1"></use>
                        </mask>
                        <g id="Clip-239"></g>
                        <path d="M20.6718,9.4561 C20.6718,9.4561 24.7848,5.2661 25.6698,4.4461 C26.5548,3.6281 24.3908,3.1711 24.3908,3.1711 L19.2358,8.2411 L20.6718,9.4561 Z" id="Fill-238" fill="#FFFFFE" mask="url(#mask-2)"></path>
                    </g>
                    <g id="Group-243">
                        <mask id="mask-4" fill="white">
                            <use xlink:href="#path-3"></use>
                        </mask>
                        <g id="Clip-242"></g>
                        <path d="M29.5019,8.3994 C34.6369,3.5404 39.2029,0.9954 41.0879,0.9954 C43.4359,0.9954 45.5429,2.0134 47.0119,3.6234 C45.9079,0.5054 42.9399,-1.7386 39.4489,-1.7386 C37.5389,-1.7386 32.8749,0.8714 27.6559,5.8594 L27.2089,6.2894 L27.6579,6.7164 C28.2729,7.3024 28.8909,7.8634 29.5019,8.3994" id="Fill-241" fill="#E47460" mask="url(#mask-4)"></path>
                    </g>
                    <g id="Group-246">
                        <mask id="mask-6" fill="white">
                            <use xlink:href="#path-5"></use>
                        </mask>
                        <g id="Clip-245"></g>
                        <path d="M51.8086,0.7549 C52.5706,2.4459 52.9956,4.3189 52.9956,6.2919 C52.9956,13.7619 46.9196,19.8399 39.4496,19.8399 C34.2246,19.8399 27.3716,14.0549 23.7536,10.6069 L23.3436,10.2169 L22.9356,10.6069 C19.3166,14.0549 12.4646,19.8399 7.2406,19.8399 C2.8806,19.8399 -1.0004,17.7699 -3.4804,14.5619 C-1.3594,19.2789 3.3806,22.5719 8.8806,22.5719 C14.1036,22.5719 20.9546,16.7879 24.5766,13.3399 L24.9846,12.9489 L25.3926,13.3399 C29.0116,16.7879 35.8636,22.5719 41.0876,22.5719 C48.5586,22.5719 54.6366,16.4949 54.6366,9.0249 C54.6366,5.9129 53.5796,3.0439 51.8086,0.7549" id="Fill-244" fill="#E47460" mask="url(#mask-6)"></path>
                    </g>
                    <g id="Group-249">
                        <mask id="mask-8" fill="white">
                            <use xlink:href="#path-7"></use>
                        </mask>
                        <g id="Clip-248"></g>
                        <path d="M27.209,6.2891 C27.209,6.2891 23.896,9.6911 23.344,10.2171 C22.793,10.7421 25.014,11.7771 25.014,11.7771 L29.518,7.2721 L27.209,6.2891 Z" id="Fill-247" fill="#E47460" mask="url(#mask-8)"></path>
                    </g>
                </g>
                <g id="Group-277" transform="translate(6.000000, 0.000000)">
                    <path d="M9.2851,37.2227 C5.7361,37.2227 2.8491,40.1097 2.8491,43.6587 C2.8491,47.2077 5.7361,50.0947 9.2851,50.0947 C10.2431,50.0947 14.0041,48.4567 19.2071,43.6627 C14.4211,39.2747 10.4991,37.2227 9.2851,37.2227 M9.2851,52.0947 C4.6341,52.0947 0.8491,48.3097 0.8491,43.6587 C0.8491,39.0067 4.6341,35.2227 9.2851,35.2227 C11.6221,35.2227 16.5881,38.3947 21.3591,42.9367 C21.5571,43.1257 21.6701,43.3867 21.6701,43.6597 C21.6701,43.9337 21.5581,44.1957 21.3611,44.3837 C16.0651,49.4467 11.2771,52.0947 9.2851,52.0947 M31.5761,43.6527 C36.3631,48.0427 40.2831,50.0947 41.4961,50.0947 C45.0451,50.0947 47.9311,47.2077 47.9311,43.6587 C47.9311,40.1097 45.0451,37.2227 41.4961,37.2227 C40.5381,37.2227 36.7791,38.8597 31.5761,43.6527 M41.4961,52.0947 C39.1601,52.0947 34.1961,48.9217 29.4241,44.3787 C29.2251,44.1897 29.1131,43.9287 29.1131,43.6557 C29.1131,43.3817 29.2241,43.1197 29.4231,42.9307 C34.7181,37.8707 39.5051,35.2227 41.4961,35.2227 C46.1471,35.2227 49.9311,39.0067 49.9311,43.6587 C49.9311,48.3097 46.1471,52.0947 41.4961,52.0947" id="Fill-251" fill="#5A7A8E"></path>
                    <path d="M20.5254,44.7979 C20.2694,44.7979 20.0144,44.7009 19.8194,44.5059 C19.4274,44.1159 19.4274,43.4829 19.8174,43.0909 L24.8684,38.0299 C25.2584,37.6389 25.8914,37.6389 26.2824,38.0279 C26.6734,38.4189 26.6734,39.0519 26.2844,39.4429 L21.2334,44.5049 C21.0384,44.6999 20.7814,44.7979 20.5254,44.7979" id="Fill-253" fill="#5A7A8E"></path>
                    <path d="M25.3906,49.4023 C25.1356,49.4023 24.8806,49.3053 24.6856,49.1113 C24.2936,48.7213 24.2916,48.0893 24.6816,47.6973 L29.4046,42.9493 C29.7936,42.5573 30.4266,42.5563 30.8186,42.9453 C31.2096,43.3353 31.2116,43.9673 30.8226,44.3593 L26.0996,49.1073 C25.9046,49.3043 25.6476,49.4023 25.3906,49.4023" id="Fill-255" fill="#5A7A8E"></path>
                    <path d="M20.5254,43.7979 L25.5764,38.7359" id="Fill-257" fill="#FFFFFE"></path>
                    <path d="M20.5254,44.7979 C20.2694,44.7979 20.0144,44.7009 19.8194,44.5059 C19.4274,44.1159 19.4274,43.4829 19.8174,43.0909 L24.8684,38.0299 C25.2584,37.6389 25.8914,37.6389 26.2824,38.0279 C26.6734,38.4189 26.6734,39.0519 26.2844,39.4429 L21.2334,44.5049 C21.0384,44.6999 20.7814,44.7979 20.5254,44.7979" id="Fill-259" fill="#5A7A8E"></path>
                    <path d="M30.1133,43.6543 L25.3903,48.4023" id="Fill-261" fill="#FFFFFE"></path>
                    <path d="M25.3906,49.4023 C25.1356,49.4023 24.8806,49.3053 24.6856,49.1113 C24.2936,48.7213 24.2916,48.0893 24.6816,47.6973 L29.4046,42.9493 C29.7936,42.5573 30.4266,42.5563 30.8186,42.9453 C31.2096,43.3353 31.2116,43.9673 30.8226,44.3593 L26.0996,49.1073 C25.9046,49.3043 25.6476,49.4023 25.3906,49.4023" id="Fill-263" fill="#5A7A8E"></path>
                    <path d="M108.5039,15.1025 C93.0449,9.0115 76.2229,9.2715 61.1699,15.5815 L65.8869,5.4975 C66.5879,3.9965 65.9399,2.2095 64.4399,1.5075 C62.9399,0.8065 61.1519,1.4555 60.4509,2.9545 L52.0959,20.8165 L52.0959,20.8175 L52.0879,20.8315 C52.0759,20.8595 52.0719,20.8885 52.0589,20.9155 C51.9919,21.0745 51.9339,21.2355 51.8929,21.4025 C51.8769,21.4725 51.8709,21.5425 51.8589,21.6135 C51.8379,21.7445 51.8179,21.8735 51.8149,22.0065 C51.8109,22.0845 51.8179,22.1615 51.8219,22.2395 C51.8279,22.3655 51.8359,22.4905 51.8579,22.6155 C51.8709,22.6965 51.8949,22.7755 51.9159,22.8555 C51.9449,22.9735 51.9809,23.0895 52.0269,23.2065 C52.0409,23.2415 52.0449,23.2785 52.0609,23.3135 C52.0819,23.3635 52.1169,23.4045 52.1409,23.4535 C52.1719,23.5115 52.1899,23.5745 52.2249,23.6315 C52.2499,23.6765 52.2869,23.7125 52.3159,23.7555 C52.3669,23.8325 52.4219,23.9065 52.4809,23.9785 C52.5549,24.0715 52.6329,24.1585 52.7169,24.2405 C52.7769,24.2995 52.8379,24.3565 52.9039,24.4105 C52.9999,24.4885 53.0979,24.5585 53.2009,24.6235 C53.2719,24.6675 53.3399,24.7115 53.4119,24.7495 C53.5239,24.8075 53.6369,24.8545 53.7539,24.8985 C53.8069,24.9185 53.8559,24.9495 53.9099,24.9665 L71.9879,30.6225 C72.2869,30.7145 72.5879,30.7595 72.8849,30.7595 C74.1619,30.7595 75.3459,29.9375 75.7479,28.6545 C76.2419,27.0735 75.3609,25.3905 73.7789,24.8955 L62.7149,21.4345 C76.5269,15.4105 92.0589,15.0725 106.3049,20.6845 C135.5449,32.2065 149.9609,65.3715 138.4399,94.6125 C135.0739,103.1485 129.6599,110.8105 122.7809,116.7705 C121.5289,117.8555 121.3929,119.7495 122.4789,121.0025 C123.0719,121.6875 123.9059,122.0385 124.7459,122.0385 C125.4429,122.0385 126.1429,121.7965 126.7109,121.3055 C134.3179,114.7135 140.3049,106.2445 144.0219,96.8115 C156.7559,64.4925 140.8219,27.8375 108.5039,15.1025" id="Fill-265" fill="#FFFFFE"></path>
                    <path d="M85.3828,15.686 C92.6568,15.686 99.8198,17.055 106.6708,19.754 C136.4248,31.479 151.0938,65.225 139.3698,94.979 C135.9458,103.665 130.4358,111.462 123.4368,117.526 C123.0318,117.876 122.7888,118.362 122.7508,118.895 C122.7118,119.428 122.8838,119.944 123.2348,120.348 C123.9288,121.149 125.2528,121.244 126.0568,120.549 C133.5428,114.062 139.4338,105.727 143.0908,96.445 C155.6228,64.639 139.9438,28.566 108.1378,16.033 C100.8198,13.149 93.1688,11.687 85.4008,11.687 C77.2018,11.687 69.1798,13.308 61.5568,16.503 C61.1768,16.663 60.7368,16.573 60.4478,16.273 C60.1618,15.976 60.0888,15.532 60.2638,15.157 L64.9808,5.073 C65.4468,4.075 65.0148,2.881 64.0158,2.414 C63.0378,1.958 61.8088,2.414 61.3578,3.378 L53.0018,21.24 C53.0028,21.238 53.0038,21.237 53.0038,21.237 C53.0088,21.237 52.9848,21.301 52.9528,21.363 C52.9348,21.413 52.8928,21.524 52.8628,21.641 C52.8618,21.651 52.8478,21.768 52.8458,21.778 C52.8318,21.862 52.8168,21.948 52.8148,22.036 C52.8148,22.04 52.8208,22.185 52.8208,22.189 C52.8248,22.277 52.8278,22.362 52.8428,22.446 C52.8498,22.483 52.8608,22.516 52.8688,22.549 C52.9038,22.688 52.9258,22.76 52.9548,22.832 C52.9628,22.852 52.9738,22.884 52.9848,22.916 C52.9968,22.934 53.0218,22.977 53.0418,23.02 C53.0498,23.036 53.0928,23.13 53.0988,23.145 C53.1848,23.255 53.2198,23.302 53.2568,23.349 C53.3098,23.415 53.3608,23.471 53.4158,23.525 C53.4548,23.564 53.4918,23.6 53.5328,23.633 C53.6008,23.688 53.6658,23.735 53.7358,23.779 C53.7988,23.818 53.8378,23.844 53.8778,23.865 C53.9468,23.901 54.0258,23.932 54.1058,23.962 C54.1338,23.973 54.2288,24.015 54.2558,24.028 L72.2868,29.667 C73.3418,29.996 74.4698,29.387 74.7938,28.355 C75.1218,27.304 74.5328,26.179 73.4808,25.85 L62.4158,22.389 C62.0178,22.264 61.7388,21.905 61.7158,21.489 C61.6938,21.072 61.9328,20.685 62.3158,20.518 C69.6658,17.312 77.4268,15.686 85.3828,15.686 M124.7458,123.038 C123.5858,123.038 122.4838,122.535 121.7228,121.658 C121.0228,120.851 120.6798,119.818 120.7558,118.752 C120.8318,117.686 121.3198,116.715 122.1258,116.015 C128.8838,110.16 134.2018,102.633 137.5088,94.246 C148.8278,65.518 134.6658,32.936 105.9388,21.615 C99.3208,19.008 92.4048,17.686 85.3828,17.686 C78.6178,17.686 71.9988,18.904 65.6668,21.31 L74.0778,23.941 C76.1828,24.6 77.3608,26.848 76.7018,28.953 C76.1758,30.632 74.6418,31.76 72.8848,31.76 C72.4838,31.76 72.0818,31.698 71.6918,31.577 L53.6118,25.921 C53.5648,25.907 53.4288,25.85 53.3848,25.829 C53.2478,25.777 53.0998,25.714 52.9518,25.638 C52.8608,25.59 52.7788,25.54 52.6958,25.488 C52.5288,25.382 52.3998,25.289 52.2728,25.185 C52.1838,25.113 52.0998,25.036 52.0158,24.953 C51.9048,24.845 51.7998,24.728 51.6988,24.603 C51.6238,24.51 51.5498,24.411 51.4818,24.306 C51.4458,24.268 51.3968,24.199 51.3548,24.124 C51.3238,24.076 51.2868,23.998 51.2538,23.918 C51.2158,23.857 51.1758,23.786 51.1428,23.709 C51.1218,23.662 51.0858,23.554 51.0728,23.503 C51.0348,23.419 50.9868,23.259 50.9448,23.096 C50.9128,22.979 50.8878,22.881 50.8708,22.782 C50.8438,22.619 50.8308,22.453 50.8228,22.286 C50.8148,22.147 50.8108,22.053 50.8158,21.957 C50.8198,21.8 50.8438,21.626 50.8728,21.451 C50.8898,21.328 50.9008,21.257 50.9158,21.185 C50.9748,20.946 51.0498,20.735 51.1368,20.529 C51.1478,20.503 51.1928,20.386 51.2058,20.361 L59.5448,2.53 C60.1998,1.13 61.6238,0.225 63.1718,0.225 C63.7588,0.225 64.3278,0.352 64.8628,0.602 C66.8608,1.537 67.7258,3.923 66.7928,5.92 L63.1428,13.723 C70.3018,11.044 77.7778,9.687 85.4008,9.687 C93.4208,9.687 101.3178,11.196 108.8698,14.172 C141.7018,27.11 157.8888,64.346 144.9518,97.178 C141.1768,106.759 135.0958,115.363 127.3658,122.061 C126.6368,122.691 125.7068,123.038 124.7458,123.038" id="Fill-267" fill="#5A7A8E"></path>
                    <path d="M108.2109,127.6963 L91.8279,118.1913 C90.3889,117.3573 88.5589,117.8473 87.7269,119.2803 C86.8949,120.7143 87.3829,122.5503 88.8159,123.3813 L98.7309,129.1333 C87.4079,131.8523 75.4179,131.0463 64.5099,126.7483 C41.1479,117.5423 26.6949,94.5483 28.5449,69.5313 C28.6679,67.8793 27.4279,66.4403 25.7749,66.3173 C24.0939,66.2063 22.6839,67.4363 22.5609,69.0883 C20.5159,96.7403 36.4899,122.1553 62.3109,132.3303 C69.7149,135.2473 77.5679,136.7133 85.4279,136.7133 C90.0139,136.7133 94.5979,136.2023 99.0959,135.2013 L92.2339,144.0453 C91.2189,145.3533 91.4549,147.2383 92.7659,148.2543 C93.3129,148.6783 93.9589,148.8833 94.6019,148.8833 C95.4959,148.8833 96.3829,148.4853 96.9749,147.7223 L109.0739,132.1303 C109.6059,131.4463 109.8149,130.5663 109.6479,129.7173 C109.4839,128.8673 108.9589,128.1313 108.2109,127.6963" id="Fill-269" fill="#FFFFFE"></path>
                    <path d="M99.0957,134.2012 C99.4337,134.2012 99.7537,134.3722 99.9407,134.6662 C100.1657,135.0212 100.1447,135.4812 99.8857,135.8142 L93.0247,144.6582 C92.6967,145.0802 92.5527,145.6042 92.6197,146.1352 C92.6867,146.6642 92.9557,147.1362 93.3777,147.4642 C94.2287,148.1232 95.5297,147.9532 96.1847,147.1092 L108.2837,131.5162 C108.6387,131.0612 108.7777,130.4752 108.6667,129.9082 C108.5577,129.3422 108.2077,128.8512 107.7087,128.5602 L91.3257,119.0562 C90.3977,118.5172 89.1247,118.8642 88.5907,119.7822 C88.3237,120.2442 88.2507,120.7832 88.3887,121.3002 C88.5257,121.8152 88.8557,122.2482 89.3187,122.5152 L99.2327,128.2672 C99.5857,128.4722 99.7797,128.8732 99.7197,129.2772 C99.6607,129.6812 99.3617,130.0102 98.9637,130.1052 C94.5357,131.1692 89.9757,131.7082 85.4077,131.7082 C78.0837,131.7082 70.9297,130.3522 64.1437,127.6792 C40.3717,118.3102 25.6657,94.9132 27.5477,69.4572 C27.5867,68.9242 27.4167,68.4082 27.0687,68.0042 C26.7197,67.5992 26.2347,67.3542 25.7007,67.3142 L25.5647,67.3102 C24.4987,67.3102 23.6367,68.1062 23.5577,69.1622 C21.5447,96.3742 37.2667,121.3862 62.6767,131.3992 C69.9427,134.2622 77.5967,135.7132 85.4277,135.7132 C89.9167,135.7132 94.4427,135.2122 98.8787,134.2242 C98.9507,134.2092 99.0237,134.2012 99.0957,134.2012 M94.6017,149.8842 C93.7067,149.8842 92.8597,149.5942 92.1527,149.0442 C91.3077,148.3892 90.7697,147.4442 90.6357,146.3842 C90.5017,145.3242 90.7887,144.2762 91.4447,143.4312 L96.6587,136.7102 C92.9367,137.3762 89.1707,137.7132 85.4277,137.7132 C77.3447,137.7132 69.4437,136.2152 61.9447,133.2612 C35.7137,122.9242 19.4867,97.1052 21.5637,69.0142 C21.7277,66.8112 23.6167,65.1802 25.8417,65.3192 C26.9147,65.3992 27.8857,65.8882 28.5827,66.6982 C29.2817,67.5072 29.6207,68.5402 29.5417,69.6052 C27.7247,94.1832 41.9247,116.7732 64.8757,125.8172 C71.4287,128.3992 78.3367,129.7082 85.4077,129.7082 C88.9617,129.7082 92.5127,129.3702 95.9937,128.7012 L88.3147,124.2462 C87.3907,123.7102 86.7297,122.8462 86.4547,121.8132 C86.1807,120.7802 86.3247,119.7032 86.8617,118.7782 C87.5757,117.5492 88.9027,116.7842 90.3227,116.7842 C91.0247,116.7842 91.7177,116.9722 92.3287,117.3262 L108.7127,126.8312 C109.7127,127.4122 110.4117,128.3942 110.6297,129.5272 C110.8517,130.6592 110.5727,131.8322 109.8647,132.7432 L97.7647,148.3362 C97.0007,149.3192 95.8487,149.8842 94.6017,149.8842" id="Fill-271" fill="#5A7A8E"></path>
                    <path d="M93.3808,112.04 C91.9078,112.04 90.5058,111.399 89.5328,110.282 L65.9878,83.019 C64.6168,81.428 64.3628,79.121 65.3518,77.276 C66.2578,75.604 67.9898,74.572 69.8768,74.572 L70.3338,74.592 L70.4158,74.601 C70.4848,74.608 71.9008,74.762 73.9548,74.762 C80.0388,74.762 84.9728,73.477 87.4918,71.237 C88.0058,70.782 88.4278,70.27 88.7618,69.698 L69.0548,69.698 C66.2348,69.698 63.9398,67.403 63.9398,64.583 C63.9398,61.772 66.2348,59.486 69.0548,59.486 L88.1408,59.486 C86.6718,57.207 84.5698,56.471 83.5718,56.242 L69.0568,56.258 C66.2348,56.258 63.9398,53.972 63.9398,51.161 C63.9398,48.343 66.2348,46.05 69.0548,46.05 L104.3108,46.05 C107.1308,46.05 109.4238,48.343 109.4238,51.161 C109.4238,53.972 107.1308,56.258 104.3108,56.258 L97.9318,56.258 C98.4098,57.283 98.8068,58.362 99.1148,59.486 L104.3108,59.486 C107.1308,59.486 109.4238,61.772 109.4238,64.583 C109.4238,67.403 107.1308,69.698 104.3108,69.698 L99.5508,69.698 C98.8068,73.34 97.0388,76.417 94.2738,78.872 C90.4848,82.247 85.4468,83.831 80.7788,84.519 L97.2418,103.582 C98.1408,104.628 98.5858,106.005 98.4708,107.365 C98.3608,108.722 97.7208,109.958 96.6698,110.832 C95.7618,111.604 94.5858,112.04 93.3808,112.04" id="Fill-273" fill="#FFFFFE"></path>
                    <path d="M69.834,75.5713 C68.357,75.5723 66.96,76.4073 66.23,77.7533 C65.438,79.2323 65.645,81.0883 66.746,82.3653 L90.29,109.6283 C91.07,110.5243 92.197,111.0403 93.381,111.0403 C94.349,111.0403 95.287,110.6953 96.022,110.0703 C96.873,109.3623 97.386,108.3753 97.474,107.2843 C97.567,106.1853 97.206,105.0743 96.483,104.2343 L80.022,85.1733 C79.784,84.8973 79.715,84.5133 79.842,84.1713 C79.969,83.8293 80.272,83.5833 80.634,83.5303 C86.126,82.7203 90.491,80.9023 93.608,78.1253 C96.202,75.8223 97.872,72.9203 98.571,69.4983 C98.666,69.0323 99.075,68.6983 99.551,68.6983 L104.311,68.6983 C106.579,68.6983 108.424,66.8523 108.424,64.5833 C108.424,62.3243 106.579,60.4863 104.311,60.4863 L99.115,60.4863 C98.665,60.4863 98.271,60.1853 98.151,59.7513 C97.859,58.6893 97.48,57.6563 97.025,56.6803 C96.881,56.3713 96.904,56.0093 97.088,55.7203 C97.271,55.4323 97.59,55.2583 97.932,55.2583 L104.311,55.2583 C106.579,55.2583 108.424,53.4203 108.424,51.1613 C108.424,48.8943 106.579,47.0503 104.311,47.0503 L69.055,47.0503 C66.785,47.0503 64.939,48.8943 64.939,51.1613 C64.939,53.4203 66.786,55.2583 69.057,55.2583 L83.571,55.2423 L83.572,55.2423 C83.647,55.2423 83.723,55.2503 83.796,55.2673 C85.029,55.5503 87.344,56.4033 88.981,58.9453 C89.18,59.2523 89.193,59.6433 89.019,59.9653 C88.844,60.2863 88.507,60.4863 88.141,60.4863 L69.055,60.4863 C66.785,60.4863 64.939,62.3243 64.939,64.5833 C64.939,66.8523 66.785,68.6983 69.055,68.6983 L88.762,68.6983 C89.12,68.6983 89.45,68.8893 89.629,69.2003 C89.808,69.5103 89.806,69.8933 89.625,70.2023 C89.239,70.8633 88.745,71.4633 88.155,71.9863 C85.457,74.3853 80.28,75.7613 73.955,75.7613 C71.794,75.7613 70.317,75.5953 70.303,75.5943 L69.834,75.5713 Z M93.381,113.0403 C91.619,113.0403 89.941,112.2743 88.779,110.9383 L65.231,83.6723 C63.593,81.7713 63.287,79.0113 64.47,76.8043 C65.552,74.8093 67.622,73.5723 69.877,73.5723 L70.377,73.5923 C70.398,73.5933 70.501,73.6043 70.522,73.6063 C70.543,73.6083 71.912,73.7613 73.955,73.7613 C79.6,73.7613 84.17,72.6483 86.582,70.6983 L69.055,70.6983 C65.683,70.6983 62.939,67.9553 62.939,64.5833 C62.939,61.2213 65.683,58.4863 69.055,58.4863 L85.932,58.4863 C85.021,57.7413 84.084,57.3983 83.455,57.2423 L69.058,57.2583 C65.684,57.2583 62.939,54.5233 62.939,51.1613 C62.939,47.7913 65.683,45.0503 69.055,45.0503 L104.311,45.0503 C107.682,45.0503 110.424,47.7913 110.424,51.1613 C110.424,54.5233 107.682,57.2583 104.311,57.2583 L99.438,57.2583 C99.592,57.6613 99.734,58.0713 99.863,58.4863 L104.311,58.4863 C107.682,58.4863 110.424,61.2213 110.424,64.5833 C110.424,67.9553 107.682,70.6983 104.311,70.6983 L100.35,70.6983 C99.475,74.2083 97.656,77.2063 94.938,79.6203 C91.874,82.3483 87.762,84.2243 82.694,85.2073 L97.999,102.9283 C99.07,104.1753 99.605,105.8223 99.467,107.4493 C99.336,109.0773 98.569,110.5523 97.31,111.6003 C96.222,112.5263 94.823,113.0403 93.381,113.0403 Z" id="Fill-275" fill="#5A7A8E"></path>
                </g>
                <g id="Group-293" transform="translate(69.000000, 46.000000)">
                    <g id="Group-280">
                        <mask id="mask-10" fill="white">
                            <use xlink:href="#path-9"></use>
                        </mask>
                        <g id="Clip-279"></g>
                        <path d="M33.2558,68.3926 C31.7828,68.3926 30.3808,67.7516 29.4078,66.6346 L5.8628,39.3716 C4.4918,37.7806 4.2378,35.4736 5.2268,33.6286 C6.1328,31.9566 7.8648,30.9246 9.7518,30.9246 L10.2088,30.9446 L10.2908,30.9536 C10.3598,30.9606 11.7758,31.1146 13.8298,31.1146 C19.9138,31.1146 24.8478,29.8296 27.3668,27.5896 C27.8808,27.1346 28.3028,26.6226 28.6368,26.0506 L8.9298,26.0506 C6.1098,26.0506 3.8148,23.7556 3.8148,20.9356 C3.8148,18.1246 6.1098,15.8386 8.9298,15.8386 L28.0158,15.8386 C26.5468,13.5596 24.4448,12.8236 23.4468,12.5946 L8.9318,12.6106 C6.1098,12.6106 3.8148,10.3246 3.8148,7.5136 C3.8148,4.6956 6.1098,2.4026 8.9298,2.4026 L44.1858,2.4026 C47.0058,2.4026 49.2988,4.6956 49.2988,7.5136 C49.2988,10.3246 47.0058,12.6106 44.1858,12.6106 L37.8068,12.6106 C38.2848,13.6356 38.6818,14.7146 38.9898,15.8386 L44.1858,15.8386 C47.0058,15.8386 49.2988,18.1246 49.2988,20.9356 C49.2988,23.7556 47.0058,26.0506 44.1858,26.0506 L39.4258,26.0506 C38.6818,29.6926 36.9138,32.7696 34.1488,35.2246 C30.3598,38.5996 25.3218,40.1836 20.6538,40.8716 L37.1168,59.9346 C38.0158,60.9806 38.4608,62.3576 38.3458,63.7176 C38.2358,65.0746 37.5958,66.3106 36.5448,67.1846 C35.6368,67.9566 34.4608,68.3926 33.2558,68.3926" id="Fill-278" fill="#E98875" mask="url(#mask-10)"></path>
                    </g>
                    <g id="Group-283">
                        <mask id="mask-12" fill="white">
                            <use xlink:href="#path-11"></use>
                        </mask>
                        <g id="Clip-282"></g>
                        <path d="M23.0429,21.3027 L3.8519,21.3027 C4.0449,23.9487 6.2339,26.0507 8.9299,26.0507 L13.1049,26.0507 C16.9159,25.5467 19.9689,24.4447 21.7729,22.8417 C22.2849,22.3867 22.7069,21.8747 23.0429,21.3027" id="Fill-281" fill="#E47460" mask="url(#mask-12)"></path>
                    </g>
                    <g id="Group-286">
                        <mask id="mask-14" fill="white">
                            <use xlink:href="#path-13"></use>
                        </mask>
                        <g id="Clip-285"></g>
                        <path d="M43.705,2.7656 C43.705,5.5766 41.41,7.8626 38.59,7.8626 L32.213,7.8626 C32.691,8.8876 33.088,9.9666 33.396,11.0906 L38.59,11.0906 C40.012,11.0906 41.299,11.6736 42.226,12.6106 L44.185,12.6106 C47.006,12.6106 49.299,10.3246 49.299,7.5136 C49.299,4.6956 47.006,2.4026 44.185,2.4026 L43.668,2.4026 C43.676,2.5246 43.705,2.6416 43.705,2.7656" id="Fill-284" fill="#E47460" mask="url(#mask-14)"></path>
                    </g>
                    <g id="Group-289">
                        <mask id="mask-16" fill="white">
                            <use xlink:href="#path-15"></use>
                        </mask>
                        <g id="Clip-288"></g>
                        <path d="M44.1855,15.8389 L43.6695,15.8389 C43.6775,15.9559 43.7055,16.0679 43.7055,16.1879 C43.7055,19.0079 41.4105,21.3029 38.5895,21.3029 L33.8305,21.3029 C33.0875,24.9439 31.3205,28.0219 28.5545,30.4769 C24.7655,33.8519 19.7265,35.4359 15.0585,36.1239 L31.5235,55.1869 C32.4215,56.2329 32.8675,57.6099 32.7515,58.9699 C32.6405,60.3259 32.0015,61.5629 30.9515,62.4369 C30.0405,63.2089 28.8655,63.6449 27.6625,63.6449 C27.3535,63.6449 27.0485,63.6099 26.7485,63.5559 L29.4085,66.6349 C30.3805,67.7519 31.7835,68.3929 33.2555,68.3929 C34.4605,68.3929 35.6365,67.9569 36.5445,67.1849 C37.5955,66.3109 38.2365,65.0739 38.3455,63.7179 C38.4605,62.3579 38.0155,60.9809 37.1175,59.9349 L20.6545,40.8719 C25.3225,40.1839 30.3595,38.5999 34.1485,35.2249 C36.9145,32.7699 38.6815,29.6929 39.4255,26.0509 L44.1855,26.0509 C47.0055,26.0509 49.2985,23.7559 49.2985,20.9359 C49.2985,18.1249 47.0055,15.8389 44.1855,15.8389" id="Fill-287" fill="#E47460" mask="url(#mask-16)"></path>
                    </g>
                    <g id="Group-292">
                        <mask id="mask-18" fill="white">
                            <use xlink:href="#path-17"></use>
                        </mask>
                        <g id="Clip-291"></g>
                        <path d="M17.8515,7.8467 L3.8495,7.8617 C3.9375,9.1147 4.4585,10.2487 5.2925,11.0907 L22.4195,11.0907 C20.9515,8.8117 18.8515,8.0757 17.8515,7.8467" id="Fill-290" fill="#E47460" mask="url(#mask-18)"></path>
                    </g>
                </g>
                <path d="M75.834,75.5713 C74.357,75.5723 72.96,76.4073 72.23,77.7533 C71.438,79.2323 71.645,81.0883 72.746,82.3653 L96.29,109.6283 C97.07,110.5243 98.197,111.0403 99.381,111.0403 C100.349,111.0403 101.287,110.6953 102.022,110.0703 C102.873,109.3623 103.386,108.3753 103.474,107.2843 C103.567,106.1853 103.206,105.0743 102.483,104.2343 L86.022,85.1733 C85.784,84.8973 85.715,84.5133 85.842,84.1713 C85.969,83.8293 86.272,83.5833 86.634,83.5303 C92.126,82.7203 96.491,80.9023 99.608,78.1253 C102.202,75.8223 103.872,72.9203 104.571,69.4983 C104.666,69.0323 105.075,68.6983 105.551,68.6983 L110.311,68.6983 C112.579,68.6983 114.424,66.8523 114.424,64.5833 C114.424,62.3243 112.579,60.4863 110.311,60.4863 L105.115,60.4863 C104.665,60.4863 104.271,60.1853 104.151,59.7513 C103.859,58.6893 103.48,57.6563 103.025,56.6803 C102.881,56.3713 102.904,56.0093 103.088,55.7203 C103.271,55.4323 103.59,55.2583 103.932,55.2583 L110.311,55.2583 C112.579,55.2583 114.424,53.4203 114.424,51.1613 C114.424,48.8943 112.579,47.0503 110.311,47.0503 L75.055,47.0503 C72.785,47.0503 70.939,48.8943 70.939,51.1613 C70.939,53.4203 72.786,55.2583 75.057,55.2583 L89.571,55.2423 L89.572,55.2423 C89.647,55.2423 89.723,55.2503 89.796,55.2673 C91.029,55.5503 93.344,56.4033 94.981,58.9453 C95.18,59.2523 95.193,59.6433 95.019,59.9653 C94.844,60.2863 94.507,60.4863 94.141,60.4863 L75.055,60.4863 C72.785,60.4863 70.939,62.3243 70.939,64.5833 C70.939,66.8523 72.785,68.6983 75.055,68.6983 L94.762,68.6983 C95.12,68.6983 95.45,68.8893 95.629,69.2003 C95.808,69.5103 95.806,69.8933 95.625,70.2023 C95.239,70.8633 94.745,71.4633 94.155,71.9863 C91.457,74.3853 86.28,75.7613 79.955,75.7613 C77.794,75.7613 76.317,75.5953 76.303,75.5943 L75.834,75.5713 Z M99.381,113.0403 C97.619,113.0403 95.941,112.2743 94.779,110.9383 L71.231,83.6723 C69.593,81.7713 69.287,79.0113 70.47,76.8043 C71.552,74.8093 73.622,73.5723 75.877,73.5723 L76.377,73.5923 C76.398,73.5933 76.501,73.6043 76.522,73.6063 C76.543,73.6083 77.912,73.7613 79.955,73.7613 C85.6,73.7613 90.17,72.6483 92.582,70.6983 L75.055,70.6983 C71.683,70.6983 68.939,67.9553 68.939,64.5833 C68.939,61.2213 71.683,58.4863 75.055,58.4863 L91.932,58.4863 C91.021,57.7413 90.084,57.3983 89.455,57.2423 L75.058,57.2583 C71.684,57.2583 68.939,54.5233 68.939,51.1613 C68.939,47.7913 71.683,45.0503 75.055,45.0503 L110.311,45.0503 C113.682,45.0503 116.424,47.7913 116.424,51.1613 C116.424,54.5233 113.682,57.2583 110.311,57.2583 L105.438,57.2583 C105.592,57.6613 105.734,58.0713 105.863,58.4863 L110.311,58.4863 C113.682,58.4863 116.424,61.2213 116.424,64.5833 C116.424,67.9553 113.682,70.6983 110.311,70.6983 L106.35,70.6983 C105.475,74.2083 103.656,77.2063 100.938,79.6203 C97.874,82.3483 93.762,84.2243 88.694,85.2073 L103.999,102.9283 C105.07,104.1753 105.605,105.8223 105.467,107.4493 C105.336,109.0773 104.569,110.5523 103.31,111.6003 C102.222,112.5263 100.823,113.0403 99.381,113.0403 Z" id="Fill-294" fill="#5A7A8E"></path>
            </g>
        </g>
    </g>
</svg>