<?xml version="1.0" encoding="UTF-8"?>
<svg width="160px" height="144px" viewBox="0 0 160 144" version="1.1" xmlns="http://www.w3.org/2000/svg" xmlns:xlink="http://www.w3.org/1999/xlink">
    <!-- Generator: Sketch 51.1 (57501) - http://www.bohemiancoding.com/sketch -->
    <title>Room_upgrade</title>
    <desc>Created with Sketch.</desc>
    <defs>
        <path d="M4.443,0.949 C2.49,0.949 0.909,2.531 0.909,4.483 L0.909,58.54 C0.909,60.491 2.49,62.074 4.443,62.074 L35.981,62.074 C37.931,62.074 39.512,60.491 39.512,58.54 L39.512,4.483 C39.512,2.531 37.931,0.949 35.981,0.949 L4.443,0.949 Z" id="path-1"></path>
        <path d="M4.443,0.949 C2.49,0.949 0.909,2.531 0.909,4.483 L0.909,58.54 C0.909,60.491 2.49,62.074 4.443,62.074 L35.981,62.074 C37.931,62.074 39.512,60.491 39.512,58.54 L39.512,4.483 C39.512,2.531 37.931,0.949 35.981,0.949" id="path-3"></path>
        <path d="M4.154,0.09 C1.887,0.09 0.05,1.927 0.05,4.193 L0.05,66.97 C0.05,69.236 1.887,71.074 4.154,71.074 L40.778,71.074 C43.044,71.074 44.88,69.236 44.88,66.97 L44.88,4.193 C44.88,1.927 43.044,0.09 40.778,0.09 L4.154,0.09 Z" id="path-5"></path>
        <path d="M4.154,0.09 C1.887,0.09 0.05,1.927 0.05,4.193 L0.05,66.97 C0.05,69.236 1.887,71.074 4.154,71.074 L40.778,71.074 C43.044,71.074 44.88,69.236 44.88,66.97 L44.88,4.193 C44.88,1.927 43.044,0.09 40.778,0.09" id="path-7"></path>
        <path d="M5.436,0.758 C2.84,0.758 0.735,2.862 0.735,5.458 L0.735,77.373 C0.735,79.968 2.84,82.074 5.436,82.074 L47.392,82.074 C49.988,82.074 52.091,79.968 52.091,77.373 L52.091,5.458 C52.091,2.862 49.988,0.758 47.392,0.758 L5.436,0.758 Z" id="path-9"></path>
        <path d="M5.436,0.758 C2.84,0.758 0.735,2.862 0.735,5.458 L0.735,77.373 C0.735,79.968 2.84,82.074 5.436,82.074 L47.392,82.074 C49.988,82.074 52.091,79.968 52.091,77.373 L52.091,5.458 C52.091,2.862 49.988,0.758 47.392,0.758" id="path-11"></path>
    </defs>
    <g id="Page-1" stroke="none" stroke-width="1" fill="none" fill-rule="evenodd">
        <g id="Artboard-8" transform="translate(-280.000000, -162.000000)">
            <g id="Room_upgrade" transform="translate(280.000000, 162.000000)">
                <g id="Group-521">
                    <path d="M151.5752,71.75 C151.5752,111.254 119.5522,143.275 80.0502,143.275 C40.5482,143.275 8.5242,111.254 8.5242,71.75 C8.5242,32.248 40.5482,0.226 80.0502,0.226 C119.5522,0.226 151.5752,32.248 151.5752,71.75" id="Fill-515" fill="#F9DED5"></path>
                    <path d="M40.5127,97.54 C40.5127,99.491 38.9317,101.073 36.9807,101.073 L5.4437,101.073 C3.4907,101.073 1.9087,99.491 1.9087,97.54 L1.9087,43.482 C1.9087,41.531 3.4907,39.949 5.4437,39.949 L36.9807,39.949 C38.9317,39.949 40.5127,41.531 40.5127,43.482 L40.5127,97.54 Z" id="Fill-517" fill="#FFFFFE"></path>
                    <path d="M5.4434,40.9492 C4.0464,40.9492 2.9094,42.0852 2.9094,43.4822 L2.9094,97.5402 C2.9094,98.9372 4.0464,100.0732 5.4434,100.0732 L36.9804,100.0732 C38.3774,100.0732 39.5124,98.9372 39.5124,97.5402 L39.5124,43.4822 C39.5124,42.0852 38.3774,40.9492 36.9804,40.9492 L5.4434,40.9492 Z M36.9804,102.0732 L5.4434,102.0732 C2.9434,102.0732 0.9094,100.0392 0.9094,97.5402 L0.9094,43.4822 C0.9094,40.9832 2.9434,38.9492 5.4434,38.9492 L36.9804,38.9492 C39.4794,38.9492 41.5124,40.9832 41.5124,43.4822 L41.5124,97.5402 C41.5124,100.0392 39.4794,102.0732 36.9804,102.0732 Z" id="Fill-519" fill="#5A7A8E"></path>
                </g>
                <g id="Group-528" transform="translate(1.000000, 39.000000)">
                    <g id="Group-524">
                        <mask id="mask-2" fill="white">
                            <use xlink:href="#path-1"></use>
                        </mask>
                        <g id="Clip-523"></g>
                        <path d="M42.9824,61.498 C42.9824,63.449 41.4004,65.033 39.4494,65.033 L7.9124,65.033 C5.9604,65.033 4.3784,63.449 4.3784,61.498 L4.3784,7.44 C4.3784,5.489 5.9604,3.908 7.9124,3.908 L39.4494,3.908 C41.4004,3.908 42.9824,5.489 42.9824,7.44 L42.9824,61.498 Z" id="Fill-522" fill="#E98875" mask="url(#mask-2)"></path>
                    </g>
                    <g id="Group-527">
                        <mask id="mask-4" fill="white">
                            <use xlink:href="#path-3"></use>
                        </mask>
                        <g id="Clip-526"></g>
                        <path d="M39.4492,3.9082 L34.9142,3.9082 L34.9142,53.6102 C34.9142,55.5612 33.3322,57.1432 31.3812,57.1432 L4.3792,57.1432 L4.3792,61.4982 C4.3792,63.4492 5.9602,65.0332 7.9122,65.0332 L39.4492,65.0332 C41.4002,65.0332 42.9822,63.4492 42.9822,61.4982 L42.9822,7.4402 C42.9822,5.4892 41.4002,3.9082 39.4492,3.9082" id="Fill-525" fill="#E47460" mask="url(#mask-4)"></path>
                    </g>
                </g>
                <g id="Group-538" transform="translate(0.000000, 29.000000)">
                    <path d="M5.4434,11.9492 C4.0464,11.9492 2.9094,13.0852 2.9094,14.4822 L2.9094,68.5402 C2.9094,69.9372 4.0464,71.0732 5.4434,71.0732 L36.9804,71.0732 C38.3774,71.0732 39.5124,69.9372 39.5124,68.5402 L39.5124,14.4822 C39.5124,13.0852 38.3774,11.9492 36.9804,11.9492 L5.4434,11.9492 Z M36.9804,73.0732 L5.4434,73.0732 C2.9434,73.0732 0.9094,71.0392 0.9094,68.5402 L0.9094,14.4822 C0.9094,11.9832 2.9434,9.9492 5.4434,9.9492 L36.9804,9.9492 C39.4794,9.9492 41.5124,11.9832 41.5124,14.4822 L41.5124,68.5402 C41.5124,71.0392 39.4794,73.0732 36.9804,73.0732 Z" id="Fill-529" fill="#5A7A8E"></path>
                    <path d="M7.7998,33.9277 C7.7048,33.9277 7.6288,33.8527 7.6288,33.7567 L7.6288,15.7407 C7.6288,15.6467 7.7048,15.5717 7.7998,15.5717 L34.6228,15.5717 C34.7168,15.5717 34.7928,15.6467 34.7928,15.7407 L34.7928,33.7567 C34.7928,33.8527 34.7168,33.9277 34.6228,33.9277 L7.7998,33.9277 Z" id="Fill-531" fill="#FFFFFE"></path>
                    <path d="M8.629,32.928 L33.793,32.928 L33.793,16.572 L8.629,16.572 L8.629,32.928 Z M34.623,34.928 L7.8,34.928 C7.154,34.928 6.629,34.402 6.629,33.757 L6.629,15.74 C6.629,15.096 7.154,14.571 7.8,14.571 L34.623,14.571 C35.269,14.571 35.793,15.096 35.793,15.74 L35.793,33.757 C35.793,34.402 35.269,34.928 34.623,34.928 Z" id="Fill-533" fill="#5A7A8E"></path>
                    <path d="M32.0918,42.1514 C35.3158,42.1514 35.3158,37.1514 32.0918,37.1514 C28.8678,37.1514 28.8678,42.1514 32.0918,42.1514" id="Fill-535" fill="#5A7A8E"></path>
                    <path d="M95.8799,67.9697 C95.8799,70.2357 94.0439,72.0737 91.7779,72.0737 L55.1529,72.0737 C52.8869,72.0737 51.0499,70.2357 51.0499,67.9697 L51.0499,5.1927 C51.0499,2.9267 52.8869,1.0897 55.1529,1.0897 L91.7779,1.0897 C94.0439,1.0897 95.8799,2.9267 95.8799,5.1927 L95.8799,67.9697 Z" id="Fill-536" fill="#FFFFFE"></path>
                    <path d="M55.1533,2.0898 C53.4423,2.0898 52.0493,3.4818 52.0493,5.1928 L52.0493,67.9698 C52.0493,69.6808 53.4423,71.0728 55.1533,71.0728 L91.7783,71.0728 C93.4883,71.0728 94.8803,69.6808 94.8803,67.9698 L94.8803,5.1928 C94.8803,3.4818 93.4883,2.0898 91.7783,2.0898 L55.1533,2.0898 Z M91.7783,73.0728 L55.1533,73.0728 C52.3393,73.0728 50.0493,70.7838 50.0493,67.9698 L50.0493,5.1928 C50.0493,2.3788 52.3393,0.0898 55.1533,0.0898 L91.7783,0.0898 C94.5913,0.0898 96.8803,2.3788 96.8803,5.1928 L96.8803,67.9698 C96.8803,70.7838 94.5913,73.0728 91.7783,73.0728 Z" id="Fill-537" fill="#5A7A8E"></path>
                </g>
                <g id="Group-545" transform="translate(51.000000, 30.000000)">
                    <g id="Group-541">
                        <mask id="mask-6" fill="white">
                            <use xlink:href="#path-5"></use>
                        </mask>
                        <g id="Clip-540"></g>
                        <path d="M49.2197,70.04 C49.2197,72.306 47.3847,74.144 45.1187,74.144 L8.4937,74.144 C6.2277,74.144 4.3907,72.306 4.3907,70.04 L4.3907,7.263 C4.3907,4.997 6.2277,3.16 8.4937,3.16 L45.1187,3.16 C47.3847,3.16 49.2197,4.997 49.2197,7.263 L49.2197,70.04 Z" id="Fill-539" fill="#E98875" mask="url(#mask-6)"></path>
                    </g>
                    <g id="Group-544">
                        <mask id="mask-8" fill="white">
                            <use xlink:href="#path-7"></use>
                        </mask>
                        <g id="Clip-543"></g>
                        <path d="M45.1191,3.1602 L40.9571,3.1602 L40.9571,63.0482 C40.9571,65.3132 39.1211,67.1512 36.8551,67.1512 L4.3901,67.1512 L4.3901,70.0402 C4.3901,72.3062 6.2271,74.1442 8.4941,74.1442 L45.1191,74.1442 C47.3851,74.1442 49.2201,72.3062 49.2201,70.0402 L49.2201,7.2632 C49.2201,4.9972 47.3851,3.1602 45.1191,3.1602" id="Fill-542" fill="#E47460" mask="url(#mask-8)"></path>
                    </g>
                </g>
                <g id="Group-555" transform="translate(50.000000, 18.000000)">
                    <path d="M5.1533,13.0898 C3.4423,13.0898 2.0493,14.4818 2.0493,16.1928 L2.0493,78.9698 C2.0493,80.6808 3.4423,82.0728 5.1533,82.0728 L41.7783,82.0728 C43.4883,82.0728 44.8803,80.6808 44.8803,78.9698 L44.8803,16.1928 C44.8803,14.4818 43.4883,13.0898 41.7783,13.0898 L5.1533,13.0898 Z M41.7783,84.0728 L5.1533,84.0728 C2.3393,84.0728 0.0493,81.7838 0.0493,78.9698 L0.0493,16.1928 C0.0493,13.3788 2.3393,11.0898 5.1533,11.0898 L41.7783,11.0898 C44.5913,11.0898 46.8803,13.3788 46.8803,16.1928 L46.8803,78.9698 C46.8803,81.7838 44.5913,84.0728 41.7783,84.0728 Z" id="Fill-546" fill="#5A7A8E"></path>
                    <path d="M6.5635,41.376 C6.4445,41.376 6.3485,41.28 6.3485,41.161 L6.3485,17.549 C6.3485,17.431 6.4445,17.335 6.5635,17.335 L40.3665,17.335 C40.4835,17.335 40.5805,17.431 40.5805,17.549 L40.5805,41.161 C40.5805,41.28 40.4835,41.376 40.3665,41.376 L6.5635,41.376 Z" id="Fill-548" fill="#FFFFFE"></path>
                    <path d="M7.349,40.376 L39.58,40.376 L39.58,18.335 L7.349,18.335 L7.349,40.376 Z M40.366,42.376 L6.563,42.376 C5.894,42.376 5.349,41.831 5.349,41.161 L5.349,17.549 C5.349,16.879 5.894,16.335 6.563,16.335 L40.366,16.335 C41.035,16.335 41.58,16.879 41.58,17.549 L41.58,41.161 C41.58,41.831 41.035,42.376 40.366,42.376 Z" id="Fill-550" fill="#5A7A8E"></path>
                    <path d="M38.8672,53.1514 C42.0912,53.1514 42.0912,48.1514 38.8672,48.1514 C35.6432,48.1514 35.6432,53.1514 38.8672,53.1514" id="Fill-552" fill="#5A7A8E"></path>
                    <path d="M108.0908,78.373 C108.0908,80.968 105.9878,83.073 103.3928,83.073 L61.4368,83.073 C58.8408,83.073 56.7358,80.968 56.7358,78.373 L56.7358,6.458 C56.7358,3.862 58.8408,1.758 61.4368,1.758 L103.3928,1.758 C105.9878,1.758 108.0908,3.862 108.0908,6.458 L108.0908,78.373 Z" id="Fill-553" fill="#FFFFFE"></path>
                    <path d="M61.4365,2.7578 C59.3955,2.7578 57.7355,4.4178 57.7355,6.4578 L57.7355,78.3728 C57.7355,80.4138 59.3955,82.0728 61.4365,82.0728 L103.3925,82.0728 C105.4315,82.0728 107.0905,80.4138 107.0905,78.3728 L107.0905,6.4578 C107.0905,4.4178 105.4315,2.7578 103.3925,2.7578 L61.4365,2.7578 Z M103.3925,84.0728 L61.4365,84.0728 C58.2925,84.0728 55.7355,81.5158 55.7355,78.3728 L55.7355,6.4578 C55.7355,3.3148 58.2925,0.7578 61.4365,0.7578 L103.3925,0.7578 C106.5345,0.7578 109.0905,3.3148 109.0905,6.4578 L109.0905,78.3728 C109.0905,81.5158 106.5345,84.0728 103.3925,84.0728 Z" id="Fill-554" fill="#5A7A8E"></path>
                </g>
                <g id="Group-562" transform="translate(106.000000, 19.000000)">
                    <g id="Group-558">
                        <mask id="mask-10" fill="white">
                            <use xlink:href="#path-9"></use>
                        </mask>
                        <g id="Clip-557"></g>
                        <path d="M58.0674,80.6563 C58.0674,83.2513 55.9644,85.3573 53.3694,85.3573 L11.4134,85.3573 C8.8174,85.3573 6.7134,83.2513 6.7134,80.6563 L6.7134,8.7413 C6.7134,6.1453 8.8174,4.0403 11.4134,4.0403 L53.3694,4.0403 C55.9644,4.0403 58.0674,6.1453 58.0674,8.7413 L58.0674,80.6563 Z" id="Fill-556" fill="#E98875" mask="url(#mask-10)"></path>
                    </g>
                    <g id="Group-561">
                        <mask id="mask-12" fill="white">
                            <use xlink:href="#path-11"></use>
                        </mask>
                        <g id="Clip-560"></g>
                        <path d="M53.3691,4.04 L47.7501,4.04 L47.7501,72.893 C47.7501,75.486 45.6471,77.593 43.0521,77.593 L6.7131,77.593 L6.7131,80.656 C6.7131,83.251 8.8171,85.357 11.4131,85.357 L53.3691,85.357 C55.9651,85.357 58.0671,83.251 58.0671,80.656 L58.0671,8.741 C58.0671,6.145 55.9651,4.04 53.3691,4.04" id="Fill-559" fill="#E47460" mask="url(#mask-12)"></path>
                    </g>
                </g>
                <g id="Group-572" transform="translate(30.000000, 18.000000)">
                    <path d="M81.4365,2.7578 C79.3955,2.7578 77.7355,4.4178 77.7355,6.4578 L77.7355,78.3728 C77.7355,80.4138 79.3955,82.0728 81.4365,82.0728 L123.3925,82.0728 C125.4315,82.0728 127.0905,80.4138 127.0905,78.3728 L127.0905,6.4578 C127.0905,4.4178 125.4315,2.7578 123.3925,2.7578 L81.4365,2.7578 Z M123.3925,84.0728 L81.4365,84.0728 C78.2925,84.0728 75.7355,81.5158 75.7355,78.3728 L75.7355,6.4578 C75.7355,3.3148 78.2925,0.7578 81.4365,0.7578 L123.3925,0.7578 C126.5345,0.7578 129.0905,3.3148 129.0905,6.4578 L129.0905,78.3728 C129.0905,81.5158 126.5345,84.0728 123.3925,84.0728 Z" id="Fill-563" fill="#5A7A8E"></path>
                    <path d="M83.4902,37.2822 C83.3562,37.2822 83.2512,37.1752 83.2512,37.0422 L83.2512,7.2332 C83.2512,7.1022 83.3562,6.9952 83.4902,6.9952 L121.3372,6.9952 C121.4692,6.9952 121.5762,7.1022 121.5762,7.2332 L121.5762,37.0422 C121.5762,37.1752 121.4692,37.2822 121.3372,37.2822 L83.4902,37.2822 Z" id="Fill-565" fill="#FFFFFE"></path>
                    <path d="M84.251,36.282 L120.576,36.282 L120.576,7.995 L84.251,7.995 L84.251,36.282 Z M121.337,38.282 L83.49,38.282 C82.807,38.282 82.251,37.726 82.251,37.042 L82.251,7.233 C82.251,6.551 82.807,5.995 83.49,5.995 L121.337,5.995 C122.021,5.995 122.576,6.551 122.576,7.233 L122.576,37.042 C122.576,37.726 122.021,38.282 121.337,38.282 Z" id="Fill-567" fill="#5A7A8E"></path>
                    <path d="M121.5762,53.1514 C124.8002,53.1514 124.8002,48.1514 121.5762,48.1514 C118.3522,48.1514 118.3522,53.1514 121.5762,53.1514" id="Fill-569" fill="#5A7A8E"></path>
                    <path d="M83.7803,96.7422 C76.2593,96.7422 70.1623,90.6462 70.1623,83.1242 C70.1623,75.6022 76.2593,69.5052 83.7803,69.5052 C91.3013,69.5052 97.3973,75.6022 97.3973,83.1242 C97.3973,90.6462 91.3013,96.7422 83.7803,96.7422 M83.7803,60.8962 C73.1723,60.8962 64.3053,68.3292 62.0903,78.2682 L6.1493,78.2682 C3.4673,78.2682 1.2943,80.4422 1.2943,83.1242 C1.2943,83.2272 1.3033,83.3262 1.3093,83.4292 C1.3033,83.5302 1.2943,83.6302 1.2943,83.7322 L1.2943,100.8872 C1.2943,103.5682 3.4673,105.7422 6.1493,105.7422 C8.8313,105.7422 11.0053,103.5682 11.0053,100.8872 L11.0053,87.9782 L15.3823,87.9782 L15.3823,92.4512 C15.3823,95.1332 17.5553,97.3062 20.2353,97.3062 C22.9183,97.3062 25.0913,95.1332 25.0913,92.4512 L25.0913,87.9782 L62.0903,87.9782 C64.3053,97.9182 73.1723,105.3512 83.7803,105.3512 C96.0553,105.3512 106.0083,95.4002 106.0083,83.1242 C106.0083,70.8472 96.0553,60.8962 83.7803,60.8962" id="Fill-570" fill="#FFFFFE"></path>
                    <path d="M83.7803,70.5049 C76.8223,70.5049 71.1623,76.1659 71.1623,83.1239 C71.1623,90.0819 76.8223,95.7419 83.7803,95.7419 C90.7373,95.7419 96.3973,90.0819 96.3973,83.1239 C96.3973,76.1659 90.7373,70.5049 83.7803,70.5049 Z M83.7803,97.7419 C75.7193,97.7419 69.1623,91.1849 69.1623,83.1239 C69.1623,75.0629 75.7193,68.5049 83.7803,68.5049 C91.8403,68.5049 98.3973,75.0629 98.3973,83.1239 C98.3973,91.1849 91.8403,97.7419 83.7803,97.7419 Z M6.1493,79.2689 C4.0233,79.2689 2.2943,80.9979 2.2943,83.1239 C2.2943,83.1739 2.2983,83.2219 2.3013,83.2709 C2.3013,83.2749 2.3073,83.3679 2.3073,83.3719 C2.3103,83.4099 2.3103,83.4479 2.3073,83.4859 C2.2983,83.6339 2.2943,83.6829 2.2943,83.7329 L2.2943,100.8869 C2.2943,103.0129 4.0233,104.7419 6.1493,104.7419 C8.2753,104.7419 10.0053,103.0129 10.0053,100.8869 L10.0053,87.9779 C10.0053,87.4259 10.4523,86.9779 11.0053,86.9779 L15.3823,86.9779 C15.9343,86.9779 16.3823,87.4259 16.3823,87.9779 L16.3823,92.4509 C16.3823,94.5769 18.1103,96.3069 20.2353,96.3069 C22.3613,96.3069 24.0913,94.5769 24.0913,92.4509 L24.0913,87.9779 C24.0913,87.4259 24.5383,86.9779 25.0913,86.9779 L62.0903,86.9779 C62.5583,86.9779 62.9643,87.3029 63.0653,87.7599 C65.2093,97.3739 73.9213,104.3519 83.7803,104.3519 C95.4853,104.3519 105.0083,94.8289 105.0083,83.1239 C105.0083,71.4189 95.4853,61.8969 83.7803,61.8969 C73.9213,61.8969 65.2093,68.8739 63.0653,78.4859 C62.9643,78.9429 62.5583,79.2689 62.0903,79.2689 L6.1493,79.2689 Z M6.1493,106.7419 C2.9213,106.7419 0.2943,104.1149 0.2943,100.8869 L0.2943,83.7329 C0.2943,83.6359 0.3003,83.5419 0.3063,83.4469 C0.3003,83.3139 0.2943,83.2209 0.2943,83.1239 C0.2943,79.8959 2.9213,77.2689 6.1493,77.2689 L61.3023,77.2689 C63.9353,67.1549 73.2603,59.8969 83.7803,59.8969 C96.5883,59.8969 107.0083,70.3169 107.0083,83.1239 C107.0083,95.9319 96.5883,106.3519 83.7803,106.3519 C73.2603,106.3519 63.9353,99.0929 61.3023,88.9779 L26.0913,88.9779 L26.0913,92.4509 C26.0913,95.6799 23.4643,98.3069 20.2353,98.3069 C17.0083,98.3069 14.3823,95.6799 14.3823,92.4509 L14.3823,88.9779 L12.0053,88.9779 L12.0053,100.8869 C12.0053,104.1149 9.3783,106.7419 6.1493,106.7419 Z" id="Fill-571" fill="#5A7A8E"></path>
                </g>
            </g>
        </g>
    </g>
</svg>