<?xml version="1.0" encoding="UTF-8"?>
<svg width="145px" height="189px" viewBox="0 0 145 189" version="1.1" xmlns="http://www.w3.org/2000/svg" xmlns:xlink="http://www.w3.org/1999/xlink">
    <!-- Generator: Sketch 52.2 (67145) - http://www.bohemiancoding.com/sketch -->
    <title>Activ_Care_Old_Lady</title>
    <desc>Created with Sketch.</desc>
    <defs>
        <path d="M29.69,0.582 C26.257,0.582 23.472,3.366 23.472,6.802 L23.472,24.041 L6.23,24.041 C2.794,24.041 0.011,26.826 0.011,30.26 L0.011,41.575 C0.011,45.012 2.794,47.796 6.23,47.796 L23.472,47.796 L23.472,65.038 C23.472,68.472 26.257,71.255 29.69,71.255 L41.005,71.255 C44.438,71.255 47.224,68.472 47.224,65.038 L47.224,47.796 L64.468,47.796 C67.9,47.796 70.684,45.012 70.684,41.575 L70.684,30.26 C70.684,26.826 67.9,24.041 64.468,24.041 L47.224,24.041 L47.224,6.802 C47.224,3.366 44.438,0.582 41.005,0.582" id="path-1"></path>
        <path d="M29.69,0.582 C26.257,0.582 23.472,3.366 23.472,6.802 L23.472,24.041 L6.23,24.041 C2.794,24.041 0.011,26.826 0.011,30.26 L0.011,41.575 C0.011,45.012 2.794,47.796 6.23,47.796 L23.472,47.796 L23.472,65.038 C23.472,68.472 26.257,71.255 29.69,71.255 L41.005,71.255 C44.438,71.255 47.224,68.472 47.224,65.038 L47.224,47.796 L64.468,47.796 C67.9,47.796 70.684,45.012 70.684,41.575 L70.684,30.26 C70.684,26.826 67.9,24.041 64.468,24.041 L47.224,24.041 L47.224,6.802 C47.224,3.366 44.438,0.582 41.005,0.582 L29.69,0.582 Z" id="path-3"></path>
        <path d="M29.69,0.582 C26.257,0.582 23.472,3.366 23.472,6.802 L23.472,24.041 L6.23,24.041 C2.794,24.041 0.011,26.826 0.011,30.26 L0.011,41.575 C0.011,45.012 2.794,47.796 6.23,47.796 L23.472,47.796 L23.472,65.038 C23.472,68.472 26.257,71.255 29.69,71.255 L41.005,71.255 C44.438,71.255 47.224,68.472 47.224,65.038 L47.224,47.796 L64.468,47.796 C67.9,47.796 70.684,45.012 70.684,41.575 L70.684,30.26 C70.684,26.826 67.9,24.041 64.468,24.041 L47.224,24.041 L47.224,6.802 C47.224,3.366 44.438,0.582 41.005,0.582 L29.69,0.582 Z" id="path-5"></path>
        <path d="M29.69,0.582 C26.257,0.582 23.472,3.366 23.472,6.802 L23.472,24.041 L6.23,24.041 C2.794,24.041 0.011,26.826 0.011,30.26 L0.011,41.575 C0.011,45.012 2.794,47.796 6.23,47.796 L23.472,47.796 L23.472,65.038 C23.472,68.472 26.257,71.255 29.69,71.255 L41.005,71.255 C44.438,71.255 47.224,68.472 47.224,65.038 L47.224,47.796 L64.468,47.796 C67.9,47.796 70.684,45.012 70.684,41.575 L70.684,30.26 C70.684,26.826 67.9,24.041 64.468,24.041 L47.224,24.041 L47.224,6.802 C47.224,3.366 44.438,0.582 41.005,0.582" id="path-7"></path>
    </defs>
    <g id="Page-1" stroke="none" stroke-width="1" fill="none" fill-rule="evenodd">
        <g id="Activ_Care_Old_Lady">
            <path d="M143.051,93.524 C143.051,133.027 111.026,165.048 71.526,165.048 C32.026,165.048 -2.84217094e-14,133.027 -2.84217094e-14,93.524 C-2.84217094e-14,54.022 32.026,22 71.526,22 C111.026,22 143.051,54.022 143.051,93.524" id="Fill-348" fill="#F9DED5"></path>
            <g transform="translate(11.000000, 69.000000)" id="Group">
                <g>
                    <g id="Group-2" fill="#FFFFFF">
                        <path d="M115.6885,57.4735 C113.9615,47.803 108.7515,41.4455 103.832,37.8065 C98.396,33.7425 93.4015,32.641 93.0595,32.5565 C92.4225,32.417 91.7885,32.441 91.1975,32.5945 C91.109,32.5835 91.0195,32.577 90.929,32.572 C88.7505,35.098 85.545,36.647 82.0095,36.647 C81.11,36.647 80.205,36.5425 79.322,36.3365 C76.7535,35.739 74.5165,34.325 72.875,32.316 C72.854,32.3175 72.8335,32.316 72.8125,32.318 C72.4195,32.366 67.3085,32.7885 61.8005,36.508 C59.058,38.367 56.2455,41.094 54.096,44.9275 C53.998,45.102 53.909,45.29 53.814,45.4685 C51.4375,39.3055 48.3825,34.9295 45.401,31.9145 C41.9445,28.4045 38.6845,26.762 36.885,26.054 C36.2565,25.611 35.4915,25.349 34.664,25.349 L15.3465,25.349 C14.922,25.349 14.5145,25.42 14.1325,25.5465 C13.284,25.668 12.219,25.943 11.057,26.529 C8.3675,27.863 5.468,30.781 3.439,35.949 C1.3855,41.1385 0.0065,48.6435 4.97379915e-14,59.972 C4.97379915e-14,62.9005 0.0945,66.085 0.2975,69.5515 C0.4225,71.677 2.1845,73.3175 4.2865,73.3175 C4.3655,73.3175 4.4445,73.3155 4.525,73.3105 C6.7305,73.181 8.4135,71.289 8.2845,69.0835 C8.089,65.7585 8,62.7295 8,59.972 C7.983,47.864 9.748,41.062 11.482,37.5125 L11.482,53.94 L11.482,63.4095 L11.482,112.4095 C11.482,115.8245 14.2505,118.591 17.6635,118.591 C21.0775,118.591 23.846,115.8245 23.846,112.4095 L23.846,67.274 L26.1635,67.274 L26.1635,112.4095 C26.1635,115.8245 28.932,118.591 32.345,118.591 C35.759,118.591 38.5275,115.8245 38.5275,112.4095 L38.5275,63.4095 L38.5275,53.94 L38.5275,36.4215 C39.434,37.217 40.4045,38.2055 41.3875,39.4335 C44.551,43.4005 47.9125,49.917 49.4275,60.7725 C49.705,62.7735 51.4185,64.2225 53.3835,64.2225 C53.567,64.2225 53.7525,64.21 53.9395,64.184 C54.4385,64.1145 54.901,63.9525 55.3175,63.723 C56.917,63.2585 58.118,61.8195 58.197,60.0635 C58.4265,55.0795 59.5805,51.5065 61.0705,48.845 C63.1285,45.1935 65.9085,43.1355 68.3985,41.904 C66.3725,52.0795 62.406,73.45 62.5875,83.9435 C62.635,86.6915 62.9655,88.6985 63.6925,89.5565 C65.8245,92.073 73.8625,94.0165 81.9985,94.4745 C90.134,94.0165 98.1735,92.073 100.305,89.5565 C101.0315,88.6985 101.3615,86.692 101.4095,83.9435 C101.59,73.5095 97.6695,52.3185 95.6325,42.076 C96.806,42.683 98.1095,43.473 99.4095,44.496 C102.6805,47.104 105.961,50.9555 107.474,57.2905 C104.6185,58.731 102.656,61.682 102.6545,65.0995 C102.6545,66.339 103.6595,67.3435 104.8985,67.3435 C106.1375,67.3435 107.1425,66.3385 107.1425,65.0995 C107.1435,63.96 107.5935,62.928 108.322,62.1635 C108.8345,63.8135 110.374,64.972 112.135,64.972 C112.2625,64.972 112.3915,64.966 112.5205,64.9535 C113.672,64.843 114.6585,64.2525 115.311,63.4015 C115.538,63.922 115.666,64.4955 115.6675,65.1 L115.6675,116.0295 C115.6675,117.268 116.6715,118.2735 117.9105,118.2735 C119.149,118.2735 120.1545,117.2675 120.1545,116.0295 L120.1535,65.1 C120.155,61.8235 118.3525,58.973 115.6885,57.4735 Z" id="Path"></path>
                        <path d="M67.281,111.5595 C67.281,114.7355 69.855,117.31 73.032,117.31 C76.2075,117.31 78.7815,114.7355 78.7815,111.5595 C78.7815,105.166 78.9125,99.589 79.122,94.75 C74.7875,94.32 70.682,93.4885 67.7185,92.4 C67.451,97.838 67.2815,104.1885 67.281,111.5595 Z" id="Path"></path>
                        <path d="M85.218,111.5595 C85.218,114.7355 87.7915,117.31 90.967,117.31 C94.144,117.31 96.718,114.7355 96.718,111.5595 C96.717,104.1885 96.5475,97.8385 96.2805,92.4 C93.317,93.489 89.212,94.32 84.878,94.75 C85.088,99.588 85.2185,105.1665 85.218,111.5595 Z" id="Path"></path>
                        <circle id="Oval" transform="translate(82.000252, 25.842759) rotate(-76.890715) translate(-82.000252, -25.842759) " cx="82.0002517" cy="25.8427588" r="10.8060648"></circle>
                        <circle id="Oval" cx="25.0045" cy="11.25" r="11.25"></circle>
                    </g>
                    <g id="Fills" transform="translate(2.000000, 2.000000)" fill="#E98875">
                        <path d="M81.7740542,33.5467125 C76.9368072,33.5467125 73,29.6126974 73,24.7726582 C73,19.9354111 76.9368072,16 81.7740542,16 C86.6113013,16 90.5453164,19.9354111 90.5453164,24.7726582 C90.5453164,29.6126974 86.6113013,33.5467125 81.7740542,33.5467125" id="Fill-40"></path>
                        <path d="M24.2921483,19.4075512 C19.1997992,19.4075512 15.0553766,15.2660679 15.0553766,10.1707795 C15.0553766,5.07843044 19.1997992,0.935477467 24.2921483,0.935477467 C29.3844974,0.935477467 33.5259807,5.07843044 33.5259807,10.1707795 C33.5259807,15.2660679 29.3844974,19.4075512 24.2921483,19.4075512" id="Fill-40"></path>
                        <path d="M36.540972,25.8493536 C20.45313,25.8493536 12.409209,25.8493536 12.409209,25.8493536 C8.9461521,27.362401 6.57694841,29.295827 5.30159794,31.6496317 C3.14890112,35.9816116 1.8774991,40.0495716 1.4873919,43.8535117 C0.744819423,49.2794764 0.540157918,55.5722583 0.87340739,62.7318574 C1.20665686,69.8914564 1.66298773,72.8844039 2.2424,71.7107 L6.14617214,69.1488 L6.14617214,55.839437 C6.89269307,48.4425457 7.26595354,44.7441 7.26595354,44.7441 C7.21939388,44.1827716 7.52499884,43.8859088 8.18276842,43.8535117 C9.19981831,43.8034189 11.2699719,41.3873543 12.409209,44.6895254 C12.409209,52.0864167 12.409209,64.7636837 12.409209,82.7213264 L12.409209,112.067945 C12.409209,113.386973 13.159521,114.599025 14.6601449,115.7041 C16.1607689,116.809174 18.0491274,116.677808 20.3252205,115.31 L22.8328992,109.704126 L24.812033,111.499218 L25.2370737,113.897575 L30.00347,116.591 C32.0362172,116.184899 33.4532272,115.757899 34.2545,115.31 C35.0557728,114.862101 35.8179301,114.070981 36.540972,112.93664 L36.540972,37.3285 L37.4554087,35.2037 C40.92111,39.5295662 42.6539606,41.6924993 42.6539606,41.6924993 C45.7781724,51.6075 47.5313161,57.8597334 47.913392,60.4491994 C48.4865057,64.3333984 56.1985093,61.3974896 56.1985093,60.4491994 C56.1985093,59.5009092 56.7804376,52.1697224 56.7804376,52.1697224 L60.5635002,44.745776 L65.627361,40.2745902 C66.3819817,41.5888272 66.8610906,41.9200491 67.0646878,41.268256 C68.6465519,36.2041 70.902798,30.9543669 70.2632113,30.3498705 C69.397787,29.5319268 65.7509745,30.9642366 59.3227738,34.6468 L51.5857541,42.6046 L47.913392,36.8181233 L44.2844521,30.0718 L36.540972,25.8493536 Z" id="Path-2" fill-rule="nonzero"></path>
                        <polygon id="Path-5" fill-rule="nonzero" points="75 12.7481394 78.5945878 9.116 83.3690852 9.94289987 84.9184464 12.7481394 77.5772437 13.1864581"></polygon>
                        <path d="M105.538125,54.9782888 L100.187298,44.7441 L93.8143977,40 L95.4106648,50.1089499 L98.5921902,67.3771 L99.6762612,76.2703477 L99.6762612,85.9991755 C97.2272998,89.3670769 94.0654742,91.0510276 90.1907845,91.0510276 C86.5563558,92.2670103 82.8056593,92.7795926 78.9386951,92.5887745 L67.0533134,90.1929254 L64.1388948,88.567688 C62.9298649,80.1544144 63.9013378,68.957948 67.0533134,54.9782888 C70.205289,40.9986296 72.1573122,33.4448 72.9093828,32.3168 L79.7828915,34.6468 L84.5871193,34.0088 L87.8719966,30.0718 L90.1907845,30.0718 L103.374039,36.2041 L108.878987,42.9396 L113.571607,53.7621129 L113.571607,55.9250403 L115.976691,57.0294147 L118.530406,63.2619552 L118.044763,86.8087 L118.044763,105.741678 L118.044763,114.761843 C116.527688,117.111681 115.143602,117.111681 113.892503,114.761843 C113.892503,112.222045 113.785538,103.128468 113.571607,87.4811105 L113.571607,62.888872 L113.227888,61.7161504 L110.891235,62.888872 L106.849825,61.7161504 L105.538125,61.1587231 L105.538125,64.0501179 L101.715292,65.226502 L100.742785,62.888872 L101.364184,59.5745844 L102.911209,57.0294147 L105.538125,54.9782888 Z" id="Path-7" fill-rule="nonzero"></path>
                        <path d="M85.7369147,92.8072464 L85.7369147,109.693531 C85.7369147,112.834592 86.4857261,114.609972 87.9833488,115.01967 C89.4809714,115.429368 90.9071718,115.124089 92.26195,114.103833 L95.3982033,109.05785 L94.6617378,98.2480918 L94.6617378,90.3306287 L85.7369147,92.8072464 Z" id="Path-6" fill-rule="nonzero"></path>
                        <path d="M68,92.4766177 L68,109.362902 C68,112.503964 68.7488113,114.279343 70.246434,114.689041 C71.7440567,115.098739 73.1702571,114.79346 74.5250353,113.773204 L77.6612886,108.727222 L76.9248231,97.9174632 L76.9248231,90 L68,92.4766177 Z" id="Path-6" fill-rule="nonzero"></path>
                    </g>
                    <g id="Shadows" transform="translate(17.000000, 4.000000)" fill="#E47460">
                        <path d="M71.4488495,15 C72.4707441,16.4351198 73.0822056,18.1843465 73.0822056,20.0801565 C73.0822056,24.9174036 69.1481905,28.8528147 64.3109434,28.8528147 C62.7459928,28.8528147 61.2731802,28.4354014 60,27.7108614 C61.5914752,29.9445108 64.1964689,31.4075512 67.1406981,31.4075512 C71.9779452,31.4075512 75.9119603,27.4735361 75.9119603,22.633497 C75.9119603,19.3612006 74.1096844,16.5091094 71.4488495,15" id="Fill-41"></path>
                        <path d="M12.9825298,1.9068 C14.0583161,3.41760371 15.9329728,3.34049393 15.9329728,5.33628326 C15.9329728,10.4286323 11.7914895,14.5715853 6.69914039,14.5715853 C5.05165891,14.5715853 3.50117456,14.1321589 2.16085064,13.3694088 C3.83625554,15.7208543 6.57862881,17.2610511 9.67812786,17.2610511 C14.7704769,17.2610511 18.9119603,13.1195677 18.9119603,8.02427936 C18.9119603,4.57941175 16.9856345,2.08269788 14.1844751,0.494002535 L12.9825298,1.9068 Z" id="Fill-41"></path>
                        <path d="M9.62066671,105.724458 C13.1371208,111.515077 16.1055588,111.515077 18.5259807,105.724458 C18.5259807,99.3576448 18.5259807,76.4494921 18.5259807,37 L18.5259807,32.6468 C19.3912485,30.6462667 20.4745012,30.6462667 21.7757388,32.6468 C23.0769764,34.6473333 23.0769764,50.9223726 21.7757388,81.4719178 L21.7757388,107.583544 L19.2545,113.31 L14.3796877,115 L11.3644588,112.684714 L9.1218795,109.391807 L9.62066671,105.724458 Z" id="Path-4" fill-rule="nonzero"></path>
                        <path d="M4.4515872,108.860924 C4.4515872,104.736606 4.43575854,90.3694244 4.40410122,65.7593786 L4.40410122,62.9636073 C5.26936903,61.6787976 6.35262173,61.6787976 7.65385932,62.9636073 C8.95509692,64.248417 8.95509692,74.7007942 7.65385932,94.3207388 L7.65385932,111.090503 L5.00597964,113.558202 L0.436025867,114.65466 C2.3875039,112.474747 3.72602434,110.543502 4.4515872,108.860924 Z" id="Path-4" fill-rule="nonzero"></path>
                        <path d="M68.4987872,103.578058 C72.0152413,109.368677 74.9836793,109.368677 77.4041012,103.578058 C77.576591,98.8847623 76.7172628,88.4978313 77.4041012,89.3428022 C77.6194832,89.6077721 78.3688804,85.4571341 79.1191128,89.3428022 C79.4441257,91.0261369 79.5921795,96.3773927 79.5632742,105.396569 L78.1326205,111.1636 L73.2578082,112.8536 L70.2425793,110.538314 L68,107.245407 L68.4987872,103.578058 Z" id="Path-4" fill-rule="nonzero"></path>
                        <path d="M50.5932604,103.904825 C53.7676987,109.695444 56.5651288,109.695444 58.9855507,103.904825 C59.1580405,99.2115294 58.811736,88.8245984 59.4985744,89.6695693 C59.7139564,89.9345392 60.6615865,88.2339673 61.4118189,92.1196354 C61.7368318,93.8029702 61.818808,98.3375372 61.6577474,105.723336 L60.2270937,111.490367 L55.3522814,113.180367 L52.3370525,110.865081 L50.0944732,107.572174 L50.5932604,103.904825 Z" id="Path-4" fill-rule="nonzero"></path>
                        <path d="M97.3219216,52.727185 L102.100749,57.4169369 L103.1545,60.2145927 L103.1545,112.329548 C101.842883,115.149095 100.323937,115.149095 98.5976639,112.329548 C98.5976639,109.414712 98.4023873,91.5832917 98.0118341,58.8352859 C97.9010005,57.7878478 97.8058796,56.912611 97.7264715,56.2095755 C97.6470633,55.5065401 97.5122134,54.3457432 97.3219216,52.727185 Z" id="Path-9" fill-rule="nonzero"></path>
                        <polygon id="Path-10" fill-rule="nonzero" points="92.6057902 58.620215 89.5818498 61.0986644 89.5818498 62.9261111 87.1024219 62.9261111 85.7052363 61.8448379 85.7052363 58.0783092 88.4655936 55.2783174 90.3532188 53.4433121 91.7027263 53.1749038"></polygon>
                        <path d="M77.9756163,38 L83.4972143,67.6488 L84.6053942,83.8316906 L81.2905053,87.0231814 L77.1737399,88.4 L64.7033346,90.2647573 C73.5515224,87.0880425 78.8556141,84.9472424 80.6156097,83.842357 C83.2556031,82.1850288 77.3863857,40.3524 75.9119603,38 C74.9290099,36.4317333 75.9307953,36.0984 78.9173164,37 L77.9756163,38 Z" id="Path-8" fill-rule="nonzero"></path>
                    </g>
                    <path d="M115.6885,57.4735 C113.9615,47.803 108.7515,41.4455 103.832,37.8065 C98.396,33.7425 93.4015,32.641 93.0595,32.5565 C92.4225,32.417 91.7885,32.441 91.1975,32.5945 C91.109,32.5835 91.0195,32.577 90.929,32.572 C88.7505,35.098 85.545,36.647 82.0095,36.647 C81.11,36.647 80.205,36.5425 79.322,36.3365 C76.7535,35.739 74.5165,34.325 72.875,32.316 C72.854,32.3175 72.8335,32.316 72.8125,32.318 C72.4195,32.366 67.3085,32.7885 61.8005,36.508 C59.058,38.367 56.2455,41.094 54.096,44.9275 C53.998,45.102 53.909,45.29 53.814,45.4685 C51.4375,39.3055 48.3825,34.9295 45.401,31.9145 C41.9445,28.4045 38.6845,26.762 36.885,26.054 C36.2565,25.611 35.4915,25.349 34.664,25.349 L15.3465,25.349 C14.922,25.349 14.5145,25.42 14.1325,25.5465 C13.284,25.668 12.219,25.943 11.057,26.529 C8.3675,27.863 5.468,30.781 3.439,35.949 C1.3855,41.1385 0.0065,48.6435 0,59.972 C0,62.9005 0.0945,66.085 0.2975,69.5515 C0.4225,71.677 2.1845,73.3175 4.2865,73.3175 C4.3655,73.3175 4.4445,73.3155 4.525,73.3105 C6.7305,73.181 8.4135,71.289 8.2845,69.0835 C8.089,65.7585 8,62.7295 8,59.972 C7.983,47.864 9.748,41.062 11.482,37.5125 L11.482,53.94 L11.482,63.4095 L11.482,112.4095 C11.482,115.8245 14.2505,118.591 17.6635,118.591 C21.0775,118.591 23.846,115.8245 23.846,112.4095 L23.846,67.274 L26.1635,67.274 L26.1635,112.4095 C26.1635,115.8245 28.932,118.591 32.345,118.591 C35.759,118.591 38.5275,115.8245 38.5275,112.4095 L38.5275,63.4095 L38.5275,53.94 L38.5275,36.4215 C39.434,37.217 40.4045,38.2055 41.3875,39.4335 C44.551,43.4005 47.9125,49.917 49.4275,60.7725 C49.705,62.7735 51.4185,64.2225 53.3835,64.2225 C53.567,64.2225 53.7525,64.21 53.9395,64.184 C54.4385,64.1145 54.901,63.9525 55.3175,63.723 C56.917,63.2585 58.118,61.8195 58.197,60.0635 C58.4265,55.0795 59.5805,51.5065 61.0705,48.845 C63.1285,45.1935 65.9085,43.1355 68.3985,41.904 C66.3725,52.0795 62.406,73.45 62.5875,83.9435 C62.635,86.6915 62.9655,88.6985 63.6925,89.5565 C65.8245,92.073 73.8625,94.0165 81.9985,94.4745 C90.134,94.0165 98.1735,92.073 100.305,89.5565 C101.0315,88.6985 101.3615,86.692 101.4095,83.9435 C101.59,73.5095 97.6695,52.3185 95.6325,42.076 C96.806,42.683 98.1095,43.473 99.4095,44.496 C102.6805,47.104 105.961,50.9555 107.474,57.2905 C104.6185,58.731 102.656,61.682 102.6545,65.0995 C102.6545,66.339 103.6595,67.3435 104.8985,67.3435 C106.1375,67.3435 107.1425,66.3385 107.1425,65.0995 C107.1435,63.96 107.5935,62.928 108.322,62.1635 C108.8345,63.8135 110.374,64.972 112.135,64.972 C112.2625,64.972 112.3915,64.966 112.5205,64.9535 C113.672,64.843 114.6585,64.2525 115.311,63.4015 C115.538,63.922 115.666,64.4955 115.6675,65.1 L115.6675,116.0295 C115.6675,117.268 116.6715,118.2735 117.9105,118.2735 C119.149,118.2735 120.1545,117.2675 120.1545,116.0295 L120.1535,65.1 C120.155,61.8235 118.3525,58.973 115.6885,57.4735 Z" id="Path" stroke="#5A7A8E" stroke-width="2.5" stroke-linecap="round" stroke-linejoin="round"></path>
                    <path d="M67.281,111.5595 C67.281,114.7355 69.855,117.31 73.032,117.31 C76.2075,117.31 78.7815,114.7355 78.7815,111.5595 C78.7815,105.166 78.9125,99.589 79.122,94.75 C74.7875,94.32 70.682,93.4885 67.7185,92.4 C67.451,97.838 67.2815,104.1885 67.281,111.5595 Z" id="Path" stroke="#5A7A8E" stroke-width="2.5"></path>
                    <path d="M85.218,111.5595 C85.218,114.7355 87.7915,117.31 90.967,117.31 C94.144,117.31 96.718,114.7355 96.718,111.5595 C96.717,104.1885 96.5475,97.8385 96.2805,92.4 C93.317,93.489 89.212,94.32 84.878,94.75 C85.088,99.588 85.2185,105.1665 85.218,111.5595 Z" id="Path" stroke="#5A7A8E" stroke-width="2.5"></path>
                    <path d="M84.6775,15.341 C85.86,15.6165 86.9595,16.0615 87.9565,16.645 C87.725,13.5535 85.1495,11.116 81.999,11.116 C78.852,11.116 76.278,13.5485 76.042,16.6355 C77.7975,15.612 79.831,15.03 81.9895,15.03 C82.8895,15.03 83.794,15.1335 84.6775,15.341 Z" id="Path" stroke="#5A7A8E" stroke-width="2.5"></path>
                    <circle id="Oval" stroke="#5A7A8E" stroke-width="2.5" transform="translate(82.000252, 25.842759) rotate(-76.890715) translate(-82.000252, -25.842759) " cx="82.0002518" cy="25.8427588" r="10.8060648"></circle>
                    <circle id="Oval" stroke="#5A7A8E" stroke-width="2.5" cx="25.0045" cy="11.25" r="11.25"></circle>
                </g>
            </g>
            <path d="M103.006,1 C99.573,1 96.788,3.784 96.788,7.22 L96.788,24.459 L79.546,24.459 C76.11,24.459 73.327,27.244 73.327,30.678 L73.327,41.993 C73.327,45.43 76.11,48.214 79.546,48.214 L96.788,48.214 L96.788,65.456 C96.788,68.89 99.573,71.673 103.006,71.673 L114.321,71.673 C117.754,71.673 120.54,68.89 120.54,65.456 L120.54,48.214 L137.784,48.214 C141.216,48.214 144,45.43 144,41.993 L144,30.678 C144,27.244 141.216,24.459 137.784,24.459 L120.54,24.459 L120.54,7.22 C120.54,3.784 117.754,1 114.321,1" id="path-25" fill="#FFFFFF"></path>
            <g id="Group-440" transform="translate(73.000000, 0.000000)">
                <g id="Group-430">
                    <g id="Fill-428-Clipped">
                        <mask id="mask-2" fill="white">
                            <use xlink:href="#path-1"></use>
                        </mask>
                        <g id="path-19"></g>
                        <path d="M68.9287,19.292 L51.6867,19.292 L51.6867,2.052 C51.6867,-1.382 48.9017,-4.167 45.4677,-4.167 L34.1537,-4.167 C30.7177,-4.167 23.3267,-1.382 23.3267,2.052 L23.3267,19.292 L10.6927,19.292 C7.2547,19.292 4.4717,22.077 4.4717,25.512 L4.4717,36.826 C4.4717,40.262 7.2547,43.046 10.6927,43.046 L27.9327,43.046 L27.9327,60.288 C27.9327,63.723 30.7177,66.506 34.1537,66.506 L45.4677,66.506 C48.9017,66.506 51.6867,63.723 51.6867,60.288 L51.6867,47.649 L68.9287,47.649 C72.3627,47.649 75.1477,40.262 75.1477,36.826 L75.1477,25.512 C75.1477,22.077 72.3627,19.292 68.9287,19.292" id="Fill-428" fill="#E98875" mask="url(#mask-2)"></path>
                    </g>
                </g>
                <g id="Group-433">
                    <g id="Fill-431-Clipped">
                        <mask id="mask-4" fill="white">
                            <use xlink:href="#path-3"></use>
                        </mask>
                        <g id="path-21"></g>
                        <path d="M23.4717,27.1367 L23.4717,19.2917 L10.6927,19.2917 C7.2547,19.2917 4.4717,22.0767 4.4717,25.5117 L4.4717,27.1367 L23.4717,27.1367 Z" id="Fill-431" fill="#E47460" mask="url(#mask-4)"></path>
                    </g>
                </g>
                <g id="Group-436">
                    <g id="Fill-434-Clipped">
                        <mask id="mask-6" fill="white">
                            <use xlink:href="#path-5"></use>
                        </mask>
                        <g id="path-23"></g>
                        <path d="M41.1807,48.4248 L41.1807,66.5058 L45.4677,66.5058 C48.9017,66.5058 51.6867,63.7228 51.6867,60.2878 L51.6867,48.4248 L41.1807,48.4248 Z" id="Fill-434" fill="#E47460" mask="url(#mask-6)"></path>
                    </g>
                </g>
                <g id="Group-439">
                    <g id="Fill-437-Clipped">
                        <mask id="mask-8" fill="white">
                            <use xlink:href="#path-7"></use>
                        </mask>
                        <g id="path-25"></g>
                        <path d="M68.9287,19.292 L51.6867,19.292 L51.6867,2.052 C51.6867,-1.384 48.9017,-4.167 45.4677,-4.167 L34.1537,-4.167 C30.7177,-4.167 23.3267,-1.384 23.3267,2.052 L23.3267,3.692 C23.4307,3.688 23.5437,3.677 23.6457,3.677 L34.9597,3.677 C38.3957,3.677 41.1807,6.461 41.1807,9.896 L41.1807,27.137 L58.4207,27.137 C61.8567,27.137 64.6377,29.922 64.6377,33.355 L64.6377,44.671 C64.6377,45.489 64.4757,46.536 64.1907,47.649 L68.9287,47.649 C72.3627,47.649 75.1477,40.262 75.1477,36.826 L75.1477,25.512 C75.1477,22.077 72.3627,19.292 68.9287,19.292" id="Fill-437" fill="#E47460" mask="url(#mask-8)"></path>
                    </g>
                </g>
            </g>
            <path d="M79.219,25.459 C76.341,25.459 74,27.801 74,30.679 L74,41.993 C74,44.872 76.341,47.214 79.219,47.214 L96.461,47.214 C97.014,47.214 97.461,47.662 97.461,48.214 L97.461,65.456 C97.461,68.333 99.802,70.674 102.68,70.674 L113.994,70.674 C116.872,70.674 119.213,68.333 119.213,65.456 L119.213,48.214 C119.213,47.662 119.66,47.214 120.213,47.214 L137.457,47.214 C140.334,47.214 142.674,44.872 142.674,41.993 L142.674,30.679 C142.674,27.801 140.334,25.459 137.457,25.459 L120.213,25.459 C119.66,25.459 119.213,25.011 119.213,24.459 L119.213,7.22 C119.213,4.342 116.872,2 113.994,2 L102.68,2 C99.802,2 97.461,4.342 97.461,7.22 L97.461,24.459 C97.461,25.011 97.014,25.459 96.461,25.459 L79.219,25.459 Z M113.994,72.674 L102.68,72.674 C98.699,72.674 95.461,69.436 95.461,65.456 L95.461,49.214 L79.219,49.214 C75.239,49.214 72,45.975 72,41.993 L72,30.679 C72,26.698 75.239,23.459 79.219,23.459 L95.461,23.459 L95.461,7.22 C95.461,3.239 98.699,-1.42108547e-14 102.68,-1.42108547e-14 L113.994,-1.42108547e-14 C117.975,-1.42108547e-14 121.213,3.239 121.213,7.22 L121.213,23.459 L137.457,23.459 C141.437,23.459 144.674,26.698 144.674,30.679 L144.674,41.993 C144.674,45.975 141.437,49.214 137.457,49.214 L121.213,49.214 L121.213,65.456 C121.213,69.436 117.975,72.674 113.994,72.674 Z" id="Fill-441" fill="#5A7A8E" fill-rule="nonzero"></path>
        </g>
    </g>
</svg>