<?xml version="1.0" encoding="UTF-8"?>
<svg width="144px" height="144px" viewBox="0 0 144 144" version="1.1" xmlns="http://www.w3.org/2000/svg" xmlns:xlink="http://www.w3.org/1999/xlink">
    <!-- Generator: Sketch 51.1 (57501) - http://www.bohemiancoding.com/sketch -->
    <title>Super_Bonus</title>
    <desc>Created with Sketch.</desc>
    <defs>
        <path d="M6.395,0.503 C3.012,0.503 0.243,3.271 0.243,6.655 L0.243,76.464 C0.243,79.848 3.012,82.616 6.395,82.616 L76.205,82.616 C79.589,82.616 82.356,79.848 82.356,76.464 L82.356,6.655 C82.356,3.271 79.589,0.503 76.205,0.503" id="path-1"></path>
        <path d="M6.395,0.503 C3.012,0.503 0.243,3.271 0.243,6.655 L0.243,76.464 C0.243,79.848 3.012,82.616 6.395,82.616 L76.205,82.616 C79.589,82.616 82.356,79.848 82.356,76.464 L82.356,6.655 C82.356,3.271 79.589,0.503 76.205,0.503" id="path-3"></path>
        <path d="M3.964,0.648 C1.836,0.648 0.094,2.389 0.094,4.518 L0.094,19.376 C0.094,21.504 1.836,23.246 3.964,23.246 L84.637,23.246 C86.765,23.246 88.506,21.504 88.506,19.376 L88.506,4.518 C88.506,2.389 86.765,0.648 84.637,0.648" id="path-5"></path>
        <path d="M3.964,0.648 C1.836,0.648 0.094,2.389 0.094,4.518 L0.094,19.376 C0.094,21.504 1.836,23.246 3.964,23.246 L84.637,23.246 C86.765,23.246 88.506,21.504 88.506,19.376 L88.506,4.518 C88.506,2.389 86.765,0.648 84.637,0.648" id="path-7"></path>
    </defs>
    <g id="Page-1" stroke="none" stroke-width="1" fill="none" fill-rule="evenodd">
        <g id="Artboard-5" transform="translate(-288.000000, -162.000000)">
            <g id="Super_Bonus" transform="translate(288.000000, 162.000000)">
                <g id="Group-303">
                    <path d="M143.8525,71.749 C143.8525,111.253 111.8295,143.274 72.3275,143.274 C32.8255,143.274 0.8015,111.253 0.8015,71.749 C0.8015,32.247 32.8255,0.226 72.3275,0.226 C111.8295,0.226 143.8525,32.247 143.8525,71.749" id="Fill-297" fill="#F9DED5"></path>
                    <path d="M123.205,130.6162 L53.395,130.6162 C50.012,130.6162 47.243,127.8472 47.243,124.4642 L47.243,54.6552 C47.243,51.2712 50.012,48.5032 53.395,48.5032 L123.205,48.5032 C126.589,48.5032 129.356,51.2712 129.356,54.6552 L129.356,124.4642 C129.356,127.8472 126.589,130.6162 123.205,130.6162" id="Fill-299" fill="#FFFFFE"></path>
                    <path d="M53.3955,49.5029 C50.5545,49.5029 48.2435,51.8139 48.2435,54.6549 L48.2435,124.4639 C48.2435,127.3049 50.5545,129.6159 53.3955,129.6159 L123.2055,129.6159 C126.0455,129.6159 128.3565,127.3049 128.3565,124.4639 L128.3565,54.6549 C128.3565,51.8139 126.0455,49.5029 123.2055,49.5029 L53.3955,49.5029 Z M123.2055,131.6159 L53.3955,131.6159 C49.4525,131.6159 46.2435,128.4069 46.2435,124.4639 L46.2435,54.6549 C46.2435,50.7109 49.4525,47.5029 53.3955,47.5029 L123.2055,47.5029 C127.1485,47.5029 130.3565,50.7109 130.3565,54.6549 L130.3565,124.4639 C130.3565,128.4069 127.1485,131.6159 123.2055,131.6159 Z" id="Fill-301" fill="#5A7A8E"></path>
                </g>
                <g id="Group-310" transform="translate(47.000000, 48.000000)">
                    <g id="Group-306">
                        <mask id="mask-2" fill="white">
                            <use xlink:href="#path-1"></use>
                        </mask>
                        <g id="Clip-305"></g>
                        <path d="M82.8125,111.0977 L13.0025,111.0977 C9.6205,111.0977 6.8515,108.3287 6.8515,104.9467 L6.8515,35.1367 C6.8515,31.7527 9.6205,28.9847 13.0025,28.9847 L82.8125,28.9847 C86.1965,28.9847 88.9645,31.7527 88.9645,35.1367 L88.9645,104.9467 C88.9645,108.3287 86.1965,111.0977 82.8125,111.0977" id="Fill-304" fill="#E98875" mask="url(#mask-2)"></path>
                    </g>
                    <g id="Group-309">
                        <mask id="mask-4" fill="white">
                            <use xlink:href="#path-3"></use>
                        </mask>
                        <g id="Clip-308"></g>
                        <path d="M83.2509,28.9844 L75.6759,28.9844 L75.6759,69.1634 C75.6759,72.3054 73.1049,74.8764 69.9619,74.8764 L6.8519,74.8764 L6.8519,105.3834 C6.8519,108.5264 9.4229,111.0974 12.5649,111.0974 L83.2509,111.0974 C86.3939,111.0974 88.9649,108.5264 88.9649,105.3834 L88.9649,34.6984 C88.9649,31.5554 86.3939,28.9844 83.2509,28.9844" id="Fill-307" fill="#E47460" mask="url(#mask-4)"></path>
                    </g>
                </g>
                <g id="Group-333" transform="translate(43.000000, 27.000000)">
                    <path d="M10.3955,22.5029 C7.5545,22.5029 5.2435,24.8139 5.2435,27.6549 L5.2435,97.4639 C5.2435,100.3049 7.5545,102.6159 10.3955,102.6159 L80.2055,102.6159 C83.0455,102.6159 85.3565,100.3049 85.3565,97.4639 L85.3565,27.6549 C85.3565,24.8139 83.0455,22.5029 80.2055,22.5029 L10.3955,22.5029 Z M80.2055,104.6159 L10.3955,104.6159 C6.4525,104.6159 3.2435,101.4069 3.2435,97.4639 L3.2435,27.6549 C3.2435,23.7109 6.4525,20.5029 10.3955,20.5029 L80.2055,20.5029 C84.1485,20.5029 87.3565,23.7109 87.3565,27.6549 L87.3565,97.4639 C87.3565,101.4069 84.1485,104.6159 80.2055,104.6159 Z" id="Fill-311" fill="#5A7A8E"></path>
                    <polygon id="Fill-313" fill="#FFFFFE" points="35.0761 20.3105 29.1451 32.2035 2.2131 18.7725 11.3731 16.1225 8.1431 6.8795"></polygon>
                    <path d="M4.9521,19.021 L28.6971,30.862 L33.7351,20.759 L9.8991,8.873 L12.3171,15.792 C12.4071,16.052 12.3881,16.337 12.2621,16.581 C12.1361,16.825 11.9151,17.007 11.6511,17.083 L4.9521,19.021 Z M29.1441,33.203 C28.9951,33.203 28.8431,33.169 28.6991,33.098 L1.7661,19.667 C1.3981,19.483 1.1801,19.092 1.2171,18.682 C1.2541,18.272 1.5391,17.926 1.9341,17.812 L10.0811,15.456 L7.1991,7.21 C7.0651,6.826 7.1771,6.398 7.4821,6.129 C7.7871,5.86 8.2261,5.804 8.5901,5.985 L35.5221,19.416 C35.7601,19.534 35.9401,19.742 36.0241,19.993 C36.1081,20.245 36.0901,20.52 35.9711,20.757 L30.0401,32.649 C29.8651,33 29.5121,33.203 29.1441,33.203 Z" id="Fill-315" fill="#5A7A8E"></path>
                    <polygon id="Fill-317" fill="#FFFFFE" points="49.6318 25.0127 39.2198 33.2697 20.5198 9.6907 29.9398 11.1727 30.9318 1.4327"></polygon>
                    <path d="M22.8955,11.0767 L39.3815,31.8657 L48.2265,24.8507 L31.6765,3.9817 L30.9345,11.2747 C30.9065,11.5477 30.7675,11.7977 30.5495,11.9647 C30.3325,12.1327 30.0525,12.2017 29.7845,12.1607 L22.8955,11.0767 Z M39.2205,34.2697 C38.9255,34.2697 38.6335,34.1397 38.4365,33.8917 L19.7365,10.3117 C19.4805,9.9897 19.4485,9.5427 19.6565,9.1867 C19.8645,8.8307 20.2715,8.6397 20.6745,8.7027 L29.0515,10.0207 L29.9365,1.3307 C29.9775,0.9267 30.2605,0.5867 30.6515,0.4727 C31.0435,0.3607 31.4615,0.4917 31.7145,0.8107 L50.4155,24.3907 C50.5805,24.5987 50.6555,24.8637 50.6245,25.1277 C50.5945,25.3907 50.4605,25.6317 50.2525,25.7967 L39.8405,34.0537 C39.6575,34.1997 39.4385,34.2697 39.2205,34.2697 Z" id="Fill-319" fill="#5A7A8E"></path>
                    <polygon id="Fill-321" fill="#FFFFFE" points="56.6435 20.3105 62.5745 32.2035 89.5055 18.7725 80.3465 16.1225 83.5765 6.8795"></polygon>
                    <path d="M57.9843,20.7593 L63.0223,30.8623 L86.7663,19.0213 L80.0683,17.0833 C79.8043,17.0073 79.5843,16.8253 79.4583,16.5813 C79.3323,16.3373 79.3123,16.0523 79.4023,15.7923 L81.8203,8.8733 L57.9843,20.7593 Z M62.5743,33.2033 C62.4673,33.2033 62.3603,33.1863 62.2563,33.1513 C62.0053,33.0673 61.7973,32.8863 61.6793,32.6493 L55.7493,20.7573 C55.6303,20.5193 55.6113,20.2443 55.6953,19.9933 C55.7793,19.7413 55.9603,19.5343 56.1973,19.4153 L83.1303,5.9853 C83.4933,5.8043 83.9313,5.8603 84.2373,6.1293 C84.5433,6.3983 84.6543,6.8253 84.5203,7.2103 L81.6383,15.4553 L89.7843,17.8123 C90.1793,17.9263 90.4643,18.2723 90.5023,18.6823 C90.5393,19.0923 90.3213,19.4833 89.9523,19.6673 L63.0203,33.0983 C62.8803,33.1683 62.7273,33.2033 62.5743,33.2033 Z" id="Fill-323" fill="#5A7A8E"></path>
                    <polygon id="Fill-325" fill="#FFFFFE" points="42.0879 25.0127 52.4989 33.2697 71.1999 9.6907 61.7799 11.1727 60.7879 1.4327"></polygon>
                    <path d="M43.4931,24.8506 L52.3371,31.8656 L68.8241,11.0766 L61.9351,12.1606 C61.6641,12.2036 61.3871,12.1326 61.1701,11.9646 C60.9521,11.7976 60.8131,11.5476 60.7851,11.2746 L60.0431,3.9816 L43.4931,24.8506 Z M52.4991,34.2696 C52.2741,34.2696 52.0561,34.1946 51.8781,34.0536 L41.4671,25.7966 C41.0341,25.4536 40.9611,24.8246 41.3051,24.3916 L60.0051,0.8106 C60.2571,0.4926 60.6791,0.3606 61.0681,0.4726 C61.4591,0.5866 61.7421,0.9266 61.7831,1.3306 L62.6681,10.0206 L71.0451,8.7026 C71.4471,8.6356 71.8551,8.8296 72.0631,9.1866 C72.2711,9.5426 72.2391,9.9896 71.9831,10.3116 L53.2821,33.8916 C53.1181,34.0996 52.8771,34.2326 52.6131,34.2636 C52.5751,34.2676 52.5371,34.2696 52.4991,34.2696 Z" id="Fill-327" fill="#5A7A8E"></path>
                    <path d="M85.6367,44.2461 L4.9637,44.2461 C2.8357,44.2461 1.0937,42.5041 1.0937,40.3761 L1.0937,25.5171 C1.0937,23.3891 2.8357,21.6481 4.9637,21.6481 L85.6367,21.6481 C87.7647,21.6481 89.5057,23.3891 89.5057,25.5171 L89.5057,40.3761 C89.5057,42.5041 87.7647,44.2461 85.6367,44.2461" id="Fill-329" fill="#FFFFFE"></path>
                    <path d="M4.9638,22.6479 C3.3808,22.6479 2.0938,23.9349 2.0938,25.5179 L2.0938,40.3759 C2.0938,41.9589 3.3808,43.2459 4.9638,43.2459 L85.6368,43.2459 C87.2188,43.2459 88.5058,41.9589 88.5058,40.3759 L88.5058,25.5179 C88.5058,23.9349 87.2188,22.6479 85.6368,22.6479 L4.9638,22.6479 Z M85.6368,45.2459 L4.9638,45.2459 C2.2778,45.2459 0.0938,43.0619 0.0938,40.3759 L0.0938,25.5179 C0.0938,22.8329 2.2778,20.6479 4.9638,20.6479 L85.6368,20.6479 C88.3208,20.6479 90.5058,22.8329 90.5058,25.5179 L90.5058,40.3759 C90.5058,43.0619 88.3208,45.2459 85.6368,45.2459 Z" id="Fill-331" fill="#5A7A8E"></path>
                </g>
                <g id="Group-340" transform="translate(44.000000, 48.000000)">
                    <g id="Group-336">
                        <mask id="mask-6" fill="white">
                            <use xlink:href="#path-5"></use>
                        </mask>
                        <g id="Clip-335"></g>
                        <path d="M91.2441,29.0508 L10.5711,29.0508 C8.4431,29.0508 6.7021,27.3088 6.7021,25.1808 L6.7021,10.3218 C6.7021,8.1938 8.4431,6.4528 10.5711,6.4528 L91.2441,6.4528 C93.3731,6.4528 95.1141,8.1938 95.1141,10.3218 L95.1141,25.1808 C95.1141,27.3088 93.3731,29.0508 91.2441,29.0508" id="Fill-334" fill="#E98875" mask="url(#mask-6)"></path>
                    </g>
                    <g id="Group-339">
                        <mask id="mask-8" fill="white">
                            <use xlink:href="#path-7"></use>
                        </mask>
                        <g id="Clip-338"></g>
                        <path d="M91.5195,6.4526 L83.0405,6.4526 L83.0405,15.3556 C83.0405,17.3326 81.4225,18.9496 79.4465,18.9496 L6.7025,18.9496 L6.7025,25.4566 C6.7025,27.4326 8.3195,29.0506 10.2955,29.0506 L91.5195,29.0506 C93.4975,29.0506 95.1145,27.4326 95.1145,25.4566 L95.1145,10.0466 C95.1145,8.0696 93.4975,6.4526 91.5195,6.4526" id="Fill-337" fill="#E47460" mask="url(#mask-8)"></path>
                    </g>
                </g>
                <g id="Group-346" transform="translate(43.000000, 47.000000)">
                    <path d="M4.9638,2.6479 C3.3808,2.6479 2.0938,3.9349 2.0938,5.5179 L2.0938,20.3759 C2.0938,21.9589 3.3808,23.2459 4.9638,23.2459 L85.6368,23.2459 C87.2188,23.2459 88.5058,21.9589 88.5058,20.3759 L88.5058,5.5179 C88.5058,3.9349 87.2188,2.6479 85.6368,2.6479 L4.9638,2.6479 Z M85.6368,25.2459 L4.9638,25.2459 C2.2778,25.2459 0.0938,23.0619 0.0938,20.3759 L0.0938,5.5179 C0.0938,2.8329 2.2778,0.6479 4.9638,0.6479 L85.6368,0.6479 C88.3208,0.6479 90.5058,2.8329 90.5058,5.5179 L90.5058,20.3759 C90.5058,23.0619 88.3208,25.2459 85.6368,25.2459 Z" id="Fill-341" fill="#5A7A8E"></path>
                    <polygon id="Fill-343" fill="#FFFFFE" points="38.619 83.616 51.908 83.616 51.908 1.648 38.619 1.648"></polygon>
                    <path d="M39.619,82.616 L50.908,82.616 L50.908,2.648 L39.619,2.648 L39.619,82.616 Z M51.908,84.616 L38.619,84.616 C38.066,84.616 37.619,84.169 37.619,83.616 L37.619,1.648 C37.619,1.096 38.066,0.648 38.619,0.648 L51.908,0.648 C52.461,0.648 52.908,1.096 52.908,1.648 L52.908,83.616 C52.908,84.169 52.461,84.616 51.908,84.616 Z" id="Fill-345" fill="#5A7A8E"></path>
                </g>
            </g>
        </g>
    </g>
</svg>