<?xml version="1.0" encoding="UTF-8"?>
<svg width="390px" height="280px" viewBox="0 0 390 280" version="1.1" xmlns="http://www.w3.org/2000/svg" xmlns:xlink="http://www.w3.org/1999/xlink">
    <!-- Generator: sketchtool 51.1 (57501) - http://www.bohemiancoding.com/sketch -->
    <title>F6166963-11A5-4561-B91E-A98BB9841E09</title>
    <desc>Created with sketchtool.</desc>
    <defs>
        <linearGradient x1="50.0049089%" y1="100.006199%" x2="50.0049089%" y2="0.00039645933%" id="linearGradient-1">
            <stop stop-color="#808080" stop-opacity="0.25" offset="0%"></stop>
            <stop stop-color="#808080" stop-opacity="0.12" offset="54%"></stop>
            <stop stop-color="#808080" stop-opacity="0.1" offset="100%"></stop>
        </linearGradient>
    </defs>
    <g id="Page-1" stroke="none" stroke-width="1" fill="none" fill-rule="evenodd">
        <g id="Thankyou-Web_new" transform="translate(-336.000000, -434.000000)">
            <g id="undraw_High_five_u364" transform="translate(336.000000, 434.000000)">
                <path d="M102.103848,235.200917 C99.1205575,234.898125 96.0038965,234.574208 93.178545,235.366396 C90.3531936,236.158583 88.0121881,238.471771 88.8510191,240.682854 C90.7252274,245.612021 101.724794,242.179208 106.796388,245.548646 C108.607421,246.752771 109.312881,248.646979 110.727312,250.125729 C113.015671,252.526937 116.950105,253.646562 120.747658,254.262708 C143.561055,257.963104 169.568327,248.43925 189.563392,257.611021 C196.038887,260.582604 201.145578,265.311083 208.245809,267.293312 C217.651948,269.919854 227.953074,267.11375 237.68562,265.314604 C249.823502,263.089559 262.196133,262.438741 274.499424,263.378146 C283.600214,264.082312 295.705353,264.318208 298.618449,257.688479 C300.492657,253.42475 296.526636,248.678667 291.262006,246.661229 C285.997376,244.643792 279.834249,244.707167 273.955412,244.900812 C262.608379,245.309229 251.257837,246.133104 239.910804,245.731729 C217.967826,244.950104 197.239223,236.225479 175.871844,235.936771 C150.987693,235.633979 127.103821,237.728875 102.103848,235.200917 Z" id="Shape" fill="#F2DCDE" fill-rule="nonzero"></path>
                <path d="M79.0342389,124.840396 C75.5244856,128.399958 75.3103906,133.85725 75.3103906,133.85725 C75.3103906,133.85725 80.7469986,133.547417 84.2427129,129.984333 C87.7384273,126.42125 87.970071,120.967479 87.970071,120.967479 C87.970071,120.967479 82.5299533,121.287875 79.0342389,124.840396 Z" id="Shape" fill="#FF6347" fill-rule="nonzero" opacity="0.1"></path>
                <path d="M93.1609963,36.9040625 C94.3999392,41.7452083 98.9450698,44.7555208 98.9450698,44.7555208 C98.9450698,44.7555208 101.482621,39.9214167 100.243679,35.0802708 C99.0047356,30.239125 94.459605,27.2323333 94.459605,27.2323333 C94.459605,27.2323333 91.9080143,32.0664375 93.1609963,36.9040625 Z" id="Shape" fill="#FF6347" fill-rule="nonzero" opacity="0.1"></path>
                <path d="M298.425412,50.2198542 C294.915659,53.7794167 294.698054,59.2367083 294.698054,59.2367083 C294.698054,59.2367083 300.138172,58.926875 303.633886,55.3637917 C307.129601,51.8007083 307.357735,46.3434167 307.357735,46.3434167 C307.357735,46.3434167 301.921127,46.6778958 298.425412,50.2198542 Z" id="Shape" fill="#FF6347" fill-rule="nonzero" opacity="0.1"></path>
                <path d="M191.451639,100.103021 C191.044508,105.081479 194.354205,109.419146 194.354205,109.419146 C194.354205,109.419146 198.330756,105.683542 198.737887,100.701563 C199.145019,95.7195833 195.835321,91.3924792 195.835321,91.3924792 C195.835321,91.3924792 191.858771,95.1210417 191.451639,100.103021 Z" id="Shape" fill="#FF6347" fill-rule="nonzero" opacity="0.1"></path>
                <path d="M306.592608,169.924667 C306.185477,174.903125 309.495174,179.240792 309.495174,179.240792 C309.495174,179.240792 313.471725,175.505187 313.878856,170.526729 C314.285988,165.548271 310.97629,161.210604 310.97629,161.210604 C310.97629,161.210604 306.99974,164.946208 306.592608,169.924667 Z" id="Shape" fill="#FF6347" fill-rule="nonzero" opacity="0.1"></path>
                <path d="M226.593553,37.3259254 C201.591367,36.570758 177.779026,29.5806187 155.040635,21.9127651 C132.302245,14.2449115 109.780189,5.7676734 85.3767891,1.70913271 C69.6808867,-0.901035639 51.7289156,-1.26893771 39.084887,6.03101383 C26.9121603,13.0521343 22.9794927,25.1774119 20.8663599,36.4274698 C19.2747498,44.8892174 18.339872,53.79632 22.6974841,61.7197687 C25.726179,67.2228091 31.0959315,71.8467572 34.8122638,77.1135657 C47.7421642,95.4505793 38.6019956,118.059129 24.5942815,135.977896 C18.0269584,144.377681 10.3972741,152.386329 5.32498272,161.328285 C0.252691348,170.270242 -2.09222934,180.509537 2.3465085,189.625763 C6.7427519,198.664536 17.2234271,205.453297 28.5771699,210.228279 C51.6362005,219.909912 78.7978765,222.702095 105.30282,224.274392 C163.956742,227.75978 222.919715,226.249446 281.728163,224.739111 C303.493044,224.181449 325.350641,223.616041 346.760115,220.696061 C358.650833,219.077292 370.924001,216.50585 379.558099,210.294114 C390.513939,202.409392 393.229721,189.060356 385.885908,179.173472 C373.570246,162.594643 339.528333,158.47414 330.909687,140.679298 C326.173488,130.885357 331.03717,119.976093 337.925133,110.890848 C352.697747,91.4036565 377.456556,74.3058921 378.758431,52.0265175 C379.654677,36.7295368 367.75237,21.4093202 349.348412,14.1713311 C330.059798,6.5809306 303.307614,7.53747597 289.083565,20.0964907 C274.422981,33.0117896 248.671348,37.9881491 226.593553,37.3259254 Z" id="Shape" fill="#F2DCDE" fill-rule="nonzero"></path>
                <path d="M299.095775,110.165562 C298.114594,110.417225 297.313195,111.125572 296.940787,112.070333 L296.589811,112.014 L295.280673,111.80275 C295.280673,111.80275 288.345401,111.228854 287.050302,111.316875 C285.755203,111.404896 284.94445,110.123312 284.94445,110.123312 L279.788622,105.746917 L279.38851,105.394833 C279.946561,105.183583 280.294026,105.074437 280.294026,105.074437 C280.294026,105.074437 266.458579,87.8223542 263.475288,87.487875 C260.491998,87.1533958 255.560794,83.1255625 255.511658,83.0868333 L255.459012,82.8122083 C255.350209,82.2312708 255.269485,81.6432917 255.209819,81.0517917 L255.943357,81.5024583 C255.943357,81.29825 255.943357,81.0940417 255.964416,80.8898333 C256.073923,78.760684 256.790181,76.7077738 258.028151,74.9748333 C259.47066,72.9679583 261.60459,71.390625 262.45746,69.0774375 C262.797387,68.082681 262.95089,67.0334136 262.910218,65.982625 C262.932017,64.0897153 262.434179,62.2272847 261.471219,60.5992708 C260.478367,58.9531215 258.830193,57.8124195 256.943637,57.4657292 C256.452272,57.3882708 255.950377,57.3777083 255.466031,57.2650417 C252.584524,56.5855208 251.524578,52.7090833 248.723795,51.7584583 C247.418167,51.3148333 245.965129,51.6070625 244.705127,52.1563125 C243.445126,52.7055625 242.304456,53.4942292 241.072532,54.1033333 C239.840609,54.7124375 238.443727,55.1595833 237.324116,56.0221875 C237.208294,56.1102083 237.085453,56.2158333 236.973141,56.3249792 L236.752026,56.53975 C236.289917,57.010248 235.887893,57.536539 235.5552,58.1065208 L235.502554,58.1945417 C235.467456,58.2543958 235.435869,58.3177708 235.404281,58.3811458 C235.372693,58.4445208 235.351634,58.4797292 235.330576,58.5290208 C235.309517,58.5783125 235.27442,58.6416875 235.249852,58.6980208 L235.176147,58.8670208 L235.112971,59.0289792 C235.091913,59.0888333 235.067344,59.1486875 235.049796,59.2120625 C235.032247,59.2754375 235.014698,59.3141667 235.000659,59.3669792 L234.948013,59.5535833 L234.916425,59.7049792 C234.916425,59.7683542 234.891857,59.83525 234.881328,59.898625 C234.870798,59.962 234.881328,59.9936875 234.881328,60.0394583 C234.881328,60.0852292 234.881328,60.17325 234.881328,60.2401458 C234.881328,60.3070417 234.881328,60.3281667 234.881328,60.3704167 C234.881328,60.4126667 234.881328,60.51125 234.881328,60.5851875 C234.881328,60.659125 234.881328,60.6556042 234.881328,60.6908125 C234.894924,60.7943234 234.916039,60.8966999 234.944503,60.997125 C235.13403,61.6449583 235.786844,62.306875 236.285229,62.8842917 C236.229073,62.9371042 236.172917,62.9863958 236.116761,63.0427292 C233.722986,65.3569023 232.371002,68.5486067 232.371854,71.8835417 C232.372413,72.6169271 232.439374,73.3487458 232.57191,74.0699792 C231.933988,73.5866234 231.24834,73.1701607 230.525724,72.827125 C228.148757,71.6839848 225.549026,71.0828005 222.913069,71.0667083 C218.613621,71.0174167 212.573335,69.3978333 212.573335,69.3978333 C212.72756,69.6934345 212.845416,70.0067367 212.92431,70.3308542 C212.661079,70.1794583 212.376789,70.0175 212.064421,69.8485 C209.546282,68.4922604 206.816553,67.5755096 203.991988,67.1374583 C203.991988,67.1374583 202.202014,67.3874375 201.963351,63.616625 C201.881363,62.4384183 201.669485,61.2729528 201.331595,60.1415625 C200.304152,56.6928767 199.592236,53.1574144 199.204685,49.5790625 L198.604517,44.0443125 C198.604517,44.0443125 201.307027,29.6088958 199.682011,23.4544792 C200.204964,21.5250625 199.910145,19.7576042 198.186856,18.4865833 C191.388464,13.465875 184.530406,33.0065 184.530406,33.0065 L181.982325,35.4886875 C181.328745,35.0613301 180.591572,34.7792157 179.820317,34.6612917 C179.820317,34.6612917 178.448003,36.069625 177.49335,39.914375 C176.987946,41.9529375 173.534348,45.3575833 170.410668,48.1003125 C168.192504,50.0473333 166.051554,52.0718125 163.914114,54.1033333 C162.334725,55.61025 158.814443,57.765 151.135102,58.9832083 C149.931257,59.1733333 148.836214,59.3528958 147.835934,59.518375 C148.091552,58.6086431 148.221456,57.6680135 148.222007,56.7228333 C148.19743,51.822845 144.79301,47.5933579 140.023223,46.5370625 C140.05831,46.2906812 140.05831,46.0405479 140.023223,45.7941667 C139.893756,45.2640218 139.626053,44.7779615 139.247568,44.3858333 C137.629571,42.3789583 135.874695,40.31575 133.467004,39.365125 C132.474171,38.9777358 131.410686,38.806129 130.346833,38.8616458 L129.813351,38.8616458 C129.704548,38.8616458 129.599256,38.8616458 129.490453,38.8616458 C127.193901,38.989192 125.063348,40.1027321 123.643204,41.9177292 C122.779805,43.0760833 122.260361,44.4492083 121.516294,45.6850208 C120.133451,47.9735625 118.00654,49.7375 115.700632,51.13175 C114.31428,51.9732292 112.857732,52.6985208 111.548594,53.6526667 C106.799898,57.1136458 104.609812,63.511 105.803128,69.2288333 C106.329591,71.7391875 107.442183,74.2108125 107.143854,76.756375 C106.9087,78.7315625 105.848755,80.5060625 104.767751,82.1819792 C103.686747,83.8578958 102.542567,85.5619792 102.114377,87.5019583 C101.686187,89.4419375 102.135436,91.7269583 103.756942,92.9029167 C104.3536,93.3324583 105.076609,93.6070833 105.585523,94.1281667 C105.924053,94.5296723 106.20736,94.974921 106.427864,95.452 C108.167751,98.6051672 111.119329,100.905683 114.59506,101.817667 C115.140541,101.957458 115.703,102.019097 116.265703,102.00075 L116.325368,102.00075 L116.434171,102.00075 C117.72225,102.081729 119.041918,101.736687 119.473617,100.592417 C119.539119,100.332336 119.636991,100.08156 119.764927,99.846 C119.886138,99.6703591 120.067107,99.5451586 120.273841,99.4939167 C120.689056,99.5890683 121.089361,99.7406932 121.463647,99.9445833 C123.261629,100.880055 125.228503,101.443964 127.247721,101.602896 C127.585134,101.629907 127.923897,101.635787 128.26204,101.6205 C128.964719,101.686434 129.672992,101.585105 130.329284,101.32475 C130.960454,101.003369 131.505652,100.534925 131.919203,99.9586667 C132.010456,99.8424792 132.09469,99.71925 132.182434,99.6065833 C131.718723,102.418499 130.846019,105.146894 129.592236,107.7045 C129.592236,107.7045 127.486384,111.225333 127.637304,114.774333 C127.556251,116.067332 127.829338,117.357939 128.426998,118.506417 C128.426998,118.506417 128.486664,118.3515 128.609505,118.108562 C129.213183,119.122562 131.192684,122.36525 132.491293,123.502479 C132.554468,126.850792 132.540429,131.044104 132.122768,131.906708 C131.420818,133.381937 129.202654,143.877542 138.742163,151.035396 L140.942779,155.8695 L131.884105,156.513812 C130.96806,156.387062 119.122642,154.788604 119.062976,157.115875 C119.00331,159.534687 120.85295,183.089062 126.995019,181.494125 C132.719426,180.008333 130.831179,173.139187 130.546889,172.216729 L130.750455,172.160396 L130.525831,172.097021 L135.106059,167.74175 C135.192401,167.211534 135.066236,166.668579 134.755083,166.231312 L134.80071,166.206667 L145.863453,166.703104 L148.46418,172.371646 C148.46418,172.371646 152.87594,179.103479 149.299501,184.7685 C145.723063,190.433521 142.023783,199.291937 141.427125,204.664729 C140.939269,209.058729 137.696257,213.375271 136.534528,214.797687 C134.460264,215.501854 126.503653,218.635396 129.67998,223.377958 C133.316085,228.807083 145.122895,239.140729 149.896159,238.785125 C154.669424,238.429521 152.756608,234.947417 152.756608,234.947417 L148.766019,231.067458 C148.766019,231.067458 148.064068,222.800542 148.348358,220.381729 C148.502787,219.124792 147.579722,218.219937 146.593482,217.836167 C146.969025,215.142729 147.920168,210.037521 149.962845,207.217333 C152.823294,203.259917 162.008318,185.845875 162.008318,185.845875 C162.008318,185.845875 164.928433,183.2475 164.272109,175.51575 C164.008878,172.396292 163.861468,169.657083 163.777234,167.491771 L174.173124,167.960042 C174.173124,167.960042 185.32361,166.836896 177.749562,154.851979 C170.175514,142.867062 154.076276,131.121562 154.076276,131.121562 L153.932376,123.703167 C154.662405,123.88625 155.090594,123.977792 155.090594,123.977792 C155.090594,123.977792 155.027419,123.710208 154.922126,123.231375 L155.090594,123.270104 C155.090594,123.270104 152.763628,113.168833 152.047638,105.137812 L152.703962,105.440604 C159.621686,113.471625 164.286148,106.683458 164.286148,106.683458 C164.286148,106.683458 178.897252,86.0795417 177.465272,87.023125 C177.16579,87.1720287 176.819133,87.1936046 176.5036,87.0829792 L177.556526,83.7170625 C177.556526,83.7170625 181.870013,77.1049375 175.608613,73.3869375 C170.498412,70.3519792 170.631782,79.8652708 170.852897,83.4600417 L170.600195,83.2452708 C170.600195,83.2452708 165.711108,90.6390208 163.085813,94.7583958 C160.460517,98.8777708 158.256392,96.1667292 158.256392,96.1667292 L154.939675,92.4170417 C155.484412,90.9148147 155.752005,89.3256613 155.72937,87.7272917 C155.875797,85.4719903 155.060549,83.2604176 153.486637,81.6432917 C150.956105,79.0554792 150.215547,76.5486458 150.138332,74.6192292 C150.163218,73.6195917 150.388831,72.6352576 150.801676,71.7251042 L168.038075,62.5709375 C168.038075,62.5709375 171.674179,62.6272708 176.563266,55.0715625 C179.731734,50.2391845 183.218852,45.6248097 187.001272,41.2593333 C187.001272,41.2593333 186.899489,41.1114583 186.724002,40.8685208 C186.899489,40.6607917 187.001272,40.548125 187.001272,40.548125 C187.001272,40.548125 186.801216,40.2558958 186.46077,39.8052292 L189.117653,36.7315417 C189.033737,38.1207372 189.023193,39.5134153 189.086066,40.9037292 L190.461889,45.5688333 L191.234035,71.5420208 C191.234035,71.5420208 190.398713,74.0066042 195.768636,76.502875 C200.310257,78.615375 207.505251,82.1362083 209.604084,83.1748542 C209.526869,83.3649792 209.481242,83.4670833 209.481242,83.4670833 L210.105978,83.4248333 L210.197232,83.4670833 C220.687885,82.5235 220.32989,93.0296667 220.32989,93.0296667 C220.32989,93.0296667 221.031841,114.401125 217.827436,121.840646 C214.623031,129.280167 215.082809,138.487146 215.082809,138.487146 C215.082809,138.487146 215.402196,136.916854 217.188661,138.9695 C217.153563,139.149062 217.114956,139.342708 217.072839,139.543396 C216.047991,144.694375 213.914061,155.651208 213.517459,160.0945 C213.080667,164.143611 212.30222,168.14825 211.190492,172.065333 L210.137566,191.722146 L216.844705,192.049583 L216.771,192.75375 C216.696621,193.478306 216.27129,194.119632 215.63384,194.468396 C213.338461,195.718292 207.912383,200.101729 208.347592,213.628771 L208.115948,215.804646 C207.744478,219.489593 206.630401,223.060381 204.841348,226.30025 C204.686919,226.574875 204.550039,226.838937 204.434217,227.092437 C204.45179,226.950052 204.515982,226.817547 204.616724,226.715708 C204.616724,226.715708 201.131539,227.441 201.847529,236.887396 C202.563519,246.333792 203.637503,247.985062 205.069482,248.10125 C206.501462,248.217437 213.49289,249.932083 213.117347,246.449979 C212.741803,242.967875 212.415396,235.232604 212.878684,234.053125 C213.341971,232.873646 215.244257,229.690812 213.440244,228.923271 C213.963377,226.756623 214.21684,224.533291 214.194841,222.304104 C214.194841,222.304104 217.704595,216.755271 220.214068,214.688542 C222.723542,212.621812 224.074797,209.111542 224.983823,204.594312 C225.046999,204.298562 232.378873,199.397562 231.301379,195.327479 C231.111852,194.623312 230.974972,194.000125 230.869679,193.436792 C230.824053,193.186812 230.785445,192.950917 230.750348,192.732625 L230.880209,192.732625 L232.371854,183.758021 L232.371854,192.496729 L233.256312,192.612917 L233.224724,193.317083 L232.84918,201.696667 C232.781097,203.328755 232.424585,204.93574 231.796254,206.44275 C230.216865,210.192437 227.30377,218.540333 228.096974,227.56775 L228.01274,235.616375 C227.760038,235.665667 224.116914,236.528271 224.808335,245.65075 C225.510286,255.093625 226.5948,256.748417 228.026779,256.864604 C229.458759,256.980792 236.450187,258.695437 236.078153,255.213333 C235.70612,251.731229 235.376203,243.995958 235.83949,242.816479 C236.302778,241.637 237.138099,238.517542 235.334086,237.75 C235.343477,236.692104 235.600767,235.651254 236.085173,234.711521 C236.871358,233.370083 239.496653,226.993854 241.472644,222.089333 C243.492747,217.12538 244.615839,211.840318 244.789361,206.481479 C244.789361,206.421625 244.789361,206.361771 244.789361,206.301917 C244.842471,204.494055 245.229229,202.711737 245.930031,201.045312 C246.737892,199.180749 247.376903,197.24706 247.839337,195.267625 C247.888474,195.031729 247.927081,194.802875 247.962178,194.563458 L249.674938,194.792312 L255.522187,169.407104 C255.522187,169.407104 257.122635,155.647687 256.33996,149.433417 C256.308372,149.176396 256.273274,148.9405 256.231157,148.711646 L256.582133,148.743333 C256.582133,148.743333 257.775449,145.676687 257.417454,132.568625 C257.059459,119.460562 259.804086,115.316542 259.804086,115.316542 C261.285202,110.605667 262.920747,109.028333 263.8754,108.500208 C264.121061,108.343104 264.402417,108.251042 264.693173,108.232625 L269.118972,113.313187 L269.933234,114.249729 C269.934979,114.230992 269.934979,114.212133 269.933234,114.193396 L270.28421,114.605333 C270.257433,114.396403 270.248041,114.185598 270.256132,113.975104 C272.618196,115.35175 278.075862,118.569792 281.332913,120.879458 C285.579715,123.889771 286.744953,123.537687 290.458272,123.224333 C292.711534,123.037729 295.758,121.770229 297.800676,120.805521 L297.986693,120.7175 C298.536334,121.011784 299.115062,121.247781 299.713492,121.421667 C299.713492,121.421667 305.708151,126.516312 306.28726,117.217792 C306.866369,107.919271 299.095775,110.165562 299.095775,110.165562 Z M143.613701,218.452312 C143.003317,218.270093 142.414806,218.020958 141.858824,217.709417 L143.613701,218.452312 Z M134.22862,117.798729 L134.249679,119.119042 L134.158425,119.161292 C134.186503,118.696542 134.207562,118.238833 134.22862,117.798729 Z M227.988172,235.648062 L227.988172,236.162104 C227.85354,236.01737 227.85354,235.792796 227.988172,235.648062 Z" id="Shape" fill="url(#linearGradient-1)" fill-rule="nonzero"></path>
                <rect id="Rectangle-path" fill="#FF7590" fill-rule="nonzero" x="236.945063" y="80.9426458" width="10.1782848" height="10.7385417"></rect>
                <path d="M224.576692,204.935833 C223.681705,209.424896 222.355018,212.914042 219.89819,214.970208 C217.441363,217.026375 213.991275,222.54 213.991275,222.54 C213.93161,229.873896 212.001245,232.102583 212.001245,232.102583 L210.011215,232.630708 L205.09756,232.630708 C205.09756,232.630708 204.220122,230.166125 204.044634,228.701458 C203.984969,228.212062 204.332434,227.391708 204.81678,226.5115 C206.573203,223.285058 207.665302,219.737403 208.028205,216.079271 L208.256338,213.913958 C207.842188,200.474937 213.169993,196.112625 215.405706,194.869771 C216.032532,194.518959 216.448211,193.882291 216.518298,193.165687 L216.9149,189.324458 L230.132631,189.975812 C230.132631,189.975812 229.851851,191.144729 230.353746,193.848729 C230.455529,194.408542 230.592409,195.031729 230.774916,195.725333 C231.827842,199.770771 224.632848,204.640083 224.576692,204.935833 Z" id="Shape" fill="#8E5362" fill-rule="nonzero"></path>
                <path d="M246.989977,195.654917 C246.536576,197.620709 245.910566,199.542371 245.119278,201.397396 C244.430733,203.055856 244.050107,204.826581 243.996157,206.622312 C243.996157,206.682167 243.996157,206.742021 243.996157,206.801875 C243.82531,212.124003 242.72407,217.374683 240.742616,222.314667 C238.801722,227.1875 236.229073,233.528521 235.456927,234.862917 C234.172357,237.091604 234.930464,240.848333 234.930464,240.848333 L227.489787,240.320208 L227.619648,227.761396 C226.843992,218.793833 229.700932,210.509312 231.248733,206.766667 C231.874136,205.269797 232.230605,203.673733 232.301659,202.052271 L232.652634,193.721979 L232.761436,191.257396 C232.761436,191.257396 245.915992,189.380792 247.025074,192.3735 C247.330423,193.165687 247.256718,194.345167 246.989977,195.654917 Z" id="Shape" fill="#8E5362" fill-rule="nonzero"></path>
                <path d="M230.353746,193.848729 L216.504259,193.165687 L216.900861,189.324458 L230.132631,189.975812 C230.132631,189.975812 229.841322,191.141208 230.353746,193.848729 Z" id="Shape" fill="#000000" fill-rule="nonzero" opacity="0.1"></path>
                <path d="M246.989977,195.654917 L232.649124,193.721979 L232.757927,191.257396 C232.757927,191.257396 245.912482,189.380792 247.021564,192.3735 C247.330423,193.165687 247.256718,194.345167 246.989977,195.654917 Z" id="Shape" fill="#000000" fill-rule="nonzero" opacity="0.1"></path>
                <path d="M254.525417,169.959875 L248.79399,195.193687 L231.831352,192.905146 L231.831352,184.21925 L230.364275,193.144562 L210.007705,192.144646 L211.060631,172.604021 C212.151494,168.704611 212.914612,164.720337 213.341971,160.693042 C213.738573,156.277917 215.823367,145.387979 216.830666,140.272208 C217.181641,138.585729 217.378187,137.522437 217.378187,137.522437 C217.378187,137.522437 252.244077,144.796479 254.525417,147.437104 C254.915,147.887771 255.171212,148.845437 255.329151,150.116458 C256.094277,156.284958 254.525417,169.959875 254.525417,169.959875 Z" id="Shape" fill="#BDD2E8" fill-rule="nonzero"></path>
                <path d="M213.812278,171.604104 C213.812278,171.604104 227.535414,164.386396 230.880209,165.910917 L213.812278,171.604104 Z" id="Shape" fill="#000000" fill-rule="nonzero" opacity="0.1"></path>
                <path d="M221.298582,148.014521 C221.298582,148.014521 232.70528,156.700417 233.056256,159.045292 L221.298582,148.014521 Z" id="Shape" fill="#000000" fill-rule="nonzero" opacity="0.1"></path>
                <path d="M218.19947,177.941604 C218.19947,177.941604 226.44739,177.589521 229.079705,179.702021 L218.19947,177.941604 Z" id="Shape" fill="#000000" fill-rule="nonzero" opacity="0.1"></path>
                <path d="M233.056256,168.653646 C233.056256,168.653646 236.97665,181.525812 235.27793,185.046646 C233.579209,188.567479 231.827842,184.222771 231.827842,184.222771 L233.056256,168.653646 Z" id="Shape" fill="#000000" fill-rule="nonzero" opacity="0.1"></path>
                <path d="M227.549453,235.746646 C227.549453,235.746646 223.688724,236.334625 224.390675,245.721167 C225.092625,255.107708 226.145551,256.755458 227.549453,256.871646 C228.953354,256.987833 235.797373,258.691917 235.446398,255.227417 C235.095422,251.762917 234.744447,244.080458 235.211244,242.9045 C235.678042,241.728542 236.485285,238.633729 234.716369,237.869708 L234.333806,239.679417 C234.333806,239.679417 230.588899,236.214917 228.367225,238.739354 C228.271808,238.123946 228.117845,237.519121 227.907448,236.933167 C227.686333,236.383917 227.201987,236.098729 227.549453,235.746646 Z" id="Shape" fill="#494457" fill-rule="nonzero"></path>
                <path d="M298.204298,120.552021 C298.204298,120.552021 297.31984,121.048458 296.021231,121.668125 C294.017162,122.625792 291.030362,123.88625 288.819217,124.072854 C285.176093,124.382688 284.035423,124.734771 279.869346,121.742063 C276.671961,119.446479 271.319587,116.246042 268.989111,114.879958 L267.974792,114.277896 L267.873009,114.218042 L267.873009,114.175792 L269.806883,108.84525 L276.650902,105.194146 L278.349623,106.655292 L283.407178,111.003521 C283.407178,111.003521 284.196872,112.278063 285.470913,112.190042 C286.744953,112.102021 293.543345,112.672396 293.543345,112.672396 L294.827915,112.883646 L297.533935,113.334313 L298.204298,120.552021 Z" id="Shape" fill="#8E5362" fill-rule="nonzero"></path>
                <path d="M298.204298,120.552021 C298.204298,120.552021 297.31984,121.048458 296.021231,121.668125 C294.648918,120.963958 292.943178,119.643646 293.599501,117.471292 C294.19265,115.517229 294.354098,113.992708 294.841954,112.894208 L297.547974,113.344875 L298.204298,120.552021 Z" id="Shape" fill="#000000" fill-rule="nonzero" opacity="0.1"></path>
                <path d="M297.284742,111.045771 C297.284742,111.045771 304.918456,108.84525 304.349876,118.087438 C303.781296,127.329625 297.898949,122.270188 297.898949,122.270188 C297.898949,122.270188 292.897551,120.949875 293.950477,117.471292 C295.003403,113.992708 294.698054,111.883729 297.284742,111.045771 Z" id="Shape" fill="#8E5362" fill-rule="nonzero"></path>
                <path d="M218.139804,81.1186875 L210.186703,84.4705208 L210.063861,84.5233333 L209.976118,84.4810833 L209.481242,84.2311042 C207.424527,83.2030208 200.355884,79.6857083 195.909026,77.5978542 C190.644396,75.1332708 191.462169,72.6686875 191.462169,72.6686875 L190.704062,46.8504167 L189.356317,42.2134792 C189.356317,42.2134792 188.405173,26.4964792 196.024848,22.5566667 C203.644523,18.6168542 198.716829,45.322375 198.716829,45.322375 L199.306467,50.8712083 C199.687286,54.4208846 200.386214,57.9289122 201.394771,61.3527292 C201.724123,62.4783535 201.931232,63.6363911 202.012487,64.8066667 C202.247641,68.559875 204.002517,68.3098958 204.002517,68.3098958 C206.774325,68.7465183 209.450446,69.6588432 211.913501,71.0068542 C212.828216,71.4912993 213.703658,72.0469466 214.531777,72.6686875 L218.139804,81.1186875 Z" id="Shape" fill="#8E5362" fill-rule="nonzero"></path>
                <path d="M246.452984,93.4416042 L239.665121,92.7374375 C239.665121,92.7374375 241.665681,89.7517708 242.546629,86.8470833 C242.67123,86.4488259 242.770868,86.0431374 242.844958,85.6323958 C243.048524,84.4810833 242.995877,83.4142708 242.472924,82.6432083 C240.486404,79.7103542 254.290264,75.6015417 254.290264,75.6015417 C254.122508,77.224729 254.07207,78.8579668 254.139344,80.4884583 C254.178768,81.6230438 254.296038,82.7535588 254.49032,83.8719792 C254.90798,86.1499583 255.739792,88.2941458 257.3262,89.3926458 C261.660746,92.3853542 246.452984,93.4416042 246.452984,93.4416042 Z" id="Shape" fill="#8E5362" fill-rule="nonzero"></path>
                <path d="M246.452984,93.4416042 L239.665121,92.7374375 C239.665121,92.7374375 241.665681,89.7517708 242.546629,86.8470833 C243.329304,87.9631875 243.599555,87.9385417 244.698108,88.1603542 C244.698108,88.1603542 251.549146,89.177875 254.497339,83.8719792 C254.915,86.1499583 255.746811,88.2941458 257.33322,89.3926458 C261.660746,92.3853542 246.452984,93.4416042 246.452984,93.4416042 Z" id="Shape" fill="#000000" fill-rule="nonzero" opacity="0.1"></path>
                <path d="M269.00315,114.879958 C268.99514,115.089281 269.004532,115.298909 269.031228,115.506667 L267.978302,114.277896 L267.890558,114.175792 L269.824432,108.84525 L276.668451,105.194146 L278.367172,106.655292 C275.934913,107.588313 269.111952,110.549333 269.00315,114.879958 Z" id="Shape" fill="#000000" fill-rule="nonzero" opacity="0.1"></path>
                <path d="M218.139804,81.1186875 L210.186703,84.4705208 L209.976118,84.4705208 L209.361911,84.5127708 C209.361911,84.5127708 209.407538,84.4106667 209.481242,84.2205417 C210.144586,82.6044792 213.222639,74.7142917 211.892443,70.9962917 C212.807158,71.4807368 213.682599,72.0363841 214.510719,72.658125 L218.139804,81.1186875 Z" id="Shape" fill="#000000" fill-rule="nonzero" opacity="0.1"></path>
                <path d="M255.329151,150.105896 C252.233548,149.82775 221.263484,146.95475 218.374957,142.381187 C217.918364,141.636032 217.401885,140.929518 216.830666,140.268687 C217.181641,138.582208 217.378187,137.518917 217.378187,137.518917 C217.378187,137.518917 252.244077,144.792958 254.525417,147.433583 C254.915,147.877208 255.171212,148.831354 255.329151,150.105896 Z" id="Shape" fill="#000000" fill-rule="nonzero" opacity="0.1"></path>
                <path d="M244.698108,88.5124375 C244.698108,88.5124375 251.622851,89.5405208 254.549985,84.1430833 C254.549985,84.1430833 259.439072,88.1709167 262.362696,88.5159583 C265.286321,88.861 278.858537,106.000417 278.858537,106.000417 C278.858537,106.000417 267.978302,109.52125 268.680252,115.154583 L263.531444,109.169167 C263.531444,109.169167 260.958795,109.049458 258.737121,116.210833 C258.737121,116.210833 256.04514,120.316125 256.396116,133.343208 C256.747091,146.370292 255.578343,149.422854 255.578343,149.422854 C255.578343,149.422854 221.414404,146.49 218.374957,141.677021 C215.335511,136.864042 214.865204,139.212438 214.865204,139.212438 C214.865204,139.212438 214.394897,130.058271 217.553675,122.664521 C220.712453,115.270771 220.010503,94.0295833 220.010503,94.0295833 C220.010503,94.0295833 220.361478,83.5832708 210.067371,84.5233333 C210.067371,84.5233333 214.394897,74.4291042 212.408377,70.5561875 C212.408377,70.5561875 218.329331,72.1687292 222.548054,72.2180208 C225.13742,72.2382092 227.689427,72.8397277 230.016809,73.9784375 C231.28383,74.601625 232.452578,75.3867708 233.115922,76.3233125 C235.102442,79.1399792 238.380552,77.8513542 238.380552,77.8513542 C239.206796,80.4288196 240.227578,82.9393964 241.434037,85.3612917 C241.570917,85.6183125 241.707798,85.8718125 241.848188,86.11475 C242.051754,86.4668333 242.262339,86.8189167 242.472924,87.107625 C243.315265,88.3152708 243.553928,88.2835833 244.698108,88.5124375 Z" id="Shape" fill="#FF7590" fill-rule="nonzero"></path>
                <path d="M254.139344,80.4778958 C253.766097,81.0094762 253.350591,81.5098933 252.896892,81.97425 C250.590942,84.3480689 247.426598,85.6863682 244.122508,85.6852083 C243.699375,85.6854325 243.276499,85.6642807 242.855487,85.6218333 C243.059053,84.4705208 243.006407,83.4037083 242.483453,82.6326458 C240.496933,79.6997917 254.300793,75.5909792 254.300793,75.5909792 C254.129524,77.2139111 254.075567,78.8471496 254.139344,80.4778958 Z" id="Shape" fill="#000000" fill-rule="nonzero" opacity="0.1"></path>
                <path d="M256.396116,73.0207708 C256.396116,79.8265298 250.89632,85.3436875 244.111979,85.3436875 C237.327637,85.3436875 231.827842,79.8265298 231.827842,73.0207708 C231.827842,66.2150119 237.327637,60.6978542 244.111979,60.6978542 C247.373654,60.6856329 250.505256,61.9800116 252.811624,64.2936613 C255.117993,66.607311 256.408298,69.7487989 256.396116,73.0207708 Z" id="Shape" fill="#8E5362" fill-rule="nonzero"></path>
                <path d="M262.482028,101.187437 L262.73473,109.433229 C262.73473,109.433229 266.402423,106.468687 266.518244,103.652021 C266.634066,100.835354 262.482028,101.187437 262.482028,101.187437 Z" id="Shape" fill="#000000" fill-rule="nonzero" opacity="0.1"></path>
                <path d="M232.880768,109.433229 C232.880768,109.433229 242.53259,122.724375 248.148195,124.072854 C253.763801,125.421333 234.98662,113.742729 232.880768,109.433229 Z" id="Shape" fill="#000000" fill-rule="nonzero" opacity="0.1"></path>
                <path d="M243.118719,110.816917 C243.118719,110.816917 248.499171,116.915 252.359899,117.6755 L243.118719,110.816917 Z" id="Shape" fill="#000000" fill-rule="nonzero" opacity="0.1"></path>
                <path d="M224.16605,126.185354 C224.16605,126.185354 233.99336,135.867646 239.608965,136.455625 L224.16605,126.185354 Z" id="Shape" fill="#000000" fill-rule="nonzero" opacity="0.1"></path>
                <path d="M256.396116,73.0207708 C256.397794,76.2421664 255.137261,79.3351638 252.886362,81.6327292 L251.538617,80.79125 C251.01725,80.5189864 250.56746,80.1268922 250.225969,79.6469792 C249.780231,78.9005625 249.910091,77.9640208 249.945189,77.094375 C250.018894,75.2529792 249.513489,73.2601875 248.078,72.108875 C245.751034,70.2393125 242.020166,71.2744375 239.654592,69.4400833 C239.084941,68.9548265 238.583196,68.3946505 238.162947,67.7747292 L235.944783,64.7925833 C235.811412,64.6165417 235.649964,64.4405 235.477986,64.2327708 C239.009237,60.7493752 244.280319,59.7338962 248.846647,61.6572854 C253.412976,63.5806746 256.381325,68.0666957 256.375057,73.0348542 L256.396116,73.0207708 Z" id="Shape" fill="#000000" fill-rule="nonzero" opacity="0.1"></path>
                <path d="M236.709909,57.2403958 C237.808462,56.3989167 239.149188,55.9552917 240.384621,55.335625 C241.620054,54.7159583 242.711587,53.9272917 243.94702,53.3991667 C245.182454,52.8710417 246.610923,52.5612083 247.891983,53.0013125 C250.64012,53.9484167 251.679007,57.8002083 254.504359,58.4762083 C254.981685,58.588875 255.473051,58.5994375 255.953887,58.673375 C257.810301,59.0264174 259.426772,60.1608786 260.393725,61.7893125 C261.336798,63.4137721 261.822058,65.2647978 261.797626,67.1445 C261.836684,68.1877331 261.68563,69.229359 261.351887,70.2181875 C260.516566,72.5172917 258.421243,74.0911042 257.006813,76.080375 C255.667897,77.9840238 254.957226,80.2606741 254.974666,82.5903958 L251.549146,80.45325 C251.02702,80.1821066 250.57699,79.7898027 250.236499,79.3089792 C249.79076,78.5625625 249.920621,77.6260208 249.955718,76.756375 C250.029423,74.9149792 249.524019,72.9221875 248.092039,71.770875 C245.761563,69.9013125 242.030695,70.9364375 239.668631,69.1020833 C239.09898,68.6168265 238.597235,68.0566505 238.176986,67.4367292 L235.958822,64.4545833 C235.477986,63.80675 234.55492,63.0004792 234.344335,62.2118125 C233.877538,60.5147708 235.474476,58.1945417 236.709909,57.2403958 Z" id="Shape" fill="#362133" fill-rule="nonzero"></path>
                <path d="M251.931709,80.0553958 C251.409583,79.7842524 250.959553,79.3919485 250.619062,78.911125 C250.173323,78.1647083 250.303184,77.2281667 250.338281,76.3585208 C250.411986,74.517125 249.906582,72.5243333 248.471093,71.3730208 C246.144126,69.5034583 242.413258,70.5385833 240.047684,68.7042292 C239.478034,68.2189724 238.976288,67.6587964 238.556039,67.038875 L236.337875,64.0567292 C235.853529,63.4088958 234.933974,62.602625 234.723389,61.8139583 C234.340826,60.4549167 235.309517,58.6839375 236.344895,57.5502292 C235.183166,58.6276042 233.909126,60.6732083 234.340826,62.1977292 C234.56545,62.9863958 235.474476,63.7926667 235.955312,64.4405 L238.173476,67.4226458 C238.593725,68.0425672 239.09547,68.6027432 239.665121,69.088 C242.020166,70.9223542 245.751034,69.8872292 248.088529,71.7567917 C249.520509,72.9081042 250.025913,74.9008958 249.952208,76.7422917 C249.917111,77.6119375 249.78725,78.5484792 250.232989,79.2948958 C250.57348,79.7757193 251.02351,80.1680232 251.545637,80.4391667 L254.971156,82.5763125 C254.971156,82.3721042 254.971156,82.1678958 254.992214,81.9672083 L251.931709,80.0553958 Z" id="Shape" fill="#000000" fill-rule="nonzero" opacity="0.1"></path>
                <path d="M204.595666,226.923438 C204.595666,226.923438 201.177166,227.627604 201.879117,237.03175 C202.581067,246.435896 203.633993,248.066042 205.037895,248.182229 C206.441796,248.298417 213.285815,250.0025 212.93484,246.538 C212.583864,243.0735 212.232889,235.391042 212.699686,234.215083 C213.166483,233.039125 215.019633,229.880938 213.250718,229.116917 L211.822248,230.99 C211.822248,230.99 208.077341,227.5255 205.855667,230.049938 C205.855667,230.049937 203.777893,227.743792 204.595666,226.923438 Z" id="Shape" fill="#494457" fill-rule="nonzero"></path>
                <path d="M206.757674,232.753937 C207.498232,233.106021 208.189653,233.535562 208.926701,233.887646 C209.65254,234.268935 210.462573,234.460275 211.281746,234.443937 C211.629521,234.437402 211.966251,234.320284 212.243418,234.109458" id="Shape" fill="#000000" fill-rule="nonzero" opacity="0.1"></path>
                <path d="M229.255193,241.950354 C229.693912,242.35525 230.034358,242.872812 230.529233,243.207292 C231.231184,243.679083 232.129681,243.70725 232.986061,243.717812 C233.128602,243.730745 233.272249,243.712733 233.407231,243.665 C233.560195,243.581548 233.689442,243.460375 233.782775,243.312917 L234.242552,242.717896" id="Shape" fill="#000000" fill-rule="nonzero" opacity="0.1"></path>
                <path d="M171.579416,85.8119583 C171.579416,85.8119583 170.000027,70.7920833 176.142095,74.4889583 C182.284164,78.1858333 178.054911,84.7557083 178.054911,84.7557083 L176.612402,89.3926458 L171.579416,85.8119583 Z" id="Shape" fill="#FFC1C7" fill-rule="nonzero"></path>
                <path d="M181.406725,37.8124375 L184.916479,34.3549792 C184.916479,34.3549792 191.644676,14.9305417 198.313207,19.9195625 C204.981739,24.9085833 189.861721,37.5237292 189.861721,37.5237292 L185.853583,42.217 L181.406725,37.8124375 Z" id="Shape" fill="#FFC1C7" fill-rule="nonzero"></path>
                <path d="M130.044994,114.629979 L129.869507,118.619083 C129.869507,118.619083 133.087951,124.252417 134.432186,124.664354 C135.776422,125.076292 135.6606,112.749854 135.6606,112.749854 L130.044994,114.629979 Z" id="Shape" fill="#FF5374" fill-rule="nonzero"></path>
                <path d="M130.044994,114.629979 L129.869507,118.619083 C129.869507,118.619083 133.087951,124.252417 134.432186,124.664354 C135.776422,125.076292 135.6606,112.749854 135.6606,112.749854 L130.044994,114.629979 Z" id="Shape" fill="#000000" fill-rule="nonzero" opacity="0.1"></path>
                <polygon id="Shape" fill="#FFC1C7" fill-rule="nonzero" points="135.425446 110.250062 135.66411 124.953062 151.980953 124.953062 150.752539 116.386875"></polygon>
                <path d="M139.230019,146.958271 L139.991635,151.651542 L149.527635,172.89625 C149.527635,172.89625 153.855161,179.585833 150.345408,185.219167 C146.835655,190.8525 143.210079,199.654583 142.62395,204.992167 C142.037822,210.32975 137.418986,215.554667 137.418986,215.554667 L147.481449,219.839521 C147.481449,219.839521 148.1834,211.449375 150.991203,207.516604 C153.799005,203.583833 162.805032,186.275417 162.805032,186.275417 C162.805032,186.275417 165.672501,183.691125 165.030216,176.005146 C164.387931,168.319167 164.444087,162.918208 164.444087,162.918208 L163.450827,150.655146 L139.230019,146.958271 Z" id="Shape" fill="#575988" fill-rule="nonzero"></path>
                <path d="M139.230019,146.958271 L139.991635,151.651542 L149.527635,172.89625 C149.527635,172.89625 153.855161,179.585833 150.345408,185.219167 C146.835655,190.8525 143.210079,199.654583 142.62395,204.992167 C142.037822,210.32975 137.418986,215.554667 137.418986,215.554667 L147.481449,219.839521 C147.481449,219.839521 148.1834,211.449375 150.991203,207.516604 C153.799005,203.583833 162.805032,186.275417 162.805032,186.275417 C162.805032,186.275417 165.672501,183.691125 165.030216,176.005146 C164.387931,168.319167 164.444087,162.918208 164.444087,162.918208 L163.450827,150.655146 L139.230019,146.958271 Z" id="Shape" fill="#000000" fill-rule="nonzero" opacity="0.1"></path>
                <path d="M138.292915,214.910354 C138.292915,214.910354 127.528501,218.195292 131.09792,223.59625 C134.66734,228.997208 146.249526,239.263958 150.928027,238.911875 C155.606528,238.559792 153.73583,235.095292 153.73583,235.095292 L149.815435,231.222375 C149.815435,231.222375 149.113484,223.008271 149.408304,220.603542 C149.703123,218.198812 146.074038,217.082708 145.603731,218.491042 C145.133424,219.899375 138.292915,214.910354 138.292915,214.910354 Z" id="Shape" fill="#C4747B" fill-rule="nonzero"></path>
                <path d="M145.077268,118.707104 L136.545058,119.654208 C134.964467,119.829309 133.780879,121.18953 133.821489,122.784229 C133.912743,126.206479 133.972408,131.649688 133.495082,132.642563 C132.793131,134.11075 130.631123,144.557063 139.988126,151.655063 L152.682904,155.704021 L132.326334,157.172208 L132.972129,168.498729 L136.130907,166.738313 L174.738194,168.498729 C174.738194,168.498729 185.678095,167.382625 178.247947,155.471646 C170.817799,143.560667 155.027419,131.882063 155.027419,131.882063 L154.851931,122.608188 L153.679674,119.911229 L145.077268,118.707104 Z" id="Shape" fill="#575988" fill-rule="nonzero"></path>
                <path d="M155.666194,155.524458 C158.463493,154.299296 161.643278,154.299296 164.440577,155.524458 L155.666194,155.524458 Z" id="Shape" fill="#000000" fill-rule="nonzero" opacity="0.1"></path>
                <path d="M133.323104,157.108833 C133.323104,157.108833 120.747658,155.292083 120.687992,157.696812 C120.628326,160.101542 122.442869,183.515083 128.469115,181.930708 C134.495362,180.346333 131.919203,172.6005 131.919203,172.6005 L136.425726,168.259312 C136.425726,168.259312 136.892523,165.854583 133.909233,166.086958 L133.323104,157.108833 Z" id="Shape" fill="#C4747B" fill-rule="nonzero"></path>
                <path d="M154.146471,91.4452917 L159.116282,97.1384792 C159.116282,97.1384792 161.281799,99.8389583 163.854449,95.7301458 C166.427098,91.6213333 171.224931,84.2874375 171.224931,84.2874375 C171.224931,84.2874375 176.549227,88.9807083 177.953128,88.0441667 C179.357029,87.107625 165.026706,107.588313 165.026706,107.588313 C165.026706,107.588313 160.464027,114.334229 153.676164,106.356021 L151.689643,105.415958 L154.146471,91.4452917 Z" id="Shape" fill="#FF5374" fill-rule="nonzero"></path>
                <path d="M154.146471,91.4452917 L159.116282,97.1384792 C159.116282,97.1384792 161.281799,99.8389583 163.854449,95.7301458 C166.427098,91.6213333 171.224931,84.2874375 171.224931,84.2874375 C171.224931,84.2874375 176.549227,88.9807083 177.953128,88.0441667 C179.357029,87.107625 165.026706,107.588313 165.026706,107.588313 C165.026706,107.588313 160.464027,114.334229 153.676164,106.356021 L151.689643,105.415958 L154.146471,91.4452917 Z" id="Shape" fill="#000000" fill-rule="nonzero" opacity="0.1"></path>
                <ellipse id="Oval" fill="#FFC1C7" fill-rule="nonzero" cx="138.942219" cy="57.9234375" rx="10.3537724" ry="10.3864583"></ellipse>
                <path d="M138.938709,63.5145208 C138.938709,63.5145208 130.041485,67.7395208 131.094411,75.1332708 C132.147337,82.5270208 132.322824,91.8572292 132.322824,91.8572292 C132.322824,91.8572292 136.36255,97.8426458 131.006667,109.285354 C131.006667,109.285354 127.584657,115.094729 129.865997,119.319729 C129.865997,119.319729 132.396529,112.630146 138.938709,117.559312 C145.48089,122.488479 156.01366,124.777021 156.01366,124.777021 C156.01366,124.777021 150.573542,100.835354 153.907808,97.4905625 C153.907808,97.4905625 159.698901,88.8645208 154.434271,83.4072292 C149.169641,77.9499375 151.801956,72.8447292 151.801956,72.8447292 L168.708438,63.7504167 C168.708438,63.7504167 172.274347,63.80675 177.07218,56.2968125 C180.17827,51.4975736 183.598436,46.9104108 187.31013,42.5655625 C187.31013,42.5655625 183.681045,37.1082708 180.290624,36.6963333 C180.290624,36.6963333 178.942878,38.1046667 178.009284,41.92125 C177.510899,43.9457292 174.123987,47.32925 171.059972,50.0578958 C168.883925,51.9943542 166.785093,54.00475 164.68977,56.0433125 C163.138459,57.5396667 159.684862,59.6803333 152.152931,60.8915 C139.756482,62.8737292 138.938709,63.5145208 138.938709,63.5145208 Z" id="Shape" fill="#000000" fill-rule="nonzero" opacity="0.1"></path>
                <path d="M138.938709,62.8103542 C138.938709,62.8103542 130.041485,67.0353542 131.094411,74.4291042 C132.147337,81.8228542 132.322824,91.1530625 132.322824,91.1530625 C132.322824,91.1530625 136.36255,97.1384792 131.006667,108.581188 C131.006667,108.581188 127.584657,114.390563 129.865997,118.615563 C129.865997,118.615563 132.396529,111.925979 138.938709,116.855146 C145.48089,121.784313 156.01366,124.072854 156.01366,124.072854 C156.01366,124.072854 150.573542,100.131188 153.907808,96.7863958 C153.907808,96.7863958 159.698901,88.1603542 154.434271,82.7030625 C149.169641,77.2457708 151.801956,72.1405625 151.801956,72.1405625 L168.708438,63.04625 C168.708438,63.04625 172.274347,63.1025833 177.07218,55.5926458 C180.17827,50.7934069 183.598436,46.2062441 187.31013,41.8613958 C187.31013,41.8613958 183.681045,36.4041042 180.290624,35.9921667 C180.290624,35.9921667 178.942878,37.4005 178.009284,41.2170833 C177.510899,43.2415625 174.123987,46.6250833 171.059972,49.3537292 C168.883925,51.2901875 166.785093,53.3005833 164.68977,55.3391458 C163.138459,56.8355 159.684862,58.9761667 152.152931,60.1873333 C139.756482,62.1695625 138.938709,62.8103542 138.938709,62.8103542 Z" id="Shape" fill="#FF5374" fill-rule="nonzero"></path>
                <path d="M146.600501,107.056667 C146.600501,107.056667 153.500676,117.267083 153.676173,119.0275 C153.679674,119.0275 152.626748,108.053062 146.600501,107.056667 Z" id="Shape" fill="#000000" fill-rule="nonzero" opacity="0.1"></path>
                <path d="M137.534808,72.6686875 C137.534808,72.6686875 142.34668,78.4780625 149.299501,73.60875 C145.41592,74.9315979 141.160667,74.5915802 137.534808,72.6686875 Z" id="Shape" fill="#000000" fill-rule="nonzero" opacity="0.1"></path>
                <path d="M141.265676,47.0616667 C141.139524,46.5340123 140.8782,46.0485521 140.507569,45.6533333 C138.921161,43.6570208 137.197872,41.6078958 134.835808,40.6607917 C131.617498,39.4546265 127.99127,40.4907004 125.889446,43.2169167 C125.040086,44.3647083 124.534682,45.7307917 123.801143,46.9595625 C122.446378,49.2340208 120.351056,50.9873958 118.097794,52.3746042 C116.739519,53.2090417 115.30754,53.9308125 114.02648,54.8779167 C109.369037,58.3177708 107.217558,64.6763958 108.389816,70.3695833 C108.90575,72.8623333 109.997283,75.319875 109.702464,77.8513542 C109.47433,79.8159792 108.431933,81.5763958 107.375497,83.2452708 C106.319062,84.9141458 105.192431,86.6041458 104.77126,88.5265208 C104.35009,90.4488958 104.792319,92.726875 106.382237,93.8922708 C106.968366,94.3218125 107.673826,94.5964375 108.175721,95.1104792 C108.507863,95.5106179 108.785246,95.9534631 109.000513,96.4272708 C110.690178,99.554275 113.587912,101.846167 117.01328,102.764771 C118.522474,103.162625 120.547602,103.018271 121.098633,101.553604 C121.161901,101.294972 121.257418,101.045373 121.382923,100.810708 C121.881308,100.106542 122.979861,100.500875 123.752007,100.905771 C125.509795,101.82756 127.435697,102.382121 129.413239,102.535917 C130.197571,102.639679 130.995321,102.544034 131.733186,102.257771 C132.356171,101.940413 132.892354,101.47506 133.295026,100.90225 C135.141156,98.4904792 135.671129,95.3393333 135.987007,92.3149375 C136.194082,90.3467917 136.337982,88.3434375 135.962439,86.3999375 C135.365781,83.2804792 133.474023,80.3652292 133.754804,77.2035208 C134.053133,73.8235208 136.787231,71.0596667 137.204891,67.6972708 C137.417195,65.9368206 136.978912,64.1593645 135.972968,62.7012083 C135.601778,62.2509294 135.287059,61.7566679 135.035864,61.2295 C134.790748,60.6839576 134.902002,60.0436264 135.316644,59.6134375 C135.538892,59.4563659 135.785587,59.337388 136.046673,59.2613542 C138.303444,58.3917083 139.507289,56.1242917 139.668738,53.8040625 C139.731914,52.9238542 139.668738,52.1140625 139.910911,51.2549792 C140.296984,49.927625 141.465732,48.4770417 141.265676,47.0616667 Z" id="Shape" fill="#000000" fill-rule="nonzero" opacity="0.1"></path>
                <path d="M140.563725,47.0616667 C140.437573,46.5340123 140.17625,46.0485521 139.805619,45.6533333 C138.21921,43.6570208 136.495921,41.6078958 134.133857,40.6607917 C130.915547,39.4546265 127.289319,40.4907004 125.187496,43.2169167 C124.338135,44.3647083 123.832731,45.7307917 123.099192,46.9595625 C121.744428,49.2340208 119.649105,50.9873958 117.395843,52.3746042 C116.037569,53.2090417 114.605589,53.9308125 113.324529,54.8779167 C108.667087,58.3177708 106.515608,64.6763958 107.687865,70.3695833 C108.203799,72.8623333 109.295332,75.319875 109.000513,77.8513542 C108.772379,79.8159792 107.729982,81.5763958 106.673547,83.2452708 C105.617111,84.9141458 104.49048,86.6041458 104.06931,88.5265208 C103.648139,90.4488958 104.090368,92.726875 105.680287,93.8922708 C106.266415,94.3218125 106.971876,94.5964375 107.47377,95.1104792 C107.805912,95.5106179 108.083295,95.9534631 108.298563,96.4272708 C109.988227,99.554275 112.885962,101.846167 116.311329,102.764771 C117.820523,103.162625 119.845651,103.018271 120.396682,101.553604 C120.459951,101.294972 120.555467,101.045373 120.680972,100.810708 C121.179357,100.106542 122.27791,100.500875 123.050056,100.905771 C124.807845,101.82756 126.733746,102.382121 128.711288,102.535917 C129.49562,102.639679 130.29337,102.544034 131.031235,102.257771 C131.654221,101.940413 132.190403,101.47506 132.593075,100.90225 C134.439206,98.4904792 134.969178,95.3393333 135.285056,92.3149375 C135.492132,90.3467917 135.636032,88.3434375 135.260488,86.3999375 C134.66383,83.2804792 132.772073,80.3652292 133.052853,77.2035208 C133.351182,73.8235208 136.08528,71.0596667 136.502941,67.6972708 C136.715245,65.9368206 136.276962,64.1593645 135.271017,62.7012083 C134.899828,62.2509294 134.585109,61.7566679 134.333913,61.2295 C134.088798,60.6839576 134.200051,60.0436264 134.614693,59.6134375 C134.836941,59.4563659 135.083636,59.337388 135.344722,59.2613542 C137.601493,58.3917083 138.805339,56.1242917 138.966787,53.8040625 C139.029963,52.9238542 138.966787,52.1140625 139.20896,51.2549792 C139.595033,49.927625 140.763781,48.4770417 140.563725,47.0616667 Z" id="Shape" fill="#BB7684" fill-rule="nonzero"></path>
                <g id="Group" opacity="0.1" transform="translate(116.907988, 39.879167)" fill="#000000" fill-rule="nonzero">
                    <path d="M2.72707837,60.9139375 C2.60175632,61.1490781 2.50512699,61.3985068 2.43927859,61.6568333 C2.11287153,62.53 1.26000146,62.931375 0.308858296,63.0299583 C1.63203532,63.16375 3.04646592,62.8433542 3.4922046,61.6568333 C3.558053,61.3985068 3.65468233,61.1490781 3.78000438,60.9139375 C3.86833999,60.7846051 3.98950727,60.6812878 4.13097971,60.6146667 C3.5974972,60.45975 3.04997568,60.4667917 2.72707837,60.9139375 Z" id="Shape"></path>
                    <path d="M23.6732865,7.17897917 C23.5505939,6.65000443 23.2888089,6.16368701 22.9151797,5.77064583 C21.3287712,3.77433333 19.6054823,1.72520833 17.2434183,0.778104167 C16.2168399,0.376018479 15.1134442,0.209986636 14.0144452,0.292229167 C14.7606174,0.339335817 15.4948468,0.503276983 16.1904923,0.778104167 C18.5525563,1.72520833 20.2758452,3.77433333 21.8622537,5.77064583 C22.2358829,6.16368701 22.4976679,6.65000443 22.6203605,7.17897917 C22.8204164,8.5873125 21.6551783,10.0484583 21.2691054,11.3511667 C21.0128934,12.21025 21.0865982,13.0165208 21.0269324,13.90025 C20.861974,16.2169583 19.6616384,18.4773333 17.4013572,19.3575417 C17.1402715,19.4335755 16.8935764,19.5525534 16.6713285,19.709625 C16.2563648,20.1412617 16.1464283,20.7834191 16.394058,21.3292083 C16.6440011,21.8562805 16.9575479,22.3505523 17.3276524,22.8009167 C18.3345917,24.2573749 18.7741515,26.0336916 18.5630856,27.7934583 C18.1419152,31.1628958 15.4043075,33.9232292 15.1094883,37.2997083 C14.828708,40.4684583 16.7239748,43.3766667 17.3171231,46.4926042 C17.689157,48.4361042 17.5487668,50.4394583 17.3416914,52.4076042 C17.0258136,55.432 16.4993506,58.5866667 14.6497106,60.9949167 C14.2484499,61.5676741 13.7134079,62.0330829 13.0913801,62.3504375 C12.7277789,62.5103144 12.3396426,62.6067617 11.9436907,62.635625 C12.6894525,62.7246959 13.4455925,62.6267043 14.1443061,62.3504375 C14.7674143,62.041472 15.3059465,61.5846312 15.7131658,61.0195625 C17.5628059,58.6113125 18.0892689,55.4566458 18.4051467,52.43225 C18.6122221,50.4641042 18.756122,48.46075 18.3805784,46.51725 C17.7874301,43.4013125 15.8921633,40.4825417 16.1729435,37.3243542 C16.4747823,33.9408333 19.2053704,31.1805 19.6265408,27.8181042 C19.8376068,26.0583375 19.398047,24.2820208 18.3911077,22.8255625 C18.0210031,22.3751981 17.7074564,21.8809263 17.4575133,21.3538542 C17.2098835,20.808065 17.31982,20.1659076 17.7347838,19.7342708 C17.9570316,19.5771992 18.2037267,19.4582214 18.4648125,19.3821875 C20.7250936,18.5090208 21.9254293,16.2416042 22.0903877,13.9248958 C22.1500535,13.0411667 22.0903877,12.2348958 22.3325607,11.3758125 C22.7081043,10.0484583 23.8733424,8.597875 23.6732865,7.17897917 Z" id="Shape"></path>
                </g>
                <path d="M127.293348,171.315396 C128.520741,172.659768 130.406103,173.18217 132.147337,172.660354" id="Shape" fill="#000000" fill-rule="nonzero" opacity="0.1"></path>
                <path d="M149.783847,231.521646 C149.104977,232.071744 148.219841,232.295657 147.362118,232.134271" id="Shape" fill="#000000" fill-rule="nonzero" opacity="0.1"></path>
                <ellipse id="Oval" fill="#FF6347" fill-rule="nonzero" opacity="0.1" cx="54.8379992" cy="240.848333" rx="9.45176582" ry="1.60197917"></ellipse>
                <ellipse id="Oval" fill="#D0021B" fill-rule="nonzero" cx="313.605096" cy="272.747083" rx="9.45176582" ry="1.60197917"></ellipse>
                <ellipse id="Oval" fill="#FF6347" fill-rule="nonzero" opacity="0.1" cx="313.605096" cy="241.911625" rx="9.45176582" ry="1.60197917"></ellipse>
                <ellipse id="Oval" fill="#FF6347" fill-rule="nonzero" opacity="0.1" cx="81.6384759" cy="255.723854" rx="9.45176582" ry="1.60197917"></ellipse>
                <ellipse id="Oval" fill="#D0021B" fill-rule="nonzero" cx="343.497665" cy="255.723854" rx="14.1127183" ry="2.39416667"></ellipse>
                <ellipse id="Oval" fill="#F2DCDE" fill-rule="nonzero" cx="140.584784" cy="274.46525" rx="31.8545216" ry="5.40095833"></ellipse>
                <path d="M349.330875,251.808688 C349.975024,251.281284 350.444888,250.570581 350.67862,249.770125 C350.850598,248.960333 350.506643,247.992104 349.738007,247.696354 C348.874607,247.365396 347.951542,247.963938 347.253101,248.573042 C346.55466,249.182146 345.750927,249.868708 344.834881,249.741958 C345.793204,248.871469 346.225039,247.559842 345.972041,246.288021 C345.932274,246.02893 345.823094,245.785541 345.656163,245.583854 C345.175327,245.069813 344.308418,245.291625 343.732819,245.696521 C341.907747,246.985146 341.398833,249.470854 341.388303,251.710104 C341.205796,250.903833 341.360225,250.062354 341.356715,249.245521 C341.353206,248.428688 341.125072,247.485104 340.430141,247.052042 C340.000459,246.814714 339.516703,246.693393 339.026239,246.699958 C338.204957,246.671792 337.292421,246.752771 336.730861,247.354833 C336.02891,248.104771 336.214927,249.358188 336.822114,250.1715 C337.429301,250.984813 338.348857,251.509417 339.194707,252.079792 C339.875435,252.48577 340.45609,253.040578 340.893428,253.702896 C340.943935,253.795213 340.986217,253.891824 341.019779,253.991604 L346.161568,253.991604 C347.311164,253.410437 348.377238,252.67616 349.330875,251.808688 Z" id="Shape" fill="#D0021B" fill-rule="nonzero"></path>
                <path d="M319.441815,268.916417 C320.084998,268.388817 320.553677,267.678055 320.786051,266.877854 C320.958029,266.068063 320.617583,265.117438 319.845437,264.804083 C318.982038,264.473125 318.058973,265.071667 317.360532,265.680771 C316.662091,266.289875 315.858357,266.976438 314.942312,266.849688 C315.900634,265.979198 316.332469,264.667571 316.079472,263.39575 C316.041634,263.13609 315.932229,262.892199 315.763594,262.691583 C315.286267,262.177542 314.415849,262.399354 313.843759,262.80425 C312.018687,264.092875 311.509773,266.578583 311.499244,268.817833 C311.313227,268.011563 311.467656,267.170083 311.464146,266.35325 C311.460636,265.536417 311.232502,264.592833 310.537571,264.159771 C310.106641,263.927496 309.622693,263.812196 309.13367,263.825292 C308.312388,263.797125 307.399852,263.878104 306.838291,264.480167 C306.13634,265.230104 306.322357,266.483521 306.929545,267.296833 C307.536732,268.110146 308.456287,268.63475 309.305648,269.205125 C309.985102,269.611525 310.564525,270.166302 311.000859,270.828229 C311.051366,270.920546 311.093647,271.017158 311.12721,271.116938 L316.268998,271.116938 C317.420256,270.529594 318.487447,269.789439 319.441815,268.916417 Z" id="Shape" fill="#D0021B" fill-rule="nonzero"></path>
                <path d="M92.3432237,237.154979 C92.3432237,237.154979 87.4120202,220.357083 93.2697986,207.995438 C95.76419,202.823931 96.5179436,196.979961 95.4177677,191.341896 C94.8749435,188.671092 94.0889737,186.055886 93.0697427,183.529167" id="Shape" stroke="#535461" stroke-width="0.704000036"></path>
                <path d="M96.7023374,175.716437 C96.7023374,177.776125 92.9855086,183.743937 92.9855086,183.743937 C92.9855086,183.743937 89.2721895,177.776125 89.2721895,175.716437 C89.2305521,174.357664 89.9293936,173.083842 91.0959747,172.392111 C92.2625558,171.70038 93.7119711,171.70038 94.8785522,172.392111 C96.0451334,173.083842 96.7439748,174.357664 96.7023374,175.716437 Z" id="Shape" fill="#F5A623" fill-rule="nonzero"></path>
                <path d="M102.844406,187.120417 C101.728304,188.845625 95.3756506,191.831292 95.3756506,191.831292 C95.3756506,191.831292 95.4914725,184.789625 96.6075741,183.067937 C97.7479464,181.403955 100.001552,180.953042 101.691038,182.050812 C103.380524,183.148581 103.891836,185.396043 102.844406,187.120417 Z" id="Shape" fill="#F5A623" fill-rule="nonzero"></path>
                <path d="M102.577665,206.604708 C100.745573,207.534208 93.7576543,206.893417 93.7576543,206.893417 C93.7576543,206.893417 97.3972686,200.876312 99.2293598,199.950333 C101.050052,199.09339 103.219965,199.844645 104.126204,201.645693 C105.032444,203.446741 104.346248,205.644203 102.577665,206.604708 Z" id="Shape" fill="#F5A623" fill-rule="nonzero"></path>
                <path d="M99.0644014,221.311229 C97.4148173,222.532958 90.4198789,223.071646 90.4198789,223.071646 C90.4198789,223.071646 92.9960378,216.522896 94.6315829,215.297646 C96.2801794,214.194482 98.501612,214.582839 99.6810265,216.180404 C100.860441,217.777969 100.582989,220.022813 99.0503624,221.283063 L99.0644014,221.311229 Z" id="Shape" fill="#F5A623" fill-rule="nonzero"></path>
                <path d="M87.5734689,192.232667 C89.0475653,193.665646 95.9021136,195.151438 95.9021136,195.151438 C95.9021136,195.151438 94.2244515,188.3175 92.7433356,186.884521 C91.2617712,185.513461 88.960816,185.576935 87.5566027,187.027602 C86.1523893,188.478269 86.1567575,190.787357 87.5664494,192.232667 L87.5734689,192.232667 Z" id="Shape" fill="#F5A623" fill-rule="nonzero"></path>
                <path d="M83.6846622,209.474188 C85.5167534,210.400167 92.5011626,209.759375 92.5011626,209.759375 C92.5011626,209.759375 88.8615484,203.742271 87.0294571,202.816292 C85.2044536,201.939608 83.015668,202.688484 82.1050213,204.501148 C81.1943747,206.313813 81.8964845,208.524201 83.6846622,209.474188 Z" id="Shape" fill="#F5A623" fill-rule="nonzero"></path>
                <path d="M82.193017,226.750917 C83.8426011,227.976167 90.8375395,228.511333 90.8375395,228.511333 C90.8375395,228.511333 88.2613806,221.962583 86.6258355,220.740854 C84.977239,219.63769 82.7558064,220.026047 81.5763919,221.623612 C80.3969775,223.221177 80.6744293,225.466021 82.207056,226.726271 L82.193017,226.750917 Z" id="Shape" fill="#F5A623" fill-rule="nonzero"></path>
                <path d="M80.6768035,236.098729 C80.6768035,236.098729 86.6819915,234.901646 88.2859488,233.306708 C89.8899061,231.711771 97.09192,228.923271 97.8921438,230.916062 C98.6923676,232.908854 108.702184,239.686458 101.896772,240.883542 C95.0913606,242.080625 85.8817678,242.478479 83.8812083,241.682771 C81.8806489,240.887062 80.6768035,236.098729 80.6768035,236.098729 Z" id="Shape" fill="#A8A8A8" fill-rule="nonzero"></path>
                <path d="M101.907302,240.133604 C95.1018899,241.330688 85.892297,241.728542 83.8917376,240.929313 C82.3649949,240.323729 81.3050494,237.408479 80.8873887,236.045917 L80.6768035,236.098729 C80.6768035,236.098729 81.8771392,240.883542 83.8812083,241.682771 C85.8852775,242.482 95.0913606,242.080625 101.896772,240.883542 C103.862234,240.531458 104.423795,239.728708 104.21321,238.700625 C104.055271,239.359021 103.370869,239.876583 101.907302,240.133604 Z" id="Shape" fill="#000000" fill-rule="nonzero" opacity="0.2"></path>
                <path d="M315.53897,218.814958 C315.53897,218.814958 317.469334,221.346438 314.651002,225.152458 C311.83267,228.958479 309.509213,232.194125 310.439298,234.577729 C310.439298,234.577729 314.693119,227.48325 318.160755,227.384667 C321.628392,227.286083 319.340033,223.071646 315.53897,218.814958 Z" id="Shape" fill="#D0021B" fill-rule="nonzero"></path>
                <path d="M315.53897,218.814958 C315.707813,219.060166 315.841329,219.328041 315.935572,219.610667 C319.311955,223.589208 321.108948,227.303688 317.862426,227.395229 C314.840529,227.48325 311.214954,232.905333 310.344535,234.274938 C310.373163,234.381047 310.407134,234.485632 310.446318,234.588292 C310.446318,234.588292 314.700139,227.493813 318.167775,227.395229 C321.635411,227.296646 319.340033,223.071646 315.53897,218.814958 Z" id="Shape" fill="#000000" fill-rule="nonzero" opacity="0.1"></path>
                <path d="M319.126395,222.040042 C319.126395,222.930812 319.024508,223.652583 318.90154,223.652583 C318.778573,223.652583 318.680199,222.948417 318.680199,222.040042 C318.680199,221.131667 318.803166,221.56825 318.926134,221.56825 C319.049101,221.56825 319.126395,221.149271 319.126395,222.040042 Z" id="Shape" fill="#FFD037" fill-rule="nonzero"></path>
                <path d="M320.354351,223.103333 C319.575186,223.529354 318.894294,223.786375 318.838138,223.677229 C318.781982,223.568083 319.361091,223.138542 320.140256,222.712521 C320.919422,222.2865 320.614073,222.596333 320.673739,222.712521 C320.733405,222.828708 321.133517,222.677312 320.354351,223.103333 Z" id="Shape" fill="#FFD037" fill-rule="nonzero"></path>
                <path d="M305.357175,218.814958 C305.357175,218.814958 303.426811,221.346438 306.245143,225.152458 C309.063475,228.958479 311.386931,232.194125 310.456847,234.577729 C310.456847,234.577729 306.206535,227.48325 302.735389,227.384667 C299.264243,227.286083 301.549093,223.071646 305.357175,218.814958 Z" id="Shape" fill="#D0021B" fill-rule="nonzero"></path>
                <path d="M305.357175,218.814958 C305.188332,219.060166 305.054816,219.328041 304.960573,219.610667 C301.58419,223.589208 299.787197,227.303688 303.033718,227.395229 C306.055616,227.48325 309.681191,232.905333 310.55161,234.274938 C310.523387,234.381588 310.488214,234.486265 310.446318,234.588292 C310.446318,234.588292 306.196006,227.493813 302.72486,227.395229 C299.253714,227.296646 301.549093,223.071646 305.357175,218.814958 Z" id="Shape" fill="#000000" fill-rule="nonzero" opacity="0.1"></path>
                <path d="M301.770207,222.040042 C301.770207,222.930812 301.872094,223.652583 301.995062,223.652583 C302.118029,223.652583 302.216403,222.948417 302.216403,222.040042 C302.216403,221.131667 302.093436,221.56825 301.970468,221.56825 C301.847501,221.56825 301.770207,221.149271 301.770207,222.040042 Z" id="Shape" fill="#FFD037" fill-rule="nonzero"></path>
                <path d="M300.541794,223.103333 C301.320959,223.529354 301.998341,223.786375 302.058007,223.677229 C302.117673,223.568083 301.535054,223.138542 300.755889,222.712521 C299.976723,222.2865 300.282072,222.596333 300.222406,222.712521 C300.16274,222.828708 299.762628,222.677312 300.541794,223.103333 Z" id="Shape" fill="#FFD037" fill-rule="nonzero"></path>
                <path d="M302.384414,234.257333 C302.384414,234.257333 307.775395,234.088333 309.403921,232.929979 C311.032446,231.771625 317.697468,230.384417 318.10109,232.225812 C318.504711,234.067208 326.2016,241.482083 320.115688,241.531375 C314.029776,241.580667 305.974892,240.58075 304.353386,239.591396 C302.73188,238.602042 302.384414,234.257333 302.384414,234.257333 Z" id="Shape" fill="#A8A8A8" fill-rule="nonzero"></path>
                <path d="M320.220981,240.901146 C314.135068,240.950438 306.080184,239.950521 304.458678,238.961167 C303.223245,238.207708 302.72837,235.500188 302.566921,234.250292 L302.384414,234.250292 C302.384414,234.250292 302.735389,238.612604 304.349876,239.601958 C305.964363,240.591313 314.026266,241.591229 320.112178,241.541938 C321.867055,241.541938 322.474242,240.901146 322.442655,239.975167 C322.196972,240.542021 321.526609,240.890583 320.220981,240.901146 Z" id="Shape" fill="#000000" fill-rule="nonzero" opacity="0.2"></path>
            </g>
        </g>
    </g>
</svg>