<?xml version="1.0" encoding="UTF-8"?>
<svg width="324px" height="190px" viewBox="0 0 324 190" version="1.1" xmlns="http://www.w3.org/2000/svg" xmlns:xlink="http://www.w3.org/1999/xlink">
    <!-- Generator: Sketch 54 (76480) - https://sketchapp.com -->
    <title>Shape</title>
    <desc>Created with Sketch.</desc>
    <g id="v5" stroke="none" stroke-width="1" fill="none" fill-rule="evenodd">
        <g id="card_corrections" transform="translate(-548.000000, -491.000000)" fill="#FCF2F0" fill-rule="nonzero">
            <path d="M788.98538,491 C814.864639,505.269542 833.701969,516.532805 845.497369,524.789788 C850.184284,528.0695 858.727688,535.538861 871.127581,547.197872 L871.25,655.718476 C857.511262,665.379146 846.749068,672.075863 838.963417,675.808628 C836.942371,676.779404 833.876328,678.189764 829.765289,680.039708 L655.803196,679.424104 C625.783106,667.9754 604.114983,658.096497 590.798827,649.787394 C573.955572,639.274297 558.080459,626.202863 551.137376,609.202702 C544.194293,592.202541 548.638028,570.633055 565.837754,560.549726 C572.950972,556.385842 581.457666,554.504593 589.782075,552.736868 C602.039817,550.137988 614.491997,547.575598 625.550701,542.292696 C636.978027,536.835454 650.503672,526.281812 648.23522,514.199656 C647.214733,508.72765 647.000187,501.086166 647.591581,491.275205 L788.98538,491 Z" id="Shape"></path>
        </g>
    </g>
</svg>