<svg xmlns="http://www.w3.org/2000/svg" width="10" height="12" viewBox="0 0 10 12">
    <g fill="#DA9089">
        <path d="M8.56 3.003L8.17.26C8.136.037 7.86-.057 7.7.105l-.571.57C6.395.233 5.563 0 4.706 0 2.132 0 .064 2.015 0 4.588c-.003.14.099.261.238.281l1.106.158c.165.024.319-.105.317-.278-.023-1.698 1.348-3.087 3.045-3.087.411 0 .818.083 1.193.243l-.55.55c-.16.16-.07.437.157.47l2.741.391c.18.028.34-.13.314-.313zM9.214 4.605L8.11 4.447c-.143-.019-.316.104-.316.298 0 1.68-1.367 3.046-3.047 3.046-.408 0-.813-.083-1.187-.241l.532-.532c.161-.161.07-.438-.156-.47l-2.742-.392c-.18-.026-.339.128-.313.313l.392 2.742c.032.225.308.317.47.156l.584-.584c.73.439 1.562.67 2.42.67 2.563 0 4.63-2.006 4.706-4.566.004-.14-.098-.262-.238-.282z" transform="translate(0 1)"/>
    </g>
</svg>
