<svg xmlns="http://www.w3.org/2000/svg" width="182" height="162" viewBox="0 0 182 162">
    <defs>
        <linearGradient id="a" x1="63.31%" x2="42.363%" y1="54.107%" y2="44.104%">
            <stop offset="0%" stop-color="#C5C5C5"/>
            <stop offset="100%" stop-color="#5B5B5A"/>
        </linearGradient>
    </defs>
    <g fill="none" fill-rule="evenodd">
        <g fill="#BFBFBF" fill-rule="nonzero" opacity=".2">
            <path d="M35.832 150.246c-29.298-6.328-57.359-37.002-10.935-83.287C71.32 20.673 83.7 12.9 114.442 15.102c73.59 5.296 92.16 95.942 13.756 109.147-68.02 11.485-61.073 32.737-92.366 25.997z"/>
            <path d="M171.939 105.61c4.126-34.662-23.178-33.493-40.853-79.573C107.29-35.86 4.402 25.693 6.671 93.712c1.032 31.843 18.5 51.72 70.358 63.961 63.686 14.994 91.058-19.67 94.91-52.063z"/>
        </g>
        <path fill="#F58F7B" fill-rule="nonzero" d="M22.627 137.316h149.656s3.507-36.52-12.105-41.953c-10.316-3.576-19.257 5.364-32.737 4.745-13.549-.619-10.11-45.735-31.568-45.735-18.432 0-15.68 33.768-39.408 41.884-25.24 8.597-19.464 27.992-33.838 41.059z"/>
        <path fill="#FFF" fill-rule="nonzero" d="M88.858 137.247H59.216c-3.783 0-7.29-3.301-7.91-7.359l-11.004-73.04c-.619-4.057 1.926-7.358 5.709-7.358h29.642c3.783 0 7.29 3.3 7.91 7.359l11.003 73.04c.55 4.057-1.994 7.358-5.708 7.358z"/>
        <path fill="#F37D6C" fill-rule="nonzero" d="M93.741 137.316H60.729c-2.82 0-5.502-2.476-5.984-5.57L43.26 55.06c-.482-3.094 1.444-5.57 4.264-5.57h33.012c2.82 0 5.502 2.476 5.984 5.57l11.554 76.685c.413 3.026-1.513 5.57-4.333 5.57z"/>
        <path fill="#FBD2CA" fill-rule="nonzero" d="M80.88 51.897h-5.09c-.756 0-1.306.55-1.375 1.375-.069 1.17-.894 1.926-1.994 1.926H57.359c-1.1 0-2.132-.825-2.614-1.926-.275-.756-1.031-1.375-1.788-1.375h-5.09c-1.65 0-2.75 1.444-2.475 3.163l11.554 76.685c.275 1.788 1.788 3.164 3.439 3.164h33.012c1.65 0 2.751-1.445 2.476-3.164L84.25 55.06c-.206-1.719-1.788-3.163-3.37-3.163z"/>
        <path fill="#5D98C1" fill-rule="nonzero" d="M84.25 55.06c-.275-1.788-1.788-3.163-3.439-3.163h-5.09c-.756 0-1.306.55-1.375 1.375-.068 1.17-.894 1.926-1.994 1.926H57.359c-1.1 0-2.132-.825-2.614-1.926-.275-.756-1.031-1.375-1.788-1.375h-5.09c-1.65 0-2.75 1.444-2.475 3.163l.963 6.465h38.927L84.25 55.06z"/>
        <g fill="#061C73" fill-rule="nonzero">
            <path d="M60.316 54.297c.069.925-.137 1.665-.481 1.665s-.62-.74-.688-1.665c-.069-.925.137-1.665.481-1.665s.62.74.688 1.665zM69.6 55.592h-8.046c-.275 0-.481-.555-.55-1.295-.069-.74.137-1.295.344-1.295h8.115c.275 0 .482.555.55 1.295 0 .74-.206 1.295-.412 1.295z"/>
        </g>
        <path stroke="#FFF" stroke-width="1.543" d="M44.567 75.556c-.344 0-.688-.344-.757-.688l-2.27-14.993c-.068-.413.207-.688.55-.688.344 0 .688.344.757.688l2.27 14.993c0 .344-.207.688-.55.688z"/>
        <path stroke="#FFF" stroke-width="1.091" d="M46.148 86.078c-.344 0-.687-.344-.756-.688l-1.032-6.808c-.069-.413.207-.688.55-.688.344 0 .688.344.757.688l1.032 6.808c0 .413-.207.688-.55.688z"/>
        <g stroke="#FFF" stroke-width="1.887">
            <path d="M47.937 58.075h3.3M48.074 58.963h3.301M48.212 59.925h3.3"/>
        </g>
        <path fill="#FFF" fill-rule="nonzero" d="M85.97 40.411c0-4.264 8.94-2.888 12.723-7.771 3.714-4.883 5.502-7.29 9.766-6.053 4.264 1.238 5.915 4.677 9.835 4.196 6.877-.826 8.528 4.539 12.242 5.64 3.783 1.1 7.772.274 7.772 3.782 0 4.54-12.93 3.714-26.135 3.714-13.205.069-26.135.756-26.204-3.508zM94.154 25.28c0-4.607-8.322-3.094-11.76-8.39-3.44-5.296-5.09-7.84-9.08-6.465-3.988 1.376-5.501 5.02-9.146 4.54-6.397-.895-7.91 4.882-11.348 6.052-3.508 1.169-7.222.275-7.222 4.057 0 4.952 12.036 3.99 24.278 3.99 12.242.068 24.209.825 24.278-3.783z"/>
        <path fill="#FFF" fill-rule="nonzero" stroke="#061C73" stroke-width="1.85" d="M9.285 136.972h172.42"/>
        <path fill="url(#a)" fill-rule="nonzero" d="M64.649 126.478l8.253 8.597h24.003l-1.788-8.597z" opacity=".1" transform="translate(0 .178)"/>
        <g fill-rule="nonzero">
            <path fill="#5D98C1" d="M103.232 126.656H65.13c-1.65 0-2.888-1.307-2.888-2.889v-51.1c0-1.65 1.307-2.889 2.888-2.889h38.17c1.651 0 2.89 1.307 2.89 2.889v51.1c0 1.582-1.307 2.889-2.958 2.889z"/>
            <path fill="#FFF" d="M101.238 124.386h-38.17c-1.651 0-2.89-1.307-2.89-2.888v-51.1c0-1.651 1.307-2.89 2.89-2.89h38.17c1.65 0 2.888 1.308 2.888 2.89v51.1c0 1.513-1.307 2.888-2.888 2.888z"/>
            <path fill="#F58F7B" d="M94.085 115.101H70.22c-1.307 0-2.27-1.1-2.27-2.27 0-1.306 1.1-2.269 2.27-2.269h23.865c1.307 0 2.27 1.1 2.27 2.27.137 1.307-.963 2.27-2.27 2.27zM66.3 117.784h31.774v1H66.3zM66.3 121.36h31.774v1H66.3zM96.01 77l1.858-1.857h-6.19v6.19L93.81 79.2c2.476 2.682 4.058 6.258 4.058 10.178 0 8.185-6.672 14.856-14.856 14.856-8.184 0-14.855-6.671-14.855-14.856 0-8.184 6.67-14.855 14.855-14.855v-3.095c-9.904 0-17.95 8.047-17.95 17.95 0 9.904 8.046 17.95 17.95 17.95s17.95-8.046 17.95-17.95c0-4.814-1.925-9.147-4.951-12.38z"/>
            <path fill="#DFEAF3" d="M90.715 90.755v-8.253c0-.62-.688-1.032-1.238-.688-.688.482-1.513.688-2.407.688a4.529 4.529 0 0 1-3.439-1.582c-.344-.413-.963-.413-1.238 0a4.529 4.529 0 0 1-3.439 1.582c-.275 0-.55 0-.825-.069v8.39c0 2.27.688 4.471 2.063 6.26 1.032 1.306 2.132 2.475 3.164 3.37.963-.482 3.645-1.995 5.777-4.815a8.436 8.436 0 0 0 1.582-4.883z"/>
            <path fill="#5D98C1" d="M91.128 82.502c0-.963-1.032-1.582-1.857-1.032a4.267 4.267 0 0 1-2.201.62c-1.17 0-2.339-.551-3.095-1.445-.206-.275-.55-.413-.963-.413-.344 0-.688.138-.963.413a4.133 4.133 0 0 1-3.095 1.444c-.756 0-1.582-.206-2.2-.619-.826-.55-1.857.069-1.857 1.032v8.253c0 1.857.619 3.645 1.65 5.09 2.682 3.507 6.121 5.02 6.259 5.089h.275c.137-.07 3.645-1.582 6.258-5.09 1.1-1.444 1.651-3.232 1.651-5.09v-8.252h.138z"/>
            <path fill="#FFF" d="M81.086 95.844c-1.031-1.375-1.65-3.163-1.65-5.02v-6.74h-.482a6.39 6.39 0 0 1-1.994-.344v6.946c0 1.376.412 2.751 1.238 3.852 1.65 2.2 3.782 3.576 4.814 4.126.138-.069.344-.206.481-.275a14.314 14.314 0 0 1-2.407-2.545z"/>
            <path fill="#DFEAF3" d="M87.826 94.606c.826-1.1 1.238-2.407 1.238-3.851v-6.946a6.39 6.39 0 0 1-1.994.343 5.899 5.899 0 0 1-4.058-1.581 5.63 5.63 0 0 1-3.576 1.513v6.67c0 1.858.55 3.646 1.65 5.022.757 1.031 1.582 1.925 2.407 2.613 1.1-.619 2.889-1.857 4.333-3.783z"/>
            <path fill="#FFF" d="M83.218 90.136V87.66h.963v-1.1h-2.407v2.407h-2.407v2.407h1.375v-1.238z"/>
            <path fill="#F58F7B" d="M84.181 86.147h-2.407a.444.444 0 0 0-.413.413v1.994h-1.994a.444.444 0 0 0-.413.413v2.407c0 .206.207.413.413.413h1.994v1.994c0 .206.207.413.413.413h2.407a.444.444 0 0 0 .413-.413v-1.994h1.994a.444.444 0 0 0 .413-.413v-2.407a.444.444 0 0 0-.413-.413h-1.994V86.56c0-.276-.138-.413-.413-.413z"/>
        </g>
        <g fill-rule="nonzero">
            <path fill="#43437A" d="M113.961 137.66c4.952.069 9.972 0 14.856.344 1.719.137 3.507.137 5.226.412.688.138 3.233.344 3.44.826.137.412-.895.481-1.376.55-6.328.825-12.724.481-19.189.412-5.02-.068-10.04-.137-15.061-.137-3.095 0-6.259.069-9.354-.138-.963-.068-1.857-.068-2.751-.206-.619-.069-1.857-.069-2.338-.344-1.513-.688 2.27-1.307 2.888-1.375 1.788-.207 3.645-.275 5.434-.344 2.888-.138 5.845-.069 8.734-.069 3.164 0 6.327 0 9.491.069z" opacity=".1"/>
            <path fill="#F2B59E" d="M122.902 109.187c-.55-1.926-2.063-2.545-2.063-2.545s-4.746-2.545-9.148 4.746c-2.407 3.989-4.608 7.152-5.433 9.284-1.1 0-2.338.069-3.714.275-1.65.275-3.782.688-5.777 1.238-2.888.757-5.364 1.65-5.227 2.407.138.895 3.439.963 6.328.757 1.444-.069 2.75-.206 3.576-.275 2.338-.206 7.428-.069 8.666-1.444.687-.482 1.513-1.238 2.613-2.339 3.851-4.058 10.798-10.179 10.179-12.104z"/>
            <path fill="#F27066" d="M115.337 104.579s-4.47 7.703-4.47 7.84c0 .138 1.856 3.164 5.639 5.09.206.068 7.084-7.566 7.084-7.566l-3.027-4.952-5.226-.412z"/>
            <path fill="#F2B59E" d="M133.63 90.892c-.618-.55-.893-.412-1.03-.687-.138-.344-.207-.62-.413-.62-.207 0-1.445 1.514-1.445 2.064.069.619.344 1.032.069 1.375-.206.207-2.82 2.339-4.608 3.852-1.238-3.645-4.058-8.803-5.296-8.322-1.788.62-.825 3.92-.825 3.92s1.376 3.026 2.751 5.296c.619 1.1 1.995 3.439 3.576 2.957.55-.137.894-.756 1.238-1.169l1.238-1.444c.757-.963 1.582-1.857 2.27-2.889 1.032-1.444 1.375-1.925 2.063-2.407.688-.481 1.032-1.375.413-1.926zM130.949 118.884c-.963-1.994-2.82-3.507-4.402-5.02-1.17-1.17-2.338-2.408-3.508-3.577-1.719-1.72-3.782-4.195-6.12-5.09-.276-.137-.62-.206-.895-.137-1.925.55-2.544 2.063-2.544 2.063s-2.545 4.746 4.745 9.148c4.058 2.476 7.29 4.676 9.422 5.433-.206 1.17-.412 2.545-.412 4.126 0 1.651.068 3.92.206 5.984.206 2.957.688 5.502 1.513 5.502.894 0 1.444-2.82 1.788-5.502a83.85 83.85 0 0 0 .413-4.195c.206-2.27.756-4.608.481-6.878-.206-.619-.412-1.238-.687-1.857z"/>
            <path fill="#FF8578" d="M114.374 104.785s-3.233 2.2-2.476 5.777c.756 3.577 5.64 6.396 6.396 6.809.619.344 1.994-1.444 2.132-1.926.206-.687-.069-1.444-.344-2.063.275.688 1.995.688 2.407.275.688-.619 1.238-1.444 1.857-2.2l-3.439-6.328-6.533-.344z"/>
            <path fill="#F2B59E" d="M125.447 79.2c0 .138.55 2.133.481 3.44-.069 1.375-.481 2.269-1.307 2.544-.825.275-1.169.138-1.513 1.307-.344 1.1-.412 1.513-.412 1.513l-3.095-1.032.55-.481c.55-.963 1.031-2.682 1.1-2.82-2.063-1.444-.688-2.545-.206-2.682.344-.069.344.481.413.688.275.619.825.137 1.1-.207.275-.275.481-.55.756-.825.207-.275.344-.688.62-.894.275-.207.618-.275.962-.275.275-.07.482-.138.55-.275z"/>
            <path fill="#000" d="M125.447 79.2a3.353 3.353 0 0 1-.482.207c-.413.069-.963.137-1.1.619-.07.206.068.413 0 .688-.07.206-.207.275-.344.412-.275.207-.344.413-.482.688-.137.344-.137.825-.412 1.1-.138.138-.344.138-.55.207-.344.137-.55.344-.62.619-.068.137-.068.275-.137.412-.069.207-.138.482-.344.688-.344.344-.756.138-1.17 0-.412-.137-.687-.412-1.1-.412-.412 0-.825.068-1.169.206-.687.275-1.306.688-2.063.688-.894.068-1.65-.207-2.476-.413a5.055 5.055 0 0 0-2.682.138c-1.788.619-3.92.343-5.708-.344-.276-.138-.55-.207-.826-.482-.412-.412-.481-1.307-.344-1.857.207-.687.688-1.238 1.238-1.65.55-.482 1.1-.688 1.857-.757.826-.069 1.582-.069 2.201-.619.55-.55 1.032-1.031 1.926-1.1.825-.069 1.444.55 2.2.688 1.445.137 1.995-1.651 3.233-2.064 1.582-.481 2.889 1.17 4.402 1.1 1.031-.068 3.782-1.237 4.608-.48.687.618.825 1.375.344 1.719z"/>
            <path fill="#F2B59E" d="M123.246 81.333c-.07.137-.138.619-.344.619-.206 0-.275-.207-.344-.344-.138-.207-.344-.413-.55-.344-.413.069-.482.55-.55.825-.07.344.206.963.481 1.1a.85.85 0 0 0 .963-.275c.275-.343.275-.687.344-1.1M123.452 98.527c-.206 1.65-1.375 8.734-1.375 8.734-.62-.275-7.497-2.476-7.497-2.476s2.682-5.708 2.889-7.84c.137-1.582-.413-2.889-.826-4.815-.069-.481-.137-1.031-.206-1.581v-.55c-.138-3.233 3.301-4.058 3.301-4.058 1.444.137 1.857.412 3.508 2.132 1.65 1.719 2.476 2.957 2.544 4.676-.068 1.651-1.925 1.72-2.338 5.778z"/>
            <path fill="#E0A08C" d="M119.463 89.93l-2.82 2.27c-.069-.482-.137-1.032-.206-1.583l3.026-.687z"/>
            <path fill="#F2B59E" d="M118.019 86.697s3.232-.963 3.92.825c.206.482-.55 1.307-1.788 2.132-2.958 1.995-8.528 4.265-9.766 3.783-1.788-.619.068-2.545 2.338-3.92 2.27-1.376 5.296-2.82 5.296-2.82z"/>
            <path fill="#56548C" d="M125.515 91.374c-.275-.55-.481-1.032-.481-1.032s-2.063.275-2.614-.481c-.137-.275-.343-.55-.481-.825-.206-.413-.481-.826-.688-1.307-.206-.413-.412-.894-.688-1.238-.068-.069-.275-.482-.343-.482l-.482-.068s1.444 1.444 1.444 3.645c0 2.132-4.264 4.057-4.264 4.057s.757 1.514.344 3.852c0 .206-.069.344-.137.55-1.445 4.677-4.815 9.216-4.815 9.216s2.476-.825 4.47-.894c1.927-.069 5.365.894 5.365.894s.207-1.17.413-2.751c0-.138.069-.275.069-.481.344-2.339.825-5.227 1.031-5.915.207-.894.344-1.582.413-1.857.413-1.1 1.72-2.338 1.926-3.095.069-.413-.207-1.17-.482-1.788z"/>
            <path fill="#F2B59E" d="M109.766 92.956s2.888 4.264 3.989 5.64c1.1 1.375 1.444 1.856 1.72 2.613.274.756 1.03 1.307 1.718.894.688-.482.62-.757.963-.825.344 0 .62 0 .688-.207.069-.206-1.032-1.788-1.582-1.925-.55-.138-1.1.068-1.375-.344-.275-.344-3.095-7.29-3.577-7.497-.481-.275-2.613-.894-2.544 1.65z"/>
            <path fill="#E8EDEF" d="M130.605 131.883c-.344 2.75-.894 5.502-1.788 5.502-.826 0-1.238-2.614-1.514-5.502h3.302zM97.799 125.349c-2.889.138-6.121.138-6.328-.757-.137-.825 2.339-1.719 5.227-2.407l1.1 3.164z"/>
            <path fill="#56548C" d="M93.672 125.418s-.481 5.57-1.1 5.777h-.206c-.963-.344-2.614-4.814-2.476-6.19.068-.481.343-.825.756-1.032.894-.481 2.2-.55 2.2-.55l.826 1.995z"/>
            <path fill="#FF8578" d="M92.366 131.195c-.963-.344-2.614-4.814-2.476-6.19.068-.481.343-.825.756-1.032.069 1.17.344 3.646 1.72 7.222z"/>
            <path fill="#56548C" d="M135.075 138.691c0 1.032-5.364.963-6.74.344a1.23 1.23 0 0 1-.619-.687c-.413-1.032.138-2.683.138-2.683l2.2-.068c0 .068 4.952 2.338 5.021 3.094z"/>
            <path fill="#FF8578" d="M135.075 138.691c0 1.032-5.364.963-6.74.344a1.23 1.23 0 0 1-.619-.687c1.444.275 4.883.825 7.36.343z"/>
        </g>
        <g fill-rule="nonzero">
            <path fill="#43437A" d="M140.577 140.892c4.952.069 9.973 0 14.856.344 1.719.138 3.507.138 5.227.413.687.137 3.232.344 3.438.825.138.413-.894.482-1.375.55-6.327.826-12.724.482-19.189.413-5.02-.069-10.04-.138-15.061-.138-3.095 0-6.259.07-9.354-.137-.963-.069-1.857-.069-2.75-.206-.62-.07-1.858-.07-2.34-.344-1.512-.688 2.27-1.307 2.89-1.376 1.788-.206 3.644-.275 5.433-.344 2.888-.137 5.846-.069 8.734-.069 3.095 0 6.259 0 9.491.07z" opacity=".1"/>
            <path fill="#FFC8AF" d="M144.429 103.685s-3.852 4.608 3.37 10.729c6.12 5.158 10.11 9.422 11.967 7.978 1.856-1.376 2.888-2.201-.895-7.29-3.782-5.021-9.215-13.687-11.416-13.412-2.27.275-3.026 1.995-3.026 1.995z"/>
            <path fill="#FFC8AF" d="M158.871 129.407c-.275.756-.619 1.994-1.1 3.232-.757 2.063-1.72 4.402-2.545 5.709-.412.619-.825 1.031-1.238.894-.344-.07-.481-.482-.55-1.17-.137-1.444.138-3.989.62-6.533.343-1.857.756-3.714 1.1-5.158 1.031-4.333 3.232-7.29 3.232-7.29s.55-.826 2.407.343c1.788 1.238-1.031 7.29-1.926 9.973zM150.274 101.69s-5.57-2.27-9.215 6.396c-3.095 7.36-5.915 12.449-4.058 13.824 1.926 1.376 3.026 2.063 6.671-3.026 3.645-5.09 10.248-12.93 9.354-14.924-.895-2.063-2.752-2.27-2.752-2.27z"/>
            <path fill="#FFC8AF" d="M140.577 121.773c.138 2.2-6.465 3.3-9.216 4.195-.894.275-2.27.688-3.714 1.1-3.163.826-6.808 1.582-7.152.62-.344-.895 2.476-2.545 5.708-4.127 1.926-.894 3.92-1.788 5.433-2.339 4.127-1.65 7.772-1.581 7.772-1.581.069 0 1.032 0 1.17 2.132zM155.845 73.08c.344.206.482.687.62 1.1.687 2.27.274 6.052-.482 6.19-.344.069-1.995-.138-2.407.55-.413.688-1.032 3.026-2.064 3.92l-2.957-3.714c.138-.344.275-.687.482-.963.206-.412.619-1.581.619-1.788 0-.068.068-.137.068-.206 0-.138-.137-.344-.137-.413.069-.137.344-.068.412-.137.138-.069.275-.207.413-.344.275-.206.55-.413.825-.688.275-.275.482-.619.688-.894.825-1.17 1.995-2.338 3.439-2.682.206-.069.344 0 .481.069z"/>
            <path fill="#000" d="M156.052 73.217s-.07.069-.138.069c-.275.137-.894.069-1.17.344-.55.481.138 1.307-.618 1.582-.688.275.069 1.994-.55 2.2-.62.207-.413-1.925-1.032-1.856-.55.068-1.375.687-1.032 1.994.276 1.1-1.375 1.032-1.994 1.032h-.069l-.069-.07c-.068-.205-.068-.412-.137-.55-.069-.206-.138-.343-.206-.55-.207-.412-.413-.756-.62-1.169-.412-.825-.55-1.788-.206-2.682.138-.481.413-.894.894-1.1.207-.07.344-.07.413-.207.069-.137.138-.344.206-.481.62-1.1 2.27-1.1 3.37-1.17 1.1-.068 2.407.07 3.37-.412.07.344.207.688.207 1.1.068.688-.07 1.513-.62 1.926z"/>
            <path fill="#56548C" d="M159.353 115.239s-.757 1.444-2.476 3.026c-.619.62-1.238 1.1-1.72 1.444-.55.482-.962.757-.962.757s-5.709-3.783-9.01-7.153c-.275-.275-.481-.481-.688-.756-3.095-3.508-2.27-7.36-2.27-7.36l3.233-2.613s6.052-1.925 6.534 1.307c.619 3.301 7.359 11.348 7.359 11.348z"/>
            <path fill="#43437A" d="M155.158 119.778c-.55.482-.963.757-.963.757s-5.709-3.783-9.01-7.153l4.677-5.09s0 4.265 1.169 6.328c.825 1.513 3.026 3.92 4.127 5.158z"/>
            <path fill="#56548C" d="M144.016 119.778s-5.365-2.613-6.671-4.47c-.138-.138 6.602-13.48 6.74-13.549.137-.069 4.883-.963 4.952-1.032.137 0 1.1 1.445 1.237 1.582.757.963 1.445 1.926 2.201 2.958.344.412.62.894.963 1.306-.481.55-.688 1.238-.963 1.926l-.619 1.65c-.137.344-.206.826-.481 1.101-.55.55-1.307.894-1.926 1.307-.756.619-1.307 1.444-1.857 2.27-.619.825-1.169 1.65-1.788 2.475-.619.826-1.17 1.65-1.788 2.476z"/>
            <path fill="#FFC8AF" d="M144.772 83.533s2.545-3.163 4.265-1.788c1.444 1.17.894 2.407-.138 4.058-2.407 3.989-7.84 9.766-9.56 9.904-2.476.206-1.307-3.026.62-5.984 1.994-2.888 4.813-6.19 4.813-6.19z"/>
            <path fill="#FFC8AF" d="M138.789 96.12c1.65 1.444 5.983 2.75 8.184 3.507 2.132.756 2.82 1.1 3.645 1.72.826.687 1.995.756 2.476-.207.482-.963.138-1.238.482-1.513.344-.275.687-.481.619-.688-.07-.275-2.339-1.307-3.026-1.031-.688.275-1.17.756-1.651.55-.481-.207-8.184-5.846-8.94-5.846-.757 0-4.265 1.307-1.789 3.507z"/>
            <path fill="#F7C341" d="M147.317 81.333s-3.37 1.788-7.428 7.978c0 0 .688 1.1 2.132 2.2 1.307 1.1 2.132 1.307 2.132 1.307l2.339-2.545.825-8.94z"/>
            <path fill="#FBD15B" d="M142.297 105.198c-.276.069 3.094-9.766 2.613-12.449-.481-2.682-1.65-7.496.413-9.766 2.063-2.27 3.989-2.407 5.64-1.925 1.65.55 3.85 2.957 4.126 7.29.275 4.333-1.65 18.156-1.65 18.156s-9.286-1.788-11.142-1.306z"/>
            <path fill="#FFC8AF" d="M148.349 89.173s-1.788-3.645.206-4.608c1.65-.825 2.545.206 3.645 1.857 2.614 3.851 5.502 11.21 4.952 12.861-.825 2.338-3.301-.069-5.158-3.095-1.857-3.095-3.645-7.015-3.645-7.015z"/>
            <path fill="#FFC8AF" d="M157.427 99.764c2.063-1.169 4.952-5.158 6.465-7.015 1.513-1.925 2.132-2.476 3.095-3.095.963-.618 1.513-1.788.688-2.613-.826-.825-1.238-.619-1.376-1.032-.137-.481-.206-.825-.481-.894-.275-.068-2.132 1.926-2.132 2.751 0 .826.412 1.445-.07 1.926-.412.413-8.871 6.259-9.146 7.015-.207.688-.069 4.677 2.957 2.957z"/>
            <path fill="#F7C341" d="M149.862 94.881c-.069-.068-2.682-6.464-3.026-8.253-.344-1.513 1.238-3.645 2.132-4.057 2.27-.963 3.782.825 4.401 1.65.62.826 2.889 7.978 2.889 7.978s-1.376.825-3.164 1.72c-1.65.894-3.232.962-3.232.962z"/>
            <path fill="#FF8578" d="M127.647 127.068c-3.163.826-6.808 1.582-7.152.62-.344-.895 2.476-2.545 5.708-4.127l1.444 3.507zM157.771 132.64c-.757 2.062-1.72 4.4-2.545 5.708l-1.788-.207c-.137-1.444.138-3.989.62-6.533l3.713 1.031z"/>
            <path fill="#FBD15B" d="M153.782 103.753c-.138 1.17 0 3.852 0 3.852s-.481 1.17-2.2.481c-8.391-3.232-9.836-.412-10.661-.825-.275-.138.757-.894 1.307-2.682.481-1.788 2.613-6.671 2.613-6.671l8.941 5.845z"/>
            <g>
                <path fill="#56548C" d="M122.833 128.1s-.206 5.708-.825 6.396l-.069.069c-1.032.413-3.301-5.02-3.232-6.74 0-.413.206-.757.55-1.032.894-.756 2.682-.894 2.682-.894l.894 2.201z"/>
                <path fill="#B1B2F3" d="M122.008 134.496l-.069.069c-1.032.413-3.301-5.02-3.232-6.74 0-.413.206-.757.55-1.032.069.688.344 2.27 1.1 4.058a61.288 61.288 0 0 0 1.65 3.645z"/>
                <path fill="#B1B2F3" d="M120.013 128.581l1.788.688v.894l-1.788-1.1z"/>
            </g>
            <g>
                <path fill="#56548C" d="M155.708 137.316s4.401 3.576 4.539 4.54v.068c-.275 1.1-6.052-.413-7.29-1.444-.344-.276-.482-.62-.482-1.032-.068-1.17.894-2.682.894-2.682l2.339.55z"/>
                <path fill="#B1B2F3" d="M160.247 141.786v.07c-.275 1.1-6.052-.414-7.29-1.445-.344-.275-.482-.62-.482-1.032.62.344 1.995 1.1 3.92 1.582 1.72.413 3.095.688 3.852.825z"/>
                <path fill="#B1B2F3" d="M154.332 139.86l1.65-1.031.689.55-1.926.757z"/>
            </g>
        </g>
    </g>
</svg>
