<?xml version="1.0" encoding="UTF-8"?>
<svg width="126px" height="80px" viewBox="0 0 126 80" version="1.1" xmlns="http://www.w3.org/2000/svg" xmlns:xlink="http://www.w3.org/1999/xlink">
    <!-- Generator: Sketch 54.1 (76490) - https://sketchapp.com -->
    <title>illus</title>
    <desc>Created with Sketch.</desc>
    <defs>
        <path d="M5,0 L126,0 L126,80 L5,80 C2.23857625,80 3.38176876e-16,77.7614237 0,75 L0,5 C-3.38176876e-16,2.23857625 2.23857625,5.07265313e-16 5,0 Z" id="path-1"></path>
        <path d="M4.60117041,0.776280455 L126.137813,0.776280455 L126.137813,81.7762805 L4.60117041,81.7762805 C2.13794714,81.7762805 0.141110138,79.7794435 0.141110138,77.3162202 L0.141110138,5.23634072 C0.141110138,2.77311745 2.13794714,0.776280455 4.60117041,0.776280455 Z" id="path-3"></path>
        <polygon id="path-5" points="0 146.459546 155.723997 146.459546 155.723997 0 0 0"></polygon>
        <polygon id="path-7" points="0 146.459546 155.723997 146.459546 155.723997 0 0 0"></polygon>
        <polygon id="path-9" points="0 146.459546 155.723997 146.459546 155.723997 0 0 0"></polygon>
        <polygon id="path-11" points="0 146.459546 155.723997 146.459546 155.723997 0 0 0"></polygon>
        <polygon id="path-13" points="0 146.459546 155.723997 146.459546 155.723997 0 0 0"></polygon>
        <polygon id="path-15" points="0 146.459546 155.723997 146.459546 155.723997 0 0 0"></polygon>
        <polygon id="path-17" points="0 146.459546 155.723997 146.459546 155.723997 0 0 0"></polygon>
        <polygon id="path-19" points="0 146.459546 155.723997 146.459546 155.723997 0 0 0"></polygon>
        <polygon id="path-21" points="0 146.459546 155.723997 146.459546 155.723997 0 0 0"></polygon>
        <polygon id="path-23" points="0 146.459546 155.723997 146.459546 155.723997 0 0 0"></polygon>
        <polygon id="path-25" points="0 146.459546 155.723997 146.459546 155.723997 0 0 0"></polygon>
        <polygon id="path-27" points="0 146.459546 155.723997 146.459546 155.723997 0 0 0"></polygon>
        <polygon id="path-29" points="0 146.459546 155.723997 146.459546 155.723997 0 0 0"></polygon>
        <polygon id="path-31" points="0 146.459546 155.723997 146.459546 155.723997 0 0 0"></polygon>
        <polygon id="path-33" points="0 146.459546 155.723997 146.459546 155.723997 0 0 0"></polygon>
        <polygon id="path-35" points="0 146.459546 155.723997 146.459546 155.723997 0 0 0"></polygon>
        <polygon id="path-37" points="0 146.459546 155.723997 146.459546 155.723997 0 0 0"></polygon>
        <polygon id="path-39" points="0 146.459546 155.723997 146.459546 155.723997 0 0 0"></polygon>
        <polygon id="path-41" points="0 146.459546 155.723997 146.459546 155.723997 0 0 0"></polygon>
        <polygon id="path-43" points="0 146.459546 155.723997 146.459546 155.723997 0 0 0"></polygon>
        <polygon id="path-45" points="0 146.459546 155.723997 146.459546 155.723997 0 0 0"></polygon>
        <polygon id="path-47" points="0 146.459546 155.723997 146.459546 155.723997 0 0 0"></polygon>
        <polygon id="path-49" points="0 146.459546 155.723997 146.459546 155.723997 0 0 0"></polygon>
        <polygon id="path-51" points="0 146.459546 155.723997 146.459546 155.723997 0 0 0"></polygon>
        <polygon id="path-53" points="0 146.459546 155.723997 146.459546 155.723997 0 0 0"></polygon>
        <polygon id="path-55" points="0 146.459546 155.723997 146.459546 155.723997 0 0 0"></polygon>
        <polygon id="path-57" points="0 146.459546 155.723997 146.459546 155.723997 0 0 0"></polygon>
        <polygon id="path-59" points="0 146.459546 155.723997 146.459546 155.723997 0 0 0"></polygon>
        <polygon id="path-61" points="0 146.459546 155.723997 146.459546 155.723997 0 0 0"></polygon>
        <polygon id="path-63" points="0 146.459546 155.723997 146.459546 155.723997 0 0 0"></polygon>
        <polygon id="path-65" points="0 146.459546 155.723997 146.459546 155.723997 0 0 0"></polygon>
        <polygon id="path-67" points="0 146.459546 155.723997 146.459546 155.723997 0 0 0"></polygon>
        <polygon id="path-69" points="0 146.459546 155.723997 146.459546 155.723997 0 0 0"></polygon>
        <polygon id="path-71" points="0 146.459546 155.723997 146.459546 155.723997 0 0 0"></polygon>
        <polygon id="path-73" points="0 146.459546 155.723997 146.459546 155.723997 0 0 0"></polygon>
        <polygon id="path-75" points="0 146.459546 155.723997 146.459546 155.723997 0 0 0"></polygon>
        <polygon id="path-77" points="0 146.459546 155.723997 146.459546 155.723997 0 0 0"></polygon>
        <polygon id="path-79" points="0 146.459546 155.723997 146.459546 155.723997 0 0 0"></polygon>
    </defs>
    <g id="Page-1" stroke="none" stroke-width="1" fill="none" fill-rule="evenodd">
        <g id="illus">
            <mask id="mask-2" fill="white">
                <use xlink:href="#path-1"></use>
            </mask>
            <use id="Mask" fill="#D8D8D8" opacity="0" xlink:href="#path-1"></use>
            <g mask="url(#mask-2)">
                <g transform="translate(0.000000, -1.000000)">
                    <path d="M4.60117041,0.776280455 L126.137813,0.776280455 L126.137813,81.7762805 L4.60117041,81.7762805 C2.13794714,81.7762805 0.141110138,79.7794435 0.141110138,77.3162202 L0.141110138,5.23634072 C0.141110138,2.77311745 2.13794714,0.776280455 4.60117041,0.776280455 Z" id="path-1" stroke="none" fill="#DE8D87" fill-rule="evenodd"></path>
                    <mask id="mask-4" fill="white">
                        <use xlink:href="#path-3"></use>
                    </mask>
                    <g id="path-1" stroke="none" fill="none"></g>
                    <g id="Group" opacity="0.0700334821" stroke="none" stroke-width="1" fill="none" fill-rule="evenodd" mask="url(#mask-4)">
                        <g transform="translate(-8.000000, -28.380544)">
                            <path d="M54.6512265,29.788098 C54.4936352,29.788098 54.3357867,29.7316196 54.211616,29.6174022 L50.2905992,26.0108551 C50.0317175,25.772587 50.0186063,25.3737086 50.2615489,25.119808 C50.5044915,24.8661597 50.9109384,24.8533008 51.1700772,25.0913167 L55.0910941,28.6981159 C55.3499758,28.9361319 55.363087,29.3350104 55.1201443,29.5889109 C54.9936599,29.7212821 54.8227003,29.788098 54.6512265,29.788098 Z" id="Fill-1" fill="#000000"></path>
                            <path d="M50.761695,29.788098 C50.5963828,29.788098 50.4305312,29.7342617 50.3005468,29.6253873 C50.0289817,29.3985057 50.0152281,29.0182868 50.2700732,28.7762637 L54.1283468,25.1105876 C54.3834616,24.8685645 54.8098214,24.8565475 55.0813865,25.0834291 C55.3526819,25.3103107 55.3664355,25.6905297 55.1115904,25.9325527 L51.2535865,29.5982288 C51.1209052,29.7244077 50.9415698,29.788098 50.761695,29.788098" id="Fill-3" fill="#000000"></path>
                            <path d="M59.3844787,86.867498 C59.2268873,86.867498 59.0690389,86.8110208 58.9448682,86.6968057 L55.0238514,83.0903315 C54.7649696,82.8520682 54.7518585,82.4531978 54.9948011,82.1993024 C55.2377437,81.9456592 55.6444477,81.9325484 55.9033294,82.1708117 L59.8243462,85.777538 C60.083228,86.0155492 60.0963392,86.4144196 59.8533965,86.668315 C59.7269121,86.8004313 59.5559525,86.867498 59.3844787,86.867498" id="Fill-5" fill="#000000"></path>
                            <path d="M55.4949472,85.9825461 C55.329635,85.9825461 55.1637834,85.9287138 55.0337989,85.8198475 C54.7622339,85.5929827 54.7484803,85.2127918 55.0033254,84.9707866 L58.861599,81.3053815 C59.1164441,81.0628957 59.5430736,81.0508796 59.8146387,81.278225 C60.0859341,81.5050899 60.0996876,81.8852807 59.8448426,82.1272859 L55.9868386,85.792691 C55.8541574,85.9188605 55.674822,85.9825461 55.4949472,85.9825461" id="Fill-7" fill="#000000"></path>
                            <path d="M105.296924,50.1419926 C105.139587,50.1419926 104.981479,50.0855154 104.857564,49.9713002 L100.936493,46.364826 C100.67735,46.1265628 100.664496,45.7276924 100.907442,45.473797 C101.150131,45.2201537 101.556583,45.2070429 101.815726,45.4453062 L105.736797,49.0520326 C105.99594,49.2900437 106.008794,49.6889141 105.765848,49.9428095 C105.639362,50.075178 105.4684,50.1419926 105.296924,50.1419926" id="Fill-22" fill="#000000"></path>
                            <path d="M101.407325,50.1419926 C101.242282,50.1419926 101.076429,50.0881574 100.946443,49.9792853 C100.674607,49.7524084 100.661123,49.3721974 100.91597,49.1301794 L104.774002,45.4645796 C105.028849,45.2228019 105.455212,45.2100641 105.727048,45.4374216 C105.998616,45.6642985 106.012099,46.0445096 105.757522,46.2865276 L101.89922,49.9521274 C101.766538,50.0783036 101.587201,50.1419926 101.407325,50.1419926" id="Fill-24" fill="#000000"></path>
                            <path d="M126.123233,93.5046376 C125.965897,93.5046376 125.807789,93.4481626 125.683874,93.3339522 L121.762802,89.7276238 C121.50366,89.4893701 121.490805,89.0905158 121.733752,88.8366307 C121.976183,88.5829977 122.382893,88.5693832 122.642035,88.8081411 L126.563107,92.4147216 C126.822249,92.6527232 126.835104,93.0515774 126.592158,93.3054626 C126.465671,93.4375736 126.294709,93.5046376 126.123233,93.5046376" id="Fill-26" fill="#000000"></path>
                            <path d="M122.233635,93.5046376 C122.068591,93.5046376 121.902738,93.4508043 121.772753,93.3419361 C121.500916,93.1150672 121.487432,92.7348696 121.742279,92.4928602 L125.600311,88.8273902 C125.855158,88.5851404 126.281521,88.5728837 126.553358,88.8002332 C126.824925,89.0271021 126.838409,89.4072996 126.583832,89.6493091 L122.72553,93.3147791 C122.592848,93.4409509 122.413511,93.5046376 122.233635,93.5046376" id="Fill-28" fill="#000000"></path>
                            <path d="M82.9772126,32.237329 L78.4525509,39.9537447 L87.5138514,39.947859 L85.2458042,36.0932628 L82.9772126,32.237329 Z M77.2741572,41.2924732 C77.0313466,41.2924732 76.806774,41.1651281 76.6850965,40.9583261 C76.5634189,40.7515242 76.5634189,40.4965665 76.684552,40.289497 L82.3865186,30.5655236 C82.5076517,30.3584541 82.7324965,30.2308415 82.9755793,30.230574 L82.9761237,30.230574 C83.2192066,30.230574 83.4437792,30.357919 83.5651845,30.564721 L89.2821225,40.281471 C89.4038,40.488273 89.4040722,40.7432307 89.2826669,40.9503002 C89.1612616,41.1573697 88.936689,41.2849823 88.693334,41.2849823 L77.2747016,41.2924732 L77.2741572,41.2924732 Z" id="Fill-34" fill="#000000"></path>
                            <path d="M73.0372982,88.874253 L68.5127691,96.5906688 L77.5738041,96.5847831 L75.3058234,92.7301869 L75.3058234,92.7299194 L73.0372982,88.874253 Z M67.3344099,97.9293973 C67.0913342,97.9293973 66.8670404,97.8020522 66.7453664,97.5955178 C66.6236925,97.3884482 66.6234203,97.1334906 66.744822,96.9264211 L72.4466215,87.2024477 C72.5680232,86.9953782 72.7925893,86.8677656 73.035665,86.867498 L73.0362094,86.867498 C73.2792851,86.867498 73.5035789,86.9948431 73.6252529,87.2016451 L76.4839103,92.0605552 L76.4839103,92.0602876 L79.3422956,96.9181276 C79.4639696,97.1251971 79.4642418,97.3801548 79.34284,97.5872243 C79.2211661,97.7942938 78.9966,97.9219064 78.7535243,97.9219064 L67.3349543,97.9293973 L67.3344099,97.9293973 Z" id="Fill-36" fill="#000000"></path>
                            <path d="M106.170199,106.573292 L101.645574,114.289708 L110.706802,114.283822 L108.438773,110.428958 L106.170199,106.573292 Z M100.46719,115.628436 C100.224109,115.628436 99.9998102,115.501091 99.8781336,115.294557 C99.7564571,115.087487 99.7561849,114.832529 99.8775892,114.62546 L105.57951,104.901486 C105.700642,104.694417 105.925485,104.566804 106.168566,104.566537 L106.169111,104.566537 C106.412191,104.566537 106.636762,104.693882 106.758167,104.900684 L112.475059,114.617434 C112.596735,114.824236 112.597008,115.079194 112.475603,115.286263 C112.354199,115.493333 112.129628,115.620945 111.886275,115.620945 L100.467734,115.628436 L100.46719,115.628436 Z" id="Fill-38" fill="#000000"></path>
                            <path d="M120.304855,72.1350495 L126.918612,78.3071519 L128.124891,74.0879044 L128.124891,74.087642 L129.331732,69.8678697 L120.304855,72.1350495 Z M127.282798,80.2303585 C127.09888,80.2303585 126.920016,80.1629282 126.78664,80.0385626 L118.452195,72.2604646 C118.275015,72.0949062 118.205379,71.8535215 118.270242,71.6268297 C118.334824,71.4006627 118.524077,71.2235598 118.7664,71.1626889 L130.141815,68.3059531 C130.384138,68.2453446 130.642466,68.309364 130.820206,68.4751848 C130.997666,68.6407433 131.067022,68.8823904 131.00244,69.1085574 L127.960909,79.7439158 C127.896046,79.9700828 127.706793,80.1471857 127.464751,80.2077943 C127.404662,80.223012 127.343168,80.2303585 127.282798,80.2303585 L127.282798,80.2303585 Z" id="Fill-40" fill="#000000"></path>
                            <path d="M25.4867354,66.4814177 L25.4930314,74.9518785 L29.6163684,72.831528 L29.6163684,72.831528 L33.7408501,70.7109229 L25.4867354,66.4814177 Z M24.7781441,76.6905507 C24.6547989,76.6905507 24.5314537,76.6623065 24.4209867,76.6055637 C24.1994804,76.492078 24.0629707,76.2821549 24.0626845,76.0546746 L24.0546714,65.3804028 C24.0543852,65.153177 24.1906087,64.9429994 24.412115,64.8292592 C24.6330489,64.7152646 24.9060683,64.7152646 25.1275746,64.8287503 L35.5294992,70.1587616 C35.7510055,70.2722473 35.8875152,70.4821704 35.8878014,70.7093962 C35.8878014,70.9366221 35.751864,71.1467996 35.5303577,71.2605398 L30.3326866,73.9327973 L30.3329728,73.9327973 L25.1364463,76.6050548 C25.0256932,76.6620521 24.9020618,76.6905507 24.7781441,76.6905507 L24.7781441,76.6905507 Z" id="Fill-48" fill="#000000"></path>
                            <path d="M91.5037844,61.1380719 C89.5075052,61.1380719 87.8831666,62.656291 87.8831666,64.5224616 C87.8831666,66.3886322 89.5075052,67.9068512 91.5037844,67.9068512 C93.5000637,67.9068512 95.1238625,66.3886322 95.1238625,64.5224616 C95.1238625,62.656291 93.5000637,61.1380719 91.5037844,61.1380719 M91.5037844,69.1684593 C88.763354,69.1684593 86.5335997,67.0842828 86.5335997,64.5224616 C86.5335997,61.9606403 88.763354,59.8764639 91.5037844,59.8764639 C94.2439449,59.8764639 96.4734293,61.9606403 96.4734293,64.5224616 C96.4734293,67.0842828 94.2439449,69.1684593 91.5037844,69.1684593" id="Fill-50" fill="#000000"></path>
                            <path d="M61.2459233,70.4958872 C60.8731831,70.4958872 60.5711582,70.2354541 60.5711582,69.9140439 C60.5711582,68.1927186 58.9471336,66.7923381 56.9509085,66.7923381 C54.9544136,66.7923381 53.330389,68.1927186 53.330389,69.9140439 C53.330389,70.2354541 53.0283641,70.4958872 52.6556239,70.4958872 C52.2828837,70.4958872 51.9808588,70.2354541 51.9808588,69.9140439 C51.9808588,67.5510618 54.2105526,65.6286515 56.9509085,65.6286515 C59.6912645,65.6286515 61.9206884,67.5510618 61.9206884,69.9140439 C61.9206884,70.2354541 61.6186635,70.4958872 61.2459233,70.4958872" id="Fill-58" fill="#000000"></path>
                            <path d="M15.8040535,37.7526654 C15.4298501,37.7526654 15.1266396,37.4922324 15.1266396,37.1708221 C15.1266396,35.4494969 13.5049108,34.0491164 11.5116881,34.0491164 C9.51846546,34.0491164 7.89646563,35.4494969 7.89646563,37.1708221 C7.89646563,37.4922324 7.59325517,37.7526654 7.21905173,37.7526654 C6.84511926,37.7526654 6.54163784,37.4922324 6.54163784,37.1708221 C6.54163784,34.8078401 8.77114245,32.8854298 11.5116881,32.8854298 C14.2519628,32.8854298 16.4814674,34.8078401 16.4814674,37.1708221 C16.4814674,37.4922324 16.178257,37.7526654 15.8040535,37.7526654" id="Fill-60" fill="#000000"></path>
                            <path d="M116.204034,44.389805 C113.676427,44.389805 111.619836,42.3056096 111.619836,39.7436806 C111.619836,37.182005 113.676427,35.0978096 116.204034,35.0978096 C116.547837,35.0978096 116.826414,35.3815115 116.826414,35.7310727 C116.826414,36.0808872 116.547837,36.3643357 116.204034,36.3643357 C114.362787,36.3643357 112.864595,37.8803674 112.864595,39.7436806 C112.864595,41.6072471 114.362787,43.1232789 116.204034,43.1232789 C116.547837,43.1232789 116.826414,43.4067274 116.826414,43.7565419 C116.826414,44.1063564 116.547837,44.389805 116.204034,44.389805" id="Fill-62" fill="#000000"></path>
                            <path d="M10.0917119,93.4388177 C8.09548689,93.4388177 6.47119236,94.9570368 6.47119236,96.822955 C6.47119236,98.6893779 8.09548689,100.207597 10.0917119,100.207597 C12.087937,100.207597 13.7119616,98.6893779 13.7119616,96.822955 C13.7119616,94.9570368 12.087937,93.4388177 10.0917119,93.4388177 M10.0917119,101.469205 C7.35135595,101.469205 5.12166218,99.3847763 5.12166218,96.822955 C5.12166218,94.2613861 7.35135595,92.1772097 10.0917119,92.1772097 C12.8320679,92.1772097 15.0614918,94.2613861 15.0614918,96.822955 C15.0614918,99.3847763 12.8320679,101.469205 10.0917119,101.469205" id="Fill-68" fill="#000000"></path>
                            <g id="Fill-72-Clipped" stroke-width="1" fill="none" transform="translate(0.388410, 0.584684)">
                                <mask id="mask-6" fill="white">
                                    <use xlink:href="#path-5"></use>
                                </mask>
                                <g id="path-4"></g>
                            </g>
                            <g id="Fill-74-Clipped" stroke-width="1" fill="none" transform="translate(0.388410, 0.584684)">
                                <mask id="mask-8" fill="white">
                                    <use xlink:href="#path-7"></use>
                                </mask>
                                <g id="path-4"></g>
                                <path d="M38.2752667,46.9623525 L45.5030257,46.9623525 L45.5030257,40.2054135 L38.2752667,40.2054135 L38.2752667,46.9623525 Z M46.1812468,48.2298807 L37.5973169,48.2298807 C37.2228174,48.2298807 36.919367,47.9462079 36.919367,47.5961166 L36.919367,39.5716494 C36.919367,39.2215581 37.2228174,38.9378853 37.5973169,38.9378853 L46.1812468,38.9378853 C46.5557463,38.9378853 46.8591966,39.2215581 46.8591966,39.5716494 L46.8591966,47.5961166 C46.8591966,47.9462079 46.5557463,48.2298807 46.1812468,48.2298807 L46.1812468,48.2298807 Z" id="Fill-74" fill="#000000" mask="url(#mask-8)"></path>
                            </g>
                            <g id="Fill-75-Clipped" stroke-width="1" fill="none" transform="translate(0.388410, 0.584684)">
                                <mask id="mask-10" fill="white">
                                    <use xlink:href="#path-9"></use>
                                </mask>
                                <g id="path-4"></g>
                                <path d="M38.2752667,98.7320409 L45.5030257,98.7320409 L45.5030257,91.9751019 L38.2752667,91.9751019 L38.2752667,98.7320409 Z M46.1812468,99.9995691 L37.5973169,99.9995691 C37.2230886,99.9995691 36.919367,99.7158963 36.919367,99.365805 L36.919367,91.3413378 C36.919367,90.9912465 37.2230886,90.7075737 37.5973169,90.7075737 L46.1812468,90.7075737 C46.5557463,90.7075737 46.8591966,90.9912465 46.8591966,91.3413378 L46.8591966,99.365805 C46.8591966,99.7158963 46.5557463,99.9995691 46.1812468,99.9995691 L46.1812468,99.9995691 Z" id="Fill-75" fill="#000000" mask="url(#mask-10)"></path>
                            </g>
                            <g id="Fill-78-Clipped" stroke-width="1" fill="none" transform="translate(0.388410, 0.584684)">
                                <mask id="mask-12" fill="white">
                                    <use xlink:href="#path-11"></use>
                                </mask>
                                <g id="path-4"></g>
                                <path d="M87.8455701,84.0704342 C86.5834341,84.0704342 86.0344476,83.0920838 85.5936594,82.3058131 C85.1142289,81.4515837 84.7795071,80.9279162 83.9714842,80.9279162 C83.60345,80.9279162 83.3052384,80.6409505 83.3052384,80.2867954 C83.3052384,79.9326402 83.60345,79.6456745 83.9714842,79.6456745 C85.6155122,79.6456745 86.2804255,80.8312352 86.7659854,81.6967483 C87.2011772,82.4725046 87.4205053,82.7881925 87.8455701,82.7881925 C88.2136042,82.7881925 88.5118158,83.0751582 88.5118158,83.4293133 C88.5118158,83.7834685 88.2136042,84.0704342 87.8455701,84.0704342" id="Fill-78" fill="#000000" mask="url(#mask-12)"></path>
                            </g>
                            <g id="Fill-79-Clipped" stroke-width="1" fill="none" transform="translate(0.388410, 0.584684)">
                                <mask id="mask-14" fill="white">
                                    <use xlink:href="#path-13"></use>
                                </mask>
                                <g id="path-4"></g>
                                <path d="M95.8920306,84.0704342 C94.6297654,84.0704342 94.0807227,83.0920838 93.6398893,82.3058131 C93.1460174,81.4256824 92.8275193,80.9279162 92.0180811,80.9279162 C91.6500093,80.9279162 91.3517671,80.6409505 91.3517671,80.2867954 C91.3517671,79.9326402 91.6500093,79.6456745 92.0180811,79.6456745 C93.6620109,79.6456745 94.3269923,80.8312352 94.8123354,81.6967483 C95.2475717,82.4725046 95.4669222,82.7881925 95.8920306,82.7881925 C96.2601024,82.7881925 96.5583445,83.0751582 96.5583445,83.4293133 C96.5583445,83.7834685 96.2601024,84.0704342 95.8920306,84.0704342" id="Fill-79" fill="#000000" mask="url(#mask-14)"></path>
                            </g>
                            <g id="Fill-80-Clipped" stroke-width="1" fill="none" transform="translate(0.388410, 0.584684)">
                                <mask id="mask-16" fill="white">
                                    <use xlink:href="#path-15"></use>
                                </mask>
                                <g id="path-4"></g>
                                <path d="M87.7580859,84.0704342 C87.3900518,84.0704342 87.0918402,83.7834685 87.0918402,83.4293133 C87.0918402,83.0751582 87.3900518,82.7881925 87.7580859,82.7881925 C88.1831507,82.7881925 88.4024788,82.4725046 88.8376706,81.6967483 C89.3232305,80.8312352 89.9881438,79.6456745 91.6321718,79.6456745 C92.000206,79.6456745 92.2984176,79.9326402 92.2984176,80.2867954 C92.2984176,80.6409505 92.000206,80.9279162 91.6321718,80.9279162 C90.8241489,80.9279162 90.4894271,81.4515837 90.0099966,82.3058131 C89.5692084,83.0920838 89.0202219,84.0704342 87.7580859,84.0704342" id="Fill-80" fill="#000000" mask="url(#mask-16)"></path>
                            </g>
                            <g id="Fill-81-Clipped" stroke-width="1" fill="none" transform="translate(0.388410, 0.584684)">
                                <mask id="mask-18" fill="white">
                                    <use xlink:href="#path-17"></use>
                                </mask>
                                <g id="path-4"></g>
                                <path d="M95.8046829,84.0704342 C95.436611,84.0704342 95.1383689,83.7834685 95.1383689,83.4293133 C95.1383689,83.0751582 95.436611,82.7881925 95.8046829,82.7881925 C96.2295246,82.7881925 96.4488752,82.4725046 96.8841115,81.6967483 C97.3694546,80.8312352 98.0347025,79.6456745 99.6786323,79.6456745 C100.046704,79.6456745 100.344946,79.9326402 100.344946,80.2867954 C100.344946,80.6409505 100.046704,80.9279162 99.6786323,80.9279162 C98.8707932,80.9279162 98.5360371,81.4515837 98.0565576,82.3058131 C97.6157242,83.0920838 97.0666815,84.0704342 95.8046829,84.0704342" id="Fill-81" fill="#000000" mask="url(#mask-18)"></path>
                            </g>
                            <g id="Fill-86-Clipped" stroke-width="1" fill="none" transform="translate(0.388410, 0.584684)">
                                <mask id="mask-20" fill="white">
                                    <use xlink:href="#path-19"></use>
                                </mask>
                                <g id="path-4"></g>
                                <path d="M121.451592,58.406828 C120.189327,58.406828 119.640284,57.4282778 119.199451,56.6420528 C118.705579,55.7622295 118.387081,55.2642357 117.577643,55.2642357 C117.209571,55.2642357 116.911329,54.9772866 116.911329,54.623152 C116.911329,54.2690173 117.209571,53.9820683 117.577643,53.9820683 C119.221573,53.9820683 119.886554,55.1675602 120.371897,56.0332797 C120.807133,56.8087345 121.026484,57.1246606 121.451592,57.1246606 C121.819664,57.1246606 122.117906,57.4116096 122.117906,57.7657443 C122.117906,58.1198789 121.819664,58.406828 121.451592,58.406828" id="Fill-86" fill="#000000" mask="url(#mask-20)"></path>
                            </g>
                            <g id="Fill-87-Clipped" stroke-width="1" fill="none" transform="translate(0.388410, 0.584684)">
                                <mask id="mask-22" fill="white">
                                    <use xlink:href="#path-21"></use>
                                </mask>
                                <g id="path-4"></g>
                                <path d="M129.498121,58.406828 C128.235856,58.406828 127.686813,57.4284775 127.24598,56.6422069 C126.752108,55.7620762 126.43361,55.26431 125.624172,55.26431 C125.2561,55.26431 124.957858,54.9773443 124.957858,54.6231891 C124.957858,54.269034 125.2561,53.9820683 125.624172,53.9820683 C127.268101,53.9820683 127.933083,55.167629 128.418426,56.0331421 C128.853662,56.8086419 129.073013,57.1245863 129.498121,57.1245863 C129.866193,57.1245863 130.164435,57.4115519 130.164435,57.7657071 C130.164435,58.1198623 129.866193,58.406828 129.498121,58.406828" id="Fill-87" fill="#000000" mask="url(#mask-22)"></path>
                            </g>
                            <g id="Fill-88-Clipped" stroke-width="1" fill="none" transform="translate(0.388410, 0.584684)">
                                <mask id="mask-24" fill="white">
                                    <use xlink:href="#path-23"></use>
                                </mask>
                                <g id="path-4"></g>
                                <path d="M120.890851,58.406828 C120.522817,58.406828 120.224605,58.1198623 120.224605,57.7657071 C120.224605,57.4115519 120.522817,57.1245863 120.890851,57.1245863 C121.315916,57.1245863 121.535511,56.8086419 121.970702,56.0331421 C122.456262,55.167629 123.121176,53.9820683 124.764937,53.9820683 C125.132971,53.9820683 125.431183,54.269034 125.431183,54.6231891 C125.431183,54.9773443 125.132971,55.26431 124.764937,55.26431 C123.957181,55.26431 123.622459,55.7879775 123.143028,56.6422069 C122.701974,57.4284775 122.152987,58.406828 120.890851,58.406828" id="Fill-88" fill="#000000" mask="url(#mask-24)"></path>
                            </g>
                            <g id="Fill-89-Clipped" stroke-width="1" fill="none" transform="translate(0.388410, 0.584684)">
                                <mask id="mask-26" fill="white">
                                    <use xlink:href="#path-25"></use>
                                </mask>
                                <g id="path-4"></g>
                                <path d="M129.410705,58.406828 C129.042937,58.406828 128.744459,58.1198623 128.744459,57.7657071 C128.744459,57.4118084 129.042671,57.1245863 129.410705,57.1245863 C129.83577,57.1245863 130.055098,56.8086419 130.49029,56.0331421 C130.975583,55.167629 131.640763,53.9820683 133.284525,53.9820683 L133.284791,53.9820683 C133.652825,53.9820683 133.951037,54.2692904 133.951037,54.6234456 C133.951037,54.9773443 133.652825,55.26431 133.284791,55.26431 L133.284525,55.26431 C132.474903,55.26431 132.156437,55.7620762 131.662616,56.6422069 C131.221828,57.4284775 130.672841,58.406828 129.410705,58.406828" id="Fill-89" fill="#000000" mask="url(#mask-26)"></path>
                            </g>
                            <g id="Fill-90-Clipped" stroke-width="1" fill="none" transform="translate(0.388410, 0.584684)">
                                <mask id="mask-28" fill="white">
                                    <use xlink:href="#path-27"></use>
                                </mask>
                                <g id="path-4"></g>
                                <path d="M9.74687493,54.4245442 C8.48467435,54.4245442 7.93565974,53.4462505 7.49458247,52.6600255 C7.00100234,51.7799458 6.68225405,51.2819519 5.87285727,51.2819519 C5.50480427,51.2819519 5.2065774,50.9950029 5.2065774,50.6408682 C5.2065774,50.2867336 5.50480427,49.9997845 5.87285727,49.9997845 C7.51670296,49.9997845 8.18165027,51.1852765 8.66750155,52.0509959 C9.10244905,52.8264508 9.32178838,53.1423768 9.74687493,53.1423768 C10.1149279,53.1423768 10.4131548,53.4293259 10.4131548,53.7834605 C10.4131548,54.1375952 10.1149279,54.4245442 9.74687493,54.4245442" id="Fill-90" fill="#000000" mask="url(#mask-28)"></path>
                            </g>
                            <g id="Fill-91-Clipped" stroke-width="1" fill="none" transform="translate(0.388410, 0.584684)">
                                <mask id="mask-30" fill="white">
                                    <use xlink:href="#path-29"></use>
                                </mask>
                                <g id="path-4"></g>
                                <path d="M18.2666948,54.4245442 C17.0044296,54.4245442 16.4553868,53.4461938 16.014287,52.6599232 C15.5206816,51.7797925 15.2021835,51.2820263 14.3927453,51.2820263 C14.0246735,51.2820263 13.7264313,50.9950606 13.7264313,50.6409054 C13.7264313,50.2867502 14.0246735,49.9997845 14.3927453,49.9997845 C16.0366751,49.9997845 16.7016565,51.1853452 17.1872661,52.0508584 C17.6222359,52.8263582 17.8415864,53.1423025 18.2666948,53.1423025 C18.6347666,53.1423025 18.9330087,53.4292682 18.9330087,53.7834234 C18.9330087,54.1375785 18.6347666,54.4245442 18.2666948,54.4245442" id="Fill-91" fill="#000000" mask="url(#mask-30)"></path>
                            </g>
                            <g id="Fill-92-Clipped" stroke-width="1" fill="none" transform="translate(0.388410, 0.584684)">
                                <mask id="mask-32" fill="white">
                                    <use xlink:href="#path-31"></use>
                                </mask>
                                <g id="path-4"></g>
                                <path d="M10.6060753,54.4245442 C10.2380412,54.4245442 9.93982958,54.1375785 9.93982958,53.7834234 C9.93982958,53.4292682 10.2380412,53.1423025 10.6060753,53.1423025 C11.0311401,53.1423025 11.2504683,52.8263582 11.68566,52.0508584 C12.1712199,51.1853452 12.8363997,49.9997845 14.4801612,49.9997845 C14.8481954,49.9997845 15.146407,50.2867502 15.146407,50.6409054 C15.146407,50.9950606 14.8481954,51.2820263 14.4801612,51.2820263 C13.6721384,51.2820263 13.3374165,51.8056938 12.8582525,52.6599232 C12.4171978,53.4461938 11.8682113,54.4245442 10.6060753,54.4245442" id="Fill-92" fill="#000000" mask="url(#mask-32)"></path>
                            </g>
                            <g id="Fill-93-Clipped" stroke-width="1" fill="none" transform="translate(0.388410, 0.584684)">
                                <mask id="mask-34" fill="white">
                                    <use xlink:href="#path-33"></use>
                                </mask>
                                <g id="path-4"></g>
                                <path d="M18.6526382,54.4245442 C18.2845852,54.4245442 17.9863583,54.1375785 17.9863583,53.7834234 C17.9863583,53.4295247 18.2845852,53.1423025 18.6523717,53.1423025 C19.0774582,53.1423025 19.2967975,52.8263582 19.731745,52.0508584 C20.2173298,51.1853452 20.8825436,49.9997845 22.5263893,49.9997845 L22.5266558,49.9997845 C22.8947088,49.9997845 23.1929357,50.2870067 23.1929357,50.6411618 C23.1929357,50.9950606 22.8944423,51.2820263 22.5266558,51.2820263 L22.5263893,51.2820263 L22.5263893,51.2820263 C21.716726,51.2820263 21.3982442,51.7797925 20.9043976,52.6599232 C20.4633203,53.4461938 19.9145722,54.4245442 18.6526382,54.4245442" id="Fill-93" fill="#000000" mask="url(#mask-34)"></path>
                            </g>
                            <g id="Fill-98-Clipped" stroke-width="1" fill="none" transform="translate(0.388410, 0.584684)">
                                <mask id="mask-36" fill="white">
                                    <use xlink:href="#path-35"></use>
                                </mask>
                                <g id="path-4"></g>
                                <path d="M60.3247971,54.8670202 C59.9459503,54.8670202 59.6389775,54.5882305 59.6389775,54.2441655 C59.6389775,52.7074584 60.907195,52.0856003 61.8330514,51.6316638 C62.6626187,51.2250643 63.0005906,51.0200205 63.0005906,50.6226392 C63.0005906,50.2785743 63.3075634,49.9997845 63.6864101,49.9997845 C64.0652569,49.9997845 64.3722297,50.2785743 64.3722297,50.6226392 C64.3722297,51.8025751 63.3253947,52.3158074 62.48458,52.7278881 C61.5430869,53.189548 61.0106166,53.4872725 61.0106166,54.2441655 C61.0106166,54.5882305 60.7036438,54.8670202 60.3247971,54.8670202" id="Fill-98" fill="#000000" mask="url(#mask-36)"></path>
                            </g>
                            <g id="Fill-99-Clipped" stroke-width="1" fill="none" transform="translate(0.388410, 0.584684)">
                                <mask id="mask-38" fill="white">
                                    <use xlink:href="#path-37"></use>
                                </mask>
                                <g id="path-4"></g>
                                <path d="M60.3247971,47.3449287 C59.9459503,47.3449287 59.6389775,47.0661247 59.6389775,46.7220422 C59.6389775,45.1852564 60.907195,44.5636156 61.8330514,44.1096559 C62.6626187,43.7030355 63.0005906,43.4979813 63.0005906,43.1005796 C63.0005906,42.7564971 63.3075634,42.4776931 63.6864101,42.4776931 C64.0652569,42.4776931 64.3722297,42.7564971 64.3722297,43.1005796 C64.3722297,44.280576 63.3253947,44.7938345 62.48458,45.2061854 C61.5430869,45.6676198 61.0106166,45.9653596 61.0106166,46.7220422 C61.0106166,47.0661247 60.7036438,47.3449287 60.3247971,47.3449287" id="Fill-99" fill="#000000" mask="url(#mask-38)"></path>
                            </g>
                            <g id="Fill-100-Clipped" stroke-width="1" fill="none" transform="translate(0.388410, 0.584684)">
                                <mask id="mask-40" fill="white">
                                    <use xlink:href="#path-39"></use>
                                </mask>
                                <g id="path-4"></g>
                                <path d="M63.6864101,51.3272125 C63.3075634,51.3272125 63.0005906,51.048437 63.0005906,50.7043896 C63.0005906,50.3070287 62.6626187,50.1019954 61.8330514,49.6951676 C60.907195,49.2412543 59.6389775,48.619428 59.6389775,47.0827996 C59.6389775,46.7387523 59.9459503,46.4599768 60.3247971,46.4599768 C60.7036438,46.4599768 61.0106166,46.7387523 61.0106166,47.0827996 C61.0106166,47.8381591 61.570794,48.1510653 62.48458,48.5989994 C63.3256691,49.0113081 64.3722297,49.5245141 64.3722297,50.7043896 C64.3722297,51.048437 64.0652569,51.3272125 63.6864101,51.3272125" id="Fill-100" fill="#000000" mask="url(#mask-40)"></path>
                            </g>
                            <g id="Fill-101-Clipped" stroke-width="1" fill="none" transform="translate(0.388410, 0.584684)">
                                <mask id="mask-42" fill="white">
                                    <use xlink:href="#path-41"></use>
                                </mask>
                                <g id="path-4"></g>
                                <path d="M63.6864101,43.805121 C63.3075634,43.805121 63.0005906,43.5263312 63.0005906,43.1822663 C63.0005906,42.7851341 62.6628931,42.5800904 61.8333257,42.1732417 C60.907195,41.7193052 59.6389775,41.0974471 59.6389775,39.56074 C59.6389775,39.2166751 59.9459503,38.9378853 60.3247971,38.9378853 C60.7036438,38.9378853 61.0106166,39.2166751 61.0106166,39.56074 C61.0106166,40.3161382 61.570794,40.6290604 62.4848543,41.0770174 C63.3256691,41.4893472 64.3722297,42.0023304 64.3722297,43.1822663 C64.3722297,43.5263312 64.0652569,43.805121 63.6864101,43.805121" id="Fill-101" fill="#000000" mask="url(#mask-42)"></path>
                            </g>
                            <g id="Fill-102-Clipped" stroke-width="1" fill="none" transform="translate(0.388410, 0.584684)">
                                <mask id="mask-44" fill="white">
                                    <use xlink:href="#path-43"></use>
                                </mask>
                                <g id="path-4"></g>
                            </g>
                            <g id="Fill-103-Clipped" stroke-width="1" fill="none" transform="translate(0.388410, 0.584684)">
                                <mask id="mask-46" fill="white">
                                    <use xlink:href="#path-45"></use>
                                </mask>
                                <g id="path-4"></g>
                                <path d="M126.590328,109.73404 C126.211481,109.73404 125.904508,109.455236 125.904508,109.111154 C125.904508,107.574368 127.172726,106.952727 128.098582,106.499017 C128.928149,106.092147 129.266121,105.887093 129.266121,105.489691 C129.266121,105.145609 129.573094,104.866805 129.951941,104.866805 C130.330787,104.866805 130.63776,105.145609 130.63776,105.489691 C130.63776,106.669688 129.590925,107.182946 128.750111,107.595048 C127.808617,108.056731 127.276147,108.354471 127.276147,109.111154 C127.276147,109.455236 126.969174,109.73404 126.590328,109.73404" id="Fill-103" fill="#000000" mask="url(#mask-46)"></path>
                            </g>
                            <g id="Fill-104-Clipped" stroke-width="1" fill="none" transform="translate(0.388410, 0.584684)">
                                <mask id="mask-48" fill="white">
                                    <use xlink:href="#path-47"></use>
                                </mask>
                                <g id="path-4"></g>
                                <path d="M129.951941,113.273848 C129.573094,113.273848 129.266121,112.995073 129.266121,112.651025 C129.266121,112.253664 128.928424,112.048631 128.098582,111.641803 C127.172726,111.18789 125.904508,110.566313 125.904508,109.029435 C125.904508,108.685388 126.211481,108.406613 126.590328,108.406613 C126.969174,108.406613 127.276147,108.685388 127.276147,109.029435 C127.276147,109.784795 127.836325,110.097701 128.750111,110.545884 C129.5912,110.957944 130.63776,111.47115 130.63776,112.651025 C130.63776,112.995073 130.330787,113.273848 129.951941,113.273848" id="Fill-104" fill="#000000" mask="url(#mask-48)"></path>
                            </g>
                            <g id="Fill-105-Clipped" stroke-width="1" fill="none" transform="translate(0.388410, 0.584684)">
                                <mask id="mask-50" fill="white">
                                    <use xlink:href="#path-49"></use>
                                </mask>
                                <g id="path-4"></g>
                                <path d="M129.951941,105.751757 C129.573094,105.751757 129.266121,105.472953 129.266121,105.12887 C129.266121,104.731718 128.928424,104.526663 128.098582,104.119794 C127.172726,103.666083 125.904508,103.044193 125.904508,101.507408 C125.904508,101.163325 126.211481,100.884521 126.590328,100.884521 C126.969174,100.884521 127.276147,101.163325 127.276147,101.507408 C127.276147,102.262595 127.836325,102.575533 128.750111,103.023763 C129.5912,103.435864 130.63776,103.949123 130.63776,105.12887 C130.63776,105.472953 130.330787,105.751757 129.951941,105.751757" id="Fill-105" fill="#000000" mask="url(#mask-50)"></path>
                            </g>
                            <g id="Fill-106-Clipped" stroke-width="1" fill="none" transform="translate(0.388410, 0.584684)">
                                <mask id="mask-52" fill="white">
                                    <use xlink:href="#path-51"></use>
                                </mask>
                                <g id="path-4"></g>
                            </g>
                            <g id="Fill-107-Clipped" stroke-width="1" fill="none" transform="translate(0.388410, 0.584684)">
                                <mask id="mask-54" fill="white">
                                    <use xlink:href="#path-53"></use>
                                </mask>
                                <g id="path-4"></g>
                            </g>
                            <g id="Fill-108-Clipped" stroke-width="1" fill="none" transform="translate(0.388410, 0.584684)">
                                <mask id="mask-56" fill="white">
                                    <use xlink:href="#path-55"></use>
                                </mask>
                                <g id="path-4"></g>
                            </g>
                            <g id="Fill-109-Clipped" stroke-width="1" fill="none" transform="translate(0.388410, 0.584684)">
                                <mask id="mask-58" fill="white">
                                    <use xlink:href="#path-57"></use>
                                </mask>
                                <g id="path-4"></g>
                                <path d="M48.5400032,111.503944 C48.1611564,111.503944 47.8541836,111.225169 47.8541836,110.881121 C47.8541836,110.483761 47.5164861,110.278727 46.6866444,109.871899 C45.760788,109.417986 44.4925705,108.796409 44.4925705,107.259531 C44.4925705,106.915484 44.7995434,106.636709 45.1783901,106.636709 C45.5572368,106.636709 45.8642096,106.915484 45.8642096,107.259531 C45.8642096,108.014891 46.424387,108.327797 47.3384473,108.77598 C48.1792621,109.18804 49.2258227,109.701246 49.2258227,110.881121 C49.2258227,111.225169 48.9188499,111.503944 48.5400032,111.503944" id="Fill-109" fill="#000000" mask="url(#mask-58)"></path>
                            </g>
                            <g id="Fill-110-Clipped" stroke-width="1" fill="none" transform="translate(0.388410, 0.584684)">
                                <mask id="mask-60" fill="white">
                                    <use xlink:href="#path-59"></use>
                                </mask>
                                <g id="path-4"></g>
                                <path d="M107.252212,93.3624295 L97.6976073,93.3624295 C97.3297434,93.3624295 97.0316698,92.9663251 97.0316698,92.4774776 C97.0316698,91.9886302 97.3297434,91.5925257 97.6976073,91.5925257 L107.252212,91.5925257 C107.620076,91.5925257 107.91815,91.9886302 107.91815,92.4774776 C107.91815,92.9663251 107.620076,93.3624295 107.252212,93.3624295" id="Fill-110" fill="#000000" mask="url(#mask-60)"></path>
                            </g>
                            <g id="Fill-111-Clipped" stroke-width="1" fill="none" transform="translate(0.388410, 0.584684)">
                                <mask id="mask-62" fill="white">
                                    <use xlink:href="#path-61"></use>
                                </mask>
                                <g id="path-4"></g>
                                <path d="M10.2205425,65.9289194 L0.665937509,65.9289194 C0.298073629,65.9289194 0,65.532815 0,65.0439675 C0,64.5551201 0.298073629,64.1590156 0.665937509,64.1590156 L10.2205425,64.1590156 C10.5884064,64.1590156 10.88648,64.5551201 10.88648,65.0439675 C10.88648,65.532815 10.5884064,65.9289194 10.2205425,65.9289194" id="Fill-111" fill="#000000" mask="url(#mask-62)"></path>
                            </g>
                            <g id="Fill-112-Clipped" stroke-width="1" fill="none" transform="translate(0.388410, 0.584684)">
                                <mask id="mask-64" fill="white">
                                    <use xlink:href="#path-63"></use>
                                </mask>
                                <g id="path-4"></g>
                            </g>
                            <g id="Fill-115-Clipped" stroke-width="1" fill="none" transform="translate(0.388410, 0.584684)">
                                <mask id="mask-66" fill="white">
                                    <use xlink:href="#path-65"></use>
                                </mask>
                                <g id="path-4"></g>
                            </g>
                            <g id="Fill-117-Clipped" stroke-width="1" fill="none" transform="translate(0.388410, 0.584684)">
                                <mask id="mask-68" fill="white">
                                    <use xlink:href="#path-67"></use>
                                </mask>
                                <g id="path-4"></g>
                            </g>
                            <g id="Group-182-Clipped" stroke-width="1" fill="none" transform="translate(0.388410, 0.584684)">
                                <mask id="mask-70" fill="white">
                                    <use xlink:href="#path-69"></use>
                                </mask>
                                <g id="path-4"></g>
                                <g id="Group-182" mask="url(#mask-70)">
                                    <g transform="translate(7.000000, 11.000000)" id="Group">
                                        <g transform="translate(0.099878, 0.424760)">
                                            <path d="M81.8946509,22.8442003 L76.3845065,31.7289236 L87.4193375,31.7222946 L81.8946509,22.8442003 Z M75.9092765,31.9841424 L81.8941021,22.3342727 L87.8945676,31.9770034 L75.9092765,31.9841424 Z" id="Fill-118" fill="#000000" fill-rule="nonzero"></path>
                                            <path d="M72.3684558,79.4466722 L66.8580371,88.3313955 L77.8931424,88.3245115 L72.3684558,79.4466722 Z M66.3830814,88.5868692 L72.3679071,78.9367446 L78.3683725,88.5794753 L66.3830814,88.5868692 Z" id="Fill-119" fill="#000000" fill-rule="nonzero"></path>
                                            <path d="M105.38918,96.828523 L99.8790355,105.713246 L110.913866,105.706362 L105.38918,96.828523 Z M99.4038054,105.96872 L105.388631,96.318595 L111.389097,105.961326 L99.4038054,105.96872 Z" id="Fill-120" fill="#000000" fill-rule="nonzero"></path>
                                            <path d="M117.89769,63.3291616 L125.705512,70.5754875 L128.554971,60.6675945 L117.89769,63.3291616 Z M125.848191,71.0680776 L117.367584,63.1976003 L128.942948,60.3065658 L125.848191,71.0680776 Z" id="Fill-121" fill="#000000" fill-rule="nonzero"></path>
                                            <path d="M23.6997669,57.0667409 L23.7071752,67.3211297 L33.2611652,62.1869238 L23.6997669,57.0667409 Z M23.4330674,67.7629819 L23.4248359,56.6253986 L33.8099297,62.1864138 L23.4330674,67.7629819 Z" id="Fill-125" fill="#000000" fill-rule="nonzero"></path>
                                            <path d="M90.136051,52.1782436 C87.8040763,52.1782436 85.906723,53.9410633 85.906723,56.1080005 C85.906723,58.2749378 87.8040763,60.0380124 90.136051,60.0380124 C92.4677514,60.0380124 94.3648303,58.2749378 94.3648303,56.1080005 C94.3648303,53.9410633 92.4677514,52.1782436 90.136051,52.1782436 M90.136051,60.2929762 C87.6526173,60.2929762 85.6323408,58.4154229 85.6323408,56.1080005 C85.6323408,53.8005782 87.6526173,51.9232798 90.136051,51.9232798 C92.6192104,51.9232798 94.6392125,53.8005782 94.6392125,56.1080005 C94.6392125,58.4154229 92.6192104,60.2929762 90.136051,60.2929762" id="Fill-126" fill="#000000" fill-rule="nonzero"></path>
                                            <path d="M60.9254538,62.1936548 L60.6510716,62.1936548 C60.6510716,60.0267175 58.7539927,58.2638979 56.4220179,58.2638979 C54.0897688,58.2638979 52.1926899,60.0267175 52.1926899,62.1936548 L51.9183077,62.1936548 C51.9183077,59.8862325 53.9385842,58.0089341 56.4220179,58.0089341 C58.9051773,58.0089341 60.9254538,59.8862325 60.9254538,62.1936548" id="Fill-130" fill="#000000" fill-rule="nonzero"></path>
                                            <path d="M14.9492779,29.2516699 L14.6748957,29.2516699 C14.6748957,27.0847326 12.786597,25.321913 10.4655976,25.321913 C8.1445981,25.321913 6.25602507,27.0847326 6.25602507,29.2516699 L5.98164282,29.2516699 C5.98164282,26.9442476 7.9931391,25.0669492 10.4655976,25.0669492 C12.9377816,25.0669492 14.9492779,26.9442476 14.9492779,29.2516699" id="Fill-131" fill="#000000" fill-rule="nonzero"></path>
                                            <path d="M116.178768,36.0231513 C113.695334,36.0231513 111.675058,34.1540117 111.675058,31.856533 C111.675058,29.5593092 113.695334,27.6901697 116.178768,27.6901697 L116.178768,27.9451334 C113.846793,27.9451334 111.94944,29.6997943 111.94944,31.856533 C111.94944,34.0135267 113.846793,35.7681875 116.178768,35.7681875 L116.178768,36.0231513 Z" id="Fill-132" fill="#000000" fill-rule="nonzero"></path>
                                            <path d="M8.85848584,83.9528513 C6.52623671,83.9528513 4.62915783,85.715671 4.62915783,87.8823533 C4.62915783,90.0492905 6.52623671,91.8123652 8.85848584,91.8123652 C11.1904606,91.8123652 13.0875395,90.0492905 13.0875395,87.8823533 C13.0875395,85.715671 11.1904606,83.9528513 8.85848584,83.9528513 M8.85848584,92.067329 C6.37505209,92.067329 4.35477558,90.1900306 4.35477558,87.8823533 C4.35477558,85.5749309 6.37505209,83.6978875 8.85848584,83.6978875 C11.3416452,83.6978875 13.3619217,85.5749309 13.3619217,87.8823533 C13.3619217,90.1900306 11.3416452,92.067329 8.85848584,92.067329" id="Fill-135" fill="#000000" fill-rule="nonzero"></path>
                                            <path d="M37.7305777,39.799879 L46.1412168,39.799879 L46.1412168,31.9842189 L37.7305777,31.9842189 L37.7305777,39.799879 Z M37.4561954,40.0548427 L46.4155991,40.0548427 L46.4155991,31.7292551 L37.4561954,31.7292551 L37.4561954,40.0548427 Z" id="Fill-138" fill="#000000" fill-rule="nonzero"></path>
                                            <path d="M37.2945843,91.324492 L45.7052234,91.324492 L45.7052234,83.5088319 L37.2945843,83.5088319 L37.2945843,91.324492 Z M37.020202,91.5794557 L45.9796057,91.5794557 L45.9796057,83.2538681 L37.020202,83.2538681 L37.020202,91.5794557 Z" id="Fill-139" fill="#000000" fill-rule="nonzero"></path>
                                            <path d="M87.283436,75.6356519 C86.3112997,75.6356519 85.8722881,74.8799392 85.4478187,74.148958 C84.9797226,73.3440374 84.4962611,72.5113256 83.2947412,72.5113256 L83.2947412,72.2563618 C84.6597929,72.2563618 85.2069111,73.1974332 85.6890007,74.0278502 C86.1110006,74.7537322 86.4751059,75.3806881 87.283436,75.3806881 L87.283436,75.6356519 Z" id="Fill-142" fill="#000000" fill-rule="nonzero"></path>
                                            <path d="M95.2603591,75.6356519 C94.2882228,75.6356519 93.8489368,74.8799392 93.4247418,74.148958 C92.9569201,73.3440374 92.4734586,72.5113256 91.2722131,72.5113256 L91.2722131,72.2563618 C92.6369904,72.2563618 93.1838342,73.1974332 93.6659238,74.0278502 C94.0879237,74.7537322 94.452029,75.3806881 95.2603591,75.3806881 L95.2603591,75.6356519 Z" id="Fill-143" fill="#000000" fill-rule="nonzero"></path>
                                            <path d="M87.283436,75.6356519 L87.283436,75.3806881 C88.0917661,75.3806881 88.4558713,74.7537322 88.8778712,74.0278502 C89.3599608,73.1974332 89.907079,72.2563618 91.2721307,72.2563618 L91.2721307,72.5113256 C90.0706109,72.5113256 89.5871493,73.3440374 89.1190532,74.148958 C88.6945839,74.8799392 88.2555723,75.6356519 87.283436,75.6356519" id="Fill-144" fill="#000000" fill-rule="nonzero"></path>
                                            <path d="M95.2603591,75.6356519 L95.2603591,75.3806881 C96.0684148,75.3806881 96.4325201,74.7537322 96.85452,74.0278502 C97.3366096,73.1974332 97.8837278,72.2563618 99.2485051,72.2563618 L99.2485051,72.5113256 C98.0472596,72.5113256 97.5637981,73.3440374 97.095702,74.149213 C96.6712326,74.8799392 96.232221,75.6356519 95.2603591,75.6356519" id="Fill-145" fill="#000000" fill-rule="nonzero"></path>
                                            <path d="M120.884533,49.9333639 C119.912397,49.9333639 119.473111,49.1776512 119.048916,48.4464151 C118.581094,47.6414944 118.097633,46.8087826 116.896387,46.8087826 L116.896387,46.5538188 C118.261165,46.5538188 118.808008,47.4951452 119.290098,48.3253073 C119.712098,49.0514441 120.076203,49.6784001 120.884533,49.6784001 L120.884533,49.9333639 Z" id="Fill-150" fill="#000000" fill-rule="nonzero"></path>
                                            <path d="M128.861456,49.9333639 C127.88932,49.9333639 127.450034,49.1776512 127.025839,48.44667 C126.558017,47.6414944 126.074556,46.8090376 124.87331,46.8090376 L124.87331,46.5540738 C126.238088,46.5540738 126.784932,47.4951452 127.267021,48.3255622 C127.689021,49.0514441 128.053126,49.6784001 128.861456,49.6784001 L128.861456,49.9333639 Z" id="Fill-151" fill="#000000" fill-rule="nonzero"></path>
                                            <path d="M120.884533,49.9333639 L120.884533,49.6784001 C121.692863,49.6784001 122.057243,49.0514441 122.479243,48.3255622 C122.961333,47.4951452 123.508451,46.5540738 124.873228,46.5540738 L124.873228,46.8090376 C123.671983,46.8090376 123.188247,47.6414944 122.720425,48.44667 C122.295956,49.1776512 121.85667,49.9333639 120.884533,49.9333639" id="Fill-152" fill="#000000" fill-rule="nonzero"></path>
                                            <path d="M9.95681055,46.1577071 C8.98467424,46.1577071 8.54566264,45.4019944 8.1211933,44.6710132 C7.65337156,43.8658376 7.16991003,43.0331258 5.96839016,43.0331258 L5.96839016,42.778162 C7.33344185,42.778162 7.88028568,43.7194883 8.36237529,44.5499054 C8.78410081,45.2757873 9.14848044,45.9027433 9.95681055,45.9027433 L9.95681055,46.1577071 Z" id="Fill-154" fill="#000000" fill-rule="nonzero"></path>
                                            <path d="M17.9337337,46.1577071 C16.9615973,46.1577071 16.5225857,45.4019944 16.0981164,44.6710132 C15.6302947,43.8658376 15.1468331,43.0333808 13.9455876,43.0333808 L13.9455876,42.778417 C15.310365,42.778417 15.8572088,43.7194883 16.3392984,44.5499054 C16.7610239,45.2757873 17.1251292,45.9027433 17.9337337,45.9027433 L17.9337337,46.1577071 Z" id="Fill-155" fill="#000000" fill-rule="nonzero"></path>
                                            <path d="M9.95681055,46.1577071 L9.95681055,45.9027433 C10.7651407,45.9027433 11.1295203,45.2757873 11.5512458,44.5499054 C12.0336098,43.7194883 12.5804536,42.778417 13.9455053,42.778417 L13.9455053,43.0333808 C12.7439855,43.0333808 12.2605239,43.8658376 11.7927022,44.6710132 C11.3682329,45.4019944 10.9289469,46.1577071 9.95681055,46.1577071" id="Fill-156" fill="#000000" fill-rule="nonzero"></path>
                                            <path d="M17.9337337,46.1577071 L17.9337337,45.9027433 C18.7420638,45.9027433 19.106169,45.2757873 19.5278945,44.5499054 C20.0102585,43.7194883 20.5571024,42.778417 21.9218797,42.778417 L21.9221541,42.778417 L21.9221541,43.0333808 L21.9218797,43.0333808 C20.7206342,43.0333808 20.2368983,43.8658376 19.7693509,44.6710132 C19.3448816,45.4019944 18.9055956,46.1577071 17.9337337,46.1577071" id="Fill-157" fill="#000000" fill-rule="nonzero"></path>
                                            <path d="M60.2601317,46.6813262 L59.9857495,46.6813262 C59.9857495,45.4128814 60.9984944,44.9047385 61.8921574,44.4565122 C62.6733236,44.0648878 63.3480296,43.7262959 63.3480296,42.9751725 L63.6224118,42.9751725 C63.6224118,43.8785093 62.8091428,44.2864513 62.0224889,44.6808803 C61.1559898,45.1155936 60.2601317,45.5648398 60.2601317,46.6813262" id="Fill-162" fill="#000000" fill-rule="nonzero"></path>
                                            <path d="M60.2601317,39.2687129 L59.9857495,39.2687129 C59.9857495,38.000268 60.9984944,37.4923801 61.8921574,37.0441538 C62.6733236,36.6525294 63.3480296,36.3141925 63.3480296,35.5628142 L63.6224118,35.5628142 C63.6224118,36.4661509 62.8091428,36.8740929 62.0224889,37.2685219 C61.1559898,37.7032352 60.2601317,38.1524814 60.2601317,39.2687129" id="Fill-163" fill="#000000" fill-rule="nonzero"></path>
                                            <path d="M63.6223844,42.975147 L63.3480021,42.975147 C63.3480021,42.2240237 62.6732962,41.8854318 61.8921299,41.4935524 C60.9984669,41.0453261 59.985722,40.5371833 59.985722,39.2687384 L60.2601043,39.2687384 C60.2601043,40.3852248 61.1559623,40.834471 62.0224615,41.2691843 C62.8091154,41.6636133 63.6223844,42.0718103 63.6223844,42.975147" id="Fill-164" fill="#000000" fill-rule="nonzero"></path>
                                            <path d="M63.6223844,35.5627632 L63.3480021,35.5627632 C63.3480021,34.8116398 62.6735706,34.4733029 61.8921299,34.0814235 C60.9984669,33.6331972 59.985722,33.1250543 59.985722,31.8566095 L60.2601043,31.8566095 C60.2601043,32.9730959 61.1562367,33.4223421 62.0224615,33.8570554 C62.8091154,34.2514844 63.6223844,34.6596814 63.6223844,35.5627632" id="Fill-165" fill="#000000" fill-rule="nonzero"></path>
                                            <path d="M129.921999,97.500786 L129.647616,97.500786 C129.647616,96.749917 128.972911,96.411581 128.191744,96.019446 C127.298081,95.571475 126.285336,95.063077 126.285336,93.794887 L126.559719,93.794887 C126.559719,94.911119 127.455851,95.360365 128.32235,95.795333 C129.10873,96.189762 129.921999,96.597704 129.921999,97.500786" id="Fill-169" fill="#000000" fill-rule="nonzero"></path>
                                            <polygon id="Fill-174" fill="#000000" fill-rule="nonzero" points="96.8412947 84.0143906 106.683112 84.0143906 106.683112 83.698015 96.8412947 83.698015"></polygon>
                                            <polygon id="Fill-175" fill="#000000" fill-rule="nonzero" points="0.0869791735 57.5873935 9.92879613 57.5873935 9.92879613 57.2710179 0.0869791735 57.2710179"></polygon>
                                        </g>
                                    </g>
                                </g>
                            </g>
                            <g id="Fill-183-Clipped" stroke-width="1" fill="none" transform="translate(0.388410, 0.584684)">
                                <mask id="mask-72" fill="white">
                                    <use xlink:href="#path-71"></use>
                                </mask>
                                <g id="path-4"></g>
                            </g>
                            <g id="Fill-184-Clipped" stroke-width="1" fill="none" transform="translate(0.388410, 0.584684)">
                                <mask id="mask-74" fill="white">
                                    <use xlink:href="#path-73"></use>
                                </mask>
                                <g id="path-4"></g>
                                <path d="M75.7294678,67.1907683 C75.5402735,67.1907683 75.3545878,67.2404727 75.1907634,67.3368536 C74.9608154,67.4718375 74.8013092,67.6825132 74.7411233,67.9297733 C74.6809374,68.1770334 74.7276287,68.4316103 74.8722908,68.6468275 C75.0169529,68.8620448 75.2420428,69.01141 75.506537,69.0676743 C75.7707613,69.1239386 76.0436221,69.0807942 76.27384,68.9455581 C76.5032482,68.8105743 76.6627544,68.5996463 76.7229403,68.3523862 C76.7831262,68.1046215 76.7367048,67.8502968 76.5923126,67.6355842 C76.4476505,67.4206193 76.2222906,67.271254 75.9575266,67.2149897 C75.8816869,67.1988421 75.8053075,67.1907683 75.7294678,67.1907683 L75.7294678,67.1907683 Z M75.7367549,70.3536791 C75.5605154,70.3536791 75.3829265,70.3350085 75.2069569,70.2976672 C74.5905235,70.1664679 74.0658535,69.8185376 73.7298379,69.3182144 C73.3932826,68.8183958 73.2850559,68.2259808 73.4251298,67.6499657 C73.5652038,67.0739506 73.937115,66.5834673 74.4723108,66.2688414 C75.0069669,65.9544678 75.6404035,65.85405 76.2571067,65.9847446 C76.8735401,66.1159438 77.39848,66.4638741 77.7344956,66.963945 C78.070781,67.4632591 78.1790077,68.0559264 78.0389338,68.6321938 C77.8985899,69.2082089 77.5272185,69.6984399 76.9928323,70.013318 C76.9925624,70.013318 76.9922925,70.013318 76.9922925,70.0135704 C76.6098556,70.2381229 76.1772187,70.3536791 75.7367549,70.3536791 L75.7367549,70.3536791 Z" id="Fill-184" fill="#000000" mask="url(#mask-74)"></path>
                            </g>
                            <g id="Fill-185-Clipped" stroke-width="1" fill="none" transform="translate(0.388410, 0.584684)">
                                <mask id="mask-76" fill="white">
                                    <use xlink:href="#path-75"></use>
                                </mask>
                                <g id="path-4"></g>
                                <path d="M14.1963099,80.9076496 C14.0070453,80.9076496 13.8212907,80.9570996 13.6571354,81.0534768 C13.1832991,81.3325163 13.0402032,81.9203663 13.3388146,82.3636507 C13.4835304,82.5788593 13.7087039,82.7282186 13.9732963,82.7844807 C14.2378887,82.8407427 14.5108508,82.7976001 14.7408842,82.6626216 C14.9703775,82.5273909 15.1299429,82.3167236 15.1901512,82.0692211 C15.2503595,81.8214663 15.2039208,81.5668994 15.059475,81.3524477 C14.9147591,81.1372391 14.6895856,80.9878798 14.4244533,80.93187 C14.3485855,80.9154708 14.2721777,80.9076496 14.1963099,80.9076496 L14.1963099,80.9076496 Z M14.2035997,84.0704342 C14.0272948,84.0704342 13.8496399,84.0520166 13.673605,84.0144244 C13.0569428,83.8834827 12.5320779,83.5355663 12.1959376,83.0350108 C11.5012476,82.0033718 11.834148,80.6351697 12.9384162,79.9857594 C13.4735407,79.6716507 14.1080224,79.5704799 14.7241446,79.7016739 C15.3408068,79.8328679 15.8659417,80.1805321 16.202082,80.6808353 C16.5384923,81.1798771 16.6467592,81.7727731 16.5066332,82.3490175 C16.3662373,82.9250096 15.994728,83.4154734 15.4601434,83.7300867 C15.4598734,83.730339 15.4596034,83.730339 15.4596034,83.730339 C15.0770245,83.9548826 14.6442269,84.0704342 14.2035997,84.0704342 L14.2035997,84.0704342 Z" id="Fill-185" fill="#000000" mask="url(#mask-76)"></path>
                            </g>
                            <g id="Fill-186-Clipped" stroke-width="1" fill="none" transform="translate(0.388410, 0.584684)">
                                <mask id="mask-78" fill="white">
                                    <use xlink:href="#path-77"></use>
                                </mask>
                                <g id="path-4"></g>
                                <path d="M31.2368973,30.0228342 C31.047703,30.0228342 30.8620173,30.0725378 30.6981928,30.1689173 C30.4682449,30.3038991 30.3087387,30.5145717 30.2485528,30.7618281 C30.1883668,31.0090845 30.2350582,31.2636577 30.3797203,31.4788716 C30.5243824,31.6940856 30.7494723,31.8434487 31.0139665,31.8997121 C31.2784607,31.9559756 31.5513215,31.9128319 31.7812695,31.7775977 C32.0106777,31.6426159 32.1701839,31.4316911 32.2303698,31.1844347 C32.2905557,30.9366737 32.2441343,30.6823528 32.0997421,30.4676434 C31.9550799,30.2526818 31.7297201,30.1033187 31.464956,30.0470553 C31.3891164,30.0309079 31.312737,30.0228342 31.2368973,30.0228342 L31.2368973,30.0228342 Z M31.2441844,33.1856977 C31.0679449,33.1856977 30.890356,33.1670273 30.7143864,33.1296866 C30.097953,32.9984893 29.5732829,32.6505642 29.2372674,32.1502485 C28.900712,31.6504373 28.7924854,31.0580312 28.9325593,30.4820247 C29.0726333,29.9060182 29.4445445,29.4155422 29.9797403,29.1009211 C30.5143964,28.7868045 31.147563,28.6858836 31.7645362,28.8168285 C32.3809695,28.9480258 32.9059095,29.2959509 33.2419251,29.7960143 C33.5782105,30.2953209 33.6864372,30.8879793 33.5463632,31.4642381 C33.4060194,32.0402446 33.034648,32.5304683 32.5002618,32.8453417 C32.4999919,32.8453417 32.499722,32.8453417 32.499722,32.845594 C32.117285,33.0701432 31.6846481,33.1856977 31.2441844,33.1856977 L31.2441844,33.1856977 Z" id="Fill-186" fill="#000000" mask="url(#mask-78)"></path>
                            </g>
                            <g id="Fill-187-Clipped" stroke-width="1" fill="none" transform="translate(0.388410, 0.584684)">
                                <mask id="mask-80" fill="white">
                                    <use xlink:href="#path-79"></use>
                                </mask>
                                <g id="path-4"></g>
                                <path d="M125.428654,29.1382668 C125.239467,29.1382668 125.053518,29.1879882 124.8897,29.2844021 C124.65976,29.4194322 124.50026,29.63018 124.440076,29.8775247 C124.379892,30.1248694 124.426582,30.3795335 124.571239,30.5948244 C124.869458,31.0387829 125.498554,31.172551 125.973007,30.8936572 C126.202137,30.7583748 126.361907,30.547627 126.422091,30.3002822 C126.482275,30.0524327 126.435855,29.798021 126.291468,29.5832349 C126.146811,29.3681965 125.921459,29.2187801 125.656705,29.1624965 C125.580598,29.1463434 125.504221,29.1382668 125.428654,29.1382668 L125.428654,29.1382668 Z M125.435132,32.3007458 C124.647885,32.3007458 123.877641,31.9342718 123.428827,31.266441 C123.092554,30.7664513 122.984061,30.1735812 123.1244,29.5976213 C123.264199,29.0214091 123.636097,28.5307579 124.171273,28.2160244 C124.70618,27.9015432 125.340403,27.801091 125.956004,27.9318303 C126.572415,28.0630745 127.097336,28.4108714 127.43361,28.9113659 C127.770153,29.4108508 127.878106,30.003721 127.738037,30.5801856 C127.597428,31.1563978 127.22607,31.647049 126.691703,31.9617825 C126.691433,31.9617825 126.691433,31.9620349 126.691164,31.9620349 C126.300644,32.1912074 125.865324,32.3007458 125.435132,32.3007458 L125.435132,32.3007458 Z" id="Fill-187" fill="#000000" mask="url(#mask-80)"></path>
                            </g>
                        </g>
                    </g>
                </g>
            </g>
        </g>
    </g>
</svg>