<?xml version="1.0" standalone="no"?>
<!DOCTYPE svg PUBLIC "-//W3C//DTD SVG 1.1//EN" "http://www.w3.org/Graphics/SVG/1.1/DTD/svg11.dtd" >
<svg xmlns="http://www.w3.org/2000/svg" xmlns:xlink="http://www.w3.org/1999/xlink" version="1.1">
<metadata>
Created by FontForge 20201107 at Wed Jan 27 18:42:57 2021
 By Rahul
Copyright 2012-2021 Indian Type Foundry. All rights reserved.
</metadata>
<defs>
<font id="AkhandDevanagari-Black" horiz-adv-x="224" >
  <font-face 
    font-family="Akhand Devanagari"
    font-weight="900"
    font-stretch="normal"
    units-per-em="1000"
    panose-1="0 0 0 0 0 0 0 0 0 0"
    ascent="800"
    descent="-200"
    x-height="590"
    cap-height="693"
    bbox="-533 -579 1948 1050"
    underline-thickness="50"
    underline-position="-100"
    unicode-range="U+000D-25CC"
  />
<missing-glyph horiz-adv-x="510" 
d="M0 0v701h509l1 -701h-510zM54 649v-597h400v597h-400zM254 302h-4l-100 -209h-60l134 260l-134 255h60l105 -206h4l100 206h60l-135 -261l135 -254h-60z" />
    <glyph glyph-name=".notdef" horiz-adv-x="510" 
d="M0 0v701h509l1 -701h-510zM54 649v-597h400v597h-400zM254 302h-4l-100 -209h-60l134 260l-134 255h60l105 -206h4l100 206h60l-135 -261l135 -254h-60z" />
    <glyph glyph-name="space" unicode=" " horiz-adv-x="186" 
 />
    <glyph glyph-name="dvA" unicode="&#x905;" horiz-adv-x="641" 
d="M206 549c-33 0 -38 -16 -38 -39v-20h-137v23c0 103 52 163 175 163s175 -60 175 -163v-42c0 -46 -11 -81 -43 -103c13 -9 23 -20 30 -35h91v338h222v-117h-82v-554h-140v213h-78v-25c0 -93 -52 -153 -175 -153s-175 60 -175 153v52h137v-44c0 -19 5 -34 38 -34
s38 15 38 34v68c0 23 -5 39 -38 39h-47v129h47c33 0 38 16 38 39v39c0 23 -5 39 -38 39z" />
    <glyph glyph-name="dvAA" unicode="&#x906;" horiz-adv-x="866" 
d="M206 549c-33 0 -38 -16 -38 -39v-20h-137v23c0 103 52 163 175 163s175 -60 175 -163v-42c0 -46 -11 -81 -43 -103c13 -9 23 -20 30 -35h91v338h446v-117h-82v-554h-140v554h-84v-554h-140v213h-78v-25c0 -93 -52 -153 -175 -153s-175 60 -175 153v52h137v-44
c0 -19 5 -34 38 -34s38 15 38 34v68c0 23 -5 39 -38 39h-47v129h47c33 0 38 16 38 39v39c0 23 -5 39 -38 39z" />
    <glyph glyph-name="dvI" unicode="&#x907;" horiz-adv-x="419" 
d="M34 169h138v-12c0 -25 9 -39 44 -39s44 14 44 39v17c0 20 -6 37 -39 37h-26c-108 0 -169 38 -169 141v10c0 103 56 142 169 142h39v50h-274v117h498v-117h-84v-170h-179c-23 0 -29 -8 -29 -27v-2c0 -18 7 -27 29 -27h26c123 0 179 -46 179 -149v-27
c0 -103 -41 -158 -164 -158c-15 0 -51 5 -64 15v-91h-138v251z" />
    <glyph glyph-name="dvII" unicode="&#x908;" horiz-adv-x="419" 
d="M34 169h138v-12c0 -25 9 -39 44 -39s44 14 44 39v17c0 20 -6 37 -39 37h-26c-108 0 -169 38 -169 141v10c0 103 56 142 169 142h39v50h-274v117h274c-11 26 -28 62 -28 103c0 107 74 132 140 132c58 0 80 -6 80 -6v-121h-30c-27 0 -49 -5 -49 -37c0 -19 10 -45 23 -71h88
v-117h-84v-170h-179c-23 0 -29 -8 -29 -27v-2c0 -18 7 -27 29 -27h26c123 0 179 -46 179 -149v-27c0 -103 -41 -158 -164 -158c-15 0 -51 5 -64 15v-91h-138v251z" />
    <glyph glyph-name="dvU" unicode="&#x909;" horiz-adv-x="422" 
d="M-40 554v117h501v-117h-84c3 -11 5 -22 5 -34v-60c0 -52 -14 -82 -41 -100c27 -19 41 -51 41 -102v-100c0 -103 -56 -163 -179 -163s-179 60 -179 163v64h140v-61c0 -23 6 -39 39 -39s39 16 39 39v97c0 23 -6 39 -39 39h-71v129h71c33 0 39 16 39 39v50
c0 23 -6 39 -39 39h-243z" />
    <glyph glyph-name="dvUU" unicode="&#x90a;" horiz-adv-x="618" 
d="M422 0v129c33 0 39 6 39 39v77c0 33 -10 47 -43 47h-43c5 -16 8 -34 8 -54v-80c0 -103 -56 -163 -179 -163s-179 60 -179 163v64h140v-61c0 -23 6 -39 39 -39s39 16 39 39v97c0 23 -6 39 -39 39h-71v129h71c33 0 39 16 39 39v50c0 23 -6 39 -39 39h-244v117h698v-117
h-281c4 -11 6 -22 6 -34v-40c0 -28 -6 -52 -16 -71c22 6 49 12 77 12c101 0 157 -45 157 -148v-110c0 -107 -52 -165 -150 -165c-14 0 -29 2 -29 2z" />
    <glyph glyph-name="dvvR" unicode="&#x90b;" horiz-adv-x="727" 
d="M2 0l-1 4l267 288c14 16 16 26 16 39c0 12 -8 36 -71 36c-61 0 -78 -21 -78 -62v-63h-134v73c0 112 51 181 193 181c48 0 82 -10 90 -19v77h-323v117h806v-117h-343v-123h98c34 0 39 12 39 37v23h136v-328h-56c-41 0 -43 -29 -43 -50s2 -51 43 -51h80v-112
c-17 -2 -75 -4 -100 -4c-106 0 -159 57 -159 160c0 83 40 136 106 143v62c-21 -7 -45 -9 -72 -9h-72v-302h-131v26c0 51 4 111 10 147h-2c-17 -37 -49 -83 -72 -109l-54 -64h-173z" />
    <glyph glyph-name="dvvRR" unicode="&#x960;" horiz-adv-x="742" 
d="M2 0l-1 4l267 288c14 16 16 26 16 39c0 12 -8 36 -71 36c-61 0 -78 -21 -78 -62v-63h-134v73c0 112 51 181 193 181c48 0 82 -10 90 -19v77h-324v117h822v-117h-358v-123h113c34 0 39 12 39 37v23h136v-328h-66c-31 0 -33 -19 -33 -40s2 -41 33 -41h47v-116h-45
c-23 0 -35 -7 -35 -40s12 -40 35 -40h89v-119h-105c-113 0 -158 53 -158 141c0 47 12 81 33 105c-20 24 -30 58 -30 103c0 83 40 126 106 133v62c-21 -7 -45 -9 -72 -9h-87v-302h-131v26c0 51 4 111 10 147h-2c-17 -37 -49 -83 -72 -109l-54 -64h-173z" />
    <glyph glyph-name="dvvL" unicode="&#x90c;" horiz-adv-x="649" 
d="M30 178v153c0 103 61 163 174 163c66 0 99 -31 111 -55c20 30 45 54 103 54c20 0 39 -5 48 -14v75h-506v117h729v-117h-83v-530h-110c-23 0 -39 -6 -39 -39v-2c0 -33 16 -39 39 -39h111v-129h-111c-123 0 -179 66 -179 169c0 94 47 157 149 168v174c0 23 -6 39 -39 39
s-39 -16 -39 -39v-104h-140v104c0 23 -6 39 -39 39s-39 -16 -39 -39v-138c0 -33 6 -59 59 -59h1v-129c-139 0 -200 55 -200 178z" />
    <glyph glyph-name="dvvLL" unicode="&#x961;" horiz-adv-x="649" 
d="M30 178v153c0 103 61 163 174 163c66 0 99 -31 111 -55c20 30 45 54 103 54c20 0 39 -5 48 -14v75h-506v117h729v-117h-83v-430h-110c-23 0 -39 -1 -39 -29v-2c0 -28 16 -29 39 -29h81v-119h-80c-23 0 -39 -1 -39 -29v-2c0 -28 16 -29 39 -29h111v-128h-111
c-123 0 -179 55 -179 158c0 37 9 67 27 89c-19 22 -28 52 -28 90c0 94 47 141 149 148v84c0 23 -6 39 -39 39s-39 -16 -39 -39v-67h-140v67c0 23 -6 39 -39 39s-39 -16 -39 -39v-138c0 -33 6 -59 59 -59h1v-129c-139 0 -200 55 -200 178z" />
    <glyph glyph-name="dvE" unicode="&#x90f;" horiz-adv-x="434" 
d="M399 554v-144c0 -103 -36 -156 -159 -156c-7 0 -15 1 -20 2v127c33 0 39 5 39 38v133h-78v-391c0 -23 8 -39 41 -39s41 16 41 39v36h140v-41c0 -103 -58 -163 -181 -163s-181 60 -181 163v396h-81v117h513v-117h-74z" />
    <glyph glyph-name="dvAI" unicode="&#x910;" horiz-adv-x="434" 
d="M-40 554v117h293l-165 230h155l152 -230h78v-117h-74v-144c0 -103 -36 -156 -159 -156c-7 0 -15 1 -20 2v127c33 0 39 5 39 38v133h-78v-391c0 -23 8 -39 41 -39s41 16 41 39v36h140v-41c0 -103 -58 -163 -181 -163s-181 60 -181 163v396h-81z" />
    <glyph glyph-name="dvO" unicode="&#x913;" horiz-adv-x="866" 
d="M206 549c-33 0 -38 -16 -38 -39v-20h-137v23c0 103 52 163 175 163s175 -60 175 -163v-42c0 -46 -11 -81 -43 -103c13 -9 23 -20 30 -35h91v338h212l-165 230h155l152 -230h93v-117h-82v-554h-140v554h-85v-554h-140v213h-78v-25c0 -93 -52 -153 -175 -153
s-175 60 -175 153v52h137v-44c0 -19 5 -34 38 -34s38 15 38 34v68c0 23 -5 39 -38 39h-47v129h47c33 0 38 16 38 39v39c0 23 -5 39 -38 39z" />
    <glyph glyph-name="dvAU" unicode="&#x914;" horiz-adv-x="866" 
d="M206 549c-33 0 -38 -16 -38 -39v-20h-137v23c0 103 52 163 175 163s175 -60 175 -163v-42c0 -46 -11 -81 -43 -103c13 -9 23 -20 30 -35h91v338h93l-187 230h154l171 -230h7l-85 230h133l73 -230h88v-117h-82v-554h-140v554h-85v-554h-140v213h-78v-25
c0 -93 -52 -153 -175 -153s-175 60 -175 153v52h137v-44c0 -19 5 -34 38 -34s38 15 38 34v68c0 23 -5 39 -38 39h-47v129h47c33 0 38 16 38 39v39c0 23 -5 39 -38 39z" />
    <glyph glyph-name="dvEcandra" unicode="&#x90d;" horiz-adv-x="434" 
d="M294 901h140v-5c0 -113 -72 -167 -210 -167s-211 54 -211 167v5h140c0 -36 20 -51 71 -51c48 0 70 15 70 51zM-40 554v117h513v-117h-74v-144c0 -103 -36 -156 -159 -156c-5 0 -13 1 -20 2v127c33 0 39 5 39 38v133h-78v-391c0 -23 8 -39 41 -39s41 16 41 39v36h140v-41
c0 -103 -58 -163 -181 -163s-181 60 -181 163v396h-81z" />
    <glyph glyph-name="dvOcandra" unicode="&#x911;" horiz-adv-x="866" 
d="M719 901h140v-5c0 -113 -72 -167 -210 -167c-136 0 -209 54 -209 167v5h139c0 -36 20 -51 70 -51c48 0 70 15 70 51zM206 549c-33 0 -38 -16 -38 -39v-20h-137v23c0 103 52 163 175 163s175 -60 175 -163v-42c0 -46 -11 -81 -43 -103c13 -9 23 -20 30 -35h91v338h447
v-117h-82v-554h-140v554h-85v-554h-140v213h-78v-25c0 -93 -52 -153 -175 -153s-175 60 -175 153v52h137v-44c0 -19 5 -34 38 -34s38 15 38 34v68c0 23 -5 39 -38 39h-47v129h47c33 0 38 16 38 39v39c0 23 -5 39 -38 39z" />
    <glyph glyph-name="dvEshort" unicode="&#x90e;" horiz-adv-x="434" 
d="M-40 554v117h300c0 38 -11 59 -68 59c-138 0 -201 38 -201 171h140c0 -38 12 -58 69 -58c138 0 199 -49 199 -172h74v-117h-74v-144c0 -103 -36 -156 -159 -156c-5 0 -13 1 -20 2v127c33 0 39 5 39 38v133h-78v-391c0 -23 8 -39 41 -39s41 16 41 39v36h140v-41
c0 -103 -58 -163 -181 -163s-181 60 -181 163v396h-81z" />
    <glyph glyph-name="dvOshort" unicode="&#x912;" horiz-adv-x="866" 
d="M206 549c-33 0 -38 -16 -38 -39v-20h-137v23c0 103 52 163 175 163s175 -60 175 -163v-42c0 -46 -11 -81 -43 -103c13 -9 23 -20 30 -35h91v338h225c0 38 -11 59 -67 59c-137 0 -200 38 -200 171h139c0 -38 12 -58 69 -58c137 0 199 -49 199 -172h82v-117h-82v-554h-140
v554h-85v-554h-140v213h-78v-25c0 -93 -52 -153 -175 -153s-175 60 -175 153v52h137v-44c0 -19 5 -34 38 -34s38 15 38 34v68c0 23 -5 39 -38 39h-47v129h47c33 0 38 16 38 39v39c0 23 -5 39 -38 39z" />
    <glyph glyph-name="dvmAA" unicode="&#x93e;" 
d="M42 554h-82v117h304v-117h-82v-554h-140v554z" />
    <glyph glyph-name="dvmI" unicode="&#x93f;" 
d="M45 671v16c0 150 99 216 249 216h128c151 0 220 -74 220 -167v-13h-141c0 41 -35 51 -91 51h-96c-99 0 -129 -24 -129 -90v-13h79v-117h-82v-554h-140v554h-82v117h85z" />
    <glyph glyph-name="dvmII" unicode="&#x940;" 
d="M42 671v70c0 25 -13 39 -42 39c-31 0 -44 -14 -44 -39v-18h-139v20c0 113 71 163 183 163s182 -50 182 -163v-72h82v-117h-82v-554h-140v554h-82v117h82z" />
    <glyph glyph-name="dvmU" unicode="&#x941;" horiz-adv-x="0" 
d="M-483 -45h156l42 -53c37 -46 49 -55 92 -55h60c17 0 28 7 28 33c0 25 -10 32 -27 32h-96v108h110c91 0 135 -37 135 -139c1 -99 -41 -140 -135 -140h-93c-66 0 -114 15 -176 93z" />
    <glyph glyph-name="dvmUU" unicode="&#x942;" horiz-adv-x="0" 
d="M-55 -161v-108h-91c-91 0 -137 37 -137 139c0 99 43 140 137 140h56c66 0 112 -15 174 -93l126 -160h-153l-71 92c-37 46 -49 55 -92 55h-25c-16 0 -28 -7 -28 -33c0 -25 11 -32 27 -32h77z" />
    <glyph glyph-name="dvmvR" unicode="&#x943;" horiz-adv-x="0" 
d="M-161 -127c-23 0 -35 -7 -35 -40s12 -40 35 -40h120v-128h-116c-123 0 -177 60 -177 168s54 168 177 168h115v-128h-119z" />
    <glyph glyph-name="dvmE" unicode="&#x947;" horiz-adv-x="0" 
d="M-184 671l-165 230h155l152 -230h-142z" />
    <glyph glyph-name="dvmAI" unicode="&#x948;" horiz-adv-x="0" 
d="M-169 671h-140l-187 230h154zM-42 671h-120l-86 230h134z" />
    <glyph glyph-name="dvmEcandra" unicode="&#x945;" horiz-adv-x="0" 
d="M-41 906h139v-5c0 -113 -71 -167 -209 -167s-211 54 -211 167v5h140c0 -36 20 -51 71 -51c48 0 70 15 70 51z" />
    <glyph glyph-name="dvmCANDRA" unicode="&#x949;" 
d="M77 901h140v-5c0 -113 -72 -167 -210 -167c-136 0 -209 54 -209 167v5h139c0 -36 20 -51 70 -51c48 0 70 15 70 51zM42 554h-82v117h304v-117h-82v-554h-140v554z" />
    <glyph glyph-name="dvmO" unicode="&#x94b;" 
d="M42 554h-82v117h69l-165 230h155l152 -230h93v-117h-82v-554h-140v554z" />
    <glyph glyph-name="dvmAU" unicode="&#x94c;" 
d="M42 554h-178v117h46l-187 230h154l171 -230h7l-85 230h133l73 -230h88v-117h-82v-554h-140v554z" />
    <glyph glyph-name="dvmEshort" unicode="&#x946;" horiz-adv-x="0" 
d="M-42 671h-139c0 38 -11 59 -68 59c-138 0 -201 38 -201 171h140c0 -38 12 -58 69 -58c138 0 199 -49 199 -172z" />
    <glyph glyph-name="dvmOshort" unicode="&#x94a;" 
d="M42 554h-82v117h82c0 38 -11 59 -67 59c-137 0 -200 38 -200 171h139c0 -38 12 -58 69 -58c137 0 199 -49 199 -172h82v-117h-82v-554h-140v554z" />
    <glyph glyph-name="dvKA" unicode="&#x915;" horiz-adv-x="630" 
d="M426 61v130c33 0 39 5 39 38v114c0 25 -7 42 -42 42s-42 -17 -42 -42v-343h-137v65c-13 -8 -38 -14 -60 -14c-110 0 -156 48 -156 151v146c0 103 46 157 156 157c22 0 47 -6 60 -15v64h-284v117h709v-117h-288v-64c15 9 41 15 61 15c110 0 156 -54 156 -157v-133
c0 -103 -39 -156 -152 -156c-7 0 -15 1 -20 2zM203 166c35 0 42 17 42 42v135c0 25 -7 42 -42 42s-42 -17 -42 -42v-135c0 -25 7 -42 42 -42z" />
    <glyph glyph-name="dvKHA" unicode="&#x916;" horiz-adv-x="793" 
d="M-40 554v117h872v-117h-83v-554h-136v109c-13 -9 -37 -10 -52 -10c-20 0 -38 1 -54 4c-31 -67 -99 -103 -205 -103h-28c-163 0 -241 65 -241 198v253h133v-64c0 -23 4 -38 37 -38s37 15 37 38v128c0 23 -6 39 -39 39h-241zM613 484v70h-247c2 -12 3 -25 3 -39v-133
c0 -103 -31 -156 -144 -156c-15 0 -46 5 -59 14v-37c0 -53 34 -79 107 -79h16c75 0 113 27 113 80v130c0 103 29 162 152 162c16 0 43 -3 59 -12zM570 375c-35 0 -43 -16 -43 -40v-79c0 -24 8 -40 43 -40s43 16 43 40v79c0 24 -8 40 -43 40z" />
    <glyph glyph-name="dvGA" unicode="&#x917;" horiz-adv-x="494" 
d="M-40 554v117h573v-117h-81v-554h-140v554h-78v-219c0 -115 -67 -167 -169 -167c-17 0 -36 2 -55 5v136c10 -3 23 -5 34 -5c30 0 50 12 50 43v207h-134z" />
    <glyph glyph-name="dvGHA" unicode="&#x918;" horiz-adv-x="505" 
d="M544 671v-117h-81v-554h-140v80c-25 -15 -58 -23 -100 -23c-131 0 -188 68 -188 160v51c0 54 15 85 44 102c-25 19 -38 49 -38 95v50c0 13 3 27 10 39h-91v117h584zM323 554h-103c-33 0 -39 -16 -39 -39v-45c0 -23 6 -39 39 -39h44v-129h-50c-33 0 -39 -16 -39 -39v-28
c0 -41 27 -53 72 -53s76 12 76 54v318z" />
    <glyph glyph-name="dvNGA" unicode="&#x919;" horiz-adv-x="554" 
d="M238 554h-278v117h633v-117h-215v-170h-174c-22 0 -29 -12 -29 -31v-2c0 -19 6 -31 29 -31h25c123 0 179 -46 179 -149v-23c0 -103 -56 -153 -184 -153s-186 49 -186 152v17h140v-11c0 -23 7 -38 45 -38s45 15 45 38v13c0 20 -6 37 -39 37h-25c-108 0 -169 38 -169 141
v18c0 103 56 142 169 142h34v50zM396 318c0 42 16 75 75 75c58 0 75 -33 75 -75s-17 -75 -75 -75c-59 0 -75 33 -75 75z" />
    <glyph glyph-name="dvCA" unicode="&#x91a;" horiz-adv-x="489" 
d="M207 332v-108c0 -30 10 -48 50 -48s50 18 50 48v330h-347v117h568v-117h-81v-554h-140v68c-22 -11 -52 -15 -73 -15c-115 0 -167 53 -167 166v107c0 17 3 29 10 39h-64v126h258v-120h-30c-29 0 -34 -17 -34 -39z" />
    <glyph glyph-name="dvCHA" unicode="&#x91b;" horiz-adv-x="555" 
d="M515 347v-172c0 -123 -57 -178 -238 -178c-175 0 -242 50 -242 163v23c0 41 15 73 44 91c-26 17 -39 47 -39 94v130c0 20 5 40 16 56h-96v117h634v-117h-133v-75c40 -21 54 -65 54 -132zM379 182v140c0 48 -20 64 -59 64c-38 0 -53 -9 -53 -9v114s24 10 64 10v53h-100
c-49 0 -51 -25 -51 -59v-121c0 -23 6 -39 39 -39h77v-122h-72c-33 0 -48 -5 -48 -42v-2c0 -37 12 -47 101 -47s102 20 102 60z" />
    <glyph glyph-name="dvJA" unicode="&#x91c;" horiz-adv-x="637" 
d="M165 292v-78c0 -23 6 -39 39 -39s39 16 39 39v109c0 23 -6 39 -39 39h-76v129h327v63h-495v117h716v-117h-81v-554h-140v371h-81c6 -16 9 -32 9 -50v-112c0 -103 -56 -161 -179 -161s-179 60 -179 163v81h140z" />
    <glyph glyph-name="dvJHA" unicode="&#x91d;" horiz-adv-x="648" 
d="M220 211h-11c-108 0 -169 38 -169 141v10c0 103 56 142 169 142h39v50h-288v117h727v-117h-81v-554h-140v220h-78c8 -12 13 -32 13 -51v-25c0 -115 -60 -149 -155 -149c-22 0 -49 5 -70 13v-89h-138v250h138v-14c0 -25 9 -39 44 -39s44 14 44 39v15c0 26 -9 41 -44 41z
M209 328h257v226h-78v-170h-179c-22 0 -29 -7 -29 -26v-2c0 -19 6 -28 29 -28z" />
    <glyph glyph-name="dvNYA" unicode="&#x91e;" horiz-adv-x="633" 
d="M451 554h-491v117h712v-117h-81v-554h-140v218h-73v-5c0 -101 -62 -161 -174 -161c-123 0 -174 60 -174 163v26h140v-21c0 -23 1 -39 34 -39s34 16 34 39v118c0 23 -1 39 -34 39s-34 -16 -34 -39v-23h-140v28c0 103 51 163 174 163s174 -60 174 -163v-5h73v216z" />
    <glyph glyph-name="dvTTA" unicode="&#x91f;" horiz-adv-x="418" 
d="M367 364h-155c-33 0 -37 -14 -37 -37v-168c0 -23 6 -39 39 -39s39 16 39 39v84h140v-85c0 -103 -56 -163 -179 -163s-179 60 -179 163v174c0 113 54 159 177 159h15v63h-267v117h497v-117h-90v-190z" />
    <glyph glyph-name="dvTTHA" unicode="&#x920;" horiz-adv-x="428" 
d="M393 354v-196c0 -103 -56 -163 -179 -163s-179 60 -179 163v196c0 81 34 131 109 148v52h-184v117h507v-117h-183v-52c74 -17 109 -67 109 -148zM258 156v193c0 24 -9 42 -44 42s-44 -18 -44 -42v-193c0 -24 9 -42 44 -42s44 18 44 42z" />
    <glyph glyph-name="dvDDA" unicode="&#x921;" horiz-adv-x="429" 
d="M237 554h-277v117h509v-117h-92v-170h-174c-22 0 -29 -12 -29 -31v-2c0 -19 6 -31 29 -31h25c123 0 179 -46 179 -149v-23c0 -103 -56 -153 -184 -153s-186 49 -186 152v17h140v-11c0 -23 7 -38 45 -38s45 15 45 38v13c0 20 -6 37 -39 37h-25c-108 0 -169 38 -169 141v18
c0 103 56 142 169 142h34v50z" />
    <glyph glyph-name="dvDDHA" unicode="&#x922;" horiz-adv-x="435" 
d="M209 499h36v55h-285v117h514v-117h-91v-182h-174c-33 0 -37 -14 -37 -37v-163c0 -31 8 -49 50 -49s50 16 50 47v2c0 28 -13 34 -33 34c-18 0 -29 -8 -29 -8v123s19 8 48 8c98 0 148 -39 148 -152v-15c0 -113 -54 -167 -184 -167s-188 59 -188 172v173
c0 113 52 159 175 159z" />
    <glyph glyph-name="dvNNA" unicode="&#x923;" horiz-adv-x="651" 
d="M391 554v-288c0 -103 -55 -163 -178 -163s-178 60 -178 163v288h-75v117h731v-117h-82v-554h-140v554h-78zM251 554h-76v-287c0 -23 5 -39 38 -39s38 16 38 39v287z" />
    <glyph glyph-name="dvTA" unicode="&#x924;" horiz-adv-x="463" 
d="M35 154v169c0 103 50 173 173 173c28 0 57 -4 73 -11v69h-321v117h543v-117h-82v-554h-140v318c0 29 -11 49 -53 49s-53 -20 -53 -49v-150c0 -33 16 -38 49 -38v-130c-11 -1 -22 -2 -30 -2c-124 0 -159 53 -159 156z" />
    <glyph glyph-name="dvTHA" unicode="&#x925;" horiz-adv-x="598" 
d="M301 202c94 0 115 34 115 121v348h222v-117h-82v-554h-140v103c-34 -20 -81 -29 -142 -29c-160 0 -239 85 -239 217v131h133c57 0 72 19 72 61v32c0 23 -5 36 -30 36s-30 -13 -30 -36v-34h-133v29c0 103 46 166 159 166s160 -57 160 -160v-58c0 -98 -51 -157 -177 -157
h-11v-5c0 -65 25 -94 123 -94z" />
    <glyph glyph-name="dvDA" unicode="&#x926;" horiz-adv-x="430" 
d="M30 217v119c0 120 58 159 181 159h32v59h-283v117h510v-117h-87v-186h-172c-35 0 -41 -13 -41 -37v-109c0 -24 6 -38 41 -38s41 13 41 38v56h140v-278h-140v73c-19 -9 -46 -12 -61 -12c-113 0 -161 53 -161 156z" />
    <glyph glyph-name="dvDHA" unicode="&#x927;" horiz-adv-x="505" 
d="M264 302h-50c-33 0 -39 -16 -39 -39v-28c0 -41 27 -53 72 -53s76 12 76 54v435h222v-117h-82v-554h-140v80c-25 -15 -58 -23 -100 -23c-131 0 -188 68 -188 160v51c0 54 15 85 44 102c-25 19 -38 49 -38 95v50c0 13 3 27 10 39h-91v117h293v-117h-33
c-33 0 -39 -16 -39 -39v-45c0 -23 6 -39 39 -39h44v-129z" />
    <glyph glyph-name="dvNA" unicode="&#x928;" horiz-adv-x="608" 
d="M366 328v-113c0 -103 -44 -163 -167 -163s-169 60 -169 163v113c0 103 46 163 169 163h227v63h-466v117h688v-117h-82v-554h-140v362h-65c4 -9 5 -21 5 -34zM235 216v107c0 23 -5 39 -36 39s-36 -16 -36 -39v-107c0 -23 5 -39 36 -39s36 16 36 39z" />
    <glyph glyph-name="dvPA" unicode="&#x92a;" horiz-adv-x="445" 
d="M263 0v126c-19 -8 -45 -12 -70 -12c-118 0 -156 55 -156 158v282h-77v117h525v-117h-82v-554h-140zM263 554h-86v-276c0 -23 7 -40 43 -40s43 17 43 40v276z" />
    <glyph glyph-name="dvPHA" unicode="&#x92b;" horiz-adv-x="644" 
d="M438 59v130c30 0 36 9 36 39v105c0 23 -6 39 -39 39s-39 -16 -39 -39v-333h-140v111c-17 -7 -42 -11 -59 -11c-113 0 -159 53 -159 156v298h-78v117h724v-117h-288v-66c17 8 41 13 59 13c113 0 159 -60 159 -163v-124c0 -103 -46 -156 -159 -156c-6 0 -11 0 -17 1z
M256 554h-78v-293c0 -23 6 -38 39 -38s39 15 39 38v293z" />
    <glyph glyph-name="dvBA" unicode="&#x92c;" horiz-adv-x="470" 
d="M295 0v66c-21 -9 -47 -13 -78 -13c-123 0 -187 39 -187 168v117c0 129 64 168 187 168c31 0 57 -4 78 -13v61h-335v117h550v-117h-82v-554h-133zM229 391c-28 0 -45 -6 -54 -18l120 -105v64c0 36 -13 59 -66 59zM163 227c0 -36 13 -59 66 -59c28 0 44 6 54 17l-120 106
v-64z" />
    <glyph glyph-name="dvBHA" unicode="&#x92d;" horiz-adv-x="648" 
d="M248 434v74c0 23 -3 39 -36 39s-36 -16 -36 -39v-32h-140v37c0 103 53 163 176 163s176 -60 176 -163v-79h78v237h222v-117h-82v-554h-140v316h-84v-109c0 -93 -50 -153 -173 -153s-173 60 -173 153v75c0 93 50 152 173 152h39zM248 212v104h-39c-33 0 -39 -16 -39 -39
v-65c0 -23 6 -39 39 -39s39 16 39 39z" />
    <glyph glyph-name="dvMA" unicode="&#x92e;" horiz-adv-x="624" 
d="M445 0v328h-74v-120c0 -93 -50 -153 -173 -153s-173 60 -173 153v86c0 93 50 152 173 152h39v108h-277v117h704v-117h-82v-554h-137zM371 446h74v108h-74v-108zM237 213v115h-39c-33 0 -39 -16 -39 -39v-76c0 -23 6 -39 39 -39s39 16 39 39z" />
    <glyph glyph-name="dvYA" unicode="&#x92f;" horiz-adv-x="527" 
d="M-40 554v117h607v-117h-82v-554h-140v109c-27 -15 -61 -23 -102 -23c-139 0 -213 71 -213 184v126h24c68 0 89 13 89 63v41c0 29 -3 54 -39 54h-144zM255 216c72 0 90 29 90 74v264h-76c8 -14 10 -32 10 -54v-70c0 -77 -35 -118 -112 -122v-18c0 -45 17 -74 88 -74z" />
    <glyph glyph-name="dvRA" unicode="&#x930;" horiz-adv-x="438" 
d="M180 280v-117c0 -25 6 -42 41 -42s41 17 41 42v31h140v-36c0 -103 -57 -163 -180 -163s-182 60 -182 163v312h140v-43c0 -23 6 -38 39 -38s39 15 39 38v88c0 23 -6 39 -39 39h-259v117h517v-117h-88c5 -8 9 -25 9 -39v-93c0 -103 -46 -156 -159 -156c-15 0 -46 5 -59 14z
" />
    <glyph glyph-name="dvLA" unicode="&#x932;" horiz-adv-x="653" 
d="M35 178v153c0 103 56 163 174 163c71 0 99 -31 111 -55c12 24 39 54 98 54c20 0 44 -5 53 -14v75h-511v117h733v-117h-82v-554h-140v326c0 23 -6 39 -39 39s-39 -16 -39 -39v-114h-140v114c0 23 -6 39 -39 39s-39 -16 -39 -39v-145c0 -33 6 -59 69 -59h60l1 -122h-69
c-149 0 -201 55 -201 178z" />
    <glyph glyph-name="dvVA" unicode="&#x935;" horiz-adv-x="447" 
d="M405 554v-554h-140v63c-14 -6 -44 -11 -66 -11c-123 0 -164 56 -164 159v135c0 103 45 160 164 160c22 0 52 -5 66 -11v59h-305v117h527v-117h-82zM272 214v131c0 30 -15 43 -50 43s-51 -13 -51 -43v-131c0 -30 16 -44 51 -44s50 14 50 44z" />
    <glyph glyph-name="dvSHA" unicode="&#x936;" horiz-adv-x="641" 
d="M398 513v-111c0 -103 -41 -160 -155 -160c-20 0 -52 4 -63 10v-91c0 -23 8 -37 41 -37s41 14 41 37v23h140v-26c0 -103 -58 -163 -181 -163s-181 60 -181 163v256h140v-17c0 -19 9 -31 39 -31c33 0 39 15 39 38v104c0 23 -6 39 -39 39s-39 -16 -39 -39v-41h-140v46
c0 103 56 163 179 163s179 -60 179 -163zM459 671h222v-117h-82v-554h-140v671z" />
    <glyph glyph-name="dvSSA" unicode="&#x937;" horiz-adv-x="469" 
d="M35 554h-75v117h549v-117h-82v-554h-140v129c-13 -9 -61 -14 -76 -14c-123 0 -176 62 -176 165v274zM287 554h-112v-59l112 -98v157zM175 286c0 -33 13 -48 56 -48s56 15 56 48v15l-112 98v-113z" />
    <glyph glyph-name="dvSA" unicode="&#x938;" horiz-adv-x="642" 
d="M-40 554v117h722v-117h-82v-554h-140v262h-132c-22 -16 -55 -24 -87 -24c-25 0 -50 4 -68 14v-92c0 -23 6 -39 39 -39s39 16 39 39v20h137v-22c0 -103 -53 -163 -176 -163s-176 60 -176 163v297h137v-56c0 -23 3 -38 36 -38s36 15 36 38v116c0 22 -5 39 -34 39h-251z
M382 502v-120h78v172h-89c9 -12 11 -32 11 -52z" />
    <glyph glyph-name="dvHA" unicode="&#x939;" horiz-adv-x="448" 
d="M38 151v24c0 48 15 78 43 97c-27 16 -43 43 -44 87v18c0 96 56 131 169 131h47v46h-293v117h528v-117h-95v-166h-187c-20 0 -29 -6 -29 -23v-8c0 -17 9 -23 29 -23h73c102 0 139 -46 139 -137v-31h-123v18c0 26 -7 35 -34 35h-44c-33 0 -39 -16 -39 -39v-20
c0 -33 20 -46 66 -46c71 0 111 4 159 14v-118c-47 -11 -102 -17 -169 -17c-135 0 -196 57 -196 158z" />
    <glyph glyph-name="dvLLA" unicode="&#x933;" horiz-adv-x="624" 
d="M589 333v-175c0 -103 -44 -163 -162 -163c-48 0 -86 16 -111 45c-27 -29 -65 -45 -113 -45c-118 0 -168 60 -168 163v179c1 103 50 159 168 159c48 0 86 -16 113 -46c12 14 26 25 43 32v72h-399v117h704v-117h-165v-68c64 -21 90 -75 90 -153zM167 331v-171
c0 -25 6 -42 41 -42s41 17 41 42v171c0 25 -6 42 -41 42s-41 -17 -41 -42zM381 331v-171c0 -25 6 -42 41 -42s41 17 41 42v171c0 25 -6 42 -41 42s-41 -17 -41 -42z" />
    <glyph glyph-name="dvK_SSA" horiz-adv-x="653" 
d="M396 517v-30c0 -32 -2 -44 -6 -52h81v236h222v-117h-82v-554h-140v320h-248c-42 0 -45 -22 -45 -56v-51c0 -23 8 -39 41 -39s41 16 41 39v38h133v-251h-133v64c-20 -8 -42 -12 -66 -12c-113 0 -159 60 -159 163v70c0 42 11 82 53 102c-22 15 -30 47 -30 101v29
c0 103 53 159 171 159s167 -56 167 -159zM264 469v47c0 23 -3 40 -35 40s-35 -17 -35 -40v-47c0 -23 3 -40 35 -40s35 17 35 40z" />
    <glyph glyph-name="dvJ_NYA" horiz-adv-x="642" 
d="M35 283h135v-43c0 -23 3 -39 39 -39s39 16 39 39v83c0 23 -6 39 -39 39h-79v129h330v63h-500v117h722v-117h-82v-554h-140v371h-82c7 -15 10 -32 10 -50v-89c0 -110 -61 -159 -151 -159c-29 0 -44 2 -67 8v-81h-135v283z" />
    <glyph glyph-name="dvKxA" unicode="&#x958;" horiz-adv-x="638" 
d="M436 61v130c33 0 39 5 39 38v114c0 25 -7 42 -42 42s-42 -17 -42 -42v-343h-137v65c-13 -8 -38 -14 -60 -14c-110 0 -156 48 -156 151v146c0 103 46 157 156 157c22 0 47 -6 60 -15v64h-294v117h718v-117h-287v-64c15 9 41 15 61 15c110 0 156 -54 156 -157v-133
c0 -103 -39 -156 -152 -156c-7 0 -15 1 -20 2zM213 166c35 0 42 17 42 42v135c0 25 -7 42 -42 42s-42 -17 -42 -42v-135c0 -25 7 -42 42 -42zM69 -55c0 42 16 75 75 75c58 0 75 -33 75 -75s-17 -75 -75 -75c-59 0 -75 33 -75 75z" />
    <glyph glyph-name="dvKHxA" unicode="&#x959;" horiz-adv-x="796" 
d="M-40 554v117h876v-117h-82v-554h-136v109c-13 -9 -37 -10 -52 -10c-20 0 -38 1 -54 4c-31 -67 -99 -103 -205 -103h-28c-163 0 -241 65 -241 198v253h133v-64c0 -23 4 -38 37 -38s37 15 37 38v128c0 23 -6 39 -39 39h-246zM618 484v70h-247c2 -12 3 -25 3 -39v-133
c0 -103 -31 -156 -144 -156c-15 0 -46 5 -59 14v-37c0 -53 34 -79 107 -79h16c75 0 113 27 113 80v130c0 103 29 162 152 162c16 0 43 -3 59 -12zM575 375c-35 0 -43 -16 -43 -40v-79c0 -24 8 -40 43 -40s43 16 43 40v79c0 24 -8 40 -43 40zM-23 -71c0 42 16 75 73 75
c58 0 75 -33 75 -75s-17 -75 -75 -75c-57 0 -73 33 -73 75z" />
    <glyph glyph-name="dvGxA" unicode="&#x95a;" horiz-adv-x="502" 
d="M-40 554v117h582v-117h-82v-554h-140v554h-78v-219c0 -115 -67 -167 -169 -167c-17 0 -36 2 -55 5v136c10 -3 23 -5 34 -5c30 0 50 12 50 43v207h-142zM52 34c0 42 16 75 75 75c58 0 75 -33 75 -75s-17 -75 -75 -75c-59 0 -75 33 -75 75z" />
    <glyph glyph-name="dvJxA" unicode="&#x95b;" horiz-adv-x="637" 
d="M165 292v-78c0 -23 6 -39 39 -39s39 16 39 39v109c0 23 -6 39 -39 39h-76v129h327v63h-495v117h717v-117h-82v-554h-140v371h-81c6 -16 9 -32 9 -50v-112c0 -103 -56 -161 -179 -161s-179 60 -179 163v81h140zM-61 -34c0 42 17 75 76 75c58 0 74 -33 74 -75
s-17 -75 -75 -75c-59 0 -75 33 -75 75z" />
    <glyph glyph-name="dvDDxA" unicode="&#x95c;" horiz-adv-x="430" 
d="M237 554h-277v117h509v-117h-92v-170h-174c-22 0 -29 -12 -29 -31v-2c0 -19 6 -31 29 -31h25c123 0 179 -46 179 -149v-23c0 -103 -56 -153 -184 -153s-186 49 -186 152v17h140v-11c0 -23 7 -38 45 -38s45 15 45 38v13c0 20 -6 37 -39 37h-25c-108 0 -169 38 -169 141v18
c0 103 56 142 169 142h34v50zM150 -124c0 42 16 75 75 75c58 0 75 -33 75 -75s-17 -75 -75 -75c-59 0 -75 33 -75 75z" />
    <glyph glyph-name="dvDDHxA" unicode="&#x95d;" horiz-adv-x="435" 
d="M209 499h36v55h-285v117h514v-117h-91v-182h-174c-33 0 -37 -14 -37 -37v-163c0 -31 8 -49 50 -49s50 16 50 47v2c0 28 -13 34 -33 34c-18 0 -29 -8 -29 -8v123s19 8 48 8c98 0 148 -39 148 -152v-15c0 -113 -54 -167 -184 -167s-188 59 -188 172v173
c0 113 52 159 175 159zM150 -124c0 42 16 75 75 75c58 0 75 -33 75 -75s-17 -75 -75 -75c-59 0 -75 33 -75 75z" />
    <glyph glyph-name="dvNxA" unicode="&#x929;" horiz-adv-x="613" 
d="M371 328v-113c0 -103 -44 -163 -167 -163s-169 60 -169 163v113c0 103 46 163 169 163h227v63h-471v117h693v-117h-82v-554h-140v362h-65c4 -9 5 -21 5 -34zM240 216v107c0 23 -5 39 -36 39s-36 -16 -36 -39v-107c0 -23 5 -39 36 -39s36 16 36 39zM-28 -53
c0 42 16 75 75 75c58 0 75 -33 75 -75s-17 -75 -75 -75c-59 0 -75 33 -75 75z" />
    <glyph glyph-name="dvPHxA" unicode="&#x95e;" horiz-adv-x="656" 
d="M450 59v130c30 0 36 9 36 39v105c0 23 -6 39 -39 39s-39 -16 -39 -39v-333h-140v111c-17 -7 -42 -11 -59 -11c-113 0 -159 53 -159 156v298h-90v117h736v-117h-288v-66c17 8 41 13 59 13c113 0 159 -60 159 -163v-124c0 -103 -46 -156 -159 -156c-6 0 -11 0 -17 1z
M268 554h-78v-293c0 -23 6 -38 39 -38s39 15 39 38v293zM21 -24c0 42 16 75 75 75c58 0 75 -33 75 -75s-17 -75 -75 -75c-59 0 -75 33 -75 75z" />
    <glyph glyph-name="dvYxA" unicode="&#x95f;" horiz-adv-x="535" 
d="M-40 554v117h615v-117h-82v-554h-140v109c-27 -15 -61 -23 -102 -23c-139 0 -213 71 -213 184v126h24c68 0 89 13 89 63v41c0 29 -3 54 -39 54h-152zM263 216c72 0 90 29 90 74v264h-76c8 -14 10 -32 10 -54v-70c0 -77 -35 -118 -112 -122v-18c0 -45 17 -74 88 -74z
M-19 8c0 42 15 75 73 75s75 -33 75 -75s-17 -75 -75 -75c-57 0 -73 33 -73 75z" />
    <glyph glyph-name="dvRxA" unicode="&#x931;" horiz-adv-x="447" 
d="M189 280v-117c0 -25 6 -42 41 -42s41 17 41 42v31h140v-36c0 -103 -57 -163 -180 -163s-182 60 -182 163v312h140v-43c0 -23 6 -38 39 -38s39 15 39 38v88c0 23 -6 39 -39 39h-268v117h526v-117h-88c5 -8 9 -25 9 -39v-93c0 -103 -46 -156 -159 -156c-15 0 -46 5 -59 14z
M-48 -96c0 42 16 75 73 75c58 0 75 -33 75 -75s-17 -75 -75 -75c-57 0 -73 33 -73 75z" />
    <glyph glyph-name="dvLLxA" unicode="&#x934;" horiz-adv-x="624" 
d="M589 333v-175c0 -103 -44 -163 -162 -163c-48 0 -86 16 -111 45c-27 -29 -65 -45 -113 -45c-118 0 -168 60 -168 163v179c1 103 50 159 168 159c48 0 86 -16 113 -46c12 14 26 25 43 32v72h-399v117h704v-117h-165v-68c64 -21 90 -75 90 -153zM167 331v-171
c0 -25 6 -42 41 -42s41 17 41 42v171c0 25 -6 42 -41 42s-41 -17 -41 -42zM381 331v-171c0 -25 6 -42 41 -42s41 17 41 42v171c0 25 -6 42 -41 42s-41 -17 -41 -42zM241 -124c0 42 16 75 75 75c58 0 75 -33 75 -75s-17 -75 -75 -75c-59 0 -75 33 -75 75z" />
    <glyph glyph-name="dvAnusvara" unicode="&#x902;" horiz-adv-x="0" 
d="M-187 802c0 42 16 75 75 75c57 0 74 -33 74 -75s-17 -75 -74 -75c-59 0 -75 33 -75 75z" />
    <glyph glyph-name="dvCandrabindu" unicode="&#x901;" horiz-adv-x="0" 
d="M-181 980c0 40 14 70 70 70s70 -30 70 -70s-14 -70 -70 -70s-70 30 -70 70zM-41 906h139v-5c0 -113 -71 -167 -209 -167s-211 54 -211 167v5h140c0 -36 20 -51 71 -51c48 0 70 15 70 51z" />
    <glyph glyph-name="dvVisarga" unicode="&#x903;" horiz-adv-x="249" 
d="M49 418c0 42 16 75 75 75c58 0 75 -33 75 -75s-17 -75 -75 -75c-59 0 -75 33 -75 75zM49 75c0 42 16 75 75 75c58 0 75 -33 75 -75s-16 -75 -74 -75c-59 0 -76 33 -76 75z" />
    <glyph glyph-name="dvVirama" unicode="&#x94d;" horiz-adv-x="0" 
d="M83 -229h-144l-111 171h126z" />
    <glyph glyph-name="dvNukta" unicode="&#x93c;" horiz-adv-x="0" 
d="M-279 -124c0 42 16 75 75 75c58 0 75 -33 75 -75s-17 -75 -75 -75c-59 0 -75 33 -75 75z" />
    <glyph glyph-name="dvAvagraha" unicode="&#x93d;" horiz-adv-x="421" 
d="M396 189v-21c0 -113 -54 -173 -177 -173h-18c-123 0 -179 60 -179 173v55h140v-60c0 -20 8 -38 44 -38h6c36 0 44 18 44 38v29c0 34 -8 47 -36 67l-125 89c-46 33 -72 79 -72 137v26c0 103 45 160 168 160h180v-130h-169c-34 0 -39 -17 -39 -38v-11c0 -30 11 -42 37 -61
l121 -86c66 -47 75 -88 75 -156z" />
    <glyph glyph-name="dvGrave" unicode="&#x953;" horiz-adv-x="337" 
d="M25 981h148l130 -260h-148z" />
    <glyph glyph-name="dvAcute" unicode="&#x954;" horiz-adv-x="335" 
d="M155 981h148l-130 -260h-148z" />
    <glyph glyph-name="dvZero" unicode="&#x966;" horiz-adv-x="442" 
d="M220 674c131 0 179 -63 179 -166v-345c0 -103 -48 -166 -179 -166c-128 0 -179 65 -179 168v341c0 103 51 168 179 168zM220 545c-36 0 -42 -16 -42 -39v-341c0 -23 6 -39 42 -39s42 16 42 39v341c0 23 -6 39 -42 39z" />
    <glyph glyph-name="dvOne" unicode="&#x967;" horiz-adv-x="306" 
d="M264 0h-140v514l-114 -80v157l114 80h140v-671z" />
    <glyph glyph-name="dvTwo" unicode="&#x968;" horiz-adv-x="424" 
d="M35 0l-1 190c0 57 27 83 71 115l115 83c30 22 32 33 32 69v51c0 23 -6 39 -39 39s-39 -16 -39 -39v-64h-140v69c0 103 61 163 179 163c121 0 179 -60 179 -163v-80c0 -59 -21 -95 -62 -124l-110 -79c-41 -29 -46 -38 -46 -78v-22h219v-130h-358z" />
    <glyph glyph-name="dvThree" unicode="&#x969;" horiz-adv-x="420" 
d="M169 508v-25h-140v30c0 103 61 163 179 163c121 0 179 -60 179 -163v-57c0 -46 -11 -80 -44 -102c29 -19 44 -52 44 -105v-91c0 -103 -58 -163 -179 -163c-118 0 -179 60 -179 163v66h140v-61c0 -23 6 -39 39 -39s39 16 39 39v86c0 23 -6 39 -39 39h-48v129h48
c33 0 39 16 39 39v52c0 23 -6 39 -39 39s-39 -16 -39 -39z" />
    <glyph glyph-name="dvFour" unicode="&#x96a;" horiz-adv-x="462" 
d="M9 117v133l139 421h230l1 -432h62v-122h-62v-117h-137l-1 117h-232zM139 239h108v346z" />
    <glyph glyph-name="dvFive" unicode="&#x96b;" horiz-adv-x="425" 
d="M34 196h140v-33c0 -20 3 -38 40 -38s40 18 40 38v131c0 20 -2 38 -38 38s-38 -18 -38 -38v-8h-140v385h346v-117h-206v-104c16 8 34 12 52 12c113 0 164 -60 164 -163v-141c0 -103 -66 -163 -180 -163c-113 0 -180 60 -180 163v38z" />
    <glyph glyph-name="dvSix" unicode="&#x96c;" horiz-adv-x="437" 
d="M392 487h-140v21c0 23 -6 39 -39 39s-39 -16 -39 -39v-79c15 6 31 9 48 9c125 0 179 -60 179 -163v-118c0 -103 -61 -162 -183 -162s-184 60 -184 163v355c0 103 61 163 179 163c121 0 179 -60 179 -163v-26zM261 163v107c0 20 -8 38 -44 38s-43 -18 -43 -38v-107
c0 -20 7 -38 43 -38s44 18 44 38z" />
    <glyph glyph-name="dvSeven" unicode="&#x96d;" horiz-adv-x="370" 
d="M204 0h-140l148 549h-203v122h345v-117z" />
    <glyph glyph-name="dvEight" unicode="&#x96e;" horiz-adv-x="426" 
d="M34 156v89c0 47 16 76 43 93c-27 16 -43 45 -43 92v85c0 103 66 161 178 161s178 -58 178 -161v-85c0 -47 -16 -76 -43 -93c27 -16 43 -45 43 -92v-89c0 -103 -66 -161 -178 -161s-178 58 -178 161zM255 430v80c0 23 -8 40 -43 40s-43 -17 -43 -40v-80
c0 -23 8 -40 43 -40s43 17 43 40zM255 161v84c0 23 -8 40 -43 40s-43 -17 -43 -40v-84c0 -23 8 -40 43 -40s43 17 43 40z" />
    <glyph glyph-name="dvNine" unicode="&#x96f;" horiz-adv-x="437" 
d="M43 201h140v-38c0 -23 6 -39 39 -39s39 16 39 39v84c-13 -5 -32 -7 -48 -7c-125 0 -179 60 -179 163v111c0 103 67 162 184 162c116 0 183 -60 183 -163v-355c0 -103 -60 -163 -178 -163c-121 0 -180 60 -180 163v43zM174 508v-100c0 -20 8 -38 44 -38s43 18 43 38v100
c0 20 -7 38 -43 38c-37 0 -44 -18 -44 -38z" />
    <glyph glyph-name="dvAbbreviationsign" unicode="&#x970;" horiz-adv-x="440" 
d="M42 324c0 106 51 178 177 178s178 -72 178 -178s-52 -177 -178 -177s-177 71 -177 177zM166 324c0 -45 13 -64 53 -64s54 19 54 64s-14 65 -54 65s-53 -20 -53 -65z" />
    <glyph glyph-name="rupee" unicode="&#x20a8;" horiz-adv-x="495" 
d="M46 353h162c35 0 44 18 44 42v8h-206v101h206v11c0 23 -6 39 -39 39h-168v117h416v-117h-86c11 -13 13 -30 13 -44v-6h74v-101h-74v-13c0 -103 -52 -151 -175 -151h-11l196 -239h-164l-188 237v116z" />
    <glyph glyph-name="ITF" horiz-adv-x="1734" 
d="M147 0v671h207v-671h-207zM397 475v196h207v-196h-207zM647 0v671h207v-671h-207zM896 475v196h208v-196h-208zM1146 0v671h208v-671h-208zM1396 475v196h207v-196h-207zM1396 237v196h207v-196h-207z" />
    <glyph glyph-name="dvReph" horiz-adv-x="0" 
d="M-42 671h-124s-29 33 -29 93c0 94 70 145 170 145c34 0 68 -3 68 -3v-118s-19 3 -43 3c-40 0 -65 -20 -65 -58c0 -37 23 -62 23 -62z" />
    <glyph glyph-name="dvRAc2" horiz-adv-x="0" 
d="M-176 -99l-37 101l-38 -101h-143l59 129h243l59 -129h-143z" />
    <glyph glyph-name="dvK" horiz-adv-x="448" 
d="M620 349v-6h-123v6c0 22 -15 36 -57 36c-45 0 -57 -17 -57 -42v-343h-137v65c-13 -8 -38 -14 -60 -14c-110 0 -156 48 -156 151v146c0 103 46 157 156 157c22 0 47 -6 60 -15v64h-286v117h709v-117h-286v-66c16 9 40 15 73 15c120 0 164 -55 164 -154zM205 166
c35 0 42 17 42 42v135c0 25 -7 42 -42 42s-42 -17 -42 -42v-135c0 -25 7 -42 42 -42z" />
    <glyph glyph-name="dvKH" horiz-adv-x="579" 
d="M740 256c0 -103 -35 -157 -168 -157c-26 0 -45 5 -59 13c-29 -73 -98 -112 -209 -112h-28c-163 0 -241 65 -241 198v253h133v-64c0 -23 4 -38 37 -38s37 15 37 38v128c0 23 -6 39 -39 39h-243v117h780v-117h-372c2 -12 3 -25 3 -39v-133c0 -103 -31 -156 -144 -156
c-15 0 -46 5 -59 14v-37c0 -53 34 -79 107 -79h16c75 0 113 27 113 80v131c0 103 35 157 168 157s168 -54 168 -157v-79zM615 256v79c0 25 -8 40 -43 40s-43 -16 -43 -40v-79c0 -24 8 -40 43 -40s43 15 43 40z" />
    <glyph glyph-name="dvG" horiz-adv-x="259" 
d="M299 671v-117h-65v-219c0 -115 -67 -167 -169 -167c-17 0 -36 2 -55 5v136c10 -3 23 -5 34 -5c30 0 50 12 50 43v207h-134v117h339z" />
    <glyph glyph-name="dvGH" horiz-adv-x="305" 
d="M338 255v11h140v-11c0 -129 -56 -198 -223 -198c-155 0 -220 58 -220 160v51c0 54 15 85 44 102c-25 19 -38 49 -38 95v50c0 13 3 27 10 39h-91v117h515v-117h-259c-31 0 -35 -17 -35 -39v-45c0 -23 6 -39 39 -39h44v-129h-50c-33 0 -39 -16 -39 -39v-28
c0 -41 31 -53 80 -53c64 0 83 16 83 73z" />
    <glyph glyph-name="dvNG" horiz-adv-x="546" 
d="M230 554h-278v117h633v-117h-215v-170h-174c-22 0 -29 -12 -29 -31v-2c0 -19 6 -31 29 -31h25c123 0 179 -46 179 -149v-23c0 -103 -56 -153 -184 -153s-186 49 -186 152v17h140v-11c0 -23 7 -38 45 -38s45 15 45 38v13c0 20 -6 37 -39 37h-25c-108 0 -169 38 -169 141
v18c0 103 56 142 169 142h34v50zM388 318c0 42 16 75 75 75c58 0 75 -33 75 -75s-17 -75 -75 -75c-59 0 -75 33 -75 75zM414 -229h-144l-111 171h126z" />
    <glyph glyph-name="dvC" horiz-adv-x="304" 
d="M479 671v-117h-519v117h519zM337 257h140v-24c0 -127 -60 -180 -205 -180s-205 53 -205 176v97c0 17 3 29 10 39h-64v126h258v-120h-30c-29 0 -34 -17 -34 -39v-98c0 -40 15 -58 65 -58s65 18 65 58v23z" />
    <glyph glyph-name="dvCH" horiz-adv-x="555" 
d="M346 501c102 0 174 -44 174 -154v-172c0 -123 -57 -178 -238 -178c-175 0 -242 50 -242 163v23c0 41 15 73 44 91c-26 17 -39 47 -39 94v130c0 20 5 40 16 56h-101v117h635v-117h-359c-49 0 -51 -25 -51 -59v-121c0 -23 6 -39 39 -39h77v-122h-72c-33 0 -48 -5 -48 -42
v-2c0 -37 12 -47 101 -47s102 20 102 60v140c0 48 -21 64 -65 64c-28 0 -47 -9 -47 -9v114s34 10 74 10z" />
    <glyph glyph-name="dvJ" horiz-adv-x="418" 
d="M523 671v-117h-563v117h563zM523 491v-120h-149c6 -16 9 -32 9 -50v-112c0 -103 -56 -161 -179 -161s-179 60 -179 163v81h140v-78c0 -23 6 -39 39 -39s39 16 39 39v109c0 23 -6 39 -39 39h-76v129h395z" />
    <glyph glyph-name="dvJH" horiz-adv-x="442" 
d="M487 328v-108h-95c8 -15 12 -32 12 -51v-22c0 -103 -41 -152 -164 -152c-15 0 -50 5 -64 15v-91h-138v250h138v-11c0 -25 9 -39 44 -39s44 14 44 39v16c0 19 -5 35 -34 37h-11c-113 0 -179 38 -179 141v10c0 103 56 142 179 142h29v50h-288v117h527v-117h-99v-170h-169
c-30 0 -38 -7 -39 -22v-5c0 -19 6 -29 39 -29h268z" />
    <glyph glyph-name="dvNY" horiz-adv-x="408" 
d="M505 671v-117h-545v117h545zM505 338v-120h-127v-5c0 -101 -62 -161 -174 -161c-123 0 -174 60 -174 163v26h140v-21c0 -23 1 -39 34 -39s34 16 34 39v118c0 23 -1 39 -34 39s-34 -16 -34 -39v-23h-140v28c0 103 51 163 174 163s174 -60 174 -163v-5h127z" />
    <glyph glyph-name="dvTT" horiz-adv-x="418" 
d="M367 364h-155c-33 0 -37 -14 -37 -37v-168c0 -23 6 -39 39 -39s39 16 39 39v84h140v-85c0 -103 -56 -163 -179 -163s-179 60 -179 163v174c0 113 54 159 177 159h15v63h-267v117h497v-117h-90v-190zM411 -229h-144l-111 171h126z" />
    <glyph glyph-name="dvTTH" horiz-adv-x="428" 
d="M393 354v-196c0 -103 -56 -163 -179 -163s-179 60 -179 163v196c0 81 34 131 109 148v52h-184v117h507v-117h-183v-52c74 -17 109 -67 109 -148zM258 156v193c0 24 -9 42 -44 42s-44 -18 -44 -42v-193c0 -24 9 -42 44 -42s44 18 44 42zM415 -229h-144l-111 171h126z" />
    <glyph glyph-name="dvDD" horiz-adv-x="430" 
d="M237 554h-277v117h509v-117h-92v-170h-174c-22 0 -29 -12 -29 -31v-2c0 -19 6 -31 29 -31h25c123 0 179 -46 179 -149v-23c0 -103 -56 -153 -184 -153s-186 49 -186 152v17h140v-11c0 -23 7 -38 45 -38s45 15 45 38v13c0 20 -6 37 -39 37h-25c-108 0 -169 38 -169 141v18
c0 103 56 142 169 142h34v50zM427 -229h-144l-111 171h126z" />
    <glyph glyph-name="dvDDH" horiz-adv-x="435" 
d="M209 499h36v55h-285v117h514v-117h-91v-182h-174c-33 0 -37 -14 -37 -37v-163c0 -31 8 -49 50 -49s50 16 50 47v2c0 28 -13 34 -33 34c-18 0 -29 -8 -29 -8v123s19 8 48 8c98 0 148 -39 148 -152v-15c0 -113 -54 -167 -184 -167s-188 59 -188 172v173
c0 113 52 159 175 159zM426 -229h-144l-111 171h126z" />
    <glyph glyph-name="dvNN" horiz-adv-x="426" 
d="M466 671v-117h-75v-288c0 -103 -55 -163 -178 -163s-178 60 -178 163v288h-75v117h506zM213 228c33 0 38 16 38 39v287h-76v-287c0 -23 5 -39 38 -39z" />
    <glyph glyph-name="dvT" horiz-adv-x="244" 
d="M361 671v-117h-401v117h401zM361 496v-129h-133c-42 0 -53 -20 -53 -49v-150c0 -33 16 -38 49 -38v-130c-11 -1 -23 -2 -31 -2c-124 0 -158 53 -158 156v169c0 113 50 173 193 173h133z" />
    <glyph glyph-name="dvTH" horiz-adv-x="398" 
d="M300 202c109 0 130 34 130 121h140c0 -191 -106 -249 -269 -249c-165 0 -267 65 -267 217v131h133c57 0 72 19 72 61v32c0 23 -5 36 -30 36s-30 -13 -30 -36v-34h-133v29c0 103 46 166 159 166s160 -57 160 -160v-58c0 -98 -51 -157 -177 -157h-11v-5
c0 -65 20 -94 123 -94z" />
    <glyph glyph-name="dvD" horiz-adv-x="430" 
d="M30 217v119c0 120 58 159 181 159h32v59h-283v117h510v-117h-87v-186h-172c-35 0 -41 -13 -41 -37v-109c0 -24 6 -38 41 -38s41 13 41 38v56h140v-278h-140v73c-19 -9 -46 -12 -61 -12c-113 0 -161 53 -161 156zM523 -229h-144l-111 171h126z" />
    <glyph glyph-name="dvDH" horiz-adv-x="311" 
d="M344 255v10h140v-10c0 -129 -59 -198 -226 -198c-155 0 -223 58 -223 160v51c0 54 15 85 44 102c-25 19 -38 49 -38 95v50c0 13 3 27 10 39h-91v117h269v-117h-13c-31 0 -35 -17 -35 -39v-45c0 -23 6 -39 39 -39h44v-129h-50c-33 0 -39 -16 -39 -39v-28
c0 -41 34 -53 83 -53c64 0 86 16 86 73z" />
    <glyph glyph-name="dvN" horiz-adv-x="401" 
d="M495 671v-117h-535v117h535zM495 491v-129h-134c4 -9 5 -21 5 -34v-113c0 -103 -44 -163 -167 -163s-169 60 -169 163v113c0 103 46 163 169 163h296zM235 216v107c0 23 -5 39 -36 39s-36 -16 -36 -39v-107c0 -23 5 -39 36 -39s36 16 36 39z" />
    <glyph glyph-name="dvP" horiz-adv-x="244" 
d="M282 347h130v-65c0 -117 -68 -168 -183 -168c-125 0 -193 51 -193 168v272h-76v117h452v-117h-236v-266c0 -30 7 -50 53 -50s53 19 53 50v59z" />
    <glyph glyph-name="dvPH" horiz-adv-x="474" 
d="M396 554v-71c17 9 48 15 73 15c120 0 164 -55 164 -154v-10h-123v10c-1 22 -15 36 -57 36c-45 0 -57 -17 -57 -42v-338h-140v111c-18 -8 -44 -11 -59 -11c-113 0 -159 53 -159 156v298h-78v117h673v-117h-237zM256 554h-78v-293c0 -23 6 -38 39 -38s39 15 39 38v293z" />
    <glyph glyph-name="dvB" horiz-adv-x="271" 
d="M-40 554v117h488v-117h-488zM428 231c0 -118 -63 -178 -196 -178c-143 0 -202 64 -202 178v97c0 114 49 178 202 178c133 0 196 -60 196 -178v-97zM305 322c0 46 -18 69 -71 69c-28 0 -46 -6 -57 -19l128 -107v57zM163 237c0 -46 18 -69 71 -69c27 0 45 6 56 18l-127 107
v-56z" />
    <glyph glyph-name="dvBH" horiz-adv-x="437" 
d="M518 434v-118h-137v-109c0 -93 -50 -153 -173 -153s-173 60 -173 153v75c0 93 50 152 173 152h39v74c0 23 -3 39 -36 39s-36 -16 -36 -39v-32h-140v37c0 103 53 163 176 163s176 -60 176 -163v-79h131zM247 212v104h-39c-33 0 -39 -16 -39 -39v-65c0 -23 6 -39 39 -39
s39 16 39 39z" />
    <glyph glyph-name="dvM" horiz-adv-x="429" 
d="M515 446v-118h-144v-120c0 -93 -50 -153 -173 -153s-173 60 -173 153v86c0 93 50 152 173 152h39v108h-277v117h554v-117h-143v-108h144zM237 213v115h-39c-33 0 -39 -16 -39 -39v-76c0 -23 6 -39 39 -39s39 16 39 39z" />
    <glyph glyph-name="dvY" horiz-adv-x="322" 
d="M489 300v-20c0 -123 -79 -194 -228 -194c-169 0 -231 71 -231 194v116h2c87 0 111 5 111 83v31c0 28 -11 44 -39 44h-144v117h529v-117h-219c6 -13 9 -28 9 -44v-40c0 -108 -35 -146 -112 -158v-12c0 -55 12 -84 94 -84c83 0 98 39 98 81v3h130z" />
    <glyph glyph-name="dvR" horiz-adv-x="428" 
d="M-40 554v117h508v-117h-79c5 -8 9 -25 9 -39v-81c0 -103 -46 -156 -159 -156c-15 0 -46 5 -59 14v-129c0 -23 8 -39 41 -39s41 16 41 39v31h140v-36c0 -103 -57 -163 -180 -163s-182 60 -182 163v312h140v-31c0 -23 6 -38 39 -38s39 15 39 38v76c0 23 -6 39 -39 39h-259z
M420 -229h-144l-111 171h126z" />
    <glyph glyph-name="dvL" horiz-adv-x="455" 
d="M621 671v-117h-661v117h661zM35 178v153c0 103 56 163 174 163c71 0 103 -32 116 -55c15 23 49 55 122 55c118 0 174 -60 174 -173v-18h-130v13c0 33 -11 49 -49 49s-49 -16 -49 -49v-104h-140v114c0 23 -6 39 -39 39s-39 -16 -39 -39v-145c0 -33 6 -59 69 -59h60l1 -122
h-69c-149 0 -201 55 -201 178z" />
    <glyph glyph-name="dvV" horiz-adv-x="265" 
d="M432 671v-117h-472v117h472zM251 504v-118s-13 2 -29 2c-35 0 -51 -13 -51 -43v-121c0 -35 11 -54 66 -54s65 19 65 54v7h130v-10c0 -108 -57 -170 -199 -170c-153 0 -198 62 -198 170v125c0 103 46 160 180 160c19 0 36 -2 36 -2z" />
    <glyph glyph-name="dvSH" horiz-adv-x="436" 
d="M398 513v-114c0 -103 -46 -156 -159 -156c-15 0 -48 3 -59 9v-89c0 -23 8 -39 41 -39s41 16 41 39v21h140v-26c0 -103 -58 -163 -181 -163s-181 60 -181 163v256h140v-17c1 -19 9 -31 39 -31c33 0 39 15 39 38v104c0 23 -6 39 -39 39s-39 -16 -39 -39v-41h-140v46
c0 103 56 163 179 163s179 -60 179 -163z" />
    <glyph glyph-name="dvSS" horiz-adv-x="280" 
d="M428 252v-39c-38 -51 -94 -98 -200 -98c-150 0 -193 67 -193 170v269h-75v117h484v-117h-269v-43zM238 238c35 0 54 12 65 28l-128 130v-105c0 -33 10 -53 63 -53z" />
    <glyph glyph-name="dvS" horiz-adv-x="414" 
d="M495 382v-120h-166c-25 -16 -48 -24 -92 -24c-15 0 -50 5 -63 14v-92c0 -23 6 -39 39 -39s39 16 39 39v20h137v-22c0 -103 -53 -163 -176 -163s-176 60 -176 163v297h137v-56c0 -23 3 -38 36 -38s36 15 36 38v116c0 22 -5 39 -34 39h-252v117h535v-117h-123
c9 -13 11 -32 11 -52v-120h112z" />
    <glyph glyph-name="dvH" horiz-adv-x="448" 
d="M521 334v-115h-304c-33 0 -39 -16 -39 -39v-20c0 -33 20 -46 66 -46c71 0 111 4 159 14v-118c-47 -11 -102 -17 -169 -17c-135 0 -196 57 -196 158v24c0 48 15 78 43 97c-27 16 -43 43 -44 87v18c0 96 56 131 169 131h47v46h-293v117h561v-117h-128v-166h-187
c-20 0 -29 -6 -29 -23v-8c0 -17 9 -23 29 -23h315z" />
    <glyph glyph-name="dvLL" horiz-adv-x="442" 
d="M628 554h-668v117h668v-117zM42 158v179c1 103 50 159 168 159c48 0 87 -16 113 -45c25 29 63 45 111 45c118 0 162 -60 162 -163v-175c0 -103 -44 -163 -162 -163c-48 0 -86 16 -111 45c-26 -29 -65 -45 -113 -45c-118 0 -168 60 -168 163zM249 159v173
c0 24 -6 41 -40 41c-35 0 -41 -17 -41 -41v-173c0 -24 6 -41 41 -41c34 0 40 17 40 41zM388 331v-171c0 -25 6 -42 41 -42s41 17 41 42v171c0 25 -6 42 -41 42s-41 -17 -41 -42z" />
    <glyph glyph-name="dvK_SS" horiz-adv-x="486" 
d="M588 435v-115h-365c-42 0 -45 -22 -45 -56v-51c0 -23 8 -39 41 -39s41 16 41 39v38h133v-251h-133v64c-20 -8 -42 -12 -66 -12c-113 0 -159 60 -159 163v70c0 42 11 82 53 102c-22 15 -30 47 -30 101v29c0 103 53 159 171 159s167 -56 167 -159v-30c0 -32 -2 -44 -6 -52
h198zM264 469v47c0 23 -3 40 -35 40s-35 -17 -35 -40v-47c0 -23 3 -40 35 -40s35 17 35 40z" />
    <glyph glyph-name="dvJ_NY" horiz-adv-x="438" 
d="M564 671v-117h-604v117h604zM35 283h135v-43c0 -23 3 -39 39 -39s39 16 39 39v83c0 23 -6 39 -39 39h-79v129h434v-120h-186c7 -15 10 -32 10 -50v-89c0 -110 -61 -159 -151 -159c-29 0 -44 2 -67 8v-81h-135v283z" />
    <glyph glyph-name="dvKx" horiz-adv-x="449" 
d="M628 349v-6h-123v6c0 22 -15 36 -57 36c-45 0 -57 -17 -57 -42v-343h-137v65c-13 -8 -38 -14 -60 -14c-110 0 -156 48 -156 151v146c0 103 46 157 156 157c22 0 47 -6 60 -15v64h-286v117h709v-117h-286v-66c16 9 40 15 73 15c120 0 164 -55 164 -154zM213 166
c35 0 42 17 42 42v135c0 25 -7 42 -42 42s-42 -17 -42 -42v-135c0 -25 7 -42 42 -42zM69 -55c0 42 16 75 75 75c58 0 75 -33 75 -75s-17 -75 -75 -75c-59 0 -75 33 -75 75z" />
    <glyph glyph-name="dvKHx" horiz-adv-x="796" 
d="M743 256c0 -103 -35 -157 -168 -157c-26 0 -45 5 -59 13c-29 -73 -98 -112 -209 -112h-28c-163 0 -241 65 -241 198v253h133v-64c0 -23 4 -38 37 -38s37 15 37 38v128c0 23 -6 39 -39 39h-243v117h780v-117h-372c2 -12 3 -25 3 -39v-133c0 -103 -31 -156 -144 -156
c-15 0 -46 5 -59 14v-37c0 -53 34 -79 107 -79h16c75 0 113 27 113 80v131c0 103 35 157 168 157s168 -54 168 -157v-79zM618 256v79c0 25 -8 40 -43 40s-43 -16 -43 -40v-79c0 -24 8 -40 43 -40s43 15 43 40zM-23 -71c0 42 16 75 73 75c58 0 75 -33 75 -75s-17 -75 -75 -75
c-57 0 -73 33 -73 75z" />
    <glyph glyph-name="dvGx" horiz-adv-x="259" 
d="M299 671v-117h-65v-219c0 -115 -67 -167 -169 -167c-17 0 -36 2 -55 5v136c10 -3 23 -5 34 -5c30 0 50 12 50 43v207h-134v117h339zM52 34c0 42 16 75 75 75c58 0 75 -33 75 -75s-17 -75 -75 -75c-59 0 -75 33 -75 75z" />
    <glyph glyph-name="dvJx" horiz-adv-x="425" 
d="M523 671v-117h-563v117h563zM523 491v-120h-149c6 -16 9 -32 9 -50v-112c0 -103 -56 -161 -179 -161s-179 60 -179 163v81h140v-78c0 -23 6 -39 39 -39s39 16 39 39v109c0 23 -6 39 -39 39h-76v129h395zM129 -75c0 42 17 75 76 75c58 0 74 -33 74 -75s-17 -75 -75 -75
c-59 0 -75 33 -75 75z" />
    <glyph glyph-name="dvNx" horiz-adv-x="406" 
d="M500 671v-117h-540v117h540zM500 491v-129h-134c4 -9 5 -21 5 -34v-113c0 -103 -44 -163 -167 -163s-169 60 -169 163v113c0 103 46 163 169 163h296zM240 216v107c0 23 -5 39 -36 39s-36 -16 -36 -39v-107c0 -23 5 -39 36 -39s36 16 36 39zM-28 -53c0 42 16 75 75 75
c58 0 75 -33 75 -75s-17 -75 -75 -75c-59 0 -75 33 -75 75z" />
    <glyph glyph-name="dvPHx" horiz-adv-x="488" 
d="M408 554v-71c17 9 48 15 73 15c120 0 164 -55 164 -154v-10h-123v10c-1 22 -15 36 -57 36c-45 0 -57 -17 -57 -42v-338h-140v111c-18 -8 -44 -11 -59 -11c-113 0 -159 53 -159 156v298h-78v117h673v-117h-237zM268 554h-78v-293c0 -23 6 -38 39 -38s39 15 39 38v293z
M21 -24c0 42 16 75 75 75c58 0 75 -33 75 -75s-17 -75 -75 -75c-59 0 -75 33 -75 75z" />
    <glyph glyph-name="dvYx" horiz-adv-x="330" 
d="M497 300v-20c0 -123 -79 -194 -228 -194c-169 0 -231 71 -231 194v116h2c87 0 111 5 111 83v31c0 28 -11 44 -39 44h-144v117h529v-117h-219c6 -13 9 -28 9 -44v-40c0 -108 -35 -146 -112 -158v-12c0 -55 12 -84 94 -84c83 0 98 39 98 81v3h130zM-19 8c0 42 15 75 73 75
s75 -33 75 -75s-17 -75 -75 -75c-57 0 -73 33 -73 75z" />
    <glyph glyph-name="dvK_RA" horiz-adv-x="642" 
d="M28 -42l82 133c-47 15 -68 50 -68 119v138c0 103 46 157 156 157c15 0 47 -5 60 -15v64h-298v117h722v-117h-287v-64c15 10 48 15 61 15c110 0 156 -54 156 -157v-133c0 -103 -39 -156 -152 -156c-7 0 -15 1 -20 2v130c33 0 39 5 39 38v114c0 25 -7 42 -42 42
s-42 -17 -42 -42v-343h-137v95l-79 -137h-151zM217 176c35 0 42 15 42 40v127c0 25 -7 42 -42 42s-42 -17 -42 -42v-127c0 -25 7 -40 42 -40z" />
    <glyph glyph-name="dvKH_RA" horiz-adv-x="794" 
d="M51 -79l160 104c-126 7 -175 63 -175 173v253h133v-64c0 -23 4 -38 37 -38s37 15 37 38v128c0 23 -6 39 -39 39h-243v117h873v-117h-82v-554h-136v109c-13 -9 -37 -10 -52 -10c-20 0 -38 1 -54 4c-11 -23 -29 -40 -51 -56l-204 -146l-204 16v4zM405 204v130
c0 103 29 162 152 162c16 0 43 -3 59 -12v70h-247c2 -12 3 -25 3 -39v-133c0 -103 -31 -156 -144 -156c-15 0 -46 5 -59 14v-37c0 -53 34 -75 107 -75h16c75 0 113 23 113 76zM573 375c-35 0 -43 -16 -43 -40v-85c1 -21 10 -34 43 -34c35 0 43 16 43 40v79
c0 24 -8 40 -43 40z" />
    <glyph glyph-name="dvG_RA" horiz-adv-x="494" 
d="M-40 554v117h574v-117h-82v-554h-132v25c0 57 8 120 16 154h-2c-19 -40 -55 -87 -81 -120l-45 -59h-162l266 342v212h-78v-179c0 -103 -60 -176 -183 -176h-41v136h41c35 0 43 21 43 43v176h-134z" />
    <glyph glyph-name="dvGH_RA" horiz-adv-x="509" 
d="M13 -50v2l131 151c-72 18 -105 62 -105 132v43c0 45 18 82 47 99c-25 19 -41 42 -41 98v40c0 13 3 27 10 39h-95v117h589v-117h-82v-554h-140v112l-141 -162h-173zM327 554h-103c-33 0 -39 -16 -39 -39v-35c0 -23 6 -39 39 -39h44v-129h-50c-33 0 -39 -16 -39 -39v-20
c0 -41 27 -53 72 -53s76 10 76 62v292z" />
    <glyph glyph-name="dvC_RA" horiz-adv-x="492" 
d="M38 -10l103 126c-48 19 -71 59 -71 133v75c0 17 3 29 10 39h-54v126h248v-120h-30c-29 -2 -34 -17 -34 -39v-76c0 -30 10 -48 50 -48s50 18 50 48v300h-350v117h572v-117h-82v-554h-140v125l-110 -135h-162z" />
    <glyph glyph-name="dvJ_RA" horiz-adv-x="642" 
d="M188 -60v4l272 319v108h-91c6 -16 9 -32 9 -50v-47c0 -103 -56 -161 -179 -161s-179 60 -179 163v33h140v-28c0 -23 6 -39 39 -39s39 16 39 39v42c0 23 -6 39 -39 39h-76v129h337v63h-500v117h722v-117h-82v-554h-140v5c0 17 -2 39 6 95h-2c-15 -41 -40 -71 -62 -98
l-52 -62h-162z" />
    <glyph glyph-name="dvJH_RA" horiz-adv-x="739" 
d="M571 -10v5c0 17 -1 54 7 110h-2c-15 -41 -30 -69 -62 -113l-53 -73h-156l226 301h-155c8 -15 12 -32 12 -51v-22c0 -103 -31 -152 -154 -152c-15 0 -45 2 -58 11v-87h-138v250h138v-11c0 -25 6 -39 36 -39s36 14 36 39v16c0 19 -6 37 -36 37h-2c-91 0 -158 34 -158 141
v10c0 103 56 142 169 142h119v50h-380v117h820v-117h-83v-564h-126zM480 384h-259c-20 0 -29 -7 -29 -26v-4c0 -19 9 -26 29 -26h337v226h-78v-170z" />
    <glyph glyph-name="dvNY_RA" horiz-adv-x="653" 
d="M465 243h-78v-2c-9 -87 -61 -137 -173 -137c-123 0 -174 60 -174 163v14h140v-9c0 -23 1 -39 34 -39s34 16 34 39v74c0 23 -1 39 -34 39s-34 -16 -34 -39v-15h-140v20c0 103 51 163 174 163c118 0 170 -56 174 -152v-1h83v193h-511v117h733v-117h-82v-554h-140v5
c0 17 -2 44 6 100h-2c-15 -41 -26 -70 -62 -113l-52 -62h-160z" />
    <glyph glyph-name="dvNN_RA" horiz-adv-x="654" 
d="M408 54l-45 -54h-162l271 329v225h-78v-186c0 -103 -55 -163 -178 -163s-178 60 -178 163v186h-78v117h734v-117h-82v-554h-140v25c0 70 8 112 16 146h-2c-19 -40 -52 -84 -78 -117zM216 334c33 0 38 16 38 39v181h-76v-181c0 -23 5 -39 38 -39z" />
    <glyph glyph-name="dvT_RA" horiz-adv-x="497" 
d="M32 20v4l267 299c14 16 16 21 16 31c0 9 -8 23 -71 23c-61 0 -78 -21 -78 -62v-53h-135v63c0 112 52 179 194 179c48 0 82 -10 90 -19v69h-354v117h576v-117h-82v-554h-131v26c0 51 4 131 10 167h-2c-17 -37 -49 -83 -72 -109l-55 -64h-173z" />
    <glyph glyph-name="dvTH_RA" horiz-adv-x="605" 
d="M35 -51v4l168 147c-108 19 -161 83 -161 191v131h133c57 0 72 19 72 61v32c0 23 -5 36 -30 36s-30 -13 -30 -36v-34h-133v29c0 103 46 166 159 166s160 -57 160 -160v-58c0 -98 -51 -157 -177 -157h-11v-5c0 -65 25 -94 123 -94c94 0 115 34 115 121v348h222v-117h-82
v-554h-140v121l-1 -1l-190 -171h-197z" />
    <glyph glyph-name="dvD_RA" horiz-adv-x="438" 
d="M21 -63l88 158c-49 17 -71 55 -71 124v117c0 120 58 159 181 159h32v59h-291v117h518v-117h-87v-186h-172c-35 0 -41 -13 -41 -37v-107c0 -24 6 -38 41 -38s41 13 41 38v54h140v-278h-140v97l-89 -160h-150z" />
    <glyph glyph-name="dvDH_RA" horiz-adv-x="510" 
d="M14 -50v2l131 151c-72 18 -105 62 -105 132v43c0 54 15 85 44 102c-25 19 -38 49 -38 95v40c0 13 3 27 10 39h-96v117h298v-117h-33c-33 0 -39 -16 -39 -39v-35c0 -23 6 -39 39 -39h44v-129h-50c-33 0 -39 -16 -39 -39v-20c0 -41 27 -53 72 -53s76 10 76 62v409h222v-117
h-82v-554h-140v112l-141 -162h-173z" />
    <glyph glyph-name="dvN_RA" horiz-adv-x="629" 
d="M447 362h-81c4 -9 5 -21 5 -34v-16c0 -103 -44 -163 -167 -163s-169 60 -169 163v16c0 103 46 163 169 163h243v63h-487v117h709v-117h-82v-554h-130v5c0 31 0 81 6 124h-2c-6 -24 -36 -73 -62 -104l-52 -62h-161l261 317v82zM240 313v10c0 23 -5 39 -36 39
s-36 -16 -36 -39v-10c0 -23 5 -39 36 -39s36 16 36 39z" />
    <glyph glyph-name="dvP_RA" horiz-adv-x="450" 
d="M10 0l104 187c-55 19 -72 62 -72 134v233h-82v117h530v-117h-82v-554h-140v189l-105 -189h-153zM268 554h-86v-228c0 -23 5 -38 43 -38s43 15 43 38v228z" />
    <glyph glyph-name="dvPH_RA" horiz-adv-x="651" 
d="M11 0l100 179c-46 18 -66 54 -66 122v253h-85v117h731v-117h-288v-66c17 8 41 13 59 13c113 0 159 -60 159 -163v-124c0 -103 -46 -156 -159 -156c-6 0 -11 0 -17 1v130c30 0 36 9 36 39v105c0 23 -6 39 -39 39s-39 -16 -39 -39v-333h-140v178l-99 -178h-153zM263 554
h-78v-248c0 -23 6 -38 39 -38s39 15 39 38v248z" />
    <glyph glyph-name="dvB_RA" horiz-adv-x="471" 
d="M36 -37l94 115c-71 18 -100 66 -100 148v112c0 108 51 168 179 168c31 0 65 -7 83 -19v67h-332v117h551v-117h-82v-554h-138v88l-102 -125h-153zM228 391c-27 0 -43 -6 -52 -17l116 -98v53c0 36 -11 62 -64 62zM228 175c27 0 43 6 52 16l-116 98v-54c0 -36 11 -60 64 -60
z" />
    <glyph glyph-name="dvBH_RA" horiz-adv-x="648" 
d="M466 259v76h-84v-62c0 -93 -52 -153 -173 -153c-123 0 -174 60 -174 153v27c0 93 51 153 174 153h39v55c0 23 -3 39 -36 39s-36 -16 -36 -39v-17h-140v22c0 103 53 163 176 163s176 -60 176 -163v-60h78v218h222v-117h-82v-562h-130v5c0 17 3 69 11 125h-2
c-8 -27 -43 -89 -67 -118l-52 -62h-162zM248 278v57h-39c-33 0 -39 -16 -39 -39v-18c0 -23 6 -39 39 -39s39 16 39 39z" />
    <glyph glyph-name="dvM_RA" horiz-adv-x="619" 
d="M440 -8v5c0 17 2 56 10 112h-2c-8 -27 -42 -87 -66 -116l-52 -62h-160l270 316v103h-74v-78c0 -93 -50 -153 -173 -153s-173 60 -173 153v44c0 93 50 152 173 152h39v86h-272v117h699v-117h-82v-562h-137zM366 468h74v86h-74v-86zM232 277v73h-39c-33 0 -39 -16 -39 -39
v-34c0 -23 6 -39 39 -39s39 16 39 39z" />
    <glyph glyph-name="dvY_RA" horiz-adv-x="527" 
d="M40 0l126 131c-89 22 -136 85 -136 175v116h24c76 0 89 13 89 63v15c0 29 -3 54 -39 54h-144v117h607v-117h-82v-554h-140v145l-131 -145h-174zM255 252c72 0 90 29 90 74v228h-76c8 -14 10 -32 10 -54v-44c0 -77 -35 -118 -112 -122v-8c0 -45 17 -74 88 -74z" />
    <glyph glyph-name="dvV_RA" horiz-adv-x="454" 
d="M9 -21l113 133c-59 16 -80 56 -80 131v103c0 103 46 160 165 160c22 0 52 -5 66 -11v59h-313v117h534v-117h-82v-554h-140v115l-114 -136h-149zM279 246v99c0 30 -15 43 -50 43s-51 -13 -51 -43v-99c0 -30 16 -44 51 -44s50 14 50 44z" />
    <glyph glyph-name="dvSH_RA" horiz-adv-x="633" 
d="M451 0v190c-10 -22 -30 -55 -66 -91l-84 -92l-163 8l169 181l-72 53l-82 -86l-152 22l134 139c-71 53 -87 89 -87 161v32c0 103 53 159 171 159s167 -56 167 -159v-32c0 -67 -16 -96 -64 -146l70 -52l59 63v321h222v-117h-82v-554h-140zM254 475v41c0 23 -3 40 -35 40
s-35 -17 -35 -40v-41c0 -29 14 -40 35 -57c20 17 35 28 35 57z" />
    <glyph glyph-name="dvS_RA" horiz-adv-x="693" 
d="M393 162l-142 25l161 125h-83c-22 -16 -55 -24 -87 -24c-25 0 -50 4 -68 14v-97c0 -53 16 -79 79 -79h159v-126h-159c-163 0 -216 60 -216 203v282h137v-36c0 -23 3 -38 36 -38s36 15 36 38v66c0 22 -5 39 -34 39h-252v117h773v-117h-82v-554h-130v100c0 62 -4 111 7 189
h-2c-20 -29 -44 -50 -67 -70zM383 432h128v122h-139c9 -12 11 -32 11 -52v-70z" />
    <glyph glyph-name="dvH_RA" horiz-adv-x="543" 
d="M38 146v53c0 48 15 71 43 90c-27 16 -43 47 -44 91v8c0 96 56 124 169 124h97v42h-343v117h623v-117h-140v-155h-237c-20 0 -29 -6 -29 -23v-7c0 -17 9 -23 29 -23h173c102 0 139 -34 139 -125v-51h-123v38c0 13 -2 21 -7 27l-68 -99l-115 12l66 95h-54
c-33 0 -39 -16 -39 -39v-49c0 -43 20 -65 116 -65c91 0 161 12 209 22v-118c-37 -13 -132 -25 -219 -25c-185 0 -246 66 -246 177z" />
    <glyph glyph-name="dvKx_RA" horiz-adv-x="642" 
d="M28 -42l82 133c-47 15 -68 50 -68 119v138c0 103 46 157 156 157c15 0 47 -5 60 -15v64h-298v117h722v-117h-287v-64c15 10 48 15 61 15c110 0 156 -54 156 -157v-133c0 -103 -39 -156 -152 -156c-7 0 -15 1 -20 2v130c33 0 39 5 39 38v114c0 25 -7 42 -42 42
s-42 -17 -42 -42v-343h-137v95l-79 -137h-151zM217 176c35 0 42 15 42 40v127c0 25 -7 42 -42 42s-42 -17 -42 -42v-127c0 -25 7 -40 42 -40zM194 -124c0 42 16 75 75 75c58 0 75 -33 75 -75s-17 -75 -75 -75c-59 0 -75 33 -75 75z" />
    <glyph glyph-name="dvKHx_RA" horiz-adv-x="797" 
d="M51 -79l160 104c-126 7 -175 63 -175 173v253h133v-64c0 -23 4 -38 37 -38s37 15 37 38v128c0 23 -6 39 -39 39h-243v117h873v-117h-82v-554h-136v109c-13 -9 -37 -10 -52 -10c-20 0 -38 1 -54 4c-11 -23 -29 -40 -51 -56l-204 -146l-204 16v4zM405 204v130
c0 103 29 162 152 162c16 0 43 -3 59 -12v70h-247c2 -12 3 -25 3 -39v-133c0 -103 -31 -156 -144 -156c-15 0 -46 5 -59 14v-37c0 -53 34 -75 107 -75h16c75 0 113 23 113 76zM573 375c-35 0 -43 -16 -43 -40v-85c1 -21 10 -34 43 -34c35 0 43 16 43 40v79
c0 24 -8 40 -43 40zM430 -79c0 42 16 75 75 75c58 0 75 -33 75 -75s-17 -75 -75 -75c-59 0 -75 33 -75 75z" />
    <glyph glyph-name="dvGx_RA" horiz-adv-x="494" 
d="M-40 554v117h574v-117h-82v-554h-132v25c0 57 8 120 16 154h-2c-19 -40 -55 -87 -81 -120l-45 -59h-162l266 342v212h-78v-179c0 -103 -60 -176 -183 -176h-41v136h41c35 0 43 21 43 43v176h-134zM187 -105c0 42 16 75 75 75c58 0 75 -33 75 -75s-17 -75 -75 -75
c-59 0 -75 33 -75 75z" />
    <glyph glyph-name="dvGHx_RA" horiz-adv-x="509" 
d="M13 -50v2l131 151c-72 18 -105 62 -105 132v43c0 45 18 82 47 99c-25 19 -41 42 -41 98v40c0 13 3 27 10 39h-95v117h589v-117h-82v-554h-140v112l-141 -162h-173zM327 554h-103c-33 0 -39 -16 -39 -39v-35c0 -23 6 -39 39 -39h44v-129h-50c-33 0 -39 -16 -39 -39v-20
c0 -41 27 -53 72 -53s76 10 76 62v292zM202 -132c0 42 16 75 75 75c58 0 75 -33 75 -75s-17 -75 -75 -75c-59 0 -75 33 -75 75z" />
    <glyph glyph-name="dvNGx_RA" horiz-adv-x="685" 
d="M374 -99l-35 94h-5l-35 -94h-143l57 125c-36 25 -53 65 -53 121v17h140v-11c0 -23 7 -38 45 -38s45 15 45 38v13c0 20 -6 37 -39 37h-25c-108 0 -169 38 -169 141v18c0 103 56 142 169 142h34v50h-400v117h765v-117h-225v-170h-174c-22 0 -29 -12 -29 -31v-2
c0 -19 6 -31 29 -31h25c123 0 179 -46 179 -149v-23c0 -63 -21 -106 -66 -130l53 -117h-143zM518 318c0 42 16 75 75 75c58 0 75 -33 75 -75s-17 -75 -75 -75c-59 0 -75 33 -75 75zM1 13c0 42 15 75 74 75c58 0 75 -33 75 -75s-17 -75 -75 -75c-59 0 -74 33 -74 75z" />
    <glyph glyph-name="dvCx_RA" horiz-adv-x="492" 
d="M38 -10l103 126c-48 19 -71 59 -71 133v75c0 17 3 29 10 39h-54v126h248v-120h-30c-29 -2 -34 -17 -34 -39v-76c0 -30 10 -48 50 -48s50 18 50 48v300h-350v117h572v-117h-82v-554h-140v125l-110 -135h-162zM190 -121c0 42 16 75 75 75c58 0 75 -33 75 -75
s-17 -75 -75 -75c-59 0 -75 33 -75 75z" />
    <glyph glyph-name="dvCHx_RA" horiz-adv-x="633" 
d="M392 -105l-37 101l-38 -101h-143l53 116c-81 21 -114 69 -114 149v23c0 41 15 73 44 91c-26 17 -39 47 -39 94v130c0 20 5 40 16 56h-174v117h713v-117h-134v-75c40 -21 54 -65 54 -132v-172c0 -88 -29 -141 -111 -164l53 -116h-143zM457 182v140c0 48 -20 64 -59 64
c-38 0 -53 -9 -53 -9v114s24 10 64 10v53h-100c-49 0 -51 -25 -51 -59v-121c0 -23 6 -39 39 -39h77v-122h-72c-33 0 -48 -5 -48 -42v-2c0 -37 12 -47 101 -47s102 20 102 60zM-18 -28c0 42 15 75 73 75s75 -33 75 -75s-17 -75 -75 -75c-57 0 -73 33 -73 75z" />
    <glyph glyph-name="dvJx_RA" horiz-adv-x="642" 
d="M188 -60v4l272 319v108h-91c6 -16 9 -32 9 -50v-47c0 -103 -56 -161 -179 -161s-179 60 -179 163v33h140v-28c0 -23 6 -39 39 -39s39 16 39 39v42c0 23 -6 39 -39 39h-76v129h337v63h-500v117h722v-117h-82v-554h-140v5c0 17 -2 39 6 95h-2c-15 -41 -40 -71 -62 -98
l-52 -62h-162zM-13 -6c0 42 16 75 75 75c58 0 75 -33 75 -75s-17 -75 -75 -75c-59 0 -75 33 -75 75z" />
    <glyph glyph-name="dvJHx_RA" horiz-adv-x="740" 
d="M571 -10v5c0 17 -1 54 7 110h-2c-15 -41 -30 -69 -62 -113l-53 -73h-156l226 301h-155c8 -15 12 -32 12 -51v-22c0 -103 -31 -152 -154 -152c-15 0 -45 2 -58 11v-87h-138v250h138v-11c0 -25 6 -39 36 -39s36 14 36 39v16c0 19 -6 37 -36 37h-2c-91 0 -158 34 -158 141
v10c0 103 56 142 169 142h119v50h-380v117h820v-117h-83v-564h-126zM480 384h-259c-20 0 -29 -7 -29 -26v-4c0 -19 9 -26 29 -26h337v226h-78v-170zM173 -192c0 42 16 75 75 75c58 0 75 -33 75 -75s-17 -75 -75 -75c-59 0 -75 33 -75 75z" />
    <glyph glyph-name="dvNYx_RA" horiz-adv-x="653" 
d="M465 243h-78v-2c-9 -87 -61 -137 -173 -137c-123 0 -174 60 -174 163v14h140v-9c0 -23 1 -39 34 -39s34 16 34 39v74c0 23 -1 39 -34 39s-34 -16 -34 -39v-15h-140v20c0 103 51 163 174 163c118 0 170 -56 174 -152v-1h83v193h-511v117h733v-117h-82v-554h-140v5
c0 17 -2 44 6 100h-2c-15 -41 -26 -70 -62 -113l-52 -62h-160zM3 -1c0 42 16 75 75 75c58 0 75 -33 75 -75s-17 -75 -75 -75c-59 0 -75 33 -75 75z" />
    <glyph glyph-name="dvTTx_RA" horiz-adv-x="583" 
d="M414 -99l-35 94h-5l-35 -94h-143l58 128c-37 27 -54 71 -54 129v174c0 113 54 159 177 159h15v63h-432v117h663v-117h-91v-190h-155c-33 0 -37 -14 -37 -37v-168c0 -23 6 -39 39 -39s39 16 39 39v84h140v-85c0 -59 -19 -105 -58 -132l57 -125h-143zM39 5
c0 42 16 75 75 75c58 0 75 -33 75 -75s-17 -75 -75 -75c-59 0 -75 33 -75 75z" />
    <glyph glyph-name="dvTTHx_RA" horiz-adv-x="600" 
d="M424 -102l-36 97h-3l-36 -97h-143l59 128c-39 28 -58 73 -58 132v196c0 81 34 131 109 148v52h-356v117h680v-117h-184v-52c74 -17 109 -67 109 -148v-196c0 -59 -18 -104 -57 -131l59 -129h-143zM430 156v193c0 24 -9 42 -44 42s-44 -18 -44 -42v-193
c0 -24 9 -42 44 -42s44 18 44 42zM41 16c0 42 16 75 75 75c58 0 75 -33 75 -75s-17 -75 -75 -75c-59 0 -75 33 -75 75z" />
    <glyph glyph-name="dvDDx_RA" horiz-adv-x="585" 
d="M407 -99l-35 94h-5l-35 -94h-143l57 124c-38 24 -56 65 -56 122v17h140v-11c0 -23 7 -38 45 -38s45 15 45 38v13c0 20 -6 37 -39 37h-25c-108 0 -169 38 -169 141v18c0 103 56 142 169 142h34v50h-430v117h665v-117h-95v-170h-174c-22 0 -29 -12 -29 -31v-2
c0 -19 6 -31 29 -31h25c123 0 179 -46 179 -149v-23c0 -62 -20 -105 -64 -129l54 -118h-143zM31 6c0 42 16 75 75 75c58 0 75 -33 75 -75s-17 -75 -75 -75c-59 0 -75 33 -75 75z" />
    <glyph glyph-name="dvDDHx_RA" horiz-adv-x="599" 
d="M424 -106l-37 101l-38 -101h-143l58 128c-46 28 -67 76 -67 145v173c0 113 52 159 175 159h36v55h-448v117h679v-117h-93v-182h-174c-33 0 -37 -14 -37 -37v-163c0 -31 8 -49 50 -49s50 16 50 47v2c0 28 -13 34 -33 34c-18 0 -29 -8 -29 -8v123s19 8 48 8
c98 0 148 -39 148 -152v-15c0 -67 -19 -113 -61 -139l59 -129h-143zM37 13c0 42 16 75 75 75c58 0 75 -33 75 -75s-17 -75 -75 -75c-59 0 -75 33 -75 75z" />
    <glyph glyph-name="dvNNx_RA" horiz-adv-x="654" 
d="M408 54l-45 -54h-162l271 329v225h-78v-186c0 -103 -55 -163 -178 -163s-178 60 -178 163v186h-78v117h734v-117h-82v-554h-140v25c0 70 8 112 16 146h-2c-19 -40 -52 -84 -78 -117zM216 334c33 0 38 16 38 39v181h-76v-181c0 -23 5 -39 38 -39zM17 91c0 42 16 75 75 75
c58 0 75 -33 75 -75s-17 -75 -75 -75c-59 0 -75 33 -75 75z" />
    <glyph glyph-name="dvTx_RA" horiz-adv-x="497" 
d="M32 20v4l267 299c14 16 16 21 16 31c0 9 -8 23 -71 23c-61 0 -78 -21 -78 -62v-53h-135v63c0 112 52 179 194 179c48 0 82 -10 90 -19v69h-354v117h576v-117h-82v-554h-131v26c0 51 4 131 10 167h-2c-17 -37 -49 -83 -72 -109l-55 -64h-173zM175 -107c0 42 16 75 75 75
c58 0 75 -33 75 -75s-17 -75 -75 -75c-59 0 -75 33 -75 75z" />
    <glyph glyph-name="dvTHx_RA" horiz-adv-x="605" 
d="M35 -51v4l168 147c-108 19 -161 83 -161 191v131h133c57 0 72 19 72 61v32c0 23 -5 36 -30 36s-30 -13 -30 -36v-34h-133v29c0 103 46 166 159 166s160 -57 160 -160v-58c0 -98 -51 -157 -177 -157h-11v-5c0 -65 25 -94 123 -94c94 0 115 34 115 121v348h222v-117h-82
v-554h-140v121l-1 -1l-190 -171h-197zM284 -114c0 42 16 75 75 75c58 0 75 -33 75 -75s-17 -75 -75 -75c-59 0 -75 33 -75 75z" />
    <glyph glyph-name="dvDx_RA" horiz-adv-x="438" 
d="M21 -63l88 158c-49 17 -71 55 -71 124v117c0 120 58 159 181 159h32v59h-291v117h518v-117h-87v-186h-172c-35 0 -41 -13 -41 -37v-107c0 -24 6 -38 41 -38s41 13 41 38v54h140v-278h-140v97l-89 -160h-150zM213 -128c0 42 16 75 75 75c58 0 75 -33 75 -75
s-17 -75 -75 -75c-59 0 -75 33 -75 75z" />
    <glyph glyph-name="dvDHx_RA" horiz-adv-x="510" 
d="M14 -50v2l131 151c-72 18 -105 62 -105 132v43c0 54 15 85 44 102c-25 19 -38 49 -38 95v40c0 13 3 27 10 39h-96v117h298v-117h-33c-33 0 -39 -16 -39 -39v-35c0 -23 6 -39 39 -39h44v-129h-50c-33 0 -39 -16 -39 -39v-20c0 -41 27 -53 72 -53s76 10 76 62v409h222v-117
h-82v-554h-140v112l-141 -162h-173zM231 -107c0 42 16 75 75 75c58 0 75 -33 75 -75s-17 -75 -75 -75c-59 0 -75 33 -75 75z" />
    <glyph glyph-name="dvNx_RA" horiz-adv-x="629" 
d="M447 362h-81c4 -9 5 -21 5 -34v-16c0 -103 -44 -163 -167 -163s-169 60 -169 163v16c0 103 46 163 169 163h243v63h-487v117h709v-117h-82v-554h-130v5c0 31 0 81 6 124h-2c-6 -24 -36 -73 -62 -104l-52 -62h-161l261 317v82zM240 313v10c0 23 -5 39 -36 39
s-36 -16 -36 -39v-10c0 -23 5 -39 36 -39s36 16 36 39zM357 -121c0 42 16 75 75 75c58 0 75 -33 75 -75s-17 -75 -75 -75c-59 0 -75 33 -75 75z" />
    <glyph glyph-name="dvPx_RA" horiz-adv-x="450" 
d="M10 0l104 187c-55 19 -72 62 -72 134v233h-82v117h530v-117h-82v-554h-140v189l-105 -189h-153zM268 554h-86v-228c0 -23 5 -38 43 -38s43 15 43 38v228zM139 -98c0 42 16 75 75 75c58 0 75 -33 75 -75s-17 -75 -75 -75c-59 0 -75 33 -75 75z" />
    <glyph glyph-name="dvPHx_RA" horiz-adv-x="651" 
d="M11 0l100 179c-46 18 -66 54 -66 122v253h-85v117h731v-117h-288v-66c17 8 41 13 59 13c113 0 159 -60 159 -163v-124c0 -103 -46 -156 -159 -156c-6 0 -11 0 -17 1v130c30 0 36 9 36 39v105c0 23 -6 39 -39 39s-39 -16 -39 -39v-333h-140v178l-99 -178h-153zM263 554
h-78v-248c0 -23 6 -38 39 -38s39 15 39 38v248zM147 -112c0 42 16 75 75 75c58 0 75 -33 75 -75s-17 -75 -75 -75c-59 0 -75 33 -75 75z" />
    <glyph glyph-name="dvBx_RA" horiz-adv-x="471" 
d="M36 -37l94 115c-71 18 -100 66 -100 148v112c0 108 51 168 179 168c31 0 65 -7 83 -19v67h-332v117h551v-117h-82v-554h-138v88l-102 -125h-153zM228 391c-27 0 -43 -6 -52 -17l116 -98v53c0 36 -11 62 -64 62zM228 175c27 0 43 6 52 16l-116 98v-54c0 -36 11 -60 64 -60
zM211 -128c0 42 16 75 75 75c58 0 75 -33 75 -75s-17 -75 -75 -75c-59 0 -75 33 -75 75z" />
    <glyph glyph-name="dvBHx_RA" horiz-adv-x="648" 
d="M466 259v76h-84v-62c0 -93 -52 -153 -173 -153c-123 0 -174 60 -174 153v27c0 93 51 153 174 153h39v55c0 23 -3 39 -36 39s-36 -16 -36 -39v-17h-140v22c0 103 53 163 176 163s176 -60 176 -163v-60h78v218h222v-117h-82v-562h-130v5c0 17 3 69 11 125h-2
c-8 -27 -43 -89 -67 -118l-52 -62h-162zM248 278v57h-39c-33 0 -39 -16 -39 -39v-18c0 -23 6 -39 39 -39s39 16 39 39zM379 -126c0 42 16 75 75 75c58 0 75 -33 75 -75s-17 -75 -75 -75c-59 0 -75 33 -75 75z" />
    <glyph glyph-name="dvMx_RA" horiz-adv-x="619" 
d="M440 -8v5c0 17 2 56 10 112h-2c-8 -27 -42 -87 -66 -116l-52 -62h-160l270 316v103h-74v-78c0 -93 -50 -153 -173 -153s-173 60 -173 153v44c0 93 50 152 173 152h39v86h-272v117h699v-117h-82v-562h-137zM366 468h74v86h-74v-86zM232 277v73h-39c-33 0 -39 -16 -39 -39
v-34c0 -23 6 -39 39 -39s39 16 39 39zM359 -140c0 42 16 75 75 75c58 0 75 -33 75 -75s-17 -75 -75 -75c-59 0 -75 33 -75 75z" />
    <glyph glyph-name="dvYx_RA" horiz-adv-x="527" 
d="M40 0l126 131c-89 22 -136 85 -136 175v116h24c76 0 89 13 89 63v15c0 29 -3 54 -39 54h-144v117h607v-117h-82v-554h-140v145l-131 -145h-174zM255 252c72 0 90 29 90 74v228h-76c8 -14 10 -32 10 -54v-44c0 -77 -35 -118 -112 -122v-8c0 -45 17 -74 88 -74zM212 -97
c0 42 16 75 75 75c58 0 75 -33 75 -75s-17 -75 -75 -75c-59 0 -75 33 -75 75z" />
    <glyph glyph-name="dvVx_RA" horiz-adv-x="454" 
d="M9 -21l113 133c-59 16 -80 56 -80 131v103c0 103 46 160 165 160c22 0 52 -5 66 -11v59h-313v117h534v-117h-82v-554h-140v115l-114 -136h-149zM279 246v99c0 30 -15 43 -50 43s-51 -13 -51 -43v-99c0 -30 16 -44 51 -44s50 14 50 44zM226 -122c0 42 16 75 75 75
c58 0 75 -33 75 -75s-17 -75 -75 -75c-59 0 -75 33 -75 75z" />
    <glyph glyph-name="dvK_R" horiz-adv-x="460" 
d="M28 -42l82 133c-47 15 -68 50 -68 119v138c0 103 46 157 156 157c22 0 47 -6 60 -15v64h-298v117h722v-117h-287v-66c20 10 44 15 73 15c120 0 164 -55 164 -154v-9h-123v9c0 22 -15 36 -57 36c-45 0 -57 -17 -57 -42v-343h-137v95l-79 -137h-151zM217 176
c35 0 42 15 42 40v127c0 25 -7 42 -42 42s-42 -17 -42 -42v-127c0 -25 7 -40 42 -40z" />
    <glyph glyph-name="dvKH_R" horiz-adv-x="579" 
d="M255 -99l-204 16v4l160 104c-119 6 -176 60 -176 173v253h133v-64c0 -23 4 -38 37 -38s37 15 37 38v128c0 23 -6 39 -39 39h-243v117h780v-117h-372c2 -12 3 -25 3 -39v-133c0 -103 -31 -156 -144 -156c-15 0 -46 5 -59 14v-37c0 -53 34 -79 107 -79h16
c75 0 113 27 113 80v131c0 103 35 157 168 157s168 -54 168 -157v-79c0 -103 -35 -157 -168 -157c-27 0 -46 4 -60 13c-12 -27 -33 -49 -64 -72zM615 256v79c0 25 -8 40 -43 40s-43 -16 -43 -40v-85c1 -21 10 -34 43 -34c35 0 43 15 43 40z" />
    <glyph glyph-name="dvG_R" horiz-adv-x="274" 
d="M299 671v-117h-65v-172c0 -115 -67 -167 -169 -167c-17 0 -36 2 -55 5v136c10 -3 23 -5 34 -5c30 0 50 12 50 43v160h-134v117h339zM354 398v-177c-25 -54 -54 -101 -102 -162l-45 -59h-162z" />
    <glyph glyph-name="dvGH_R" horiz-adv-x="311" 
d="M36 -91v2l172 163c-119 11 -172 68 -172 158v46c0 47 18 82 47 99c-25 19 -41 43 -41 98v40c0 13 3 27 10 39h-92v117h525v-117h-268c-31 0 -35 -17 -35 -39v-35c0 -23 6 -39 39 -39h44v-129h-50c-33 0 -39 -16 -39 -39v-23c0 -41 34 -53 83 -53c64 0 86 16 86 73v10h140
v-10c0 -65 -6 -105 -51 -148l-225 -213h-173z" />
    <glyph glyph-name="dvC_R" horiz-adv-x="307" 
d="M480 671v-117h-520v117h520zM59 -72l159 158c-104 13 -148 67 -148 173v65c0 17 3 29 10 39h-64v126h258v-120h-30c-29 0 -34 -17 -34 -39v-66c0 -40 15 -58 65 -58s65 18 65 58v23h140v-24c0 -59 -3 -93 -41 -131l-206 -204h-174z" />
    <glyph glyph-name="dvJ_R" horiz-adv-x="416" 
d="M504 671v-117h-544v117h544zM504 491v-120h-135c6 -16 9 -32 9 -50v-47c0 -103 -56 -161 -179 -161s-179 60 -179 163v33h140v-28c0 -23 6 -39 39 -39s39 16 39 39v42c0 23 -6 39 -39 39h-76v129h381zM188 -56l316 371v-136c-15 -41 -47 -111 -102 -177l-52 -62h-162v4z
" />
    <glyph glyph-name="dvJH_R" horiz-adv-x="495" 
d="M221 328h355v-223c-15 -41 -30 -69 -62 -113l-53 -73h-156l226 301h-155c8 -15 12 -32 12 -51v-22c0 -103 -31 -152 -154 -152c-15 0 -45 2 -58 11v-87h-138v250h138v-11c0 -25 6 -39 36 -39s36 14 36 39v16c0 19 -6 37 -36 37h-2c-91 0 -158 34 -158 141v10
c0 103 56 142 169 142h119v50h-380v117h612v-117h-92v-170h-259c-20 0 -29 -7 -29 -26v-4c0 -19 9 -26 29 -26z" />
    <glyph glyph-name="dvNY_R" horiz-adv-x="433" 
d="M505 671v-117h-545v117h545zM505 361v-205c-15 -41 -45 -107 -85 -155l-59 -71h-160l264 313h-78v-2c-4 -87 -61 -137 -173 -137c-123 0 -174 60 -174 163v14h140v-9c0 -23 1 -39 34 -39s34 16 34 39v74c0 23 -1 39 -34 39s-34 -16 -34 -39v-15h-140v20
c0 103 51 163 174 163c118 0 170 -56 174 -152v-1h117z" />
    <glyph glyph-name="dvNN_R" horiz-adv-x="432" 
d="M521 671v-117h-127v-186c0 -103 -55 -163 -178 -163s-178 60 -178 163v186h-78v117h561zM216 334c33 0 38 16 38 39v181h-76v-181c0 -23 5 -39 38 -39zM201 0l320 388v-162c-19 -40 -61 -111 -113 -172l-45 -54h-162z" />
    <glyph glyph-name="dvT_R" horiz-adv-x="286" 
d="M464 671v-117h-504v117h504zM443 325c0 0 -95 -137 -184 -241l-55 -64h-173v4l244 273c14 15 39 42 39 53c0 9 -8 27 -71 27c-61 0 -78 -21 -78 -62v-53h-135v63c0 112 52 179 194 179c164 0 219 -67 219 -179z" />
    <glyph glyph-name="dvTH_R" horiz-adv-x="405" 
d="M34 -104v4l220 176c-131 13 -212 80 -212 215v131h133c57 0 72 19 72 61v32c0 23 -5 36 -30 36s-30 -13 -30 -36v-34h-133v29c0 103 46 166 159 166s160 -57 160 -160v-58c0 -98 -51 -157 -177 -157h-11v-5c0 -65 19 -94 123 -94c110 0 130 34 130 121h140
c0 -150 -45 -173 -171 -279l-176 -148h-197z" />
    <glyph glyph-name="dvD_R" horiz-adv-x="438" 
d="M21 -63l88 158c-49 17 -71 55 -71 124v117c0 120 58 159 181 159h32v59h-291v117h518v-117h-87v-186h-172c-35 0 -41 -13 -41 -37v-107c0 -24 6 -38 41 -38s41 13 41 38v54h140v-278h-140v97l-89 -160h-150zM536 -234h-144l-111 171h126z" />
    <glyph glyph-name="dvDH_R" horiz-adv-x="312" 
d="M42 -103v2l171 177c-122 11 -176 68 -176 159v43c0 54 15 85 44 102c-25 19 -38 49 -38 95v40c0 13 3 27 10 39h-93v117h289v-117h-31c-28 0 -35 -17 -35 -39v-35c0 -23 6 -39 39 -39h44v-129h-50c-33 0 -39 -16 -39 -39v-20c0 -41 34 -53 83 -53c64 0 86 16 86 73v8h140
v-8c0 -90 -22 -119 -98 -197l-173 -179h-173z" />
    <glyph glyph-name="dvN_R" horiz-adv-x="417" 
d="M525 671v-117h-565v117h565zM525 491v-247c-6 -24 -74 -145 -136 -219l-52 -62h-161l329 399h-149c4 -9 5 -21 5 -34v-16c0 -103 -44 -163 -167 -163s-169 60 -169 163v16c0 103 46 163 169 163h331zM230 313v10c0 23 -5 39 -36 39s-36 -16 -36 -39v-10
c0 -23 5 -39 36 -39s36 16 36 39z" />
    <glyph glyph-name="dvP_R" horiz-adv-x="250" 
d="M33 -31l151 197c-98 10 -144 62 -144 166v222h-80v117h456v-117h-236v-216c0 -30 7 -50 53 -50s53 19 53 50v9h130v-25c0 -64 -26 -95 -73 -156l-151 -197h-159z" />
    <glyph glyph-name="dvPH_R" horiz-adv-x="482" 
d="M8 0l99 178c-45 18 -65 55 -65 123v253h-82v117h677v-117h-237v-71c15 10 40 15 73 15c120 0 164 -55 164 -154v-9h-123v9c-1 22 -15 36 -57 36c-45 0 -57 -17 -57 -42v-338h-140v178l-99 -178h-153zM260 554h-78v-248c0 -23 6 -38 39 -38s39 15 39 38v248z" />
    <glyph glyph-name="dvB_R" horiz-adv-x="271" 
d="M-40 554v117h491v-117h-491zM10 -86l158 165c-93 18 -138 73 -138 172v77c0 114 49 178 202 178c133 0 196 -60 196 -178v-77c0 -86 -47 -127 -112 -195l-137 -142h-169zM234 391c-27 0 -45 -6 -56 -18l127 -94v43c0 46 -18 69 -71 69zM163 257c0 -46 18 -69 71 -69
c26 0 44 6 55 17l-126 93v-41z" />
    <glyph glyph-name="dvBH_R" horiz-adv-x="462" 
d="M520 453v-118h-138v-62c0 -93 -52 -153 -173 -153c-123 0 -174 60 -174 153v27c0 93 51 153 174 153h39v55c0 23 -3 39 -36 39s-36 -16 -36 -39v-17h-140v22c0 103 53 163 176 163s176 -60 176 -163v-60h132zM248 278v57h-39c-33 0 -39 -16 -39 -39v-18
c0 -23 6 -39 39 -39s39 16 39 39zM520 324v-150c-8 -27 -46 -103 -95 -161l-59 -71h-162z" />
    <glyph glyph-name="dvM_R" horiz-adv-x="429" 
d="M497 671v-117h-131v-86h131v-118h-131v-78c0 -93 -50 -153 -173 -153s-173 60 -173 153v44c0 93 50 152 173 152h39v86h-272v117h537zM232 277v73h-39c-33 0 -39 -16 -39 -39v-34c0 -23 6 -39 39 -39s39 16 39 39zM497 313v-137c-15 -39 -66 -125 -115 -183l-52 -62h-160
z" />
    <glyph glyph-name="dvY_R" horiz-adv-x="316" 
d="M33 -45l180 169c-121 12 -183 80 -183 182v116h24c68 0 89 13 89 63v15c0 29 -3 54 -39 54h-144v117h525v-117h-216c8 -14 10 -32 10 -54v-44c0 -77 -35 -118 -112 -122v-8c0 -45 17 -74 88 -74s90 28 90 72v2h140v-20c0 -69 -30 -105 -93 -168l-185 -183h-174z" />
    <glyph glyph-name="dvV_R" horiz-adv-x="265" 
d="M432 671v-117h-472v117h472zM238 505v-118s-8 1 -16 1c-35 0 -51 -13 -51 -43v-74c0 -30 21 -49 66 -49s65 19 65 49v25h130v-42c0 -58 -35 -101 -80 -155l-135 -161h-150l140 167c-98 -9 -172 47 -172 140v101c0 103 46 160 185 160c9 0 18 -1 18 -1z" />
    <glyph glyph-name="dvS_R" horiz-adv-x="448" 
d="M393 162l-142 25l161 125h-83c-22 -16 -55 -24 -87 -24c-25 0 -50 4 -68 14v-97c0 -53 16 -79 79 -79h159v-126h-159c-163 0 -216 60 -216 203v282h137v-36c0 -23 3 -38 36 -38s36 15 36 38v66c0 22 -5 39 -34 39h-252v117h568v-117h-156c9 -12 11 -32 11 -52v-70h145
v-143c-22 -29 -46 -50 -69 -70z" />
    <glyph glyph-name="dvKx_R" horiz-adv-x="458" 
d="M26 -42l82 133c-47 15 -68 50 -68 119v138c0 103 46 157 156 157c22 0 47 -6 60 -15v64h-296v117h700v-117h-267v-66c20 10 44 15 73 15c120 0 164 -55 164 -154v-9h-123v9c-1 22 -15 36 -57 36c-45 0 -57 -17 -57 -42v-343h-137v95l-79 -137h-151zM215 176
c35 0 42 15 42 40v127c0 25 -7 42 -42 42s-42 -17 -42 -42v-127c0 -25 7 -40 42 -40zM194 -123c0 42 16 75 75 75c58 0 75 -33 75 -75s-17 -75 -75 -75c-59 0 -75 33 -75 75z" />
    <glyph glyph-name="dvKHx_R" horiz-adv-x="579" 
d="M255 -99l-204 16v4l160 104c-119 6 -176 60 -176 173v253h133v-64c0 -23 4 -38 37 -38s37 15 37 38v128c0 23 -6 39 -39 39h-243v117h780v-117h-372c2 -12 3 -25 3 -39v-133c0 -103 -31 -156 -144 -156c-15 0 -46 5 -59 14v-37c0 -53 34 -79 107 -79h16
c75 0 113 27 113 80v131c0 103 35 157 168 157s168 -54 168 -157v-79c0 -103 -35 -157 -168 -157c-27 0 -46 4 -60 13c-12 -27 -33 -49 -64 -72zM615 256v79c0 25 -8 40 -43 40s-43 -16 -43 -40v-85c1 -21 10 -34 43 -34c35 0 43 15 43 40zM487 -32c0 42 16 75 75 75
c58 0 75 -33 75 -75s-17 -75 -75 -75c-59 0 -75 33 -75 75z" />
    <glyph glyph-name="dvGx_R" horiz-adv-x="274" 
d="M299 671v-117h-65v-172c0 -115 -67 -167 -169 -167c-17 0 -36 2 -55 5v136c10 -3 23 -5 34 -5c30 0 50 12 50 43v160h-134v117h339zM354 398v-177c-25 -54 -54 -101 -102 -162l-45 -59h-162zM274 -53c0 42 16 75 75 75c58 0 75 -33 75 -75s-17 -75 -75 -75
c-59 0 -75 33 -75 75z" />
    <glyph glyph-name="dvGHx_R" horiz-adv-x="311" 
d="M36 -91v2l172 163c-119 11 -172 68 -172 158v46c0 47 18 82 47 99c-25 19 -41 43 -41 98v40c0 13 3 27 10 39h-92v117h525v-117h-268c-31 0 -35 -17 -35 -39v-35c0 -23 6 -39 39 -39h44v-129h-50c-33 0 -39 -16 -39 -39v-23c0 -41 34 -53 83 -53c64 0 86 16 86 73v10h140
v-10c0 -65 -6 -105 -51 -148l-225 -213h-173zM342 -73c0 42 16 75 75 75c58 0 75 -33 75 -75s-17 -75 -75 -75c-59 0 -75 33 -75 75z" />
    <glyph glyph-name="dvCx_R" horiz-adv-x="307" 
d="M480 671v-117h-520v117h520zM59 -72l159 158c-104 13 -148 67 -148 173v65c0 17 3 29 10 39h-64v126h258v-120h-30c-29 0 -34 -17 -34 -39v-66c0 -40 15 -58 65 -58s65 18 65 58v23h140v-24c0 -59 -3 -93 -41 -131l-206 -204h-174zM357 -58c0 42 16 75 75 75
c58 0 75 -33 75 -75s-17 -75 -75 -75c-59 0 -75 33 -75 75z" />
    <glyph glyph-name="dvJx_R" horiz-adv-x="416" 
d="M504 671v-117h-544v117h544zM504 491v-120h-135c6 -16 9 -32 9 -50v-47c0 -103 -56 -161 -179 -161s-179 60 -179 163v33h140v-28c0 -23 6 -39 39 -39s39 16 39 39v42c0 23 -6 39 -39 39h-76v129h381zM188 -56l316 371v-136c-15 -41 -47 -111 -102 -177l-52 -62h-162v4z
M10 15c0 42 16 75 75 75c58 0 75 -33 75 -75s-17 -75 -75 -75c-59 0 -75 33 -75 75z" />
    <glyph glyph-name="dvJHx_R" horiz-adv-x="495" 
d="M221 328h355v-223c-15 -41 -30 -69 -62 -113l-53 -73h-156l226 301h-155c8 -15 12 -32 12 -51v-22c0 -103 -31 -152 -154 -152c-15 0 -45 2 -58 11v-87h-138v250h138v-11c0 -25 6 -39 36 -39s36 14 36 39v16c0 19 -6 37 -36 37h-2c-91 0 -158 34 -158 141v10
c0 103 56 142 169 142h119v50h-380v117h612v-117h-92v-170h-259c-20 0 -29 -7 -29 -26v-4c0 -19 9 -26 29 -26zM163 -186c0 42 16 75 75 75c58 0 75 -33 75 -75s-17 -75 -75 -75c-59 0 -75 33 -75 75z" />
    <glyph glyph-name="dvNYx_R" horiz-adv-x="433" 
d="M505 671v-117h-545v117h545zM505 361v-205c-15 -41 -45 -107 -85 -155l-59 -71h-160l264 313h-78v-2c-4 -87 -61 -137 -173 -137c-123 0 -174 60 -174 163v14h140v-9c0 -23 1 -39 34 -39s34 16 34 39v74c0 23 -1 39 -34 39s-34 -16 -34 -39v-15h-140v20
c0 103 51 163 174 163c118 0 170 -56 174 -152v-1h117zM13 -5c0 42 16 75 75 75c58 0 75 -33 75 -75s-17 -75 -75 -75c-59 0 -75 33 -75 75z" />
    <glyph glyph-name="dvNNx_R" horiz-adv-x="432" 
d="M521 671v-117h-127v-186c0 -103 -55 -163 -178 -163s-178 60 -178 163v186h-78v117h561zM216 334c33 0 38 16 38 39v181h-76v-181c0 -23 5 -39 38 -39zM201 0l320 388v-162c-19 -40 -61 -111 -113 -172l-45 -54h-162zM5 93c0 42 16 75 75 75c58 0 75 -33 75 -75
s-17 -75 -75 -75c-59 0 -75 33 -75 75z" />
    <glyph glyph-name="dvTx_R" horiz-adv-x="286" 
d="M464 671v-117h-504v117h504zM443 325c0 0 -95 -137 -184 -241l-55 -64h-173v4l244 273c14 15 39 42 39 53c0 9 -8 27 -71 27c-61 0 -78 -21 -78 -62v-53h-135v63c0 112 52 179 194 179c164 0 219 -67 219 -179zM254 -31c0 42 16 75 75 75c58 0 75 -33 75 -75
s-17 -75 -75 -75c-59 0 -75 33 -75 75z" />
    <glyph glyph-name="dvTHx_R" horiz-adv-x="405" 
d="M34 -104v4l220 176c-131 13 -212 80 -212 215v131h133c57 0 72 19 72 61v32c0 23 -5 36 -30 36s-30 -13 -30 -36v-34h-133v29c0 103 46 166 159 166s160 -57 160 -160v-58c0 -98 -51 -157 -177 -157h-11v-5c0 -65 19 -94 123 -94c110 0 130 34 130 121h140
c0 -150 -45 -173 -171 -279l-176 -148h-197zM419 -55c0 42 16 75 75 75c58 0 75 -33 75 -75s-17 -75 -75 -75c-59 0 -75 33 -75 75z" />
    <glyph glyph-name="dvDx_R" horiz-adv-x="438" 
d="M21 -63l88 158c-49 17 -71 55 -71 124v117c0 120 58 159 181 159h32v59h-291v117h518v-117h-87v-186h-172c-35 0 -41 -13 -41 -37v-107c0 -24 6 -38 41 -38s41 13 41 38v54h140v-278h-140v97l-89 -160h-150zM213 -103c0 42 16 75 75 75c58 0 75 -33 75 -75
s-17 -75 -75 -75c-59 0 -75 33 -75 75zM495 -394h-144l-111 171h126z" />
    <glyph glyph-name="dvDHx_R" horiz-adv-x="313" 
d="M42 -103v2l171 177c-122 11 -176 68 -176 159v43c0 54 15 85 44 102c-25 19 -38 49 -38 95v40c0 13 3 27 10 39h-93v117h289v-117h-31c-28 0 -35 -17 -35 -39v-35c0 -23 6 -39 39 -39h44v-129h-50c-33 0 -39 -16 -39 -39v-20c0 -41 34 -53 83 -53c64 0 86 16 86 73v8h140
v-8c0 -90 -22 -119 -98 -197l-173 -179h-173zM347 -56c0 42 16 75 75 75c58 0 75 -33 75 -75s-17 -75 -75 -75c-59 0 -75 33 -75 75z" />
    <glyph glyph-name="dvNx_R" horiz-adv-x="417" 
d="M525 671v-117h-565v117h565zM525 491v-247c-6 -24 -74 -145 -136 -219l-52 -62h-161l329 399h-149c4 -9 5 -21 5 -34v-16c0 -103 -44 -163 -167 -163s-169 60 -169 163v16c0 103 46 163 169 163h331zM230 313v10c0 23 -5 39 -36 39s-36 -16 -36 -39v-10
c0 -23 5 -39 36 -39s36 16 36 39zM413 -58c0 42 16 75 75 75c58 0 75 -33 75 -75s-17 -75 -75 -75c-59 0 -75 33 -75 75z" />
    <glyph glyph-name="dvPx_R" horiz-adv-x="254" 
d="M33 -31l151 197c-98 10 -144 62 -144 166v222h-80v117h456v-117h-236v-216c0 -30 7 -50 53 -50s53 19 53 50v9h130v-25c0 -64 -26 -95 -73 -156l-151 -197h-159zM257 -51c0 42 16 75 75 75c58 0 75 -33 75 -75s-17 -75 -75 -75c-59 0 -75 33 -75 75z" />
    <glyph glyph-name="dvPHx_R" horiz-adv-x="482" 
d="M8 0l99 178c-45 18 -65 55 -65 123v253h-82v117h677v-117h-237v-71c15 10 40 15 73 15c120 0 164 -55 164 -154v-9h-123v9c-1 22 -15 36 -57 36c-45 0 -57 -17 -57 -42v-338h-140v178l-99 -178h-153zM260 554h-78v-248c0 -23 6 -38 39 -38s39 15 39 38v248zM134 -116
c0 42 16 75 75 75c58 0 75 -33 75 -75s-17 -75 -75 -75c-59 0 -75 33 -75 75z" />
    <glyph glyph-name="dvBx_R" horiz-adv-x="271" 
d="M-40 554v117h491v-117h-491zM10 -86l158 165c-93 18 -138 73 -138 172v77c0 114 49 178 202 178c133 0 196 -60 196 -178v-77c0 -86 -47 -127 -112 -195l-137 -142h-169zM234 391c-27 0 -45 -6 -56 -18l127 -94v43c0 46 -18 69 -71 69zM163 257c0 -46 18 -69 71 -69
c26 0 44 6 55 17l-126 93v-41zM317 -58c0 42 16 75 75 75c58 0 75 -33 75 -75s-17 -75 -75 -75c-59 0 -75 33 -75 75z" />
    <glyph glyph-name="dvBHx_R" horiz-adv-x="456" 
d="M520 453v-118h-138v-62c0 -93 -52 -153 -173 -153c-123 0 -174 60 -174 153v27c0 93 51 153 174 153h39v55c0 23 -3 39 -36 39s-36 -16 -36 -39v-17h-140v22c0 103 53 163 176 163s176 -60 176 -163v-60h132zM248 278v57h-39c-33 0 -39 -16 -39 -39v-18
c0 -23 6 -39 39 -39s39 16 39 39zM520 324v-150c-8 -27 -46 -103 -95 -161l-59 -71h-162zM451 -39c0 42 16 75 75 75c58 0 75 -33 75 -75s-17 -75 -75 -75c-59 0 -75 33 -75 75z" />
    <glyph glyph-name="dvMx_R" horiz-adv-x="429" 
d="M497 671v-117h-131v-86h131v-118h-131v-78c0 -93 -50 -153 -173 -153s-173 60 -173 153v44c0 93 50 152 173 152h39v86h-272v117h537zM232 277v73h-39c-33 0 -39 -16 -39 -39v-34c0 -23 6 -39 39 -39s39 16 39 39zM497 313v-137c-15 -39 -66 -125 -115 -183l-52 -62h-160
zM413 -68c0 42 16 75 75 75c58 0 75 -33 75 -75s-17 -75 -75 -75c-59 0 -75 33 -75 75z" />
    <glyph glyph-name="dvYx_R" horiz-adv-x="312" 
d="M33 -45l180 169c-121 12 -183 80 -183 182v116h24c68 0 89 13 89 63v15c0 29 -3 54 -39 54h-144v117h525v-117h-216c8 -14 10 -32 10 -54v-44c0 -77 -35 -118 -112 -122v-8c0 -45 17 -74 88 -74s90 28 90 72v2h140v-20c0 -69 -30 -105 -93 -168l-185 -183h-174zM302 -40
c0 42 16 75 75 75c58 0 75 -33 75 -75s-17 -75 -75 -75c-59 0 -75 33 -75 75z" />
    <glyph glyph-name="dvVx_R" horiz-adv-x="265" 
d="M432 671v-117h-472v117h472zM238 505v-118s-8 1 -16 1c-35 0 -51 -13 -51 -43v-74c0 -30 21 -49 66 -49s65 19 65 49v25h130v-42c0 -58 -35 -101 -80 -155l-135 -161h-150l140 167c-98 -9 -172 47 -172 140v101c0 103 46 160 185 160c9 0 18 -1 18 -1zM268 -65
c0 42 16 75 75 75c58 0 75 -33 75 -75s-17 -75 -75 -75c-59 0 -75 33 -75 75z" />
    <glyph glyph-name="dvK_KA" horiz-adv-x="1067" 
d="M865 61v130c33 0 39 5 39 38v114c0 25 -7 42 -42 42s-42 -17 -42 -42v-343h-137v65c-13 -8 -38 -14 -60 -14c-110 0 -156 48 -156 151v141c0 25 -7 42 -42 42s-42 -17 -42 -42v-343h-137v65c-13 -8 -38 -14 -60 -14c-110 0 -156 48 -156 151v146c0 103 46 157 156 157
c22 0 47 -6 60 -15v64h-286v117h1148v-117h-288v-64c15 9 41 15 61 15c110 0 156 -54 156 -157v-133c0 -103 -39 -156 -152 -156c-7 0 -15 1 -20 2zM683 490v64h-300v-64c15 9 41 15 61 15c36 0 64 -8 85 -20c24 13 55 20 94 20c22 0 47 -6 60 -15zM205 166
c35 0 42 17 42 42v135c0 25 -7 42 -42 42s-42 -17 -42 -42v-135c0 -25 7 -42 42 -42zM642 166c35 0 42 17 42 42v135c0 25 -7 42 -42 42s-42 -17 -42 -42v-135c0 -25 7 -42 42 -42z" />
    <glyph glyph-name="dvKx_KxA" horiz-adv-x="1067" 
d="M865 61v130c33 0 39 5 39 38v114c0 25 -7 42 -42 42s-42 -17 -42 -42v-343h-137v65c-13 -8 -38 -14 -60 -14c-110 0 -156 48 -156 151v141c0 25 -7 42 -42 42s-42 -17 -42 -42v-343h-137v65c-13 -8 -38 -14 -60 -14c-110 0 -156 48 -156 151v146c0 103 46 157 156 157
c22 0 47 -6 60 -15v64h-286v117h1147v-117h-287v-64c15 9 41 15 61 15c110 0 156 -54 156 -157v-133c0 -103 -39 -156 -152 -156c-7 0 -15 1 -20 2zM683 490v64h-300v-64c15 9 41 15 61 15c36 0 63 -8 83 -22c24 15 56 22 96 22c22 0 47 -6 60 -15zM205 166
c35 0 42 17 42 42v135c0 25 -7 42 -42 42s-42 -17 -42 -42v-135c0 -25 7 -42 42 -42zM642 166c35 0 42 17 42 42v135c0 25 -7 42 -42 42s-42 -17 -42 -42v-135c0 -25 7 -42 42 -42zM61 -55c0 42 16 75 75 75c58 0 75 -33 75 -75s-17 -75 -75 -75c-59 0 -75 33 -75 75z
M498 -55c0 42 16 75 75 75c58 0 75 -33 75 -75s-17 -75 -75 -75c-59 0 -75 33 -75 75z" />
    <glyph glyph-name="dvK_KHA" horiz-adv-x="1225" 
d="M-40 554v117h1305v-117h-82v-554h-136v109c-13 -9 -37 -10 -52 -10c-20 0 -38 1 -54 4c-31 -67 -99 -103 -205 -103h-28c-163 0 -241 65 -241 198v145c0 27 -7 42 -42 42s-42 -17 -42 -42v-343h-137v65c-13 -8 -38 -14 -60 -14c-110 0 -156 48 -156 151v146
c0 103 46 157 156 157c22 0 47 -6 60 -15v64h-286zM1047 484v70h-247c2 -12 3 -25 3 -39v-133c0 -103 -31 -156 -144 -156c-15 0 -46 5 -59 14v-37c0 -53 34 -79 107 -79h16c75 0 113 27 113 80v130c0 103 29 162 152 162c16 0 43 -3 59 -12zM674 515c0 23 -6 39 -39 39
h-252v-66c22 11 51 17 81 17c90 0 136 -41 136 -118c0 -23 4 -38 37 -38s37 15 37 38v128zM205 166c35 0 42 17 42 42v135c0 25 -7 42 -42 42s-42 -17 -42 -42v-135c0 -25 7 -42 42 -42zM1004 375c-35 0 -43 -16 -43 -40v-79c0 -24 8 -40 43 -40s43 16 43 40v79
c0 24 -8 40 -43 40z" />
    <glyph glyph-name="dvK_CA" horiz-adv-x="920" 
d="M508 303h-45v40c0 25 -5 42 -40 42s-40 -17 -40 -42v-343h-137v65c-13 -8 -38 -14 -60 -14c-110 0 -156 48 -156 151v146c0 103 46 157 156 157c22 0 47 -6 60 -15v64h-286v117h1000v-117h-82v-554h-140v68c-22 -11 -52 -15 -73 -15c-115 0 -167 53 -167 166v45
c0 17 3 29 10 39zM638 270v-46c0 -30 10 -48 50 -48s50 18 50 48v330h-355v-64c15 9 41 15 61 15c77 0 120 -25 140 -76h106v-120h-18c-29 0 -34 -17 -34 -39zM205 166c35 0 42 17 42 42v135c0 25 -7 42 -42 42s-42 -17 -42 -42v-135c0 -25 7 -42 42 -42z" />
    <glyph glyph-name="dvK_JA" horiz-adv-x="1093" 
d="M911 491v63h-528v-64c15 9 41 15 61 15c114 0 163 -54 163 -157v-134c0 -23 8 -39 46 -39s46 16 46 39v109c0 33 -6 39 -39 39h-14v129h265zM205 166c35 0 42 17 42 42v135c0 25 -7 42 -42 42s-42 -17 -42 -42v-135c0 -25 7 -42 42 -42zM-40 554v117h1173v-117h-82v-554
h-140v371h-81c6 -16 9 -32 9 -50v-112c0 -103 -58 -161 -186 -161s-186 60 -186 163v132c0 25 -7 42 -42 42s-42 -17 -42 -42v-343h-137v65c-13 -8 -38 -14 -60 -14c-110 0 -156 48 -156 151v146c0 103 46 157 156 157c22 0 47 -6 60 -15v64h-286z" />
    <glyph glyph-name="dvK_TTA" horiz-adv-x="850" 
d="M799 364h-155c-33 0 -37 -14 -37 -37v-168c0 -23 6 -39 39 -39s39 16 39 39v84h140v-85c0 -103 -56 -163 -179 -163s-179 60 -179 163v185c0 25 -7 42 -42 42s-42 -17 -42 -42v-343h-137v65c-13 -8 -38 -14 -60 -14c-110 0 -156 48 -156 151v146c0 103 46 157 156 157
c22 0 47 -6 60 -15v64h-286v117h930v-117h-91v-190zM659 491v63h-276v-64c15 9 41 15 61 15c45 0 77 -11 100 -30c26 11 59 16 100 16h15zM205 166c35 0 42 17 42 42v135c0 25 -7 42 -42 42s-42 -17 -42 -42v-135c0 -25 7 -42 42 -42z" />
    <glyph glyph-name="dvK_NNA" horiz-adv-x="1113" 
d="M853 554v-288c0 -103 -55 -163 -178 -163s-178 60 -178 163v83c0 22 -15 36 -57 36c-45 0 -57 -17 -57 -42v-343h-137v65c-13 -8 -38 -14 -60 -14c-110 0 -156 48 -156 151v146c0 103 46 157 156 157c22 0 47 -6 60 -15v64h-286v117h1193v-117h-82v-554h-140v554h-78z
M456 503c15 0 28 -1 41 -2v53h-114v-66c16 9 40 15 73 15zM713 554h-76v-287c0 -23 5 -39 38 -39s38 16 38 39v287zM205 166c35 0 42 17 42 42v135c0 25 -7 42 -42 42s-42 -17 -42 -42v-135c0 -25 7 -42 42 -42z" />
    <glyph glyph-name="dvK_TA" horiz-adv-x="684" 
d="M477 44v130c35 0 39 6 39 38v121c0 25 -7 42 -42 42s-42 -17 -42 -42v-333h-136v371h-44c-35 0 -44 -17 -44 -42v-117c0 -32 9 -38 44 -38v-130c-11 -2 -17 -2 -25 -2c-113 0 -152 58 -152 161v126c0 16 2 30 7 44h-62v118h276v63h-336v117h764v-117h-292v-74
c15 9 41 15 61 15c113 0 156 -54 156 -157v-135c0 -103 -39 -161 -152 -161c-5 0 -13 1 -20 2z" />
    <glyph glyph-name="dvKx_TA" horiz-adv-x="913" 
d="M674 130v-130c-11 -1 -22 -2 -30 -2c-124 0 -159 53 -159 156v169c0 17 1 33 4 48c-8 9 -24 14 -49 14c-45 0 -57 -17 -57 -42v-343h-137v65c-13 -8 -38 -14 -60 -14c-110 0 -156 48 -156 151v146c0 103 46 157 156 157c22 0 47 -6 60 -15v64h-286v117h993v-117h-82v-554
h-140v318c0 29 -11 49 -53 49s-53 -20 -53 -49v-150c0 -33 16 -38 49 -38zM731 485v69h-348v-66c16 9 40 15 73 15c48 0 83 -9 109 -25c25 11 55 18 93 18c28 0 57 -4 73 -11zM205 166c35 0 42 17 42 42v135c0 25 -7 42 -42 42s-42 -17 -42 -42v-135c0 -25 7 -42 42 -42z
M61 -55c0 42 16 75 75 75c58 0 75 -33 75 -75s-17 -75 -75 -75c-59 0 -75 33 -75 75z" />
    <glyph glyph-name="dvK_T_YA" horiz-adv-x="1216" 
d="M-40 554v117h1296v-117h-82v-554h-140v109c-27 -15 -61 -23 -102 -23c-139 0 -213 71 -213 184v54c-7 5 -16 9 -30 9h-11c-42 0 -53 -20 -53 -49v-116c0 -33 16 -38 49 -38l1 -130c-11 -1 -23 -2 -31 -2c-124 0 -159 53 -159 156v135c0 28 3 52 10 73
c-6 15 -22 23 -55 23c-45 0 -57 -17 -57 -42v-343h-137v65c-13 -8 -38 -14 -60 -14c-110 0 -156 48 -156 151v146c0 103 46 157 156 157c22 0 47 -6 60 -15v64h-286zM832 500c0 29 -3 54 -39 54h-410v-66c16 9 40 15 73 15c68 0 111 -18 136 -51c24 7 53 10 86 10h13
c62 0 107 -13 135 -37c4 8 6 20 6 34v41zM944 216c72 0 90 29 90 74v264h-76c8 -14 10 -32 10 -54v-70c0 -77 -35 -118 -112 -122v-18c0 -45 17 -74 88 -74zM205 166c35 0 42 17 42 42v135c0 25 -7 42 -42 42s-42 -17 -42 -42v-135c0 -25 7 -42 42 -42z" />
    <glyph glyph-name="dvK_T_RA" horiz-adv-x="933" 
d="M468 20v4l267 299c14 16 16 21 16 31c0 9 -8 23 -71 23c-61 0 -78 -21 -78 -62v-53h-135v63v6v12c0 25 -7 42 -42 42s-42 -17 -42 -42v-343h-137v65c-13 -8 -38 -14 -60 -14c-110 0 -156 48 -156 151v146c0 103 46 157 156 157c22 0 47 -6 60 -15v64h-286v117h1013v-117
h-82v-554h-131v26c0 51 4 131 10 167h-2c-17 -37 -49 -83 -72 -109l-55 -64h-173zM751 485v69h-368v-64c15 9 41 15 61 15c42 0 72 -11 92 -29c30 18 71 28 125 28c48 0 82 -10 90 -19zM205 166c35 0 42 17 42 42v135c0 25 -7 42 -42 42s-42 -17 -42 -42v-135
c0 -25 7 -42 42 -42z" />
    <glyph glyph-name="dvK_T_VA" horiz-adv-x="1122" 
d="M1080 554v-554h-140v63c-14 -6 -44 -11 -66 -11c-123 0 -164 56 -164 159v135c0 7 0 14 1 21h-33c-42 0 -53 -20 -53 -49v-150c0 -33 16 -38 49 -38v-130c-11 -1 -23 -2 -31 -2c-124 0 -158 53 -158 156v169c0 17 1 34 4 48c-9 9 -24 14 -49 14c-45 0 -57 -17 -57 -42
v-343h-137v65c-13 -8 -38 -14 -60 -14c-110 0 -156 48 -156 151v146c0 103 46 157 156 157c22 0 47 -6 60 -15v64h-286v117h1202v-117h-82zM940 495v59h-557v-66c16 9 40 15 73 15c48 0 84 -9 110 -26c28 13 65 19 112 19h122c20 7 45 10 74 10c22 0 52 -5 66 -11zM947 214
v131c0 30 -15 43 -50 43s-51 -13 -51 -43v-131c0 -30 16 -44 51 -44s50 14 50 44zM205 166c35 0 42 17 42 42v135c0 25 -7 42 -42 42s-42 -17 -42 -42v-135c0 -25 7 -42 42 -42z" />
    <glyph glyph-name="dvK_THA" horiz-adv-x="1030" 
d="M733 202c94 0 115 34 115 121v348h222v-117h-82v-554h-140v103c-34 -20 -81 -29 -142 -29c-160 0 -239 85 -239 217c0 25 -7 42 -42 42s-42 -17 -42 -42v-291h-137v65c-13 -8 -38 -14 -60 -14c-110 0 -156 48 -156 151v146c0 103 46 157 156 157c22 0 47 -6 60 -15v64
h-286v117h485v-117h-62v-116c15 9 37 15 61 15c48 0 84 -10 110 -31h46c57 0 72 19 72 61v32c0 23 -5 36 -30 36s-30 -13 -30 -36v-21h-133v16c0 103 46 166 159 166s160 -57 160 -160v-58c0 -98 -51 -157 -177 -157h-11v-5c0 -65 25 -94 123 -94zM205 166c35 0 42 17 42 42
v135c0 25 -7 42 -42 42s-42 -17 -42 -42v-135c0 -25 7 -42 42 -42z" />
    <glyph glyph-name="dvK_DA" horiz-adv-x="867" 
d="M467 217v126c0 25 -7 42 -42 42s-42 -17 -42 -42v-343h-137v65c-13 -8 -38 -14 -60 -14c-110 0 -156 48 -156 151v146c0 103 46 157 156 157c22 0 47 -6 60 -15v64h-286v117h947v-117h-87v-186h-172c-35 0 -41 -13 -41 -37v-109c0 -24 6 -38 41 -38s41 13 41 38v56h140
v-278h-140v73c-19 -9 -46 -12 -61 -12c-113 0 -161 53 -161 156zM680 495v59h-297v-64c15 9 41 15 61 15c43 0 74 -10 96 -27c28 12 64 17 108 17h32zM205 166c35 0 42 17 42 42v135c0 25 -7 42 -42 42s-42 -17 -42 -42v-135c0 -25 7 -42 42 -42z" />
    <glyph glyph-name="dvK_NA" horiz-adv-x="1045" 
d="M803 328v-113c0 -103 -44 -163 -167 -163s-169 60 -169 163v85h-1v43c0 25 -7 42 -42 42s-42 -17 -42 -42l1 -343h-137l-1 65c-13 -8 -38 -14 -60 -14c-110 0 -156 48 -156 151v146c0 103 46 157 156 157c22 0 47 -6 60 -15v64h-285v117h1125v-117h-82v-554h-140v362h-65
c4 -9 5 -21 5 -34zM863 491v63h-481v-64c15 9 41 15 61 15c45 0 76 -12 96 -32c25 12 57 18 97 18h227zM204 166c35 0 42 17 42 42v135c0 25 -7 42 -42 42s-42 -17 -42 -42v-135c0 -25 7 -42 42 -42zM672 216v107c0 23 -5 39 -36 39s-36 -16 -36 -39v-107
c0 -23 5 -39 36 -39s36 16 36 39z" />
    <glyph glyph-name="dvK_PA" horiz-adv-x="905" 
d="M723 0v126c-19 -8 -45 -12 -70 -12c-118 0 -156 55 -156 158v48c0 22 -15 36 -57 36c-45 0 -57 -17 -57 -42v-314h-137v65c-13 -8 -38 -14 -60 -14c-110 0 -156 48 -156 151v146c0 103 46 157 156 157c22 0 47 -6 60 -15v64h-286v117h985v-117h-82v-554h-140zM456 474
c15 0 28 -1 41 -2v82h-114v-95c16 9 40 15 73 15zM723 554h-86v-276c0 -23 7 -40 43 -40s43 17 43 40v276zM205 166c35 0 42 17 42 42v135c0 25 -7 42 -42 42s-42 -17 -42 -42v-135c0 -25 7 -42 42 -42z" />
    <glyph glyph-name="dvK_P_RA" horiz-adv-x="905" 
d="M465 0l104 187c-55 19 -72 62 -72 133c0 22 -15 36 -57 36c-45 0 -57 -17 -57 -42v-314h-137v65c-13 -8 -38 -14 -60 -14c-110 0 -156 48 -156 151v146c0 103 46 157 156 157c22 0 47 -6 60 -15v64h-286v117h985v-117h-82v-554h-140v189l-105 -189h-153zM497 554h-114
v-95c16 9 40 15 73 15c15 0 28 -1 41 -2v82zM723 554h-86v-228c0 -23 5 -38 43 -38s43 15 43 38v228zM205 166c35 0 42 17 42 42v135c0 25 -7 42 -42 42s-42 -17 -42 -42v-135c0 -25 7 -42 42 -42z" />
    <glyph glyph-name="dvK_PHA" horiz-adv-x="1103" 
d="M897 59v130c30 0 36 9 36 39v105c0 23 -6 39 -39 39s-39 -16 -39 -39v-333h-140v111c-17 -7 -42 -11 -59 -11c-113 0 -159 53 -159 156v64c0 22 -15 36 -57 36c-45 0 -57 -17 -57 -42v-314h-137v65c-13 -8 -38 -14 -60 -14c-110 0 -156 48 -156 151v146
c0 103 46 157 156 157c22 0 47 -6 60 -15v64h-286v117h1183v-117h-288v-66c17 8 41 13 59 13c113 0 159 -60 159 -163v-124c0 -103 -46 -156 -159 -156c-6 0 -11 0 -17 1zM456 474c15 0 28 -1 41 -2v82h-114v-95c16 9 40 15 73 15zM715 554h-78v-293c0 -23 6 -38 39 -38
s39 15 39 38v293zM205 166c35 0 42 17 42 42v135c0 25 -7 42 -42 42s-42 -17 -42 -42v-135c0 -25 7 -42 42 -42z" />
    <glyph glyph-name="dvKx_PHA" horiz-adv-x="1103" 
d="M897 59v130c30 0 36 9 36 39v105c0 23 -6 39 -39 39s-39 -16 -39 -39v-333h-140v111c-17 -7 -42 -11 -59 -11c-113 0 -159 53 -159 156v64c0 22 -15 36 -57 36c-45 0 -57 -17 -57 -42v-314h-137v65c-13 -8 -38 -14 -60 -14c-110 0 -156 48 -156 151v146
c0 103 46 157 156 157c22 0 47 -6 60 -15v64h-286v117h1183v-117h-288v-66c17 8 41 13 59 13c113 0 159 -60 159 -163v-124c0 -103 -46 -156 -159 -156c-6 0 -11 0 -17 1zM456 474c15 0 28 -1 41 -2v82h-114v-95c16 9 40 15 73 15zM715 554h-78v-293c0 -23 6 -38 39 -38
s39 15 39 38v293zM205 166c35 0 42 17 42 42v135c0 25 -7 42 -42 42s-42 -17 -42 -42v-135c0 -25 7 -42 42 -42zM61 -55c0 42 16 75 75 75c58 0 75 -33 75 -75s-17 -75 -75 -75c-59 0 -75 33 -75 75z" />
    <glyph glyph-name="dvKx_PHxA" horiz-adv-x="1103" 
d="M897 59v130c30 0 36 9 36 39v105c0 23 -6 39 -39 39s-39 -16 -39 -39v-333h-140v111c-17 -7 -42 -11 -59 -11c-113 0 -159 53 -159 156v64c0 22 -15 36 -57 36c-45 0 -57 -17 -57 -42v-314h-137v65c-13 -8 -38 -14 -60 -14c-110 0 -156 48 -156 151v146
c0 103 46 157 156 157c22 0 47 -6 60 -15v64h-286v117h1183v-117h-288v-66c17 8 41 13 59 13c113 0 159 -60 159 -163v-124c0 -103 -46 -156 -159 -156c-6 0 -11 0 -17 1zM456 474c15 0 28 -1 41 -2v82h-114v-95c16 9 40 15 73 15zM715 554h-78v-293c0 -23 6 -38 39 -38
s39 15 39 38v293zM205 166c35 0 42 17 42 42v135c0 25 -7 42 -42 42s-42 -17 -42 -42v-135c0 -25 7 -42 42 -42zM468 -24c0 42 16 75 75 75c58 0 75 -33 75 -75s-17 -75 -75 -75c-59 0 -75 33 -75 75zM70 -55c0 42 16 75 75 75c58 0 75 -33 75 -75s-17 -75 -75 -75
c-59 0 -75 33 -75 75z" />
    <glyph glyph-name="dvKx_BA" horiz-adv-x="907" 
d="M732 0v66c-21 -9 -47 -13 -78 -13c-123 0 -187 39 -187 168v122c0 25 -7 42 -42 42s-42 -17 -42 -42v-343h-137v65c-13 -8 -38 -14 -60 -14c-110 0 -156 48 -156 151v146c0 103 46 157 156 157c22 0 47 -6 60 -15v64h-286v117h987v-117h-82v-554h-133zM732 493v61h-349
v-64c15 9 41 15 61 15c38 0 66 -9 86 -24c31 18 72 25 124 25c31 0 57 -4 78 -13zM666 391c-28 0 -45 -6 -54 -18l120 -105v64c0 36 -13 59 -66 59zM205 166c35 0 42 17 42 42v135c0 25 -7 42 -42 42s-42 -17 -42 -42v-135c0 -25 7 -42 42 -42zM600 227c0 -36 13 -59 66 -59
c28 0 44 6 54 17l-120 106v-64zM61 -55c0 42 16 75 75 75c58 0 75 -33 75 -75s-17 -75 -75 -75c-59 0 -75 33 -75 75z" />
    <glyph glyph-name="dvK_MA" horiz-adv-x="1066" 
d="M887 0v328h-74v-120c0 -93 -50 -153 -173 -153s-173 60 -173 153v135c0 25 -7 42 -42 42s-42 -17 -42 -42v-343h-137v65c-13 -8 -38 -14 -60 -14c-110 0 -156 48 -156 151v146c0 103 46 157 156 157c22 0 47 -6 60 -15v64h-286v117h1146v-117h-82v-554h-137zM679 446v108
h-296v-64c15 9 41 15 61 15c70 0 114 -22 137 -65c17 4 37 6 59 6h39zM813 446h74v108h-74v-108zM205 166c35 0 42 17 42 42v135c0 25 -7 42 -42 42s-42 -17 -42 -42v-135c0 -25 7 -42 42 -42zM679 213v115h-39c-33 0 -39 -16 -39 -39v-76c0 -23 6 -39 39 -39s39 16 39 39z
" />
    <glyph glyph-name="dvKx_MA" horiz-adv-x="1066" 
d="M887 0v328h-74v-120c0 -93 -50 -153 -173 -153s-173 60 -173 153v135c0 25 -7 42 -42 42s-42 -17 -42 -42v-343h-137v65c-13 -8 -38 -14 -60 -14c-110 0 -156 48 -156 151v146c0 103 46 157 156 157c22 0 47 -6 60 -15v64h-286v117h1146v-117h-82v-554h-137zM679 446v108
h-296v-64c15 9 41 15 61 15c67 0 103 -28 121 -69c21 7 46 10 75 10h39zM813 446h74v108h-74v-108zM205 166c35 0 42 17 42 42v135c0 25 -7 42 -42 42s-42 -17 -42 -42v-135c0 -25 7 -42 42 -42zM679 213v115h-39c-33 0 -39 -16 -39 -39v-76c0 -23 6 -39 39 -39s39 16 39 39
zM61 -55c0 42 16 75 75 75c58 0 75 -33 75 -75s-17 -75 -75 -75c-59 0 -75 33 -75 75z" />
    <glyph glyph-name="dvK_YA" horiz-adv-x="964" 
d="M680 86c-139 0 -213 71 -213 184v61c0 25 -7 42 -42 42s-42 -17 -42 -42v-331h-137v65c-13 -8 -38 -14 -60 -14c-110 0 -156 48 -156 151v146c0 103 46 157 156 157c22 0 47 -6 60 -15v64h-286v117h1044v-117h-82v-554h-140v109c-27 -15 -61 -23 -102 -23zM580 500
c0 29 -3 54 -39 54h-158v-76c15 9 41 15 61 15c67 0 110 -20 134 -59c1 7 2 15 2 25v41zM692 216c72 0 90 29 90 74v264h-76c8 -14 10 -32 10 -54v-70c0 -77 -35 -118 -112 -122v-18c0 -45 17 -74 88 -74zM205 166c35 0 42 17 42 42v135c0 25 -7 42 -42 42s-42 -17 -42 -42
v-135c0 -25 7 -42 42 -42z" />
    <glyph glyph-name="dvK_LA" horiz-adv-x="1085" 
d="M467 178v165c0 25 -7 42 -42 42s-42 -17 -42 -42v-343h-137v65c-13 -8 -38 -14 -60 -14c-110 0 -156 48 -156 151v146c0 103 46 157 156 157c22 0 47 -6 60 -15v64h-286v117h1165v-117h-82v-554h-140v326c0 23 -6 39 -39 39s-39 -16 -39 -39v-114h-140v114
c0 23 -6 39 -39 39s-39 -16 -39 -39v-145c0 -33 6 -59 69 -59h60l1 -122h-69c-149 0 -201 55 -201 178zM903 479v75h-520v-64c15 9 41 15 61 15c46 0 80 -9 105 -28c25 11 56 17 92 17c71 0 99 -31 111 -55c12 24 39 54 98 54c20 0 44 -5 53 -14zM205 166c35 0 42 17 42 42
v135c0 25 -7 42 -42 42s-42 -17 -42 -42v-135c0 -25 7 -42 42 -42z" />
    <glyph glyph-name="dvK_VA" horiz-adv-x="887" 
d="M845 554v-554h-140v63c-14 -6 -44 -11 -66 -11c-123 0 -164 56 -164 159v132c0 25 -9 42 -46 42s-46 -17 -46 -42v-343h-137v65c-13 -8 -38 -14 -60 -14c-110 0 -156 48 -156 151v146c0 103 46 157 156 157c22 0 47 -6 60 -15v64h-286v117h967v-117h-82zM705 495v59h-322
v-64c15 9 43 15 65 15c38 0 67 -8 88 -22c26 15 59 23 103 23c22 0 52 -5 66 -11zM712 214v131c0 30 -15 43 -50 43s-51 -13 -51 -43v-131c0 -30 16 -44 51 -44s50 14 50 44zM205 166c35 0 42 17 42 42v135c0 25 -7 42 -42 42s-42 -17 -42 -42v-135c0 -25 7 -42 42 -42z" />
    <glyph glyph-name="dvK_V_YA" horiz-adv-x="1231" 
d="M665 51c-153 0 -198 62 -198 170v122c0 25 -7 42 -42 42s-42 -17 -42 -42v-343h-137v65c-13 -8 -38 -14 -60 -14c-110 0 -156 48 -156 151v146c0 103 46 157 156 157c22 0 47 -6 60 -15v64h-286v117h1311v-117h-82v-554h-140v109c-27 -15 -61 -23 -102 -23
c-53 0 -96 10 -130 29c-26 -38 -72 -64 -152 -64zM683 504v-118s-13 2 -29 2c-35 0 -51 -13 -51 -43v-121c0 -35 11 -54 66 -54s65 19 65 54v172h24c68 0 89 13 89 63v41c0 29 -3 54 -39 54h-425v-64c15 9 41 15 61 15c38 0 65 -9 86 -23c27 16 66 24 117 24
c19 0 36 -2 36 -2zM959 216c72 0 90 29 90 74v264h-76c8 -14 10 -32 10 -54v-70c0 -77 -35 -118 -112 -122v-18c0 -45 17 -74 88 -74zM205 166c35 0 42 17 42 42v135c0 25 -7 42 -42 42s-42 -17 -42 -42v-135c0 -25 7 -42 42 -42z" />
    <glyph glyph-name="dvK_SHA" horiz-adv-x="1068" 
d="M825 513v-141c0 -103 -41 -160 -155 -160c-20 0 -52 4 -63 10v-59c0 -23 8 -39 41 -39s41 16 41 39v11h140v-16c0 -103 -58 -163 -181 -163s-181 60 -181 163v155c0 25 -10 37 -42 37c-35 0 -42 -17 -42 -42v-308h-137v65c-13 -8 -38 -14 -60 -14
c-110 0 -156 48 -156 151v146c0 103 46 157 156 157c22 0 47 -6 60 -15v64h-286v117h461v-117h-38v-101c19 10 48 20 86 20c80 0 131 -29 131 -106c0 -19 12 -31 42 -31c33 0 43 15 43 38v134c0 23 -6 39 -39 39s-39 -16 -39 -39v-11h-140v16c0 103 56 163 179 163
s179 -60 179 -163zM886 671h222v-117h-82v-554h-140v671zM205 166c35 0 42 17 42 42v135c0 25 -7 42 -42 42s-42 -17 -42 -42v-135c0 -25 7 -42 42 -42z" />
    <glyph glyph-name="dvK_SS_MA" horiz-adv-x="1058" 
d="M879 0v328h-74v-120c0 -93 -50 -153 -173 -153s-173 60 -173 153v86c0 9 0 18 1 26h-237c-42 0 -45 -22 -45 -56v-51c0 -23 8 -39 41 -39s41 16 41 39v38h133v-251h-133v64c-20 -8 -42 -12 -66 -12c-113 0 -159 60 -159 163v70c0 42 11 82 53 102c-22 15 -30 47 -30 101
v29c0 103 53 159 171 159s167 -56 167 -159v-30c0 -32 -2 -44 -6 -52h162c22 7 49 11 80 11h39v108h-207v117h634v-117h-82v-554h-137zM264 469v47c0 23 -3 40 -35 40s-35 -17 -35 -40v-47c0 -23 3 -40 35 -40s35 17 35 40zM805 446h74v108h-74v-108zM671 213v115h-39
c-33 0 -39 -16 -39 -39v-76c0 -23 6 -39 39 -39s39 16 39 39z" />
    <glyph glyph-name="dvK_SS_M_YA" horiz-adv-x="1372" 
d="M450 554v117h962v-117h-82v-554h-140v109c-27 -15 -61 -23 -102 -23c-139 0 -213 71 -213 184v27c0 21 -9 25 -39 25h-38v-114c0 -93 -50 -153 -173 -153s-173 60 -173 153v80c0 9 1 18 2 27h-231c-42 0 -45 -22 -45 -56v-46c0 -23 8 -39 41 -39s41 16 41 39v38h133v-251
h-133v64c-20 -8 -42 -12 -66 -12c-113 0 -159 60 -159 163v65c0 42 11 82 53 102c-22 15 -30 47 -30 101v34c0 103 53 159 171 159s167 -56 167 -159v-35c0 -32 -2 -44 -6 -52h158c22 7 47 10 77 10h39v114h-214zM264 464v52c0 23 -3 40 -35 40s-35 -17 -35 -40v-52
c0 -23 3 -40 35 -40s35 17 35 40zM988 500c0 29 -3 54 -39 54h-151v-114h53c56 0 92 -12 114 -34c17 9 23 26 23 53v41zM1100 216c72 0 90 29 90 74v264h-76c8 -14 10 -32 10 -54v-70c0 -77 -35 -118 -112 -122v-18c0 -45 17 -74 88 -74zM664 213v109h-39
c-33 0 -39 -16 -39 -39v-70c0 -23 6 -39 39 -39s39 16 39 39z" />
    <glyph glyph-name="dvK_SS_YA" horiz-adv-x="961" 
d="M390 433h98c68 0 89 13 89 63v4c0 29 -3 54 -39 54h-74v117h537v-117h-82v-554h-140v109c-27 -15 -61 -23 -102 -23c-139 0 -213 71 -213 184v48h-241c-42 0 -45 -22 -45 -56v-49c0 -23 8 -39 41 -39s41 16 41 39v38h133v-251h-133v64c-20 -8 -42 -12 -66 -12
c-113 0 -159 60 -159 163v68c0 42 11 82 53 102c-22 15 -30 47 -30 101v31c0 103 53 159 171 159s167 -56 167 -159v-32c0 -32 -2 -44 -6 -52zM264 467v49c0 23 -3 40 -35 40s-35 -17 -35 -40v-49c0 -23 3 -40 35 -40s35 17 35 40zM689 216c72 0 90 29 90 74v264h-76
c8 -14 10 -32 10 -54v-33c0 -77 -35 -118 -112 -122v-55c0 -45 17 -74 88 -74z" />
    <glyph glyph-name="dvK_SS_VA" horiz-adv-x="882" 
d="M840 554v-554h-140v63c-14 -6 -44 -11 -66 -11c-123 0 -164 56 -164 159v109h-247c-42 0 -45 -22 -45 -56v-51c0 -23 8 -39 41 -39s41 16 41 39v38h133v-251h-133v64c-20 -8 -42 -12 -66 -12c-113 0 -159 60 -159 163v70c0 42 11 82 53 102c-22 15 -30 47 -30 101v29
c0 103 53 159 171 159s167 -56 167 -159v-30c0 -32 -2 -44 -6 -52h97c22 46 69 71 147 71c22 0 52 -5 66 -11v59h-236v117h458v-117h-82zM264 469v47c0 23 -3 40 -35 40s-35 -17 -35 -40v-47c0 -23 3 -40 35 -40s35 17 35 40zM707 214v131c0 30 -15 43 -50 43
s-51 -13 -51 -43v-131c0 -30 16 -44 51 -44s50 14 50 44z" />
    <glyph glyph-name="dvK_SA" horiz-adv-x="1073" 
d="M-40 554v117h1153v-117h-82v-554h-140v256h-132c-22 -16 -55 -24 -87 -24c-25 0 -50 4 -68 14v-86c0 -23 6 -39 39 -39s39 16 39 39v14h137v-16c0 -103 -53 -163 -176 -163s-176 60 -176 163v179c0 27 -7 42 -42 42s-42 -17 -42 -42v-337h-137v65c-13 -8 -38 -14 -60 -14
c-110 0 -156 48 -156 151v146c0 103 46 157 156 157c22 0 47 -6 60 -15v64h-286zM676 515c0 22 -5 39 -34 39h-259v-73c22 13 52 20 85 20c78 0 126 -35 126 -112c0 -19 6 -34 41 -34s41 16 41 41v119zM813 502v-126h78v178h-89c9 -12 11 -32 11 -52zM205 166
c35 0 42 17 42 42v135c0 25 -7 42 -42 42s-42 -17 -42 -42v-135c0 -25 7 -42 42 -42z" />
    <glyph glyph-name="dvK_S_TTA" horiz-adv-x="1275" 
d="M1224 364h-155c-33 0 -37 -14 -37 -37v-168c0 -23 6 -39 39 -39s39 16 39 39v84h140v-85c0 -103 -56 -163 -179 -163s-179 60 -179 163v98h-133c-22 -16 -55 -24 -87 -24c-25 0 -50 4 -68 14v-86c0 -23 6 -39 39 -39s39 16 39 39v14h137v-16c0 -103 -53 -163 -176 -163
s-176 60 -176 163v179c0 27 -7 42 -42 42s-42 -17 -42 -42v-337h-137v65c-13 -8 -38 -14 -60 -14c-110 0 -156 48 -156 151v146c0 103 46 157 156 157c22 0 47 -6 60 -15v64h-286v117h1355v-117h-91v-190zM1084 491v63h-282c9 -12 11 -32 11 -52v-126h82
c14 81 68 115 174 115h15zM676 515c0 22 -5 39 -34 39h-259v-73c22 13 52 20 85 20c78 0 126 -35 126 -112c0 -19 6 -34 41 -34s41 16 41 41v119zM205 166c35 0 42 17 42 42v135c0 25 -7 42 -42 42s-42 -17 -42 -42v-135c0 -25 7 -42 42 -42z" />
    <glyph glyph-name="dvK_S_DDA" horiz-adv-x="1285" 
d="M-40 554v117h1364v-117h-92v-170h-174c-22 0 -29 -12 -29 -31v-2c0 -19 6 -31 29 -31h25c123 0 179 -46 179 -149v-23c0 -103 -56 -153 -184 -153s-186 49 -186 152v17h140v-11c0 -23 7 -38 45 -38s45 15 45 38v13c0 20 -6 37 -39 37h-25c-69 0 -118 15 -145 53h-154
c-22 -16 -55 -24 -87 -24c-25 0 -50 4 -68 14v-86c0 -23 6 -39 39 -39s39 16 39 39v14h137v-16c0 -103 -53 -163 -176 -163s-176 60 -176 163v179c0 27 -7 42 -42 42s-42 -17 -42 -42v-337h-137v65c-13 -8 -38 -14 -60 -14c-110 0 -156 48 -156 151v146
c0 103 46 157 156 157c22 0 47 -6 60 -15v64h-286zM1092 554h-290c9 -12 11 -32 11 -52v-126h76c5 93 61 128 169 128h34v50zM676 515c0 22 -5 39 -34 39h-259v-73c22 13 52 20 85 20c78 0 126 -35 126 -112c0 -19 6 -34 41 -34s41 16 41 41v119zM205 166c35 0 42 17 42 42
v135c0 25 -7 42 -42 42s-42 -17 -42 -42v-135c0 -25 7 -42 42 -42z" />
    <glyph glyph-name="dvK_S_TA" horiz-adv-x="1320" 
d="M1081 130v-130c-11 -1 -22 -2 -30 -2c-124 0 -159 53 -159 156v102h-133c-22 -16 -55 -24 -87 -24c-25 0 -50 4 -68 14v-86c0 -23 6 -39 39 -39s39 16 39 39v14h137v-16c0 -103 -53 -163 -176 -163s-176 60 -176 163v179c0 27 -7 42 -42 42s-42 -17 -42 -42v-337h-137v65
c-13 -8 -38 -14 -60 -14c-110 0 -156 48 -156 151v146c0 103 46 157 156 157c22 0 47 -6 60 -15v64h-286v117h1400v-117h-82v-554h-140v318c0 29 -11 49 -53 49s-53 -20 -53 -49v-150c0 -33 16 -38 49 -38zM1138 485v69h-336c9 -12 11 -32 11 -52v-126h84
c16 73 68 120 168 120c28 0 57 -4 73 -11zM676 515c0 22 -5 39 -34 39h-259v-73c22 13 52 20 85 20c78 0 126 -35 126 -112c0 -19 6 -34 41 -34s41 16 41 41v119zM205 166c35 0 42 17 42 42v135c0 25 -7 42 -42 42s-42 -17 -42 -42v-135c0 -25 7 -42 42 -42z" />
    <glyph glyph-name="dvK_S_P_RA" horiz-adv-x="1310" 
d="M870 0l104 187c-36 12 -55 35 -65 69h-150c-22 -16 -55 -24 -87 -24c-25 0 -50 4 -68 14v-86c0 -23 6 -39 39 -39s39 16 39 39v14h137v-16c0 -103 -53 -163 -176 -163s-176 60 -176 163v179c0 27 -7 42 -42 42s-42 -17 -42 -42v-337h-137v65c-13 -8 -38 -14 -60 -14
c-110 0 -156 48 -156 151v146c0 103 46 157 156 157c22 0 47 -6 60 -15v64h-286v117h1390v-117h-82v-554h-140v189l-105 -189h-153zM902 554h-100c9 -12 11 -32 11 -52v-126h89v178zM676 515c0 22 -5 39 -34 39h-259v-73c22 13 52 20 85 20c78 0 126 -35 126 -112
c0 -19 6 -34 41 -34s41 16 41 41v119zM1128 554h-86v-228c0 -23 5 -38 43 -38s43 15 43 38v228zM205 166c35 0 42 17 42 42v135c0 25 -7 42 -42 42s-42 -17 -42 -42v-135c0 -25 7 -42 42 -42z" />
    <glyph glyph-name="dvK_S_P_LA" horiz-adv-x="1766" 
d="M-40 554v117h1846v-117h-82v-554h-140v326c0 23 -6 39 -39 39s-39 -16 -39 -39v-114h-140v114c0 23 -6 39 -39 39s-39 -16 -39 -39v-145c0 -33 6 -59 69 -59h60l1 -122h-69c-125 0 -182 39 -197 124c-20 -7 -43 -10 -68 -10c-110 0 -162 46 -168 142h-157
c-22 -16 -55 -24 -87 -24c-25 0 -50 4 -68 14v-86c0 -23 6 -39 39 -39s39 16 39 39v14h137v-16c0 -103 -53 -163 -176 -163s-176 60 -176 163v179c0 27 -7 42 -42 42s-42 -17 -42 -42v-337h-137v65c-13 -8 -38 -14 -60 -14c-110 0 -156 48 -156 151v146
c0 103 46 157 156 157c22 0 47 -6 60 -15v64h-286zM1584 479v75h-528v-276c0 -22 8 -40 46 -40s46 17 46 40v53c0 103 56 163 174 163c71 0 99 -31 111 -55c12 24 39 54 98 54c20 0 44 -5 53 -14zM813 376h103v178h-114c9 -12 11 -32 11 -52v-126zM676 515
c0 22 -5 39 -34 39h-259v-73c22 13 52 20 85 20c78 0 126 -35 126 -112c0 -19 6 -34 41 -34s41 16 41 41v119zM205 166c35 0 42 17 42 42v135c0 25 -7 42 -42 42s-42 -17 -42 -42v-135c0 -25 7 -42 42 -42z" />
    <glyph glyph-name="dvKH_KHA" horiz-adv-x="1373" 
d="M884 0h-28c-119 0 -192 34 -223 104c-17 -3 -38 -5 -61 -5c-27 0 -46 4 -60 13c-29 -73 -97 -112 -208 -112h-28c-163 0 -241 65 -241 198v253h133v-64c0 -23 4 -38 37 -38s37 15 37 38v128c0 23 -6 39 -39 39h-243v117h1453v-117h-82v-554h-136v109
c-13 -9 -37 -10 -52 -10c-21 0 -38 1 -54 4c-32 -67 -99 -103 -205 -103zM404 204v131c0 103 35 157 168 157c110 0 167 -38 167 -127v-2c0 -21 9 -34 41 -34c43 0 42 25 42 48v138c0 23 -6 39 -39 39h-415c2 -12 3 -25 3 -39v-133c0 -103 -31 -156 -144 -156
c-15 0 -46 5 -59 14v-37c0 -53 34 -79 107 -79h16c75 0 113 27 113 80zM984 204v130c0 103 29 162 152 162c16 0 43 -3 59 -12v70h-247c2 -12 3 -25 3 -39v-153c0 -103 -31 -156 -144 -156c-15 0 -46 5 -59 14v-17c0 -53 34 -79 107 -79h16c75 0 113 27 113 80zM615 256v79
c0 25 -8 40 -43 40s-43 -16 -43 -40v-85c1 -21 10 -34 43 -34c35 0 43 15 43 40zM1152 375c-35 0 -43 -16 -43 -40v-85c1 -21 10 -34 43 -34c35 0 43 16 43 40v79c0 24 -8 40 -43 40z" />
    <glyph glyph-name="dvKH_TA" horiz-adv-x="1033" 
d="M794 130v-130c-11 -1 -23 -2 -31 -2c-98 0 -135 36 -145 105c-13 -3 -29 -4 -46 -4c-26 0 -45 5 -59 13c-29 -73 -98 -112 -209 -112h-28c-163 0 -241 65 -241 198v253h133v-64c0 -23 4 -38 37 -38s37 15 37 38v128c0 23 -6 39 -39 39h-242v117h1112v-117h-82v-554h-140
v318c0 29 -11 49 -53 49s-53 -20 -53 -49v-150c0 -33 16 -38 49 -38zM851 485v69h-483c2 -12 3 -25 3 -39v-133c0 -103 -31 -156 -144 -156c-15 0 -46 5 -59 14v-37c0 -53 34 -79 107 -79h16c75 0 113 27 113 80v131c0 103 35 157 168 157c45 0 78 -8 100 -24
c25 18 60 28 106 28c28 0 57 -4 73 -11zM615 256v79c0 25 -8 40 -43 40s-43 -16 -43 -40v-79c0 -24 8 -40 43 -40s43 15 43 40z" />
    <glyph glyph-name="dvKHx_TA" horiz-adv-x="1033" 
d="M794 130v-130c-11 -1 -23 -2 -31 -2c-97 0 -134 35 -145 104c-13 -2 -29 -3 -46 -3c-26 0 -45 5 -59 13c-29 -73 -98 -112 -209 -112h-28c-163 0 -241 65 -241 198v253h133v-64c0 -23 4 -38 37 -38s37 15 37 38v128c0 23 -6 39 -39 39h-243v117h1113v-117h-82v-554h-140
v318c0 29 -11 49 -53 49s-53 -20 -53 -49v-150c0 -33 16 -38 49 -38zM851 485v69h-483c2 -12 3 -25 3 -39v-133c0 -103 -31 -156 -144 -156c-15 0 -46 5 -59 14v-37c0 -53 34 -79 107 -79h16c75 0 113 27 113 80v131c0 103 35 157 168 157c48 0 81 -7 105 -21
c24 16 57 25 101 25c28 0 57 -4 73 -11zM615 256v79c0 25 -8 40 -43 40s-43 -16 -43 -40v-79c0 -24 8 -40 43 -40s43 15 43 40zM-26 -71c0 42 16 75 73 75c58 0 75 -33 75 -75s-17 -75 -75 -75c-57 0 -73 33 -73 75z" />
    <glyph glyph-name="dvKH_NA" horiz-adv-x="1193" 
d="M951 328v-113c0 -103 -44 -163 -167 -163c-80 0 -128 26 -151 72c-17 -5 -37 -7 -61 -7c-23 0 -41 3 -54 10c-25 -82 -96 -127 -214 -127h-28c-163 0 -241 65 -241 198v253h133v-64c0 -23 4 -38 37 -38s37 15 37 38v128c0 23 -6 39 -39 39h-243v117h1273v-117h-82v-554
h-140v362h-65c4 -9 5 -21 5 -34zM1011 491v63h-643c2 -12 3 -25 3 -39v-133c0 -103 -31 -156 -144 -156c-15 0 -46 5 -59 14v-37c0 -53 34 -79 107 -79h16c75 0 113 27 113 80v131c0 103 35 157 168 157c47 0 80 -10 103 -27c26 17 62 26 109 26h227zM615 274v61
c0 25 -8 40 -43 40s-43 -16 -43 -40v-61c0 -24 8 -40 43 -40s43 15 43 40zM820 216v107c0 23 -5 39 -36 39s-36 -16 -36 -39v-107c0 -23 5 -39 36 -39s36 16 36 39z" />
    <glyph glyph-name="dvKH_MA" horiz-adv-x="1205" 
d="M1026 0v328h-74v-120c0 -93 -50 -153 -173 -153c-71 0 -114 20 -139 54c-18 -6 -41 -10 -68 -10c-26 0 -45 5 -59 13c-29 -73 -98 -112 -209 -112h-28c-163 0 -241 65 -241 198v253h133v-64c0 -23 4 -38 37 -38s37 15 37 38v128c0 23 -6 39 -39 39h-243v117h1285v-117
h-82v-554h-137zM818 446v108h-450c2 -12 3 -25 3 -39v-133c0 -103 -31 -156 -144 -156c-15 0 -46 5 -59 14v-37c0 -53 34 -79 107 -79h16c75 0 113 27 113 80v131c0 103 35 157 168 157c70 0 109 -19 130 -57c21 7 46 11 77 11h39zM952 446h74v108h-74v-108zM615 256v79
c0 25 -8 40 -43 40s-43 -16 -43 -40v-79c0 -24 8 -40 43 -40s43 15 43 40zM818 213v115h-39c-33 0 -39 -16 -39 -39v-76c0 -23 6 -39 39 -39s39 16 39 39z" />
    <glyph glyph-name="dvKHx_MA" horiz-adv-x="1214" 
d="M-40 554v117h1294v-117h-82v-554h-137v328h-74v-120c0 -93 -50 -153 -173 -153c-71 0 -117 20 -144 54c-20 -7 -44 -10 -72 -10c-25 0 -43 4 -56 11c-23 -69 -79 -110 -192 -110h-71c-158 0 -218 75 -218 208v265h138v-86c0 -23 4 -38 37 -38s37 15 37 38v128
c0 23 -6 39 -39 39h-248zM827 446v108h-445c3 -12 4 -25 4 -39v-133c0 -103 -41 -156 -154 -156c-15 0 -46 5 -59 14v-32c0 -53 16 -79 79 -79h71c63 0 81 26 81 79v127c0 103 35 157 168 157c68 0 110 -20 132 -58c23 8 51 12 84 12h39zM961 446h74v108h-74v-108zM615 256
v79c0 25 -8 40 -43 40s-43 -16 -43 -40v-79c0 -24 8 -40 43 -40s43 15 43 40zM827 213v115h-39c-33 0 -39 -16 -39 -39v-76c0 -23 6 -39 39 -39s39 16 39 39zM-22 -71c0 42 16 75 73 75c58 0 75 -33 75 -75s-17 -75 -75 -75c-57 0 -73 33 -73 75z" />
    <glyph glyph-name="dvKH_YA" horiz-adv-x="1114" 
d="M-40 554v117h1192v-117h-82v-554h-140v109c-27 -15 -61 -23 -102 -23c-65 0 -116 16 -152 44c-22 -19 -55 -31 -104 -31c-26 0 -45 5 -59 13c-29 -73 -98 -112 -209 -112h-28c-163 0 -241 65 -241 198v253h133v-64c0 -23 4 -38 37 -38s37 15 37 38v128c0 23 -6 39 -39 39
h-243zM728 500c0 29 -3 54 -39 54h-321c2 -12 3 -25 3 -39v-133c0 -103 -31 -156 -144 -156c-15 0 -46 5 -59 14v-37c0 -53 34 -79 107 -79h16c75 0 113 27 113 80v131c0 103 35 157 168 157c85 0 124 -28 139 -81c12 9 17 25 17 48v41zM840 216c72 0 90 29 90 74v264h-76
c8 -14 10 -32 10 -54v-70c0 -77 -35 -118 -112 -122v-18c0 -45 17 -74 88 -74zM615 256v79c0 25 -8 40 -43 40s-43 -16 -43 -40v-79c0 -24 8 -40 43 -40s43 15 43 40z" />
    <glyph glyph-name="dvKHx_YA" horiz-adv-x="1112" 
d="M-40 554v117h1192v-117h-82v-554h-140v109c-27 -15 -61 -23 -102 -23c-64 0 -114 15 -149 42c-24 -19 -59 -29 -107 -29c-25 0 -43 4 -56 11c-23 -69 -79 -110 -192 -110h-71c-158 0 -218 75 -218 208v265h138v-86c0 -23 4 -38 37 -38s37 15 37 38v128c0 23 -6 39 -39 39
h-248zM728 500c0 29 -3 54 -39 54h-307c3 -12 4 -25 4 -39v-133c0 -103 -41 -156 -154 -156c-15 0 -46 5 -59 14v-32c0 -53 16 -79 79 -79h71c63 0 81 26 81 79v127c0 103 35 157 168 157c80 0 123 -27 142 -79c10 9 14 24 14 46v41zM840 216c72 0 90 29 90 74v264h-76
c8 -14 10 -32 10 -54v-70c0 -77 -35 -118 -112 -122v-18c0 -45 17 -74 88 -74zM615 256v79c0 25 -8 40 -43 40s-43 -16 -43 -40v-79c0 -24 8 -40 43 -40s43 15 43 40zM-22 -71c0 42 16 75 73 75c58 0 75 -33 75 -75s-17 -75 -75 -75c-57 0 -73 33 -73 75z" />
    <glyph glyph-name="dvKH_VA" horiz-adv-x="1027" 
d="M985 554v-554h-140v63c-14 -6 -44 -11 -66 -11c-74 0 -114 20 -135 59c-19 -8 -43 -12 -72 -12c-26 0 -45 5 -59 13c-29 -73 -98 -112 -209 -112h-28c-163 0 -241 65 -241 198v253h133v-64c0 -23 4 -38 37 -38s37 15 37 38v128c0 23 -6 39 -39 39h-243v117h1107v-117h-82
zM845 495v59h-477c2 -12 3 -25 3 -39v-133c0 -103 -31 -156 -144 -156c-15 0 -46 5 -59 14v-37c0 -53 34 -79 107 -79h16c75 0 113 27 113 80v131c0 103 35 157 168 157c41 0 71 -6 93 -19c24 22 61 33 114 33c22 0 52 -5 66 -11zM852 214v131c0 30 -15 43 -50 43
s-51 -13 -51 -43v-131c0 -30 16 -44 51 -44s50 14 50 44zM615 256v79c0 25 -8 40 -43 40s-43 -16 -43 -40v-79c0 -24 8 -40 43 -40s43 15 43 40z" />
    <glyph glyph-name="dvKHx_VA" horiz-adv-x="1027" 
d="M-40 554v117h1107v-117h-82v-554h-140v63c-14 -6 -44 -11 -66 -11c-73 0 -114 20 -135 57c-19 -7 -43 -10 -72 -10c-25 0 -43 4 -56 11c-23 -69 -79 -110 -192 -110h-71c-158 0 -218 75 -218 208v265h138v-86c0 -23 4 -38 37 -38s37 15 37 38v128c0 23 -6 39 -39 39h-248
zM845 495v59h-463c3 -12 4 -25 4 -39v-133c0 -103 -41 -156 -154 -156c-15 0 -46 5 -59 14v-32c0 -53 16 -79 79 -79h71c63 0 81 26 81 79v127c0 103 35 157 168 157c39 0 70 -7 93 -20c24 22 61 34 114 34c22 0 52 -5 66 -11zM852 214v131c0 30 -15 43 -50 43
s-51 -13 -51 -43v-131c0 -30 16 -44 51 -44s50 14 50 44zM615 256v79c0 25 -8 40 -43 40s-43 -16 -43 -40v-79c0 -24 8 -40 43 -40s43 15 43 40zM-22 -71c0 42 16 75 73 75c58 0 75 -33 75 -75s-17 -75 -75 -75c-57 0 -73 33 -73 75z" />
    <glyph glyph-name="dvKH_SHA" horiz-adv-x="1216" 
d="M786 124c33 0 41 16 41 39v11h140v-16c0 -103 -58 -163 -181 -163c-101 0 -149 40 -164 102l-1 5c-14 -2 -32 -3 -49 -3c-26 0 -45 5 -59 13c-29 -73 -98 -112 -209 -112h-28c-163 0 -241 65 -241 198v253h133v-64c0 -23 4 -38 37 -38s37 15 37 38v128c0 23 -6 39 -39 39
h-243v117h584v-117h-176c2 -12 3 -25 3 -39v-133c0 -103 -31 -156 -144 -156c-15 0 -46 5 -59 14v-37c0 -53 34 -79 107 -79h16c75 0 113 27 113 80v101c0 103 35 157 168 157c105 0 143 -34 163 -73c11 -21 22 -33 49 -33c35 0 39 15 39 40v112c0 23 -6 39 -39 39
s-39 -16 -39 -39v-16h-140v21c0 103 56 163 179 163s179 -60 179 -163v-121c0 -103 -41 -160 -155 -160c-20 0 -52 4 -63 10v-79c0 -23 8 -39 41 -39zM1034 671h222v-117h-82v-554h-140v671zM615 256v49c0 25 -8 40 -43 40s-43 -16 -43 -40v-49c0 -24 8 -40 43 -40
s43 15 43 40z" />
    <glyph glyph-name="dvKHx_SHA" horiz-adv-x="1216" 
d="M786 124c33 0 41 16 41 39v11h140v-16c0 -103 -58 -163 -181 -163c-101 0 -149 40 -164 102l-1 5c-14 -2 -32 -3 -49 -3c-26 0 -45 5 -59 13c-29 -73 -98 -112 -209 -112h-28c-163 0 -241 65 -241 198v253h133v-64c0 -23 4 -38 37 -38s37 15 37 38v128c0 23 -6 39 -39 39
h-243v117h583v-117h-175c2 -12 3 -25 3 -39v-133c0 -103 -31 -156 -144 -156c-15 0 -46 5 -59 14v-37c0 -53 34 -79 107 -79h16c75 0 113 27 113 80v101c0 103 35 157 168 157c105 0 143 -34 163 -73c11 -21 22 -33 49 -33c35 0 39 15 39 40v112c0 23 -6 39 -39 39
s-39 -16 -39 -39v-16h-140v21c0 103 56 163 179 163s179 -60 179 -163v-121c0 -103 -41 -160 -155 -160c-20 0 -52 4 -63 10v-79c0 -23 8 -39 41 -39zM1034 671h222v-117h-82v-554h-140v671zM615 256v49c0 25 -8 40 -43 40s-43 -16 -43 -40v-49c0 -24 8 -40 43 -40
s43 15 43 40zM-22 -71c0 42 16 75 73 75c58 0 75 -33 75 -75s-17 -75 -75 -75c-57 0 -73 33 -73 75z" />
    <glyph glyph-name="dvKHx_SA" horiz-adv-x="1221" 
d="M-40 554v117h1301v-117h-82v-554h-140v262h-132c-22 -16 -55 -24 -87 -24c-25 0 -50 4 -68 14v-92c0 -23 6 -39 39 -39s39 16 39 39v20h137v-22c0 -103 -53 -163 -176 -163c-99 0 -152 39 -170 107c-14 -2 -31 -3 -49 -3c-26 0 -45 5 -59 13c-29 -73 -98 -112 -209 -112
h-28c-163 0 -241 65 -241 198v253h133v-64c0 -23 4 -38 37 -38s37 15 37 38v128c0 23 -6 39 -39 39h-243zM824 515c0 22 -5 39 -34 39h-422c2 -12 3 -25 3 -39v-133c0 -103 -31 -156 -144 -156c-15 0 -46 5 -59 14v-37c0 -53 34 -79 107 -79h16c75 0 113 27 113 80v131
c0 103 35 157 168 157s157 -59 168 -103c5 -20 17 -28 43 -28c33 0 41 15 41 38v116zM961 502v-120h78v172h-89c9 -12 11 -32 11 -52zM615 256v79c0 25 -8 40 -43 40s-43 -16 -43 -40v-79c0 -24 8 -40 43 -40s43 15 43 40zM-23 -71c0 42 16 75 73 75c58 0 75 -33 75 -75
s-17 -75 -75 -75c-57 0 -73 33 -73 75z" />
    <glyph glyph-name="dvG_GA" horiz-adv-x="752" 
d="M-40 554v117h831v-117h-81v-554h-140v554h-78v-219c0 -115 -67 -167 -169 -167c-17 0 -36 2 -55 5v136c10 -3 23 -5 34 -5c30 0 50 12 50 43v207h-118v-219c0 -115 -67 -167 -169 -167c-17 0 -36 2 -55 5v136c10 -3 23 -5 34 -5c30 0 50 12 50 43v207h-134z" />
    <glyph glyph-name="dvG_GHA" horiz-adv-x="776" 
d="M815 671v-117h-81v-554h-140v80c-25 -15 -58 -23 -100 -23c-131 0 -188 68 -188 160v51c0 54 15 85 44 102c-25 19 -38 49 -38 95v50c0 13 3 27 10 39h-88v-219c0 -115 -67 -167 -169 -167c-17 0 -36 2 -55 5v136c10 -3 23 -5 34 -5c30 0 50 12 50 43v207h-134v117h855z
M594 554h-103c-33 0 -39 -16 -39 -39v-45c0 -23 6 -39 39 -39h44v-129h-50c-33 0 -39 -16 -39 -39v-28c0 -41 27 -53 72 -53s76 12 76 54v318z" />
    <glyph glyph-name="dvG_JA" horiz-adv-x="885" 
d="M406 292v-78c0 -23 6 -39 39 -39s39 16 39 39v109c0 23 -6 39 -39 39h-76v129h327v63h-462v-219c0 -115 -67 -167 -169 -167c-17 0 -36 2 -55 5v136c10 -3 23 -5 34 -5c30 0 50 12 50 43v207h-134v117h957v-117h-81v-554h-140v371h-81c6 -16 9 -32 9 -50v-112
c0 -103 -56 -161 -179 -161s-179 60 -179 163v81h140z" />
    <glyph glyph-name="dvG_NNA" horiz-adv-x="934" 
d="M674 554v-288c0 -103 -55 -163 -178 -163s-178 60 -178 163v288h-84v-219c0 -115 -67 -167 -169 -167c-17 0 -36 2 -55 5v136c10 -3 23 -5 34 -5c30 0 50 12 50 43v207h-134v117h1014v-117h-82v-554h-140v554h-78zM534 554h-76v-287c0 -23 5 -39 38 -39s38 16 38 39v287z
" />
    <glyph glyph-name="dvG_DA" horiz-adv-x="706" 
d="M306 217v119c0 120 58 159 181 159h32v59h-285v-219c0 -115 -67 -167 -169 -167c-17 0 -36 2 -55 5v136c10 -3 23 -5 34 -5c30 0 50 12 50 43v207h-134v117h786v-117h-87v-186h-172c-35 0 -41 -13 -41 -37v-109c0 -24 6 -38 41 -38s41 13 41 38v56h140v-278h-140v73
c-19 -9 -46 -12 -61 -12c-113 0 -161 53 -161 156z" />
    <glyph glyph-name="dvG_DHA" horiz-adv-x="776" 
d="M535 302h-50c-33 0 -39 -16 -39 -39v-28c0 -41 27 -53 72 -53s76 12 76 54v435h222v-117h-82v-554h-140v80c-25 -15 -58 -23 -100 -23c-131 0 -188 68 -188 160v51c0 54 15 85 44 102c-25 19 -38 49 -38 95v50c0 13 3 27 10 39h-88v-219c0 -115 -67 -167 -169 -167
c-17 0 -36 2 -55 5v136c10 -3 23 -5 34 -5c30 0 50 12 50 43v207h-134v117h564v-117h-33c-33 0 -39 -16 -39 -39v-45c0 -23 6 -39 39 -39h44v-129z" />
    <glyph glyph-name="dvG_DH_YA" horiz-adv-x="1112" 
d="M615 255v141h24c68 0 89 13 89 63v41c0 29 -3 54 -39 54h-87v117h550v-117h-82v-554h-140v109c-27 -15 -61 -23 -102 -23c-57 0 -103 12 -137 33c-33 -38 -86 -62 -162 -62c-155 0 -223 58 -223 160v51c0 54 15 85 44 102c-25 19 -38 49 -38 95v50c0 13 3 27 10 39h-88
v-219c0 -115 -67 -167 -169 -167c-17 0 -36 2 -55 5v136c10 -3 23 -5 34 -5c30 0 50 12 50 43v207h-134v117h540v-117h-13c-31 0 -35 -17 -35 -39v-45c0 -23 6 -39 39 -39h44v-129h-50c-33 0 -39 -16 -39 -39v-28c0 -41 34 -53 83 -53c64 0 86 16 86 73zM840 216
c72 0 90 29 90 74v264h-76c8 -14 10 -32 10 -54v-70c0 -77 -35 -118 -112 -122v-18c0 -45 17 -74 88 -74z" />
    <glyph glyph-name="dvG_DH_VA" horiz-adv-x="1027" 
d="M615 255v91c0 103 45 160 164 160c22 0 52 -5 66 -11v59h-243v117h465v-117h-82v-554h-140v63c-14 -6 -44 -11 -66 -11c-58 0 -98 13 -124 37c-31 -20 -73 -32 -126 -32c-155 0 -223 58 -223 160v51c0 54 15 85 44 102c-25 19 -38 49 -38 95v50c0 13 3 27 10 39h-88v-219
c0 -115 -67 -167 -169 -167c-17 0 -36 2 -55 5v136c10 -3 23 -5 34 -5c30 0 50 12 50 43v207h-134v117h540v-117h-13c-31 0 -35 -17 -35 -39v-45c0 -23 6 -39 39 -39h44v-129h-50c-33 0 -39 -16 -39 -39v-28c0 -41 34 -53 83 -53c64 0 86 16 86 73zM852 214v131
c0 30 -15 43 -50 43s-51 -13 -51 -43v-131c0 -30 16 -44 51 -44s50 14 50 44z" />
    <glyph glyph-name="dvG_NA" horiz-adv-x="874" 
d="M632 328v-113c0 -103 -44 -163 -167 -163s-169 60 -169 163v113c0 103 46 163 169 163h227v63h-458v-219c0 -115 -67 -167 -169 -167c-17 0 -36 2 -55 5v136c10 -3 23 -5 34 -5c30 0 50 12 50 43v207h-134v117h954v-117h-82v-554h-140v362h-65c4 -9 5 -21 5 -34zM501 216
v107c0 23 -5 39 -36 39s-36 -16 -36 -39v-107c0 -23 5 -39 36 -39s36 16 36 39z" />
    <glyph glyph-name="dvG_N_YA" horiz-adv-x="1197" 
d="M463 491h179c75 0 129 -26 156 -79c11 10 15 25 15 47v41c0 29 -3 54 -39 54h-540v-219c0 -115 -67 -167 -169 -167c-17 0 -36 2 -55 5v136c10 -3 23 -5 34 -5c30 0 50 12 50 43v207h-134v117h1277v-117h-82v-554h-140v109c-27 -15 -61 -23 -102 -23
c-139 0 -213 71 -213 184v71c-7 15 -20 24 -44 24h-33c5 -9 7 -23 7 -37v-113c0 -103 -44 -163 -167 -163s-169 60 -169 163v113c0 103 46 163 169 163zM925 216c72 0 90 29 90 74v264h-76c8 -14 10 -32 10 -54v-70c0 -77 -35 -118 -112 -122v-18c0 -45 17 -74 88 -74z
M499 216v107c0 23 -5 39 -36 39s-36 -16 -36 -39v-107c0 -23 5 -39 36 -39s36 16 36 39z" />
    <glyph glyph-name="dvG_BA" horiz-adv-x="736" 
d="M561 0v66c-21 -9 -47 -13 -78 -13c-123 0 -187 39 -187 168v117c0 129 64 168 187 168c31 0 57 -4 78 -13v61h-327v-219c0 -115 -67 -167 -169 -167c-17 0 -36 2 -55 5v136c10 -3 23 -5 34 -5c30 0 50 12 50 43v207h-134v117h816v-117h-82v-554h-133zM495 391
c-28 0 -45 -6 -54 -18l120 -105v64c0 36 -13 59 -66 59zM429 227c0 -36 13 -59 66 -59c28 0 44 6 54 17l-120 106v-64z" />
    <glyph glyph-name="dvG_BHA" horiz-adv-x="893" 
d="M493 434v74c0 23 -3 39 -36 39s-36 -16 -36 -39v-32h-140v37c0 103 53 163 176 163s176 -60 176 -163v-79h78v237h222v-117h-82v-554h-140v316h-84v-109c0 -93 -50 -153 -173 -153s-173 60 -173 153v75c0 93 50 152 173 152h39zM252 671v-117h-18v-219
c0 -115 -67 -167 -169 -167c-17 0 -36 2 -55 5v136c10 -3 23 -5 34 -5c30 0 50 12 50 43v207h-134v117h292zM493 212v104h-39c-33 0 -39 -16 -39 -39v-65c0 -23 6 -39 39 -39s39 16 39 39z" />
    <glyph glyph-name="dvG_BH_YA" horiz-adv-x="1206" 
d="M637 434h42c54 0 92 -9 117 -29c19 9 26 25 26 54v41c0 29 -3 54 -39 54h-94v117h557v-117h-82v-554h-140v109c-27 -15 -61 -23 -102 -23c-139 0 -213 71 -213 184v42c-10 3 -22 4 -38 4h-40v-109c0 -93 -50 -153 -173 -153s-173 60 -173 153v75c0 93 50 152 173 152h39
v74c0 23 -3 39 -36 39s-36 -16 -36 -39v-32h-140v37c0 103 53 163 176 163s176 -60 176 -163v-79zM255 671v-117h-21v-219c0 -115 -67 -167 -169 -167c-17 0 -36 2 -55 5v136c10 -3 23 -5 34 -5c30 0 50 12 50 43v207h-134v117h295zM934 216c72 0 90 29 90 74v264h-76
c8 -14 10 -32 10 -54v-70c0 -77 -35 -118 -112 -122v-18c0 -45 17 -74 88 -74zM497 212v104h-39c-33 0 -39 -16 -39 -39v-65c0 -23 6 -39 39 -39s39 16 39 39z" />
    <glyph glyph-name="dvG_MA" horiz-adv-x="880" 
d="M701 0v328h-74v-120c0 -93 -50 -153 -173 -153s-173 60 -173 153v86c0 93 50 152 173 152h39v108h-259v-219c0 -115 -67 -167 -169 -167c-17 0 -36 2 -55 5v136c10 -3 23 -5 34 -5c30 0 50 12 50 43v207h-134v117h960v-117h-82v-554h-137zM627 446h74v108h-74v-108z
M493 213v115h-39c-33 0 -39 -16 -39 -39v-76c0 -23 6 -39 39 -39s39 16 39 39z" />
    <glyph glyph-name="dvG_YA" horiz-adv-x="799" 
d="M-40 554v117h879v-117h-82v-554h-140v109c-27 -15 -61 -23 -102 -23c-139 0 -213 71 -213 184v126h24c68 0 89 13 89 63v41c0 29 -3 54 -39 54h-142v-219c0 -115 -67 -167 -169 -167c-17 0 -36 2 -55 5v136c10 -3 23 -5 34 -5c30 0 50 12 50 43v207h-134zM527 216
c72 0 90 29 90 74v264h-76c8 -14 10 -32 10 -54v-70c0 -77 -35 -118 -112 -122v-18c0 -45 17 -74 88 -74z" />
    <glyph glyph-name="dvG_R_YA" horiz-adv-x="803" 
d="M354 398v-1c49 3 65 18 65 62v41c0 29 -3 54 -39 54h-146v-172c0 -115 -67 -167 -169 -167c-17 0 -36 2 -55 5v136c10 -3 23 -5 34 -5c30 0 50 12 50 43v160h-134v117h883v-117h-82v-554h-140v109c-27 -15 -61 -23 -102 -23c-93 0 -157 32 -189 87
c-20 -36 -45 -72 -78 -114l-45 -59h-162l261 336v60h24c8 0 16 0 23 1zM531 216c72 0 90 29 90 74v264h-76c8 -14 10 -32 10 -54v-70c0 -77 -35 -118 -112 -122v-18c0 -45 17 -74 88 -74z" />
    <glyph glyph-name="dvG_LA" horiz-adv-x="914" 
d="M296 178v153c0 103 56 163 174 163c71 0 99 -31 111 -55c12 24 39 54 98 54c20 0 44 -5 53 -14v75h-498v-219c0 -115 -67 -167 -169 -167c-17 0 -36 2 -55 5v136c10 -3 23 -5 34 -5c30 0 50 12 50 43v207h-134v117h994v-117h-82v-554h-140v326c0 23 -6 39 -39 39
s-39 -16 -39 -39v-114h-140v114c0 23 -6 39 -39 39s-39 -16 -39 -39v-145c0 -33 6 -59 69 -59h60l1 -122h-69c-149 0 -201 55 -201 178z" />
    <glyph glyph-name="dvG_VA" horiz-adv-x="708" 
d="M666 554v-554h-140v63c-14 -6 -44 -11 -66 -11c-123 0 -164 56 -164 159v135c0 103 45 160 164 160c22 0 52 -5 66 -11v59h-292v-219c0 -115 -67 -167 -169 -167c-17 0 -36 2 -55 5v136c10 -3 23 -5 34 -5c30 0 50 12 50 43v207h-134v117h788v-117h-82zM533 214v131
c0 30 -15 43 -50 43s-51 -13 -51 -43v-131c0 -30 16 -44 51 -44s50 14 50 44z" />
    <glyph glyph-name="dvG_SA" horiz-adv-x="909" 
d="M-40 554v117h988v-117h-82v-554h-140v262h-132c-22 -16 -55 -24 -87 -24c-25 0 -50 4 -68 14v-92c0 -23 6 -39 39 -39s39 16 39 39v20h137v-22c0 -103 -53 -163 -176 -163s-176 60 -176 163v297h137v-56c0 -23 3 -38 36 -38s36 15 36 38v116c0 22 -5 39 -34 39h-243v-219
c0 -115 -67 -167 -169 -167c-17 0 -36 2 -55 5v136c10 -3 23 -5 34 -5c30 0 50 12 50 43v207h-134zM648 502v-120h78v172h-89c9 -12 11 -32 11 -52z" />
    <glyph glyph-name="dvGH_NA" horiz-adv-x="916" 
d="M674 328v-113c0 -103 -44 -163 -167 -163c-58 0 -99 13 -126 38c-29 -20 -70 -33 -126 -33c-155 0 -220 58 -220 160v51c0 54 15 85 44 102c-25 19 -38 49 -38 95v50c0 13 3 27 10 39h-91v117h996v-117h-82v-554h-140v362h-65c4 -9 5 -21 5 -34zM338 255v73
c0 103 46 163 169 163h227v63h-518c-31 0 -35 -17 -35 -39v-45c0 -23 6 -39 39 -39h44v-129h-50c-33 0 -39 -16 -39 -39v-28c0 -41 31 -53 80 -53c64 0 83 16 83 73zM543 216v107c0 23 -5 39 -36 39s-36 -16 -36 -39v-107c0 -23 5 -39 36 -39s36 16 36 39z" />
    <glyph glyph-name="dvGH_MA" horiz-adv-x="937" 
d="M758 0v328h-74v-120c0 -93 -50 -153 -173 -153c-57 0 -99 13 -127 36c-31 -21 -74 -34 -129 -34c-155 0 -220 58 -220 160v51c0 54 15 85 44 102c-25 19 -38 49 -38 95v50c0 13 3 27 10 39h-91v117h1017v-117h-82v-554h-137zM338 255v39c0 93 50 152 173 152h39v108h-334
c-21 -2 -35 -17 -35 -39v-45c0 -23 6 -39 39 -39h64v-129h-70c-33 0 -39 -16 -39 -39v-28c0 -41 31 -53 80 -53c64 0 83 16 83 73zM684 446h74v108h-74v-108zM550 213v115h-39c-33 0 -39 -16 -39 -39v-76c0 -23 6 -39 39 -39s39 16 39 39z" />
    <glyph glyph-name="dvGH_YA" horiz-adv-x="835" 
d="M-40 554v117h915v-117h-82v-554h-140v109c-27 -15 -61 -23 -102 -23c-54 0 -97 11 -131 30c-30 -36 -81 -59 -165 -59c-155 0 -220 58 -220 160v51c0 54 15 85 44 102c-25 19 -38 49 -38 95v50c0 13 3 27 10 39h-91zM338 255v11v130h24c68 0 89 13 89 63v41
c0 29 -3 54 -39 54h-196c-21 -2 -35 -17 -35 -39v-45c0 -23 6 -39 39 -39h64v-129h-70c-33 0 -39 -16 -39 -39v-28c0 -41 31 -53 80 -53c64 0 83 16 83 73zM563 216c72 0 90 29 90 74v264h-76c8 -14 10 -32 10 -54v-70c0 -77 -35 -118 -112 -122v-18c0 -45 17 -74 88 -74z
" />
    <glyph glyph-name="dvC_CA" horiz-adv-x="739" 
d="M457 332v-108c0 -30 10 -48 50 -48s50 18 50 48v330h-597v117h819v-117h-82v-554h-140v68c-22 -11 -52 -15 -73 -15c-48 0 -85 9 -112 28c-27 -18 -63 -28 -110 -28c-132 0 -195 53 -195 176v97c0 17 3 29 10 39h-64v126h232v-120h-4c-29 0 -34 -17 -34 -39v-108
c0 -30 13 -48 55 -48s55 18 55 48v102c0 21 2 33 10 45h-34v120h228v-120h-30c-29 0 -34 -17 -34 -39z" />
    <glyph glyph-name="dvC_CHA" horiz-adv-x="852" 
d="M812 347v-172c0 -123 -57 -178 -238 -178c-115 0 -184 22 -217 69c-24 -9 -52 -13 -85 -13c-145 0 -205 53 -205 176v97c0 17 3 29 10 39h-64v126h258v-120h-30c-29 0 -34 -17 -34 -39v-98c0 -40 15 -58 65 -58c40 0 57 11 62 34c6 28 20 50 42 64c-26 17 -39 47 -39 94
v130c0 20 5 40 16 56h-393v117h931v-117h-133v-75c40 -21 54 -65 54 -132zM676 182v140c0 48 -20 64 -59 64c-38 0 -53 -9 -53 -9v114s24 10 64 10v53h-100c-49 0 -51 -25 -51 -59v-121c0 -23 6 -39 39 -39h77v-122h-72c-33 0 -48 -5 -48 -42v-2c0 -37 12 -47 101 -47
s102 20 102 60z" />
    <glyph glyph-name="dvC_CH_VA" horiz-adv-x="852" 
d="M811 347v-172c0 -59 -13 -102 -46 -131v-324h-141v47c-24 -9 -65 -14 -80 -14c-113 0 -176 46 -176 159v33c0 38 15 64 37 80c-21 11 -37 24 -49 41c-24 -9 -52 -13 -85 -13c-145 0 -205 53 -205 176v97c0 17 3 29 10 39h-64v126h258v-120h-30c-29 0 -34 -17 -34 -39v-98
c0 -40 15 -58 65 -58c40 0 57 11 62 34c6 28 20 50 42 64c-26 17 -39 47 -39 94v130c0 20 5 40 16 56h-392v117h931v-117h-134v-75c40 -21 54 -65 54 -132zM675 182v140c0 48 -20 64 -59 64c-38 0 -53 -9 -53 -9v114s24 10 64 10v53h-100c-49 0 -51 -25 -51 -59v-121
c0 -23 6 -39 39 -39h77v-122h-72c-33 0 -48 -5 -48 -42v-2c0 -37 12 -47 101 -47s102 20 102 60zM501 -82c0 -35 17 -50 62 -50s62 15 62 50v81c-16 -1 -33 -2 -52 -2h-10c-45 0 -62 -17 -62 -52v-27z" />
    <glyph glyph-name="dvC_NA" horiz-adv-x="897" 
d="M655 328v-113c0 -103 -44 -163 -167 -163c-53 0 -91 11 -118 32c-26 -20 -60 -31 -107 -31c-140 0 -196 53 -196 171v102c0 17 3 29 10 39h-64v126h258v-120h-30c-29 0 -34 -17 -34 -39v-103c0 -35 9 -53 56 -53s56 18 56 53v99c0 103 46 163 169 163h227v63h-755v117
h977v-117h-82v-554h-140v362h-65c4 -9 5 -21 5 -34zM524 216v107c0 23 -5 39 -36 39s-36 -16 -36 -39v-107c0 -23 5 -39 36 -39s36 16 36 39z" />
    <glyph glyph-name="dvC_MA" horiz-adv-x="936" 
d="M757 0v328h-74v-120c0 -93 -50 -153 -173 -153c-52 0 -91 11 -119 30c-30 -20 -69 -32 -119 -32c-145 0 -205 53 -205 176v97c0 17 3 29 10 39h-64v126h288v-120h-60c-29 0 -34 -17 -34 -39v-98c0 -40 15 -58 65 -58s65 18 65 58v60c0 93 50 152 173 152h39v108h-589v117
h1016v-117h-82v-554h-137zM683 446h74v108h-74v-108zM549 213v115h-39c-33 0 -39 -16 -39 -39v-76c0 -23 6 -39 39 -39s39 16 39 39z" />
    <glyph glyph-name="dvC_YA" horiz-adv-x="834" 
d="M-40 554v117h914v-117h-82v-554h-140v109c-27 -15 -61 -23 -102 -23c-51 0 -93 10 -126 27c-30 -39 -80 -60 -152 -60c-145 0 -205 53 -205 176v97c0 17 3 29 10 39h-64v126h271v-120h-43c-29 0 -34 -17 -34 -39v-98c0 -40 15 -58 65 -58s65 18 65 58v162h24
c68 0 89 13 89 63v41c0 29 -3 54 -39 54h-451zM562 216c72 0 90 29 90 74v264h-76c8 -14 10 -32 10 -54v-70c0 -77 -35 -118 -112 -122v-18c0 -45 17 -74 88 -74z" />
    <glyph glyph-name="dvCH_YA" horiz-adv-x="1082" 
d="M341 501c27 0 53 -3 75 -10h243c121 0 175 -40 175 -143v-26c0 -77 -36 -115 -112 -115v-1c0 -26 17 -50 88 -50c72 0 90 29 90 74v324h-669c-49 0 -51 -25 -51 -59v-121c0 -23 6 -39 39 -39h77v-122h-72c-33 0 -48 -5 -48 -42v-2c0 -37 12 -47 101 -47s102 20 102 60
v140c0 48 -21 64 -65 64c-28 0 -47 -9 -47 -9v114s34 10 74 10zM-40 554v117h1162v-117h-82v-554h-140v49c-27 -15 -61 -23 -102 -23c-139 0 -213 71 -213 184v90h79c27 0 34 8 34 30v4c0 22 -7 30 -34 30h-150c1 -5 1 -11 1 -17v-172c0 -123 -57 -178 -238 -178
c-175 0 -242 50 -242 163v23c0 41 15 73 44 91c-26 17 -39 47 -39 94v130c0 20 5 40 16 56h-96z" />
    <glyph glyph-name="dvCH_R_YA" horiz-adv-x="1090" 
d="M908 554h-447v-63h206c121 0 175 -40 175 -143v-26c0 -77 -36 -115 -112 -115v-1c0 -31 17 -50 88 -50c72 0 90 29 90 74v324zM379 182v140c0 48 -20 64 -59 64c-38 0 -53 -9 -53 -9v114s24 10 64 10v53h-100c-49 0 -51 -25 -51 -59v-121c0 -23 6 -39 39 -39h77v-122h-72
c-33 0 -48 -5 -48 -42v-2c0 -37 12 -47 101 -47s102 20 102 60zM315 -99l-36 96h-3l-36 -96h-143l50 110c-79 22 -112 70 -112 149v23c0 41 15 73 44 91c-26 17 -39 47 -39 94v130c0 20 5 40 16 56h-96v117h1170v-117h-82v-554h-140v49c-27 -15 -61 -23 -102 -23
c-139 0 -213 71 -213 184v90h79c27 0 34 8 34 30v4c0 22 -7 30 -34 30h-157v-17v-172c0 -86 -28 -139 -108 -163l51 -111h-143z" />
    <glyph glyph-name="dvCH_VA" horiz-adv-x="555" 
d="M515 347v-172c0 -59 -13 -103 -47 -132v-323h-141v47c-24 -9 -65 -14 -80 -14c-113 0 -176 46 -176 159v33c0 39 15 64 38 80c-52 26 -74 70 -74 135v23c0 41 15 73 44 91c-26 17 -39 47 -39 94v130c0 20 5 40 16 56h-96v117h634v-117h-133v-75c40 -21 54 -65 54 -132z
M379 182v140c0 48 -20 64 -59 64c-38 0 -53 -9 -53 -9v114s24 10 64 10v53h-100c-49 0 -51 -25 -51 -59v-121c0 -23 6 -39 39 -39h77v-122h-72c-33 0 -48 -5 -48 -42v-2c0 -37 12 -47 101 -47s102 20 102 60zM204 -82c0 -35 17 -50 62 -50s62 15 62 50v81
c-16 -1 -33 -2 -51 -2h-11c-45 0 -62 -17 -62 -52v-27z" />
    <glyph glyph-name="dvJ_KA" horiz-adv-x="1067" 
d="M863 61v130c33 0 39 5 39 38v114c0 25 -7 42 -42 42s-42 -17 -42 -42v-343h-137v65c-13 -8 -38 -14 -60 -14c-110 0 -156 48 -156 151v146c0 8 0 16 1 23h-92c6 -16 9 -32 9 -50v-112c0 -103 -56 -161 -179 -161s-179 60 -179 163v81h140v-78c0 -23 6 -39 39 -39
s39 16 39 39v109c0 23 -6 39 -39 39h-76v129h412c22 9 49 14 81 14c22 0 47 -6 60 -15v64h-721v117h1146v-117h-288v-64c15 9 41 15 61 15c110 0 156 -54 156 -157v-133c0 -103 -39 -156 -152 -156c-7 0 -15 1 -20 2zM640 166c35 0 42 17 42 42v135c0 25 -7 42 -42 42
s-42 -17 -42 -42v-135c0 -25 7 -42 42 -42z" />
    <glyph glyph-name="dvJ_JA" horiz-adv-x="1065" 
d="M593 292v-78c0 -23 6 -39 39 -39s39 16 39 39v109c0 23 -6 39 -39 39h-258c5 -9 9 -23 9 -41v-112c0 -103 -56 -161 -179 -161s-179 60 -179 163v81h140v-78c0 -23 6 -39 39 -39s39 16 39 39v109c0 23 -6 39 -39 39h-76v129h755v63h-923v117h1144v-117h-81v-554h-140v371
h-81c6 -16 9 -32 9 -50v-112c0 -103 -56 -161 -179 -161s-179 60 -179 163v81h140z" />
    <glyph glyph-name="dvJx_JxA" horiz-adv-x="1053" 
d="M581 292v-78c0 -23 6 -39 39 -39s39 16 39 39v109c0 23 -6 39 -39 39h-246c5 -9 9 -23 9 -41v-112c0 -103 -56 -161 -179 -161s-179 60 -179 163v81h140v-78c0 -23 6 -39 39 -39s39 16 39 39v109c0 23 -6 39 -39 39h-76v129h743v63h-911v117h1132v-117h-81v-554h-140v371
h-81c6 -16 9 -32 9 -50v-112c0 -103 -56 -161 -179 -161s-179 60 -179 163v81h140zM-61 -34c0 42 17 75 76 75c58 0 74 -33 74 -75s-17 -75 -75 -75c-59 0 -75 33 -75 75zM355 -34c0 42 17 75 76 75c58 0 74 -33 74 -75s-17 -75 -75 -75c-59 0 -75 33 -75 75z" />
    <glyph glyph-name="dvJ_J_NYA" horiz-adv-x="1068" 
d="M461 283h135v-43c0 -23 3 -39 39 -39s39 16 39 39v83c0 23 -6 39 -39 39h-262c7 -12 9 -26 9 -41v-112c0 -103 -56 -161 -179 -161s-179 60 -179 163v81h140v-78c0 -23 6 -39 39 -39s39 16 39 39v109c0 23 -6 39 -39 39h-76v129h759v63h-926v117h1148v-117h-82v-554h-140
v371h-82c7 -15 10 -32 10 -50v-89c0 -110 -61 -159 -151 -159c-29 0 -44 2 -67 8v-81h-135v283z" />
    <glyph glyph-name="dvJ_J_YA" horiz-adv-x="1387" 
d="M-40 554v117h1467v-117h-82v-554h-140v109c-27 -15 -61 -23 -102 -23c-139 0 -213 71 -213 184v73c-7 21 -30 28 -81 28h-7c6 -16 9 -32 9 -50v-112c0 -103 -56 -161 -179 -161s-179 60 -179 163v81h140v-78c0 -23 6 -39 39 -39s39 16 39 39v109c0 23 -6 39 -39 39h-258
c5 -9 9 -23 9 -41v-112c0 -103 -56 -161 -179 -161s-179 60 -179 163v81h140v-78c0 -23 6 -39 39 -39s39 16 39 39v109c0 23 -6 39 -39 39h-76v129h695c97 0 151 -32 169 -75c8 9 11 23 11 43v41c0 29 -3 54 -39 54h-1004zM1115 216c72 0 90 29 90 74v264h-76
c8 -14 10 -32 10 -54v-70c0 -77 -35 -118 -112 -122v-18c0 -45 17 -74 88 -74z" />
    <glyph glyph-name="dvJ_J_VA" horiz-adv-x="1307" 
d="M1265 554v-554h-140v63c-14 -6 -44 -11 -66 -11c-123 0 -164 56 -164 159v135c0 9 0 17 1 25h-94c6 -16 9 -32 9 -50v-112c0 -103 -56 -161 -179 -161s-179 60 -179 163v81h140v-78c0 -23 6 -39 39 -39s39 16 39 39v109c0 23 -6 39 -39 39h-258c5 -9 9 -23 9 -41v-112
c0 -103 -56 -161 -179 -161s-179 60 -179 163v81h140v-78c0 -23 6 -39 39 -39s39 16 39 39v109c0 23 -6 39 -39 39h-76v129h843c23 10 52 15 88 15c22 0 52 -5 66 -11v59h-1165v117h1387v-117h-82zM1132 214v131c0 30 -15 43 -50 43s-51 -13 -51 -43v-131
c0 -30 16 -44 51 -44s50 14 50 44z" />
    <glyph glyph-name="dvJ_JHA" horiz-adv-x="1055" 
d="M627 211h-11c-108 0 -169 38 -169 141v10v9h-73c6 -16 9 -32 9 -50v-112c0 -103 -56 -161 -179 -161s-179 60 -179 163v81h140v-78c0 -23 6 -39 39 -39s39 16 39 39v109c0 23 -6 39 -39 39h-76v129h397c24 9 55 13 91 13h39v50h-695v117h1134v-117h-81v-554h-140v220h-78
c8 -12 13 -32 13 -51v-25c0 -115 -60 -149 -155 -149c-22 0 -49 5 -70 13v-89h-138v250h138v-14c0 -25 9 -39 44 -39s44 14 44 39v15c0 26 -9 41 -44 41zM616 328h257v226h-78v-170h-179c-22 0 -29 -7 -29 -26v-2c0 -19 6 -28 29 -28z" />
    <glyph glyph-name="dvJ_NY_YA" horiz-adv-x="957" 
d="M35 283h135v-43c0 -23 3 -39 39 -39s39 16 39 39v83c0 23 -6 39 -39 39h-79v129h282c86 0 138 -24 157 -63c3 8 4 18 4 31v41c0 29 -3 54 -39 54h-574v117h1037v-117h-82v-554h-140v109c-27 -15 -61 -23 -102 -23c-139 0 -213 71 -213 184v88c-9 9 -26 13 -58 13h-24
c7 -15 10 -32 10 -50v-89c0 -110 -61 -159 -151 -159c-29 0 -44 2 -67 8v-81h-135v283zM685 216c72 0 90 29 90 74v264h-76c8 -14 10 -32 10 -54v-70c0 -77 -35 -118 -112 -122v-18c0 -45 17 -74 88 -74z" />
    <glyph glyph-name="dvJ_TTA" horiz-adv-x="850" 
d="M799 364h-155c-33 0 -37 -14 -37 -37v-168c0 -23 6 -39 39 -39s39 16 39 39v84h140v-85c0 -103 -56 -163 -179 -163s-179 60 -179 163v174c0 14 1 27 3 39h-96c6 -16 9 -32 9 -50v-112c0 -103 -56 -161 -179 -161s-179 60 -179 163v81h140v-78c0 -23 6 -39 39 -39
s39 16 39 39v109c0 23 -6 39 -39 39h-76v129h531v63h-699v117h929v-117h-90v-190z" />
    <glyph glyph-name="dvJ_DDA" horiz-adv-x="837" 
d="M644 554h-684v117h916v-117h-92v-170h-174c-22 0 -29 -12 -29 -31v-2c0 -19 6 -31 29 -31h25c123 0 179 -46 179 -149v-23c0 -103 -56 -153 -184 -153s-186 49 -186 152v17h140v-11c0 -23 7 -38 45 -38s45 15 45 38v13c0 20 -6 37 -39 37h-25c-108 0 -169 38 -169 141v18
v9h-67c6 -16 9 -32 9 -50v-112c0 -103 -56 -161 -179 -161s-179 60 -179 163v81h140v-78c0 -23 6 -39 39 -39s39 16 39 39v109c0 23 -6 39 -39 39h-76v129h391c24 9 55 13 91 13h34v50z" />
    <glyph glyph-name="dvJ_TA" horiz-adv-x="895" 
d="M656 130v-130c-11 -1 -22 -2 -30 -2c-124 0 -159 53 -159 156v169c0 17 1 33 4 48h-97c6 -16 9 -32 9 -50v-112c0 -103 -56 -161 -179 -161s-179 60 -179 163v81h140v-78c0 -23 6 -39 39 -39s39 16 39 39v109c0 23 -6 39 -39 39h-76v129h460c15 3 33 5 52 5
c28 0 57 -4 73 -11v69h-753v117h975v-117h-82v-554h-140v318c0 29 -11 49 -53 49s-53 -20 -53 -49v-150c0 -33 16 -38 49 -38z" />
    <glyph glyph-name="dvJ_DA" horiz-adv-x="863" 
d="M463 217v119c0 13 1 24 2 35h-91c6 -16 9 -32 9 -50v-112c0 -103 -56 -161 -179 -161s-179 60 -179 163v81h140v-78c0 -23 6 -39 39 -39s39 16 39 39v109c0 23 -6 39 -39 39h-76v129h456c18 3 38 4 60 4h32v59h-716v117h943v-117h-87v-186h-172c-35 0 -41 -13 -41 -37
v-109c0 -24 6 -38 41 -38s41 13 41 38v56h140v-278h-140v73c-19 -9 -46 -12 -61 -12c-113 0 -161 53 -161 156z" />
    <glyph glyph-name="dvJ_NA" horiz-adv-x="1033" 
d="M791 328v-113c0 -103 -44 -163 -167 -163s-169 60 -169 163v113c0 11 1 22 2 32c-13 7 -30 11 -50 11h-33c6 -16 9 -32 9 -50v-112c0 -103 -56 -161 -179 -161s-179 60 -179 163v81h140v-78c0 -23 6 -39 39 -39s39 16 39 39v109c0 23 -6 39 -39 39h-76v129h280
c45 0 83 -8 107 -26c26 17 62 26 109 26h227v63h-891v117h1113v-117h-82v-554h-140v362h-65c4 -9 5 -21 5 -34zM660 216v107c0 23 -5 39 -36 39s-36 -16 -36 -39v-107c0 -23 5 -39 36 -39s36 16 36 39z" />
    <glyph glyph-name="dvJ_BA" horiz-adv-x="907" 
d="M732 0v66c-21 -9 -47 -13 -78 -13c-123 0 -187 39 -187 168v117c0 12 1 23 2 33h-96c6 -16 9 -32 9 -50v-112c0 -103 -56 -161 -179 -161s-179 60 -179 163v81h140v-78c0 -23 6 -39 39 -39s39 16 39 39v109c0 23 -6 39 -39 39h-76v129h421v-1c28 11 64 16 106 16
c31 0 57 -4 78 -13v61h-772v117h987v-117h-82v-554h-133zM666 391c-28 0 -45 -6 -54 -18l120 -105v64c0 36 -13 59 -66 59zM600 227c0 -36 13 -59 66 -59c28 0 44 6 54 17l-120 106v-64z" />
    <glyph glyph-name="dvJ_MA" horiz-adv-x="1052" 
d="M128 491h289c79 0 127 -19 151 -50c17 3 36 5 58 5h39v108h-705v117h1132v-117h-82v-554h-137v328h-74v-120c0 -93 -50 -153 -173 -153s-173 60 -173 153v86c0 23 3 44 10 63c-12 11 -35 14 -74 14h-15c6 -16 9 -32 9 -50v-112c0 -103 -56 -161 -179 -161
s-179 60 -179 163v81h140v-78c0 -23 6 -39 39 -39s39 16 39 39v109c0 23 -6 39 -39 39h-76v129zM799 446h74v108h-74v-108zM665 213v115h-39c-33 0 -39 -16 -39 -39v-76c0 -23 6 -39 39 -39s39 16 39 39z" />
    <glyph glyph-name="dvJ_YA" horiz-adv-x="959" 
d="M128 491h267c97 0 151 -32 169 -75c8 9 11 23 11 43v41c0 29 -3 54 -39 54h-576v117h1039v-117h-82v-554h-140v109c-27 -15 -61 -23 -102 -23c-139 0 -213 71 -213 184v73c-7 21 -30 28 -81 28h-7c6 -16 9 -32 9 -50v-112c0 -103 -56 -161 -179 -161s-179 60 -179 163v81
h140v-78c0 -23 6 -39 39 -39s39 16 39 39v109c0 23 -6 39 -39 39h-76v129zM687 216c72 0 90 29 90 74v264h-76c8 -14 10 -32 10 -54v-70c0 -77 -35 -118 -112 -122v-18c0 -45 17 -74 88 -74z" />
    <glyph glyph-name="dvJx_YA" horiz-adv-x="977" 
d="M128 491h329c75 0 110 -32 123 -77c9 9 13 24 13 45v41c0 29 -3 54 -39 54h-594v117h1057v-117h-82v-554h-140v109c-27 -15 -61 -23 -102 -23c-139 0 -213 71 -213 184v38c0 44 -9 63 -51 63h-55c6 -16 9 -32 9 -50v-112c0 -103 -56 -161 -179 -161s-179 60 -179 163v81
h140v-78c0 -23 6 -39 39 -39s39 16 39 39v109c0 23 -6 39 -39 39h-76v129zM705 216c72 0 90 29 90 74v264h-76c8 -14 10 -32 10 -54v-70c0 -77 -35 -118 -112 -122v-18c0 -45 17 -74 88 -74zM-61 -34c0 42 17 75 76 75c58 0 74 -33 74 -75s-17 -75 -75 -75
c-59 0 -75 33 -75 75z" />
    <glyph glyph-name="dvJ_VA" horiz-adv-x="879" 
d="M837 554v-554h-140v63c-14 -6 -44 -11 -66 -11c-123 0 -164 56 -164 159v135c0 9 0 17 1 25h-94c6 -16 9 -32 9 -50v-112c0 -103 -56 -161 -179 -161s-179 60 -179 163v81h140v-78c0 -23 6 -39 39 -39s39 16 39 39v109c0 23 -6 39 -39 39h-76v129h415c23 10 52 15 88 15
c22 0 52 -5 66 -11v59h-737v117h959v-117h-82zM704 214v131c0 30 -15 43 -50 43s-51 -13 -51 -43v-131c0 -30 16 -44 51 -44s50 14 50 44z" />
    <glyph glyph-name="dvJH_NA" horiz-adv-x="1054" 
d="M812 328v-113c0 -103 -44 -163 -167 -163s-169 60 -169 163v5h-84c8 -15 12 -32 12 -51v-22c0 -103 -41 -152 -164 -152c-15 0 -50 5 -64 15v-91h-138v250h138v-11c0 -25 9 -39 44 -39s44 14 44 39v16c0 19 -5 35 -34 37h-11c-113 0 -179 38 -179 141v10
c0 103 56 142 179 142h29v50h-288v117h1134v-117h-82v-554h-140v362h-65c4 -9 5 -21 5 -34zM872 491v63h-484v-170h-169c-30 0 -38 -7 -39 -22v-5c0 -19 6 -29 39 -29h257c0 103 46 163 169 163h227zM681 216v107c0 23 -5 39 -36 39s-36 -16 -36 -39v-107
c0 -23 5 -39 36 -39s36 16 36 39z" />
    <glyph glyph-name="dvJH_MA" horiz-adv-x="1059" 
d="M880 0v328h-74v-120c0 -93 -50 -153 -173 -153s-173 60 -173 153v12h-68c8 -15 12 -32 12 -51v-22c0 -103 -41 -152 -164 -152c-15 0 -50 5 -64 15v-91h-138v250h138v-11c0 -25 9 -39 44 -39s44 14 44 39v16c0 19 -5 35 -34 37h-11c-113 0 -179 38 -179 141v10
c0 103 56 142 179 142h61v50h-320v117h1139v-117h-82v-554h-137zM219 328h244c11 73 63 118 170 118h39v108h-252v-170h-201c-30 0 -38 -7 -39 -22v-5c0 -19 6 -29 39 -29zM806 446h74v108h-74v-108zM672 213v115h-39c-33 0 -39 -16 -39 -39v-76c0 -23 6 -39 39 -39
s39 16 39 39z" />
    <glyph glyph-name="dvJH_YA" horiz-adv-x="950" 
d="M-40 554v117h1030v-117h-82v-554h-140v109c-27 -15 -61 -23 -102 -23c-117 0 -188 50 -208 134h-66c8 -15 12 -32 12 -51v-22c0 -103 -41 -152 -164 -152c-15 0 -50 5 -64 15v-91h-138v250h138v-11c0 -25 9 -39 44 -39s44 14 44 39v16c0 19 -5 35 -34 37h-11
c-113 0 -179 38 -179 141v10c0 103 56 142 179 142h29v50h-288zM219 328h234v68h24c68 0 89 13 89 63v41c0 29 -3 54 -39 54h-139v-170h-169c-30 0 -38 -7 -39 -22v-5c0 -19 6 -29 39 -29zM678 216c72 0 90 29 90 74v264h-76c8 -14 10 -32 10 -54v-70
c0 -77 -35 -118 -112 -122v-18c0 -45 17 -74 88 -74z" />
    <glyph glyph-name="dvNY_CA" horiz-adv-x="947" 
d="M665 332v-108c0 -30 10 -48 50 -48s50 18 50 48v330h-805v117h1026v-117h-81v-554h-140v68c-22 -11 -52 -15 -73 -15c-100 0 -152 40 -164 125h-153l-1 -6c-12 -64 -62 -120 -170 -120c-123 0 -174 60 -174 163v26h140v-21c0 -23 1 -39 34 -39s34 16 34 39v118
c0 23 -1 39 -34 39s-34 -16 -34 -39v-23h-140v28c0 103 51 163 174 163s174 -60 174 -163v-45h147v28c0 17 3 29 10 39h-97v126h291v-120h-30c-29 0 -34 -17 -34 -39z" />
    <glyph glyph-name="dvNY_CHA" horiz-adv-x="962" 
d="M922 347v-172c0 -123 -57 -178 -238 -178c-175 0 -242 50 -242 163v8c0 28 9 42 19 54h-83v-9c0 -101 -62 -161 -174 -161c-123 0 -174 60 -174 163v26h140v-21c0 -23 1 -39 34 -39s34 16 34 39v118c0 23 -1 39 -34 39s-34 -16 -34 -39v-23h-140v28c0 103 51 163 174 163
s174 -60 174 -163v-9h83c-8 12 -14 27 -14 55v109c0 20 5 40 16 56h-503v117h1042v-117h-134v-75c40 -21 54 -65 54 -132zM786 182v140c0 48 -20 64 -59 64c-38 0 -53 -9 -53 -9v114s24 10 64 10v53h-100c-49 0 -51 -25 -51 -59v-121c0 -23 6 -39 39 -39h77v-122h-72
c-33 0 -48 -5 -48 -42v-2c0 -37 12 -47 101 -47s102 20 102 60z" />
    <glyph glyph-name="dvNY_JA" horiz-adv-x="1052" 
d="M566 328v-114c0 -23 8 -39 46 -39s46 16 46 39v119c0 33 -6 39 -39 39h-94v119h345v63h-910v117h1132v-117h-82v-554h-140v371h-81c6 -16 9 -32 9 -50v-112c0 -103 -58 -161 -186 -161s-186 60 -186 163v7h-48v-5c0 -101 -62 -161 -174 -161c-123 0 -174 60 -174 163v26
h140v-21c0 -23 1 -39 34 -39s34 16 34 39v118c0 23 -1 39 -34 39s-34 -16 -34 -39v-23h-140v28c0 103 51 163 174 163s174 -60 174 -163v-15h188z" />
    <glyph glyph-name="dvNY_SHA" horiz-adv-x="1044" 
d="M801 513v-111c0 -103 -41 -160 -155 -160c-20 0 -52 4 -63 10v-89c0 -23 8 -39 41 -39s41 16 41 39v21h140v-26c0 -103 -58 -163 -181 -163s-181 60 -181 163v60h-66v-5c0 -101 -61 -161 -173 -161c-123 0 -174 60 -174 163v26h140v-21c0 -23 1 -39 34 -39s34 16 34 39
v118c0 23 -1 39 -34 39s-34 -16 -34 -39v-23h-140v28c0 103 51 163 174 163s174 -60 174 -163v-5h65v76h140v-17c0 -19 9 -31 39 -31c33 0 39 15 39 38v104c0 23 -6 39 -39 39s-39 -16 -39 -39v-41h-140v46c0 103 56 163 179 163s179 -60 179 -163zM382 671v-117h-422v117
h422zM862 671h222v-117h-82v-554h-140v671z" />
    <glyph glyph-name="dvTT_TTA" horiz-adv-x="455" 
d="M250 554h-290v117h535v-117h-105v-190h-163c-38 0 -49 -9 -49 -37v-43c0 -28 11 -39 49 -39s49 11 49 39v17h140v-32c0 -38 -9 -67 -26 -89v-211h-163c-38 0 -49 -9 -49 -37v-43c0 -28 11 -39 49 -39s49 11 49 39v17h140v-32c0 -103 -66 -143 -189 -143s-189 55 -189 148
v58c0 113 66 159 189 159h49v33c-15 -2 -32 -3 -49 -3c-123 0 -189 55 -189 148v58c0 113 66 159 189 159h23v63z" />
    <glyph glyph-name="dvTT_TTHA" horiz-adv-x="461" 
d="M422 69v-85c0 -103 -66 -156 -189 -156s-189 53 -189 156v84c0 41 13 71 38 91c-25 22 -38 54 -38 95v78c0 113 66 159 189 159h23v63h-296v117h541v-117h-105v-190h-163c-38 0 -49 -9 -49 -37v-73c0 -28 11 -39 49 -39s49 11 49 39v27h140v-32c0 -38 -13 -69 -37 -91
c24 -20 37 -49 37 -89zM287 -11v75c0 28 -14 42 -54 42s-54 -14 -54 -42v-75c0 -28 14 -42 54 -42s54 14 54 42z" />
    <glyph glyph-name="dvTT_YA" horiz-adv-x="959" 
d="M777 554h-410v-63h169c121 0 175 -40 175 -143v-26c0 -77 -36 -115 -112 -115v-1c0 -31 17 -50 88 -50c72 0 90 29 90 74v324zM-40 554v117h1039v-117h-82v-554h-140v49c-27 -15 -61 -23 -102 -23c-139 0 -213 71 -213 184v90h79c27 0 34 8 34 30v4c0 22 -7 30 -34 30
h-329c-33 0 -37 -14 -37 -37v-168c0 -23 6 -39 39 -39s39 16 39 39v84h140v-85c0 -103 -56 -163 -179 -163s-179 60 -179 163v174c0 113 54 159 177 159h15v63h-267z" />
    <glyph glyph-name="dvTT_VA" horiz-adv-x="461" 
d="M386 554v-190h-165c-33 0 -37 -14 -37 -37v-75c0 -29 9 -45 49 -45s49 16 49 45v41h140v-46c0 -41 -11 -76 -31 -104v-373h-131v65c-15 -7 -38 -12 -60 -12c-113 0 -156 46 -156 149v64c0 43 19 72 46 90c-30 30 -46 71 -46 121v80c0 113 54 164 177 164h25v63h-286v117
h541v-117h-115zM261 -22v101c-9 -1 -18 -1 -28 -1h-14c-35 0 -42 -17 -42 -42v-58c0 -25 7 -40 42 -40s42 15 42 40z" />
    <glyph glyph-name="dvTTH_TTHA" horiz-adv-x="466" 
d="M45 240v108c0 89 41 135 119 151v55h-204v117h546v-117h-202v-55c78 -16 119 -62 119 -150v-109c0 -39 -14 -69 -42 -90c28 -20 42 -50 42 -93v-109c0 -103 -66 -156 -189 -156s-189 53 -189 156v108c0 43 14 74 42 94c-28 21 -42 51 -42 90zM288 245v99
c0 28 -14 42 -54 42s-54 -14 -54 -42v-99c0 -28 14 -42 54 -42s54 14 54 42zM288 -47v99c0 28 -14 42 -54 42s-54 -14 -54 -42v-99c0 -28 14 -42 54 -42s54 14 54 42z" />
    <glyph glyph-name="dvTTH_YA" horiz-adv-x="967" 
d="M785 554h-501v-52h260c121 0 175 -40 175 -143v-37c0 -77 -36 -115 -112 -115v-1c0 -26 17 -50 88 -50c72 0 90 29 90 74v324zM258 156v193c0 24 -9 42 -44 42s-44 -18 -44 -42v-193c0 -24 9 -42 44 -42s44 18 44 42zM393 354v-196c0 -103 -56 -163 -179 -163
s-179 60 -179 163v196c0 81 34 131 109 148v52h-184v117h1047v-117h-82v-554h-140v49c-27 -15 -61 -23 -102 -23c-139 0 -213 71 -213 184v90h79c27 0 34 8 34 30v15c0 22 -7 30 -34 30h-157c1 -7 1 -14 1 -21z" />
    <glyph glyph-name="dvDD_DDA" horiz-adv-x="455" 
d="M263 554h-303v117h535v-117h-92v-165h-191c-22 0 -32 -7 -32 -26v-2c0 -19 9 -26 32 -26h62c122 0 159 -49 159 -130v-12c0 -111 -57 -150 -200 -150l-1 1v-1h-21c-22 0 -32 -7 -32 -26v-2c0 -19 9 -26 32 -26h62c122 0 159 -49 159 -130v-12c0 -111 -57 -150 -200 -150
s-200 36 -200 147v17h140v-12c0 -24 7 -37 60 -37s60 9 60 38v2c0 23 -6 33 -39 33h-55c-108 0 -159 43 -159 126v10c0 34 10 58 27 74c-23 19 -33 48 -33 95v17h140v-12c0 -24 7 -37 60 -37s60 9 60 38v2c0 23 -6 33 -39 33h-55c-108 0 -159 43 -159 126v10
c0 89 65 127 159 127h64v60z" />
    <glyph glyph-name="dvDD_DDHA" horiz-adv-x="453" 
d="M238 43h-10c-43 0 -53 -14 -53 -57v-124c0 -27 8 -48 60 -48s60 19 60 46v1c0 28 -14 34 -38 34c-19 0 -31 -8 -31 -8v103s24 8 55 8c93 0 148 -39 148 -132v-13c0 -108 -64 -157 -194 -157s-198 54 -198 162v133c0 43 10 76 32 100c-26 19 -38 49 -38 99v17h140v-12
c0 -24 7 -37 60 -37s60 9 60 38v2c0 23 -6 33 -39 33h-55c-108 0 -159 43 -159 126v10c0 89 65 127 159 127h64v60h-301v117h533v-117h-92v-165h-191c-22 0 -32 -7 -32 -26v-2c0 -19 9 -26 32 -26h62c122 0 159 -49 159 -130v-12c0 -111 -57 -150 -193 -150z" />
    <glyph glyph-name="dvDD_YA" horiz-adv-x="959" 
d="M777 554h-407v-50h166c121 0 175 -33 175 -136v-26c0 -77 -36 -115 -112 -115v-9c0 -37 17 -62 88 -62c72 0 90 29 90 74v324zM230 554h-270v117h1039v-117h-82v-554h-140v49c-27 -15 -61 -23 -102 -23c-139 0 -213 71 -213 184v110h79c27 0 34 8 34 30v4
c0 22 -7 30 -34 30h-345c-22 0 -29 -12 -29 -31v-2c0 -19 6 -31 29 -31h25c123 0 179 -46 179 -149v-23c0 -103 -56 -153 -184 -153s-186 49 -186 152v17h140v-11c0 -23 7 -38 45 -38s45 15 45 38v13c0 20 -6 37 -39 37h-25c-108 0 -169 38 -169 141v18
c0 103 56 142 169 142h34v50z" />
    <glyph glyph-name="dvDD_VA" horiz-adv-x="455" 
d="M263 554h-303v117h535v-117h-92v-165h-191c-22 0 -32 -7 -32 -26v-2c0 -19 9 -26 32 -26h62c122 0 159 -49 159 -130v-12c0 -59 -16 -98 -53 -121v-296h-131v57c-13 -9 -45 -14 -60 -14c-113 0 -156 46 -156 149v43c0 34 12 59 31 78c-21 23 -31 56 -31 101v17h140v-12
c0 -24 7 -37 60 -37s60 9 60 38v2c0 23 -6 33 -39 33h-55c-108 0 -159 43 -159 126v10c0 89 65 127 159 127h64v60zM250 -36v79h-17h-9c-47 0 -58 -7 -58 -52v-27c0 -25 7 -40 42 -40s42 15 42 40z" />
    <glyph glyph-name="dvDDH_DDHA" horiz-adv-x="472" 
d="M240 35h-10c-43 0 -53 -14 -53 -57v-124c0 -27 8 -48 60 -48s60 19 60 46v1c0 28 -14 34 -38 34c-19 0 -31 -8 -31 -8v103s24 8 55 8c93 0 148 -39 148 -132v-13c0 -108 -64 -157 -194 -157s-198 54 -198 162v133c0 47 12 83 38 107c-23 26 -35 62 -35 107v153
c0 105 51 149 177 149h34v55h-293v117h552v-117h-121v-172h-172c-31 0 -39 -9 -39 -37v-144c0 -27 8 -48 60 -48s60 19 60 46v1c0 28 -14 34 -38 34c-19 0 -31 -8 -31 -8v103s24 8 55 8c93 0 148 -39 148 -132v-13c0 -108 -64 -157 -194 -157z" />
    <glyph glyph-name="dvDDH_YA" horiz-adv-x="967" 
d="M785 554h-402v-55h161c121 0 175 -40 175 -143v-26c0 -77 -36 -115 -112 -115v-4c0 -31 17 -55 88 -55c72 0 90 29 90 74v324zM209 499h36v55h-285v117h1047v-117h-82v-554h-140v49c-27 -15 -61 -23 -102 -23c-139 0 -213 71 -213 184v98h79c27 0 34 8 34 30v4
c0 22 -7 30 -34 30h-340c-33 0 -37 -14 -37 -37v-163c0 -31 8 -49 50 -49s50 16 50 47v2c0 28 -13 34 -33 34c-18 0 -29 -8 -29 -8v123s19 8 48 8c98 0 148 -39 148 -152v-15c0 -113 -54 -167 -184 -167s-188 59 -188 172v173c0 113 52 159 175 159z" />
    <glyph glyph-name="dvNN_TTA" horiz-adv-x="844" 
d="M793 364h-155c-33 0 -37 -14 -37 -37v-168c0 -23 6 -39 39 -39s39 16 39 39v84h140v-85c0 -103 -56 -163 -179 -163s-179 60 -179 163v174c0 113 54 159 177 159h15v63h-262v-288c0 -103 -55 -163 -178 -163s-178 60 -178 163v288h-75v117h923v-117h-90v-190zM213 228
c33 0 38 16 38 39v287h-76v-287c0 -23 5 -39 38 -39z" />
    <glyph glyph-name="dvNN_TTHA" horiz-adv-x="854" 
d="M819 354v-196c0 -103 -56 -163 -179 -163s-179 60 -179 163v196c0 81 34 131 109 148v52h-179v-288c0 -103 -55 -163 -178 -163s-178 60 -178 163v288h-75v117h933v-117h-183v-52c74 -17 109 -67 109 -148zM213 228c33 0 38 16 38 39v287h-76v-287c0 -23 5 -39 38 -39z
M684 156v193c0 24 -9 42 -44 42s-44 -18 -44 -42v-193c0 -24 9 -42 44 -42s44 18 44 42z" />
    <glyph glyph-name="dvNN_DDA" horiz-adv-x="851" 
d="M658 554h-267v-288c0 -103 -55 -163 -178 -163s-178 60 -178 163v288h-75v117h930v-117h-92v-170h-174c-22 0 -29 -12 -29 -31v-2c0 -19 6 -31 29 -31h25c123 0 179 -46 179 -149v-23c0 -103 -56 -153 -184 -153s-186 49 -186 152v17h140v-11c0 -23 7 -38 45 -38
s45 15 45 38v13c0 20 -6 37 -39 37h-25c-108 0 -169 38 -169 141v18c0 103 56 142 169 142h34v50zM213 228c33 0 38 16 38 39v287h-76v-287c0 -23 5 -39 38 -39z" />
    <glyph glyph-name="dvNN_DDHA" horiz-adv-x="861" 
d="M635 499h36v55h-280v-288c0 -103 -55 -163 -178 -163s-178 60 -178 163v288h-75v117h940v-117h-91v-182h-174c-33 0 -37 -14 -37 -37v-163c0 -31 8 -49 50 -49s50 16 50 47v2c0 28 -13 34 -33 34c-18 0 -29 -8 -29 -8v123s19 8 48 8c98 0 148 -39 148 -152v-15
c0 -113 -54 -167 -184 -167s-188 59 -188 172v173c0 113 52 159 175 159zM213 228c33 0 38 16 38 39v287h-76v-287c0 -23 5 -39 38 -39z" />
    <glyph glyph-name="dvNN_NNA" horiz-adv-x="1082" 
d="M822 554v-288c0 -103 -55 -163 -178 -163s-178 60 -178 163v288h-75v-288c0 -103 -55 -163 -178 -163s-178 60 -178 163v288h-75v117h1162v-117h-82v-554h-140v554h-78zM213 228c33 0 38 16 38 39v287h-76v-287c0 -23 5 -39 38 -39zM682 554h-76v-287c0 -23 5 -39 38 -39
s38 16 38 39v287z" />
    <glyph glyph-name="dvNN_MA" horiz-adv-x="1045" 
d="M866 0v328h-74v-120c0 -93 -50 -153 -173 -153s-173 60 -173 153v86c0 93 50 152 173 152h39v108h-267v-288c0 -103 -55 -163 -178 -163s-178 60 -178 163v288h-75v117h1125v-117h-82v-554h-137zM213 228c33 0 38 16 38 39v287h-76v-287c0 -23 5 -39 38 -39zM792 446h74
v108h-74v-108zM658 213v115h-39c-33 0 -39 -16 -39 -39v-76c0 -23 6 -39 39 -39s39 16 39 39z" />
    <glyph glyph-name="dvNN_YA" horiz-adv-x="955" 
d="M-40 554v117h1035v-117h-82v-554h-140v109c-27 -15 -61 -23 -102 -23c-139 0 -213 71 -213 184v126h24c68 0 89 13 89 63v41c0 29 -3 54 -39 54h-141v-288c0 -103 -55 -163 -178 -163s-178 60 -178 163v288h-75zM213 228c33 0 38 16 38 39v287h-76v-287
c0 -23 5 -39 38 -39zM683 216c72 0 90 29 90 74v264h-76c8 -14 10 -32 10 -54v-70c0 -77 -35 -118 -112 -122v-18c0 -45 17 -74 88 -74z" />
    <glyph glyph-name="dvNN_VA" horiz-adv-x="871" 
d="M829 554v-554h-140v63c-14 -6 -44 -11 -66 -11c-123 0 -164 56 -164 159v135c0 103 45 160 164 160c22 0 52 -5 66 -11v59h-298v-288c0 -103 -55 -163 -178 -163s-178 60 -178 163v288h-75v117h951v-117h-82zM213 228c33 0 38 16 38 39v287h-76v-287c0 -23 5 -39 38 -39z
M696 214v131c0 30 -15 43 -50 43s-51 -13 -51 -43v-131c0 -30 16 -44 51 -44s50 14 50 44z" />
    <glyph glyph-name="dvT_KA" horiz-adv-x="871" 
d="M667 61v130c33 0 39 5 39 38v114c0 25 -7 42 -42 42s-42 -17 -42 -42v-343h-137v65c-13 -8 -38 -14 -60 -14c-110 0 -156 48 -156 151v146c0 7 0 13 1 19h-42c-42 0 -53 -20 -53 -49v-150c0 -33 16 -38 49 -38v-130c-11 -1 -23 -2 -31 -2c-124 0 -158 53 -158 156v169
c0 113 50 173 193 173h130c19 6 41 9 67 9c22 0 47 -6 60 -15v64h-525v117h950v-117h-288v-64c15 9 41 15 61 15c110 0 156 -54 156 -157v-133c0 -103 -39 -156 -152 -156c-7 0 -15 1 -20 2zM444 166c35 0 42 17 42 42v135c0 25 -7 42 -42 42s-42 -17 -42 -42v-135
c0 -25 7 -42 42 -42z" />
    <glyph glyph-name="dvT_K_YA" horiz-adv-x="1194" 
d="M910 86c-139 0 -213 71 -213 184v61c0 25 -7 42 -42 42s-42 -17 -42 -42v-331h-137v65c-13 -8 -38 -14 -60 -14c-110 0 -156 48 -156 151v146c0 7 0 13 1 19h-33c-42 0 -53 -20 -53 -49v-150c0 -33 16 -38 49 -38v-130c-11 -1 -23 -2 -31 -2c-124 0 -158 53 -158 156v169
c0 113 50 173 193 173h121c19 6 41 9 67 9c22 0 47 -6 60 -15v64h-516v117h1274v-117h-82v-554h-140v109c-27 -15 -61 -23 -102 -23zM810 500c0 29 -3 54 -39 54h-158v-76c15 9 41 15 61 15c67 0 110 -20 134 -59c1 7 2 15 2 25v41zM922 216c72 0 90 29 90 74v264h-76
c8 -14 10 -32 10 -54v-70c0 -77 -35 -118 -112 -122v-18c0 -45 17 -74 88 -74zM435 166c35 0 42 17 42 42v135c0 25 -7 42 -42 42s-42 -17 -42 -42v-135c0 -25 7 -42 42 -42z" />
    <glyph glyph-name="dvT_K_RA" horiz-adv-x="884" 
d="M270 -42l82 133c-47 15 -68 50 -68 119v138c0 7 0 13 1 19h-57c-42 0 -53 -20 -53 -49v-150c0 -33 16 -38 49 -38v-130c-11 -1 -23 -2 -31 -2c-124 0 -158 53 -158 156v169c0 113 50 173 193 173h145c19 6 41 9 67 9c15 0 47 -5 60 -15v64h-540v117h964v-117h-287v-64
c15 10 48 15 61 15c110 0 156 -54 156 -157v-133c0 -103 -39 -156 -152 -156c-7 0 -15 1 -20 2v130c33 0 39 5 39 38v114c0 25 -7 42 -42 42s-42 -17 -42 -42v-343h-137v95l-79 -137h-151zM459 176c35 0 42 15 42 40v127c0 25 -7 42 -42 42s-42 -17 -42 -42v-127
c0 -25 7 -40 42 -40z" />
    <glyph glyph-name="dvT_K_VA" horiz-adv-x="1109" 
d="M1067 554v-554h-140v63c-14 -6 -44 -11 -66 -11c-123 0 -164 56 -164 159v132c0 25 -7 42 -42 42s-42 -17 -42 -42v-343h-137v65c-13 -8 -38 -14 -60 -14c-110 0 -156 48 -156 151v146c0 7 0 13 1 19h-33c-42 0 -53 -20 -53 -49v-150c0 -33 16 -38 49 -38v-130
c-11 -1 -23 -2 -31 -2c-124 0 -158 53 -158 156v169c0 113 50 173 193 173h121c19 6 41 9 67 9c22 0 47 -6 60 -15v64h-516v117h1189v-117h-82zM927 495v59h-314v-64c15 9 41 15 61 15c36 0 64 -8 84 -22c25 15 59 23 103 23c22 0 52 -5 66 -11zM934 214v131
c0 30 -15 43 -50 43s-51 -13 -51 -43v-131c0 -30 16 -44 51 -44s50 14 50 44zM435 166c35 0 42 17 42 42v135c0 25 -7 42 -42 42s-42 -17 -42 -42v-135c0 -25 7 -42 42 -42z" />
    <glyph glyph-name="dvT_K_SSA" horiz-adv-x="933" 
d="M676 517v-20c0 -32 -2 -44 -6 -52h81v226h222v-117h-82v-554h-140v330h-248c-42 0 -45 -22 -45 -56v-61c0 -23 8 -39 41 -39s41 16 41 39v48h133v-261h-133v64c-20 -8 -42 -12 -66 -12c-113 0 -159 60 -159 163v78c-8 9 -23 14 -47 14h-40c-42 0 -53 -20 -53 -49v-90
c0 -33 16 -38 49 -38v-130c-11 -1 -23 -2 -31 -2c-124 0 -158 53 -158 156v109c0 113 50 173 193 173h28c48 0 78 -9 97 -24c-11 18 -15 46 -15 86v19c0 103 53 159 171 159s167 -56 167 -159zM271 671v-117h-311v117h311zM544 479v37c0 23 -3 40 -35 40s-35 -17 -35 -40
v-37c0 -23 3 -40 35 -40s35 17 35 40z" />
    <glyph glyph-name="dvT_KHA" horiz-adv-x="1038" 
d="M413 486v-99c0 -23 4 -38 37 -38s37 15 37 38v128c0 23 -6 39 -39 39h-488v117h1119v-117h-83v-554h-136v109c-13 -9 -37 -10 -52 -10c-20 0 -38 1 -54 4c-31 -67 -99 -103 -205 -103h-28c-163 0 -241 65 -241 198v159h-52c-42 0 -53 -20 -53 -49v-140
c0 -33 16 -38 49 -38v-130c-11 -1 -23 -2 -31 -2c-124 0 -158 53 -158 156v159c0 113 50 173 193 173h185zM860 484v70h-247c2 -12 3 -25 3 -39v-133c0 -103 -31 -156 -144 -156c-15 0 -46 5 -59 14v-37c0 -53 34 -79 107 -79h16c75 0 113 27 113 80v130
c0 103 29 162 152 162c16 0 43 -3 59 -12zM817 375c-35 0 -43 -16 -43 -40v-79c0 -24 8 -40 43 -40s43 16 43 40v79c0 24 -8 40 -43 40z" />
    <glyph glyph-name="dvT_KH_NA" horiz-adv-x="1438" 
d="M413 486v-99c0 -23 4 -38 37 -38s37 15 37 38v128c0 23 -6 39 -39 39h-488v117h1518v-117h-82v-554h-140v362h-65c4 -9 5 -21 5 -34v-113c0 -103 -44 -163 -167 -163c-69 0 -114 19 -140 54c-20 -5 -44 -7 -72 -7c-26 0 -45 5 -59 13c-29 -73 -98 -112 -209 -112h-28
c-163 0 -241 65 -241 198v159h-52c-42 0 -53 -20 -53 -49v-140c0 -33 16 -38 49 -38v-130c-11 -1 -23 -2 -31 -2c-124 0 -158 53 -158 156v159c0 113 50 173 193 173h185zM1256 491v63h-643c2 -12 3 -25 3 -39v-133c0 -103 -31 -156 -144 -156c-15 0 -46 5 -59 14v-37
c0 -53 34 -79 107 -79h16c75 0 113 27 113 80v131c0 103 35 157 168 157c49 0 85 -7 111 -22c25 14 58 21 101 21h227zM860 256v79c0 25 -8 40 -43 40s-43 -16 -43 -40v-79c0 -24 8 -40 43 -40s43 15 43 40zM1065 216v107c0 23 -5 39 -36 39s-36 -16 -36 -39v-107
c0 -23 5 -39 36 -39s36 16 36 39z" />
    <glyph glyph-name="dvT_KH_RA" horiz-adv-x="1038" 
d="M454 25c-125 7 -174 63 -174 173v159h-52c-42 0 -53 -20 -53 -49v-140c0 -33 16 -38 49 -38v-130c-11 -1 -23 -2 -31 -2c-124 0 -158 53 -158 156v159c0 113 50 173 193 173h185v-99c0 -23 4 -38 37 -38s37 15 37 38v128c0 23 -6 39 -39 39h-488v117h1118v-117h-82v-554
h-136v109c-13 -9 -37 -10 -52 -10c-20 0 -38 1 -54 4c-11 -23 -29 -40 -51 -56l-204 -146l-204 16v4l160 104h-1zM649 204v130c0 103 29 162 152 162c16 0 43 -3 59 -12v70h-247c2 -12 3 -25 3 -39v-133c0 -103 -31 -156 -144 -156c-15 0 -46 5 -59 14v-37
c0 -53 34 -75 107 -75h16c75 0 113 23 113 76zM817 375c-35 0 -43 -16 -43 -40v-85c1 -21 10 -34 43 -34c35 0 43 16 43 40v79c0 24 -8 40 -43 40z" />
    <glyph glyph-name="dvT_TA" horiz-adv-x="483" 
d="M244 130v-130c-11 -1 -23 -2 -31 -2c-113 0 -158 58 -158 161v164c0 21 4 37 12 50h-56v118h290v63h-341v117h563v-117h-82v-554h-140v362h-53c-39 0 -53 -20 -53 -49v-145c0 -32 14 -38 49 -38z" />
    <glyph glyph-name="dvT_T" horiz-adv-x="268" 
d="M370 671v-117h-410v117h410zM11 373v118h360v-129h-123c-39 0 -53 -20 -53 -49v-145c0 -32 14 -38 49 -38v-130c-11 -1 -23 -2 -31 -2c-113 0 -158 58 -158 161v164c0 21 4 37 12 50h-56z" />
    <glyph glyph-name="dvT_T_YA" horiz-adv-x="786" 
d="M11 334v118h250c61 0 105 -10 133 -31c6 9 8 22 8 38v41c0 29 -3 54 -39 54h-403v117h866v-117h-82v-554h-140v109c-27 -15 -61 -23 -102 -23c-139 0 -213 71 -213 184v54c-7 5 -16 9 -30 9h-11c-42 0 -53 -20 -53 -49v-116c0 -33 16 -38 49 -38v-130
c-11 -1 -23 -2 -31 -2c-124 0 -158 53 -158 156v135c0 17 3 32 7 45h-51zM514 216c72 0 90 29 90 74v264h-76c8 -14 10 -32 10 -54v-70c0 -77 -35 -118 -112 -122v-18c0 -45 17 -74 88 -74z" />
    <glyph glyph-name="dvT_T_VA" horiz-adv-x="702" 
d="M55 159v164c0 21 4 37 12 50h-56v118h355c23 10 52 15 88 15c22 0 52 -5 66 -11v59h-560v117h782v-117h-82v-554h-140v63c-14 -6 -44 -11 -66 -11c-123 0 -164 56 -164 159v135v16h-42c-39 0 -53 -20 -53 -49v-145c0 -32 15 -38 46 -38h3v-130c-11 -1 -23 -2 -31 -2
c-113 0 -158 58 -158 161zM527 214v131c0 30 -15 43 -50 43s-51 -13 -51 -43v-131c0 -30 16 -44 51 -44s50 14 50 44z" />
    <glyph glyph-name="dvT_THA" horiz-adv-x="823" 
d="M526 202c94 0 115 34 115 121v348h222v-117h-82v-554h-140v103c-34 -20 -81 -29 -142 -29c-160 0 -239 85 -239 217v12h-32c-42 0 -53 -20 -53 -49v-86c0 -33 16 -38 49 -38v-130c-11 -1 -23 -2 -31 -2c-124 0 -158 53 -158 156v105c0 113 50 173 193 173h165
c57 0 72 19 72 61v22c0 23 -5 36 -30 36s-30 -13 -30 -36v-24h-133v19c0 103 46 166 159 166s160 -57 160 -160v-48c0 -98 -51 -157 -177 -157h-11v-15c0 -65 25 -94 123 -94zM231 671v-117h-271v117h271z" />
    <glyph glyph-name="dvT_NA" horiz-adv-x="855" 
d="M228 491h28c37 0 68 -8 89 -20c26 13 59 20 101 20h227v63h-713v117h935v-117h-82v-554h-140v362h-65c4 -9 5 -21 5 -34v-113c0 -103 -44 -163 -167 -163s-169 60 -169 163v113c0 10 0 19 1 28c-10 4 -23 6 -42 6h-8c-42 0 -53 -20 -53 -49v-145c0 -33 16 -38 49 -38
l1 -130c-11 -1 -23 -2 -31 -2c-124 0 -159 53 -159 156v164c0 113 50 173 193 173zM482 216v107c0 23 -5 39 -36 39s-36 -16 -36 -39v-107c0 -23 5 -39 36 -39s36 16 36 39z" />
    <glyph glyph-name="dvT_N_YA" horiz-adv-x="1191" 
d="M458 491h179c75 0 129 -26 156 -79c11 10 15 25 15 47v41c0 29 -3 54 -39 54h-809v117h1272v-117h-82v-554h-140v109c-27 -15 -61 -23 -102 -23c-139 0 -213 71 -213 184v71c-7 15 -20 24 -44 24h-33c5 -9 7 -23 7 -37v-113c0 -103 -44 -163 -167 -163s-169 60 -169 163
v107c-1 17 -7 45 -38 45h-23c-42 0 -53 -20 -53 -49v-150c0 -33 16 -38 49 -38v-130c-11 -1 -23 -2 -31 -2c-124 0 -158 53 -158 156v169c0 113 50 173 193 173h19c48 0 82 -12 106 -31c26 17 61 26 105 26zM920 216c72 0 90 29 90 74v264h-76c8 -14 10 -32 10 -54v-70
c0 -77 -35 -118 -112 -122v-18c0 -45 17 -74 88 -74zM494 216v107c0 23 -5 39 -36 39s-36 -16 -36 -39v-107c0 -23 5 -39 36 -39s36 16 36 39z" />
    <glyph glyph-name="dvT_PA" horiz-adv-x="678" 
d="M496 0v126c-19 -8 -45 -12 -70 -12c-118 0 -156 55 -156 158v95h-42c-42 0 -53 -20 -53 -49v-150c0 -33 16 -38 49 -38v-130c-11 -1 -23 -2 -31 -2c-124 0 -158 53 -158 156v169c0 113 50 173 193 173h42v58h-310v117h758v-117h-82v-554h-140zM496 554h-86v-276
c0 -23 7 -40 43 -40s43 17 43 40v276z" />
    <glyph glyph-name="dvT_P_RA" horiz-adv-x="702" 
d="M262 0l104 187c-55 19 -72 62 -72 134v46h-66c-42 0 -53 -20 -53 -49v-150c0 -33 16 -38 49 -38v-130c-11 -1 -23 -2 -31 -2c-124 0 -158 53 -158 156v169c0 113 50 173 193 173h66v58h-334v117h782v-117h-82v-554h-140v189l-105 -189h-153zM520 554h-86v-228
c0 -23 5 -38 43 -38s43 15 43 38v228z" />
    <glyph glyph-name="dvT_P_LA" horiz-adv-x="1120" 
d="M-40 554v117h1200v-117h-82v-554h-140v326c0 23 -6 39 -39 39s-39 -16 -39 -39v-114h-140v114c0 23 -6 39 -39 39s-39 -16 -39 -39v-145c0 -33 6 -59 69 -59h60v-122h-69c-125 0 -181 39 -196 124c-20 -7 -43 -10 -68 -10c-116 0 -168 51 -168 158v95h-42
c-42 0 -53 -20 -53 -49v-150c0 -33 16 -38 49 -38v-130c-11 -1 -23 -2 -31 -2c-124 0 -158 53 -158 156v169c0 113 50 173 193 173h42v58h-310zM938 479v75h-528v-276c0 -22 8 -40 46 -40s46 17 46 40v53c0 103 56 163 174 163c71 0 99 -31 111 -55c12 24 39 54 98 54
c20 0 44 -5 53 -14z" />
    <glyph glyph-name="dvT_MA" horiz-adv-x="869" 
d="M690 0v328h-74v-120c0 -93 -50 -153 -173 -153s-173 60 -173 153v86c0 22 3 42 9 60c-6 8 -15 13 -28 13h-23c-42 0 -53 -20 -53 -49v-150c0 -33 16 -38 49 -38v-130c-11 -1 -23 -2 -31 -2c-124 0 -158 53 -158 156v169c0 113 50 173 193 173h29c65 0 109 -22 134 -54
c15 3 33 4 52 4h39v108h-522v117h949v-117h-82v-554h-137zM616 446h74v108h-74v-108zM482 213v115h-39c-33 0 -39 -16 -39 -39v-76c0 -23 6 -39 39 -39s39 16 39 39z" />
    <glyph glyph-name="dvT_M_YA" horiz-adv-x="1190" 
d="M-40 554v117h1270v-117h-82v-554h-140v109c-27 -15 -61 -23 -102 -23c-139 0 -213 71 -213 184v33c0 21 -9 25 -39 25h-38v-120c0 -93 -50 -153 -173 -153s-173 60 -173 153v86c0 22 3 42 9 60c-6 8 -15 13 -28 13h-23c-42 0 -53 -20 -53 -49v-150c0 -33 16 -38 49 -38
v-130c-11 -1 -23 -2 -31 -2c-124 0 -158 53 -158 156v169c0 113 50 173 193 173h29c65 0 109 -22 134 -54c15 3 33 4 52 4h39v108h-522zM806 500c0 29 -3 54 -39 54h-151v-108h53c59 0 96 -13 118 -38c14 10 19 26 19 51v41zM918 216c72 0 90 29 90 74v264h-76
c8 -14 10 -32 10 -54v-70c0 -77 -35 -118 -112 -122v-18c0 -45 17 -74 88 -74zM482 213v115h-39c-33 0 -39 -16 -39 -39v-76c0 -23 6 -39 39 -39s39 16 39 39z" />
    <glyph glyph-name="dvT_YA" horiz-adv-x="766" 
d="M-40 554v117h846v-117h-82v-554h-140v109c-27 -15 -61 -23 -102 -23c-139 0 -213 71 -213 184v54c-7 5 -16 9 -30 9h-11c-42 0 -53 -20 -53 -49v-116c0 -33 16 -38 49 -38v-130c-11 -1 -23 -2 -31 -2c-124 0 -158 53 -158 156v135c0 113 50 173 193 173h13
c62 0 107 -13 135 -37c4 8 6 20 6 34v41c0 29 -3 54 -39 54h-383zM494 216c72 0 90 29 90 74v264h-76c8 -14 10 -32 10 -54v-70c0 -77 -35 -118 -112 -122v-18c0 -45 17 -74 88 -74z" />
    <glyph glyph-name="dvT_R_YA" horiz-adv-x="813" 
d="M-40 554v117h893v-117h-82v-554h-140v109c-27 -15 -61 -23 -102 -23c-102 0 -170 39 -198 104c-19 -36 -43 -73 -71 -106l-55 -64h-173v4l244 273c14 15 39 42 39 53c0 9 -8 27 -71 27c-61 0 -78 -21 -78 -62v-53h-135v63c0 112 52 179 194 179c112 0 169 -31 193 -87
c8 9 11 23 11 42v41c0 29 -3 54 -39 54h-430zM541 216c72 0 90 29 90 74v264h-76c8 -14 10 -32 10 -54v-70c0 -77 -35 -118 -112 -122v-18c0 -45 17 -74 88 -74z" />
    <glyph glyph-name="dvT_LA" horiz-adv-x="895" 
d="M277 178v153c0 8 0 17 1 25c-5 0 -10 1 -16 1h-34c-42 0 -53 -20 -53 -49v-140c0 -33 16 -38 49 -38v-130c-11 -1 -23 -2 -31 -2c-124 0 -158 53 -158 156v159c0 113 50 173 193 173h37c32 0 60 -5 81 -15c27 15 62 23 105 23c71 0 99 -31 111 -55c12 24 39 54 98 54
c20 0 44 -5 53 -14v75h-753v117h975v-117h-82v-554h-140v326c0 23 -6 39 -39 39s-39 -16 -39 -39v-114h-140v114c0 23 -6 39 -39 39s-39 -16 -39 -39v-145c0 -33 6 -59 69 -59h60l1 -122h-69c-149 0 -201 55 -201 178z" />
    <glyph glyph-name="dvT_VA" horiz-adv-x="682" 
d="M640 554v-554h-140v63c-14 -6 -44 -11 -66 -11c-123 0 -164 56 -164 159v135c0 7 0 14 1 21h-43c-42 0 -53 -20 -53 -49v-150c0 -33 16 -38 49 -38v-130c-11 -1 -23 -2 -31 -2c-124 0 -158 53 -158 156v169c0 113 50 173 193 173h132c20 7 45 10 74 10c22 0 52 -5 66 -11
v59h-540v117h762v-117h-82zM507 214v131c0 30 -15 43 -50 43s-51 -13 -51 -43v-131c0 -30 16 -44 51 -44s50 14 50 44z" />
    <glyph glyph-name="dvT_SA" horiz-adv-x="886" 
d="M-39 554v117h965v-117h-82v-554h-140v262h-132c-22 -16 -55 -24 -87 -24c-25 0 -50 4 -68 14v-92c0 -23 6 -39 39 -39s39 16 39 39v20h137v-22c0 -103 -53 -163 -176 -163s-176 60 -176 163v188h-52c-42 0 -53 -20 -53 -49v-129c0 -33 16 -38 49 -38v-130
c-11 -1 -23 -2 -31 -2c-124 0 -158 53 -158 156v148c0 113 50 173 193 173h189v-76c0 -23 3 -38 36 -38s36 15 36 38v116c0 22 -5 39 -34 39h-494zM626 502v-120h78v172h-89c9 -12 11 -32 11 -52z" />
    <glyph glyph-name="dvT_S_NA" horiz-adv-x="1261" 
d="M1019 328v-113c0 -103 -44 -163 -167 -163s-169 60 -169 163v47h-111c-25 -16 -48 -24 -92 -24c-15 0 -50 5 -63 14v-92c0 -23 6 -39 39 -39s39 16 39 39v20h137v-22c0 -103 -53 -163 -176 -163s-176 60 -176 163v188h-52c-42 0 -53 -20 -53 -49v-129
c0 -33 16 -38 49 -38v-130c-11 -1 -23 -2 -31 -2c-124 0 -158 53 -158 156v148c0 113 50 173 193 173h189v-76c0 -23 3 -38 36 -38s36 15 36 38v116c0 22 -5 39 -34 39h-495v117h1341v-117h-82v-554h-140v362h-65c4 -9 5 -21 5 -34zM626 382h62c15 70 64 109 164 109h227v63
h-464c9 -13 11 -32 11 -52v-120zM888 216v107c0 23 -5 39 -36 39s-36 -16 -36 -39v-107c0 -23 5 -39 36 -39s36 16 36 39z" />
    <glyph glyph-name="dvT_S_YA" horiz-adv-x="1183" 
d="M-40 554v117h1263v-117h-82v-554h-140v109c-27 -15 -61 -23 -102 -23c-135 0 -209 67 -213 176h-114c-25 -16 -48 -24 -92 -24c-15 0 -50 5 -63 14v-92c0 -23 6 -39 39 -39s39 16 39 39v20h137v-22c0 -103 -53 -163 -176 -163s-176 60 -176 163v188h-52
c-42 0 -53 -20 -53 -49v-129c0 -33 16 -38 49 -38v-130c-11 -1 -23 -2 -31 -2c-124 0 -158 53 -158 156v148c0 113 50 173 193 173h189v-76c0 -23 3 -38 36 -38s36 15 36 38v116c0 22 -5 39 -34 39h-495zM799 500c0 29 -3 54 -39 54h-145c9 -13 11 -32 11 -52v-120h84
c68 0 89 13 89 63v55zM911 216c72 0 90 29 90 74v264h-76c8 -14 10 -32 10 -54v-84c0 -77 -35 -118 -112 -122v-4c0 -45 17 -74 88 -74z" />
    <glyph glyph-name="dvT_S_VA" horiz-adv-x="1115" 
d="M1073 554v-554h-140v63c-14 -6 -44 -11 -66 -11c-123 0 -164 56 -164 159v51h-131c-25 -16 -48 -24 -92 -24c-15 0 -50 5 -63 14v-92c0 -23 6 -39 39 -39s39 16 39 39v20h137v-22c0 -103 -53 -163 -176 -163s-176 60 -176 163v188h-52c-42 0 -53 -20 -53 -49v-129
c0 -33 16 -38 49 -38v-130c-11 -1 -23 -2 -31 -2c-124 0 -158 53 -158 156v148c0 113 50 173 193 173h189v-76c0 -23 3 -38 36 -38s36 15 36 38v116c0 22 -5 39 -34 39h-495v117h1195v-117h-82zM933 495v59h-318c9 -13 11 -32 11 -52v-120h79c10 80 58 124 162 124
c22 0 52 -5 66 -11zM940 214v131c0 30 -15 43 -50 43s-51 -13 -51 -43v-131c0 -30 16 -44 51 -44s50 14 50 44z" />
    <glyph glyph-name="dvTH_NA" horiz-adv-x="1000" 
d="M296 202c105 0 126 34 126 121v5c0 103 46 163 169 163h227v63h-396v117h618v-117h-82v-554h-140v362h-65c4 -9 5 -21 5 -34v-113c0 -103 -44 -163 -167 -163c-72 0 -118 21 -143 59c-40 -27 -91 -37 -151 -37c-161 0 -262 65 -262 217v131h133c57 0 72 19 72 61v32
c0 23 -5 36 -30 36s-30 -13 -30 -36v-34h-133v29c0 103 46 166 159 166s160 -57 160 -160v-58c0 -98 -51 -157 -177 -157h-11v-5c0 -65 19 -94 118 -94zM627 216v107c0 23 -5 39 -36 39s-36 -16 -36 -39v-107c0 -23 5 -39 36 -39s36 16 36 39z" />
    <glyph glyph-name="dvTH_YA" horiz-adv-x="913" 
d="M294 202c96 0 122 34 122 121v73h24c68 0 89 13 89 63v41c0 29 -3 54 -39 54h-87v117h550v-117h-82v-554h-140v109c-27 -15 -61 -23 -102 -23c-69 0 -122 17 -158 49c-41 -41 -102 -61 -176 -61c-160 0 -260 65 -260 217v131h133c57 0 72 19 72 61v32c0 23 -5 36 -30 36
s-30 -13 -30 -36v-34h-133v29c0 103 46 166 159 166s160 -57 160 -160v-58c0 -98 -51 -157 -177 -157h-11v-5c0 -65 26 -94 116 -94zM641 216c72 0 90 29 90 74v264h-76c8 -14 10 -32 10 -54v-70c0 -77 -35 -118 -112 -122v-18c0 -45 17 -74 88 -74z" />
    <glyph glyph-name="dvTH_VA" horiz-adv-x="843" 
d="M301 202c109 0 130 34 130 121v23c0 103 45 160 164 160c22 0 52 -5 66 -11v59h-243v117h465v-117h-82v-554h-140v63c-14 -6 -44 -11 -66 -11c-74 0 -118 20 -142 59c-40 -25 -91 -37 -151 -37c-165 0 -267 65 -267 217v131h133c57 0 72 19 72 61v32c0 23 -5 36 -30 36
s-30 -13 -30 -36v-34h-133v29c0 103 46 166 159 166s160 -57 160 -160v-58c0 -98 -51 -157 -177 -157h-11v-5c0 -65 20 -94 123 -94zM668 214v131c0 30 -15 43 -50 43s-51 -13 -51 -43v-131c0 -30 16 -44 51 -44s50 14 50 44z" />
    <glyph glyph-name="dvD_GA" horiz-adv-x="448" 
d="M42 217v119c0 120 58 159 181 159h32v59h-295v117h528v-117h-93v-186h-172c-35 0 -41 -13 -41 -37v-109c0 -24 6 -38 41 -38s41 13 41 38v56h140v-438h-140v235c-10 -7 -30 -11 -46 -13v-31c0 -113 -36 -151 -148 -151h-42v122h17c35 0 43 11 43 43v48
c-32 26 -46 68 -46 124z" />
    <glyph glyph-name="dvD_G_RA" horiz-adv-x="437" 
d="M270 -199v33c0 19 0 38 5 56h-2c-18 -39 -47 -77 -81 -120l-7 -9h-142l216 263v101c-13 -9 -46 -14 -58 -14v-16c0 -113 -36 -151 -148 -151h-42v122h17c35 0 43 11 43 43v46c-23 26 -34 63 -34 112v69c0 120 58 159 181 159h32v59h-290v117h517v-117h-87v-186h-172
c-35 0 -41 -13 -41 -37v-59c0 -24 6 -38 41 -38s41 13 41 38v26h140v-497h-129z" />
    <glyph glyph-name="dvD_GHA" horiz-adv-x="626" 
d="M452 65c-11 -7 -30 -11 -45 -13c-1 -114 -53 -156 -191 -156c-137 0 -191 52 -191 130v19c0 47 13 76 39 93c-23 16 -34 41 -34 82v18c0 80 44 142 152 142h51c14 86 72 115 178 115h32v59h-483v117h706v-117h-83v-186h-172c-35 0 -41 -13 -41 -37v-119
c0 -24 6 -38 41 -38s41 13 41 38v66h140v-288h-140v75zM230 207v65h-48c-30 0 -33 -14 -33 -34v-11c0 -20 3 -34 33 -34h20v-109h-25c-30 0 -33 -14 -33 -33v-10c0 -35 33 -39 73 -39c63 0 77 4 77 69c-44 24 -64 70 -64 136z" />
    <glyph glyph-name="dvD_DA" horiz-adv-x="432" 
d="M35 130v49c0 44 13 73 38 90c-25 18 -38 47 -38 91v10c0 100 48 139 161 139h52v45h-288v117h512v-117h-84v-152h-172c-35 0 -41 -13 -41 -36v-2c0 -23 6 -36 41 -36h113v-117h-113c-35 0 -41 -13 -41 -37v-39c0 -24 6 -38 41 -38s41 13 41 38v26h140v-228h-140v65
c-13 -9 -46 -14 -61 -14c-113 0 -161 53 -161 146z" />
    <glyph glyph-name="dvD_DHA" horiz-adv-x="621" 
d="M230 207v129c0 120 58 159 181 159h32v59h-483v117h701v-117h-78v-186h-172c-35 0 -41 -13 -41 -37v-119c0 -24 6 -38 41 -38s41 13 41 38v66h140v-288h-140v75c-11 -7 -30 -11 -45 -13c-1 -114 -53 -156 -191 -156c-137 0 -191 52 -191 130v19c0 47 13 76 39 93
c-23 16 -34 41 -34 82v18c0 80 44 142 152 142h19v-108h-19c-30 0 -33 -14 -33 -34v-11c0 -20 3 -34 33 -34h20v-109h-25c-30 0 -33 -14 -33 -33v-10c0 -35 33 -39 73 -39c63 0 77 4 77 69c-44 24 -64 70 -64 136z" />
    <glyph glyph-name="dvD_NA" horiz-adv-x="430" 
d="M30 217v119c0 120 58 159 181 159h32v59h-283v117h510v-117h-87v-186h-172c-35 0 -41 -13 -41 -37v-109c0 -24 6 -38 41 -38s41 13 41 38v56h140v-278h-140v93l-89 -80c-32 -29 -25 -54 -8 -72c15 -16 41 -21 41 -21l-86 -77s-43 -1 -77 35c-51 53 -41 130 44 201l19 16
c-46 18 -66 55 -66 122z" />
    <glyph glyph-name="dvD_BA" horiz-adv-x="472" 
d="M38 247v89c0 120 63 159 196 159h47v59h-321v117h552v-117h-91v-186h-187c-45 0 -56 -18 -56 -47v-59c0 -29 11 -48 56 -48s56 18 56 48v41h138v-303c-1 -109 -57 -170 -200 -170s-193 56 -193 164v59c0 48 15 79 37 98c-22 21 -34 52 -34 96zM214 113
c-9 0 -17 -1 -23 -3l99 -80v95c-24 -12 -61 -12 -76 -12zM166 4c0 -35 5 -60 62 -60c22 0 36 4 45 10l-107 87v-37z" />
    <glyph glyph-name="dvD_B_RA" horiz-adv-x="466" 
d="M36 -227l97 119c-69 16 -98 59 -98 142v49c0 48 15 79 37 98c-22 21 -34 52 -34 96v59c0 120 63 159 196 159h47v59h-321v117h546v-117h-85v-186h-187c-45 0 -56 -18 -56 -47v-29c0 -29 11 -48 56 -48s56 18 56 48v11h138v-484h-138v77h-1l-100 -123h-153zM214 143
c-8 0 -16 -1 -21 -2l97 -74v88c-24 -12 -61 -12 -76 -12zM166 44c0 -35 5 -60 62 -60c21 0 35 3 44 10l-106 81v-31z" />
    <glyph glyph-name="dvD_BHA" horiz-adv-x="588" 
d="M188 217v119c0 120 58 159 181 159h32v59h-441v117h668v-117h-87v-186h-172c-35 0 -41 -13 -41 -37v-109c0 -24 6 -38 41 -38s41 13 41 38v56h140v-278h-140v72l-133 -94l20 -28c38 -53 34 -108 -36 -157c-70 -51 -123 -37 -161 16l-6 9c-38 52 -33 107 37 157l22 16
l-27 38c-10 12 -18 20 -36 7c-19 -14 -15 -24 -6 -37l15 -19l-80 -58l-15 23c-41 58 -35 114 33 163c70 52 124 38 166 -21l29 -39l36 26c-55 21 -80 69 -80 143zM219 -102l-18 26l-23 -16c-18 -14 -15 -25 -6 -38l2 -3c9 -13 19 -20 38 -6c19 13 16 24 7 37z" />
    <glyph glyph-name="dvD_MA" horiz-adv-x="687" 
d="M508 86v468h-105v-186h-182c-45 0 -51 -18 -51 -42v-64c0 -24 6 -43 51 -43s51 18 51 43v30h133v-206h103zM30 262v69c0 120 58 164 191 164h42v59h-303v117h767v-117h-82v-731h-137v145h-104v-64h-132v206c-13 -9 -56 -12 -71 -12c-118 0 -171 61 -171 164z" />
    <glyph glyph-name="dvD_YA" horiz-adv-x="505" 
d="M545 671v-117h-82v-554h-130v44c-26 -19 -62 -30 -110 -30c-141 0 -188 63 -188 155v20c0 40 13 73 38 96c-28 21 -43 51 -43 90v18c0 74 29 98 83 107v54h-153v117h585zM323 554h-70v-127h-44c-33 0 -39 -16 -39 -39v-5c0 -23 6 -39 39 -39h44v-109h-39
c-33 0 -39 -16 -39 -39v-4c0 -41 17 -53 72 -53s76 10 76 62v353z" />
    <glyph glyph-name="dvD_VA" horiz-adv-x="436" 
d="M36 237v99c0 120 58 159 181 159h32v59h-289v117h516v-117h-87v-186h-172c-35 0 -41 -13 -41 -37v-89c0 -24 6 -38 41 -38s41 13 41 38v31h140v-258c0 -104 -59 -155 -182 -155s-175 46 -175 149v54c0 34 10 58 26 75c-21 21 -31 53 -31 99zM258 14v101
c-11 -6 -30 -10 -45 -11c-23 -2 -39 -9 -39 -36v-54c0 -25 5 -40 42 -40s42 15 42 40z" />
    <glyph glyph-name="dvDH_NA" horiz-adv-x="916" 
d="M338 255v73c0 103 46 163 169 163h227v63h-426v117h648v-117h-82v-554h-140v362h-65c4 -9 5 -21 5 -34v-113c0 -103 -44 -163 -167 -163c-58 0 -99 13 -126 38c-29 -20 -70 -33 -126 -33c-155 0 -220 58 -220 160v51c0 54 15 85 44 102c-25 19 -38 49 -38 95v50
c0 13 3 27 10 39h-91v117h269v-117h-13c-31 0 -35 -17 -35 -39v-45c0 -23 6 -39 39 -39h44v-129h-50c-33 0 -39 -16 -39 -39v-28c0 -41 31 -53 80 -53c64 0 83 16 83 73zM543 216v107c0 23 -5 39 -36 39s-36 -16 -36 -39v-107c0 -23 5 -39 36 -39s36 16 36 39z" />
    <glyph glyph-name="dvDH_N_YA" horiz-adv-x="1247" 
d="M344 255v73c0 103 56 163 169 163h179c75 0 129 -26 156 -79c11 10 15 25 15 47v41c0 29 -3 54 -39 54h-509v117h972v-117h-82v-554h-140v109c-27 -15 -61 -23 -102 -23c-139 0 -213 71 -213 184v71c-7 15 -20 24 -44 24h-33c5 -9 7 -23 7 -37v-113
c0 -103 -44 -163 -167 -163c-52 0 -93 14 -122 40c-30 -22 -72 -35 -133 -35c-155 0 -223 58 -223 160v51c0 54 15 85 44 102c-25 19 -38 49 -38 95v50c0 13 3 27 10 39h-91v117h269v-117h-13c-31 0 -35 -17 -35 -39v-45c0 -23 6 -39 39 -39h44v-129h-50
c-33 0 -39 -16 -39 -39v-28c0 -41 34 -53 83 -53c64 0 86 16 86 73zM975 216c72 0 90 29 90 74v264h-76c8 -14 10 -32 10 -54v-70c0 -77 -35 -118 -112 -122v-18c0 -45 17 -74 88 -74zM549 216v107c0 23 -5 39 -36 39s-36 -16 -36 -39v-107c0 -23 5 -39 36 -39s36 16 36 39z
" />
    <glyph glyph-name="dvDH_MA" horiz-adv-x="943" 
d="M344 255v39c0 93 50 152 173 152h39v108h-225v117h652v-117h-82v-554h-137v328h-74v-120c0 -93 -50 -153 -173 -153c-58 0 -100 13 -128 37c-32 -22 -75 -35 -131 -35c-155 0 -223 58 -223 160v51c0 54 15 85 44 102c-25 19 -38 49 -38 95v50c0 13 3 27 10 39h-91v117
h269v-117h-13c-31 0 -35 -17 -35 -39v-45c0 -23 6 -39 39 -39h44v-129h-50c-33 0 -39 -16 -39 -39v-28c0 -41 34 -53 83 -53c64 0 86 16 86 73zM690 446h74v108h-74v-108zM556 213v115h-39c-33 0 -39 -16 -39 -39v-76c0 -23 6 -39 39 -39s39 16 39 39z" />
    <glyph glyph-name="dvDH_YA" horiz-adv-x="841" 
d="M344 255v141h24c68 0 89 13 89 63v41c0 29 -3 54 -39 54h-87v117h550v-117h-82v-554h-140v109c-27 -15 -61 -23 -102 -23c-57 0 -103 12 -137 33c-33 -38 -86 -62 -162 -62c-155 0 -223 58 -223 160v51c0 54 15 85 44 102c-25 19 -38 49 -38 95v50c0 13 3 27 10 39h-91
v117h269v-117h-13c-31 0 -35 -17 -35 -39v-45c0 -23 6 -39 39 -39h44v-129h-50c-33 0 -39 -16 -39 -39v-28c0 -41 34 -53 83 -53c64 0 86 16 86 73zM569 216c72 0 90 29 90 74v264h-76c8 -14 10 -32 10 -54v-70c0 -77 -35 -118 -112 -122v-18c0 -45 17 -74 88 -74z" />
    <glyph glyph-name="dvDH_VA" horiz-adv-x="756" 
d="M344 255v91c0 103 45 160 164 160c22 0 52 -5 66 -11v59h-243v117h465v-117h-82v-554h-140v63c-14 -6 -44 -11 -66 -11c-58 0 -98 13 -124 37c-31 -20 -73 -32 -126 -32c-155 0 -223 58 -223 160v51c0 54 15 85 44 102c-25 19 -38 49 -38 95v50c0 13 3 27 10 39h-91v117
h269v-117h-13c-31 0 -35 -17 -35 -39v-45c0 -23 6 -39 39 -39h44v-129h-50c-33 0 -39 -16 -39 -39v-28c0 -41 34 -53 83 -53c64 0 86 16 86 73zM581 214v131c0 30 -15 43 -50 43s-51 -13 -51 -43v-131c0 -30 16 -44 51 -44s50 14 50 44z" />
    <glyph glyph-name="dvN_KA" horiz-adv-x="1036" 
d="M834 61v130c33 0 39 5 39 38v114c0 25 -7 42 -42 42s-42 -17 -42 -42v-343h-137v65c-13 -8 -38 -14 -60 -14c-110 0 -156 48 -156 151v146v14h-75c4 -9 5 -21 5 -34v-113c0 -103 -44 -163 -167 -163s-169 60 -169 163v113c0 103 46 163 169 163h312c22 9 49 14 81 14
c22 0 47 -6 60 -15v64h-692v117h1117v-117h-288v-64c15 9 41 15 61 15c110 0 156 -54 156 -157v-133c0 -103 -39 -156 -152 -156c-7 0 -15 1 -20 2zM611 166c35 0 42 17 42 42v135c0 25 -7 42 -42 42s-42 -17 -42 -42v-135c0 -25 7 -42 42 -42zM235 216v107
c0 23 -5 39 -36 39s-36 -16 -36 -39v-107c0 -23 5 -39 36 -39s36 16 36 39z" />
    <glyph glyph-name="dvN_K_SA" horiz-adv-x="1479" 
d="M-40 554v117h1559v-117h-82v-554h-140v256h-132c-22 -16 -55 -24 -87 -24c-25 0 -50 4 -68 14v-86c0 -23 6 -39 39 -39s39 16 39 39v14h137v-16c0 -103 -53 -163 -176 -163s-176 60 -176 163v179c0 27 -7 42 -42 42s-42 -17 -42 -42v-337h-137v65c-13 -8 -38 -14 -60 -14
c-110 0 -156 48 -156 151v146v14h-75c4 -9 5 -21 5 -34v-113c0 -103 -44 -163 -167 -163s-169 60 -169 163v113c0 103 46 163 169 163h312c22 9 49 14 81 14c22 0 47 -6 60 -15v64h-692zM1082 515c0 22 -5 39 -34 39h-259v-73c22 13 52 20 85 20c78 0 126 -35 126 -112
c0 -19 6 -34 41 -34s41 16 41 41v119zM1219 502v-126h78v178h-89c9 -12 11 -32 11 -52zM611 166c35 0 42 17 42 42v135c0 25 -7 42 -42 42s-42 -17 -42 -42v-135c0 -25 7 -42 42 -42zM235 216v107c0 23 -5 39 -36 39s-36 -16 -36 -39v-107c0 -23 5 -39 36 -39s36 16 36 39z
" />
    <glyph glyph-name="dvN_CA" horiz-adv-x="858" 
d="M576 332v-108c0 -30 10 -48 50 -48s50 18 50 48v330h-716v117h937v-117h-81v-554h-140v68c-22 -11 -52 -15 -73 -15c-115 0 -167 53 -167 166v107c0 17 3 29 10 39h-87c5 -9 7 -23 7 -37v-113c0 -103 -44 -163 -167 -163s-169 60 -169 163v113c0 103 46 163 169 163h441
v-120h-30c-29 0 -34 -17 -34 -39zM235 216v107c0 23 -5 39 -36 39s-36 -16 -36 -39v-107c0 -23 5 -39 36 -39s36 16 36 39z" />
    <glyph glyph-name="dvN_CHA" horiz-adv-x="952" 
d="M912 347v-172c0 -123 -57 -178 -238 -178c-175 0 -242 50 -242 163v23c0 41 15 73 44 91c-26 17 -39 47 -39 91h-78c5 -9 7 -23 7 -37v-113c0 -103 -44 -163 -167 -163s-169 60 -169 163v113c0 103 46 163 169 163h238v7c0 20 5 40 16 56h-493v117h1031v-117h-133v-75
c40 -21 54 -65 54 -132zM776 182v140c0 48 -20 64 -59 64c-38 0 -53 -9 -53 -9v114s24 10 64 10v53h-100c-49 0 -51 -25 -51 -59v-121c0 -23 6 -39 39 -39h77v-122h-72c-33 0 -48 -5 -48 -42v-2c0 -37 12 -47 101 -47s102 20 102 60zM235 216v107c0 23 -5 39 -36 39
s-36 -16 -36 -39v-107c0 -23 5 -39 36 -39s36 16 36 39z" />
    <glyph glyph-name="dvN_TTA" horiz-adv-x="819" 
d="M768 364h-155c-33 0 -37 -14 -37 -37v-168c0 -23 6 -39 39 -39s39 16 39 39v84h140v-85c0 -103 -56 -163 -179 -163s-179 60 -179 163v174c0 12 1 23 2 33h-79c5 -9 7 -23 7 -37v-113c0 -103 -44 -163 -167 -163s-169 60 -169 163v113c0 103 46 163 169 163h429v63h-668
v117h898v-117h-90v-190zM235 216v107c0 23 -5 39 -36 39s-36 -16 -36 -39v-107c0 -23 5 -39 36 -39s36 16 36 39z" />
    <glyph glyph-name="dvN_DDA" horiz-adv-x="828" 
d="M636 554h-676v117h908v-117h-92v-170h-174c-22 0 -29 -12 -29 -31v-2c0 -19 6 -31 29 -31h25c123 0 179 -46 179 -149v-23c0 -103 -56 -153 -184 -153s-186 49 -186 152v17h140v-11c0 -23 7 -38 45 -38s45 15 45 38v13c0 20 -6 37 -39 37h-25c-108 0 -169 38 -169 141v18
v3h-74c5 -9 7 -23 7 -37v-113c0 -103 -44 -163 -167 -163s-169 60 -169 163v113c0 103 46 163 169 163h312c24 9 55 13 91 13h34v50zM235 216v107c0 23 -5 39 -36 39s-36 -16 -36 -39v-107c0 -23 5 -39 36 -39s36 16 36 39z" />
    <glyph glyph-name="dvN_TA" horiz-adv-x="864" 
d="M625 130v-130c-11 -1 -22 -2 -30 -2c-124 0 -159 53 -159 156v169c0 15 1 29 3 42h-80c5 -9 7 -23 7 -37v-113c0 -103 -44 -163 -167 -163s-169 60 -169 163v113c0 103 46 163 169 163h358c15 3 33 5 52 5c28 0 57 -4 73 -11v69h-722v117h944v-117h-82v-554h-140v318
c0 29 -11 49 -53 49s-53 -20 -53 -49v-150c0 -33 16 -38 49 -38zM235 216v107c0 23 -5 39 -36 39s-36 -16 -36 -39v-107c0 -23 5 -39 36 -39s36 16 36 39z" />
    <glyph glyph-name="dvN_T_YA" horiz-adv-x="1167" 
d="M-40 554v117h1247v-117h-82v-554h-140v109c-27 -15 -61 -23 -102 -23c-139 0 -213 71 -213 184v83c-7 5 -16 9 -30 9h-11c-42 0 -53 -20 -53 -49v-145c0 -33 16 -38 49 -38v-130c-11 -1 -23 -2 -31 -2c-124 0 -158 53 -158 156v164c0 17 1 33 3 47h-80c5 -9 7 -23 7 -37
v-113c0 -103 -44 -163 -167 -163s-169 60 -169 163v113c0 103 46 163 169 163h443c73 0 114 -22 135 -57c4 9 6 20 6 35v31c0 29 -3 54 -39 54h-784zM895 216c72 0 90 29 90 74v264h-76c8 -14 10 -32 10 -54v-60c0 -77 -35 -118 -112 -122v-28c0 -45 17 -74 88 -74zM235 216
v107c0 23 -5 39 -36 39s-36 -16 -36 -39v-107c0 -23 5 -39 36 -39s36 16 36 39z" />
    <glyph glyph-name="dvN_T_RA" horiz-adv-x="917" 
d="M452 20v4l267 299c14 16 16 21 16 31c0 9 -8 23 -71 23c-61 0 -78 -21 -78 -62v-53h-135v63c0 13 1 25 2 37h-92c4 -9 5 -21 5 -34v-113c0 -103 -44 -163 -167 -163s-169 60 -169 163v113c0 103 46 163 169 163h353c26 9 56 13 93 13c48 0 82 -10 90 -19v69h-775v117h997
v-117h-82v-554h-131v26c0 51 4 131 10 167h-2c-17 -37 -49 -83 -72 -109l-55 -64h-173zM235 216v107c0 23 -5 39 -36 39s-36 -16 -36 -39v-107c0 -23 5 -39 36 -39s36 16 36 39z" />
    <glyph glyph-name="dvN_T_SA" horiz-adv-x="1287" 
d="M-40 554v117h1367v-117h-82v-554h-140v262h-132c-22 -16 -55 -24 -87 -24c-25 0 -50 4 -68 14v-92c0 -23 6 -39 39 -39s39 16 39 39v20h137v-22c0 -103 -53 -163 -176 -163s-176 60 -176 163v193h-52c-42 0 -53 -20 -53 -49v-134c0 -33 16 -38 49 -38v-130
c-11 -1 -23 -2 -31 -2c-124 0 -158 53 -158 156v153c0 17 1 33 3 47h-80c5 -9 7 -23 7 -37v-102c0 -103 -44 -163 -167 -163s-169 60 -169 163v102c0 103 46 163 169 163h619v-81c0 -23 3 -38 36 -38s36 15 36 38v116c0 22 -5 39 -34 39h-896zM1027 502v-120h78v172h-89
c9 -12 11 -32 11 -52zM235 216v96c0 23 -5 39 -36 39s-36 -16 -36 -39v-96c0 -23 5 -39 36 -39s36 16 36 39z" />
    <glyph glyph-name="dvN_THA" horiz-adv-x="999" 
d="M199 471h179c60 0 106 -16 136 -49h55c57 0 72 19 72 61v32c0 23 -5 36 -30 36s-30 -13 -30 -36v-18h-133v13c0 103 46 166 159 166s160 -57 160 -160v-58c0 -98 -51 -157 -177 -157h-11v-5c0 -65 25 -94 123 -94c94 0 115 34 115 121v348h222v-117h-82v-554h-140v103
c-34 -20 -81 -29 -142 -29c-160 0 -239 85 -239 217v30c-7 15 -20 24 -44 24h-33c5 -9 7 -23 7 -37v-93c0 -103 -44 -163 -167 -163s-169 60 -169 163v93c0 103 46 163 169 163zM385 671v-117h-425v117h425zM235 216v87c0 23 -5 39 -36 39s-36 -16 -36 -39v-87
c0 -23 5 -39 36 -39s36 16 36 39z" />
    <glyph glyph-name="dvN_TH_YA" horiz-adv-x="1314" 
d="M199 471h179c60 0 106 -16 136 -49h55c57 0 72 19 72 61v32c0 23 -5 36 -30 36s-30 -13 -30 -36v-18h-133v13c0 103 46 166 159 166s160 -57 160 -160v-58c0 -98 -51 -157 -177 -157h-11v-5c0 -65 26 -94 116 -94c96 0 122 34 122 121v73h24c68 0 89 13 89 63v41
c0 29 -3 54 -39 54h-87v117h550v-117h-82v-554h-140v109c-27 -15 -61 -23 -102 -23c-69 0 -122 17 -158 49c-41 -41 -102 -61 -176 -61c-160 0 -260 65 -260 217v30c-7 15 -20 24 -44 24h-33c5 -9 7 -23 7 -37v-93c0 -103 -44 -163 -167 -163s-169 60 -169 163v93
c0 103 46 163 169 163zM385 671v-117h-425v117h425zM1042 216c72 0 90 29 90 74v264h-76c8 -14 10 -32 10 -54v-70c0 -77 -35 -118 -112 -122v-18c0 -45 17 -74 88 -74zM235 216v87c0 23 -5 39 -36 39s-36 -16 -36 -39v-87c0 -23 5 -39 36 -39s36 16 36 39z" />
    <glyph glyph-name="dvN_TH_VA" horiz-adv-x="1244" 
d="M199 471h179c60 0 106 -16 136 -49h55c57 0 72 19 72 61v32c0 23 -5 36 -30 36s-30 -13 -30 -36v-18h-133v13c0 103 46 166 159 166s160 -57 160 -160v-58c0 -98 -51 -157 -177 -157h-11v-5c0 -65 20 -94 123 -94c109 0 130 34 130 121v23c0 103 45 160 164 160
c22 0 52 -5 66 -11v59h-243v117h465v-117h-82v-554h-140v63c-14 -6 -44 -11 -66 -11c-74 0 -118 20 -142 59c-40 -25 -91 -37 -151 -37c-165 0 -267 65 -267 217v30c-7 15 -20 24 -44 24h-33c5 -9 7 -23 7 -37v-93c0 -103 -44 -163 -167 -163s-169 60 -169 163v93
c0 103 46 163 169 163zM385 671v-117h-425v117h425zM1069 214v131c0 30 -15 43 -50 43s-51 -13 -51 -43v-131c0 -30 16 -44 51 -44s50 14 50 44zM235 216v87c0 23 -5 39 -36 39s-36 -16 -36 -39v-87c0 -23 5 -39 36 -39s36 16 36 39z" />
    <glyph glyph-name="dvN_DA" horiz-adv-x="836" 
d="M436 217v119c0 9 0 18 1 26h-77c4 -9 5 -21 5 -34v-113c0 -103 -44 -163 -167 -163s-169 60 -169 163v113c0 103 46 163 169 163h359c18 3 38 4 60 4h32v59h-689v117h916v-117h-87v-186h-172c-35 0 -41 -13 -41 -37v-109c0 -24 6 -38 41 -38s41 13 41 38v56h140v-278
h-140v73c-19 -9 -46 -12 -61 -12c-113 0 -161 53 -161 156zM234 216v107c0 23 -5 39 -36 39s-36 -16 -36 -39v-107c0 -23 5 -39 36 -39s36 16 36 39z" />
    <glyph glyph-name="dvN_D_RA" horiz-adv-x="844" 
d="M427 -63l88 158c-49 17 -71 55 -71 124v117c0 9 0 18 1 26h-84c4 -9 5 -21 5 -34v-113c0 -103 -44 -163 -167 -163s-169 60 -169 163v113c0 103 46 163 169 163h366c18 3 38 4 60 4h32v59h-697v117h924v-117h-87v-186h-172c-35 0 -41 -13 -41 -37v-107
c0 -24 6 -38 41 -38s41 13 41 38v54h140v-278h-140v97l-89 -160h-150zM235 216v107c0 23 -5 39 -36 39s-36 -16 -36 -39v-107c0 -23 5 -39 36 -39s36 16 36 39z" />
    <glyph glyph-name="dvN_D_VA" horiz-adv-x="843" 
d="M443 237v99c0 9 0 18 1 26h-83c4 -9 5 -21 5 -34v-113c0 -103 -44 -163 -167 -163s-169 60 -169 163v113c0 103 46 163 169 163h365c18 3 38 4 60 4h32v59h-696v117h923v-117h-87v-186h-172c-35 0 -41 -13 -41 -37v-89c0 -24 6 -38 41 -38s41 13 41 38v31h140v-258
c0 -104 -59 -155 -182 -155s-175 46 -175 149v54c0 34 10 58 26 75c-21 21 -31 53 -31 99zM235 216v107c0 23 -5 39 -36 39s-36 -16 -36 -39v-107c0 -23 5 -39 36 -39s36 16 36 39zM665 14v101c-11 -6 -30 -10 -45 -11c-23 -2 -39 -9 -39 -36v-54c0 -25 5 -40 42 -40
s42 15 42 40z" />
    <glyph glyph-name="dvN_DHA" horiz-adv-x="904" 
d="M663 302h-50c-33 0 -39 -16 -39 -39v-28c0 -41 27 -53 72 -53s76 12 76 54v435h222v-117h-82v-554h-140v80c-25 -15 -58 -23 -100 -23c-131 0 -188 68 -188 160v51c0 46 11 76 33 94h-107c4 -9 5 -21 5 -34v-113c0 -103 -44 -163 -167 -163s-169 60 -169 163v113
c0 103 46 163 169 163h242v24c0 13 3 27 10 39h-490v117h692v-117h-33c-33 0 -39 -16 -39 -39v-45c0 -23 6 -39 39 -39h44v-129zM234 216v107c0 23 -5 39 -36 39s-36 -16 -36 -39v-107c0 -23 5 -39 36 -39s36 16 36 39z" />
    <glyph glyph-name="dvN_DH_YA" horiz-adv-x="1240" 
d="M743 255v141h24c68 0 89 13 89 63v41c0 29 -3 54 -39 54h-107v117h570v-117h-82v-554h-140v109c-27 -15 -61 -23 -102 -23c-57 0 -103 12 -137 33c-33 -38 -86 -62 -162 -62c-155 0 -223 58 -223 160v51c0 46 11 76 33 94h-106c4 -9 5 -21 5 -34v-113
c0 -103 -44 -163 -167 -163s-169 60 -169 163v113c0 103 46 163 169 163h241v24c0 13 3 27 10 39h-490v117h668v-117h-13c-31 0 -35 -17 -35 -39v-45c0 -23 6 -39 39 -39h44v-129h-50c-33 0 -39 -16 -39 -39v-28c0 -41 34 -53 83 -53c64 0 86 16 86 73zM968 216
c72 0 90 29 90 74v264h-76c8 -14 10 -32 10 -54v-70c0 -77 -35 -118 -112 -122v-18c0 -45 17 -74 88 -74zM235 216v107c0 23 -5 39 -36 39s-36 -16 -36 -39v-107c0 -23 5 -39 36 -39s36 16 36 39z" />
    <glyph glyph-name="dvN_DH_RA" horiz-adv-x="904" 
d="M408 -50v2l131 151c-72 18 -105 62 -105 132v33c0 46 11 76 33 94h-106c4 -9 5 -21 5 -34v-113c0 -103 -44 -163 -167 -163s-169 60 -169 163v113c0 103 46 163 169 163h241v24c0 13 3 27 10 39h-490v117h692v-117h-33c-33 0 -39 -16 -39 -39v-45c0 -23 6 -39 39 -39h44
v-129h-50c-33 0 -39 -16 -39 -39v-10c0 -41 27 -53 72 -53s76 10 76 62v409h222v-117h-82v-554h-140v112l-141 -162h-173zM235 216v107c0 23 -5 39 -36 39s-36 -16 -36 -39v-107c0 -23 5 -39 36 -39s36 16 36 39z" />
    <glyph glyph-name="dvN_DH_VA" horiz-adv-x="1155" 
d="M743 255v91c0 103 45 160 164 160c22 0 52 -5 66 -11v59h-263v117h485v-117h-82v-554h-140v63c-14 -6 -44 -11 -66 -11c-58 0 -98 13 -124 37c-31 -20 -73 -32 -126 -32c-155 0 -223 58 -223 160v51c0 46 11 76 33 94h-106c4 -9 5 -21 5 -34v-113
c0 -103 -44 -163 -167 -163s-169 60 -169 163v113c0 103 46 163 169 163h241v24c0 13 3 27 10 39h-490v117h668v-117h-13c-31 0 -35 -17 -35 -39v-45c0 -23 6 -39 39 -39h44v-129h-50c-33 0 -39 -16 -39 -39v-28c0 -41 34 -53 83 -53c64 0 86 16 86 73zM980 214v131
c0 30 -15 43 -50 43s-51 -13 -51 -43v-131c0 -30 16 -44 51 -44s50 14 50 44zM235 216v107c0 23 -5 39 -36 39s-36 -16 -36 -39v-107c0 -23 5 -39 36 -39s36 16 36 39z" />
    <glyph glyph-name="dvN_NA" horiz-adv-x="1010" 
d="M768 328v-113c0 -103 -44 -163 -167 -163s-169 60 -169 163v113c0 12 1 23 2 34h-73c4 -9 5 -21 5 -34v-113c0 -103 -44 -163 -167 -163s-169 60 -169 163v113c0 103 46 163 169 163h629v63h-868v117h1090v-117h-82v-554h-140v362h-65c4 -9 5 -21 5 -34zM235 216v107
c0 23 -5 39 -36 39s-36 -16 -36 -39v-107c0 -23 5 -39 36 -39s36 16 36 39zM637 216v107c0 23 -5 39 -36 39s-36 -16 -36 -39v-107c0 -23 5 -39 36 -39s36 16 36 39z" />
    <glyph glyph-name="dvN_N_YA" horiz-adv-x="1335" 
d="M-40 554v117h1415v-117h-82v-554h-140v109c-27 -15 -61 -23 -102 -23c-139 0 -213 71 -213 184v71c-7 15 -20 24 -44 24h-33c5 -9 7 -23 7 -37v-113c0 -103 -44 -163 -167 -163s-169 60 -169 163v113c0 12 1 23 2 34h-73c4 -9 5 -21 5 -34v-113
c0 -103 -44 -163 -167 -163s-169 60 -169 163v113c0 103 46 163 169 163h581c75 0 129 -26 156 -79c11 10 15 25 15 47v41c0 29 -3 54 -39 54h-952zM1063 216c72 0 90 29 90 74v264h-76c8 -14 10 -32 10 -54v-70c0 -77 -35 -118 -112 -122v-18c0 -45 17 -74 88 -74zM235 216
v107c0 23 -5 39 -36 39s-36 -16 -36 -39v-107c0 -23 5 -39 36 -39s36 16 36 39zM637 216v107c0 23 -5 39 -36 39s-36 -16 -36 -39v-107c0 -23 5 -39 36 -39s36 16 36 39z" />
    <glyph glyph-name="dvN_PA" horiz-adv-x="842" 
d="M660 0v126c-19 -8 -45 -12 -70 -12c-118 0 -156 55 -156 158v90h-74c4 -9 5 -21 5 -34v-113c0 -103 -44 -163 -167 -163s-169 60 -169 163v113c0 103 46 163 169 163h236v63h-474v117h922v-117h-82v-554h-140zM660 554h-86v-276c0 -23 7 -40 43 -40s43 17 43 40v276z
M234 216v107c0 23 -5 39 -36 39s-36 -16 -36 -39v-107c0 -23 5 -39 36 -39s36 16 36 39z" />
    <glyph glyph-name="dvN_P_RA" horiz-adv-x="857" 
d="M417 0l104 187c-55 19 -72 62 -72 134v41h-88c4 -9 5 -21 5 -34v-113c0 -103 -44 -163 -167 -163s-169 60 -169 163v113c0 103 46 163 169 163h250v63h-489v117h937v-117h-82v-554h-140v189l-105 -189h-153zM675 554h-86v-228c0 -23 5 -38 43 -38s43 15 43 38v228z
M235 216v107c0 23 -5 39 -36 39s-36 -16 -36 -39v-107c0 -23 5 -39 36 -39s36 16 36 39z" />
    <glyph glyph-name="dvN_PHA" horiz-adv-x="1040" 
d="M834 59v130c30 0 36 9 36 39v105c0 23 -6 39 -39 39s-39 -16 -39 -39v-333h-140v111c-17 -7 -42 -11 -59 -11c-113 0 -159 53 -159 156v106h-74c4 -9 5 -21 5 -34v-113c0 -103 -44 -163 -167 -163s-169 60 -169 163v113c0 103 46 163 169 163h236v63h-474v117h1120v-117
h-288v-66c17 8 41 13 59 13c113 0 159 -60 159 -163v-124c0 -103 -46 -156 -159 -156c-6 0 -11 0 -17 1zM652 554h-78v-293c0 -23 6 -38 39 -38s39 15 39 38v293zM234 216v107c0 23 -5 39 -36 39s-36 -16 -36 -39v-107c0 -23 5 -39 36 -39s36 16 36 39z" />
    <glyph glyph-name="dvN_PH_RA" horiz-adv-x="1050" 
d="M410 0l100 179c-46 18 -66 54 -66 122v61h-84c4 -9 5 -21 5 -34v-113c0 -103 -44 -163 -167 -163s-169 60 -169 163v113c0 103 46 163 169 163h246v63h-484v117h1130v-117h-288v-66c17 8 41 13 59 13c113 0 159 -60 159 -163v-124c0 -103 -46 -156 -159 -156
c-6 0 -11 0 -17 1v130c30 0 36 9 36 39v105c0 23 -6 39 -39 39s-39 -16 -39 -39v-333h-140v178l-99 -178h-153zM662 554h-78v-248c0 -23 6 -38 39 -38s39 15 39 38v248zM234 216v107c0 23 -5 39 -36 39s-36 -16 -36 -39v-107c0 -23 5 -39 36 -39s36 16 36 39z" />
    <glyph glyph-name="dvN_BHA" horiz-adv-x="1048" 
d="M199 449h179c54 0 96 -12 125 -37c27 14 62 22 106 22h39v74c0 23 -3 39 -36 39s-36 -16 -36 -39v-15h-140v20c0 103 53 163 176 163s176 -60 176 -163v-79h78v237h222v-117h-82v-554h-140v316h-84v-109c0 -93 -50 -153 -173 -153s-173 60 -173 153v75c0 5 0 11 1 16
c-7 16 -21 25 -45 25h-33c5 -9 7 -23 7 -37v-71c0 -103 -44 -163 -167 -163s-169 60 -169 163v71c0 103 46 163 169 163zM375 671v-117h-415v117h415zM235 216v65c0 23 -5 39 -36 39s-36 -16 -36 -39v-65c0 -23 5 -39 36 -39s36 16 36 39zM648 212v104h-39
c-33 0 -39 -16 -39 -39v-65c0 -23 6 -39 39 -39s39 16 39 39z" />
    <glyph glyph-name="dvN_BH_YA" horiz-adv-x="1357" 
d="M199 455h179c55 0 98 -14 128 -41c26 13 60 20 103 20h39v74c0 23 -3 39 -36 39s-36 -16 -36 -39v-16h-140v21c0 103 53 163 176 163s176 -60 176 -163v-79h42c54 0 92 -9 117 -29c19 9 26 25 26 54v41c0 29 -3 54 -39 54h-94v117h557v-117h-82v-554h-140v109
c-27 -15 -61 -23 -102 -23c-139 0 -213 71 -213 184v42c-10 3 -22 4 -38 4h-40v-109c0 -93 -50 -153 -173 -153s-173 60 -173 153v75c0 7 0 14 1 21c-6 17 -20 26 -45 26h-33c5 -9 7 -23 7 -37v-77c0 -103 -44 -163 -167 -163s-169 60 -169 163v77c0 103 46 163 169 163z
M375 671v-117h-415v117h415zM1085 216c72 0 90 29 90 74v264h-76c8 -14 10 -32 10 -54v-70c0 -77 -35 -118 -112 -122v-18c0 -45 17 -74 88 -74zM235 216v71c0 23 -5 39 -36 39s-36 -16 -36 -39v-71c0 -23 5 -39 36 -39s36 16 36 39zM648 212v104h-39c-33 0 -39 -16 -39 -39
v-65c0 -23 6 -39 39 -39s39 16 39 39z" />
    <glyph glyph-name="dvN_BH_VA" horiz-adv-x="1276" 
d="M199 455h179c55 0 98 -14 128 -41c26 13 60 20 103 20h39v74c0 23 -3 39 -36 39s-36 -16 -36 -39v-16h-140v21c0 103 53 163 176 163s176 -60 176 -163v-79h92c23 47 69 72 148 72c22 0 52 -5 66 -11v59h-247v117h469v-117h-82v-554h-140v63c-14 -6 -44 -11 -66 -11
c-123 0 -164 56 -164 159v105h-82v-109c0 -93 -50 -153 -173 -153s-173 60 -173 153v75c0 7 0 14 1 21c-6 17 -20 26 -45 26h-33c5 -9 7 -23 7 -37v-77c0 -103 -44 -163 -167 -163s-169 60 -169 163v77c0 103 46 163 169 163zM375 671v-117h-415v117h415zM1101 214v131
c0 30 -15 43 -50 43s-51 -13 -51 -43v-131c0 -30 16 -44 51 -44s50 14 50 44zM235 216v71c0 23 -5 39 -36 39s-36 -16 -36 -39v-71c0 -23 5 -39 36 -39s36 16 36 39zM648 212v104h-39c-33 0 -39 -16 -39 -39v-65c0 -23 6 -39 39 -39s39 16 39 39z" />
    <glyph glyph-name="dvN_MA" horiz-adv-x="1033" 
d="M199 471h179c56 0 100 -14 130 -43c26 12 58 18 99 18h39v108h-686v117h1113v-117h-82v-554h-137v328h-74v-120c0 -93 -50 -153 -173 -153s-173 60 -173 153v86c0 10 1 19 2 28c-7 15 -21 23 -44 23h-33c5 -9 7 -23 7 -37v-93c0 -103 -44 -163 -167 -163
s-169 60 -169 163v93c0 103 46 163 169 163zM780 446h74v108h-74v-108zM235 216v87c0 23 -5 39 -36 39s-36 -16 -36 -39v-87c0 -23 5 -39 36 -39s36 16 36 39zM646 213v115h-39c-33 0 -39 -16 -39 -39v-76c0 -23 6 -39 39 -39s39 16 39 39z" />
    <glyph glyph-name="dvN_M_YA" horiz-adv-x="1354" 
d="M199 471h179c56 0 100 -14 130 -43c26 12 58 18 99 18h39v108h-686v117h1434v-117h-82v-554h-140v109c-27 -15 -61 -23 -102 -23c-139 0 -213 71 -213 184v33c0 21 -9 25 -39 25h-38v-120c0 -93 -50 -153 -173 -153s-173 60 -173 153v86c0 10 1 19 2 28
c-7 15 -21 23 -44 23h-33c5 -9 7 -23 7 -37v-93c0 -103 -44 -163 -167 -163s-169 60 -169 163v93c0 103 46 163 169 163zM970 500c0 29 -3 54 -39 54h-151v-108h53c59 0 96 -13 118 -38c14 10 19 26 19 51v41zM1082 216c72 0 90 29 90 74v264h-76c8 -14 10 -32 10 -54v-70
c0 -77 -35 -118 -112 -122v-18c0 -45 17 -74 88 -74zM235 216v87c0 23 -5 39 -36 39s-36 -16 -36 -39v-87c0 -23 5 -39 36 -39s36 16 36 39zM646 213v115h-39c-33 0 -39 -16 -39 -39v-76c0 -23 6 -39 39 -39s39 16 39 39z" />
    <glyph glyph-name="dvN_YA" horiz-adv-x="933" 
d="M199 491h179c75 0 129 -26 156 -79c11 10 15 25 15 47v41c0 29 -3 54 -39 54h-550v117h1013v-117h-82v-554h-140v109c-27 -15 -61 -23 -102 -23c-139 0 -213 71 -213 184v71c-7 15 -20 24 -44 24h-33c5 -9 7 -23 7 -37v-113c0 -103 -44 -163 -167 -163s-169 60 -169 163
v113c0 103 46 163 169 163zM661 216c72 0 90 29 90 74v264h-76c8 -14 10 -32 10 -54v-70c0 -77 -35 -118 -112 -122v-18c0 -45 17 -74 88 -74zM235 216v107c0 23 -5 39 -36 39s-36 -16 -36 -39v-107c0 -23 5 -39 36 -39s36 16 36 39z" />
    <glyph glyph-name="dvN_VA" horiz-adv-x="848" 
d="M806 554v-554h-140v63c-14 -6 -44 -11 -66 -11c-123 0 -164 56 -164 159v135v16h-75c4 -9 5 -21 5 -34v-113c0 -103 -44 -163 -167 -163s-169 60 -169 163v113c0 103 46 163 169 163h313c23 10 52 15 88 15c22 0 52 -5 66 -11v59h-706v117h928v-117h-82zM673 214v131
c0 30 -15 43 -50 43s-51 -13 -51 -43v-131c0 -30 16 -44 51 -44s50 14 50 44zM235 216v107c0 23 -5 39 -36 39s-36 -16 -36 -39v-107c0 -23 5 -39 36 -39s36 16 36 39z" />
    <glyph glyph-name="dvN_SA" horiz-adv-x="1044" 
d="M575 491v-92c0 -23 3 -38 36 -38s36 15 36 38v116c0 22 -5 39 -34 39h-653v117h1124v-117h-82v-554h-140v262h-132c-22 -16 -55 -24 -87 -24c-25 0 -50 4 -68 14v-92c0 -23 6 -39 39 -39s39 16 39 39v20h137v-22c0 -103 -53 -163 -176 -163s-176 60 -176 163v204h-77
c4 -9 5 -21 5 -34v-113c0 -103 -44 -163 -167 -163s-169 60 -169 163v113c0 103 46 163 169 163h376zM784 502v-120h78v172h-89c9 -12 11 -32 11 -52zM235 216v107c0 23 -5 39 -36 39s-36 -16 -36 -39v-107c0 -23 5 -39 36 -39s36 16 36 39z" />
    <glyph glyph-name="dvN_S_TTA" horiz-adv-x="1246" 
d="M575 491v-92c0 -23 3 -38 36 -38s36 15 36 38v116c0 22 -5 39 -34 39h-653v117h1325v-117h-90v-190h-155c-33 0 -37 -14 -37 -37v-168c0 -23 6 -39 39 -39s39 16 39 39v84h140v-85c0 -103 -56 -163 -179 -163s-179 60 -179 163v104h-133c-25 -16 -48 -24 -92 -24
c-15 0 -50 5 -63 14v-92c0 -23 6 -39 39 -39s39 16 39 39v20h137v-22c0 -103 -53 -163 -176 -163s-176 60 -176 163v204h-77c4 -9 5 -21 5 -34v-113c0 -103 -44 -163 -167 -163s-169 60 -169 163v113c0 103 46 163 169 163h376zM1055 491v63h-282c9 -13 11 -32 11 -52v-120
h83c15 77 70 109 173 109h15zM235 216v107c0 23 -5 39 -36 39s-36 -16 -36 -39v-107c0 -23 5 -39 36 -39s36 16 36 39z" />
    </font>
</defs>
</svg>
