<?xml version="1.0" standalone="no"?>
<!DOCTYPE svg PUBLIC "-//W3C//DTD SVG 1.1//EN" "http://www.w3.org/Graphics/SVG/1.1/DTD/svg11.dtd" >
<svg xmlns="http://www.w3.org/2000/svg" xmlns:xlink="http://www.w3.org/1999/xlink" version="1.1">
<metadata>
Created by FontForge 20201107 at Wed Jan 27 18:42:48 2021
 By Rahul
Copyright 2012-2021 Indian Type Foundry. All rights reserved.
</metadata>
<defs>
<font id="AkhandDevanagari-Extrabold" horiz-adv-x="220" >
  <font-face 
    font-family="Akhand Devanagari"
    font-weight="800"
    font-stretch="normal"
    units-per-em="1000"
    panose-1="0 0 0 0 0 0 0 0 0 0"
    ascent="800"
    descent="-200"
    x-height="584"
    cap-height="687"
    bbox="-515 -539 1913 1011"
    underline-thickness="50"
    underline-position="-100"
    unicode-range="U+000D-25CC"
  />
<missing-glyph horiz-adv-x="510" 
d="M0 0v701h509l1 -701h-510zM54 649v-597h400v597h-400zM254 302h-4l-100 -209h-60l134 260l-134 255h60l105 -206h4l100 206h60l-135 -261l135 -254h-60z" />
    <glyph glyph-name=".notdef" horiz-adv-x="510" 
d="M0 0v701h509l1 -701h-510zM54 649v-597h400v597h-400zM254 302h-4l-100 -209h-60l134 260l-134 255h60l105 -206h4l100 206h60l-135 -261l135 -254h-60z" />
    <glyph glyph-name="space" unicode=" " horiz-adv-x="187" 
 />
    <glyph glyph-name="dvA" unicode="&#x905;" horiz-adv-x="627" 
d="M201 562c-42 0 -51 -21 -51 -49v-23h-116v25c0 97 51 155 167 155c117 0 167 -58 167 -155v-47c0 -46 -11 -83 -45 -104c18 -11 30 -27 38 -49h97v350h204v-99h-86v-566h-118v213h-90v-31c0 -89 -50 -147 -167 -147c-116 0 -167 58 -167 147v52h116v-46
c0 -25 9 -46 51 -46c44 0 51 21 51 46v72c0 28 -6 49 -50 49h-46v109h46c44 1 50 22 50 50v45c0 28 -9 49 -51 49z" />
    <glyph glyph-name="dvAA" unicode="&#x906;" horiz-adv-x="847" 
d="M201 562c-42 0 -51 -21 -51 -49v-23h-116v25c0 97 51 155 167 155c117 0 167 -58 167 -155v-47c0 -46 -11 -83 -45 -104c18 -11 30 -27 38 -49h97v350h424v-99h-86v-566h-118v566h-102v-566h-118v213h-90v-31c0 -89 -50 -147 -167 -147c-116 0 -167 58 -167 147v52h116
v-46c0 -25 9 -46 51 -46c44 0 51 21 51 46v72c0 28 -6 49 -50 49h-46v109h46c44 1 50 22 50 50v45c0 28 -9 49 -51 49z" />
    <glyph glyph-name="dvI" unicode="&#x907;" horiz-adv-x="413" 
d="M39 174h116v-18c0 -30 13 -47 57 -47c45 0 58 17 58 47v22c0 26 -10 46 -52 46h-25c-105 0 -163 39 -163 135v9c0 97 54 136 163 136h50v62h-278v99h483v-99h-87v-164h-168c-35 0 -44 -13 -44 -38v-3c0 -24 10 -37 44 -37h25c116 0 170 -45 170 -142v-30
c0 -97 -41 -149 -160 -149c-24 0 -59 7 -73 20v-95h-116v246z" />
    <glyph glyph-name="dvII" unicode="&#x908;" horiz-adv-x="413" 
d="M39 174h116v-18c0 -30 13 -47 57 -47c45 0 58 17 58 47v22c0 26 -10 46 -52 46h-25c-105 0 -163 39 -163 135v9c0 97 54 136 163 136h50v62h-278v99h277c-9 20 -28 59 -31 100c-5 105 65 134 138 134c48 0 68 -5 71 -5v-103c-5 1 -24 1 -30 1c-40 0 -65 -11 -60 -52
c3 -24 17 -55 27 -75h91v-99h-87v-164h-168c-35 0 -44 -13 -44 -38v-3c0 -24 10 -37 44 -37h25c116 0 170 -45 170 -142v-30c0 -97 -41 -149 -160 -149c-24 0 -59 7 -73 20v-95h-116v246z" />
    <glyph glyph-name="dvU" unicode="&#x909;" horiz-adv-x="417" 
d="M-35 566v99h486v-99h-96c9 -13 13 -28 13 -46v-62c0 -50 -13 -85 -44 -101c31 -18 44 -54 44 -103v-105c0 -96 -53 -154 -170 -154c-116 0 -170 58 -170 154v65h119v-62c0 -28 9 -50 51 -50c44 0 52 22 52 50v102c0 28 -7 49 -51 49h-64v109h64c44 0 51 22 51 50v54
c0 28 -9 50 -52 50h-233z" />
    <glyph glyph-name="dvUU" unicode="&#x90a;" horiz-adv-x="604" 
d="M412 0v109c42 -1 52 11 52 47v85c0 36 -13 56 -55 56h-50c7 -17 10 -37 10 -59v-89c0 -96 -53 -154 -170 -154c-116 0 -170 58 -170 154v65h118v-62c0 -28 10 -50 52 -50c44 0 52 22 52 50v102c0 28 -7 49 -51 49h-64v109h64c44 0 51 22 51 50v54c0 28 -10 50 -52 50
h-234v99h674v-99h-284c10 -13 14 -28 14 -46v-47c0 -31 -7 -58 -20 -79c22 6 51 12 80 12c99 0 153 -47 153 -143v-111c0 -99 -50 -154 -144 -154c-12 0 -26 2 -26 2z" />
    <glyph glyph-name="dvvR" unicode="&#x90b;" horiz-adv-x="711" 
d="M11 14l-1 3l268 286c11 14 13 24 13 35c0 23 -12 49 -80 49c-67 0 -86 -24 -86 -68v-62h-113v70c0 106 50 169 184 169c49 0 84 -10 95 -23v93h-326v99h782v-99h-338v-138h99c43 0 53 16 53 47v20h114v-313h-52c-44 0 -52 -28 -52 -62c0 -33 13 -61 55 -61h75v-95
c-13 -1 -64 -3 -90 -3c-99 0 -155 53 -155 154c0 85 40 136 110 142v77c-20 -11 -46 -15 -78 -15h-79v-319h-111v53c0 44 3 112 7 144h-1c-16 -31 -51 -78 -71 -100l-75 -83h-147z" />
    <glyph glyph-name="dvvRR" unicode="&#x960;" horiz-adv-x="723" 
d="M11 14l-1 3l268 286c11 14 13 24 13 35c0 23 -12 49 -80 49c-67 0 -86 -24 -86 -68v-62h-113v70c0 106 50 169 184 169c49 0 84 -10 95 -23v93h-326v99h793v-99h-349v-138h115c44 0 53 16 53 47v20h115v-306h-60c-37 0 -45 -19 -45 -50s14 -48 48 -48h39v-99h-42
c-28 0 -45 -6 -45 -47c0 -40 17 -47 45 -47h86v-100h-98c-105 0 -150 46 -150 133c0 47 12 81 34 103c-21 23 -32 56 -32 100c0 85 40 124 110 130v70c-20 -11 -46 -15 -78 -15h-95v-319h-111v53c0 44 3 112 7 144h-1c-16 -31 -51 -78 -71 -100l-75 -83h-147z" />
    <glyph glyph-name="dvvL" unicode="&#x90c;" horiz-adv-x="640" 
d="M36 171v165c0 97 56 154 164 154c62 0 96 -28 110 -52c20 29 47 51 104 51c25 0 46 -6 56 -17v94h-505v99h710v-99h-86v-531h-96c-31 0 -48 -10 -48 -49v-2c0 -41 18 -48 46 -48h99v-109h-99c-112 0 -164 59 -164 158c0 92 45 151 143 158v189c0 29 -8 49 -49 49
s-50 -20 -50 -48v-115h-118v115c0 28 -9 48 -50 48s-49 -20 -49 -49v-154c0 -39 9 -69 71 -69h9l-9 -109c-132 0 -189 55 -189 171z" />
    <glyph glyph-name="dvvLL" unicode="&#x961;" horiz-adv-x="640" 
d="M36 171v165c0 97 56 154 164 154c62 0 96 -28 110 -52c20 29 47 51 104 51c25 0 46 -6 56 -17v94h-505v99h710v-99h-86v-422h-96c-31 0 -48 -6 -48 -39v-2c0 -35 18 -38 46 -38h72v-101h-63c-18 0 -36 0 -36 -22c-14 0 -18 -7 -18 -19c0 -35 18 -38 46 -38h101v-108h-101
c-112 0 -164 50 -164 147c0 38 10 68 29 90c-20 21 -30 51 -30 90c0 90 45 135 143 140v88c0 29 -8 49 -49 49s-50 -20 -50 -48v-72h-118v72c0 28 -9 48 -50 48s-49 -20 -49 -49v-154c0 -39 9 -69 71 -69h9l-9 -109c-132 0 -189 55 -189 171z" />
    <glyph glyph-name="dvE" unicode="&#x90f;" horiz-adv-x="431" 
d="M389 566v-159c0 -96 -37 -148 -151 -147c-6 0 -15 1 -19 2v107c43 -1 52 10 52 46v151h-104v-415c0 -28 12 -47 54 -47c43 0 55 19 55 47v39h118v-43c0 -96 -56 -152 -173 -152c-116 0 -172 56 -172 152v419h-84v99h501v-99h-77z" />
    <glyph glyph-name="dvAI" unicode="&#x910;" horiz-adv-x="431" 
d="M-35 566v99h300l-165 230h132l153 -230h81v-99h-77v-159c0 -96 -37 -148 -151 -147c-6 0 -15 1 -19 2v107c43 -1 52 10 52 46v151h-104v-415c0 -28 12 -47 54 -47c43 0 55 19 55 47v39h118v-43c0 -96 -56 -152 -173 -152c-116 0 -172 56 -172 152v419h-84z" />
    <glyph glyph-name="dvO" unicode="&#x913;" horiz-adv-x="847" 
d="M201 562c-42 0 -51 -21 -51 -49v-23h-116v25c0 97 51 155 167 155c117 0 167 -58 167 -155v-47c0 -46 -11 -83 -45 -104c18 -11 30 -27 38 -49h97v350h210l-165 230h132l153 -230h95v-99h-86v-566h-118v566h-103v-566h-118v213h-90v-31c0 -89 -50 -147 -167 -147
c-116 0 -167 58 -167 147v52h116v-46c0 -25 9 -46 51 -46c44 0 51 21 51 46v72c0 28 -6 49 -50 49h-46v109h46c44 1 50 22 50 50v45c0 28 -9 49 -51 49z" />
    <glyph glyph-name="dvAU" unicode="&#x914;" horiz-adv-x="847" 
d="M201 562c-42 0 -51 -21 -51 -49v-23h-116v25c0 97 51 155 167 155c117 0 167 -58 167 -155v-47c0 -46 -11 -83 -45 -104c18 -11 30 -27 38 -49h97v350h99l-179 230h130l166 -230h15l-82 230h114l71 -230h91v-99h-86v-566h-118v566h-103v-566h-118v213h-90v-31
c0 -89 -50 -147 -167 -147c-116 0 -167 58 -167 147v52h116v-46c0 -25 9 -46 51 -46c44 0 51 21 51 46v72c0 28 -6 49 -50 49h-46v109h46c44 1 50 22 50 50v45c0 28 -9 49 -51 49z" />
    <glyph glyph-name="dvEcandra" unicode="&#x90d;" horiz-adv-x="431" 
d="M301 885h117v-4c0 -106 -67 -154 -195 -154s-196 48 -196 154v4h117c0 -40 22 -55 79 -55c54 0 78 15 78 55zM-35 566v99h501v-99h-77v-159c0 -96 -37 -148 -151 -147c-5 0 -14 1 -19 2v107c43 -1 52 10 52 46v151h-104v-415c0 -28 12 -47 54 -47c43 0 55 19 55 47v39
h118v-43c0 -96 -56 -152 -173 -152c-116 0 -172 56 -172 152v419h-84z" />
    <glyph glyph-name="dvOcandra" unicode="&#x911;" horiz-adv-x="847" 
d="M712 884h117v-5c0 -106 -67 -153 -195 -153c-127 0 -195 47 -195 153v5h117c0 -41 22 -56 78 -56c54 0 78 15 78 56zM201 562c-42 0 -51 -21 -51 -49v-23h-116v25c0 97 51 155 167 155c117 0 167 -58 167 -155v-47c0 -46 -11 -83 -45 -104c18 -11 30 -27 38 -49h97v350
h425v-99h-86v-566h-119v566h-102v-566h-118v213h-90v-31c0 -89 -50 -147 -167 -147c-116 0 -167 58 -167 147v52h116v-46c0 -25 9 -46 51 -46c44 0 51 21 51 46v72c0 28 -6 49 -50 49h-46v109h46c44 1 50 22 50 50v45c0 28 -9 49 -51 49z" />
    <glyph glyph-name="dvEshort" unicode="&#x90e;" horiz-adv-x="431" 
d="M-35 566v99h307c0 42 -13 67 -77 67c-130 0 -189 41 -189 163h118c0 -42 14 -67 77 -67c131 0 187 -49 187 -163h78v-99h-77v-159c0 -96 -37 -148 -151 -147c-5 0 -14 1 -19 2v107c43 -1 52 10 52 46v151h-104v-415c0 -28 12 -47 54 -47c43 0 55 19 55 47v39h118v-43
c0 -96 -56 -152 -173 -152c-116 0 -172 56 -172 152v419h-84z" />
    <glyph glyph-name="dvOshort" unicode="&#x912;" horiz-adv-x="847" 
d="M201 562c-42 0 -51 -21 -51 -49v-23h-116v25c0 97 51 155 167 155c117 0 167 -58 167 -155v-47c0 -46 -11 -83 -45 -104c18 -11 30 -27 38 -49h97v350h221c0 42 -13 67 -76 67c-129 0 -188 41 -188 163h117c0 -42 14 -67 77 -67c130 0 187 -49 187 -163h87v-99h-86v-566
h-118v566h-103v-566h-118v213h-90v-31c0 -89 -50 -147 -167 -147c-116 0 -167 58 -167 147v52h116v-46c0 -25 9 -46 51 -46c44 0 51 21 51 46v72c0 28 -6 49 -50 49h-46v109h46c44 1 50 22 50 50v45c0 28 -9 49 -51 49z" />
    <glyph glyph-name="dvmAA" unicode="&#x93e;" 
d="M51 566h-86v99h290v-99h-86v-566h-118v566z" />
    <glyph glyph-name="dvmI" unicode="&#x93f;" 
d="M53 665v23c0 148 97 208 242 208h117c144 0 219 -65 219 -165v-10h-119c0 50 -40 66 -109 66h-93c-104 0 -139 -29 -139 -102v-20h84v-99h-86v-566h-118v566h-86v99h88z" />
    <glyph glyph-name="dvmII" unicode="&#x940;" 
d="M51 665v81c0 29 -14 46 -50 46c-38 0 -51 -17 -51 -46v-25h-117v26c0 104 64 151 168 151c105 0 168 -47 168 -151v-82h86v-99h-86v-566h-118v566h-86v99h86z" />
    <glyph glyph-name="dvmU" unicode="&#x941;" horiz-adv-x="0" 
d="M-456 -50h135l48 -56c36 -42 51 -50 89 -50h64c28 0 38 11 38 40c0 28 -9 39 -36 39h-100v93h111c89 0 129 -36 129 -131c1 -93 -38 -132 -130 -132h-90c-59 0 -104 13 -160 81z" />
    <glyph glyph-name="dvmUU" unicode="&#x942;" horiz-adv-x="0" 
d="M-49 -162v-93h-91c-89 0 -131 36 -131 131c0 93 40 132 131 132h50c67 0 109 -16 164 -84l126 -159h-131l-76 97c-36 44 -50 55 -95 55h-26c-27 0 -38 -11 -38 -40c0 -28 10 -39 36 -39h81z" />
    <glyph glyph-name="dvmvR" unicode="&#x943;" horiz-adv-x="0" 
d="M-160 -98c-28 0 -45 -6 -45 -49s17 -50 45 -50h110v-108h-107c-111 0 -164 53 -164 158s53 157 164 157h106v-108h-109z" />
    <glyph glyph-name="dvmE" unicode="&#x947;" horiz-adv-x="0" 
d="M-171 665l-165 230h132l153 -230h-120z" />
    <glyph glyph-name="dvmAI" unicode="&#x948;" horiz-adv-x="0" 
d="M-168 665h-118l-179 230h130zM-51 665h-102l-82 230h114z" />
    <glyph glyph-name="dvmEcandra" unicode="&#x945;" horiz-adv-x="0" 
d="M-31 886h117v-4c0 -106 -67 -154 -195 -154s-196 48 -196 154v4h117c0 -40 22 -55 79 -55c54 0 78 15 78 55z" />
    <glyph glyph-name="dvmCANDRA" unicode="&#x949;" 
d="M84 884h117v-5c0 -106 -67 -153 -195 -153c-127 0 -195 47 -195 153v5h117c0 -41 22 -56 78 -56c54 0 78 15 78 56zM51 566h-86v99h290v-99h-86v-566h-118v566z" />
    <glyph glyph-name="dvmO" unicode="&#x94b;" 
d="M51 566h-86v99h75l-165 230h132l153 -230h95v-99h-86v-566h-118v566z" />
    <glyph glyph-name="dvmAU" unicode="&#x94c;" 
d="M51 566h-167v99h45l-179 230h130l166 -230h15l-82 230h114l71 -230h91v-99h-86v-566h-118v566z" />
    <glyph glyph-name="dvmEshort" unicode="&#x946;" horiz-adv-x="0" 
d="M-51 665h-116c0 42 -13 67 -77 67c-130 0 -189 41 -189 163h118c0 -42 14 -67 77 -67c131 0 187 -49 187 -163z" />
    <glyph glyph-name="dvmOshort" unicode="&#x94a;" 
d="M51 566h-86v99h86c0 42 -13 67 -76 67c-129 0 -188 41 -188 163h117c0 -42 14 -67 77 -67c130 0 187 -49 187 -163h87v-99h-86v-566h-118v566z" />
    <glyph glyph-name="dvKA" unicode="&#x915;" horiz-adv-x="616" 
d="M415 65v110c43 -1 52 10 52 46v132c0 29 -8 50 -51 50s-51 -20 -51 -50v-353h-116v73c-14 -10 -40 -17 -66 -17c-105 0 -150 47 -150 143v158c0 97 45 148 150 148c26 0 52 -7 66 -18v79h-284v99h686v-99h-286v-78c15 10 41 17 66 17c105 0 149 -53 149 -148v-147
c0 -95 -39 -147 -145 -147c-7 0 -16 1 -20 2zM198 154c42 0 51 20 52 48v151c0 30 -9 50 -52 50s-52 -20 -52 -50v-149c0 -30 9 -50 52 -50z" />
    <glyph glyph-name="dvKHA" unicode="&#x916;" horiz-adv-x="775" 
d="M-35 566v99h844v-99h-86v-566h-116v121c-13 -11 -38 -14 -59 -14c-23 0 -42 2 -59 6c-26 -74 -91 -113 -202 -113h-22c-157 0 -228 63 -228 190v258h113v-66c0 -28 6 -47 48 -47c41 0 48 19 48 47v135c0 28 -9 48 -51 49h-230zM607 483v83h-263c8 -13 11 -29 11 -49v-139
c0 -97 -33 -147 -140 -147c-22 0 -52 6 -65 17v-54c0 -58 31 -89 114 -89h13c84 0 119 31 119 89v152c0 97 31 152 147 152c21 0 48 -5 64 -15zM555 395c-43 0 -53 -19 -53 -48v-92c0 -29 10 -48 53 -48s52 19 52 48v92c0 29 -9 48 -52 48z" />
    <glyph glyph-name="dvGA" unicode="&#x917;" horiz-adv-x="490" 
d="M-35 566v99h559v-99h-85v-566h-118v566h-99v-236c0 -104 -58 -155 -156 -155c-18 0 -36 3 -50 5v114c7 -2 21 -4 34 -4c37 0 54 16 54 50v226h-139z" />
    <glyph glyph-name="dvGHA" unicode="&#x918;" horiz-adv-x="501" 
d="M536 665v-99h-85v-566h-119v87c-22 -17 -57 -28 -106 -28c-124 0 -183 61 -183 155v52c0 52 15 84 49 100c-31 19 -43 50 -43 96v56c0 21 5 36 15 48h-99v99h571zM332 566h-117c-37 0 -48 -17 -48 -48v-52c0 -28 9 -47 51 -48h42v-109h-46c-43 0 -53 -19 -53 -47v-34
c0 -48 31 -63 84 -63s87 15 87 64v337z" />
    <glyph glyph-name="dvNGA" unicode="&#x919;" horiz-adv-x="523" 
d="M247 566h-282v99h593v-99h-193v-164h-163c-34 0 -44 -16 -44 -40v-9c0 -25 9 -41 44 -41h23c117 0 170 -45 170 -141v-32c0 -96 -56 -144 -176 -144s-178 47 -178 144v23h119v-19c0 -28 12 -46 58 -46c47 0 59 18 59 46v24c0 25 -9 45 -52 45h-23
c-105 0 -162 39 -162 135v21c0 97 53 136 162 136h45v62zM387 329c0 36 15 65 66 65c50 0 65 -29 65 -65c0 -37 -15 -66 -65 -66c-51 0 -66 29 -66 66z" />
    <glyph glyph-name="dvCA" unicode="&#x91a;" horiz-adv-x="481" 
d="M189 337v-122c0 -35 13 -55 60 -55c48 0 63 20 63 53v353h-347v99h551v-99h-86v-566h-118v75c-21 -14 -52 -19 -80 -19c-112 0 -161 51 -161 156v121c0 22 5 37 16 49h-74v106h258v-101h-35c-39 0 -47 -22 -47 -50z" />
    <glyph glyph-name="dvCHA" unicode="&#x91b;" horiz-adv-x="541" 
d="M496 354v-181c0 -118 -55 -169 -225 -169c-165 0 -229 47 -229 158v26c0 42 15 75 49 92c-32 17 -44 48 -44 95v130c0 26 7 46 20 61h-102v99h611v-99h-139v-85c44 -19 59 -62 59 -127zM381 179v155c0 48 -18 67 -64 67c-36 0 -53 -10 -53 -10v98s25 10 63 10v67h-105
c-49 0 -57 -24 -57 -63v-124c0 -28 9 -47 51 -47h70v-104h-66c-43 0 -59 -10 -59 -49v-10c0 -46 16 -59 110 -59s110 21 110 69z" />
    <glyph glyph-name="dvJA" unicode="&#x91c;" horiz-adv-x="619" 
d="M143 284v-81c0 -28 7 -48 50 -48c41 0 49 20 49 48v127c0 28 -9 50 -52 50h-66v108h326v78h-485v99h689v-99h-85v-566h-119v387h-104c10 -17 14 -35 14 -58v-130c0 -96 -52 -151 -167 -151c-116 0 -168 56 -168 153v83h118z" />
    <glyph glyph-name="dvJHA" unicode="&#x91d;" horiz-adv-x="634" 
d="M214 224h-9c-105 0 -162 39 -162 135v9c0 97 53 136 162 136h52v62h-292v99h704v-99h-86v-566h-118v231h-97c11 -12 17 -34 17 -56v-32c0 -105 -54 -141 -151 -141c-29 0 -56 6 -76 17v-88h-116v240h116v-19c0 -30 11 -47 56 -47c44 0 55 17 55 47v23c0 30 -11 49 -55 49
zM204 324h261v242h-90v-164h-170c-34 0 -44 -12 -44 -37v-3c0 -25 9 -38 43 -38z" />
    <glyph glyph-name="dvNYA" unicode="&#x91e;" horiz-adv-x="623" 
d="M454 566h-489v99h693v-99h-85v-566h-119v227h-89v-22c0 -95 -57 -152 -165 -152c-117 0 -165 57 -165 153v31h118v-27c0 -28 4 -48 47 -48c42 0 47 20 47 48v138c0 28 -5 49 -47 49c-43 0 -47 -21 -47 -49v-27h-118v31c0 97 48 154 165 154c116 0 165 -57 165 -154v-23
h89v237z" />
    <glyph glyph-name="dvTTA" unicode="&#x91f;" horiz-adv-x="410" 
d="M355 387h-146c-42 0 -50 -18 -50 -46v-192c0 -28 9 -48 52 -48c42 0 52 20 52 48v86h118v-86c0 -97 -54 -154 -170 -154c-117 0 -170 57 -170 154v196c0 104 52 149 168 149h28v72h-272v99h480v-99h-90v-179z" />
    <glyph glyph-name="dvTTHA" unicode="&#x920;" horiz-adv-x="422" 
d="M381 361v-212c0 -97 -54 -154 -170 -154c-117 0 -170 57 -170 154v212c0 78 34 127 111 142v63h-187v99h491v-99h-186v-63c75 -15 111 -63 111 -142zM267 147v211c0 28 -12 50 -56 50s-56 -22 -56 -50v-211c0 -29 12 -51 56 -51s56 22 56 51z" />
    <glyph glyph-name="dvDDA" unicode="&#x921;" horiz-adv-x="424" 
d="M246 566h-281v99h494v-99h-94v-164h-164c-34 0 -44 -16 -44 -40v-9c0 -25 9 -41 44 -41h23c117 0 170 -45 170 -141v-32c0 -96 -55 -144 -176 -144c-120 0 -177 47 -177 144v23h118v-19c0 -28 12 -46 58 -46c47 0 59 18 59 46v24c0 25 -9 45 -52 45h-23
c-105 0 -162 39 -162 135v21c0 97 53 136 162 136h45v62z" />
    <glyph glyph-name="dvDDHA" unicode="&#x922;" horiz-adv-x="427" 
d="M207 500h44v66h-286v99h497v-99h-95v-173h-160c-43 0 -50 -18 -50 -46v-186c0 -35 10 -58 61 -58s62 21 62 56v14c0 34 -17 43 -42 43c-20 0 -32 -8 -32 -8v105s19 8 48 8c90 0 139 -39 139 -144v-24c0 -105 -52 -158 -175 -158s-178 57 -178 162v194
c0 104 50 149 167 149z" />
    <glyph glyph-name="dvNNA" unicode="&#x923;" horiz-adv-x="639" 
d="M376 566v-305c0 -96 -51 -153 -168 -153c-116 0 -168 57 -168 153v305h-75v99h710v-99h-86v-566h-118v566h-95zM258 566h-100v-304c0 -28 8 -48 50 -48c43 0 50 20 50 48v304z" />
    <glyph glyph-name="dvTA" unicode="&#x924;" horiz-adv-x="455" 
d="M40 145v192c0 96 50 161 167 161c32 0 62 -6 79 -16v84h-321v99h525v-99h-86v-566h-118v333c0 33 -14 56 -64 56s-64 -23 -64 -56v-177c0 -36 17 -47 60 -46v-110c-9 -1 -20 -2 -27 -2c-115 0 -151 52 -151 147z" />
    <glyph glyph-name="dvTHA" unicode="&#x925;" horiz-adv-x="584" 
d="M289 186c101 0 126 41 126 128v351h204v-99h-86v-566h-118v113c-33 -24 -81 -36 -147 -36c-157 0 -230 82 -230 212v120h121c63 0 85 18 85 70v38c0 30 -4 47 -39 47c-34 0 -40 -17 -40 -47v-38h-113v34c0 98 43 157 150 157s149 -54 149 -152v-58
c0 -101 -53 -154 -176 -154h-16v-13c0 -73 27 -107 130 -107z" />
    <glyph glyph-name="dvDA" unicode="&#x926;" horiz-adv-x="422" 
d="M34 212v136c0 109 55 149 171 149h45v69h-285v99h493v-99h-90v-176h-163c-44 0 -53 -17 -53 -46v-128c0 -29 10 -47 55 -47c44 0 54 17 54 47v60h118v-278h-118v83c-19 -11 -47 -16 -70 -16c-109 0 -157 50 -157 147z" />
    <glyph glyph-name="dvDHA" unicode="&#x927;" horiz-adv-x="501" 
d="M260 311h-46c-43 0 -53 -20 -53 -48v-35c0 -48 31 -63 84 -63s87 15 87 64v436h205v-99h-86v-566h-119v87c-22 -17 -56 -28 -106 -28c-123 0 -183 61 -183 155v53c0 52 15 85 49 100c-31 19 -43 50 -43 96v55c0 21 5 36 15 48h-99v99h285v-99h-35c-37 0 -48 -17 -48 -48
v-51c0 -28 9 -47 51 -47h42v-109z" />
    <glyph glyph-name="dvNA" unicode="&#x928;" horiz-adv-x="598" 
d="M350 337v-131c0 -97 -44 -151 -157 -151s-158 54 -158 151v131c0 96 45 151 158 151h236v78h-464v99h668v-99h-86v-566h-118v379h-88c7 -11 9 -26 9 -42zM239 207v126c0 28 -8 46 -46 46s-46 -18 -46 -46v-126c0 -28 8 -47 46 -47s46 19 46 47z" />
    <glyph glyph-name="dvPA" unicode="&#x92a;" horiz-adv-x="439" 
d="M270 0v135c-18 -11 -48 -17 -76 -17c-112 0 -152 53 -152 149v299h-77v99h510v-99h-86v-566h-119zM270 566h-110v-294c0 -28 10 -49 55 -49s55 21 55 49v294z" />
    <glyph glyph-name="dvPHA" unicode="&#x92b;" horiz-adv-x="632" 
d="M429 61v110c41 -1 50 13 50 47v127c0 28 -8 47 -50 47c-41 0 -49 -19 -49 -47v-345h-118v121c-17 -10 -43 -16 -66 -16c-108 0 -154 51 -154 147v314h-77v99h702v-99h-287v-82c17 11 41 17 65 17c107 0 152 -57 152 -153v-141c0 -96 -45 -148 -151 -147c-6 0 -12 0 -17 1
zM262 566h-101v-310c0 -28 9 -46 50 -46s51 17 51 46v310z" />
    <glyph glyph-name="dvBA" unicode="&#x92c;" horiz-adv-x="456" 
d="M293 0v75c-21 -11 -48 -17 -82 -17c-117 0 -176 40 -176 156v136c0 116 59 156 176 156c34 0 61 -6 82 -17v77h-328v99h526v-99h-86v-566h-112zM220 408c-37 0 -57 -10 -66 -28l139 -118v83c0 39 -16 63 -73 63zM147 219c0 -38 15 -63 73 -63c39 0 58 11 67 30l-140 119
v-86z" />
    <glyph glyph-name="dvBHA" unicode="&#x92d;" horiz-adv-x="630" 
d="M251 423v91c0 28 -6 47 -46 47c-41 0 -46 -20 -46 -47v-38h-118v41c0 97 49 153 164 153c114 0 164 -56 164 -153v-94h92v242h205v-99h-86v-566h-119v323h-97v-123c0 -89 -47 -144 -162 -144c-116 0 -163 55 -163 144v81c0 88 47 142 163 142h49zM251 203v120h-49
c-42 0 -49 -18 -49 -46v-74c0 -27 7 -46 49 -46c41 0 49 18 49 46z" />
    <glyph glyph-name="dvMA" unicode="&#x92e;" horiz-adv-x="608" 
d="M442 0v341h-90v-141c0 -88 -47 -143 -162 -143c-116 0 -163 55 -163 143v99c0 89 47 142 163 142h49v125h-274v99h679v-99h-86v-566h-116zM352 441h90v125h-90v-125zM239 204v137h-49c-42 0 -49 -18 -49 -46v-91c0 -28 7 -46 49 -46c41 0 49 18 49 46z" />
    <glyph glyph-name="dvYA" unicode="&#x92f;" horiz-adv-x="519" 
d="M-35 566v99h589v-99h-86v-566h-118v114c-25 -18 -60 -28 -109 -28c-129 0 -204 61 -204 180v127h23c72 0 95 13 95 65v49c0 32 -7 59 -50 59h-140zM250 196c79 0 100 31 100 85v285h-95c10 -14 15 -32 15 -59v-71c0 -79 -39 -118 -117 -121v-34c0 -54 20 -85 97 -85z" />
    <glyph glyph-name="dvRA" unicode="&#x930;" horiz-adv-x="432" 
d="M164 287v-135c0 -29 9 -50 53 -50c45 0 54 21 54 50v39h118v-42c0 -97 -54 -154 -171 -154c-116 0 -172 57 -172 154v321h118v-49c0 -28 9 -47 52 -47c42 0 52 19 52 47v96c0 28 -10 49 -52 49h-251v99h501v-99h-96c10 -10 16 -29 16 -49v-99c0 -97 -46 -149 -155 -149
c-19 0 -52 7 -67 18z" />
    <glyph glyph-name="dvLA" unicode="&#x932;" horiz-adv-x="643" 
d="M40 171v165c0 97 52 154 163 154c67 0 97 -28 111 -52c14 24 42 51 100 51c25 0 49 -6 60 -17v94h-509v99h714v-99h-87v-566h-118v332c0 29 -9 49 -49 49c-41 0 -50 -20 -50 -49v-121h-118v121c0 29 -8 49 -50 49c-41 0 -49 -20 -49 -49v-159c0 -39 9 -70 78 -70h60
l1 -103h-67c-140 0 -190 55 -190 171z" />
    <glyph glyph-name="dvVA" unicode="&#x935;" horiz-adv-x="441" 
d="M390 566v-566h-118v74c-15 -10 -46 -17 -75 -17c-116 0 -159 53 -159 149v149c0 97 46 151 159 151c29 0 60 -7 75 -17v77h-307v99h511v-99h-86zM277 209v146c0 33 -18 50 -62 50s-61 -17 -61 -50v-146c0 -34 17 -51 61 -51s62 17 62 51z" />
    <glyph glyph-name="dvSHA" unicode="&#x936;" horiz-adv-x="629" 
d="M387 516v-116c0 -97 -42 -151 -152 -151c-23 0 -57 5 -70 15v-113c0 -28 11 -47 53 -47c43 0 54 19 54 47v30h118v-32c0 -97 -55 -154 -172 -154c-116 0 -171 57 -171 154v263h118v-16c0 -25 12 -42 52 -42c43 0 52 19 52 47v111c0 28 -9 49 -52 49s-52 -21 -52 -49v-39
h-118v43c0 97 53 154 170 154c116 0 170 -57 170 -154zM460 665h204v-99h-86v-566h-118v665z" />
    <glyph glyph-name="dvSSA" unicode="&#x937;" horiz-adv-x="460" 
d="M40 566h-75v99h530v-99h-86v-566h-118v134c-13 -12 -60 -19 -82 -19c-117 0 -169 59 -169 156v295zM291 566h-133v-67l133 -118v185zM158 276c0 -36 15 -57 67 -57c51 0 66 21 66 57v17l-133 119v-136z" />
    <glyph glyph-name="dvSA" unicode="&#x938;" horiz-adv-x="630" 
d="M-35 566v99h700v-99h-86v-566h-118v272h-142c-22 -16 -54 -25 -89 -25c-27 0 -53 5 -71 18v-115c0 -28 8 -48 50 -48c43 0 51 20 51 48v26h116v-27c0 -97 -50 -154 -167 -154c-116 0 -166 57 -166 154v308h116v-58c0 -28 5 -47 47 -47c41 0 47 19 47 47v118
c0 27 -8 49 -48 49h-240zM369 507v-110c0 -7 -1 -18 -2 -23h94v192h-109c13 -13 17 -35 17 -59z" />
    <glyph glyph-name="dvHA" unicode="&#x939;" horiz-adv-x="440" 
d="M41 145v33c0 48 16 78 46 97c-29 16 -45 43 -46 88v17c0 91 53 127 162 127h58v59h-296v99h510v-99h-96v-161h-176c-33 0 -44 -11 -44 -34v-10c0 -23 12 -34 44 -34h66c98 0 135 -44 135 -132v-30h-105v20c0 31 -7 44 -44 44h-43c-42 0 -53 -19 -53 -47v-30
c0 -37 21 -56 78 -56c65 0 104 4 152 13v-100c-45 -10 -98 -16 -160 -16c-130 0 -188 56 -188 152z" />
    <glyph glyph-name="dvLLA" unicode="&#x933;" horiz-adv-x="615" 
d="M575 340v-192c0 -96 -42 -153 -154 -153c-50 0 -87 17 -111 47c-24 -30 -61 -47 -112 -47c-111 0 -158 57 -158 153v195c0 97 47 150 158 150c51 0 88 -16 112 -48c13 18 30 31 53 37v84h-398v99h685v-99h-169v-80c67 -18 94 -70 94 -146zM151 339v-189
c0 -30 8 -51 51 -51s52 21 52 51v189c0 29 -9 51 -52 51s-51 -22 -51 -51zM366 339v-189c0 -30 9 -51 52 -51s50 21 50 51v189c0 29 -8 51 -51 51s-51 -22 -51 -51z" />
    <glyph glyph-name="dvK_SSA" horiz-adv-x="638" 
d="M382 520v-40c0 -32 -3 -47 -10 -57h97v242h204v-99h-86v-566h-118v325h-252c-47 0 -52 -24 -52 -60v-62c0 -28 9 -48 49 -48s50 18 50 45v45h112v-245h-112v67c-19 -10 -42 -15 -69 -15c-107 0 -151 56 -151 152v77c0 44 13 82 55 101c-24 15 -34 47 -34 99v39
c0 97 50 150 160 150c111 0 157 -53 157 -150zM270 466v54c0 28 -5 48 -45 48c-39 0 -45 -20 -45 -48v-54c0 -27 6 -48 45 -48c40 0 45 20 45 48z" />
    <glyph glyph-name="dvJ_NYA" horiz-adv-x="631" 
d="M41 283h114v-48c0 -28 5 -48 49 -48s50 20 50 48v95c0 28 -10 50 -52 50h-69v108h329v78h-497v99h701v-99h-86v-566h-118v387h-104c9 -17 14 -36 14 -58v-100c0 -102 -56 -150 -146 -150c-32 0 -50 3 -71 12v-91h-114v283z" />
    <glyph glyph-name="dvKxA" unicode="&#x958;" horiz-adv-x="623" 
d="M424 65v110c43 -1 52 10 52 46v132c0 29 -8 50 -51 50s-51 -20 -51 -50v-353h-116v73c-14 -10 -40 -17 -66 -17c-105 0 -150 47 -150 143v158c0 97 45 148 150 148c26 0 52 -7 66 -18v79h-293v99h694v-99h-285v-78c15 10 41 17 65 17c106 0 150 -53 150 -148v-147
c0 -95 -40 -147 -145 -147c-7 0 -16 1 -20 2zM207 154c42 0 51 20 51 48v151c0 30 -8 50 -51 50s-52 -20 -52 -50v-149c0 -30 9 -50 52 -50zM71 -43c0 37 14 65 65 65c50 0 65 -28 65 -65s-15 -65 -65 -65c-51 0 -65 28 -65 65z" />
    <glyph glyph-name="dvKHxA" unicode="&#x959;" horiz-adv-x="779" 
d="M-35 566v99h850v-99h-86v-566h-115v121c-14 -11 -39 -14 -60 -14c-23 0 -42 2 -59 6c-26 -74 -91 -113 -202 -113h-22c-157 0 -228 63 -228 190v258h113v-66c0 -28 6 -47 48 -47c41 0 48 19 48 47v135c0 28 -9 48 -51 49h-236zM614 483v83h-263c7 -13 11 -29 11 -49v-139
c0 -97 -33 -147 -141 -147c-21 0 -51 6 -65 17v-54c0 -58 31 -89 114 -89h13c84 0 119 31 119 89v152c0 97 31 152 147 152c21 0 48 -5 65 -15zM561 395c-43 0 -53 -19 -53 -48v-92c0 -29 10 -48 53 -48s53 19 53 48v92c0 29 -10 48 -53 48zM-18 -69c0 37 14 65 64 65
s65 -28 65 -65s-15 -65 -65 -65s-64 28 -64 65z" />
    <glyph glyph-name="dvGxA" unicode="&#x95a;" horiz-adv-x="497" 
d="M-35 566v99h567v-99h-86v-566h-118v566h-99v-236c0 -104 -58 -155 -156 -155c-18 0 -36 3 -51 5v114c8 -2 22 -4 34 -4c38 0 55 16 55 50v226h-146zM56 43c0 36 14 65 65 65c50 0 65 -29 65 -65c0 -37 -15 -66 -65 -66c-51 0 -65 29 -65 66z" />
    <glyph glyph-name="dvJxA" unicode="&#x95b;" horiz-adv-x="619" 
d="M143 284v-81c0 -28 7 -48 50 -48c41 0 49 20 49 48v127c0 28 -9 50 -52 50h-66v108h326v78h-485v99h690v-99h-86v-566h-119v387h-104c10 -17 14 -35 14 -58v-130c0 -96 -52 -151 -167 -151c-116 0 -168 56 -168 153v83h118zM-53 -31c0 36 15 65 66 65c50 0 65 -29 65 -65
c0 -37 -16 -66 -66 -66c-51 0 -65 29 -65 66z" />
    <glyph glyph-name="dvDDxA" unicode="&#x95c;" horiz-adv-x="425" 
d="M246 566h-281v99h494v-99h-94v-164h-164c-34 0 -44 -16 -44 -40v-9c0 -25 9 -41 44 -41h23c117 0 170 -45 170 -141v-32c0 -96 -55 -144 -176 -144c-120 0 -177 47 -177 144v23h118v-19c0 -28 12 -46 58 -46c47 0 59 18 59 46v24c0 25 -9 45 -52 45h-23
c-105 0 -162 39 -162 135v21c0 97 53 136 162 136h45v62zM155 -126c0 37 14 66 65 66c50 0 65 -29 65 -66s-15 -65 -65 -65c-51 0 -65 28 -65 65z" />
    <glyph glyph-name="dvDDHxA" unicode="&#x95d;" horiz-adv-x="427" 
d="M207 500h44v66h-286v99h497v-99h-95v-173h-160c-43 0 -50 -18 -50 -46v-186c0 -35 10 -58 61 -58s62 21 62 56v14c0 34 -17 43 -42 43c-20 0 -32 -8 -32 -8v105s19 8 48 8c90 0 139 -39 139 -144v-24c0 -105 -52 -158 -175 -158s-178 57 -178 162v194
c0 104 50 149 167 149zM155 -125c0 36 14 65 65 65c50 0 65 -29 65 -65c0 -37 -15 -66 -65 -66c-51 0 -65 29 -65 66z" />
    <glyph glyph-name="dvNxA" unicode="&#x929;" horiz-adv-x="603" 
d="M356 337v-131c0 -97 -44 -151 -157 -151s-159 54 -159 151v131c0 96 46 151 159 151h235v78h-469v99h674v-99h-86v-566h-119v379h-87c6 -11 9 -26 9 -42zM244 207v126c0 28 -8 46 -45 46c-38 0 -46 -18 -46 -46v-126c0 -28 8 -47 46 -47c37 0 45 19 45 47zM-24 -41
c0 36 15 65 65 65c51 0 66 -29 66 -65c0 -37 -15 -66 -66 -66c-50 0 -65 29 -65 66z" />
    <glyph glyph-name="dvPHxA" unicode="&#x95e;" horiz-adv-x="643" 
d="M440 61v110c41 -1 50 13 50 47v127c0 28 -8 47 -50 47c-41 0 -49 -19 -49 -47v-345h-118v121c-17 -10 -43 -16 -66 -16c-108 0 -154 51 -154 147v314h-88v99h713v-99h-287v-82c17 11 41 17 65 17c107 0 152 -57 152 -153v-141c0 -96 -45 -148 -150 -147c-6 0 -13 0 -18 1
zM273 566h-101v-310c0 -28 9 -46 50 -46s51 17 51 46v310zM28 -14c0 36 14 65 65 65c50 0 66 -29 66 -65c0 -37 -16 -66 -66 -66c-51 0 -65 29 -65 66z" />
    <glyph glyph-name="dvYxA" unicode="&#x95f;" horiz-adv-x="525" 
d="M-35 566v99h595v-99h-86v-566h-118v114c-25 -18 -60 -28 -109 -28c-129 0 -204 61 -204 180v127h23c72 0 95 13 95 65v49c0 32 -7 59 -50 59h-146zM256 196c79 0 100 31 100 85v285h-95c10 -14 15 -32 15 -59v-71c0 -79 -39 -118 -117 -121v-34c0 -54 20 -85 97 -85zM1 5
c0 36 13 65 63 65c51 0 66 -29 66 -65c0 -37 -15 -66 -66 -66c-49 0 -63 29 -63 66z" />
    <glyph glyph-name="dvRxA" unicode="&#x931;" horiz-adv-x="438" 
d="M171 287v-135c0 -29 9 -50 53 -50s54 21 54 50v39h118v-42c0 -97 -54 -154 -171 -154s-172 57 -172 154v321h118v-49c0 -28 9 -47 52 -47c42 0 52 19 52 47v96c0 28 -10 49 -52 49h-258v99h508v-99h-96c10 -10 16 -29 16 -49v-99c0 -97 -46 -149 -155 -149
c-19 0 -53 7 -67 18zM-41 -86c0 37 15 66 64 66c50 0 65 -29 65 -66c0 -36 -15 -65 -65 -65c-49 0 -64 29 -64 65z" />
    <glyph glyph-name="dvLLxA" unicode="&#x934;" horiz-adv-x="615" 
d="M575 340v-192c0 -96 -42 -153 -154 -153c-50 0 -87 17 -111 47c-24 -30 -61 -47 -112 -47c-111 0 -158 57 -158 153v195c0 97 47 150 158 150c51 0 88 -16 112 -48c13 18 30 31 53 37v84h-398v99h685v-99h-169v-80c67 -18 94 -70 94 -146zM151 339v-189
c0 -30 8 -51 51 -51s52 21 52 51v189c0 29 -9 51 -52 51s-51 -22 -51 -51zM366 339v-189c0 -30 9 -51 52 -51s50 21 50 51v189c0 29 -8 51 -51 51s-51 -22 -51 -51zM245 -119c0 36 14 65 65 65c50 0 65 -29 65 -65c0 -37 -15 -66 -65 -66c-51 0 -65 29 -65 66z" />
    <glyph glyph-name="dvAnusvara" unicode="&#x902;" horiz-adv-x="0" 
d="M-175 792c0 37 14 66 65 66c49 0 65 -29 65 -66c0 -36 -16 -65 -65 -65c-51 0 -65 29 -65 65z" />
    <glyph glyph-name="dvCandrabindu" unicode="&#x901;" horiz-adv-x="0" 
d="M-171 949c0 35 13 62 62 62c48 0 61 -27 61 -62s-13 -61 -61 -61c-49 0 -62 26 -62 61zM-31 886h117v-4c0 -106 -67 -154 -195 -154s-196 48 -196 154v4h117c0 -40 22 -55 79 -55c54 0 78 15 78 55z" />
    <glyph glyph-name="dvVisarga" unicode="&#x903;" horiz-adv-x="235" 
d="M47 408c0 37 15 66 66 66c50 0 65 -29 65 -66c0 -36 -15 -65 -65 -65c-51 0 -66 29 -66 65zM47 65c0 37 15 66 66 66c50 0 65 -29 65 -66c0 -36 -14 -65 -64 -65c-51 0 -67 29 -67 65z" />
    <glyph glyph-name="dvVirama" unicode="&#x94d;" horiz-adv-x="0" 
d="M69 -223h-123l-106 165h106z" />
    <glyph glyph-name="dvNukta" unicode="&#x93c;" horiz-adv-x="0" 
d="M-269 -114c0 36 14 65 65 65c50 0 65 -29 65 -65c0 -37 -15 -66 -65 -66c-51 0 -65 29 -65 66z" />
    <glyph glyph-name="dvAvagraha" unicode="&#x93d;" horiz-adv-x="421" 
d="M392 192v-33c0 -106 -51 -164 -172 -164h-14c-122 0 -174 58 -174 164v58h118v-62c0 -27 10 -50 59 -50h6c49 0 59 23 59 50v40c0 35 -8 52 -40 73l-128 85c-50 33 -74 78 -74 137v26c0 95 42 149 161 149h175v-110h-167c-45 0 -51 -20 -51 -45v-15c0 -32 10 -48 41 -69
l124 -82c66 -44 77 -86 77 -152z" />
    <glyph glyph-name="dvGrave" unicode="&#x953;" horiz-adv-x="337" 
d="M37 967h125l123 -253h-125z" />
    <glyph glyph-name="dvAcute" unicode="&#x954;" horiz-adv-x="333" 
d="M160 967h125l-123 -253h-125z" />
    <glyph glyph-name="dvZero" unicode="&#x966;" horiz-adv-x="430" 
d="M214 668c123 0 171 -60 171 -157v-358c0 -96 -48 -156 -171 -156c-120 0 -171 61 -171 158v355c0 96 51 158 171 158zM214 559c-45 0 -55 -21 -55 -49v-355c0 -28 10 -49 55 -49s55 21 55 49v355c0 28 -10 49 -55 49z" />
    <glyph glyph-name="dvOne" unicode="&#x967;" horiz-adv-x="298" 
d="M247 0h-118v535l-118 -86v134l113 82h123v-665z" />
    <glyph glyph-name="dvTwo" unicode="&#x968;" horiz-adv-x="411" 
d="M36 0l-1 176c0 66 32 93 80 127l107 75c34 24 37 41 37 82v52c0 28 -10 49 -52 49c-43 0 -52 -21 -52 -49v-66h-118v70c0 97 57 154 170 154c115 0 170 -57 170 -154v-75c0 -64 -19 -101 -65 -132l-103 -73c-45 -31 -55 -43 -55 -89v-37h225v-110h-343z" />
    <glyph glyph-name="dvThree" unicode="&#x969;" horiz-adv-x="411" 
d="M152 511v-28h-118v32c0 97 57 155 170 155c115 0 170 -58 170 -155v-63c0 -46 -11 -83 -46 -104c32 -18 46 -54 46 -105v-94c0 -96 -55 -154 -170 -154c-113 0 -170 58 -170 154v67h118v-63c0 -28 9 -49 52 -49s52 21 52 49v90c0 28 -7 49 -51 49h-47v109h47
c44 1 51 23 51 51v59c0 29 -10 50 -52 50c-43 0 -52 -21 -52 -50z" />
    <glyph glyph-name="dvFour" unicode="&#x96a;" horiz-adv-x="445" 
d="M13 121v111l153 433h196v-441h66v-103h-66v-121h-115l-1 121h-233zM123 224h128v374z" />
    <glyph glyph-name="dvFive" unicode="&#x96b;" horiz-adv-x="413" 
d="M38 186h118v-33c0 -25 7 -48 53 -48c45 0 53 23 53 48v140c0 26 -6 49 -51 49c-44 0 -52 -23 -52 -49v-10h-118v382h330v-99h-212v-133c17 12 38 18 63 18c109 0 158 -58 158 -154v-148c0 -96 -61 -154 -171 -154c-109 0 -171 58 -171 154v37z" />
    <glyph glyph-name="dvSix" unicode="&#x96c;" horiz-adv-x="425" 
d="M378 487h-118v24c0 29 -10 50 -52 50c-43 0 -52 -21 -52 -50v-97c16 10 36 16 61 16c118 0 169 -58 169 -155v-126c0 -97 -58 -154 -174 -154s-174 58 -174 154v366c0 97 57 155 170 155c115 0 170 -58 170 -155v-28zM267 153v119c0 25 -10 48 -54 48
c-45 0 -57 -23 -57 -48v-119c0 -25 11 -48 55 -48c45 0 56 23 56 48z" />
    <glyph glyph-name="dvSeven" unicode="&#x96d;" horiz-adv-x="357" 
d="M185 0h-118l151 562h-211v103h331v-98z" />
    <glyph glyph-name="dvEight" unicode="&#x96e;" horiz-adv-x="419" 
d="M39 148v91c0 48 17 78 47 96c-30 17 -47 47 -47 95v87c0 96 61 153 170 153c108 0 169 -57 169 -153v-87c0 -48 -17 -78 -47 -95c30 -18 47 -48 47 -96v-91c0 -97 -61 -153 -169 -153c-109 0 -170 56 -170 153zM264 430v83c0 28 -11 50 -55 50s-56 -22 -56 -50v-83
c0 -28 12 -50 56 -50s55 22 55 50zM264 152v87c0 28 -11 50 -55 50s-56 -22 -56 -50v-87c0 -28 12 -50 56 -50s55 22 55 50z" />
    <glyph glyph-name="dvNine" unicode="&#x96f;" horiz-adv-x="425" 
d="M46 191h118v-38c0 -28 9 -49 52 -49c42 0 51 21 51 49v101c-14 -10 -36 -15 -60 -15c-118 0 -169 58 -169 155v122c0 97 62 154 174 154c111 0 174 -58 174 -155v-366c0 -96 -57 -154 -170 -154c-115 0 -170 58 -170 154v42zM156 511v-113c0 -26 10 -49 54 -49
c47 0 57 24 57 50v112c0 26 -10 49 -55 49s-56 -23 -56 -49z" />
    <glyph glyph-name="dvAbbreviationsign" unicode="&#x970;" horiz-adv-x="420" 
d="M45 327c0 98 46 168 165 168c118 0 166 -70 166 -168c0 -99 -48 -168 -166 -168c-119 0 -165 69 -165 168zM150 326c0 -46 12 -71 60 -71c47 0 61 25 61 71c0 47 -14 72 -61 72c-48 0 -60 -25 -60 -72z" />
    <glyph glyph-name="rupee" unicode="&#x20a8;" horiz-adv-x="484" 
d="M47 348h147c50 0 61 20 61 56v10h-208v87h208v16c0 28 -11 49 -54 49h-155v99h401v-99h-97c15 -14 20 -33 20 -53v-12h78v-87h-78v-14c0 -104 -50 -150 -172 -150h-19l200 -250h-139l-193 249v99z" />
    <glyph glyph-name="ITF" horiz-adv-x="1734" 
d="M147 0v671h207v-671h-207zM397 475v196h207v-196h-207zM647 0v671h207v-671h-207zM896 475v196h208v-196h-208zM1146 0v671h208v-671h-208zM1396 475v196h207v-196h-207zM1396 237v196h207v-196h-207z" />
    <glyph glyph-name="dvReph" horiz-adv-x="0" 
d="M-52 665h-105s-32 33 -32 95c0 92 68 138 163 138c26 0 53 -2 53 -2v-101s-15 2 -33 2c-43 0 -73 -19 -73 -63c0 -42 27 -69 27 -69z" />
    <glyph glyph-name="dvRAc2" horiz-adv-x="0" 
d="M-165 -112l-49 117l-49 -117h-121l66 136h208l66 -136h-121z" />
    <glyph glyph-name="dvK" horiz-adv-x="442" 
d="M597 358v-6h-105v6c0 27 -15 45 -63 45c-51 0 -63 -20 -63 -50v-353h-116v73c-14 -10 -39 -17 -65 -17c-106 0 -150 47 -150 143v158c0 97 44 148 150 148c26 0 51 -7 65 -18v79h-285v99h670v-99h-269v-80c16 11 41 17 75 17c116 0 156 -53 156 -145zM199 154
c42 0 52 20 52 48v151c0 30 -9 50 -52 50s-52 -20 -52 -50v-149c0 -30 9 -50 52 -50z" />
    <glyph glyph-name="dvKH" horiz-adv-x="570" 
d="M716 255c0 -99 -37 -148 -160 -148c-28 0 -49 5 -63 14c-24 -79 -90 -121 -205 -121h-22c-156 0 -228 63 -228 190v258h113v-66c0 -28 7 -47 48 -47c42 0 48 19 48 47v135c0 28 -9 48 -50 49h-232v99h755v-99h-374c7 -13 11 -29 11 -49v-139c0 -97 -33 -147 -141 -147
c-21 0 -51 6 -65 17v-54c0 -58 32 -89 114 -89h13c84 0 119 31 119 89v153c0 97 36 148 159 148s160 -51 160 -148v-92zM609 255v92c0 30 -10 48 -53 48s-52 -19 -52 -48v-92c0 -29 9 -48 52 -48s53 18 53 48z" />
    <glyph glyph-name="dvG" horiz-adv-x="257" 
d="M293 665v-99h-71v-236c0 -104 -58 -155 -156 -155c-18 0 -36 3 -50 5v114c7 -2 21 -4 34 -4c37 0 54 16 54 50v226h-139v99h328z" />
    <glyph glyph-name="dvGH" horiz-adv-x="303" 
d="M340 244v14h118v-14c0 -123 -56 -185 -209 -185c-140 0 -206 53 -206 155v52c0 52 15 84 49 100c-31 19 -43 50 -43 96v56c0 21 5 36 15 48h-99v99h491v-99h-244c-35 0 -45 -18 -45 -48v-52c0 -28 9 -47 51 -48h42v-109h-46c-43 0 -53 -19 -53 -47v-34
c0 -48 34 -63 88 -63c69 0 91 18 91 79z" />
    <glyph glyph-name="dvNG" horiz-adv-x="517" 
d="M241 566h-282v99h593v-99h-193v-164h-163c-34 0 -44 -16 -44 -40v-9c0 -25 9 -41 44 -41h23c117 0 170 -45 170 -141v-32c0 -96 -56 -144 -176 -144s-178 47 -178 144v23h119v-19c0 -28 12 -46 58 -46c47 0 59 18 59 46v24c0 25 -9 45 -52 45h-23
c-105 0 -162 39 -162 135v21c0 97 53 136 162 136h45v62zM381 329c0 36 15 65 66 65c50 0 65 -29 65 -65c0 -37 -15 -66 -65 -66c-51 0 -66 29 -66 66zM394 -223h-123l-106 165h106z" />
    <glyph glyph-name="dvC" horiz-adv-x="298" 
d="M455 665v-99h-490v99h490zM335 247h119v-25c0 -115 -57 -166 -192 -166c-136 0 -191 51 -191 163v114c0 22 5 37 16 49h-74v106h258v-101h-35c-39 0 -47 -22 -47 -50v-114c0 -43 16 -63 73 -63s73 20 73 63v24z" />
    <glyph glyph-name="dvCH" horiz-adv-x="541" 
d="M339 499c100 0 161 -47 161 -145v-181c0 -118 -56 -169 -225 -169c-165 0 -229 47 -229 158v26c0 42 15 75 48 92c-31 17 -43 48 -43 95v130c0 26 7 46 20 61h-106v99h611v-99h-350c-49 0 -57 -24 -57 -63v-124c0 -28 8 -47 51 -47h70v-104h-66c-43 0 -59 -10 -59 -49
v-10c0 -46 15 -59 110 -59c94 0 110 21 110 69v155c0 48 -19 67 -68 67c-29 0 -49 -10 -49 -10v98s32 10 71 10z" />
    <glyph glyph-name="dvJ" horiz-adv-x="406" 
d="M509 665v-99h-544v99h544zM509 488v-101h-163c10 -17 14 -35 14 -58v-130c0 -96 -52 -151 -167 -151c-116 0 -168 56 -168 153v83h118v-81c0 -28 7 -48 50 -48c41 0 49 20 49 48v127c0 28 -9 50 -52 50h-66v108h385z" />
    <glyph glyph-name="dvJH" horiz-adv-x="436" 
d="M487 324v-93h-116c11 -15 16 -34 16 -56v-29c0 -97 -39 -144 -158 -144c-23 0 -56 6 -71 19v-90h-116v240h116v-17c0 -30 11 -47 56 -47c44 0 55 17 55 47v24c0 25 -8 44 -47 46h-9c-109 0 -170 39 -170 135v9c0 97 53 136 170 136h44v62h-292v99h522v-99h-112v-164h-162
c-41 0 -51 -12 -52 -34v-5c0 -25 9 -39 51 -39h275z" />
    <glyph glyph-name="dvNY" horiz-adv-x="403" 
d="M494 665v-99h-529v99h529zM494 329v-102h-129v-22c0 -95 -57 -152 -165 -152c-117 0 -165 57 -165 153v31h118v-27c0 -28 4 -48 47 -48c42 0 47 20 47 48v138c0 28 -5 49 -47 49c-43 0 -47 -21 -47 -49v-27h-118v31c0 97 48 154 165 154c116 0 165 -57 165 -154v-23h129z
" />
    <glyph glyph-name="dvTT" horiz-adv-x="410" 
d="M355 387h-146c-42 0 -50 -18 -50 -46v-192c0 -28 9 -48 52 -48c42 0 52 20 52 48v86h118v-86c0 -97 -54 -154 -170 -154c-117 0 -170 57 -170 154v196c0 104 52 149 168 149h28v72h-272v99h480v-99h-90v-179zM391 -223h-123l-106 165h106z" />
    <glyph glyph-name="dvTTH" horiz-adv-x="422" 
d="M381 361v-212c0 -97 -54 -154 -170 -154c-117 0 -170 57 -170 154v212c0 78 34 127 111 142v63h-187v99h491v-99h-186v-63c75 -15 111 -63 111 -142zM267 147v211c0 28 -12 50 -56 50s-56 -22 -56 -50v-211c0 -29 12 -51 56 -51s56 22 56 51zM395 -223h-123l-106 165h106
z" />
    <glyph glyph-name="dvDD" horiz-adv-x="425" 
d="M246 566h-281v99h494v-99h-94v-164h-164c-34 0 -44 -16 -44 -40v-9c0 -25 9 -41 44 -41h23c117 0 170 -45 170 -141v-32c0 -96 -55 -144 -176 -144c-120 0 -177 47 -177 144v23h118v-19c0 -28 12 -46 58 -46c47 0 59 18 59 46v24c0 25 -9 45 -52 45h-23
c-105 0 -162 39 -162 135v21c0 97 53 136 162 136h45v62zM403 -223h-123l-106 165h106z" />
    <glyph glyph-name="dvDDH" horiz-adv-x="427" 
d="M207 500h44v66h-286v99h497v-99h-95v-173h-160c-43 0 -50 -18 -50 -46v-186c0 -35 10 -58 61 -58s62 21 62 56v14c0 34 -17 43 -42 43c-20 0 -32 -8 -32 -8v105s19 8 48 8c90 0 139 -39 139 -144v-24c0 -105 -52 -158 -175 -158s-178 57 -178 162v194
c0 104 50 149 167 149zM403 -223h-123l-106 165h106z" />
    <glyph glyph-name="dvNN" horiz-adv-x="416" 
d="M451 665v-99h-75v-305c0 -96 -51 -153 -168 -153c-116 0 -168 57 -168 153v305h-75v99h486zM208 214c43 0 50 20 50 48v304h-100v-304c0 -28 8 -48 50 -48z" />
    <glyph glyph-name="dvT" horiz-adv-x="239" 
d="M358 665v-99h-393v99h393zM358 496v-109h-136c-50 0 -64 -24 -64 -56v-175c0 -36 17 -47 60 -46v-110c-9 -1 -21 -2 -28 -2c-115 0 -150 52 -150 147v190c0 104 50 161 182 161h136z" />
    <glyph glyph-name="dvTH" horiz-adv-x="382" 
d="M286 186c110 0 132 38 132 125h118c0 -173 -92 -234 -250 -234c-159 0 -248 66 -248 209v123h120c64 0 86 18 86 70v38c0 30 -5 47 -40 47c-33 0 -40 -17 -40 -47v-38h-112v34c0 98 42 157 149 157c108 0 150 -54 150 -152v-58c0 -101 -54 -154 -177 -154h-16v-16
c0 -70 22 -104 128 -104z" />
    <glyph glyph-name="dvD" horiz-adv-x="422" 
d="M34 212v136c0 109 55 149 171 149h45v69h-285v99h493v-99h-90v-176h-163c-44 0 -53 -17 -53 -46v-128c0 -29 10 -47 55 -47c44 0 54 17 54 47v60h118v-278h-118v83c-19 -11 -47 -16 -70 -16c-109 0 -157 50 -157 147zM504 -223h-123l-106 165h106z" />
    <glyph glyph-name="dvDH" horiz-adv-x="308" 
d="M345 244v13h118v-13c0 -123 -58 -185 -212 -185c-140 0 -208 53 -208 155v53c0 52 15 85 49 100c-31 19 -43 50 -43 96v55c0 21 5 36 15 48h-99v99h259v-99h-12c-35 0 -45 -18 -45 -48v-51c0 -28 9 -47 51 -47h42v-109h-46c-43 0 -53 -20 -53 -48v-35
c0 -48 36 -63 90 -63c69 0 94 18 94 79z" />
    <glyph glyph-name="dvN" horiz-adv-x="392" 
d="M489 665v-99h-524v99h524zM489 488v-109h-148c7 -11 9 -26 9 -42v-131c0 -97 -44 -151 -157 -151s-158 54 -158 151v131c0 96 45 151 158 151h296zM239 207v126c0 28 -8 46 -46 46s-46 -18 -46 -46v-126c0 -28 8 -47 46 -47s46 19 46 47z" />
    <glyph glyph-name="dvP" horiz-adv-x="244" 
d="M285 334h110v-57c0 -110 -62 -159 -173 -159c-118 0 -181 49 -181 159v289h-76v99h430v-99h-236v-285c0 -35 10 -58 63 -58s63 22 63 58v53z" />
    <glyph glyph-name="dvPH" horiz-adv-x="468" 
d="M380 566v-86c17 12 46 18 76 18c116 0 157 -53 157 -145v-9h-106v9c0 27 -15 45 -63 45s-64 -18 -64 -50v-348h-118v121c-18 -11 -44 -16 -66 -16c-108 0 -154 51 -154 147v314h-77v99h648v-99h-233zM262 566h-101v-310c0 -28 9 -46 50 -46s51 17 51 46v310z" />
    <glyph glyph-name="dvB" horiz-adv-x="263" 
d="M-35 566v99h456v-99h-456zM405 222c0 -108 -57 -164 -183 -164c-132 0 -187 59 -187 164v120c0 105 48 164 187 164c126 0 183 -56 183 -164v-120zM300 337c0 47 -19 71 -76 71c-37 0 -58 -10 -68 -29l144 -118v76zM147 226c0 -45 19 -70 77 -70c38 0 59 10 69 31
l-146 119v-80z" />
    <glyph glyph-name="dvBH" horiz-adv-x="428" 
d="M509 423v-100h-146v-123c0 -89 -47 -144 -162 -144c-116 0 -163 55 -163 144v81c0 88 47 142 163 142h49v91c0 28 -6 47 -46 47c-41 0 -46 -20 -46 -47v-38h-118v41c0 97 49 153 164 153c114 0 164 -56 164 -153v-94h141zM250 203v120h-49c-42 0 -49 -18 -49 -46v-74
c0 -27 7 -46 49 -46c41 0 49 18 49 46z" />
    <glyph glyph-name="dvM" horiz-adv-x="413" 
d="M500 441v-100h-148v-141c0 -88 -47 -143 -162 -143c-116 0 -163 55 -163 143v99c0 89 47 142 163 142h49v125h-274v99h535v-99h-148v-125h148zM239 204v137h-49c-42 0 -49 -18 -49 -46v-91c0 -28 7 -46 49 -46c41 0 49 18 49 46z" />
    <glyph glyph-name="dvY" horiz-adv-x="321" 
d="M471 291v-17c0 -127 -79 -188 -216 -188c-152 0 -218 61 -218 188v119h6c87 0 112 7 112 81v40c0 32 -13 52 -50 52h-140v99h506v-99h-215c8 -13 14 -29 14 -52v-47c0 -103 -39 -140 -117 -149v-29c0 -62 16 -93 102 -93c87 0 106 39 106 91v4h110z" />
    <glyph glyph-name="dvR" horiz-adv-x="424" 
d="M-35 566v99h494v-99h-89c10 -10 16 -29 16 -49v-90c0 -97 -46 -148 -155 -148c-19 0 -52 6 -67 18v-145c0 -28 11 -48 53 -48c43 0 54 20 54 48v39h118v-42c0 -97 -54 -154 -171 -154c-116 0 -172 57 -172 154v321h118v-39c0 -28 9 -48 52 -48c42 0 52 20 52 48v86
c0 28 -10 49 -52 49h-251zM399 -223h-123l-106 165h106z" />
    <glyph glyph-name="dvL" horiz-adv-x="447" 
d="M597 665v-99h-632v99h632zM40 171v165c0 97 52 154 163 154c67 0 100 -28 114 -52c17 24 50 52 117 52c111 0 163 -57 163 -161v-26h-111v22c0 36 -10 56 -56 56c-43 0 -55 -20 -55 -56v-114h-118v121c0 29 -8 49 -50 49c-41 0 -49 -20 -49 -49v-159c0 -39 9 -70 78 -70
h60l1 -103h-67c-140 0 -190 55 -190 171z" />
    <glyph glyph-name="dvV" horiz-adv-x="260" 
d="M410 665v-99h-445v99h445zM245 499v-101c-2 1 -15 2 -30 2c-44 0 -61 -16 -61 -50v-134c0 -37 13 -58 73 -58c59 0 73 21 73 58v21h111v-23c0 -100 -56 -158 -187 -158c-140 0 -186 58 -186 158v137c0 96 47 150 172 150c17 0 34 -2 35 -2z" />
    <glyph glyph-name="dvSH" horiz-adv-x="424" 
d="M387 516v-118c0 -97 -46 -149 -155 -149c-19 0 -54 5 -67 15v-112c0 -28 11 -48 53 -48c43 0 54 20 54 48v29h118v-32c0 -97 -55 -154 -172 -154c-116 0 -171 57 -171 154v263h118v-16c1 -25 12 -42 52 -42c43 0 52 19 52 47v111c0 28 -9 49 -52 49s-52 -21 -52 -49v-39
h-118v43c0 97 53 154 170 154c116 0 170 -57 170 -154z" />
    <glyph glyph-name="dvSS" horiz-adv-x="276" 
d="M410 252v-34c-33 -56 -85 -103 -188 -103c-138 0 -182 63 -182 160v291h-75v99h459v-99h-266v-55zM230 219c42 0 64 16 75 40l-147 151v-130c0 -36 13 -61 72 -61z" />
    <glyph glyph-name="dvS" horiz-adv-x="411" 
d="M487 374v-102h-167c-24 -16 -49 -25 -93 -25c-19 0 -53 5 -68 18v-115c0 -28 8 -48 51 -48s51 20 51 48v26h116v-27c0 -97 -50 -154 -167 -154s-167 57 -167 154v308h116v-58c0 -28 6 -47 48 -47c41 0 47 19 47 47v118c0 27 -9 49 -48 49h-241v99h522v-99h-134
c12 -14 17 -35 17 -59v-112c0 -6 -1 -16 -2 -21h119z" />
    <glyph glyph-name="dvH" horiz-adv-x="423" 
d="M499 327v-98h-287c-42 0 -53 -19 -53 -47v-30c0 -37 21 -56 78 -56c65 0 104 4 152 13v-100c-45 -10 -98 -16 -160 -16c-130 0 -188 56 -188 152v33c0 48 16 78 46 97c-29 16 -45 43 -46 88v17c0 91 53 127 162 127h58v59h-296v99h534v-99h-120v-161h-176
c-33 0 -44 -11 -44 -34v-10c0 -23 12 -34 44 -34h296z" />
    <glyph glyph-name="dvLL" horiz-adv-x="441" 
d="M610 566h-645v99h645v-99zM45 148v195c1 97 47 150 159 150c49 0 87 -16 112 -46c24 30 61 46 111 46c111 0 154 -56 154 -153v-192c0 -96 -43 -153 -154 -153c-49 0 -87 16 -111 47c-24 -31 -63 -47 -112 -47c-112 0 -159 57 -159 153zM254 149v190c0 29 -9 51 -51 51
c-43 0 -51 -22 -51 -51v-190c0 -29 8 -50 51 -50c42 0 51 21 51 50zM371 339v-189c0 -30 9 -51 52 -51s51 21 51 51v189c0 29 -8 51 -51 51s-52 -22 -52 -51z" />
    <glyph glyph-name="dvK_SS" horiz-adv-x="472" 
d="M569 423v-98h-352c-47 0 -52 -24 -52 -60v-62c0 -28 9 -48 49 -48s50 18 50 45v45h112v-245h-112v67c-19 -10 -42 -15 -69 -15c-107 0 -151 56 -151 152v77c0 44 13 82 55 101c-24 15 -34 47 -34 99v39c0 97 50 150 160 150c111 0 157 -53 157 -150v-40
c0 -32 -3 -47 -10 -57h197zM270 466v54c0 28 -5 48 -45 48c-39 0 -45 -20 -45 -48v-54c0 -27 6 -48 45 -48c40 0 45 20 45 48z" />
    <glyph glyph-name="dvJ_NY" horiz-adv-x="425" 
d="M545 665v-99h-580v99h580zM41 283h114v-48c0 -28 5 -48 49 -48s50 20 50 48v95c0 28 -10 50 -52 50h-69v108h412v-101h-187c9 -17 14 -36 14 -58v-100c0 -102 -56 -150 -146 -150c-32 0 -50 3 -71 12v-91h-114v283z" />
    <glyph glyph-name="dvKx" horiz-adv-x="444" 
d="M604 358v-6h-105v6c0 27 -14 45 -63 45c-50 0 -62 -20 -62 -50v-353h-116v73c-14 -10 -40 -17 -66 -17c-105 0 -150 47 -150 143v158c0 97 45 148 150 148c26 0 52 -7 66 -18v79h-287v99h671v-99h-268v-80c16 11 40 17 75 17c115 0 155 -53 155 -145zM207 154
c42 0 51 20 51 48v151c0 30 -8 50 -51 50s-52 -20 -52 -50v-149c0 -30 9 -50 52 -50zM73 -48c0 37 14 66 65 66c50 0 66 -29 66 -66c0 -36 -16 -65 -66 -65c-51 0 -65 29 -65 65z" />
    <glyph glyph-name="dvKHx" horiz-adv-x="739" 
d="M720 255c0 -99 -36 -148 -159 -148c-28 0 -49 5 -63 14c-24 -79 -90 -121 -205 -121h-22c-157 0 -228 63 -228 190v258h113v-66c0 -28 6 -47 48 -47c41 0 48 19 48 47v135c0 28 -9 48 -51 49h-234v99h758v-99h-374c7 -13 11 -29 11 -49v-139c0 -97 -33 -147 -141 -147
c-21 0 -51 6 -65 17v-54c0 -58 31 -89 114 -89h13c84 0 119 31 119 89v153c0 97 36 148 159 148s159 -51 159 -148v-92zM614 255v92c0 30 -10 48 -53 48s-53 -19 -53 -48v-92c0 -29 10 -48 53 -48s53 18 53 48zM-18 -69c0 37 14 65 64 65s65 -28 65 -65s-15 -65 -65 -65
s-64 28 -64 65z" />
    <glyph glyph-name="dvGx" horiz-adv-x="259" 
d="M293 665v-99h-71v-236c0 -104 -58 -155 -156 -155c-18 0 -36 3 -50 5v114c7 -2 21 -4 34 -4c37 0 54 16 54 50v226h-139v99h328zM62 44c0 36 14 65 65 65c50 0 65 -29 65 -65c0 -37 -15 -66 -65 -66c-51 0 -65 29 -65 66z" />
    <glyph glyph-name="dvJx" horiz-adv-x="411" 
d="M509 665v-99h-544v99h544zM509 488v-101h-163c10 -17 14 -35 14 -58v-130c0 -96 -52 -151 -167 -151c-116 0 -168 56 -168 153v83h118v-81c0 -28 7 -48 50 -48c41 0 49 20 49 48v127c0 28 -9 50 -52 50h-66v108h385zM128 -72c0 36 15 65 66 65c50 0 65 -29 65 -65
c0 -37 -16 -66 -66 -66c-51 0 -65 29 -65 66z" />
    <glyph glyph-name="dvNx" horiz-adv-x="397" 
d="M495 665v-99h-530v99h530zM495 488v-109h-148c6 -11 9 -26 9 -42v-131c0 -97 -44 -151 -157 -151s-159 54 -159 151v131c0 96 46 151 159 151h296zM244 207v126c0 28 -8 46 -45 46c-38 0 -46 -18 -46 -46v-126c0 -28 8 -47 46 -47c37 0 45 19 45 47zM-23 -46
c0 37 14 66 65 66c50 0 66 -29 66 -66c0 -36 -16 -65 -66 -65c-51 0 -65 29 -65 65z" />
    <glyph glyph-name="dvPHx" horiz-adv-x="481" 
d="M391 566v-86c17 12 46 18 76 18c116 0 157 -53 157 -145v-9h-105v9c-1 27 -15 45 -64 45c-48 0 -64 -18 -64 -50v-348h-118v121c-18 -11 -44 -16 -66 -16c-108 0 -154 51 -154 147v314h-79v99h650v-99h-233zM273 566h-101v-310c0 -28 9 -46 50 -46s51 17 51 46v310z
M26 -14c0 36 14 65 65 65c50 0 65 -29 65 -65c0 -37 -15 -66 -65 -66c-51 0 -65 29 -65 66z" />
    <glyph glyph-name="dvYx" horiz-adv-x="327" 
d="M477 291v-17c0 -127 -79 -188 -216 -188c-152 0 -218 61 -218 188v119h6c87 0 112 7 112 81v40c0 32 -13 52 -50 52h-140v99h506v-99h-215c8 -13 14 -29 14 -52v-47c0 -103 -39 -140 -117 -149v-29c0 -62 16 -93 102 -93c87 0 106 39 106 91v4h110zM1 5c0 36 13 65 63 65
c51 0 66 -29 66 -65c0 -37 -15 -66 -66 -66c-49 0 -63 29 -63 66z" />
    <glyph glyph-name="dvK_RA" horiz-adv-x="633" 
d="M32 -43l96 132c-55 13 -79 48 -79 119v149c0 97 45 148 150 148c21 0 52 -6 66 -18v79h-300v99h703v-99h-287v-78c15 11 46 17 66 17c105 0 149 -53 149 -148v-147c0 -95 -39 -147 -145 -147c-7 0 -16 1 -20 2v110c43 -1 52 10 52 46v132c0 29 -8 50 -51 50
s-51 -20 -51 -50v-353h-116v99c-2 -1 -3 -2 -5 -4l-96 -138h-132zM214 165c42 0 51 17 52 46v142c0 30 -9 50 -52 50s-52 -20 -52 -50v-140c0 -30 9 -48 52 -48z" />
    <glyph glyph-name="dvKH_RA" horiz-adv-x="777" 
d="M62 -83l161 104c-134 4 -183 59 -183 169v258h113v-66c0 -28 7 -47 48 -47c42 0 48 19 48 47v135c0 28 -9 48 -51 49h-233v99h847v-99h-86v-566h-115v121c-14 -11 -39 -14 -60 -14c-25 0 -45 2 -62 8c-8 -31 -25 -53 -50 -71l-205 -145l-172 15v3zM399 194v152
c0 97 32 152 147 152c22 0 49 -5 65 -15v83h-263c7 -13 11 -29 11 -49v-139c0 -97 -33 -147 -141 -147c-21 0 -51 6 -65 17v-54c0 -58 32 -86 114 -86h13c84 0 119 28 119 86zM558 395c-43 0 -52 -19 -52 -48v-97c0 -26 11 -43 52 -43c43 0 53 19 53 48v92
c0 29 -10 48 -53 48z" />
    <glyph glyph-name="dvG_RA" horiz-adv-x="489" 
d="M-35 566v99h559v-99h-86v-566h-112v41c0 62 6 118 13 144h-2c-15 -30 -49 -74 -86 -116l-58 -69h-138l265 325v241h-99v-195c0 -96 -53 -163 -167 -163c-15 0 -40 2 -40 2v114s27 -1 40 -1c41 0 49 23 49 50v193h-138z" />
    <glyph glyph-name="dvGH_RA" horiz-adv-x="503" 
d="M22 -50l1 2l140 145c-80 13 -118 58 -118 135v42c0 45 17 83 51 99c-31 19 -45 45 -45 98v47c0 21 5 36 15 48h-101v99h573v-99h-86v-566h-118v117l-161 -167h-151zM334 566h-117c-37 0 -48 -17 -48 -48v-43c0 -28 8 -47 51 -47h41v-109h-46c-43 0 -52 -20 -52 -49v-25
c0 -48 28 -63 81 -63c57 0 90 16 90 73v311z" />
    <glyph glyph-name="dvC_RA" horiz-adv-x="483" 
d="M50 -21l109 127c-58 16 -86 55 -86 132v93c0 22 5 38 16 49h-66v107h250v-102h-33c-39 -1 -48 -22 -48 -49v-95c0 -33 13 -54 61 -54c49 0 62 21 62 54v325h-350v99h554v-99h-86v-566h-118v123c-2 -1 -3 -3 -5 -4l-121 -140h-139z" />
    <glyph glyph-name="dvJ_RA" horiz-adv-x="623" 
d="M173 -57l1 3l281 307v134h-113c10 -17 14 -35 14 -58v-61c0 -96 -52 -152 -167 -152c-116 0 -168 57 -168 154v38h118v-34c0 -28 7 -49 50 -49c41 0 49 21 49 49v56c0 28 -9 50 -51 50h-67v108h335v78h-490v99h694v-99h-87v-566h-117v11c0 16 -2 51 4 103l-1 1
c-12 -32 -40 -63 -74 -99l-71 -73h-140z" />
    <glyph glyph-name="dvJH_RA" horiz-adv-x="710" 
d="M552 -8v18c0 20 0 53 6 96h-2c-11 -31 -28 -61 -62 -104l-67 -85h-133l227 288l-1 26h-161c12 -15 17 -34 17 -56v-29c0 -97 -31 -144 -151 -144c-22 0 -52 4 -66 16v-87h-116v240h116v-17c0 -30 9 -47 50 -47c40 0 49 17 49 47v24c0 25 -9 46 -49 46h-2
c-92 0 -154 35 -154 135v9c0 97 54 136 162 136h121v62h-371v99h781v-99h-87v-574h-107zM454 402h-239c-32 0 -44 -12 -44 -37v-4c0 -25 12 -37 44 -37h327v242h-88v-164z" />
    <glyph glyph-name="dvNY_RA" horiz-adv-x="639" 
d="M465 233l-1 21h-92v-21c-7 -84 -57 -133 -165 -133c-116 0 -165 57 -165 153v22h118v-18c0 -28 5 -48 47 -48c43 0 47 20 47 48v98c0 28 -4 48 -47 48c-42 0 -47 -20 -47 -48v-21h-118v24c0 97 49 154 165 154c113 0 162 -54 165 -145v-13h98v212h-505v99h709v-99h-86
v-566h-118v29c0 19 -1 45 5 88h-1c-12 -32 -26 -62 -62 -105l-76 -84h-136z" />
    <glyph glyph-name="dvNN_RA" horiz-adv-x="642" 
d="M399 71l-69 -71h-140l283 318v248h-94v-204c0 -96 -52 -153 -169 -153c-116 0 -168 57 -168 153v204h-77v99h712v-99h-86v-566h-118v42c0 70 6 113 12 143h-1c-15 -31 -48 -73 -85 -114zM210 318c43 0 50 20 50 48v200h-99v-200c0 -28 7 -48 49 -48z" />
    <glyph glyph-name="dvT_RA" horiz-adv-x="483" 
d="M33 27v3l266 294c11 13 14 19 15 27c0 21 -12 40 -80 40c-67 0 -85 -25 -85 -69v-54h-115v62c0 106 52 168 185 168c50 0 84 -11 95 -23v91h-349v99h553v-99h-86v-566h-111v72c0 41 3 111 7 140h-1c-14 -30 -44 -71 -63 -92l-84 -93h-147z" />
    <glyph glyph-name="dvTH_RA" horiz-adv-x="590" 
d="M45 -47l1 3l173 144c-118 15 -173 80 -173 193v117h121c64 0 84 19 84 72v36c0 29 -5 46 -39 46s-40 -17 -40 -46v-40h-113v35c0 98 42 157 150 157c107 0 149 -54 149 -152v-55c0 -101 -52 -156 -175 -156h-16v-10c0 -73 26 -108 130 -108c99 0 124 40 124 125v351h204
v-99h-86v-566h-118v131l-206 -178h-170z" />
    <glyph glyph-name="dvD_RA" horiz-adv-x="428" 
d="M28 -65l100 155c-61 14 -88 52 -88 125v133c0 109 55 149 171 149h44v69h-290v99h499v-99h-90v-176h-163c-44 0 -53 -17 -53 -46v-126c0 -28 10 -46 54 -46c45 0 55 17 55 46v58h117v-278h-117v104c-1 -1 -3 -2 -4 -3l-106 -164h-129z" />
    <glyph glyph-name="dvDH_RA" horiz-adv-x="502" 
d="M22 -50v2l141 145c-81 14 -119 58 -119 135v45c0 52 15 85 49 101c-31 18 -43 50 -43 96v44c0 21 5 36 15 48h-100v99h286v-99h-35c-36 0 -48 -17 -48 -48v-41c0 -28 9 -47 51 -47h42v-109h-46c-43 0 -53 -20 -53 -48v-28c0 -48 28 -63 81 -63c58 0 91 16 91 73v410h204
v-99h-86v-566h-118v118l-162 -168h-150z" />
    <glyph glyph-name="dvN_RA" horiz-adv-x="612" 
d="M443 379h-100c6 -11 8 -26 8 -42v-40c0 -97 -43 -152 -156 -152c-114 0 -159 55 -159 152v40c0 96 45 151 159 151h248v78h-478v99h682v-99h-86v-566h-111v14c0 38 1 89 5 128h-1c-5 -18 -40 -71 -73 -108l-62 -71h-138l262 308v108zM240 297v36c0 28 -8 46 -45 46
c-38 0 -46 -18 -46 -46v-36c0 -27 8 -46 46 -46c37 0 45 18 45 46z" />
    <glyph glyph-name="dvP_RA" horiz-adv-x="445" 
d="M15 0l121 184c-66 15 -89 59 -89 134v248h-82v99h515v-99h-86v-566h-118v194l-129 -194h-132zM276 566h-111v-245c0 -28 9 -48 56 -48c46 0 55 20 55 48v245z" />
    <glyph glyph-name="dvPH_RA" horiz-adv-x="639" 
d="M22 -5l111 176c-57 14 -83 51 -83 123v272h-85v99h709v-99h-287v-82c17 10 42 17 65 17c108 0 152 -57 152 -153v-139c0 -95 -44 -147 -150 -146c-6 0 -13 0 -17 1v109c40 0 49 14 49 47v125c0 28 -8 47 -49 47s-50 -19 -50 -46v-346h-118v180l-117 -185h-130zM269 566
h-101v-268c0 -28 9 -46 51 -46c41 0 50 18 50 46v268z" />
    <glyph glyph-name="dvB_RA" horiz-adv-x="457" 
d="M37 -41l105 120c-75 15 -106 61 -106 141v130c0 100 49 156 170 156c34 0 68 -8 86 -22v82h-327v99h528v-99h-86v-566h-116v94c-2 -2 -5 -4 -8 -5l-113 -130h-133zM220 408c-36 0 -55 -11 -64 -28l136 -110v73c0 39 -14 65 -72 65zM220 163c38 0 57 11 66 29l-137 111
v-76c0 -38 13 -64 71 -64z" />
    <glyph glyph-name="dvBH_RA" horiz-adv-x="633" 
d="M464 253v91h-98v-77c0 -89 -49 -144 -163 -144c-115 0 -163 55 -163 144v34c0 89 48 143 163 143h49v70c0 28 -5 47 -46 47c-40 0 -46 -20 -46 -47v-26h-118v29c0 97 50 153 164 153c115 0 164 -56 164 -153v-73h94v221h204v-99h-86v-572h-111v12c0 33 3 86 10 129h-2
c-7 -21 -35 -72 -73 -115l-66 -75h-139zM252 270v74h-49c-41 0 -49 -18 -49 -46v-28c0 -27 8 -46 49 -46c42 0 49 18 49 46z" />
    <glyph glyph-name="dvM_RA" horiz-adv-x="604" 
d="M437 -6v22c0 19 2 64 9 110c-1 1 -2 1 -2 1c-7 -22 -34 -70 -73 -114l-65 -74h-138l269 307v119h-90v-95c0 -89 -46 -145 -162 -145c-115 0 -162 56 -162 144v53c0 89 47 143 163 143h47v101h-268v99h674v-99h-86v-572h-116zM347 465h90v101h-90v-101zM233 274v91h-47
c-42 0 -49 -18 -49 -46v-46c0 -28 7 -47 48 -47c42 0 48 20 48 48z" />
    <glyph glyph-name="dvY_RA" horiz-adv-x="519" 
d="M46 -4l136 130c-93 17 -145 76 -145 175v114h23c78 0 95 13 95 66v26c0 32 -7 59 -50 59h-140v99h589v-99h-86v-566h-118v149c-2 -1 -4 -3 -6 -4l-148 -149h-150zM250 230c79 0 100 32 100 87v249h-95c10 -14 15 -32 15 -59v-49c0 -78 -39 -117 -117 -121v-20
c0 -55 20 -87 97 -87z" />
    <glyph glyph-name="dvV_RA" horiz-adv-x="447" 
d="M18 -29l120 133c-67 14 -93 54 -93 129v122c0 97 46 151 160 151c28 0 59 -7 74 -17v77h-314v99h518v-99h-86v-566h-119v116c-1 -1 -2 -2 -3 -2l-128 -143h-129zM284 234v122c-1 33 -19 49 -62 49c-45 0 -62 -17 -62 -50v-120c0 -33 17 -51 62 -51c43 0 61 17 62 50z" />
    <glyph glyph-name="dvSH_RA" horiz-adv-x="616" 
d="M447 0v205c-12 -22 -34 -56 -70 -91l-98 -105l-140 8l174 182l-89 65l-83 -83l-132 19l129 128c-66 51 -87 86 -87 160v32c0 97 50 150 161 150c110 0 157 -53 157 -150v-32c0 -70 -22 -100 -70 -148l87 -65l61 64v326h204v-99h-86v-566h-118zM257 478v42
c0 28 -6 48 -45 48c-40 0 -45 -20 -45 -48v-42c0 -35 19 -50 45 -70c24 20 45 35 45 70z" />
    <glyph glyph-name="dvS_RA" horiz-adv-x="670" 
d="M375 158l-124 20l172 140h-102c-22 -17 -54 -25 -89 -25c-27 0 -53 4 -72 17v-124c0 -51 16 -79 82 -79h144v-107h-144c-147 0 -197 57 -197 184v298h115v-37c0 -28 6 -48 48 -48c41 0 47 20 47 48v72c0 27 -8 49 -48 49h-242v99h741v-99h-86v-566h-111v123
c0 56 -3 104 6 167h-2c-15 -22 -45 -50 -76 -77zM369 419h133v147h-148c13 -13 17 -35 17 -59v-65c0 -7 -1 -18 -2 -23z" />
    <glyph glyph-name="dvH_RA" horiz-adv-x="514" 
d="M41 143v54c0 47 16 72 46 91c-29 16 -45 46 -46 91v9c0 91 53 122 162 122h99v56h-337v99h585v-99h-130v-153h-217c-33 0 -44 -11 -44 -34v-8c0 -24 12 -35 44 -35h149c98 0 135 -35 135 -122v-46h-105v36c0 15 -2 25 -8 32l-79 -107l-100 9l81 109h-64
c-42 0 -53 -18 -53 -46v-51c0 -46 21 -72 120 -72c80 0 145 10 193 20v-101c-37 -11 -124 -22 -201 -22c-172 0 -230 63 -230 168z" />
    <glyph glyph-name="dvKx_RA" horiz-adv-x="633" 
d="M32 -43l96 132c-55 13 -79 48 -79 119v149c0 97 45 148 150 148c21 0 52 -6 66 -18v79h-300v99h703v-99h-287v-78c15 11 46 17 66 17c105 0 149 -53 149 -148v-147c0 -95 -39 -147 -145 -147c-7 0 -16 1 -20 2v110c43 -1 52 10 52 46v132c0 29 -8 50 -51 50
s-51 -20 -51 -50v-353h-116v99c-2 -1 -3 -2 -5 -4l-96 -138h-132zM214 165c42 0 51 17 52 46v142c0 30 -9 50 -52 50s-52 -20 -52 -50v-140c0 -30 9 -48 52 -48zM188 -112c0 36 14 65 65 65c50 0 65 -29 65 -65c0 -37 -15 -66 -65 -66c-51 0 -65 29 -65 66z" />
    <glyph glyph-name="dvKHx_RA" horiz-adv-x="779" 
d="M62 -83l161 104c-134 4 -183 59 -183 169v258h113v-66c0 -28 7 -47 48 -47c42 0 48 19 48 47v135c0 28 -9 48 -51 49h-233v99h847v-99h-86v-566h-115v121c-14 -11 -39 -14 -60 -14c-25 0 -45 2 -62 8c-8 -31 -25 -53 -50 -71l-205 -145l-172 15v3zM399 194v152
c0 97 32 152 147 152c22 0 49 -5 65 -15v83h-263c7 -13 11 -29 11 -49v-139c0 -97 -33 -147 -141 -147c-21 0 -51 6 -65 17v-54c0 -58 32 -86 114 -86h13c84 0 119 28 119 86zM558 395c-43 0 -52 -19 -52 -48v-97c0 -26 11 -43 52 -43c43 0 53 19 53 48v92
c0 29 -10 48 -53 48zM433 -67c0 36 14 65 65 65c50 0 65 -29 65 -65c0 -37 -15 -66 -65 -66c-51 0 -65 29 -65 66z" />
    <glyph glyph-name="dvGx_RA" horiz-adv-x="489" 
d="M-35 566v99h559v-99h-86v-566h-112v41c0 62 6 118 13 144h-2c-15 -30 -49 -74 -86 -116l-58 -69h-138l265 325v241h-99v-195c0 -96 -53 -163 -167 -163c-15 0 -40 2 -40 2v114s27 -1 40 -1c41 0 49 23 49 50v193h-138zM197 -95c0 36 14 65 65 65c50 0 65 -29 65 -65
c0 -37 -15 -66 -65 -66c-51 0 -65 29 -65 66z" />
    <glyph glyph-name="dvGHx_RA" horiz-adv-x="503" 
d="M22 -50l1 2l140 145c-80 13 -118 58 -118 135v42c0 45 17 83 51 99c-31 19 -45 45 -45 98v47c0 21 5 36 15 48h-101v99h573v-99h-86v-566h-118v117l-161 -167h-151zM334 566h-117c-37 0 -48 -17 -48 -48v-43c0 -28 8 -47 51 -47h41v-109h-46c-43 0 -52 -20 -52 -49v-25
c0 -48 28 -63 81 -63c57 0 90 16 90 73v311zM213 -120c0 36 14 65 65 65c50 0 65 -29 65 -65c0 -37 -15 -66 -65 -66c-51 0 -65 29 -65 66z" />
    <glyph glyph-name="dvNGx_RA" horiz-adv-x="626" 
d="M357 -112l-45 107h-8l-45 -107h-122l64 130c-42 23 -63 63 -63 121v23h118v-19c0 -28 12 -46 58 -46c47 0 59 18 59 46v24c0 25 -9 45 -52 45h-23c-105 0 -162 39 -162 135v21c0 97 53 136 162 136h45v62h-378v99h697v-99h-200v-164h-164c-34 0 -44 -16 -44 -40v-9
c0 -25 9 -41 44 -41h23c117 0 170 -45 170 -141v-32c0 -63 -23 -105 -73 -127l60 -124h-121zM484 329c0 36 14 65 65 65c50 0 65 -29 65 -65c0 -37 -15 -66 -65 -66c-51 0 -65 29 -65 66zM-8 -3c0 37 13 66 64 66c50 0 65 -29 65 -66c0 -36 -15 -65 -65 -65
c-51 0 -64 29 -64 65z" />
    <glyph glyph-name="dvCx_RA" horiz-adv-x="483" 
d="M50 -21l109 127c-58 16 -86 55 -86 132v93c0 22 5 38 16 49h-66v107h250v-102h-33c-39 -1 -48 -22 -48 -49v-95c0 -33 13 -54 61 -54c49 0 62 21 62 54v325h-350v99h554v-99h-86v-566h-118v123c-2 -1 -3 -3 -5 -4l-121 -140h-139zM200 -114c0 36 14 65 65 65
c50 0 65 -29 65 -65c0 -37 -15 -66 -65 -66c-51 0 -65 29 -65 66z" />
    <glyph glyph-name="dvCHx_RA" horiz-adv-x="604" 
d="M383 -111l-48 115h-2l-48 -115h-121l61 125c-85 19 -120 66 -120 148v26c0 42 15 75 49 92c-32 17 -44 48 -44 95v130c0 26 7 46 20 61h-165v99h675v-99h-140v-85c44 -19 59 -62 59 -127v-181c0 -88 -30 -138 -116 -159l61 -125h-121zM444 179v155c0 48 -18 67 -63 67
c-37 0 -54 -10 -54 -10v98s25 10 63 10v67h-105c-48 0 -57 -24 -57 -63v-124c0 -28 9 -47 51 -47h70v-104h-66c-43 0 -59 -10 -59 -49v-10c0 -46 16 -59 110 -59s110 21 110 69zM-9 -28c0 37 14 66 64 66s66 -29 66 -66c0 -36 -16 -65 -66 -65c-49 0 -64 29 -64 65z" />
    <glyph glyph-name="dvJx_RA" horiz-adv-x="623" 
d="M173 -57l1 3l281 307v134h-113c10 -17 14 -35 14 -58v-61c0 -96 -52 -152 -167 -152c-116 0 -168 57 -168 154v38h118v-34c0 -28 7 -49 50 -49c41 0 49 21 49 49v56c0 28 -9 50 -51 50h-67v108h335v78h-490v99h694v-99h-87v-566h-117v11c0 16 -2 51 4 103l-1 1
c-12 -32 -40 -63 -74 -99l-71 -73h-140zM-10 2c0 36 14 65 65 65c50 0 65 -29 65 -65c0 -37 -15 -66 -65 -66c-51 0 -65 29 -65 66z" />
    <glyph glyph-name="dvJHx_RA" horiz-adv-x="711" 
d="M552 -8v18c0 20 0 53 6 96h-2c-11 -31 -28 -61 -62 -104l-67 -85h-133l227 288l-1 26h-161c12 -15 17 -34 17 -56v-29c0 -97 -31 -144 -151 -144c-22 0 -52 4 -66 16v-87h-116v240h116v-17c0 -30 9 -47 50 -47c40 0 49 17 49 47v24c0 25 -9 46 -49 46h-2
c-92 0 -154 35 -154 135v9c0 97 54 136 162 136h121v62h-371v99h781v-99h-87v-574h-107zM454 402h-239c-32 0 -44 -12 -44 -37v-4c0 -25 12 -37 44 -37h327v242h-88v-164zM160 -175c0 36 14 65 65 65c50 0 65 -29 65 -65c0 -37 -15 -66 -65 -66c-51 0 -65 29 -65 66z" />
    <glyph glyph-name="dvNYx_RA" horiz-adv-x="639" 
d="M465 233l-1 21h-92v-21c-7 -84 -57 -133 -165 -133c-116 0 -165 57 -165 153v22h118v-18c0 -28 5 -48 47 -48c43 0 47 20 47 48v98c0 28 -4 48 -47 48c-42 0 -47 -20 -47 -48v-21h-118v24c0 97 49 154 165 154c113 0 162 -54 165 -145v-13h98v212h-505v99h709v-99h-86
v-566h-118v29c0 19 -1 45 5 88h-1c-12 -32 -26 -62 -62 -105l-76 -84h-136zM13 -5c0 36 14 65 65 65c50 0 65 -29 65 -65c0 -37 -15 -66 -65 -66c-51 0 -65 29 -65 66z" />
    <glyph glyph-name="dvTTx_RA" horiz-adv-x="540" 
d="M387 -112l-45 107h-2h-5l-45 -107h-122l64 132c-42 25 -62 69 -62 128v197c0 104 52 149 169 149h27v72h-401v99h610v-99h-91v-179h-145c-43 0 -51 -18 -51 -46v-192c0 -28 9 -48 52 -48s52 20 52 48v86h118v-87c0 -60 -21 -104 -64 -130l63 -130h-122zM22 -6
c0 37 15 65 66 65c50 0 65 -28 65 -65s-15 -65 -65 -65c-51 0 -66 28 -66 65z" />
    <glyph glyph-name="dvTTHx_RA" horiz-adv-x="555" 
d="M394 -114l-46 109h-6l-46 -109h-121l64 132c-44 25 -65 70 -65 131v212c0 78 35 127 111 142v63h-320v99h626v-99h-188v-63c76 -15 111 -63 111 -142v-212c0 -60 -20 -105 -64 -130l65 -133h-121zM400 147v211c0 28 -11 50 -56 50c-44 0 -55 -22 -55 -50v-211
c0 -29 11 -51 55 -51c45 0 56 22 56 51zM24 3c0 36 15 65 66 65c50 0 65 -29 65 -65c0 -37 -15 -66 -65 -66c-51 0 -66 29 -66 66z" />
    <glyph glyph-name="dvDDx_RA" horiz-adv-x="546" 
d="M382 -112l-45 107h-8l-45 -107h-121l63 129c-44 23 -65 63 -65 122v23h118v-19c0 -28 12 -46 59 -46c46 0 58 18 58 46v24c0 25 -9 45 -52 45h-23c-105 0 -162 39 -162 135v21c0 97 53 136 162 136h46v62h-402v99h617v-99h-97v-164h-164c-34 0 -44 -16 -44 -40v-9
c0 -25 9 -41 44 -41h23c117 0 170 -45 170 -141v-32c0 -62 -23 -104 -72 -126l61 -125h-121zM17 -5c0 36 14 65 65 65c50 0 65 -29 65 -65c0 -37 -15 -66 -65 -66c-51 0 -65 29 -65 66z" />
    <glyph glyph-name="dvDDHx_RA" horiz-adv-x="553" 
d="M394 -117l-47 112h-3h-1l-47 -112h-121l64 132c-50 25 -74 73 -74 141v195c0 104 51 149 167 149h44v66h-411v99h624v-99h-96v-173h-161c-42 0 -50 -18 -50 -46v-187c0 -35 11 -57 62 -57c50 0 61 21 61 56v14c0 34 -16 43 -41 43c-21 0 -33 -8 -33 -8v105s19 8 48 8
c90 0 140 -39 140 -144v-24c0 -67 -21 -113 -68 -137l64 -133h-121zM23 0c0 37 15 65 66 65c50 0 65 -28 65 -65s-15 -65 -65 -65c-51 0 -66 28 -66 65z" />
    <glyph glyph-name="dvNNx_RA" horiz-adv-x="642" 
d="M399 71l-69 -71h-140l283 318v248h-94v-204c0 -96 -52 -153 -169 -153c-116 0 -168 57 -168 153v204h-77v99h712v-99h-86v-566h-118v42c0 70 6 113 12 143h-1c-15 -31 -48 -73 -85 -114zM210 318c43 0 50 20 50 48v200h-99v-200c0 -28 7 -48 49 -48zM22 95
c0 36 14 65 65 65c50 0 65 -29 65 -65c0 -37 -15 -66 -65 -66c-51 0 -65 29 -65 66z" />
    <glyph glyph-name="dvTx_RA" horiz-adv-x="483" 
d="M33 27v3l266 294c11 13 14 19 15 27c0 21 -12 40 -80 40c-67 0 -85 -25 -85 -69v-54h-115v62c0 106 52 168 185 168c50 0 84 -11 95 -23v91h-349v99h553v-99h-86v-566h-111v72c0 41 3 111 7 140h-1c-14 -30 -44 -71 -63 -92l-84 -93h-147zM175 -92c0 36 14 65 65 65
c50 0 65 -29 65 -65c0 -37 -15 -66 -65 -66c-51 0 -65 29 -65 66z" />
    <glyph glyph-name="dvTHx_RA" horiz-adv-x="590" 
d="M45 -47l1 3l173 144c-118 15 -173 80 -173 193v117h121c64 0 84 19 84 72v36c0 29 -5 46 -39 46s-40 -17 -40 -46v-40h-113v35c0 98 42 157 150 157c107 0 149 -54 149 -152v-55c0 -101 -52 -156 -175 -156h-16v-10c0 -73 26 -108 130 -108c99 0 124 40 124 125v351h204
v-99h-86v-566h-118v131l-206 -178h-170zM284 -99c0 36 14 65 65 65c50 0 65 -29 65 -65c0 -37 -15 -66 -65 -66c-51 0 -65 29 -65 66z" />
    <glyph glyph-name="dvDx_RA" horiz-adv-x="428" 
d="M28 -65l100 155c-61 14 -88 52 -88 125v133c0 109 55 149 171 149h44v69h-290v99h499v-99h-90v-176h-163c-44 0 -53 -17 -53 -46v-126c0 -28 10 -46 54 -46c45 0 55 17 55 46v58h117v-278h-117v104c-1 -1 -3 -2 -4 -3l-106 -164h-129zM209 -120c0 36 14 65 65 65
c50 0 65 -29 65 -65c0 -37 -15 -66 -65 -66c-51 0 -65 29 -65 66z" />
    <glyph glyph-name="dvDHx_RA" horiz-adv-x="502" 
d="M22 -50v2l141 145c-81 14 -119 58 -119 135v45c0 52 15 85 49 101c-31 18 -43 50 -43 96v44c0 21 5 36 15 48h-100v99h286v-99h-35c-36 0 -48 -17 -48 -48v-41c0 -28 9 -47 51 -47h42v-109h-46c-43 0 -53 -20 -53 -48v-28c0 -48 28 -63 81 -63c58 0 91 16 91 73v410h204
v-99h-86v-566h-118v118l-162 -168h-150zM234 -97c0 36 14 65 65 65c50 0 65 -29 65 -65c0 -37 -15 -66 -65 -66c-51 0 -65 29 -65 66z" />
    <glyph glyph-name="dvNx_RA" horiz-adv-x="612" 
d="M443 379h-100c6 -11 8 -26 8 -42v-40c0 -97 -43 -152 -156 -152c-114 0 -159 55 -159 152v40c0 96 45 151 159 151h248v78h-478v99h682v-99h-86v-566h-111v14c0 38 1 89 5 128h-1c-5 -18 -40 -71 -73 -108l-62 -71h-138l262 308v108zM240 297v36c0 28 -8 46 -45 46
c-38 0 -46 -18 -46 -46v-36c0 -27 8 -46 46 -46c37 0 45 18 45 46zM349 -111c0 36 14 65 65 65c50 0 65 -29 65 -65c0 -37 -15 -66 -65 -66c-51 0 -65 29 -65 66z" />
    <glyph glyph-name="dvPx_RA" horiz-adv-x="445" 
d="M15 0l121 184c-66 15 -89 59 -89 134v248h-82v99h515v-99h-86v-566h-118v194l-129 -194h-132zM276 566h-111v-245c0 -28 9 -48 56 -48c46 0 55 20 55 48v245zM149 -88c0 36 14 65 65 65c50 0 65 -29 65 -65c0 -37 -15 -66 -65 -66c-51 0 -65 29 -65 66z" />
    <glyph glyph-name="dvPHx_RA" horiz-adv-x="639" 
d="M22 -5l111 176c-57 14 -83 51 -83 123v272h-85v99h709v-99h-287v-82c17 10 42 17 65 17c108 0 152 -57 152 -153v-139c0 -95 -44 -147 -150 -146c-6 0 -13 0 -17 1v109c40 0 49 14 49 47v125c0 28 -8 47 -49 47s-50 -19 -50 -46v-346h-118v180l-117 -185h-130zM269 566
h-101v-268c0 -28 9 -46 51 -46c41 0 50 18 50 46v268zM155 -102c0 36 14 65 65 65c50 0 65 -29 65 -65c0 -37 -15 -66 -65 -66c-51 0 -65 29 -65 66z" />
    <glyph glyph-name="dvBx_RA" horiz-adv-x="457" 
d="M37 -41l105 120c-75 15 -106 61 -106 141v130c0 100 49 156 170 156c34 0 68 -8 86 -22v82h-327v99h528v-99h-86v-566h-116v94c-2 -2 -5 -4 -8 -5l-113 -130h-133zM220 408c-36 0 -55 -11 -64 -28l136 -110v73c0 39 -14 65 -72 65zM220 163c38 0 57 11 66 29l-137 111
v-76c0 -38 13 -64 71 -64zM207 -118c0 36 14 65 65 65c50 0 65 -29 65 -65c0 -37 -15 -66 -65 -66c-51 0 -65 29 -65 66z" />
    <glyph glyph-name="dvBHx_RA" horiz-adv-x="630" 
d="M464 253v91h-98v-77c0 -89 -49 -144 -163 -144c-115 0 -163 55 -163 144v34c0 89 48 143 163 143h49v70c0 28 -5 47 -46 47c-40 0 -46 -20 -46 -47v-26h-118v29c0 97 50 153 164 153c115 0 164 -56 164 -153v-73h94v221h204v-99h-86v-572h-111v12c0 33 3 86 10 129h-2
c-7 -21 -35 -72 -73 -115l-66 -75h-139zM252 270v74h-49c-41 0 -49 -18 -49 -46v-28c0 -27 8 -46 49 -46c42 0 49 18 49 46zM367 -116c0 36 14 65 65 65c50 0 65 -29 65 -65c0 -37 -15 -66 -65 -66c-51 0 -65 29 -65 66z" />
    <glyph glyph-name="dvMx_RA" horiz-adv-x="604" 
d="M437 -6v22c0 19 2 64 9 110c-1 1 -2 1 -2 1c-7 -22 -34 -70 -73 -114l-65 -74h-138l269 307v119h-90v-95c0 -89 -46 -145 -162 -145c-115 0 -162 56 -162 144v53c0 89 47 143 163 143h47v101h-268v99h674v-99h-86v-572h-116zM347 465h90v101h-90v-101zM233 274v91h-47
c-42 0 -49 -18 -49 -46v-46c0 -28 7 -47 48 -47c42 0 48 20 48 48zM348 -123c0 36 14 65 65 65c50 0 65 -29 65 -65c0 -37 -15 -66 -65 -66c-51 0 -65 29 -65 66z" />
    <glyph glyph-name="dvYx_RA" horiz-adv-x="519" 
d="M46 -4l136 130c-93 17 -145 76 -145 175v114h23c78 0 95 13 95 66v26c0 32 -7 59 -50 59h-140v99h589v-99h-86v-566h-118v149c-2 -1 -4 -3 -6 -4l-148 -149h-150zM250 230c79 0 100 32 100 87v249h-95c10 -14 15 -32 15 -59v-49c0 -78 -39 -117 -117 -121v-20
c0 -55 20 -87 97 -87zM218 -87c0 36 14 65 65 65c50 0 65 -29 65 -65c0 -37 -15 -66 -65 -66c-51 0 -65 29 -65 66z" />
    <glyph glyph-name="dvVx_RA" horiz-adv-x="447" 
d="M18 -29l120 133c-67 14 -93 54 -93 129v122c0 97 46 151 160 151c28 0 59 -7 74 -17v77h-314v99h518v-99h-86v-566h-119v116c-1 -1 -2 -2 -3 -2l-128 -143h-129zM284 234v122c-1 33 -19 49 -62 49c-45 0 -62 -17 -62 -50v-120c0 -33 17 -51 62 -51c43 0 61 17 62 50z
M221 -114c0 36 14 65 65 65c50 0 65 -29 65 -65c0 -37 -15 -66 -65 -66c-51 0 -65 29 -65 66z" />
    <glyph glyph-name="dvK_R" horiz-adv-x="457" 
d="M32 -43l96 132c-55 13 -79 48 -79 119v149c0 97 45 148 150 148c27 0 52 -7 66 -18v79h-300v99h685v-99h-269v-80c19 12 43 17 75 17c113 0 155 -51 155 -145v-9h-105v9c0 27 -14 45 -63 45c-50 0 -62 -20 -62 -50v-353h-116v99c-2 -1 -3 -2 -5 -4l-96 -138h-132z
M214 165c42 0 51 17 52 46v142c0 30 -9 50 -52 50s-52 -20 -52 -50v-140c0 -30 9 -48 52 -48z" />
    <glyph glyph-name="dvKH_R" horiz-adv-x="571" 
d="M234 -101l-172 15v3l161 104c-129 4 -183 57 -183 169v258h112v-66c0 -28 7 -47 48 -47c42 0 48 19 48 47v135c0 28 -9 48 -50 49h-233v99h756v-99h-374c7 -13 11 -29 11 -49v-139c0 -97 -33 -147 -141 -147c-21 0 -51 6 -65 17v-54c0 -58 32 -89 114 -89h13
c84 0 119 31 119 89v153c0 97 36 148 160 148c123 0 159 -51 159 -148v-92c0 -99 -36 -148 -159 -148c-31 0 -52 5 -68 15c-8 -34 -27 -60 -59 -83zM610 255v92c0 30 -9 48 -52 48c-44 0 -53 -19 -53 -48v-97c1 -26 11 -43 53 -43c43 0 52 18 52 48z" />
    <glyph glyph-name="dvG_R" horiz-adv-x="272" 
d="M310 665v-99h-89v-190c0 -105 -58 -155 -156 -155c-18 0 -36 2 -51 5v114c8 -2 22 -5 34 -5c38 0 55 17 55 50v181h-138v99h345zM352 368v-149c-19 -41 -47 -85 -100 -148l-59 -71h-139z" />
    <glyph glyph-name="dvGH_R" horiz-adv-x="306" 
d="M39 -82l1 2l173 156c-115 7 -171 61 -171 154v44c0 46 17 82 50 98c-30 18 -44 45 -44 97v49c0 21 5 36 15 48h-98v99h497v-99h-252c-35 0 -44 -18 -44 -48v-45c0 -28 8 -47 51 -47h41v-109h-46c-43 0 -52 -19 -52 -47v-26c0 -49 36 -64 90 -64c68 0 93 18 93 79v14h119
v-14c0 -62 -9 -101 -50 -140l-223 -201h-150z" />
    <glyph glyph-name="dvC_R" horiz-adv-x="301" 
d="M456 665v-99h-491v99h491zM66 -69l158 154c-108 9 -151 62 -151 162v84c0 22 5 38 16 49h-74v107h258v-102h-34c-38 0 -47 -22 -47 -49v-86c0 -42 15 -63 72 -63s74 21 74 63v24h118v-24c0 -54 -5 -87 -39 -121l-203 -198h-148z" />
    <glyph glyph-name="dvJ_R" horiz-adv-x="405" 
d="M494 665v-99h-529v99h529zM494 488v-101h-152c10 -17 14 -35 14 -58v-61c0 -96 -52 -152 -167 -152c-116 0 -168 57 -168 154v38h118v-34c0 -28 7 -49 50 -49c41 0 49 21 49 49v56c0 28 -9 50 -51 50h-67v108h374zM178 -54l316 346v-117c-14 -34 -45 -94 -98 -153
l-78 -79h-140v3z" />
    <glyph glyph-name="dvJH_R" horiz-adv-x="483" 
d="M215 324h347v-212c-11 -31 -34 -67 -68 -110l-67 -85h-133l247 314h-182c12 -15 17 -34 17 -56v-29c0 -97 -31 -144 -151 -144c-22 0 -52 4 -66 16v-87h-116v240h116v-17c0 -30 9 -47 50 -47c40 0 49 17 49 47v24c0 25 -9 46 -49 46h-2c-92 0 -154 35 -154 135v9
c0 97 54 136 162 136h121v62h-371v99h594v-99h-105v-164h-239c-32 0 -44 -12 -44 -37v-4c0 -25 12 -37 44 -37z" />
    <glyph glyph-name="dvNY_R" horiz-adv-x="422" 
d="M498 665v-99h-533v99h533zM498 354v-196c-11 -31 -41 -92 -82 -140l-80 -90h-136l282 326h-110v-21c-3 -84 -57 -133 -165 -133c-116 0 -165 57 -165 153v22h118v-18c0 -28 5 -48 47 -48c43 0 47 20 47 48v98c0 28 -4 48 -47 48c-42 0 -47 -20 -47 -48v-21h-118v24
c0 97 49 154 165 154c113 0 162 -54 165 -145v-13h126z" />
    <glyph glyph-name="dvNN_R" horiz-adv-x="421" 
d="M507 665v-99h-128v-204c0 -96 -52 -153 -169 -153c-116 0 -168 57 -168 153v204h-77v99h542zM210 318c43 0 50 20 50 48v200h-99v-200c0 -28 7 -48 49 -48zM190 0l317 360v-136c-20 -37 -60 -99 -108 -153l-69 -71h-140z" />
    <glyph glyph-name="dvT_R" horiz-adv-x="282" 
d="M444 665v-99h-479v99h479zM423 330c0 0 -73 -110 -142 -191l-101 -112h-148v3l249 274c11 12 32 35 32 44c0 21 -12 43 -80 43c-66 0 -85 -25 -85 -69v-54h-115v62c0 106 52 168 185 168c151 0 205 -62 205 -168z" />
    <glyph glyph-name="dvTH_R" horiz-adv-x="388" 
d="M40 -88v4l215 168c-136 8 -210 77 -210 207v119h120c64 0 86 18 86 70v37c0 30 -5 47 -39 47s-40 -17 -40 -47v-39h-113v35c0 98 42 157 150 157c107 0 149 -54 149 -152v-57c0 -101 -53 -154 -177 -154h-16v-12c0 -70 22 -105 128 -105c111 0 132 38 132 126h119
c0 -139 -43 -164 -150 -253l-185 -151h-169z" />
    <glyph glyph-name="dvD_R" horiz-adv-x="428" 
d="M28 -65l100 155c-61 14 -88 52 -88 125v133c0 109 55 149 171 149h44v69h-290v99h499v-99h-90v-176h-163c-44 0 -53 -17 -53 -46v-126c0 -28 10 -46 54 -46c45 0 55 17 55 46v58h117v-278h-117v104c-1 -1 -3 -2 -4 -3l-106 -164h-129zM513 -228h-123l-106 165h106z" />
    <glyph glyph-name="dvDH_R" horiz-adv-x="306" 
d="M44 -91v2l173 166c-118 8 -175 62 -175 155v45c0 52 15 85 49 101c-31 18 -43 49 -43 95v45c0 21 5 36 15 48h-98v99h272v-99h-26c-33 0 -45 -18 -45 -48v-41c0 -28 9 -47 51 -47h42v-109h-46c-43 0 -53 -19 -53 -48v-27c0 -49 36 -64 90 -64c69 0 94 18 94 80v11h118
v-11c0 -84 -21 -113 -90 -181l-178 -172h-150z" />
    <glyph glyph-name="dvN_R" horiz-adv-x="402" 
d="M505 665v-99h-540v99h540zM505 488v-109h-169c6 -11 8 -26 8 -42v-40c0 -97 -44 -152 -157 -152s-159 55 -159 152v40c0 96 46 151 159 151h318zM233 297v36c0 28 -8 46 -46 46s-46 -18 -46 -46v-36c0 -27 8 -46 46 -46s46 18 46 46zM505 355v-121
c-12 -28 -76 -135 -131 -200l-63 -71h-138z" />
    <glyph glyph-name="dvP_R" horiz-adv-x="251" 
d="M33 -24l159 194c-100 7 -146 58 -146 158v238h-81v99h435v-99h-236v-234c0 -35 10 -58 63 -58s63 22 63 58v14h110v-26c0 -64 -24 -92 -70 -148l-161 -196h-136z" />
    <glyph glyph-name="dvPH_R" horiz-adv-x="477" 
d="M19 -5l112 175c-58 15 -83 52 -83 124v272h-83v99h653v-99h-233v-86c16 12 40 18 76 18c116 0 157 -53 157 -145v-9h-105v9c-1 27 -15 45 -64 45c-48 0 -64 -18 -64 -50v-348h-118v180l-117 -185h-131zM267 566h-101v-268c0 -28 9 -46 50 -46s51 17 51 46v268z" />
    <glyph glyph-name="dvB_R" horiz-adv-x="264" 
d="M-35 566v99h464v-99h-464zM19 -81l158 161c-97 13 -141 66 -141 159v103c0 105 48 164 187 164c126 0 184 -56 184 -164v-103c0 -79 -41 -115 -102 -177l-141 -143h-145zM225 408c-36 0 -57 -10 -67 -28l144 -106v63c0 47 -20 71 -77 71zM149 244c0 -46 18 -70 76 -70
c37 0 58 10 69 29l-145 107v-66z" />
    <glyph glyph-name="dvBH_R" horiz-adv-x="448" 
d="M512 444v-100h-146v-77c0 -89 -49 -144 -163 -144c-115 0 -163 55 -163 144v34c0 89 48 143 163 143h49v70c0 28 -5 47 -46 47c-40 0 -46 -20 -46 -47v-26h-118v29c0 97 50 153 164 153c115 0 164 -56 164 -153v-73h142zM252 270v74h-49c-41 0 -49 -18 -49 -46v-28
c0 -27 8 -46 49 -46c42 0 49 18 49 46zM512 310v-126c-11 -29 -54 -103 -101 -157l-71 -82h-139z" />
    <glyph glyph-name="dvM_R" horiz-adv-x="412" 
d="M485 665v-99h-138v-101h138v-100h-138v-95c0 -89 -46 -145 -162 -145c-115 0 -162 56 -162 144v53c0 89 47 143 163 143h47v101h-268v99h520zM233 274v91h-47c-42 0 -49 -18 -49 -46v-46c0 -28 7 -47 48 -47c42 0 48 20 48 48zM485 300v-118c-19 -38 -68 -116 -114 -169
l-65 -74h-138z" />
    <glyph glyph-name="dvY_R" horiz-adv-x="316" 
d="M41 -39l180 161c-118 9 -184 69 -184 179v114h23c72 0 95 13 95 66v26c0 32 -7 59 -50 59h-140v99h503v-99h-213c10 -14 15 -32 15 -59v-49c0 -78 -39 -117 -117 -121v-20c0 -55 20 -86 97 -86c78 0 100 30 100 84v3h118v-17c0 -72 -28 -107 -90 -165l-186 -175h-151z
" />
    <glyph glyph-name="dvV_R" horiz-adv-x="262" 
d="M411 665v-99h-446v99h446zM236 499v-100c-1 0 -11 1 -20 1c-44 0 -61 -16 -61 -50v-95c0 -34 21 -55 73 -55s74 21 74 55v27h109v-40c0 -58 -32 -95 -76 -146l-141 -158h-131l144 162c-100 -8 -167 46 -167 135v116c0 96 46 150 175 150c9 0 20 -1 21 -2z" />
    <glyph glyph-name="dvS_R" horiz-adv-x="436" 
d="M375 158l-124 20l172 140h-102c-22 -17 -54 -25 -89 -25c-27 0 -53 4 -72 17v-124c0 -51 16 -79 82 -79h144v-107h-144c-147 0 -197 57 -197 184v298h115v-37c0 -28 6 -48 48 -48c41 0 47 20 47 48v72c0 27 -8 49 -48 49h-242v99h550v-99h-161c13 -13 17 -35 17 -59v-65
c0 -7 -1 -18 -2 -23h146v-129c-17 -22 -47 -50 -78 -77z" />
    <glyph glyph-name="dvKx_R" horiz-adv-x="455" 
d="M31 -43l96 132c-55 13 -79 47 -79 119v149c0 97 44 148 150 148c26 0 51 -7 65 -18v79h-298v99h682v-99h-268v-80c20 12 44 17 75 17c113 0 156 -51 156 -145v-9h-105v9c-1 27 -15 45 -63 45c-51 0 -63 -20 -63 -50v-353h-116v99c-2 -1 -3 -2 -5 -4l-96 -138h-131z
M212 165c42 0 52 17 52 46v142c0 30 -9 50 -52 50s-52 -20 -52 -50v-140c0 -30 9 -48 52 -48zM194 -112c0 37 14 65 65 65c50 0 65 -28 65 -65s-15 -65 -65 -65c-51 0 -65 28 -65 65z" />
    <glyph glyph-name="dvKHx_R" horiz-adv-x="571" 
d="M234 -101l-172 15v3l161 104c-129 4 -183 57 -183 169v258h112v-66c0 -28 7 -47 48 -47c42 0 48 19 48 47v135c0 28 -9 48 -50 49h-233v99h756v-99h-374c7 -13 11 -29 11 -49v-139c0 -97 -33 -147 -141 -147c-21 0 -51 6 -65 17v-54c0 -58 32 -89 114 -89h13
c84 0 119 31 119 89v153c0 97 36 148 160 148c123 0 159 -51 159 -148v-92c0 -99 -36 -148 -159 -148c-31 0 -52 5 -68 15c-8 -34 -27 -60 -59 -83zM610 255v92c0 30 -9 48 -52 48c-44 0 -53 -19 -53 -48v-97c1 -26 11 -43 53 -43c43 0 52 18 52 48zM482 -27
c0 36 14 65 65 65c50 0 65 -29 65 -65c0 -37 -15 -66 -65 -66c-51 0 -65 29 -65 66z" />
    <glyph glyph-name="dvGx_R" horiz-adv-x="272" 
d="M310 665v-99h-89v-190c0 -105 -58 -155 -156 -155c-18 0 -36 2 -51 5v114c8 -2 22 -5 34 -5c38 0 55 17 55 50v181h-138v99h345zM352 368v-149c-19 -41 -47 -85 -100 -148l-59 -71h-139zM271 -47c0 36 14 65 65 65c50 0 65 -29 65 -65c0 -37 -15 -66 -65 -66
c-51 0 -65 29 -65 66z" />
    <glyph glyph-name="dvGHx_R" horiz-adv-x="306" 
d="M39 -82l1 2l173 156c-115 7 -171 61 -171 154v44c0 46 17 82 50 98c-30 18 -44 45 -44 97v49c0 21 5 36 15 48h-98v99h497v-99h-252c-35 0 -44 -18 -44 -48v-45c0 -28 8 -47 51 -47h41v-109h-46c-43 0 -52 -19 -52 -47v-26c0 -49 36 -64 90 -64c68 0 93 18 93 79v14h119
v-14c0 -62 -9 -101 -50 -140l-223 -201h-150zM329 -67c0 36 14 65 65 65c50 0 65 -29 65 -65c0 -37 -15 -66 -65 -66c-51 0 -65 29 -65 66z" />
    <glyph glyph-name="dvCx_R" horiz-adv-x="301" 
d="M456 665v-99h-491v99h491zM66 -69l158 154c-108 9 -151 62 -151 162v84c0 22 5 38 16 49h-74v107h258v-102h-34c-38 0 -47 -22 -47 -49v-86c0 -42 15 -63 72 -63s74 21 74 63v24h118v-24c0 -54 -5 -87 -39 -121l-203 -198h-148zM339 -58c0 36 14 65 65 65
c50 0 65 -29 65 -65c0 -37 -15 -66 -65 -66c-51 0 -65 29 -65 66z" />
    <glyph glyph-name="dvJx_R" horiz-adv-x="405" 
d="M494 665v-99h-529v99h529zM494 488v-101h-152c10 -17 14 -35 14 -58v-61c0 -96 -52 -152 -167 -152c-116 0 -168 57 -168 154v38h118v-34c0 -28 7 -49 50 -49c41 0 49 21 49 49v56c0 28 -9 50 -51 50h-67v108h374zM178 -54l316 346v-117c-14 -34 -45 -94 -98 -153
l-78 -79h-140v3zM8 16c0 36 14 65 65 65c50 0 65 -29 65 -65c0 -37 -15 -66 -65 -66c-51 0 -65 29 -65 66z" />
    <glyph glyph-name="dvJHx_R" horiz-adv-x="483" 
d="M215 324h347v-212c-11 -31 -34 -67 -68 -110l-67 -85h-133l247 314h-182c12 -15 17 -34 17 -56v-29c0 -97 -31 -144 -151 -144c-22 0 -52 4 -66 16v-87h-116v240h116v-17c0 -30 9 -47 50 -47c40 0 49 17 49 47v24c0 25 -9 46 -49 46h-2c-92 0 -154 35 -154 135v9
c0 97 54 136 162 136h121v62h-371v99h594v-99h-105v-164h-239c-32 0 -44 -12 -44 -37v-4c0 -25 12 -37 44 -37zM214 -176c0 36 14 65 65 65c50 0 65 -29 65 -65c0 -37 -15 -66 -65 -66c-51 0 -65 29 -65 66z" />
    <glyph glyph-name="dvNYx_R" horiz-adv-x="422" 
d="M498 665v-99h-533v99h533zM498 354v-196c-11 -31 -41 -92 -82 -140l-80 -90h-136l282 326h-110v-21c-3 -84 -57 -133 -165 -133c-116 0 -165 57 -165 153v22h118v-18c0 -28 5 -48 47 -48c43 0 47 20 47 48v98c0 28 -4 48 -47 48c-42 0 -47 -20 -47 -48v-21h-118v24
c0 97 49 154 165 154c113 0 162 -54 165 -145v-13h126zM17 -8c0 36 14 65 65 65c50 0 65 -29 65 -65c0 -37 -15 -66 -65 -66c-51 0 -65 29 -65 66z" />
    <glyph glyph-name="dvNNx_R" horiz-adv-x="421" 
d="M507 665v-99h-128v-204c0 -96 -52 -153 -169 -153c-116 0 -168 57 -168 153v204h-77v99h542zM210 318c43 0 50 20 50 48v200h-99v-200c0 -28 7 -48 49 -48zM190 0l317 360v-137c-21 -37 -60 -98 -108 -152l-69 -71h-140zM8 96c0 37 15 66 66 66c50 0 65 -29 65 -66
c0 -36 -15 -65 -65 -65c-51 0 -66 29 -66 65z" />
    <glyph glyph-name="dvTx_R" horiz-adv-x="282" 
d="M444 665v-99h-479v99h479zM423 330c0 0 -73 -110 -142 -191l-101 -112h-148v3l249 274c11 12 32 35 32 44c0 21 -12 43 -80 43c-66 0 -85 -25 -85 -69v-54h-115v62c0 106 52 168 185 168c151 0 205 -62 205 -168zM252 -25c0 36 14 65 65 65c50 0 65 -29 65 -65
c0 -37 -15 -66 -65 -66c-51 0 -65 29 -65 66z" />
    <glyph glyph-name="dvTHx_R" horiz-adv-x="388" 
d="M40 -88v4l215 168c-136 8 -210 77 -210 207v119h120c64 0 86 18 86 70v37c0 30 -5 47 -39 47s-40 -17 -40 -47v-39h-113v35c0 98 42 157 150 157c107 0 149 -54 149 -152v-57c0 -101 -53 -154 -177 -154h-16v-12c0 -70 22 -105 128 -105c111 0 132 38 132 126h119
c0 -139 -43 -164 -150 -253l-185 -151h-169zM385 -54c0 36 14 65 65 65c50 0 65 -29 65 -65c0 -37 -15 -66 -65 -66c-51 0 -65 29 -65 66z" />
    <glyph glyph-name="dvDx_R" horiz-adv-x="428" 
d="M28 -65l100 155c-61 14 -88 52 -88 125v133c0 109 55 149 171 149h44v69h-290v99h499v-99h-90v-176h-163c-44 0 -53 -17 -53 -46v-126c0 -28 10 -46 54 -46c45 0 55 17 55 46v58h117v-278h-117v104c-1 -1 -3 -2 -4 -3l-106 -164h-129zM209 -101c0 36 14 65 65 65
c50 0 65 -29 65 -65c0 -37 -15 -66 -65 -66c-51 0 -65 29 -65 66zM479 -375h-123l-106 165h106z" />
    <glyph glyph-name="dvDHx_R" horiz-adv-x="307" 
d="M44 -91v2l173 166c-118 8 -175 62 -175 155v45c0 52 15 85 49 101c-31 18 -43 49 -43 95v45c0 21 5 36 15 48h-98v99h272v-99h-26c-33 0 -45 -18 -45 -48v-41c0 -28 9 -47 51 -47h42v-109h-46c-43 0 -53 -19 -53 -48v-27c0 -49 36 -64 90 -64c69 0 94 18 94 80v11h118
v-11c0 -84 -21 -113 -90 -181l-178 -172h-150zM323 -60c0 36 14 65 65 65c50 0 65 -29 65 -65c0 -37 -15 -66 -65 -66c-51 0 -65 29 -65 66z" />
    <glyph glyph-name="dvNx_R" horiz-adv-x="402" 
d="M505 665v-99h-540v99h540zM505 488v-109h-169c6 -11 8 -26 8 -42v-40c0 -97 -44 -152 -157 -152s-159 55 -159 152v40c0 96 46 151 159 151h318zM233 297v36c0 28 -8 46 -46 46s-46 -18 -46 -46v-36c0 -27 8 -46 46 -46s46 18 46 46zM505 355v-121
c-12 -28 -76 -135 -131 -200l-63 -71h-138zM399 -56c0 36 14 65 65 65c50 0 65 -29 65 -65c0 -37 -15 -66 -65 -66c-51 0 -65 29 -65 66z" />
    <glyph glyph-name="dvPx_R" horiz-adv-x="254" 
d="M33 -24l159 194c-100 7 -146 58 -146 158v238h-81v99h435v-99h-236v-234c0 -35 10 -58 63 -58s63 22 63 58v14h110v-26c0 -64 -24 -92 -70 -148l-161 -196h-136zM254 -46c0 36 14 65 65 65c50 0 65 -29 65 -65c0 -37 -15 -66 -65 -66c-51 0 -65 29 -65 66z" />
    <glyph glyph-name="dvPHx_R" horiz-adv-x="477" 
d="M19 -5l112 175c-58 15 -83 52 -83 124v272h-83v99h653v-99h-233v-86c16 12 40 18 76 18c116 0 157 -53 157 -145v-9h-105v9c-1 27 -15 45 -64 45c-48 0 -64 -18 -64 -50v-348h-118v180l-117 -185h-131zM267 566h-101v-268c0 -28 9 -46 50 -46s51 17 51 46v268zM146 -108
c0 36 14 65 65 65c50 0 65 -29 65 -65c0 -37 -15 -66 -65 -66c-51 0 -65 29 -65 66z" />
    <glyph glyph-name="dvBx_R" horiz-adv-x="264" 
d="M-35 566v99h464v-99h-464zM19 -81l158 161c-97 13 -141 66 -141 159v103c0 105 48 164 187 164c126 0 184 -56 184 -164v-103c0 -79 -41 -115 -102 -177l-141 -143h-145zM225 408c-36 0 -57 -10 -67 -28l144 -106v63c0 47 -20 71 -77 71zM149 244c0 -46 18 -70 76 -70
c37 0 58 10 69 29l-145 107v-66zM297 -65c0 36 14 65 65 65c50 0 65 -29 65 -65c0 -37 -15 -66 -65 -66c-51 0 -65 29 -65 66z" />
    <glyph glyph-name="dvBHx_R" horiz-adv-x="442" 
d="M512 444v-100h-146v-77c0 -89 -49 -144 -163 -144c-115 0 -163 55 -163 144v34c0 89 48 143 163 143h49v70c0 28 -5 47 -46 47c-40 0 -46 -20 -46 -47v-26h-118v29c0 97 50 153 164 153c115 0 164 -56 164 -153v-73h142zM252 270v74h-49c-41 0 -49 -18 -49 -46v-28
c0 -27 8 -46 49 -46c42 0 49 18 49 46zM512 310v-126c-11 -29 -54 -103 -101 -157l-71 -82h-139zM428 -51c0 36 14 65 65 65c50 0 65 -29 65 -65c0 -37 -15 -66 -65 -66c-51 0 -65 29 -65 66z" />
    <glyph glyph-name="dvMx_R" horiz-adv-x="412" 
d="M485 665v-99h-138v-101h138v-100h-138v-95c0 -89 -46 -145 -162 -145c-115 0 -162 56 -162 144v53c0 89 47 143 163 143h47v101h-268v99h520zM233 274v91h-47c-42 0 -49 -18 -49 -46v-46c0 -28 7 -47 48 -47c42 0 48 20 48 48zM485 300v-118c-19 -38 -68 -116 -114 -169
l-65 -74h-138zM399 -69c0 36 14 65 65 65c50 0 65 -29 65 -65c0 -37 -15 -66 -65 -66c-51 0 -65 29 -65 66z" />
    <glyph glyph-name="dvYx_R" horiz-adv-x="313" 
d="M41 -39l180 161c-118 9 -184 69 -184 179v114h23c72 0 95 13 95 66v26c0 32 -7 59 -50 59h-140v99h503v-99h-213c10 -14 15 -32 15 -59v-49c0 -78 -39 -117 -117 -121v-20c0 -55 20 -86 97 -86c78 0 100 30 100 84v3h118v-17c0 -72 -28 -107 -90 -165l-186 -175h-151z
M290 -45c0 36 14 65 65 65c50 0 65 -29 65 -65c0 -37 -15 -66 -65 -66c-51 0 -65 29 -65 66z" />
    <glyph glyph-name="dvVx_R" horiz-adv-x="262" 
d="M411 665v-99h-446v99h446zM236 499v-100c-1 0 -11 1 -20 1c-44 0 -61 -16 -61 -50v-95c0 -34 21 -55 73 -55s74 21 74 55v27h109v-40c0 -58 -32 -95 -76 -146l-141 -158h-131l144 162c-100 -8 -167 46 -167 135v116c0 96 46 150 175 150c9 0 20 -1 21 -2zM257 -71
c0 36 14 65 65 65c50 0 65 -29 65 -65c0 -37 -15 -66 -65 -66c-51 0 -65 29 -65 66z" />
    <glyph glyph-name="dvK_KA" horiz-adv-x="1057" 
d="M851 65v110c42 -1 52 10 52 46v132c0 29 -9 50 -52 50s-51 -20 -51 -50v-353h-116v73c-14 -10 -39 -17 -65 -17c-106 0 -150 47 -150 143v154c0 29 -9 50 -52 50s-51 -20 -51 -50v-353h-116v73c-14 -10 -39 -17 -65 -17c-106 0 -150 47 -150 143v158c0 97 44 148 150 148
c26 0 51 -7 65 -18v79h-285v99h1128v-99h-293v-78c16 10 41 17 66 17c105 0 149 -53 149 -148v-147c0 -95 -39 -147 -145 -147c-6 0 -15 1 -19 2zM684 487v79h-318v-78c16 10 41 17 66 17c40 0 69 -9 90 -23c23 15 55 23 97 23c26 0 51 -7 65 -18zM199 154c42 0 52 20 52 48
v151c0 30 -9 50 -52 50s-52 -20 -52 -50v-149c0 -30 9 -50 52 -50zM633 154c42 0 52 20 52 48v151c0 30 -9 50 -52 50s-52 -20 -52 -50v-149c0 -30 9 -50 52 -50z" />
    <glyph glyph-name="dvKx_KxA" horiz-adv-x="1051" 
d="M852 65v110c43 -1 52 10 52 46v132c0 29 -8 50 -51 50s-52 -20 -52 -50v-353h-115v73c-14 -10 -40 -17 -66 -17c-106 0 -150 47 -150 143v154c0 29 -8 50 -51 50s-52 -20 -52 -50v-353h-115v73c-14 -10 -40 -17 -66 -17c-106 0 -150 47 -150 143v158c0 97 44 148 150 148
c26 0 52 -7 66 -18v79h-287v99h1122v-99h-286v-78c16 10 42 17 66 17c106 0 150 -53 150 -148v-147c0 -95 -40 -147 -146 -147c-6 0 -15 1 -19 2zM686 487v79h-319v-78c16 10 42 17 66 17c39 0 67 -9 88 -25c23 17 56 25 99 25c26 0 52 -7 66 -18zM200 154c43 0 52 20 52 48
v151c0 30 -9 50 -52 50s-51 -20 -51 -50v-149c0 -30 8 -50 51 -50zM634 154c43 0 52 20 52 48v151c0 30 -9 50 -52 50s-51 -20 -51 -50v-149c0 -30 8 -50 51 -50zM67 -48c0 37 14 66 65 66c50 0 65 -29 65 -66c0 -36 -15 -65 -65 -65c-51 0 -65 29 -65 65zM501 -48
c0 37 14 66 65 66c50 0 65 -29 65 -66c0 -36 -15 -65 -65 -65c-51 0 -65 29 -65 65z" />
    <glyph glyph-name="dvK_KHA" horiz-adv-x="1205" 
d="M696 0c-156 0 -227 63 -227 190v163c0 31 -9 50 -52 50s-51 -20 -51 -50v-353h-116v73c-14 -10 -39 -17 -65 -17c-106 0 -150 47 -150 143v158c0 97 44 148 150 148c26 0 51 -7 65 -18v79h-285v99h1275v-99h-86v-566h-115v121c-14 -11 -38 -14 -59 -14c-23 0 -43 2 -60 6
c-25 -74 -91 -113 -202 -113h-22zM1039 483v83h-263c7 -13 11 -29 11 -49v-139c0 -97 -33 -147 -141 -147c-21 0 -51 6 -65 17v-54c0 -58 32 -89 115 -89h12c84 0 119 31 119 89v152c0 97 32 152 147 152c22 0 49 -5 65 -15zM447 505c93 0 134 -43 134 -118v-5
c0 -28 7 -47 48 -47c42 0 48 19 48 47v135c0 28 -9 48 -50 49h-261v-80c21 12 49 19 81 19zM199 154c42 0 52 20 52 48v151c0 30 -9 50 -52 50s-52 -20 -52 -50v-149c0 -30 9 -50 52 -50zM987 395c-44 0 -53 -19 -53 -48v-92c0 -29 9 -48 53 -48c43 0 52 19 52 48v92
c0 29 -9 48 -52 48z" />
    <glyph glyph-name="dvK_CA" horiz-adv-x="911" 
d="M517 327h-53v30c0 30 -7 46 -48 46c-42 0 -49 -20 -49 -50v-353h-115v73c-14 -10 -40 -17 -66 -17c-106 0 -150 47 -150 143v158c0 97 44 148 150 148c26 0 52 -7 66 -18v79h-287v99h982v-99h-86v-566h-119v75c-21 -14 -52 -19 -80 -19c-112 0 -161 51 -161 156v65
c0 22 5 38 16 50zM619 282v-67c0 -35 13 -55 60 -55c49 0 63 20 63 53v353h-375v-78c16 10 42 17 65 17c73 0 116 -23 134 -72h119v-102h-19c-39 0 -47 -22 -47 -49zM200 154c43 0 52 20 52 48v151c0 30 -9 50 -52 50s-51 -20 -51 -50v-149c0 -30 8 -50 51 -50z" />
    <glyph glyph-name="dvK_JA" horiz-adv-x="1074" 
d="M905 488v78h-539v-78c16 10 41 17 66 17c109 0 155 -53 155 -148v-154c0 -28 8 -48 55 -48c45 0 55 20 55 48v127c0 36 -10 50 -52 50h-12v108h272zM199 154c42 0 52 20 52 48v151c0 30 -9 50 -52 50s-52 -20 -52 -50v-149c0 -30 9 -50 52 -50zM-35 566v99h1144v-99h-86
v-566h-118v387h-105c10 -17 15 -35 15 -58v-130c0 -96 -54 -151 -173 -151c-120 0 -173 56 -173 153v152c0 29 -9 50 -52 50s-51 -20 -51 -50v-353h-116v73c-14 -10 -39 -17 -65 -17c-106 0 -150 47 -150 143v158c0 97 44 148 150 148c26 0 51 -7 65 -18v79h-285z" />
    <glyph glyph-name="dvK_TTA" horiz-adv-x="838" 
d="M783 387h-146c-43 0 -50 -18 -50 -46v-192c0 -28 9 -48 52 -48c42 0 52 20 52 48v86h118v-86c0 -97 -54 -154 -170 -154c-117 0 -170 57 -170 154v204c0 29 -9 50 -52 50s-51 -20 -51 -50v-353h-116v73c-14 -10 -39 -17 -65 -17c-106 0 -150 47 -150 143v158
c0 97 44 148 150 148c26 0 51 -7 65 -18v79h-285v99h909v-99h-91v-179zM665 494v72h-299v-78c16 10 41 17 66 17c45 0 78 -11 99 -31c27 13 62 20 106 20h28zM199 154c42 0 52 20 52 48v151c0 30 -9 50 -52 50s-52 -20 -52 -50v-149c0 -30 9 -50 52 -50z" />
    <glyph glyph-name="dvK_NNA" horiz-adv-x="1091" 
d="M828 566v-305c0 -96 -52 -153 -168 -153c-117 0 -168 57 -168 153v92c0 27 -15 45 -63 45c-51 0 -63 -20 -63 -49v-349h-116v73c-14 -10 -39 -17 -65 -17c-106 0 -150 47 -150 143v158c0 97 44 148 150 148c26 0 51 -7 65 -18v79h-285v99h1161v-99h-86v-566h-118v566h-94
zM441 499c19 0 36 -1 51 -4v71h-126v-84c16 10 41 17 75 17zM710 566h-100v-304c0 -28 7 -48 50 -48c42 0 50 20 50 48v304zM199 154c42 0 52 20 52 48v151c0 30 -9 50 -52 50s-52 -20 -52 -50v-149c0 -30 9 -50 52 -50z" />
    <glyph glyph-name="dvK_TA" horiz-adv-x="664" 
d="M458 46v109c45 0 52 11 52 46v141c0 29 -8 49 -51 49c-42 0 -51 -19 -51 -47v-344h-115v387h-53c-43 0 -53 -20 -53 -49v-137c0 -35 12 -46 56 -46v-109c-8 -2 -16 -2 -23 -2c-106 -1 -145 55 -145 150v144c0 19 3 35 10 51h-67v100h275v77h-328v99h734v-99h-291v-90
c15 11 41 17 66 17c107 0 149 -52 149 -148v-151c0 -95 -39 -151 -145 -150c-5 0 -14 1 -20 2z" />
    <glyph glyph-name="dvKx_TA" horiz-adv-x="898" 
d="M661 110v-110c-8 -1 -19 -2 -27 -2c-114 0 -150 52 -150 147v192c0 15 1 30 4 44c-8 14 -25 22 -58 22c-51 0 -63 -20 -63 -50v-353h-115v73c-14 -10 -40 -17 -66 -17c-106 0 -150 47 -150 143v158c0 97 44 148 150 148c26 0 52 -7 66 -18v79h-287v99h969v-99h-86v-566
h-119v333c0 33 -14 56 -63 56c-50 0 -64 -23 -64 -56v-177c0 -36 17 -47 59 -46zM729 482v84h-362v-80c17 11 41 17 75 17c49 0 84 -10 109 -28c25 15 58 23 99 23c33 0 63 -6 79 -16zM200 154c43 0 52 20 52 48v151c0 30 -9 50 -52 50s-51 -20 -51 -50v-149
c0 -30 8 -50 51 -50zM67 -48c0 37 14 66 65 66c50 0 65 -29 65 -66c0 -36 -15 -65 -65 -65c-51 0 -65 29 -65 65z" />
    <glyph glyph-name="dvK_T_YA" horiz-adv-x="1201" 
d="M-35 566v99h1271v-99h-86v-566h-118v114c-25 -18 -60 -28 -109 -28c-129 0 -204 61 -204 180v72c-8 10 -20 17 -42 17h-13c-49 0 -63 -24 -63 -57v-142c0 -36 17 -47 59 -46l1 -110c-8 -1 -20 -2 -28 -2c-114 0 -151 52 -151 147v157c0 25 3 47 9 67c-4 21 -21 34 -62 34
c-51 0 -63 -20 -63 -50v-353h-116v73c-14 -10 -39 -17 -65 -17c-106 0 -150 47 -150 143v158c0 97 44 148 150 148c26 0 51 -7 65 -18v79h-285zM837 507c0 32 -7 59 -50 59h-421v-80c16 11 41 17 75 17c66 0 108 -18 132 -52c25 9 55 13 91 13h15c72 0 119 -20 143 -54
c11 10 15 25 15 48v49zM932 196c79 0 100 31 100 85v285h-95c10 -14 15 -32 15 -59v-71c0 -79 -39 -118 -117 -121v-34c0 -54 19 -85 97 -85zM199 154c42 0 52 20 52 48v151c0 30 -9 50 -52 50s-52 -20 -52 -50v-149c0 -30 9 -50 52 -50z" />
    <glyph glyph-name="dvK_T_RA" horiz-adv-x="917" 
d="M463 29v3l270 298c12 13 15 19 15 27c0 21 -12 40 -80 40c-66 0 -85 -25 -85 -69v-56h-114v81c0 29 -9 50 -52 50s-51 -20 -51 -50v-353h-116v73c-14 -10 -39 -17 -65 -17c-106 0 -150 47 -150 143v158c0 97 44 148 150 148c26 0 51 -7 65 -18v79h-285v99h988v-99h-87
v-566h-111v78c0 41 3 111 8 140h-2c-14 -30 -44 -71 -63 -92l-87 -97h-148zM748 481v85h-382v-78c16 10 41 17 66 17c44 0 75 -12 96 -32c29 20 70 31 125 31c50 0 84 -11 95 -23zM199 154c42 0 52 20 52 48v151c0 30 -9 50 -52 50s-52 -20 -52 -50v-149c0 -30 9 -50 52 -50
z" />
    <glyph glyph-name="dvK_T_VA" horiz-adv-x="1110" 
d="M1059 566v-566h-118v74c-16 -10 -46 -17 -75 -17c-116 0 -159 53 -159 149v149c0 11 1 22 2 32h-45c-49 0 -63 -24 -63 -56v-175c0 -36 17 -47 59 -46v-110c-8 -1 -20 -2 -28 -2c-114 0 -150 52 -150 147v190c0 17 1 33 4 47c-8 13 -25 21 -57 21c-51 0 -63 -20 -63 -50
v-353h-116v73c-14 -10 -39 -17 -65 -17c-106 0 -150 47 -150 143v158c0 97 44 148 150 148c26 0 51 -7 65 -18v79h-285v99h1180v-99h-86zM941 489v77h-575v-80c16 11 41 17 75 17c49 0 85 -10 110 -29c28 14 65 22 113 22h129c21 7 45 10 73 10c29 0 59 -7 75 -17zM946 209
v146c0 33 -18 50 -62 50s-62 -17 -62 -50v-146c0 -34 18 -51 62 -51s62 17 62 51zM199 154c42 0 52 20 52 48v151c0 30 -9 50 -52 50s-52 -20 -52 -50v-149c0 -30 9 -50 52 -50z" />
    <glyph glyph-name="dvK_THA" horiz-adv-x="1014" 
d="M719 186c102 0 126 41 126 128v351h204v-99h-86v-566h-118v113c-33 -24 -81 -36 -147 -36c-156 0 -229 82 -229 212v12c0 30 -9 50 -52 50s-51 -20 -51 -49v-302h-116v73c-14 -10 -39 -17 -65 -17c-106 0 -150 47 -150 143v158c0 97 44 148 150 148c26 0 51 -7 65 -18v79
h-285v99h481v-99h-80v-130c16 11 38 17 66 17c56 0 95 -15 119 -44h38c64 0 86 18 86 70v38c0 30 -5 47 -40 47c-33 0 -40 -17 -40 -47v-23h-113v19c0 98 43 157 150 157c108 0 149 -54 149 -152v-58c0 -101 -53 -154 -176 -154h-16v-13c0 -73 27 -107 130 -107zM199 154
c42 0 52 20 52 48v151c0 30 -9 50 -52 50s-52 -20 -52 -50v-149c0 -30 9 -50 52 -50z" />
    <glyph glyph-name="dvK_DA" horiz-adv-x="857" 
d="M469 212v141c0 29 -9 50 -52 50s-51 -20 -51 -50v-353h-116v73c-14 -10 -39 -17 -65 -17c-106 0 -150 47 -150 143v158c0 97 44 148 150 148c26 0 51 -7 65 -18v79h-285v99h928v-99h-90v-176h-163c-44 0 -53 -17 -53 -46v-128c0 -29 10 -47 54 -47c45 0 55 17 55 47v60
h117v-278h-117v83c-19 -11 -47 -16 -70 -16c-109 0 -157 50 -157 147zM684 497v69h-318v-78c16 10 41 17 66 17c44 0 75 -11 97 -29c27 15 64 21 111 21h44zM199 154c42 0 52 20 52 48v151c0 30 -9 50 -52 50s-52 -20 -52 -50v-149c0 -30 9 -50 52 -50z" />
    <glyph glyph-name="dvK_NA" horiz-adv-x="1032" 
d="M784 337v-131c0 -97 -44 -151 -157 -151s-158 54 -158 151v106h-1v41c0 29 -8 50 -51 50s-52 -20 -52 -50l1 -353h-116v73c-14 -10 -40 -17 -66 -17c-106 0 -150 47 -150 143v158c0 97 44 148 150 148c26 0 52 -7 66 -18v79h-285v99h1102v-99h-86v-566h-118v379h-88
c7 -11 9 -26 9 -42zM863 488v78h-498v-78c16 10 42 17 66 17c49 0 81 -14 101 -37c24 13 55 20 95 20h236zM198 154c43 0 52 20 52 48v151c0 30 -8 50 -52 50c-43 0 -51 -20 -51 -50v-149c0 -30 8 -50 51 -50zM673 207v126c0 28 -8 46 -46 46s-46 -18 -46 -46v-126
c0 -28 8 -47 46 -47s46 19 46 47z" />
    <glyph glyph-name="dvK_PA" horiz-adv-x="889" 
d="M720 0v135c-18 -11 -48 -17 -76 -17c-112 0 -152 53 -152 149v64c0 27 -15 45 -63 45c-51 0 -63 -20 -63 -50v-326h-116v73c-14 -10 -39 -17 -65 -17c-106 0 -150 47 -150 143v158c0 97 44 148 150 148c26 0 51 -7 65 -18v79h-285v99h960v-99h-86v-566h-119zM441 476
c19 0 36 -1 51 -4v94h-126v-107c16 11 41 17 75 17zM720 566h-110v-294c0 -28 10 -49 55 -49s55 21 55 49v294zM199 154c42 0 52 20 52 48v151c0 30 -9 50 -52 50s-52 -20 -52 -50v-149c0 -30 9 -50 52 -50z" />
    <glyph glyph-name="dvK_P_RA" horiz-adv-x="889" 
d="M459 0l122 184c-67 15 -89 59 -89 134v13c0 27 -15 45 -63 45c-51 0 -63 -20 -63 -50v-326h-116v73c-14 -10 -39 -17 -65 -17c-106 0 -150 47 -150 143v158c0 97 44 148 150 148c26 0 51 -7 65 -18v79h-285v99h960v-99h-86v-566h-119v194l-129 -194h-132zM492 566h-126
v-107c16 11 41 17 75 17c19 0 36 -1 51 -4v94zM720 566h-110v-245c0 -28 9 -48 55 -48c47 0 55 20 55 48v245zM199 154c42 0 52 20 52 48v151c0 30 -9 50 -52 50s-52 -20 -52 -50v-149c0 -30 9 -50 52 -50z" />
    <glyph glyph-name="dvK_PHA" horiz-adv-x="1081" 
d="M879 61v110c40 -1 49 13 49 47v127c0 28 -8 47 -49 47c-42 0 -50 -19 -50 -47v-345h-118v121c-17 -10 -43 -16 -66 -16c-108 0 -153 51 -153 147v79c0 27 -15 45 -63 45c-51 0 -63 -20 -63 -50v-326h-116v73c-14 -10 -39 -17 -65 -17c-106 0 -150 47 -150 143v158
c0 97 44 148 150 148c26 0 51 -7 65 -18v79h-285v99h1152v-99h-288v-82c17 11 41 17 65 17c108 0 152 -57 152 -153v-141c0 -96 -44 -148 -150 -147c-6 0 -13 0 -17 1zM441 476c19 0 36 -1 51 -4v94h-126v-107c16 11 41 17 75 17zM711 566h-101v-310c0 -28 9 -46 51 -46
c40 0 50 17 50 46v310zM199 154c42 0 52 20 52 48v151c0 30 -9 50 -52 50s-52 -20 -52 -50v-149c0 -30 9 -50 52 -50z" />
    <glyph glyph-name="dvKx_PHA" horiz-adv-x="1082" 
d="M880 61v110c40 -1 49 13 49 47v127c0 28 -8 47 -49 47c-42 0 -50 -19 -50 -47v-345h-118v121c-17 -10 -42 -16 -66 -16c-107 0 -153 51 -153 147v79c0 27 -14 45 -63 45c-51 0 -63 -20 -63 -50v-326h-115v73c-14 -10 -40 -17 -66 -17c-106 0 -150 47 -150 143v158
c0 97 44 148 150 148c26 0 52 -7 66 -18v79h-286v99h1152v-99h-288v-82c17 11 42 17 65 17c108 0 152 -57 152 -153v-141c0 -96 -44 -148 -150 -147c-6 0 -13 0 -17 1zM442 476c19 0 36 -1 51 -4v94h-126v-107c17 11 41 17 75 17zM712 566h-101v-310c0 -28 9 -46 51 -46
c40 0 50 17 50 46v310zM200 154c43 0 52 20 52 48v151c0 30 -9 50 -52 50s-51 -20 -51 -50v-149c0 -30 8 -50 51 -50zM67 -48c0 37 14 66 65 66c50 0 65 -29 65 -66c0 -36 -15 -65 -65 -65c-51 0 -65 29 -65 65z" />
    <glyph glyph-name="dvKx_PHxA" horiz-adv-x="1082" 
d="M880 61v110c40 -1 49 13 49 47v127c0 28 -8 47 -49 47c-42 0 -50 -19 -50 -47v-345h-118v121c-17 -10 -42 -16 -66 -16c-107 0 -153 51 -153 147v79c0 27 -14 45 -63 45c-51 0 -63 -20 -63 -50v-326h-115v73c-14 -10 -40 -17 -66 -17c-106 0 -150 47 -150 143v158
c0 97 44 148 150 148c26 0 52 -7 66 -18v79h-287v99h1153v-99h-288v-82c17 11 42 17 65 17c108 0 152 -57 152 -153v-141c0 -96 -44 -148 -150 -147c-6 0 -13 0 -17 1zM442 476c19 0 36 -1 51 -4v94h-126v-107c17 11 41 17 75 17zM712 566h-101v-310c0 -28 9 -46 51 -46
c40 0 50 17 50 46v310zM200 154c43 0 52 20 52 48v151c0 30 -9 50 -52 50s-51 -20 -51 -50v-149c0 -30 8 -50 51 -50zM465 -14c0 36 14 65 65 65s66 -29 66 -65c0 -37 -15 -66 -66 -66s-65 29 -65 66zM74 -48c0 37 14 66 65 66c50 0 65 -29 65 -66c0 -36 -15 -65 -65 -65
c-51 0 -65 29 -65 65z" />
    <glyph glyph-name="dvKx_BA" horiz-adv-x="891" 
d="M728 0v75c-20 -11 -47 -17 -82 -17c-117 0 -176 40 -176 156v139c0 29 -8 50 -51 50s-52 -20 -52 -50v-353h-115v73c-14 -10 -40 -17 -66 -17c-106 0 -150 47 -150 143v158c0 97 44 148 150 148c26 0 52 -7 66 -18v79h-287v99h961v-99h-86v-566h-112zM728 489v77h-361
v-78c16 10 42 17 66 17c41 0 70 -10 90 -27c29 20 70 28 123 28c35 0 62 -6 82 -17zM655 408c-37 0 -57 -10 -65 -28l138 -118v83c0 39 -16 63 -73 63zM200 154c43 0 52 20 52 48v151c0 30 -9 50 -52 50s-51 -20 -51 -50v-149c0 -30 8 -50 51 -50zM583 219
c0 -38 14 -63 72 -63c39 0 58 11 67 30l-139 118v-85zM67 -48c0 37 14 66 65 66c50 0 65 -29 65 -66c0 -36 -15 -65 -65 -65c-51 0 -65 29 -65 65z" />
    <glyph glyph-name="dvK_MA" horiz-adv-x="1050" 
d="M883 0v341h-90v-141c0 -88 -47 -143 -162 -143s-162 55 -162 143v153c0 29 -9 50 -52 50s-51 -20 -51 -50v-353h-116v73c-14 -10 -39 -17 -65 -17c-106 0 -150 47 -150 143v158c0 97 44 148 150 148c26 0 51 -7 65 -18v79h-285v99h1120v-99h-86v-566h-116zM680 441v125
h-314v-78c16 10 41 17 66 17c72 0 115 -25 135 -71c18 5 40 7 64 7h49zM793 441h90v125h-90v-125zM199 154c42 0 52 20 52 48v151c0 30 -9 50 -52 50s-52 -20 -52 -50v-149c0 -30 9 -50 52 -50zM680 204v137h-49c-41 0 -49 -18 -49 -46v-91c0 -28 8 -46 49 -46
c42 0 49 18 49 46z" />
    <glyph glyph-name="dvKx_MA" horiz-adv-x="1051" 
d="M884 0v341h-89v-141c0 -88 -47 -143 -163 -143c-115 0 -162 55 -162 143v153c0 29 -8 50 -51 50s-52 -20 -52 -50v-353h-115v73c-14 -10 -40 -17 -66 -17c-106 0 -150 47 -150 143v158c0 97 44 148 150 148c26 0 52 -7 66 -18v79h-287v99h1121v-99h-86v-566h-116z
M681 441v125h-314v-78c16 10 42 17 66 17c71 0 106 -30 122 -75c21 7 47 11 77 11h49zM795 441h89v125h-89v-125zM200 154c43 0 52 20 52 48v151c0 30 -9 50 -52 50s-51 -20 -51 -50v-149c0 -30 8 -50 51 -50zM681 204v137h-49c-41 0 -49 -18 -49 -46v-91
c0 -28 8 -46 49 -46c42 0 49 18 49 46zM67 -48c0 37 14 66 65 66c50 0 65 -29 65 -66c0 -36 -15 -65 -65 -65c-51 0 -65 29 -65 65z" />
    <glyph glyph-name="dvK_YA" horiz-adv-x="950" 
d="M673 86c-129 0 -204 61 -204 180v78c0 29 -9 49 -52 49s-51 -20 -51 -49v-344h-116v73c-14 -10 -39 -17 -65 -17c-106 0 -150 47 -150 143v158c0 97 44 148 150 148c26 0 51 -7 65 -18v79h-285v99h1021v-99h-86v-566h-118v114c-26 -18 -61 -28 -109 -28zM586 507
c0 32 -6 59 -50 59h-170v-88c16 11 41 18 66 18c79 0 123 -30 140 -85c10 10 14 25 14 47v49zM682 196c79 0 100 31 100 85v285h-96c11 -14 16 -32 16 -59v-71c0 -79 -40 -118 -118 -121v-34c0 -54 20 -85 98 -85zM199 154c42 0 52 20 52 48v151c0 30 -9 50 -52 50
s-52 -20 -52 -50v-149c0 -30 9 -50 52 -50z" />
    <glyph glyph-name="dvK_LA" horiz-adv-x="1072" 
d="M469 171v182c0 29 -9 50 -52 50s-51 -20 -51 -50v-353h-116v73c-14 -10 -39 -17 -65 -17c-106 0 -150 47 -150 143v158c0 97 44 148 150 148c26 0 51 -7 65 -18v79h-285v99h1143v-99h-87v-566h-118v332c0 29 -9 49 -49 49c-41 0 -50 -20 -50 -49v-121h-118v121
c0 29 -8 49 -50 49c-41 0 -49 -20 -49 -49v-159c0 -39 9 -70 78 -70h60l1 -103h-67c-140 0 -190 55 -190 171zM903 472v94h-537v-78c16 10 41 17 66 17c49 0 84 -11 109 -33c24 12 54 18 91 18c67 0 97 -28 111 -52c14 24 42 51 100 51c25 0 49 -6 60 -17zM199 154
c42 0 52 20 52 48v151c0 30 -9 50 -52 50s-52 -20 -52 -50v-149c0 -30 9 -50 52 -50z" />
    <glyph glyph-name="dvK_VA" horiz-adv-x="877" 
d="M826 566v-566h-118v74c-15 -10 -46 -17 -74 -17c-117 0 -159 53 -159 149v147c0 29 -10 50 -55 50c-44 0 -54 -20 -54 -50v-353h-116v73c-14 -10 -39 -17 -65 -17c-106 0 -150 47 -150 143v158c0 97 44 148 150 148c26 0 51 -7 65 -18v79h-285v99h948v-99h-87zM708 489
v77h-342v-78c16 10 43 17 69 17c41 0 71 -9 93 -25c25 17 60 26 106 26c28 0 59 -7 74 -17zM714 209v146c0 33 -18 50 -63 50c-44 0 -61 -17 -61 -50v-146c0 -34 17 -51 61 -51c45 0 63 17 63 51zM199 154c42 0 52 20 52 48v151c0 30 -9 50 -52 50s-52 -20 -52 -50v-149
c0 -30 9 -50 52 -50z" />
    <glyph glyph-name="dvK_V_YA" horiz-adv-x="1212" 
d="M654 56c-140 0 -185 58 -185 158v139c0 29 -9 50 -52 50s-51 -20 -51 -50v-353h-116v73c-14 -10 -39 -17 -65 -17c-106 0 -150 47 -150 143v158c0 97 44 148 150 148c26 0 51 -7 65 -18v79h-285v99h1283v-99h-86v-566h-119v114c-25 -18 -60 -28 -108 -28
c-56 0 -101 11 -135 33c-24 -38 -69 -63 -146 -63zM675 499v-101c-1 1 -15 2 -30 2c-44 0 -61 -16 -61 -50v-134c0 -37 13 -58 73 -58c59 0 74 21 74 58v177h23c72 0 94 13 94 65v49c0 32 -6 59 -50 59h-432v-78c16 10 41 17 66 17c42 0 72 -11 93 -30c27 17 65 26 115 26
c17 0 34 -2 35 -2zM944 196c79 0 99 31 99 85v285h-95c11 -14 15 -32 15 -59v-71c0 -79 -39 -118 -117 -121v-34c0 -54 20 -85 98 -85zM199 154c42 0 52 20 52 48v151c0 30 -9 50 -52 50s-52 -20 -52 -50v-149c0 -30 9 -50 52 -50z" />
    <glyph glyph-name="dvK_SHA" horiz-adv-x="1053" 
d="M811 516v-146c0 -97 -42 -151 -152 -151c-23 0 -57 5 -70 15v-82c0 -28 11 -48 53 -48c43 0 54 20 54 48v21h118v-24c0 -97 -55 -154 -172 -154c-116 0 -171 57 -171 154v173c0 30 -11 46 -52 46c-40 0 -53 -18 -53 -50v-318h-116v73c-14 -10 -39 -17 -65 -17
c-106 0 -150 47 -150 143v158c0 97 44 148 150 148c26 0 51 -7 65 -18v79h-285v99h457v-99h-56v-116c19 12 47 22 87 22c84 0 131 -33 131 -108c0 -23 14 -40 54 -40c43 0 55 19 55 47v141c0 28 -9 49 -52 49s-52 -21 -52 -49v-13h-118v17c0 97 53 154 170 154
s170 -57 170 -154zM884 665h204v-99h-86v-566h-118v665zM199 154c42 0 52 20 52 48v151c0 30 -9 50 -52 50s-52 -20 -52 -50v-149c0 -30 9 -50 52 -50z" />
    <glyph glyph-name="dvK_SS_MA" horiz-adv-x="1038" 
d="M872 0v341h-90v-141c0 -88 -47 -143 -162 -143c-116 0 -163 55 -163 143v99c0 9 0 18 1 26h-241c-47 0 -52 -24 -52 -60v-62c0 -28 9 -48 49 -48s50 18 50 45v45h112v-245h-112v67c-19 -10 -42 -15 -69 -15c-107 0 -151 56 -151 152v77c0 44 13 82 55 101
c-24 15 -34 47 -34 99v39c0 97 50 150 160 150c111 0 157 -53 157 -150v-40c0 -32 -3 -47 -10 -57h152c25 12 56 18 96 18h49v125h-220v99h625v-99h-86v-566h-116zM270 466v54c0 28 -5 48 -45 48c-39 0 -45 -20 -45 -48v-54c0 -27 6 -48 45 -48c40 0 45 20 45 48zM782 441
h90v125h-90v-125zM669 204v137h-49c-42 0 -49 -18 -49 -46v-91c0 -28 7 -46 49 -46c41 0 49 18 49 46z" />
    <glyph glyph-name="dvK_SS_M_YA" horiz-adv-x="1349" 
d="M439 566v99h945v-99h-86v-566h-118v114c-26 -18 -60 -28 -109 -28c-129 0 -204 61 -204 180v39c0 27 -11 32 -45 32h-47v-137c0 -88 -47 -143 -162 -143c-116 0 -163 55 -163 143v94c0 9 1 18 2 27h-235c-47 0 -52 -24 -52 -60v-58c0 -28 9 -48 49 -48s50 18 50 45v45
h112v-245h-112v67c-19 -10 -42 -15 -69 -15c-107 0 -151 56 -151 152v73c0 45 13 82 55 101c-24 15 -34 47 -34 99v43c0 97 50 150 160 150c111 0 157 -53 157 -150v-44c0 -32 -3 -47 -10 -57h146c24 12 56 18 95 18h49v129h-223zM270 463v57c0 28 -5 48 -45 48
c-39 0 -45 -20 -45 -48v-57c0 -28 6 -48 45 -48c40 0 45 20 45 48zM985 507c0 32 -7 59 -50 59h-160v-129h61c57 0 92 -14 111 -38c28 7 38 25 38 59v49zM1080 196c79 0 100 31 100 85v285h-95c10 -14 15 -32 15 -59v-71c0 -79 -40 -118 -117 -121v-34c0 -54 19 -85 97 -85z
M662 204v133h-49c-42 0 -49 -18 -49 -46v-87c0 -28 7 -46 49 -46c41 0 49 18 49 46z" />
    <glyph glyph-name="dvK_SS_YA" horiz-adv-x="949" 
d="M372 421h118c72 0 95 14 95 66v20c0 32 -7 59 -50 59h-86v99h535v-99h-86v-566h-118v114c-25 -18 -60 -28 -109 -28c-129 0 -204 61 -204 180v58h-250c-47 0 -52 -25 -52 -61v-60c0 -28 9 -48 49 -48s50 18 50 45v45h112v-245h-112v67c-19 -10 -42 -15 -69 -15
c-107 0 -151 56 -151 152v75c0 45 13 83 55 101c-24 16 -34 47 -34 100v40c0 97 50 150 160 150c111 0 157 -53 157 -150v-41c0 -33 -3 -48 -10 -58zM270 465v55c0 28 -5 48 -45 48c-39 0 -45 -20 -45 -48v-55c0 -28 6 -48 45 -48c40 0 45 20 45 48zM680 196
c79 0 100 31 100 85v285h-95c10 -14 15 -32 15 -59v-42c0 -79 -39 -118 -117 -121v-63c0 -54 20 -85 97 -85z" />
    <glyph glyph-name="dvK_SS_VA" horiz-adv-x="872" 
d="M821 566v-566h-118v74c-16 -10 -46 -17 -75 -17c-116 0 -159 53 -159 149v119h-252c-47 0 -52 -24 -52 -60v-62c0 -28 9 -48 49 -48s50 18 50 45v45h112v-245h-112v67c-19 -10 -42 -15 -69 -15c-107 0 -151 56 -151 152v77c0 44 13 82 55 101c-24 15 -34 47 -34 99v39
c0 97 50 150 160 150c111 0 157 -53 157 -150v-40c0 -32 -3 -47 -10 -57h107c19 54 66 83 149 83c29 0 59 -7 75 -17v77h-254v99h458v-99h-86zM270 466v54c0 28 -5 48 -45 48c-39 0 -45 -20 -45 -48v-54c0 -27 6 -48 45 -48c40 0 45 20 45 48zM708 209v146
c0 33 -18 50 -62 50s-62 -17 -62 -50v-146c0 -34 18 -51 62 -51s62 17 62 51z" />
    <glyph glyph-name="dvK_SA" horiz-adv-x="1056" 
d="M-35 566v99h1126v-99h-86v-566h-118v268h-142c-22 -17 -54 -25 -89 -25c-27 0 -53 4 -72 17v-110c0 -28 9 -48 51 -48c43 0 51 20 51 48v21h116v-22c0 -97 -50 -154 -167 -154c-116 0 -166 57 -166 154v201c0 31 -10 48 -52 48c-43 0 -51 -20 -51 -49v-349h-116v73
c-14 -10 -39 -17 -65 -17c-106 0 -150 47 -150 143v158c0 97 44 148 150 148c26 0 51 -7 65 -18v79h-285zM679 517c0 27 -8 49 -48 49h-265v-85c21 13 50 21 85 21c80 0 126 -37 126 -112c0 -25 8 -43 51 -43s51 20 51 50v120zM795 507v-115c0 -7 -1 -18 -2 -23h94v197h-109
c13 -13 17 -35 17 -59zM199 154c42 0 52 20 52 48v151c0 30 -9 50 -52 50s-52 -20 -52 -50v-149c0 -30 9 -50 52 -50z" />
    <glyph glyph-name="dvK_S_TTA" horiz-adv-x="1259" 
d="M1204 387h-146c-43 0 -51 -18 -51 -46v-192c0 -28 10 -48 52 -48c43 0 52 20 52 48v86h118v-86c0 -97 -53 -154 -170 -154c-116 0 -170 57 -170 154v119h-143c-21 -17 -54 -25 -88 -25c-27 0 -54 4 -72 17v-110c0 -28 8 -48 51 -48c42 0 50 20 50 48v21h116v-22
c0 -97 -50 -154 -166 -154c-117 0 -167 57 -167 154v200c0 32 -9 48 -52 48s-52 -20 -52 -49v-348h-116v73c-14 -10 -39 -17 -65 -17c-106 0 -150 47 -150 143v158c0 97 44 148 150 148c26 0 51 -7 65 -18v79h-285v99h1329v-99h-90v-179zM1085 494v72h-306
c13 -13 17 -35 17 -59v-115c0 -7 0 -18 -2 -23h96c8 87 60 125 168 125h27zM680 517c0 27 -8 49 -48 49h-266v-87c21 14 50 22 85 22c79 0 127 -34 127 -109c0 -28 11 -45 51 -45c43 0 51 20 51 50v120zM199 154c42 0 52 20 52 48v151c0 30 -9 50 -52 50s-52 -20 -52 -50
v-149c0 -30 9 -50 52 -50z" />
    <glyph glyph-name="dvK_S_DDA" horiz-adv-x="1272" 
d="M-35 566v99h1341v-99h-94v-164h-164c-34 0 -44 -16 -44 -40v-9c0 -25 9 -41 44 -41h23c117 0 170 -45 170 -141v-32c0 -96 -55 -144 -176 -144c-120 0 -177 47 -177 144v23h118v-19c0 -28 12 -46 58 -46c47 0 59 18 59 46v24c0 25 -9 45 -52 45h-23
c-69 0 -118 17 -142 56h-160c-21 -17 -54 -25 -88 -25c-27 0 -54 4 -72 17v-110c0 -28 8 -48 51 -48c42 0 50 20 50 48v21h116v-22c0 -97 -50 -154 -166 -154c-117 0 -167 57 -167 154v200c0 32 -9 48 -52 48s-52 -20 -52 -49v-348h-116v73c-14 -10 -39 -17 -65 -17
c-106 0 -150 47 -150 143v158c0 97 44 148 150 148c26 0 51 -7 65 -18v79h-285zM1093 566h-314c13 -13 17 -35 17 -59v-115c0 -7 0 -18 -2 -23h92c1 97 54 135 162 135h45v62zM680 517c0 27 -8 49 -48 49h-266v-87c21 14 50 22 85 22c79 0 127 -34 127 -109
c0 -28 11 -45 51 -45c43 0 51 20 51 50v120zM199 154c42 0 52 20 52 48v151c0 30 -9 50 -52 50s-52 -20 -52 -50v-149c0 -30 9 -50 52 -50z" />
    <glyph glyph-name="dvK_S_TA" horiz-adv-x="1303" 
d="M1066 110v-110c-8 -1 -19 -2 -27 -2c-114 0 -150 52 -150 147v123h-143c-21 -17 -54 -25 -88 -25c-27 0 -54 4 -72 17v-110c0 -28 8 -48 51 -48c42 0 50 20 50 48v21h116v-22c0 -97 -50 -154 -166 -154c-117 0 -167 57 -167 154v200c0 32 -9 48 -52 48s-52 -20 -52 -49
v-348h-116v73c-14 -10 -39 -17 -65 -17c-106 0 -150 47 -150 143v158c0 97 44 148 150 148c26 0 51 -7 65 -18v79h-285v99h1374v-99h-87v-566h-118v333c0 33 -14 56 -63 56c-50 0 -64 -23 -64 -56v-177c0 -36 17 -47 59 -46zM1134 482v84h-355c13 -13 17 -35 17 -59v-115
c0 -7 0 -18 -2 -23h97c10 78 61 129 164 129c33 0 63 -6 79 -16zM680 517c0 27 -8 49 -48 49h-266v-87c21 14 50 22 85 22c79 0 127 -34 127 -109c0 -28 11 -45 51 -45c43 0 51 20 51 50v120zM199 154c42 0 52 20 52 48v151c0 30 -9 50 -52 50s-52 -20 -52 -50v-149
c0 -30 9 -50 52 -50z" />
    <glyph glyph-name="dvK_S_P_RA" horiz-adv-x="1296" 
d="M866 0l121 184c-50 11 -75 39 -84 84h-157c-21 -17 -54 -25 -88 -25c-27 0 -54 4 -72 17v-110c0 -28 8 -48 51 -48c42 0 50 20 50 48v21h116v-22c0 -97 -50 -154 -166 -154c-117 0 -167 57 -167 154v200c0 32 -9 48 -52 48s-52 -20 -52 -49v-348h-116v73
c-14 -10 -39 -17 -65 -17c-106 0 -150 47 -150 143v158c0 97 44 148 150 148c26 0 51 -7 65 -18v79h-285v99h1366v-99h-86v-566h-118v195l-129 -195h-132zM898 566h-119c13 -13 17 -35 17 -59v-115c0 -7 0 -18 -2 -23h104v197zM680 517c0 27 -8 49 -48 49h-266v-87
c21 14 50 22 85 22c79 0 127 -34 127 -109c0 -28 11 -45 51 -45c43 0 51 20 51 50v120zM1127 566h-111v-245c0 -28 9 -48 56 -48c46 0 55 20 55 48v245zM199 154c42 0 52 20 52 48v151c0 30 -9 50 -52 50s-52 -20 -52 -50v-149c0 -30 9 -50 52 -50z" />
    <glyph glyph-name="dvK_S_P_LA" horiz-adv-x="1744" 
d="M-35 566v99h1814v-99h-86v-566h-118v337c0 29 -9 48 -50 48c-40 0 -49 -19 -49 -48v-126h-118v126c0 28 -8 48 -50 48c-41 0 -49 -20 -49 -48v-164c0 -39 9 -70 78 -70h60l1 -103h-67c-122 0 -177 42 -188 130c-22 -8 -46 -12 -74 -12c-111 0 -162 49 -162 150h-161
c-21 -17 -54 -25 -88 -25c-27 0 -54 4 -72 17v-110c0 -28 8 -48 51 -48c42 0 50 20 50 48v21h116v-22c0 -97 -50 -154 -166 -154c-117 0 -167 57 -167 154v200c0 32 -9 48 -52 48s-52 -20 -52 -49v-348h-116v73c-14 -10 -39 -17 -65 -17c-106 0 -150 47 -150 143v158
c0 97 44 148 150 148c26 0 51 -7 65 -18v79h-285zM1575 476v90h-550v-292c0 -30 11 -51 58 -51c46 0 57 20 57 51v67c0 96 53 153 164 153c67 0 97 -27 110 -52c14 25 43 52 101 52c25 0 49 -6 60 -18zM794 369h113v197h-128c13 -13 17 -35 17 -59v-115c0 -7 0 -18 -2 -23z
M680 517c0 27 -8 49 -48 49h-266v-87c21 14 50 22 85 22c79 0 127 -34 127 -109c0 -28 11 -45 51 -45c43 0 51 20 51 50v120zM199 154c42 0 52 20 52 48v151c0 30 -9 50 -52 50s-52 -20 -52 -50v-149c0 -30 9 -50 52 -50z" />
    <glyph glyph-name="dvKH_KHA" horiz-adv-x="1345" 
d="M859 0h-22c-122 0 -190 38 -214 115c-18 -5 -41 -8 -67 -8c-30 0 -52 5 -67 15c-21 -79 -85 -122 -201 -122h-22c-156 0 -228 63 -228 190v258h113v-66c0 -28 7 -47 48 -47c42 0 48 19 48 47v135c0 28 -9 48 -50 49h-232v99h1416v-99h-86v-566h-115v121
c-14 -11 -39 -14 -60 -14c-26 0 -46 2 -63 8c-23 -75 -86 -115 -198 -115zM397 194v153c0 97 36 148 159 148c106 0 159 -39 159 -125v-8c0 -26 11 -42 51 -42c49 0 52 26 52 54v143c0 28 -9 48 -51 49h-421c7 -13 11 -29 11 -49v-139c0 -97 -33 -147 -141 -147
c-21 0 -51 6 -65 17v-54c0 -58 32 -89 114 -89h13c84 0 119 31 119 89zM968 194v152c0 97 31 152 147 152c21 0 48 -5 65 -15v83h-264c8 -13 12 -29 12 -49v-155c0 -96 -34 -147 -141 -147c-21 0 -52 6 -65 17v-38c0 -58 31 -89 114 -89h13c84 0 119 31 119 89zM609 255v92
c0 30 -10 48 -53 48s-52 -19 -52 -48v-97c0 -26 11 -43 52 -43c43 0 53 18 53 48zM1127 395c-43 0 -53 -19 -53 -48v-97c1 -26 11 -43 53 -43c43 0 53 19 53 48v92c0 29 -10 48 -53 48z" />
    <glyph glyph-name="dvKH_TA" horiz-adv-x="1016" 
d="M779 110v-110c-8 -1 -20 -2 -28 -2c-97 0 -133 40 -141 115c-15 -4 -33 -6 -54 -6c-28 0 -49 5 -63 14c-24 -79 -90 -121 -205 -121h-22c-156 0 -228 63 -228 190v258h113v-66c0 -28 7 -47 48 -47c42 0 48 19 48 47v135c0 28 -9 48 -50 49h-232v99h1086v-99h-86v-566
h-118v333c0 33 -14 56 -64 56c-49 0 -64 -23 -64 -56v-177c0 -36 17 -47 60 -46zM847 482v84h-501c7 -13 11 -29 11 -49v-139c0 -97 -33 -147 -141 -147c-21 0 -51 6 -65 17v-54c0 -58 32 -89 114 -89h13c84 0 119 31 119 89v153c0 97 36 148 159 148c48 0 81 -9 104 -28
c25 20 60 31 108 31c33 0 62 -6 79 -16zM609 255v92c0 30 -10 48 -53 48s-52 -19 -52 -48v-92c0 -29 9 -48 52 -48s53 18 53 48z" />
    <glyph glyph-name="dvKHx_TA" horiz-adv-x="1018" 
d="M781 110v-110c-8 -1 -20 -2 -28 -2c-96 0 -133 40 -140 113c-16 -3 -33 -4 -54 -4c-28 0 -49 5 -64 14c-23 -79 -89 -121 -205 -121h-22c-156 0 -227 63 -227 190v258h113v-66c0 -28 6 -47 48 -47c41 0 48 19 48 47v135c0 28 -9 48 -51 49h-234v99h1089v-99h-86v-566
h-119v333c0 33 -14 56 -63 56c-50 0 -64 -23 -64 -56v-177c0 -36 17 -47 59 -46zM849 482v84h-501c8 -13 11 -29 11 -49v-139c0 -97 -33 -147 -141 -147c-21 0 -51 6 -64 17v-54c0 -58 31 -89 114 -89h12c85 0 119 31 119 89v153c0 97 37 148 160 148c50 0 84 -8 107 -25
c24 18 59 28 104 28c33 0 63 -6 79 -16zM611 255v92c0 30 -9 48 -52 48s-53 -19 -53 -48v-92c0 -29 10 -48 53 -48s52 18 52 48zM-20 -69c0 37 14 65 64 65s65 -28 65 -65s-15 -65 -65 -65s-64 28 -64 65z" />
    <glyph glyph-name="dvKH_NA" horiz-adv-x="1172" 
d="M924 337v-131c0 -97 -43 -151 -157 -151c-79 0 -124 26 -145 75c-18 -6 -40 -9 -66 -9s-46 4 -60 12c-20 -86 -87 -133 -208 -133h-22c-156 0 -228 63 -228 190v258h113v-66c0 -28 7 -47 48 -47c42 0 48 19 48 47v135c0 28 -9 48 -50 49h-232v99h1242v-99h-86v-566h-118
v379h-87c6 -11 8 -26 8 -42zM1003 488v78h-657c7 -13 11 -29 11 -49v-139c0 -97 -33 -147 -141 -147c-21 0 -51 6 -65 17v-54c0 -58 32 -89 114 -89h13c84 0 119 31 119 89v153c0 97 36 148 159 148c51 0 85 -11 107 -32c25 16 59 25 104 25h236zM609 269v78
c0 30 -10 48 -53 48s-52 -19 -52 -48v-78c0 -29 9 -48 52 -48s53 18 53 48zM813 207v126c0 28 -8 46 -46 46c-37 0 -45 -18 -45 -46v-126c0 -28 8 -47 45 -47c38 0 46 19 46 47z" />
    <glyph glyph-name="dvKH_MA" horiz-adv-x="1183" 
d="M1017 0v341h-90v-141c0 -88 -47 -143 -162 -143c-74 0 -117 22 -138 61c-19 -7 -42 -11 -71 -11c-28 0 -49 5 -63 14c-24 -79 -90 -121 -205 -121h-22c-156 0 -228 63 -228 190v258h113v-66c0 -28 7 -47 48 -47c42 0 48 19 48 47v135c0 28 -9 48 -50 49h-232v99h1254v-99
h-87v-566h-115zM813 441v125h-467c7 -13 11 -29 11 -49v-139c0 -97 -33 -147 -141 -147c-21 0 -51 6 -65 17v-54c0 -58 32 -89 114 -89h13c84 0 119 31 119 89v153c0 97 36 148 159 148c74 0 113 -22 131 -65c21 7 47 11 78 11h48zM927 441h90v125h-90v-125zM609 255v92
c0 30 -10 48 -53 48s-52 -19 -52 -48v-92c0 -29 9 -48 52 -48s53 18 53 48zM813 204v137h-48c-42 0 -49 -18 -49 -46v-91c0 -28 7 -46 49 -46c41 0 48 18 48 46z" />
    <glyph glyph-name="dvKHx_MA" horiz-adv-x="1192" 
d="M-35 566v99h1263v-99h-86v-566h-116v341h-90v-141c0 -88 -47 -143 -162 -143c-74 0 -119 22 -143 61c-19 -7 -43 -11 -72 -11c-27 0 -47 4 -62 13c-19 -76 -74 -120 -191 -120h-55c-153 0 -210 71 -210 197v268h116v-83c0 -28 7 -47 48 -47c42 0 48 19 48 47v135
c0 28 -9 48 -50 49h-238zM823 441v125h-464c8 -13 12 -29 12 -49v-139c0 -97 -41 -147 -149 -147c-21 0 -51 6 -65 17v-51c0 -58 18 -88 93 -88h55c75 0 94 30 94 88v150c0 97 37 148 160 148c71 0 113 -23 133 -66c22 8 49 12 82 12h49zM936 441h90v125h-90v-125zM611 255
v92c0 30 -9 48 -52 48s-53 -19 -53 -48v-92c0 -29 10 -48 53 -48s52 18 52 48zM823 204v137h-49c-42 0 -49 -18 -49 -46v-91c0 -28 7 -46 49 -46c41 0 49 18 49 46zM-17 -69c0 37 14 65 64 65s65 -28 65 -65s-15 -65 -65 -65s-64 28 -64 65z" />
    <glyph glyph-name="dvKH_YA" horiz-adv-x="1092" 
d="M-35 566v99h1161v-99h-86v-566h-118v114c-25 -18 -60 -28 -109 -28c-68 0 -120 17 -155 50c-22 -18 -55 -29 -102 -29c-28 0 -49 5 -63 14c-24 -79 -90 -121 -205 -121h-22c-156 0 -228 63 -228 190v258h113v-66c0 -28 7 -47 48 -47c42 0 48 19 48 47v135
c0 28 -9 48 -50 49h-232zM727 507c0 32 -7 59 -50 59h-331c7 -13 11 -29 11 -49v-139c0 -97 -33 -147 -141 -147c-21 0 -51 6 -65 17v-54c0 -58 32 -89 114 -89h13c84 0 119 31 119 89v153c0 97 36 148 159 148c89 0 128 -32 140 -94c22 8 31 25 31 57v49zM822 196
c79 0 100 31 100 85v285h-95c10 -14 15 -32 15 -59v-71c0 -79 -39 -118 -117 -121v-34c0 -54 20 -85 97 -85zM609 255v92c0 30 -10 48 -53 48s-52 -19 -52 -48v-92c0 -29 9 -48 52 -48s53 18 53 48z" />
    <glyph glyph-name="dvKHx_YA" horiz-adv-x="1093" 
d="M-35 566v99h1164v-99h-87v-566h-118v114c-25 -18 -60 -28 -109 -28c-67 0 -119 16 -154 48c-23 -18 -56 -27 -102 -27c-27 0 -47 4 -62 13c-19 -76 -74 -120 -191 -120h-55c-153 0 -210 71 -210 197v268h116v-83c0 -28 7 -47 48 -47c42 0 48 19 48 47v135
c0 28 -9 48 -50 49h-238zM729 507c0 32 -6 59 -50 59h-320c8 -13 12 -29 12 -49v-139c0 -97 -41 -147 -149 -147c-21 0 -51 6 -65 17v-51c0 -58 18 -88 93 -88h55c75 0 94 30 94 88v150c0 97 37 148 160 148c85 0 127 -32 142 -93c20 8 28 26 28 56v49zM825 196
c78 0 99 31 99 85v285h-95c10 -14 15 -32 15 -59v-71c0 -79 -39 -118 -117 -121v-34c0 -54 20 -85 98 -85zM611 255v92c0 30 -9 48 -52 48s-53 -19 -53 -48v-92c0 -29 10 -48 53 -48s52 18 52 48zM-17 -69c0 37 14 65 64 65s65 -28 65 -65s-15 -65 -65 -65s-64 28 -64 65z
" />
    <glyph glyph-name="dvKH_VA" horiz-adv-x="1011" 
d="M961 566v-566h-119v74c-15 -10 -46 -17 -74 -17c-75 0 -116 22 -136 63c-20 -8 -45 -13 -76 -13c-28 0 -49 5 -63 14c-24 -79 -90 -121 -205 -121h-22c-156 0 -228 63 -228 190v258h113v-66c0 -28 7 -47 48 -47c42 0 48 19 48 47v135c0 28 -9 48 -50 49h-232v99h1082v-99
h-86zM842 489v77h-496c7 -13 11 -29 11 -49v-139c0 -97 -33 -147 -141 -147c-21 0 -51 6 -65 17v-54c0 -58 32 -89 114 -89h13c84 0 119 31 119 89v153c0 97 36 148 159 148c44 0 76 -8 98 -24c24 23 60 35 114 35c28 0 59 -7 74 -17zM848 209v146c0 33 -18 50 -62 50
c-45 0 -62 -17 -62 -50v-146c0 -34 17 -51 62 -51c44 0 62 17 62 51zM609 255v92c0 30 -10 48 -53 48s-52 -19 -52 -48v-92c0 -29 9 -48 52 -48s53 18 53 48z" />
    <glyph glyph-name="dvKHx_VA" horiz-adv-x="1014" 
d="M-35 566v99h1084v-99h-86v-566h-118v74c-16 -10 -46 -17 -75 -17c-74 0 -115 22 -135 62c-20 -8 -45 -12 -76 -12c-27 0 -47 4 -62 13c-19 -76 -74 -120 -191 -120h-55c-153 0 -210 71 -210 197v268h116v-83c0 -28 7 -47 48 -47c42 0 48 19 48 47v135c0 28 -9 48 -50 49
h-238zM845 489v77h-486c8 -13 12 -29 12 -49v-139c0 -97 -41 -147 -149 -147c-21 0 -51 6 -65 17v-51c0 -58 18 -88 93 -88h55c75 0 94 30 94 88v150c0 97 37 148 160 148c42 0 74 -8 97 -24c24 23 61 35 114 35c29 0 59 -7 75 -17zM850 209v146c0 33 -18 50 -62 50
s-62 -17 -62 -50v-146c0 -34 18 -51 62 -51s62 17 62 51zM611 255v92c0 30 -9 48 -52 48s-53 -19 -53 -48v-92c0 -29 10 -48 53 -48s52 18 52 48zM-17 -69c0 37 14 65 64 65s65 -28 65 -65s-15 -65 -65 -65s-64 28 -64 65z" />
    <glyph glyph-name="dvKH_SHA" horiz-adv-x="1191" 
d="M773 104c43 0 53 20 53 48v21h118v-24c0 -97 -55 -154 -171 -154c-100 0 -147 42 -159 107v11c-16 -4 -36 -6 -58 -6c-28 0 -49 5 -63 14c-24 -79 -90 -121 -205 -121h-22c-156 0 -228 63 -228 190v258h113v-66c0 -28 7 -47 48 -47c42 0 48 19 48 47v135
c0 28 -9 48 -50 49h-232v99h578v-99h-197c7 -13 11 -29 11 -49v-139c0 -97 -33 -147 -141 -147c-21 0 -51 6 -65 17v-54c0 -58 32 -89 114 -89h13c84 0 119 31 119 89v123c0 97 36 148 159 148c102 0 140 -36 156 -83c8 -27 23 -43 59 -43c45 0 52 20 52 50v123
c0 28 -9 49 -52 49c-42 0 -52 -21 -52 -49v-18h-118v22c0 97 54 154 170 154c117 0 170 -57 170 -154v-130c0 -97 -42 -152 -151 -152c-24 0 -57 6 -71 15v-97c0 -28 11 -48 54 -48zM1022 665h204v-99h-86v-566h-118v665zM609 253v64c0 30 -10 48 -53 48s-52 -19 -52 -48
v-62c0 -29 9 -48 52 -48c42 0 53 18 53 46z" />
    <glyph glyph-name="dvKHx_SHA" horiz-adv-x="1193" 
d="M775 104c43 0 54 20 54 48v21h118v-24c0 -97 -55 -154 -172 -154c-99 0 -147 42 -158 107l-1 11c-16 -4 -36 -6 -57 -6c-28 0 -49 5 -64 14c-23 -79 -89 -121 -205 -121h-22c-156 0 -227 63 -227 190v258h113v-66c0 -28 6 -47 48 -47c41 0 48 19 48 47v135
c0 28 -9 48 -51 49h-234v99h574v-99h-191c8 -13 11 -29 11 -49v-139c0 -97 -33 -147 -141 -147c-21 0 -51 6 -64 17v-54c0 -58 31 -89 114 -89h12c85 0 119 31 119 89v123c0 97 37 148 160 148c101 0 139 -36 155 -83c9 -27 24 -43 60 -43c44 0 52 20 52 50v123
c0 28 -10 49 -52 49c-43 0 -52 -21 -52 -49v-18h-118v22c0 97 53 154 170 154c116 0 170 -57 170 -154v-130c0 -97 -42 -152 -152 -152c-23 0 -57 6 -70 15v-97c0 -28 11 -48 53 -48zM1024 665h204v-99h-86v-566h-118v665zM611 255v62c0 30 -9 48 -52 48s-53 -19 -53 -48
v-62c0 -29 10 -48 53 -48s52 18 52 48zM-17 -69c0 37 14 65 64 65s65 -28 65 -65s-15 -65 -65 -65s-64 28 -64 65z" />
    <glyph glyph-name="dvKHx_SA" horiz-adv-x="1199" 
d="M-35 566v99h1269v-99h-86v-566h-118v272h-142c-22 -16 -55 -25 -89 -25c-27 0 -53 5 -72 18v-115c0 -28 8 -48 51 -48s51 20 51 48v26h115v-27c0 -97 -50 -154 -166 -154c-101 0 -152 42 -164 116c-16 -3 -34 -4 -55 -4c-28 0 -49 5 -64 14c-23 -79 -89 -121 -205 -121
h-22c-156 0 -227 63 -227 190v258h113v-66c0 -28 6 -47 48 -47c41 0 48 19 48 47v135c0 28 -9 48 -51 49h-234zM822 517c0 27 -9 49 -48 49h-426c8 -13 11 -29 11 -49v-139c0 -97 -33 -147 -141 -147c-21 0 -51 6 -64 17v-54c0 -58 31 -89 114 -89h12c85 0 119 31 119 89
v153c0 97 37 148 160 148s150 -54 159 -105c4 -26 18 -38 53 -38c41 0 51 19 51 47v118zM938 507v-110c0 -7 -1 -18 -3 -23h95v192h-109c12 -13 17 -35 17 -59zM611 255v94c0 29 -9 46 -52 46s-53 -19 -53 -48v-92c0 -29 10 -48 53 -48s52 18 52 48zM-18 -69
c0 37 14 65 64 65s65 -28 65 -65s-15 -65 -65 -65s-64 28 -64 65z" />
    <glyph glyph-name="dvG_GA" horiz-adv-x="741" 
d="M-35 566v99h811v-99h-85v-566h-118v566h-100v-236c0 -104 -57 -155 -156 -155c-18 0 -35 3 -50 5v114c8 -2 21 -4 34 -4c38 0 54 16 54 50v226h-133v-236c0 -104 -58 -155 -156 -155c-18 0 -36 3 -50 5v114c7 -2 21 -4 34 -4c37 0 54 16 54 50v226h-139z" />
    <glyph glyph-name="dvG_GHA" horiz-adv-x="770" 
d="M805 665v-99h-86v-566h-118v87c-22 -17 -57 -28 -106 -28c-124 0 -183 61 -183 155v52c0 52 15 84 48 100c-30 19 -42 50 -42 96v56c0 21 5 36 15 48h-111v-236c0 -104 -58 -155 -156 -155c-18 0 -36 3 -50 5v114c7 -2 21 -4 34 -4c37 0 54 16 54 50v226h-139v99h840z
M601 566h-117c-37 0 -48 -17 -48 -48v-52c0 -28 8 -47 51 -48h41v-109h-46c-43 0 -52 -19 -52 -47v-34c0 -48 30 -63 83 -63s88 15 88 64v337z" />
    <glyph glyph-name="dvG_JA" horiz-adv-x="870" 
d="M389 284v-81c0 -28 7 -48 49 -48s50 20 50 48v127c0 28 -10 50 -52 50h-67v108h327v78h-474v-236c0 -104 -58 -155 -156 -155c-18 0 -36 3 -50 5v114c7 -2 21 -4 34 -4c37 0 54 16 54 50v226h-139v99h935v-99h-86v-566h-118v387h-104c9 -17 14 -35 14 -58v-130
c0 -96 -52 -151 -168 -151c-115 0 -167 56 -167 153v83h118z" />
    <glyph glyph-name="dvG_NNA" horiz-adv-x="918" 
d="M655 566v-305c0 -96 -52 -153 -168 -153c-117 0 -168 57 -168 153v305h-97v-236c0 -104 -58 -155 -156 -155c-18 0 -36 3 -50 5v114c7 -2 21 -4 34 -4c37 0 54 16 54 50v226h-139v99h988v-99h-86v-566h-118v566h-94zM537 566h-100v-304c0 -28 7 -48 50 -48
c42 0 50 20 50 48v304z" />
    <glyph glyph-name="dvG_DA" horiz-adv-x="695" 
d="M306 212v136c0 109 55 149 172 149h44v69h-300v-236c0 -104 -58 -155 -156 -155c-18 0 -36 3 -50 5v114c7 -2 21 -4 34 -4c37 0 54 16 54 50v226h-139v99h765v-99h-90v-176h-162c-44 0 -54 -17 -54 -46v-128c0 -29 11 -47 55 -47s55 17 55 47v60h117v-278h-117v83
c-20 -11 -48 -16 -70 -16c-109 0 -158 50 -158 147z" />
    <glyph glyph-name="dvG_DHA" horiz-adv-x="770" 
d="M528 311h-46c-43 0 -52 -20 -52 -48v-35c0 -48 30 -63 83 -63s88 15 88 64v436h204v-99h-86v-566h-118v87c-22 -17 -57 -28 -106 -28c-124 0 -183 61 -183 155v53c0 52 15 85 48 100c-30 19 -42 50 -42 96v55c0 21 5 36 15 48h-111v-236c0 -104 -58 -155 -156 -155
c-18 0 -36 3 -50 5v114c7 -2 21 -4 34 -4c37 0 54 16 54 50v226h-139v99h553v-99h-34c-37 0 -48 -17 -48 -48v-51c0 -28 8 -47 51 -47h41v-109z" />
    <glyph glyph-name="dvG_DH_YA" horiz-adv-x="1095" 
d="M614 244v149h23c72 0 94 13 94 65v49c0 32 -6 59 -50 59h-81v99h531v-99h-86v-566h-118v114c-26 -18 -61 -28 -109 -28c-58 0 -104 12 -139 36c-31 -39 -83 -63 -159 -63c-140 0 -208 53 -208 155v53c0 52 15 85 48 100c-30 19 -42 50 -42 96v55c0 21 5 36 15 48h-111
v-236c0 -104 -58 -155 -156 -155c-18 0 -36 3 -50 5v114c7 -2 21 -4 34 -4c37 0 54 16 54 50v226h-139v99h528v-99h-12c-35 0 -45 -18 -45 -48v-51c0 -28 8 -47 51 -47h41v-109h-46c-43 0 -52 -20 -52 -48v-35c0 -48 36 -63 90 -63c69 0 94 18 94 79zM827 196
c79 0 100 31 100 85v285h-96c11 -14 16 -32 16 -59v-71c0 -79 -40 -118 -118 -121v-34c0 -54 20 -85 98 -85z" />
    <glyph glyph-name="dvG_DH_VA" horiz-adv-x="1016" 
d="M614 244v111c0 97 45 151 159 151c28 0 59 -7 74 -17v77h-259v99h463v-99h-86v-566h-118v74c-15 -10 -46 -17 -74 -17c-58 0 -97 13 -122 37c-32 -22 -75 -35 -131 -35c-140 0 -208 53 -208 155v53c0 52 15 85 48 100c-30 19 -42 50 -42 96v55c0 21 5 36 15 48h-111v-236
c0 -104 -58 -155 -156 -155c-18 0 -36 3 -50 5v114c7 -2 21 -4 34 -4c37 0 54 16 54 50v226h-139v99h528v-99h-12c-35 0 -45 -18 -45 -48v-51c0 -28 8 -47 51 -47h41v-109h-46c-43 0 -52 -20 -52 -48v-35c0 -48 36 -63 90 -63c69 0 94 18 94 79zM852 209v146
c0 33 -18 50 -62 50s-61 -17 -61 -50v-146c0 -34 17 -51 61 -51s62 17 62 51z" />
    <glyph glyph-name="dvG_NA" horiz-adv-x="863" 
d="M615 337v-131c0 -97 -44 -151 -157 -151s-159 54 -159 151v131c0 96 46 151 159 151h236v78h-472v-236c0 -104 -58 -155 -156 -155c-18 0 -36 3 -50 5v114c7 -2 21 -4 34 -4c37 0 54 16 54 50v226h-139v99h933v-99h-86v-566h-118v379h-88c7 -11 9 -26 9 -42zM504 207v126
c0 28 -8 46 -46 46s-46 -18 -46 -46v-126c0 -28 8 -47 46 -47s46 19 46 47z" />
    <glyph glyph-name="dvG_N_YA" horiz-adv-x="1177" 
d="M454 485h176c78 0 132 -27 155 -83c20 8 28 25 28 56v49c0 32 -6 59 -50 59h-541v-236c0 -104 -58 -155 -156 -155c-18 0 -36 3 -50 5v114c7 -2 21 -4 34 -4c37 0 54 16 54 50v226h-139v99h1248v-99h-86v-566h-118v114c-26 -18 -61 -28 -109 -28c-129 0 -204 61 -204 180
v82c-7 21 -25 31 -57 31h-38c7 -11 10 -27 10 -45v-128c0 -97 -44 -151 -157 -151s-158 54 -158 151v128c0 97 45 151 158 151zM909 196c79 0 100 31 100 85v285h-96c11 -14 16 -32 16 -59v-71c0 -79 -40 -118 -118 -121v-34c0 -54 20 -85 98 -85zM500 207v124
c0 28 -8 46 -46 46s-46 -18 -46 -46v-124c0 -28 8 -47 46 -47s46 19 46 47z" />
    <glyph glyph-name="dvG_BA" horiz-adv-x="720" 
d="M558 0v75c-21 -11 -48 -17 -82 -17c-117 0 -177 40 -177 156v136c0 116 60 156 177 156c34 0 61 -6 82 -17v77h-336v-236c0 -104 -58 -155 -156 -155c-18 0 -36 3 -50 5v114c7 -2 21 -4 34 -4c37 0 54 16 54 50v226h-139v99h791v-99h-86v-566h-112zM485 408
c-37 0 -57 -10 -66 -28l139 -118v83c0 39 -16 63 -73 63zM412 219c0 -38 15 -63 73 -63c38 0 58 11 67 29l-140 120v-86z" />
    <glyph glyph-name="dvG_BHA" horiz-adv-x="879" 
d="M499 423v91c0 28 -5 47 -46 47c-40 0 -46 -20 -46 -47v-38h-118v41c0 97 50 153 164 153c115 0 164 -56 164 -153v-94h93v242h204v-99h-86v-566h-118v323h-97v-123c0 -89 -47 -144 -163 -144c-115 0 -162 55 -162 144v81c0 88 47 142 162 142h49zM254 665v-99h-32v-236
c0 -104 -58 -155 -156 -155c-18 0 -36 3 -50 5v114c7 -2 21 -4 34 -4c37 0 54 16 54 50v226h-139v99h289zM499 203v120h-49c-41 0 -49 -18 -49 -46v-74c0 -27 8 -46 49 -46c42 0 49 18 49 46z" />
    <glyph glyph-name="dvG_BH_YA" horiz-adv-x="1185" 
d="M616 428h57c51 0 87 -9 108 -29c30 7 40 24 40 60v48c0 32 -6 59 -50 59h-101v99h551v-99h-86v-566h-119v114c-25 -18 -60 -28 -108 -28c-130 0 -205 61 -205 180v58c-9 3 -21 4 -36 4h-56v-128c0 -89 -47 -144 -162 -144c-116 0 -163 55 -163 144v86
c0 89 47 142 163 142h49v86c0 28 -6 47 -46 47c-41 0 -46 -20 -46 -47v-32h-118v35c0 97 49 153 164 153c114 0 164 -56 164 -153v-89zM255 665v-99h-33v-236c0 -104 -58 -155 -156 -155c-18 0 -36 3 -50 5v114c7 -2 21 -4 34 -4c37 0 54 16 54 50v226h-139v99h290zM917 196
c79 0 99 31 99 85v285h-95c11 -14 15 -32 15 -59v-70c0 -78 -39 -118 -117 -121v-35c0 -54 20 -85 98 -85zM498 203v125h-49c-42 0 -49 -18 -49 -46v-79c0 -27 7 -46 49 -46c41 0 49 18 49 46z" />
    <glyph glyph-name="dvG_MA" horiz-adv-x="866" 
d="M699 0v341h-90v-141c0 -88 -47 -143 -162 -143c-116 0 -163 55 -163 143v99c0 89 47 142 163 142h49v125h-274v-236c0 -104 -58 -155 -156 -155c-18 0 -36 3 -50 5v114c7 -2 21 -4 34 -4c37 0 54 16 54 50v226h-139v99h936v-99h-86v-566h-116zM609 441h90v125h-90v-125z
M496 204v137h-49c-42 0 -49 -18 -49 -46v-91c0 -28 7 -46 49 -46c41 0 49 18 49 46z" />
    <glyph glyph-name="dvG_YA" horiz-adv-x="788" 
d="M-35 566v99h859v-99h-87v-566h-118v114c-25 -18 -60 -28 -109 -28c-129 0 -204 61 -204 180v127h23c73 0 95 13 95 65v49c0 32 -6 59 -50 59h-152v-236c0 -104 -58 -155 -156 -155c-18 0 -36 3 -50 5v114c7 -2 21 -4 34 -4c37 0 54 16 54 50v226h-139zM520 196
c79 0 99 31 99 85v285h-95c11 -14 15 -32 15 -59v-71c0 -79 -39 -118 -117 -121v-34c0 -54 20 -85 98 -85z" />
    <glyph glyph-name="dvG_R_YA" horiz-adv-x="791" 
d="M-35 566v99h862v-99h-86v-566h-119v114c-25 -18 -60 -28 -109 -28c-90 0 -154 30 -184 89c-18 -30 -42 -63 -77 -104l-59 -71h-139l255 315v78h24c72 0 94 13 94 65v49c0 32 -6 59 -50 59h-156v-190c0 -105 -58 -155 -156 -155c-18 0 -36 2 -51 5v114c8 -2 22 -5 34 -5
c38 0 55 17 55 50v181h-138zM523 196c79 0 99 31 99 85v285h-95c11 -14 15 -32 15 -59v-71c0 -79 -39 -118 -117 -121v-34c0 -54 20 -85 98 -85z" />
    <glyph glyph-name="dvG_LA" horiz-adv-x="904" 
d="M301 171v165c0 97 52 154 163 154c67 0 97 -28 111 -52c14 24 42 51 100 51c25 0 49 -6 60 -17v94h-513v-236c0 -104 -58 -155 -156 -155c-18 0 -36 3 -50 5v114c7 -2 21 -4 34 -4c37 0 54 16 54 50v226h-139v99h975v-99h-87v-566h-118v332c0 29 -9 49 -49 49
c-41 0 -50 -20 -50 -49v-121h-118v121c0 29 -8 49 -50 49c-41 0 -49 -20 -49 -49v-159c0 -39 9 -70 78 -70h60l1 -103h-67c-140 0 -190 55 -190 171z" />
    <glyph glyph-name="dvG_VA" horiz-adv-x="702" 
d="M651 566v-566h-118v74c-15 -10 -46 -17 -75 -17c-116 0 -159 53 -159 149v149c0 97 46 151 159 151c29 0 60 -7 75 -17v77h-311v-236c0 -104 -58 -155 -156 -155c-18 0 -36 3 -50 5v114c7 -2 21 -4 34 -4c37 0 54 16 54 50v226h-139v99h772v-99h-86zM538 209v146
c0 33 -18 50 -62 50s-61 -17 -61 -50v-146c0 -34 17 -51 61 -51s62 17 62 51z" />
    <glyph glyph-name="dvG_SA" horiz-adv-x="896" 
d="M-35 566v99h965v-99h-86v-566h-118v272h-142c-22 -16 -54 -25 -89 -25c-27 0 -53 5 -72 18v-115c0 -28 8 -48 51 -48s51 20 51 48v26h116v-27c0 -97 -50 -154 -167 -154c-116 0 -166 57 -166 154v308h115v-58c0 -28 6 -47 48 -47c41 0 47 19 47 47v118c0 27 -9 49 -48 49
h-248v-236c0 -104 -58 -155 -156 -155c-18 0 -36 3 -50 5v114c7 -2 21 -4 34 -4c37 0 54 16 54 50v226h-139zM634 507v-110c0 -7 -1 -18 -2 -23h94v192h-109c12 -13 17 -35 17 -59z" />
    <glyph glyph-name="dvGH_NA" horiz-adv-x="903" 
d="M656 337v-131c0 -97 -44 -151 -157 -151c-57 0 -97 14 -122 40c-29 -23 -70 -36 -128 -36c-140 0 -206 53 -206 155v52c0 52 15 84 49 100c-31 19 -43 50 -43 96v56c0 21 5 36 15 48h-99v99h974v-99h-86v-566h-119v379h-87c6 -11 9 -26 9 -42zM340 244v93
c0 96 46 151 159 151h235v78h-522c-35 0 -45 -18 -45 -48v-52c0 -28 9 -47 51 -48h42v-109h-46c-43 0 -53 -19 -53 -47v-34c0 -48 34 -63 88 -63c69 0 91 18 91 79zM544 207v126c0 28 -8 46 -45 46c-38 0 -46 -18 -46 -46v-126c0 -28 8 -47 46 -47c37 0 45 19 45 47z" />
    <glyph glyph-name="dvGH_MA" horiz-adv-x="921" 
d="M755 0v341h-90v-141c0 -88 -47 -143 -162 -143c-57 0 -98 13 -124 38c-31 -23 -74 -36 -130 -36c-140 0 -206 53 -206 155v52c0 52 15 84 49 100c-31 19 -43 50 -43 96v56c0 21 5 36 15 48h-99v99h992v-99h-86v-566h-116zM340 244v55c0 89 47 142 163 142h49v125h-340
c-27 -2 -45 -18 -45 -48v-52c0 -28 9 -47 51 -48h57v-109h-61c-43 0 -53 -19 -53 -47v-34c0 -48 34 -63 88 -63c69 0 91 18 91 79zM665 441h90v125h-90v-125zM552 204v137h-49c-42 0 -49 -18 -49 -46v-91c0 -28 7 -46 49 -46c41 0 49 18 49 46z" />
    <glyph glyph-name="dvGH_YA" horiz-adv-x="822" 
d="M-35 566v99h893v-99h-87v-566h-118v114c-25 -18 -60 -28 -109 -28c-55 0 -100 11 -134 33c-28 -38 -78 -60 -161 -60c-140 0 -206 53 -206 155v52c0 52 15 84 49 100c-31 19 -43 50 -43 96v56c0 21 5 36 15 48h-99zM340 244v149h23c73 0 95 13 95 65v49
c0 32 -6 59 -50 59h-196c-27 -2 -45 -18 -45 -48v-52c0 -28 9 -47 51 -48h57v-109h-61c-43 0 -53 -19 -53 -47v-34c0 -48 34 -63 88 -63c69 0 91 18 91 79zM554 196c78 0 99 31 99 85v285h-95c10 -14 15 -32 15 -59v-71c0 -79 -39 -118 -117 -121v-34c0 -54 20 -85 98 -85z
" />
    <glyph glyph-name="dvC_CA" horiz-adv-x="730" 
d="M438 337v-122c0 -35 13 -55 60 -55c48 0 62 20 63 53v353h-596v99h800v-99h-86v-566h-118v75c-22 -14 -53 -19 -80 -19c-50 0 -88 10 -114 31c-27 -20 -64 -31 -113 -31c-125 0 -183 51 -183 163v114c0 22 5 37 16 49h-74v106h232v-101h-9c-39 0 -47 -22 -47 -50v-122
c0 -35 14 -55 65 -55s66 20 66 55v118c0 25 4 40 16 54h-44v101h228v-101h-35c-39 0 -47 -22 -47 -50z" />
    <glyph glyph-name="dvC_CHA" horiz-adv-x="831" 
d="M786 354v-181c0 -118 -56 -169 -226 -169c-110 0 -175 21 -206 68c-25 -11 -55 -16 -92 -16c-136 0 -191 51 -191 163v114c0 22 5 37 16 49h-74v106h258v-101h-35c-39 0 -47 -22 -47 -50v-114c0 -43 16 -63 73 -63c45 0 63 12 70 38c3 37 18 66 48 82
c-31 17 -43 48 -43 95v130c0 26 6 46 19 61h-391v99h900v-99h-139v-85c44 -19 60 -62 60 -127zM671 179v155c0 48 -18 67 -64 67c-36 0 -54 -10 -54 -10v98s26 10 64 10v67h-105c-49 0 -57 -24 -57 -63v-124c0 -28 8 -47 51 -47h70v-104h-66c-43 0 -60 -10 -60 -49v-10
c0 -46 16 -59 110 -59c95 0 111 21 111 69z" />
    <glyph glyph-name="dvC_CH_VA" horiz-adv-x="831" 
d="M785 354v-181c0 -57 -13 -98 -45 -125v-322h-119v57c-23 -13 -62 -19 -85 -19c-109 0 -168 44 -168 149v34c0 39 16 65 38 81c-23 11 -40 26 -53 44c-25 -10 -55 -16 -92 -16c-135 0 -191 51 -191 163v114c0 22 5 37 16 49h-74v106h258v-101h-35c-38 0 -46 -22 -46 -50
v-114c0 -43 15 -63 72 -63c45 0 63 12 70 38c3 37 18 66 48 82c-31 17 -43 48 -43 95v130c0 26 7 46 20 61h-391v99h900v-99h-139v-85c43 -19 59 -62 59 -127zM670 179v155c0 48 -18 67 -64 67c-36 0 -53 -10 -53 -10v98s25 10 63 10v67h-105c-49 0 -57 -24 -57 -63v-124
c0 -28 8 -47 51 -47h70v-104h-66c-43 0 -59 -10 -59 -49v-10c0 -46 15 -59 110 -59c94 0 110 21 110 69zM481 -83c0 -37 18 -55 70 -55c51 0 71 18 71 55v90c-19 -2 -39 -3 -62 -3h-9c-52 0 -70 -20 -70 -57v-30z" />
    <glyph glyph-name="dvC_NA" horiz-adv-x="885" 
d="M637 337v-131c0 -97 -44 -151 -157 -151c-52 0 -90 11 -115 33c-26 -20 -61 -32 -110 -32c-132 0 -184 51 -184 159v118c0 22 5 37 16 49h-74v106h258v-101h-35c-39 0 -47 -22 -47 -50v-118c0 -39 11 -59 66 -59s67 20 67 59v118c0 96 45 151 158 151h236v78h-751v99h955
v-99h-86v-566h-118v379h-88c7 -11 9 -26 9 -42zM526 207v126c0 28 -8 46 -46 46s-46 -18 -46 -46v-126c0 -28 8 -47 46 -47s46 19 46 47z" />
    <glyph glyph-name="dvC_MA" horiz-adv-x="916" 
d="M750 0v341h-90v-141c0 -88 -47 -143 -162 -143c-53 0 -91 11 -118 32c-28 -21 -67 -33 -118 -33c-136 0 -191 51 -191 163v114c0 22 5 37 16 49h-74v106h281v-101h-58c-39 0 -47 -22 -47 -50v-114c0 -43 16 -63 73 -63s73 20 73 63v76c0 89 47 142 163 142h49v125h-582
v99h987v-99h-86v-566h-116zM660 441h90v125h-90v-125zM547 204v137h-49c-42 0 -49 -18 -49 -46v-91c0 -28 7 -46 49 -46c41 0 49 18 49 46z" />
    <glyph glyph-name="dvC_YA" horiz-adv-x="817" 
d="M-35 566v99h888v-99h-87v-566h-118v114c-25 -18 -60 -28 -109 -28c-52 0 -96 10 -129 30c-28 -39 -77 -60 -148 -60c-136 0 -191 51 -191 163v114c0 22 5 37 16 49h-74v106h268v-101h-45c-39 0 -47 -22 -47 -50v-114c0 -43 16 -63 73 -63s73 20 73 63v170h23
c73 0 95 13 95 65v49c0 32 -6 59 -50 59h-438zM549 196c79 0 99 31 99 85v285h-95c11 -14 15 -32 15 -59v-71c0 -79 -39 -118 -117 -121v-34c0 -54 20 -85 98 -85z" />
    <glyph glyph-name="dvCH_YA" horiz-adv-x="1056" 
d="M337 506c32 0 59 -5 83 -14h224c113 0 163 -41 163 -137v-22c0 -79 -40 -115 -117 -115v-1c0 -40 20 -68 98 -68c79 0 99 32 99 86v331h-662c-49 0 -57 -24 -57 -63v-124c0 -28 8 -47 51 -47h70v-104h-67c-42 0 -59 -10 -59 -49v-10c0 -46 16 -59 110 -59s111 21 111 69
v162c0 48 -19 67 -69 67c-29 0 -49 -10 -49 -10v98s33 10 71 10zM-35 566v99h1127v-99h-86v-566h-119v68c-25 -18 -60 -28 -109 -28c-129 0 -204 61 -204 180v79h66c39 0 52 9 52 40v5c0 27 -8 40 -44 40h-150c1 -7 1 -15 1 -23v-188c0 -118 -56 -169 -226 -169
c-165 0 -229 47 -229 158v26c0 42 15 75 49 92c-31 17 -44 48 -44 95v130c0 26 7 46 20 61h-104z" />
    <glyph glyph-name="dvCH_R_YA" horiz-adv-x="1065" 
d="M896 566h-459v-74h216c113 0 163 -41 163 -137v-22c0 -79 -40 -115 -117 -115v-1c0 -44 20 -68 97 -68c79 0 100 32 100 86v331zM381 179v155c0 48 -18 67 -64 67c-36 0 -53 -10 -53 -10v98s25 10 63 10v67h-105c-49 0 -57 -24 -57 -63v-124c0 -28 9 -47 51 -47h70v-104
h-66c-43 0 -59 -10 -59 -49v-10c0 -46 16 -59 110 -59s110 21 110 69zM321 -107l-46 111h-6l-46 -111h-121l58 121c-83 19 -118 66 -118 148v26c0 42 15 75 49 92c-32 17 -44 48 -44 95v130c0 26 7 46 20 61h-102v99h1135v-99h-86v-566h-118v68c-25 -18 -60 -28 -109 -28
c-129 0 -204 61 -204 180v79h66c40 0 52 9 52 40v5c0 27 -8 40 -44 40h-162c1 -9 1 -19 1 -30v-181c0 -87 -30 -137 -113 -158l59 -122h-121z" />
    <glyph glyph-name="dvCH_VA" horiz-adv-x="541" 
d="M496 354v-181c0 -57 -13 -99 -46 -126v-321h-118v57c-23 -13 -62 -19 -86 -19c-109 0 -168 44 -168 149v34c0 39 16 65 39 82c-53 24 -75 67 -75 133v26c0 42 15 75 49 92c-32 17 -44 48 -44 95v130c0 26 7 46 20 61h-102v99h611v-99h-139v-85c44 -19 59 -62 59 -127z
M381 179v155c0 48 -18 67 -64 67c-36 0 -53 -10 -53 -10v98s25 10 63 10v67h-105c-49 0 -57 -24 -57 -63v-124c0 -28 9 -47 51 -47h70v-104h-66c-43 0 -59 -10 -59 -49v-10c0 -46 16 -59 110 -59s110 21 110 69zM191 -83c0 -37 18 -55 70 -55s71 18 71 55v90
c-18 -2 -39 -3 -61 -3h-10c-52 0 -70 -20 -70 -57v-30z" />
    <glyph glyph-name="dvJ_KA" horiz-adv-x="1036" 
d="M836 65v110c42 -1 52 10 52 46v132c0 29 -9 50 -52 50s-51 -20 -51 -50v-353h-116v73c-14 -10 -39 -17 -65 -17c-106 0 -150 47 -150 143v158c0 11 1 21 2 30h-110c10 -17 14 -35 14 -58v-130c0 -96 -52 -151 -167 -151c-116 0 -168 56 -168 153v83h118v-81
c0 -28 7 -48 50 -48c41 0 49 20 49 48v127c0 28 -9 50 -52 50h-66v108h394c22 11 50 17 86 17c26 0 51 -7 65 -18v79h-704v99h1106v-99h-286v-78c16 10 41 17 66 17c105 0 149 -53 149 -148v-147c0 -95 -39 -147 -145 -147c-7 0 -16 1 -19 2zM618 154c42 0 52 20 52 48v151
c0 30 -9 50 -52 50s-52 -20 -52 -50v-149c0 -30 9 -50 52 -50z" />
    <glyph glyph-name="dvJ_JA" horiz-adv-x="1033" 
d="M557 284v-81c0 -28 7 -48 49 -48s50 20 50 48v127c0 28 -10 50 -52 50h-258c9 -11 14 -28 14 -51v-130c0 -96 -52 -151 -167 -151c-116 0 -168 56 -168 153v83h118v-81c0 -28 7 -48 50 -48c41 0 49 20 49 48v127c0 28 -9 50 -52 50h-66v108h740v78h-899v99h1102v-99h-85
v-566h-118v387h-105c10 -17 15 -35 15 -58v-130c0 -96 -53 -151 -168 -151s-167 56 -167 153v83h118z" />
    <glyph glyph-name="dvJx_JxA" horiz-adv-x="1024" 
d="M547 284v-81c0 -28 8 -48 50 -48s50 20 50 48v127c0 28 -10 50 -52 50h-249c9 -11 14 -28 14 -51v-130c0 -96 -52 -151 -167 -151c-116 0 -168 56 -168 153v83h118v-81c0 -28 7 -48 50 -48c41 0 49 20 49 48v127c0 28 -9 50 -52 50h-66v108h731v78h-890v99h1093v-99h-85
v-566h-118v387h-105c10 -17 15 -35 15 -58v-130c0 -96 -53 -151 -168 -151s-168 56 -168 153v83h118zM-53 -31c0 36 15 65 66 65c50 0 65 -29 65 -65c0 -37 -16 -66 -66 -66c-51 0 -65 29 -65 66zM351 -31c0 36 15 65 66 65c50 0 65 -29 65 -65c0 -37 -15 -66 -66 -66
s-65 29 -65 66z" />
    <glyph glyph-name="dvJ_J_NYA" horiz-adv-x="1039" 
d="M448 283h115v-48c0 -28 4 -48 49 -48c44 0 50 20 50 48v95c0 28 -10 50 -52 50h-265c11 -13 15 -30 15 -51v-130c0 -96 -53 -151 -168 -151s-168 56 -168 153v83h118v-81c0 -28 8 -48 50 -48c41 0 50 20 50 48v127c0 28 -10 50 -52 50h-67v108h747v78h-905v99h1109v-99
h-86v-566h-118v387h-104c9 -17 14 -36 14 -58v-100c0 -102 -56 -150 -146 -150c-32 0 -50 3 -71 12v-91h-115v283z" />
    <glyph glyph-name="dvJ_J_YA" horiz-adv-x="1349" 
d="M-35 566v99h1419v-99h-86v-566h-118v114c-25 -18 -60 -28 -109 -28c-129 0 -204 61 -204 180v91c-7 24 -31 30 -81 30h-27c10 -17 15 -35 15 -58v-130c0 -96 -53 -151 -168 -151s-167 56 -167 153v83h118v-81c0 -28 7 -48 49 -48s50 20 50 48v127c0 28 -10 50 -52 50
h-258c9 -11 14 -28 14 -51v-130c0 -96 -52 -151 -167 -151c-116 0 -168 56 -168 153v83h118v-81c0 -28 7 -48 50 -48c41 0 49 20 49 48v127c0 28 -9 50 -52 50h-66v108h673c94 0 150 -32 161 -82c20 10 27 27 27 57v44c0 32 -7 59 -50 59h-970zM1080 196c79 0 100 31 100 85
v285h-95c10 -14 15 -32 15 -59v-66c0 -79 -39 -118 -117 -121v-39c0 -54 20 -85 97 -85z" />
    <glyph glyph-name="dvJ_J_VA" horiz-adv-x="1271" 
d="M1220 566v-566h-118v74c-15 -10 -46 -17 -75 -17c-116 0 -158 53 -158 149v149c0 11 1 22 2 32h-112c10 -17 15 -35 15 -58v-130c0 -96 -53 -151 -168 -151s-167 56 -167 153v83h118v-81c0 -28 7 -48 49 -48s50 20 50 48v127c0 28 -10 50 -52 50h-258
c9 -11 14 -28 14 -51v-130c0 -96 -52 -151 -167 -151c-116 0 -168 56 -168 153v83h118v-81c0 -28 7 -48 50 -48c41 0 49 20 49 48v127c0 28 -9 50 -52 50h-66v108h811c24 12 54 18 92 18c29 0 60 -7 75 -17v77h-1137v99h1341v-99h-86zM1107 209v146c0 33 -18 50 -62 50
s-61 -17 -61 -50v-146c0 -34 17 -51 61 -51s62 17 62 51z" />
    <glyph glyph-name="dvJ_JHA" horiz-adv-x="1029" 
d="M609 224h-10c-105 0 -162 39 -162 135v9c0 7 0 13 1 19h-92c10 -17 14 -35 14 -58v-130c0 -96 -52 -151 -167 -151c-116 0 -168 56 -168 153v83h118v-81c0 -28 7 -48 50 -48c41 0 49 20 49 48v127c0 28 -9 50 -52 50h-66v108h380c24 11 56 16 95 16h53v62h-687v99h1098
v-99h-85v-566h-118v231h-98c11 -12 17 -34 17 -56v-32c0 -105 -54 -141 -151 -141c-28 0 -56 6 -76 17v-88h-116v240h116v-19c0 -30 12 -47 56 -47s56 17 56 47v23c0 30 -12 49 -55 49zM599 324h261v242h-90v-164h-171c-34 0 -44 -12 -44 -37v-3c0 -25 9 -38 44 -38z" />
    <glyph glyph-name="dvJ_NY_YA" horiz-adv-x="942" 
d="M41 283h114v-48c0 -28 5 -48 49 -48s50 20 50 48v95c0 28 -10 50 -52 50h-69v108h272c88 0 143 -27 153 -77c14 10 20 26 20 52v44c0 32 -7 59 -50 59h-563v99h1012v-99h-86v-566h-118v114c-25 -18 -60 -28 -109 -28c-129 0 -204 61 -204 180v104c-9 12 -28 17 -64 17
h-38c9 -17 14 -36 14 -58v-100c0 -102 -56 -150 -146 -150c-32 0 -50 3 -71 12v-91h-114v283zM673 196c79 0 100 31 100 85v285h-95c10 -14 15 -32 15 -59v-66c0 -79 -39 -118 -117 -121v-39c0 -54 19 -85 97 -85z" />
    <glyph glyph-name="dvJ_TTA" horiz-adv-x="827" 
d="M772 387h-146c-43 0 -51 -18 -51 -46v-192c0 -28 10 -48 52 -48c43 0 52 20 52 48v86h118v-86c0 -97 -53 -154 -170 -154c-116 0 -170 57 -170 154v196c0 15 1 29 3 42h-114c10 -17 14 -35 14 -58v-130c0 -96 -52 -151 -167 -151c-116 0 -168 56 -168 153v83h118v-81
c0 -28 7 -48 50 -48c41 0 49 20 49 48v127c0 28 -9 50 -52 50h-66v108h437c19 4 41 6 65 6h27v72h-688v99h897v-99h-90v-179z" />
    <glyph glyph-name="dvJ_DDA" horiz-adv-x="820" 
d="M641 566h-676v99h889v-99h-95v-164h-163c-34 0 -44 -16 -44 -40v-9c0 -25 9 -41 44 -41h23c117 0 170 -45 170 -141v-32c0 -96 -56 -144 -176 -144s-178 47 -178 144v23h119v-19c0 -28 12 -46 58 -46c47 0 59 18 59 46v24c0 25 -9 45 -52 45h-23c-105 0 -162 39 -162 135
v21c0 7 0 13 1 19h-89c10 -17 14 -35 14 -58v-130c0 -96 -52 -151 -167 -151c-116 0 -168 56 -168 153v83h118v-81c0 -28 7 -48 50 -48c41 0 49 20 49 48v127c0 28 -9 50 -52 50h-66v108h376c25 11 57 16 96 16h45v62z" />
    <glyph glyph-name="dvJ_TA" horiz-adv-x="872" 
d="M635 110v-110c-8 -1 -19 -2 -27 -2c-114 0 -150 52 -150 147v192c0 18 2 35 5 50h-117c10 -17 14 -35 14 -58v-130c0 -96 -52 -151 -167 -151c-116 0 -168 56 -168 153v83h118v-81c0 -28 7 -48 50 -48c41 0 49 20 49 48v127c0 28 -9 50 -52 50h-66v108h430
c20 7 43 10 70 10c33 0 63 -6 79 -16v84h-738v99h943v-99h-87v-566h-118v333c0 33 -14 56 -63 56c-50 0 -64 -23 -64 -56v-177c0 -36 17 -47 59 -46z" />
    <glyph glyph-name="dvJ_DA" horiz-adv-x="840" 
d="M452 212v136c0 14 1 27 3 39h-109c10 -17 14 -35 14 -58v-130c0 -96 -52 -151 -167 -151c-116 0 -168 56 -168 153v83h118v-81c0 -28 7 -48 50 -48c41 0 49 20 49 48v127c0 28 -9 50 -52 50h-66v108h420c22 6 49 9 80 9h44v69h-703v99h911v-99h-90v-176h-162
c-7 0 -13 0 -18 -1v-2h-9c-22 -6 -27 -21 -27 -43v-128c0 -29 10 -47 55 -47c44 0 54 17 54 47v60h118v-278h-118v83c-19 -11 -47 -16 -70 -16c-109 0 -157 50 -157 147z" />
    <glyph glyph-name="dvJ_NA" horiz-adv-x="1012" 
d="M764 337v-131c0 -97 -44 -151 -157 -151s-158 54 -158 151v131c0 12 1 24 2 35c-14 9 -34 15 -60 15h-45c10 -17 14 -35 14 -58v-130c0 -96 -52 -151 -167 -151c-116 0 -168 56 -168 153v83h118v-81c0 -28 7 -48 50 -48c41 0 49 20 49 48v127c0 28 -9 50 -52 50h-66v108
h269c46 0 84 -8 108 -27c25 18 60 27 106 27h236v78h-878v99h1082v-99h-86v-566h-118v379h-88c7 -11 9 -26 9 -42zM653 207v126c0 28 -8 46 -46 46s-46 -18 -46 -46v-126c0 -28 8 -47 46 -47s46 19 46 47z" />
    <glyph glyph-name="dvJ_BA" horiz-adv-x="876" 
d="M713 0v75c-20 -11 -47 -17 -82 -17c-116 0 -176 40 -176 156v136c0 13 1 26 2 37h-112c10 -17 15 -35 15 -58v-130c0 -96 -53 -151 -168 -151s-168 56 -168 153v83h118v-81c0 -28 8 -48 50 -48c41 0 50 20 50 48v127c0 28 -10 50 -52 50h-67v108h403c27 13 62 18 105 18
c35 0 62 -6 82 -17v77h-748v99h946v-99h-86v-566h-112zM640 408c-37 0 -56 -10 -65 -28l138 -117v82c0 39 -15 63 -73 63zM568 219c0 -38 14 -63 72 -63c39 0 58 11 67 30l-139 118v-85z" />
    <glyph glyph-name="dvJ_MA" horiz-adv-x="1022" 
d="M124 488h280c77 0 124 -19 145 -52c16 3 34 5 54 5h49v125h-687v99h1092v-99h-86v-566h-116v341h-89v-141c0 -88 -47 -143 -163 -143c-115 0 -162 55 -162 143v99c0 28 5 53 15 73c-13 11 -36 15 -75 15h-35c10 -17 14 -35 14 -58v-130c0 -96 -52 -151 -167 -151
c-116 0 -168 56 -168 153v83h118v-81c0 -28 7 -48 50 -48c41 0 49 20 49 48v127c0 28 -9 50 -52 50h-66v108zM766 441h89v125h-89v-125zM652 204v137h-49c-41 0 -49 -18 -49 -46v-91c0 -28 8 -46 49 -46c42 0 49 18 49 46z" />
    <glyph glyph-name="dvJ_YA" horiz-adv-x="935" 
d="M124 488h260c93 0 149 -32 160 -82c20 9 27 27 27 57v44c0 32 -6 59 -50 59h-556v99h1006v-99h-86v-566h-119v114c-25 -18 -60 -28 -108 -28c-130 0 -205 61 -205 180v91c-7 24 -30 30 -81 30h-26c10 -17 14 -35 14 -58v-130c0 -96 -52 -151 -167 -151
c-116 0 -168 56 -168 153v83h118v-81c0 -28 7 -48 50 -48c41 0 49 20 49 48v127c0 28 -9 50 -52 50h-66v108zM667 196c79 0 99 31 99 85v285h-95c11 -14 15 -32 15 -59v-66c0 -79 -39 -118 -117 -121v-39c0 -54 20 -85 98 -85z" />
    <glyph glyph-name="dvJx_YA" horiz-adv-x="949" 
d="M124 488h307c75 0 114 -32 125 -83c21 9 29 27 29 58v44c0 32 -6 59 -50 59h-570v99h1020v-99h-87v-566h-118v114c-25 -18 -60 -28 -109 -28c-129 0 -204 61 -204 180v59c0 46 -13 62 -58 62h-63c10 -17 14 -35 14 -58v-130c0 -96 -52 -151 -167 -151
c-116 0 -168 56 -168 153v83h118v-81c0 -28 7 -48 50 -48c41 0 49 20 49 48v127c0 28 -9 50 -52 50h-66v108zM681 196c79 0 99 31 99 85v285h-95c10 -14 15 -32 15 -59v-66c0 -79 -39 -118 -117 -121v-39c0 -54 20 -85 98 -85zM-53 -31c0 36 15 65 66 65c50 0 65 -29 65 -65
c0 -37 -16 -66 -66 -66c-51 0 -65 29 -65 66z" />
    <glyph glyph-name="dvJ_VA" horiz-adv-x="857" 
d="M807 566v-566h-119v74c-15 -10 -46 -17 -74 -17c-117 0 -159 53 -159 149v149c0 11 1 22 2 32h-111c10 -17 14 -35 14 -58v-130c0 -96 -52 -151 -167 -151c-116 0 -168 56 -168 153v83h118v-81c0 -28 7 -48 50 -48c41 0 49 20 49 48v127c0 28 -9 50 -52 50h-66v108h398
c23 12 54 18 92 18c28 0 59 -7 74 -17v77h-723v99h928v-99h-86zM694 209v146c0 33 -18 50 -62 50c-45 0 -62 -17 -62 -50v-146c0 -34 17 -51 62 -51c44 0 62 17 62 51z" />
    <glyph glyph-name="dvJH_NA" horiz-adv-x="1036" 
d="M788 337v-131c0 -97 -43 -151 -157 -151c-113 0 -158 54 -158 151v25h-102c11 -15 16 -34 16 -56v-29c0 -97 -39 -144 -158 -144c-23 0 -56 6 -71 19v-90h-116v240h116v-17c0 -30 11 -47 56 -47c44 0 55 17 55 47v24c0 25 -8 44 -47 46h-9c-109 0 -170 39 -170 135v9
c0 97 53 136 170 136h44v62h-292v99h1106v-99h-86v-566h-118v379h-87c6 -11 8 -26 8 -42zM867 488v78h-492v-164h-162c-41 0 -51 -12 -52 -34v-5c0 -25 9 -39 51 -39h261v13c0 96 45 151 158 151h236zM677 207v126c0 28 -8 46 -46 46c-37 0 -45 -18 -45 -46v-126
c0 -28 8 -47 45 -47c38 0 46 19 46 47z" />
    <glyph glyph-name="dvJH_MA" horiz-adv-x="1038" 
d="M872 0v341h-90v-141c0 -88 -47 -143 -162 -143c-116 0 -163 55 -163 143v31h-86c11 -15 16 -34 16 -56v-29c0 -97 -39 -144 -158 -144c-23 0 -56 6 -71 19v-90h-116v240h116v-17c0 -30 11 -47 56 -47c44 0 55 17 55 47v24c0 25 -8 44 -47 46h-9c-109 0 -170 39 -170 135
v9c0 97 53 136 170 136h69v62h-317v99h1109v-99h-86v-566h-116zM212 324h246c9 74 57 117 162 117h49v125h-269v-164h-187c-41 0 -51 -12 -52 -34v-5c0 -25 9 -39 51 -39zM782 441h90v125h-90v-125zM669 204v137h-49c-42 0 -49 -18 -49 -46v-91c0 -28 7 -46 49 -46
c41 0 49 18 49 46z" />
    <glyph glyph-name="dvJH_YA" horiz-adv-x="939" 
d="M-35 566v99h1010v-99h-86v-566h-118v114c-26 -18 -61 -28 -109 -28c-116 0 -188 49 -202 145h-89c11 -15 16 -34 16 -56v-29c0 -97 -39 -144 -158 -144c-23 0 -56 6 -71 19v-90h-116v240h116v-17c0 -30 11 -47 56 -47c44 0 55 17 55 47v24c0 25 -8 44 -47 46h-9
c-109 0 -170 39 -170 135v9c0 97 53 136 170 136h44v62h-292zM575 507c0 32 -6 59 -50 59h-150v-164h-162c-41 0 -51 -12 -52 -34v-5c0 -25 9 -39 51 -39h246v69h23c72 0 94 13 94 65v49zM671 196c79 0 100 31 100 85v285h-96c11 -14 16 -32 16 -59v-71
c0 -79 -40 -118 -118 -121v-34c0 -54 20 -85 98 -85z" />
    <glyph glyph-name="dvNY_CA" horiz-adv-x="926" 
d="M634 337v-122c0 -35 12 -55 60 -55s62 20 63 53v353h-792v99h995v-99h-85v-566h-118v75c-22 -14 -53 -19 -81 -19c-104 0 -153 44 -159 136h-155v-19c-10 -66 -57 -120 -162 -120c-117 0 -165 57 -165 153v31h118v-27c0 -28 4 -48 47 -48c42 0 47 20 47 48v138
c0 28 -5 49 -47 49c-43 0 -47 -21 -47 -49v-27h-118v31c0 97 48 154 165 154c116 0 165 -57 165 -154v-58h151v39c0 22 5 37 15 49h-99v106h284v-101h-35c-39 0 -47 -22 -47 -50z" />
    <glyph glyph-name="dvNY_CHA" horiz-adv-x="942" 
d="M897 354v-181c0 -118 -56 -169 -225 -169c-166 0 -229 47 -229 158v15c0 30 10 45 21 58h-99v-30c0 -95 -57 -152 -165 -152c-117 0 -165 57 -165 153v31h118v-27c0 -28 4 -48 47 -48c42 0 47 20 47 48v138c0 28 -5 49 -47 49c-43 0 -47 -21 -47 -49v-27h-118v31
c0 97 48 154 165 154c116 0 165 -57 165 -154v-21h99c-9 13 -16 29 -16 60v114c0 26 7 46 20 61h-503v99h1012v-99h-139v-85c43 -19 59 -62 59 -127zM782 179v155c0 48 -18 67 -64 67c-36 0 -53 -10 -53 -10v98s25 10 63 10v67h-105c-49 0 -57 -24 -57 -63v-124
c0 -28 8 -47 51 -47h70v-104h-66c-43 0 -59 -10 -59 -49v-10c0 -46 15 -59 110 -59c94 0 110 21 110 69z" />
    <glyph glyph-name="dvNY_JA" horiz-adv-x="1031" 
d="M544 328v-125c0 -28 9 -48 55 -48c45 0 55 20 55 48v135c0 36 -10 49 -52 49h-81v101h341v78h-897v99h1101v-99h-86v-566h-118v387h-105c10 -17 15 -35 15 -58v-130c0 -96 -54 -151 -173 -151s-173 56 -173 153v33h-61v-29c0 -95 -57 -152 -165 -152
c-117 0 -165 57 -165 153v31h118v-27c0 -28 4 -48 47 -48c42 0 47 20 47 48v138c0 28 -5 49 -47 49c-43 0 -47 -21 -47 -49v-27h-118v31c0 97 48 154 165 154c116 0 165 -57 165 -154v-24h179z" />
    <glyph glyph-name="dvNY_SHA" horiz-adv-x="1027" 
d="M786 516v-116c0 -97 -42 -151 -152 -151c-23 0 -57 5 -70 15v-112c0 -28 11 -48 53 -48c43 0 54 20 54 48v29h118v-32c0 -97 -55 -154 -172 -154c-116 0 -171 57 -171 154v78h-82v-22c0 -95 -56 -152 -164 -152c-117 0 -165 57 -165 153v31h118v-27c0 -28 4 -48 47 -48
c42 0 47 20 47 48v138c0 28 -5 49 -47 49c-43 0 -47 -21 -47 -49v-27h-118v31c0 97 48 154 165 154c116 0 165 -57 165 -154v-23h81v83h118v-16c0 -25 11 -42 52 -42c42 0 52 19 52 47v111c0 28 -10 49 -52 49c-43 0 -52 -21 -52 -49v-39h-118v43c0 97 53 154 170 154
c116 0 170 -57 170 -154zM381 665v-99h-416v99h416zM859 665h204v-99h-86v-566h-118v665z" />
    <glyph glyph-name="dvTT_TTA" horiz-adv-x="440" 
d="M255 566h-290v99h510v-99h-102v-179h-152c-47 0 -60 -14 -60 -46v-59c0 -32 13 -48 60 -48c46 0 59 16 59 48v23h119v-34c0 -37 -9 -65 -26 -87v-197h-152c-47 0 -60 -13 -60 -45v-59c0 -32 13 -48 60 -48c46 0 59 16 59 48v23h119v-35c0 -96 -62 -138 -178 -138
c-117 0 -178 53 -178 142v71c0 104 61 149 178 149h54v41c-16 -3 -34 -4 -54 -4c-117 0 -178 54 -178 142v71c0 104 61 149 178 149h34v72z" />
    <glyph glyph-name="dvTT_TTHA" horiz-adv-x="445" 
d="M403 70v-86c0 -96 -61 -148 -178 -148c-116 0 -177 52 -177 148v85c0 42 14 73 41 93c-27 22 -41 55 -41 97v86c0 104 61 149 177 149h34v72h-294v99h515v-99h-103v-179h-152c-46 0 -59 -14 -59 -46v-82c0 -32 13 -48 59 -48c47 0 60 16 60 48v31h118v-35
c0 -40 -14 -71 -40 -93c26 -20 40 -50 40 -92zM289 -12v78c0 32 -16 51 -64 51s-63 -19 -63 -51v-78c0 -32 15 -51 63 -51s64 19 64 51z" />
    <glyph glyph-name="dvTT_YA" horiz-adv-x="928" 
d="M760 566h-405v-72h161c113 0 163 -40 163 -137v-24c0 -78 -40 -115 -117 -115v-1c0 -44 20 -68 98 -68c79 0 100 32 100 86v331zM-35 566v99h999v-99h-86v-566h-118v68c-26 -18 -61 -28 -109 -28c-129 0 -204 61 -204 180v79h65c40 0 52 9 52 40v7c0 27 -8 41 -44 41
h-311c-42 0 -50 -18 -50 -46v-192c0 -28 9 -48 52 -48c42 0 52 20 52 48v86h118v-86c0 -97 -54 -154 -170 -154c-117 0 -170 57 -170 154v196c0 104 52 149 168 149h28v72h-272z" />
    <glyph glyph-name="dvTT_VA" horiz-adv-x="449" 
d="M370 566v-179h-154c-42 0 -50 -18 -50 -46v-81c0 -35 11 -56 62 -56c50 0 62 21 62 56v39h118v-43c0 -40 -10 -73 -29 -99v-364h-111v70c-17 -10 -42 -17 -68 -17c-106 0 -150 44 -150 140v60c0 43 19 72 45 91c-31 27 -47 68 -47 119v85c0 104 52 153 168 153h36v72
h-287v99h520v-99h-115zM268 -8v106c-13 -2 -26 -3 -40 -3h-11c-44 0 -55 -20 -55 -49v-54c0 -30 11 -47 53 -47s53 17 53 47z" />
    <glyph glyph-name="dvTTH_TTHA" horiz-adv-x="455" 
d="M51 253v104c0 84 40 130 118 144v65h-204v99h526v-99h-204v-65c79 -14 119 -60 119 -143v-105c0 -40 -15 -71 -44 -92c29 -20 44 -51 44 -95v-105c0 -96 -61 -148 -178 -148c-116 0 -177 52 -177 148v104c0 44 15 75 44 96c-29 21 -44 52 -44 92zM292 257v97
c0 32 -15 50 -64 50c-48 0 -63 -18 -63 -50v-97c0 -32 15 -51 63 -51c49 0 64 19 64 51zM292 -35v97c0 32 -15 51 -64 51c-48 0 -63 -19 -63 -51v-97c0 -32 15 -51 63 -51c49 0 64 19 64 51z" />
    <glyph glyph-name="dvTTH_YA" horiz-adv-x="941" 
d="M773 566h-503v-63c2 0 3 -1 5 -1h254c113 0 164 -40 164 -137v-32c0 -78 -41 -115 -118 -115v-1c0 -40 20 -68 98 -68c79 0 100 32 100 86v331zM267 147v211c0 28 -12 50 -56 50s-56 -22 -56 -50v-211c0 -29 12 -51 56 -51s56 22 56 51zM381 361v-212
c0 -97 -54 -154 -170 -154c-117 0 -170 57 -170 154v212c0 78 34 127 111 142v63h-187v99h1012v-99h-86v-566h-118v68c-26 -18 -60 -28 -109 -28c-129 0 -204 61 -204 180v79h65c40 0 52 9 52 40v16c0 27 -8 40 -44 40h-155c2 -11 3 -22 3 -34z" />
    <glyph glyph-name="dvDD_DDA" horiz-adv-x="445" 
d="M268 566h-303v99h516v-99h-95v-160h-180c-32 0 -44 -10 -44 -34v-3c0 -25 11 -35 44 -35h57c114 0 153 -45 153 -124v-14c0 -105 -55 -142 -189 -142h-1h-21c-32 0 -44 -9 -44 -34v-3c0 -25 11 -34 44 -34h57c114 0 153 -45 153 -125v-13c0 -105 -55 -142 -189 -142
s-189 37 -189 142v18h118v-14c0 -32 10 -48 71 -48c60 0 71 11 71 46v6c0 28 -10 40 -50 40h-52c-103 0 -152 40 -152 121v9c0 37 11 61 31 78c-25 18 -36 48 -36 95v19h118v-15c0 -31 10 -48 71 -48c60 0 70 12 70 47v5c0 29 -9 41 -49 41h-52c-103 0 -153 40 -153 121v9
c0 85 61 122 153 122h72v69z" />
    <glyph glyph-name="dvDD_DDHA" horiz-adv-x="444" 
d="M230 54h-9c-50 0 -63 -17 -63 -61v-131c0 -32 11 -57 70 -57c58 0 69 23 69 55v4c0 34 -17 43 -45 43c-22 0 -35 -8 -35 -8v89s24 8 54 8c86 0 139 -38 139 -128v-13c0 -101 -59 -150 -182 -150s-186 53 -186 154v138c0 44 11 77 35 100c-28 19 -41 49 -41 99v19h118v-15
c0 -31 11 -48 71 -48s71 12 71 47v5c0 29 -9 41 -50 41h-52c-102 0 -152 40 -152 121v9c0 85 60 122 152 122h72v69h-301v99h514v-99h-95v-160h-180c-32 0 -44 -10 -44 -34v-3c0 -25 12 -35 44 -35h58c113 0 152 -45 152 -124v-14c0 -105 -55 -142 -184 -142z" />
    <glyph glyph-name="dvDD_YA" horiz-adv-x="940" 
d="M771 566h-411v-62h168c113 0 163 -35 163 -131v-25c0 -78 -40 -115 -117 -115v-7c0 -48 20 -77 97 -77c79 0 100 32 100 86v331zM242 566h-277v99h1010v-99h-86v-566h-118v68c-25 -18 -60 -28 -109 -28c-129 0 -204 61 -204 180v94h66c40 0 52 10 52 41v7
c0 27 -8 40 -44 40h-335c-34 0 -44 -16 -44 -40v-9c0 -25 9 -41 44 -41h23c117 0 170 -45 170 -141v-32c0 -96 -56 -144 -176 -144s-178 47 -178 144v23h119v-19c0 -28 12 -46 58 -46c47 0 59 18 59 46v24c0 25 -9 45 -52 45h-23c-105 0 -162 39 -162 135v21
c0 97 53 136 162 136h45v62z" />
    <glyph glyph-name="dvDD_VA" horiz-adv-x="445" 
d="M268 566h-303v99h516v-99h-95v-160h-180c-32 0 -44 -10 -44 -34v-3c0 -25 11 -35 44 -35h57c114 0 153 -45 153 -124v-14c0 -54 -15 -90 -47 -112v-300h-111v63c-15 -11 -47 -18 -68 -18c-106 0 -150 44 -150 141v42c0 36 13 62 33 81c-24 22 -35 56 -35 103v21h118v-17
c0 -31 10 -48 71 -48c60 0 70 12 70 47v5c0 29 -9 41 -49 41h-52c-103 0 -153 40 -153 121v9c0 85 61 122 153 122h72v69zM259 -33v88c-10 -1 -21 -1 -32 -1h-7c-54 0 -67 -12 -67 -57v-30c0 -30 10 -47 52 -47s54 17 54 47z" />
    <glyph glyph-name="dvDDH_DDHA" horiz-adv-x="455" 
d="M232 48h-9c-50 0 -63 -18 -63 -61v-131c0 -32 11 -57 70 -57c58 0 69 23 69 55v4c0 34 -17 43 -45 43c-22 0 -35 -8 -35 -8v89s24 8 54 8c86 0 139 -39 139 -128v-13c0 -101 -59 -150 -182 -150s-186 52 -186 154v138c0 46 13 81 40 104c-25 26 -38 61 -38 107v157
c0 98 50 141 169 141h42v66h-292v99h526v-99h-117v-166h-159c-41 0 -52 -13 -52 -45v-150c0 -32 11 -56 69 -56s69 23 69 55v4c0 34 -17 43 -45 43c-22 0 -34 -8 -34 -8v89s23 8 53 8c86 0 140 -39 140 -128v-14c0 -101 -60 -150 -183 -150z" />
    <glyph glyph-name="dvDDH_YA" horiz-adv-x="944" 
d="M775 566h-408v-66h165c113 0 163 -40 163 -137v-24c0 -78 -40 -115 -117 -115v-3c0 -44 20 -72 97 -72c79 0 100 32 100 86v331zM207 500h44v66h-286v99h1014v-99h-86v-566h-118v68c-25 -18 -60 -28 -109 -28c-129 0 -204 61 -204 180v85h65c41 0 53 10 53 40v7
c0 28 -9 41 -45 41h-328c-43 0 -50 -18 -50 -46v-186c0 -35 10 -58 61 -58s62 21 62 56v14c0 34 -17 43 -42 43c-20 0 -32 -8 -32 -8v105s19 8 48 8c90 0 139 -39 139 -144v-24c0 -105 -52 -158 -175 -158s-178 57 -178 162v194c0 104 50 149 167 149z" />
    <glyph glyph-name="dvNN_TTA" horiz-adv-x="832" 
d="M777 387h-146c-43 0 -50 -18 -50 -46v-192c0 -28 9 -48 51 -48c43 0 52 20 52 48v86h118v-86c0 -97 -53 -154 -170 -154c-116 0 -170 57 -170 154v196c0 104 52 149 169 149h28v72h-283v-305c0 -96 -51 -153 -168 -153c-116 0 -168 57 -168 153v305h-75v99h902v-99h-90
v-179zM208 214c43 0 50 20 50 48v304h-100v-304c0 -28 8 -48 50 -48z" />
    <glyph glyph-name="dvNN_TTHA" horiz-adv-x="843" 
d="M802 361v-212c0 -97 -53 -154 -170 -154c-116 0 -170 57 -170 154v212c0 78 35 127 111 142v63h-197v-305c0 -96 -51 -153 -168 -153c-116 0 -168 57 -168 153v305h-75v99h913v-99h-187v-63c76 -15 111 -63 111 -142zM208 214c43 0 50 20 50 48v304h-100v-304
c0 -28 8 -48 50 -48zM688 147v211c0 28 -11 50 -56 50c-44 0 -55 -22 -55 -50v-211c0 -29 11 -51 55 -51c45 0 56 22 56 51z" />
    <glyph glyph-name="dvNN_DDA" horiz-adv-x="842" 
d="M664 566h-288v-305c0 -96 -51 -153 -168 -153c-116 0 -168 57 -168 153v305h-75v99h912v-99h-95v-164h-163c-34 0 -44 -16 -44 -40v-9c0 -25 9 -41 44 -41h23c117 0 170 -45 170 -141v-32c0 -96 -56 -144 -176 -144s-178 47 -178 144v23h119v-19c0 -28 12 -46 58 -46
c47 0 59 18 59 46v24c0 25 -9 45 -52 45h-23c-105 0 -162 39 -162 135v21c0 97 53 136 162 136h45v62zM208 214c43 0 50 20 50 48v304h-100v-304c0 -28 8 -48 50 -48z" />
    <glyph glyph-name="dvNN_DDHA" horiz-adv-x="847" 
d="M627 500h44v66h-295v-305c0 -96 -51 -153 -168 -153c-116 0 -168 57 -168 153v305h-75v99h917v-99h-94v-173h-161c-42 0 -50 -18 -50 -46v-186c0 -35 11 -58 62 -58c50 0 61 21 61 56v14c0 34 -16 43 -41 43c-21 0 -33 -8 -33 -8v105s19 8 48 8c90 0 140 -39 140 -144
v-24c0 -105 -52 -158 -175 -158c-124 0 -179 57 -179 162v194c0 104 51 149 167 149zM208 214c43 0 50 20 50 48v304h-100v-304c0 -28 8 -48 50 -48z" />
    <glyph glyph-name="dvNN_NNA" horiz-adv-x="1066" 
d="M803 566v-305c0 -96 -52 -153 -168 -153c-117 0 -168 57 -168 153v305h-91v-305c0 -96 -51 -153 -168 -153c-116 0 -168 57 -168 153v305h-75v99h1136v-99h-86v-566h-118v566h-94zM208 214c43 0 50 20 50 48v304h-100v-304c0 -28 8 -48 50 -48zM685 566h-100v-304
c0 -28 7 -48 50 -48c42 0 50 20 50 48v304z" />
    <glyph glyph-name="dvNN_MA" horiz-adv-x="1024" 
d="M857 0v341h-89v-141c0 -88 -47 -143 -163 -143c-115 0 -162 55 -162 143v99c0 89 47 142 162 142h49v125h-278v-305c0 -96 -51 -153 -168 -153c-116 0 -168 57 -168 153v305h-75v99h1094v-99h-86v-566h-116zM208 214c43 0 50 20 50 48v304h-100v-304c0 -28 8 -48 50 -48z
M768 441h89v125h-89v-125zM654 204v137h-49c-41 0 -49 -18 -49 -46v-91c0 -28 8 -46 49 -46c42 0 49 18 49 46z" />
    <glyph glyph-name="dvNN_YA" horiz-adv-x="942" 
d="M-35 566v99h1012v-99h-86v-566h-118v114c-25 -18 -60 -28 -109 -28c-129 0 -204 61 -204 180v127h23c72 0 95 13 95 65v49c0 32 -7 59 -50 59h-152v-305c0 -96 -51 -153 -168 -153c-116 0 -168 57 -168 153v305h-75zM208 214c43 0 50 20 50 48v304h-100v-304
c0 -28 8 -48 50 -48zM673 196c79 0 100 31 100 85v285h-95c10 -14 15 -32 15 -59v-71c0 -79 -39 -118 -117 -121v-34c0 -54 20 -85 97 -85z" />
    <glyph glyph-name="dvNN_VA" horiz-adv-x="861" 
d="M810 566v-566h-118v74c-15 -10 -46 -17 -75 -17c-116 0 -158 53 -158 149v149c0 97 45 151 158 151c29 0 60 -7 75 -17v77h-316v-305c0 -96 -51 -153 -168 -153c-116 0 -168 57 -168 153v305h-75v99h931v-99h-86zM208 214c43 0 50 20 50 48v304h-100v-304
c0 -28 8 -48 50 -48zM697 209v146c0 33 -18 50 -62 50s-61 -17 -61 -50v-146c0 -34 17 -51 61 -51s62 17 62 51z" />
    <glyph glyph-name="dvT_KA" horiz-adv-x="857" 
d="M654 65v110c43 -1 52 10 52 46v132c0 29 -8 50 -51 50s-52 -20 -52 -50v-353h-115v73c-14 -10 -40 -17 -66 -17c-106 0 -150 47 -150 143v158c0 11 1 21 2 30h-52c-50 0 -64 -24 -64 -56v-175c0 -36 17 -47 60 -46v-110c-9 -1 -21 -2 -28 -2c-115 0 -150 52 -150 147v190
c0 104 50 161 182 161h133c19 6 41 9 67 9s52 -7 66 -18v79h-523v99h924v-99h-286v-78c16 10 42 17 66 17c106 0 150 -53 150 -148v-147c0 -95 -40 -147 -146 -147c-6 0 -15 1 -19 2zM436 154c43 0 52 20 52 48v151c0 30 -9 50 -52 50s-51 -20 -51 -50v-149
c0 -30 8 -50 51 -50z" />
    <glyph glyph-name="dvT_K_YA" horiz-adv-x="1181" 
d="M903 86c-129 0 -204 61 -204 180v78c0 29 -8 49 -51 49s-52 -20 -52 -49v-344h-115v73c-14 -10 -40 -17 -66 -17c-106 0 -150 47 -150 143v158c0 11 1 21 2 30h-45c-50 0 -64 -24 -64 -56v-175c0 -36 17 -47 60 -46v-110c-9 -1 -21 -2 -28 -2c-115 0 -150 52 -150 147
v190c0 104 50 161 182 161h126c19 6 41 9 67 9s52 -7 66 -18v79h-516v99h1251v-99h-86v-566h-118v114c-25 -18 -60 -28 -109 -28zM817 507c0 32 -7 59 -50 59h-171v-88c16 11 42 18 66 18c79 0 124 -30 141 -84c10 10 14 24 14 46v49zM912 196c79 0 100 31 100 85v285h-95
c10 -14 15 -32 15 -59v-71c0 -79 -39 -118 -117 -121v-34c0 -54 19 -85 97 -85zM429 154c43 0 52 20 52 48v151c0 30 -8 50 -52 50c-43 0 -51 -20 -51 -50v-149c0 -30 8 -50 51 -50z" />
    <glyph glyph-name="dvT_K_RA" horiz-adv-x="867" 
d="M269 -43l96 132c-55 13 -79 47 -79 119v149c0 11 1 21 2 30h-66c-50 0 -64 -24 -64 -56v-175c0 -36 17 -47 60 -46v-110c-9 -1 -21 -2 -28 -2c-115 0 -150 52 -150 147v190c0 104 50 161 182 161h147c19 6 41 9 67 9c21 0 51 -6 65 -18v79h-536v99h940v-99h-288v-78
c16 11 47 17 66 17c105 0 149 -53 149 -148v-147c0 -95 -39 -147 -145 -147c-6 0 -15 1 -19 2v110c42 -1 52 10 52 46v132c0 29 -9 50 -52 50s-51 -20 -51 -50v-353h-116v99c-2 -1 -3 -2 -5 -4l-96 -138h-131zM450 165c42 0 52 17 52 46v142c0 30 -9 50 -52 50
s-52 -20 -52 -50v-140c0 -30 9 -48 52 -48z" />
    <glyph glyph-name="dvT_K_VA" horiz-adv-x="1101" 
d="M1050 566v-566h-118v74c-15 -10 -46 -17 -74 -17c-117 0 -159 53 -159 149v147c0 29 -8 50 -51 50s-52 -20 -52 -50v-353h-115v73c-14 -10 -40 -17 -66 -17c-106 0 -150 47 -150 143v158c0 11 1 21 2 30h-45c-50 0 -64 -24 -64 -56v-175c0 -36 17 -47 60 -46v-110
c-9 -1 -21 -2 -28 -2c-115 0 -150 52 -150 147v190c0 104 50 161 182 161h126c19 6 41 9 67 9s52 -7 66 -18v79h-516v99h1172v-99h-87zM932 489v77h-336v-78c16 10 42 17 66 17c40 0 68 -10 89 -26c25 18 60 27 107 27c28 0 59 -7 74 -17zM938 209v146c0 33 -18 50 -63 50
c-44 0 -61 -17 -61 -50v-146c0 -34 17 -51 61 -51c45 0 63 17 63 51zM429 154c43 0 52 20 52 48v151c0 30 -8 50 -52 50c-43 0 -51 -20 -51 -50v-149c0 -30 8 -50 51 -50z" />
    <glyph glyph-name="dvT_K_SSA" horiz-adv-x="901" 
d="M645 520v-32c0 -32 -3 -47 -10 -57h97v234h204v-99h-86v-566h-118v333h-252c-47 0 -52 -24 -52 -61v-69c0 -28 9 -48 49 -48s50 18 50 45v53h112v-253h-112v67c-19 -10 -42 -15 -69 -15c-107 0 -151 56 -151 152v85c0 8 0 17 2 24c-11 8 -27 12 -52 12h-35
c-50 0 -64 -24 -64 -56v-113c0 -36 17 -47 60 -46v-110c-9 -1 -21 -2 -28 -2c-115 0 -150 52 -150 147v127c0 105 50 162 182 162h26c44 0 73 -8 93 -20c-9 17 -13 42 -13 75v31c0 97 50 150 160 150c111 0 157 -53 157 -150zM265 665v-99h-300v99h300zM533 474v46
c0 28 -5 48 -45 48s-45 -20 -45 -48v-46c0 -28 5 -48 45 -48s45 20 45 48z" />
    <glyph glyph-name="dvT_KHA" horiz-adv-x="1021" 
d="M398 488v-106c0 -28 6 -47 48 -47c41 0 48 19 48 47v135c0 28 -9 48 -51 49h-478v99h1093v-99h-87v-566h-115v121c-14 -11 -39 -14 -60 -14c-23 0 -42 2 -59 6c-26 -74 -91 -113 -202 -113h-22c-157 0 -228 63 -228 190v189h-63c-50 0 -64 -23 -64 -56v-167
c0 -36 17 -47 60 -46v-110c-9 -1 -21 -2 -28 -2c-115 0 -150 52 -150 147v182c0 104 50 161 182 161h176zM856 483v83h-263c7 -13 11 -29 11 -49v-139c0 -97 -33 -147 -141 -147c-21 0 -51 6 -65 17v-54c0 -58 31 -89 114 -89h13c84 0 119 31 119 89v152
c0 97 31 152 147 152c21 0 48 -5 65 -15zM803 395c-43 0 -53 -19 -53 -48v-92c0 -29 10 -48 53 -48s53 19 53 48v92c0 29 -10 48 -53 48z" />
    <glyph glyph-name="dvT_KH_NA" horiz-adv-x="1419" 
d="M398 488v-106c0 -28 6 -47 48 -47c41 0 48 19 48 47v135c0 28 -9 48 -51 49h-478v99h1489v-99h-86v-566h-118v379h-88c7 -11 9 -26 9 -42v-131c0 -97 -44 -151 -157 -151c-70 0 -114 21 -138 60c-20 -5 -44 -8 -73 -8c-28 0 -49 5 -63 14c-24 -79 -90 -121 -205 -121h-22
c-157 0 -228 63 -228 190v189h-63c-50 0 -64 -23 -64 -56v-167c0 -36 17 -47 60 -46v-110c-9 -1 -21 -2 -28 -2c-115 0 -150 52 -150 147v182c0 104 50 161 182 161h176zM1250 488v78h-657c7 -13 11 -29 11 -49v-139c0 -97 -33 -147 -141 -147c-21 0 -51 6 -65 17v-54
c0 -58 31 -89 114 -89h13c84 0 119 31 119 89v153c0 97 36 148 159 148c53 0 90 -9 114 -28c24 14 56 21 97 21h236zM856 255v92c0 30 -10 48 -53 48s-53 -19 -53 -48v-92c0 -29 10 -48 53 -48s53 18 53 48zM1060 207v126c0 28 -8 46 -46 46s-46 -18 -46 -46v-126
c0 -28 8 -47 46 -47s46 19 46 47z" />
    <glyph glyph-name="dvT_KH_RA" horiz-adv-x="1021" 
d="M461 21c-127 5 -176 59 -176 169v189h-63c-50 0 -64 -23 -64 -56v-167c0 -36 17 -47 60 -46v-110c-9 -1 -21 -2 -28 -2c-115 0 -150 52 -150 147v182c0 104 50 161 182 161h176v-106c0 -28 6 -47 48 -47c41 0 48 19 48 47v135c0 28 -9 48 -51 49h-478v99h1092v-99h-86
v-566h-115v121c-14 -11 -39 -14 -60 -14c-25 0 -46 2 -62 8c-8 -31 -25 -53 -50 -71l-205 -145l-172 15v3l160 104h-6zM644 194v152c0 97 31 152 147 152c21 0 48 -5 65 -15v83h-263c7 -13 11 -29 11 -49v-139c0 -97 -33 -147 -141 -147c-21 0 -51 6 -65 17v-54
c0 -58 31 -86 114 -86h13c84 0 119 28 119 86zM803 395c-43 0 -53 -19 -53 -48v-97c1 -26 11 -43 53 -43c43 0 53 19 53 48v92c0 29 -10 48 -53 48z" />
    <glyph glyph-name="dvT_TA" horiz-adv-x="474" 
d="M237 110v-110c-9 -1 -21 -2 -28 -2c-106 0 -150 55 -150 151v180c0 24 6 42 16 57h-64v100h294v80h-340v99h544v-99h-86v-566h-118v377h-64c-47 0 -64 -23 -64 -56v-165c0 -35 16 -47 60 -46z" />
    <glyph glyph-name="dvT_T" horiz-adv-x="268" 
d="M360 665v-99h-395v99h395zM11 386v100h350v-100h-2v-9h-118c-47 0 -64 -23 -64 -56v-165c0 -35 16 -47 60 -46v-110c-9 -1 -21 -2 -28 -2c-106 0 -150 55 -150 151v180c0 24 6 42 16 57h-64z" />
    <glyph glyph-name="dvT_T_YA" horiz-adv-x="777" 
d="M177 298v-142c0 -36 17 -47 60 -46v-110c-9 -1 -21 -2 -28 -2c-114 0 -150 52 -150 147v157c0 20 4 38 11 53h-59v101h242v-5l3 5c70 0 117 -16 141 -47c12 10 16 26 16 49v49c0 32 -6 59 -50 59h-398v99h848v-99h-86v-566h-119v114c-25 -18 -60 -28 -109 -28
c-129 0 -204 61 -204 180v73c-7 9 -20 16 -41 16h-13c-49 0 -64 -24 -64 -57zM509 196c79 0 99 31 99 85v285h-95c11 -14 15 -32 15 -59v-71c0 -79 -39 -118 -117 -121v-34c0 -54 20 -85 98 -85z" />
    <glyph glyph-name="dvT_T_VA" horiz-adv-x="694" 
d="M59 149v180c0 24 6 42 16 57h-64v100h343c25 13 56 20 97 20c28 0 59 -7 74 -17v77h-560v99h764v-99h-86v-566h-118v74c-15 -10 -46 -17 -74 -17c-117 0 -159 53 -159 149v149c0 8 0 15 1 22h-52c-47 0 -64 -23 -64 -56v-165c0 -35 16 -47 57 -46h3v-110
c-9 -1 -21 -2 -28 -2c-106 0 -150 55 -150 151zM530 209v146c0 33 -18 50 -62 50s-61 -17 -61 -50v-146c0 -34 17 -51 61 -51s62 17 62 51z" />
    <glyph glyph-name="dvT_THA" horiz-adv-x="814" 
d="M520 186c101 0 126 41 126 128v351h204v-99h-86v-566h-118v113c-33 -24 -81 -36 -147 -36c-157 0 -230 82 -230 212v34c-5 1 -11 1 -17 1h-30c-50 0 -64 -24 -64 -56v-112c0 -36 17 -47 60 -46v-110c-9 -1 -21 -2 -28 -2c-115 0 -150 52 -150 147v127
c0 104 50 161 182 161h43c30 0 54 -7 72 -18h53c63 0 85 18 85 70v32c0 30 -4 47 -39 47c-34 0 -40 -17 -40 -47v-27h-113v23c0 98 43 157 150 157s149 -54 149 -152v-52c0 -101 -53 -154 -176 -154h-16v-19c0 -73 27 -107 130 -107zM242 665v-99h-277v99h277z" />
    <glyph glyph-name="dvT_NA" horiz-adv-x="846" 
d="M222 488h24c39 0 71 -9 94 -24c24 16 58 24 101 24h236v78h-712v99h916v-99h-86v-566h-118v379h-88c7 -11 9 -26 9 -42v-131c0 -97 -44 -151 -157 -151s-158 54 -158 151v131c0 11 1 21 2 30c-11 8 -29 12 -55 12h-8c-50 0 -64 -24 -64 -56v-167c0 -36 17 -47 60 -46
l1 -110c-9 -1 -21 -2 -28 -2c-115 0 -151 52 -151 147v182c0 104 50 161 182 161zM487 207v126c0 28 -8 46 -46 46s-46 -18 -46 -46v-126c0 -28 8 -47 46 -47s46 19 46 47z" />
    <glyph glyph-name="dvT_N_YA" horiz-adv-x="1173" 
d="M450 487h176c78 0 132 -27 155 -84c21 9 29 26 29 57v47c0 32 -7 59 -50 59h-795v99h1244v-99h-86v-566h-118v114c-25 -18 -60 -28 -109 -28c-129 0 -204 61 -204 180v87c-8 19 -27 28 -57 28h-38c7 -11 10 -27 10 -44v-131c0 -97 -44 -151 -157 -151s-158 54 -158 151
v117c0 11 -2 60 -48 60h-22c-50 0 -64 -24 -64 -56v-171c0 -36 17 -47 60 -46v-110c-9 -1 -21 -2 -28 -2c-115 0 -150 52 -150 147v185c0 105 50 162 182 162h19c48 0 82 -13 105 -32c25 18 60 27 104 27zM905 196c79 0 100 31 100 85v285h-95c10 -14 15 -32 15 -59v-69
c0 -79 -39 -118 -117 -121v-36c0 -54 19 -85 97 -85zM496 207v126c0 28 -8 46 -46 46c-37 0 -45 -18 -45 -46v-126c0 -28 8 -47 45 -47c38 0 46 19 46 47z" />
    <glyph glyph-name="dvT_PA" horiz-adv-x="675" 
d="M506 0v135c-18 -11 -48 -17 -76 -17c-113 0 -153 53 -153 149v120h-55c-50 0 -64 -24 -64 -56v-175c0 -36 17 -47 60 -46v-110c-9 -1 -21 -2 -28 -2c-115 0 -150 52 -150 147v190c0 104 50 161 182 161h55v70h-312v99h745v-99h-86v-566h-118zM506 566h-110v-294
c0 -28 10 -49 55 -49s55 21 55 49v294z" />
    <glyph glyph-name="dvT_P_RA" horiz-adv-x="696" 
d="M266 0l121 184c-66 15 -89 59 -89 134v69h-76c-50 0 -64 -24 -64 -56v-175c0 -36 17 -47 60 -46v-110c-9 -1 -21 -2 -28 -2c-115 0 -150 52 -150 147v190c0 104 50 161 182 161h76v70h-333v99h766v-99h-86v-566h-118v195l-129 -195h-132zM527 566h-111v-245
c0 -28 9 -48 56 -48c46 0 55 20 55 48v245z" />
    <glyph glyph-name="dvT_P_LA" horiz-adv-x="1114" 
d="M-35 566v99h1185v-99h-86v-566h-119v332c0 29 -9 49 -49 49c-41 0 -50 -20 -50 -49v-121h-118v121c0 29 -8 49 -50 49c-41 0 -49 -20 -49 -49v-159c0 -39 9 -70 78 -70h60v-103h-67c-122 0 -175 42 -187 130c-21 -8 -46 -12 -74 -12c-111 0 -162 49 -162 151v118h-55
c-50 0 -64 -24 -64 -56v-175c0 -36 17 -47 60 -46v-110c-9 -1 -21 -2 -28 -2c-115 0 -150 52 -150 147v190c0 104 50 161 182 161h55v70h-312zM945 472v94h-549v-292c0 -30 11 -51 57 -51c47 0 58 20 58 51v62c0 97 52 154 164 154c66 0 96 -28 110 -52c14 24 43 51 100 51
c25 0 50 -6 60 -17z" />
    <glyph glyph-name="dvT_MA" horiz-adv-x="852" 
d="M686 0v341h-90v-141c0 -88 -47 -143 -162 -143c-116 0 -163 55 -163 143v99c0 25 4 47 12 66c-7 12 -20 22 -41 22h-20c-50 0 -64 -24 -64 -56v-175c0 -36 17 -47 60 -46v-110c-9 -1 -21 -2 -28 -2c-115 0 -150 52 -150 147v190c0 104 50 161 182 161h25
c67 0 112 -24 135 -59c15 3 33 4 52 4h48v125h-517v99h923v-99h-87v-566h-115zM596 441h90v125h-90v-125zM482 204v137h-48c-42 0 -49 -18 -49 -46v-91c0 -28 7 -46 49 -46c41 0 48 18 48 46z" />
    <glyph glyph-name="dvT_M_YA" horiz-adv-x="1169" 
d="M-35 566v99h1240v-99h-86v-566h-119v114c-25 -18 -60 -28 -108 -28c-130 0 -205 61 -205 180v43c0 28 -11 32 -44 32h-47v-141c0 -88 -47 -143 -162 -143c-116 0 -163 55 -163 143v99c0 25 4 47 12 66c-7 12 -20 22 -41 22h-20c-50 0 -64 -24 -64 -56v-175
c0 -36 17 -47 60 -46v-110c-9 -1 -21 -2 -28 -2c-115 0 -150 52 -150 147v190c0 104 50 161 182 161h25c67 0 112 -24 135 -59c15 3 33 4 52 4h48v125h-517zM805 507c0 32 -6 59 -50 59h-159v-125h60c60 0 96 -15 115 -42c25 9 34 26 34 59v49zM901 196c79 0 99 31 99 85
v285h-95c11 -14 15 -32 15 -59v-71c0 -79 -39 -118 -117 -121v-34c0 -54 20 -85 98 -85zM482 204v137h-48c-42 0 -49 -18 -49 -46v-91c0 -28 7 -46 49 -46c41 0 48 18 48 46z" />
    <glyph glyph-name="dvT_YA" horiz-adv-x="758" 
d="M-35 566v99h829v-99h-87v-566h-118v114c-25 -18 -60 -28 -109 -28c-129 0 -204 61 -204 180v73c-7 9 -20 16 -41 16h-13c-50 0 -64 -24 -64 -57v-142c0 -36 17 -47 60 -46v-110c-9 -1 -21 -2 -28 -2c-115 0 -150 52 -150 147v157c0 105 50 162 182 162h15
c71 0 118 -20 142 -54c11 10 15 25 15 48v49c0 32 -6 59 -50 59h-379zM490 196c79 0 99 31 99 85v285h-95c11 -14 15 -32 15 -59v-71c0 -79 -39 -118 -117 -121v-34c0 -54 20 -85 98 -85z" />
    <glyph glyph-name="dvT_R_YA" horiz-adv-x="796" 
d="M-35 566v99h867v-99h-86v-566h-118v114c-26 -18 -61 -28 -109 -28c-103 0 -171 39 -195 115c-14 -23 -29 -46 -47 -67l-97 -107h-147v3l248 274c12 12 33 35 33 44c0 21 -12 43 -80 43c-67 0 -85 -25 -85 -69v-54h-115v62c0 106 52 168 185 168c112 0 166 -34 187 -95
c19 9 26 26 26 55v49c0 32 -6 59 -50 59h-417zM528 196c79 0 100 31 100 85v285h-96c11 -14 16 -32 16 -59v-71c0 -79 -40 -118 -118 -121v-34c0 -54 20 -85 98 -85z" />
    <glyph glyph-name="dvT_LA" horiz-adv-x="886" 
d="M283 171v165c0 11 1 22 2 32c-9 5 -20 7 -35 7h-28c-50 0 -64 -24 -64 -56v-163c0 -36 17 -47 60 -46v-110c-9 -1 -21 -2 -28 -2c-115 0 -150 52 -150 147v177c0 105 50 162 182 162h31c36 0 66 -6 88 -20c26 17 61 26 105 26c67 0 97 -28 110 -52c15 24 43 51 101 51
c25 0 49 -6 60 -17v94h-752v99h956v-99h-86v-566h-118v332c0 29 -9 49 -49 49c-41 0 -50 -20 -50 -49v-121h-118v121c0 29 -8 49 -50 49c-41 0 -49 -20 -49 -49v-159c0 -39 9 -70 78 -70h60l1 -103h-67c-140 0 -190 55 -190 171z" />
    <glyph glyph-name="dvT_VA" horiz-adv-x="675" 
d="M624 566v-566h-118v74c-15 -10 -46 -17 -75 -17c-116 0 -158 53 -158 149v149c0 11 1 22 2 32h-53c-50 0 -64 -24 -64 -56v-175c0 -36 17 -47 60 -46v-110c-9 -1 -21 -2 -28 -2c-115 0 -150 52 -150 147v190c0 104 50 161 182 161h137c20 7 44 10 72 10
c29 0 60 -7 75 -17v77h-541v99h745v-99h-86zM511 209v146c0 33 -18 50 -62 50s-61 -17 -61 -50v-146c0 -34 17 -51 61 -51s62 17 62 51z" />
    <glyph glyph-name="dvT_SA" horiz-adv-x="872" 
d="M401 480v-81c0 -28 6 -47 47 -47c42 0 47 19 47 47v118c0 27 -8 49 -48 49h-482v99h943v-99h-86v-566h-118v272h-143c-21 -16 -54 -25 -88 -25c-27 0 -54 5 -72 18v-115c0 -28 8 -48 51 -48c42 0 50 20 50 48v26h116v-27c0 -97 -50 -154 -166 -154
c-117 0 -167 57 -167 154v222h-63c-50 0 -64 -24 -64 -57v-158c0 -36 17 -47 60 -46v-110c-9 -1 -21 -2 -28 -2c-115 0 -150 52 -150 147v173c0 105 50 162 182 162h179zM611 507v-110c0 -7 0 -18 -2 -23h95v192h-110c13 -13 17 -35 17 -59z" />
    <glyph glyph-name="dvT_S_NA" horiz-adv-x="1248" 
d="M401 480v-81c0 -28 6 -47 47 -47c42 0 47 19 47 47v118c0 27 -8 49 -48 49h-482v99h1319v-99h-87v-566h-118v379h-87c6 -11 8 -26 8 -42v-131c0 -97 -43 -151 -157 -151c-113 0 -158 54 -158 151v66h-124c-24 -16 -48 -25 -92 -25c-19 0 -53 5 -68 18v-115
c0 -28 8 -48 51 -48c42 0 50 20 50 48v26h116v-27c0 -97 -50 -154 -166 -154c-117 0 -167 57 -167 154v222h-63c-50 0 -64 -24 -64 -57v-158c0 -36 17 -47 60 -46v-110c-9 -1 -21 -2 -28 -2c-115 0 -150 52 -150 147v173c0 105 50 162 182 162h179zM1079 488v78h-485
c13 -14 17 -35 17 -59v-112c0 -6 0 -16 -2 -21h79c11 73 57 114 155 114h236zM889 207v126c0 28 -8 46 -46 46c-37 0 -45 -18 -45 -46v-126c0 -28 8 -47 45 -47c38 0 46 19 46 47z" />
    <glyph glyph-name="dvT_S_YA" horiz-adv-x="1172" 
d="M401 480v-80c0 -28 6 -48 47 -48c42 0 47 20 47 48v117c0 27 -8 49 -48 49h-482v99h1242v-99h-86v-566h-118v114c-26 -18 -60 -28 -109 -28c-129 0 -204 61 -204 180v7h-129c-24 -17 -48 -25 -92 -25c-19 0 -53 5 -68 17v-115c0 -28 8 -48 51 -48c42 0 50 20 50 48v26
h116v-27c0 -97 -50 -154 -166 -154c-117 0 -167 57 -167 154v222h-63c-50 0 -64 -24 -64 -57v-158c0 -36 17 -47 60 -46v-110c-9 -1 -21 -2 -28 -2c-115 0 -150 52 -150 147v173c0 105 50 162 182 162h179zM808 507c0 32 -7 59 -51 59h-163c13 -14 17 -35 17 -59v-111
c0 -6 0 -16 -2 -21h104c72 0 95 13 95 65v67zM903 196c79 0 100 31 100 85v285h-95c10 -14 15 -32 15 -59v-89c0 -79 -40 -118 -117 -121v-16c0 -54 19 -85 97 -85z" />
    <glyph glyph-name="dvT_S_VA" horiz-adv-x="1103" 
d="M401 480v-81c0 -28 6 -47 47 -47c42 0 47 19 47 47v118c0 27 -8 49 -48 49h-482v99h1173v-99h-86v-566h-118v74c-15 -10 -46 -17 -75 -17c-116 0 -159 53 -159 149v66h-139c-24 -16 -48 -25 -92 -25c-19 0 -53 5 -68 18v-115c0 -28 8 -48 51 -48c42 0 50 20 50 48v26h116
v-27c0 -97 -50 -154 -166 -154c-117 0 -167 57 -167 154v222h-63c-50 0 -64 -24 -64 -57v-158c0 -36 17 -47 60 -46v-110c-9 -1 -21 -2 -28 -2c-115 0 -150 52 -150 147v173c0 105 50 162 182 162h179zM934 489v77h-340c13 -14 17 -35 17 -59v-112c0 -6 0 -16 -2 -21h92
c6 85 53 132 158 132c29 0 60 -7 75 -17zM939 209v146c0 33 -18 50 -62 50s-61 -17 -61 -50v-146c0 -34 17 -51 61 -51s62 17 62 51z" />
    <glyph glyph-name="dvTH_NA" horiz-adv-x="975" 
d="M282 186c108 0 130 38 130 125v26c0 96 45 151 158 151h236v78h-394v99h598v-99h-86v-566h-118v379h-87c6 -11 8 -26 8 -42v-131c0 -97 -44 -151 -157 -151c-71 0 -115 21 -138 61c-37 -27 -88 -39 -149 -39c-156 0 -245 66 -245 209v123h121c63 0 85 18 85 70v38
c0 30 -4 47 -39 47c-34 0 -40 -17 -40 -47v-38h-113v34c0 98 43 157 150 157s149 -54 149 -152v-58c0 -101 -53 -154 -176 -154h-16v-16c0 -70 21 -104 123 -104zM616 207v126c0 28 -8 46 -46 46c-37 0 -45 -18 -45 -46v-126c0 -28 8 -47 45 -47c38 0 46 19 46 47z" />
    <glyph glyph-name="dvTH_YA" horiz-adv-x="889" 
d="M281 186c100 0 126 38 126 125v82h23c72 0 95 13 95 65v49c0 32 -6 59 -50 59h-82v99h531v-99h-86v-566h-118v114c-25 -18 -60 -28 -109 -28c-69 0 -123 17 -157 52c-39 -41 -98 -61 -172 -61c-155 0 -244 66 -244 209v123h121c63 0 85 18 85 70v38c0 30 -4 47 -39 47
c-34 0 -40 -17 -40 -47v-38h-113v34c0 98 43 157 150 157s149 -54 149 -152v-58c0 -101 -53 -154 -176 -154h-16v-16c0 -70 26 -104 122 -104zM621 196c78 0 99 31 99 85v285h-95c10 -14 15 -32 15 -59v-71c0 -79 -39 -118 -117 -121v-34c0 -54 20 -85 98 -85z" />
    <glyph glyph-name="dvTH_VA" horiz-adv-x="821" 
d="M286 186c110 0 133 38 133 125v44c0 97 45 151 159 151c28 0 59 -7 74 -17v77h-248v99h453v-99h-87v-566h-118v74c-15 -10 -46 -17 -74 -17c-73 0 -117 21 -139 60c-39 -27 -90 -40 -152 -40c-159 0 -249 66 -249 209v123h121c63 0 85 18 85 70v38c0 30 -4 47 -39 47
c-34 0 -40 -17 -40 -47v-38h-113v34c0 98 43 157 150 157s149 -54 149 -152v-58c0 -101 -53 -154 -176 -154h-16v-16c0 -70 22 -104 127 -104zM658 209v146c0 33 -18 50 -63 50c-44 0 -61 -17 -61 -50v-146c0 -34 17 -51 61 -51c45 0 63 17 63 51z" />
    <glyph glyph-name="dvD_GA" horiz-adv-x="438" 
d="M45 221v127c0 109 55 149 172 149h44v69h-296v99h509v-99h-95v-176h-162c-45 0 -54 -17 -54 -46v-119c0 -29 11 -47 55 -47s54 17 54 47v60h118v-445h-118v252c-12 -10 -37 -16 -59 -18v-40c0 -104 -34 -143 -140 -143c-15 0 -40 1 -40 1v103s14 -1 21 -1
c42 0 49 16 49 50v52c-40 23 -58 65 -58 125z" />
    <glyph glyph-name="dvD_G_RA" horiz-adv-x="430" 
d="M277 -181v37c0 21 0 43 4 57h-2c-13 -30 -42 -67 -86 -117l-14 -17h-123l212 250v111c-14 -12 -47 -18 -68 -18v-25c0 -103 -34 -143 -140 -143c-15 0 -40 1 -40 1v103s14 -1 21 -1c42 0 49 16 49 50v43c-33 24 -49 64 -49 119v79c0 109 55 149 172 149h44v69h-292v99
h501v-99h-91v-176h-162c-44 0 -54 -17 -54 -46v-72c0 -28 11 -46 55 -46s54 17 54 46v38h118v-491h-109z" />
    <glyph glyph-name="dvD_GHA" horiz-adv-x="605" 
d="M447 75c-14 -10 -38 -16 -58 -17c-2 -115 -57 -155 -184 -155c-131 0 -185 49 -185 129v17c0 45 14 75 43 90c-27 16 -38 42 -38 82v16c0 77 45 133 142 133h54c7 92 62 127 170 127h45v69h-471v99h676v-99h-87v-176h-163c-44 0 -53 -17 -53 -46v-136
c0 -29 10 -47 55 -47c44 0 54 17 54 47v68h118v-286h-118v85zM220 204v74h-53c-32 0 -40 -14 -40 -41v-10c0 -24 5 -41 43 -41h20v-92h-24c-38 0 -44 -17 -44 -40v-10c0 -41 32 -50 83 -50c69 0 87 11 87 78c-49 21 -72 65 -72 132z" />
    <glyph glyph-name="dvD_DA" horiz-adv-x="426" 
d="M40 129v51c0 45 14 74 40 92c-26 17 -40 46 -40 91v11c0 94 47 134 156 134h59v58h-290v99h496v-99h-87v-150h-163c-44 0 -53 -17 -53 -45v-5c0 -28 9 -45 53 -45h107v-99h-107c-44 0 -53 -17 -53 -46v-43c0 -29 10 -46 54 -46s54 16 55 45v29h117v-228h-117v75
c-14 -12 -47 -18 -70 -18c-109 0 -157 50 -157 139z" />
    <glyph glyph-name="dvD_DHA" horiz-adv-x="601" 
d="M220 204v144c0 109 55 149 171 149h45v69h-471v99h672v-99h-83v-176h-163c-44 0 -53 -17 -53 -46v-136c0 -29 10 -47 55 -47c44 0 54 17 54 47v68h118v-286h-118v85c-14 -10 -38 -16 -58 -17c-2 -115 -57 -155 -184 -155c-131 0 -185 49 -185 129v17c0 45 14 75 43 90
c-27 16 -38 42 -38 82v16c0 77 45 133 142 133h18v-92h-18c-32 0 -40 -14 -40 -41v-10c0 -24 5 -41 43 -41h20v-92h-24c-38 0 -44 -17 -44 -40v-10c0 -41 32 -50 83 -50c69 0 87 11 87 78c-49 21 -72 65 -72 132z" />
    <glyph glyph-name="dvD_NA" horiz-adv-x="422" 
d="M34 212v136c0 109 55 149 171 149h45v69h-285v99h493v-99h-90v-176h-163c-44 0 -53 -17 -53 -46v-128c0 -29 10 -47 55 -47c44 0 54 17 54 47v60h118v-278h-118v99l-104 -87c-33 -28 -30 -52 -12 -72c15 -16 43 -21 43 -21l-73 -66s-43 1 -73 34c-46 49 -38 118 42 182
l29 22c-54 16 -79 54 -79 123z" />
    <glyph glyph-name="dvD_BA" horiz-adv-x="457" 
d="M42 251v97c0 109 59 149 183 149h56v69h-316v99h527v-99h-93v-176h-174c-52 0 -65 -21 -65 -54v-74c0 -32 14 -54 66 -54c51 0 66 20 66 53v50h116v-305c-1 -101 -53 -159 -186 -159s-182 54 -182 155v54c0 48 16 79 40 98c-25 21 -38 52 -38 97zM211 121
c-15 0 -26 -2 -35 -6l116 -91v113c-23 -14 -58 -16 -81 -16zM152 10c0 -38 8 -66 70 -66c26 0 42 5 53 13l-123 99v-46z" />
    <glyph glyph-name="dvD_B_RA" horiz-adv-x="452" 
d="M50 -201l99 114c-76 14 -108 57 -108 140v40c0 48 15 79 39 98c-25 20 -38 52 -38 97v60c0 109 59 149 183 149h56v69h-316v99h523v-99h-89v-176h-174c-52 0 -65 -21 -65 -54v-37c0 -32 14 -54 66 -54c51 0 66 20 66 53v15h116v-466h-115v76c-1 -1 -3 -1 -4 -2l-106 -122
h-133zM211 158c-14 0 -24 -2 -33 -5l115 -83v104c-23 -14 -59 -16 -82 -16zM152 60c0 -38 8 -65 70 -65c25 0 41 4 52 12l-122 89v-36z" />
    <glyph glyph-name="dvD_BHA" horiz-adv-x="563" 
d="M174 228v120c0 109 55 149 172 149h44v69h-425v99h633v-99h-90v-176h-162c-45 0 -54 -17 -54 -46v-112c0 -29 10 -47 55 -47c44 0 54 17 54 47v60h118v-278h-118v83l-2 -1l1 -1l-139 -98l25 -35c36 -51 31 -104 -34 -150c-66 -48 -117 -35 -153 15l-9 12
c-36 49 -30 102 35 149l28 20l-33 46c-11 13 -21 21 -43 6c-22 -17 -19 -29 -9 -43l15 -20l-69 -50l-15 22c-39 54 -31 108 32 153c65 48 117 37 156 -18l34 -47l45 32c-63 17 -92 64 -92 139zM219 -84l-24 34l-28 -20c-22 -17 -19 -31 -9 -46l5 -7c10 -14 23 -22 46 -5
c23 16 19 30 10 44z" />
    <glyph glyph-name="dvD_MA" horiz-adv-x="670" 
d="M34 271v73c0 110 55 153 179 153h52v69h-300v99h741v-99h-87v-702h-115v133h-116v-59h-111v196c-15 -12 -55 -17 -78 -17c-113 0 -165 57 -165 154zM277 301h112v-203h115v468h-121v-176h-170c-52 0 -61 -21 -61 -50v-69c0 -29 10 -51 62 -51s63 21 63 51v30z" />
    <glyph glyph-name="dvD_YA" horiz-adv-x="498" 
d="M533 665v-99h-86v-566h-110v57c-24 -20 -61 -34 -115 -34c-131 0 -182 56 -182 150v19c0 41 13 75 44 96c-33 19 -47 51 -47 91v21c0 74 35 99 90 106v60h-162v99h568zM329 566h-84v-126h-40c-38 0 -50 -14 -50 -45v-10c0 -28 9 -47 51 -47h41v-94h-37
c-43 0 -52 -19 -52 -47v-6c0 -49 22 -62 83 -62c60 0 88 14 88 71v366z" />
    <glyph glyph-name="dvD_VA" horiz-adv-x="429" 
d="M40 243v105c0 109 55 149 172 149h44v69h-291v99h500v-99h-91v-176h-162c-44 0 -53 -17 -53 -46v-97c0 -29 10 -46 54 -46c43 0 54 16 55 44v42h117v-269c0 -98 -55 -148 -172 -148s-168 46 -168 143v51c0 37 12 63 31 80c-24 20 -36 52 -36 99zM268 17v113
c-13 -10 -35 -15 -58 -16c-35 -2 -52 -15 -52 -46v-51c0 -30 8 -50 55 -50c46 0 55 20 55 50z" />
    <glyph glyph-name="dvDH_NA" horiz-adv-x="903" 
d="M340 244v93c0 96 46 151 159 151h235v78h-424v99h629v-99h-86v-566h-119v379h-87c6 -11 9 -26 9 -42v-131c0 -97 -44 -151 -157 -151c-57 0 -97 14 -122 40c-29 -23 -70 -36 -128 -36c-140 0 -206 53 -206 155v53c0 52 15 85 49 100c-31 19 -43 50 -43 96v55
c0 21 5 36 15 48h-99v99h259v-99h-12c-35 0 -45 -18 -45 -48v-51c0 -28 9 -47 51 -47h42v-109h-46c-43 0 -53 -20 -53 -48v-35c0 -48 34 -63 88 -63c69 0 91 18 91 79zM544 207v126c0 28 -8 46 -45 46c-38 0 -46 -18 -46 -46v-126c0 -28 8 -47 46 -47c37 0 45 19 45 47z" />
    <glyph glyph-name="dvDH_N_YA" horiz-adv-x="1227" 
d="M345 244v90c0 97 53 151 158 151h177c78 0 131 -27 154 -84c21 9 29 26 29 57v49c0 32 -7 59 -50 59h-497v99h946v-99h-86v-566h-118v114c-25 -18 -60 -28 -109 -28c-129 0 -204 61 -204 180v84c-8 20 -26 29 -56 29h-39c7 -11 10 -27 10 -45v-128
c0 -97 -44 -151 -157 -151c-52 0 -92 14 -119 41c-29 -23 -71 -37 -133 -37c-140 0 -208 53 -208 155v53c0 52 15 85 49 100c-31 19 -43 50 -43 96v55c0 21 5 36 15 48h-99v99h259v-99h-12c-35 0 -45 -18 -45 -48v-51c0 -28 9 -47 51 -47h42v-109h-46c-43 0 -53 -20 -53 -48
v-35c0 -48 36 -63 90 -63c69 0 94 18 94 79zM958 196c79 0 100 31 100 85v285h-95c10 -14 15 -32 15 -59v-71c0 -79 -39 -118 -117 -121v-34c0 -54 20 -85 97 -85zM549 207v124c0 28 -8 46 -46 46c-37 0 -45 -18 -45 -46v-124c0 -28 8 -47 45 -47c38 0 46 19 46 47z" />
    <glyph glyph-name="dvDH_MA" horiz-adv-x="926" 
d="M345 244v55c0 89 47 142 162 142h49v125h-225v99h630v-99h-86v-566h-116v341h-89v-141c0 -88 -47 -143 -163 -143c-57 0 -98 14 -124 38c-31 -23 -75 -36 -132 -36c-140 0 -208 53 -208 155v53c0 52 15 85 49 100c-31 19 -43 50 -43 96v55c0 21 5 36 15 48h-99v99h259
v-99h-12c-35 0 -45 -18 -45 -48v-51c0 -28 9 -47 51 -47h42v-109h-46c-43 0 -53 -20 -53 -48v-35c0 -48 36 -63 90 -63c69 0 94 18 94 79zM670 441h89v125h-89v-125zM556 204v137h-49c-41 0 -49 -18 -49 -46v-91c0 -28 8 -46 49 -46c42 0 49 18 49 46z" />
    <glyph glyph-name="dvDH_YA" horiz-adv-x="827" 
d="M345 244v149h23c72 0 95 13 95 65v49c0 32 -7 59 -50 59h-82v99h531v-99h-86v-566h-118v114c-25 -18 -60 -28 -109 -28c-57 0 -104 12 -138 36c-32 -39 -84 -63 -160 -63c-140 0 -208 53 -208 155v53c0 52 15 85 49 100c-31 19 -43 50 -43 96v55c0 21 5 36 15 48h-99v99
h259v-99h-12c-35 0 -45 -18 -45 -48v-51c0 -28 9 -47 51 -47h42v-109h-46c-43 0 -53 -20 -53 -48v-35c0 -48 36 -63 90 -63c69 0 94 18 94 79zM558 196c79 0 100 31 100 85v285h-95c10 -14 15 -32 15 -59v-71c0 -79 -39 -118 -117 -121v-34c0 -54 20 -85 97 -85z" />
    <glyph glyph-name="dvDH_VA" horiz-adv-x="747" 
d="M345 244v111c0 97 45 151 159 151c28 0 59 -7 74 -17v77h-247v99h452v-99h-86v-566h-119v74c-15 -10 -46 -17 -74 -17c-58 0 -97 13 -122 37c-32 -22 -75 -35 -131 -35c-140 0 -208 53 -208 155v53c0 52 15 85 49 100c-31 19 -43 50 -43 96v55c0 21 5 36 15 48h-99v99
h259v-99h-12c-35 0 -45 -18 -45 -48v-51c0 -28 9 -47 51 -47h42v-109h-46c-43 0 -53 -20 -53 -48v-35c0 -48 36 -63 90 -63c69 0 94 18 94 79zM584 209v146c0 33 -18 50 -62 50c-45 0 -62 -17 -62 -50v-146c0 -34 17 -51 62 -51c44 0 62 17 62 51z" />
    <glyph glyph-name="dvN_KA" horiz-adv-x="1015" 
d="M816 65v110c42 -1 52 10 52 46v132c0 29 -8 50 -51 50c-44 0 -52 -20 -52 -50v-353h-116v73c-13 -10 -39 -17 -65 -17c-106 0 -150 47 -150 143v158c0 8 0 15 1 22h-94c7 -11 9 -26 9 -42v-131c0 -97 -44 -151 -157 -151s-158 54 -158 151v131c0 96 45 151 158 151h305
c22 11 50 17 86 17c26 0 52 -7 65 -18v79h-684v99h1086v-99h-286v-78c16 10 42 17 66 17c106 0 149 -53 149 -148v-147c0 -95 -39 -147 -145 -147c-6 0 -15 1 -19 2zM598 154c42 0 52 20 52 48v151c0 30 -9 50 -52 50s-52 -20 -52 -50v-149c0 -30 9 -50 52 -50zM239 207v126
c0 28 -8 46 -46 46s-46 -18 -46 -46v-126c0 -28 8 -47 46 -47s46 19 46 47z" />
    <glyph glyph-name="dvN_K_SA" horiz-adv-x="1456" 
d="M-35 566v99h1527v-99h-86v-566h-118v268h-143c-21 -17 -54 -25 -88 -25c-27 0 -54 4 -72 17v-110c0 -28 8 -48 51 -48c42 0 50 20 50 48v21h116v-22c0 -97 -50 -154 -166 -154c-117 0 -167 57 -167 154v200c0 32 -9 48 -52 48s-52 -20 -52 -49v-348h-116v73
c-13 -10 -39 -17 -65 -17c-106 0 -150 47 -150 143v158c0 8 0 15 1 22h-94c7 -11 9 -26 9 -42v-131c0 -97 -44 -151 -157 -151s-158 54 -158 151v131c0 96 45 151 158 151h305c22 11 50 17 86 17c26 0 52 -7 65 -18v79h-684zM1079 517c0 27 -8 49 -48 49h-266v-87
c21 14 50 22 85 22c79 0 127 -34 127 -109c0 -28 11 -45 51 -45c43 0 51 20 51 50v120zM1195 507v-115c0 -7 0 -18 -2 -23h95v197h-110c13 -13 17 -35 17 -59zM598 154c42 0 52 20 52 48v151c0 30 -9 50 -52 50s-52 -20 -52 -50v-149c0 -30 9 -50 52 -50zM239 207v126
c0 28 -8 46 -46 46s-46 -18 -46 -46v-126c0 -28 8 -47 46 -47s46 19 46 47z" />
    <glyph glyph-name="dvN_CA" horiz-adv-x="844" 
d="M552 337v-122c0 -35 12 -55 60 -55s62 20 63 53v353h-710v99h913v-99h-85v-566h-118v75c-22 -14 -53 -19 -81 -19c-111 0 -160 51 -160 156v120c0 22 5 38 15 49h-109c7 -10 10 -27 10 -44v-131c0 -97 -44 -151 -157 -151s-158 54 -158 151v131c0 96 45 151 158 151h441
v-102h-35c-39 0 -47 -22 -47 -49zM239 207v126c0 28 -8 46 -46 46s-46 -18 -46 -46v-126c0 -28 8 -47 46 -47s46 19 46 47z" />
    <glyph glyph-name="dvN_CHA" horiz-adv-x="933" 
d="M888 354v-181c0 -118 -56 -169 -225 -169c-165 0 -229 47 -229 158v26c0 42 15 75 48 92c-31 17 -43 48 -43 95v6h-99c7 -10 10 -27 10 -44v-131c0 -97 -44 -151 -157 -151s-158 54 -158 151v131c0 96 45 151 158 151h246v17c0 26 7 46 20 61h-494v99h1003v-99h-139v-85
c43 -19 59 -62 59 -127zM773 179v155c0 48 -18 67 -64 67c-36 0 -53 -10 -53 -10v98s25 10 63 10v67h-105c-49 0 -57 -24 -57 -63v-124c0 -28 9 -47 51 -47h70v-104h-66c-43 0 -59 -10 -59 -49v-10c0 -46 15 -59 110 -59c94 0 110 21 110 69zM239 207v126c0 28 -8 46 -46 46
s-46 -18 -46 -46v-126c0 -28 8 -47 46 -47s46 19 46 47z" />
    <glyph glyph-name="dvN_TTA" horiz-adv-x="806" 
d="M750 387h-146c-7 0 -13 0 -18 -1v-5h-14c-15 -7 -18 -22 -18 -40v-192c0 -28 9 -48 52 -48s52 20 52 48v86h118v-86c0 -97 -53 -154 -170 -154s-170 57 -170 154v196c0 13 1 25 2 36h-98c7 -10 10 -27 10 -44v-131c0 -97 -44 -151 -157 -151s-158 54 -158 151v131
c0 96 45 151 158 151h347c18 4 40 6 64 6h28v72h-667v99h875v-99h-90v-179zM239 207v126c0 28 -8 46 -46 46s-46 -18 -46 -46v-126c0 -28 8 -47 46 -47s46 19 46 47z" />
    <glyph glyph-name="dvN_DDA" horiz-adv-x="818" 
d="M640 566h-675v99h888v-99h-95v-164h-163c-34 0 -44 -16 -44 -40v-9c0 -25 9 -41 44 -41h23c117 0 170 -45 170 -141v-32c0 -96 -56 -144 -176 -144c-121 0 -178 47 -178 144v23h119v-19c0 -28 12 -46 58 -46c47 0 59 18 59 46v24c0 25 -9 45 -52 45h-23
c-105 0 -162 39 -162 135v21v13h-93c7 -10 10 -27 10 -44v-131c0 -97 -44 -151 -157 -151s-158 54 -158 151v131c0 96 45 151 158 151h306c25 11 57 16 96 16h45v62zM239 207v126c0 28 -8 46 -46 46s-46 -18 -46 -46v-126c0 -28 8 -47 46 -47s46 19 46 47z" />
    <glyph glyph-name="dvN_TA" horiz-adv-x="851" 
d="M614 110v-110c-9 -1 -20 -2 -28 -2c-114 0 -150 52 -150 147v192c0 16 1 30 4 44h-100c7 -10 10 -27 10 -44v-131c0 -97 -44 -151 -157 -151s-158 54 -158 151v131c0 96 45 151 158 151h339c21 7 44 10 71 10c32 0 62 -6 79 -16v84h-717v99h921v-99h-86v-566h-118v333
c0 33 -14 56 -64 56s-64 -23 -64 -56v-177c0 -36 17 -47 60 -46zM239 207v126c0 28 -8 46 -46 46s-46 -18 -46 -46v-126c0 -28 8 -47 46 -47s46 19 46 47z" />
    <glyph glyph-name="dvN_T_YA" horiz-adv-x="1154" 
d="M-35 566v99h1225v-99h-87v-566h-118v114c-25 -18 -60 -28 -109 -28c-129 0 -204 61 -204 180v96c-7 9 -20 16 -41 16h-13c-50 0 -64 -24 -64 -56v-166c0 -36 17 -47 60 -46v-110c-9 -1 -21 -2 -28 -2c-115 0 -150 52 -150 147v180c0 20 2 39 6 55h-102
c7 -10 10 -27 10 -44v-130c0 -97 -44 -151 -157 -151s-158 54 -158 151v130c0 96 45 151 158 151h440c79 0 120 -29 137 -72c15 9 20 26 20 52v40c0 32 -6 59 -50 59h-775zM886 196c78 0 99 31 99 85v285h-95c10 -14 15 -32 15 -59v-63c0 -78 -39 -117 -117 -120v-43
c0 -54 20 -85 98 -85zM239 207v125c0 28 -8 46 -46 46s-46 -18 -46 -46v-125c0 -28 8 -47 46 -47s46 19 46 47z" />
    <glyph glyph-name="dvN_T_RA" horiz-adv-x="885" 
d="M440 27v3l266 294c11 13 14 19 15 27c0 21 -12 40 -80 40c-67 0 -86 -25 -86 -69v-54h-114v62c0 18 1 34 4 49h-104c7 -11 9 -26 9 -42v-131c0 -97 -44 -151 -157 -151s-158 54 -158 151v131c0 96 45 151 158 151h352c23 7 50 10 81 10c50 0 84 -11 95 -23v91h-756v99
h960v-99h-86v-566h-111v72c0 41 3 111 7 140h-1c-14 -30 -45 -71 -63 -92l-84 -93h-147zM239 207v126c0 28 -8 46 -46 46s-46 -18 -46 -46v-126c0 -28 8 -47 46 -47s46 19 46 47z" />
    <glyph glyph-name="dvN_T_SA" horiz-adv-x="1268" 
d="M797 483v-84c0 -28 6 -47 47 -47c42 0 47 19 47 47v118c0 27 -8 49 -48 49h-878v99h1339v-99h-86v-566h-119v272h-142c-21 -16 -54 -25 -88 -25c-27 0 -54 5 -72 18v-115c0 -28 8 -48 51 -48c42 0 50 20 50 48v26h116v-27c0 -97 -50 -154 -166 -154
c-117 0 -167 57 -167 154v225h-63h-6v-1h-10c-37 -5 -48 -26 -48 -55v-162c0 -36 17 -47 60 -46v-110c-9 -1 -21 -2 -28 -2c-115 0 -150 52 -150 147v177c0 19 2 36 5 51h-101c7 -11 10 -27 10 -45v-122c0 -97 -44 -151 -157 -151s-158 54 -158 151v122c0 97 45 151 158 151
h370c16 3 35 4 55 4h179zM1007 507v-110c0 -7 0 -18 -2 -23h94v192h-109c13 -13 17 -35 17 -59zM239 207v117c0 28 -8 47 -46 47s-46 -19 -46 -47v-117c0 -28 8 -47 46 -47s46 19 46 47z" />
    <glyph glyph-name="dvN_THA" horiz-adv-x="977" 
d="M193 465h181c58 0 102 -16 129 -49h49c64 0 86 18 86 70v31c0 30 -5 47 -39 47s-40 -17 -40 -47v-21h-113v17c0 98 43 157 150 157s149 -54 149 -152v-51c0 -101 -53 -154 -176 -154h-16v-20c0 -73 26 -107 129 -107c102 0 127 41 127 128v351h204v-99h-86v-566h-118v113
c-33 -24 -81 -36 -147 -36c-157 0 -230 82 -230 212v43c-7 18 -22 27 -49 27h-43c7 -11 10 -27 10 -45v-108c0 -97 -44 -151 -157 -151s-158 54 -158 151v108c0 97 45 151 158 151zM386 665v-99h-421v99h421zM239 207v104c0 28 -8 46 -46 46s-46 -18 -46 -46v-104
c0 -28 8 -47 46 -47s46 19 46 47z" />
    <glyph glyph-name="dvN_TH_YA" horiz-adv-x="1283" 
d="M193 465h181c58 0 102 -16 129 -49h49c64 0 86 18 86 70v31c0 30 -5 47 -39 47s-40 -17 -40 -47v-21h-113v17c0 98 43 157 150 157s149 -54 149 -152v-51c0 -101 -53 -154 -176 -154h-16v-23c0 -70 26 -104 122 -104c100 0 126 38 126 125v82h23c72 0 95 13 95 65v49
c0 32 -6 59 -50 59h-82v99h531v-99h-86v-566h-118v114c-25 -18 -60 -28 -109 -28c-69 0 -123 17 -157 52c-39 -41 -98 -61 -172 -61c-155 0 -244 66 -244 209v46c-7 18 -22 27 -49 27h-43c7 -11 10 -27 10 -45v-108c0 -97 -44 -151 -157 -151s-158 54 -158 151v108
c0 97 45 151 158 151zM386 665v-99h-421v99h421zM1014 196c79 0 100 31 100 85v285h-95c10 -14 15 -32 15 -59v-71c0 -79 -39 -118 -117 -121v-34c0 -54 20 -85 97 -85zM239 207v104c0 28 -8 46 -46 46s-46 -18 -46 -46v-104c0 -28 8 -47 46 -47s46 19 46 47z" />
    <glyph glyph-name="dvN_TH_VA" horiz-adv-x="1215" 
d="M193 465h181c58 0 102 -16 129 -49h49c64 0 86 18 86 70v31c0 30 -5 47 -39 47s-40 -17 -40 -47v-21h-113v17c0 98 43 157 150 157s149 -54 149 -152v-51c0 -101 -53 -154 -176 -154h-16v-23c0 -70 22 -104 127 -104c110 0 133 38 133 125v44c0 97 45 151 159 151
c28 0 59 -7 74 -17v77h-248v99h452v-99h-86v-566h-118v74c-15 -10 -46 -17 -74 -17c-73 0 -117 21 -140 60c-38 -27 -89 -40 -151 -40c-159 0 -249 66 -249 209v46c-7 18 -22 27 -49 27h-43c7 -11 10 -27 10 -45v-108c0 -97 -44 -151 -157 -151s-158 54 -158 151v108
c0 97 45 151 158 151zM386 665v-99h-421v99h421zM1052 209v146c0 33 -18 50 -63 50c-44 0 -61 -17 -61 -50v-146c0 -34 17 -51 61 -51c45 0 63 17 63 51zM239 207v104c0 28 -8 46 -46 46s-46 -18 -46 -46v-104c0 -28 8 -47 46 -47s46 19 46 47z" />
    <glyph glyph-name="dvN_DA" horiz-adv-x="823" 
d="M434 212v136c0 11 1 21 2 31h-95c6 -11 8 -26 8 -42v-131c0 -97 -44 -151 -157 -151s-158 54 -158 151v131c0 96 45 151 158 151h334c22 6 49 9 80 9h44v69h-685v99h893v-99h-90v-176h-162c-44 0 -53 -17 -53 -46v-128c0 -29 10 -47 54 -47s55 17 55 47v60h117v-278h-117
v83c-20 -11 -47 -16 -70 -16c-109 0 -158 50 -158 147zM238 207v126c0 28 -8 46 -46 46c-37 0 -45 -18 -45 -46v-126c0 -28 8 -47 45 -47c38 0 46 19 46 47z" />
    <glyph glyph-name="dvN_D_RA" horiz-adv-x="829" 
d="M429 -65l100 155c-61 14 -88 52 -88 125v133c0 11 1 21 2 31h-102c7 -11 9 -26 9 -42v-131c0 -97 -44 -151 -157 -151s-158 54 -158 151v131c0 96 45 151 158 151h339c23 6 49 9 80 9h44v69h-691v99h899v-99h-90v-176h-162c-44 0 -53 -17 -53 -46v-126
c0 -28 10 -46 54 -46s55 17 55 46v58h117v-278h-117v104c-1 -1 -3 -2 -4 -3l-106 -164h-129zM239 207v126c0 28 -8 46 -46 46s-46 -18 -46 -46v-126c0 -28 8 -47 46 -47s46 19 46 47z" />
    <glyph glyph-name="dvN_D_VA" horiz-adv-x="828" 
d="M440 243v105c0 11 1 21 2 31h-101c7 -11 9 -26 9 -42v-131c0 -97 -44 -151 -157 -151s-158 54 -158 151v131c0 96 45 151 158 151h338c23 6 49 9 80 9h45v69h-691v99h899v-99h-90v-176h-163c-44 0 -53 -17 -53 -46v-97c0 -29 10 -46 55 -46c43 0 53 16 54 44v42h118v-269
c0 -98 -56 -148 -173 -148s-168 46 -168 143v51c0 38 12 63 31 80c-23 21 -35 52 -35 99zM239 207v126c0 28 -8 46 -46 46s-46 -18 -46 -46v-126c0 -28 8 -47 46 -47s46 19 46 47zM667 17v113c-13 -10 -35 -15 -58 -16c-35 -2 -52 -15 -52 -46v-51c0 -30 9 -50 55 -50
c47 0 55 20 55 50z" />
    <glyph glyph-name="dvN_DHA" horiz-adv-x="891" 
d="M649 311h-46c-43 0 -52 -20 -52 -48v-35c0 -48 30 -63 84 -63c53 0 87 15 87 64v436h205v-99h-87v-566h-118v87c-22 -17 -57 -28 -106 -28c-124 0 -183 61 -183 155v53c0 52 15 85 48 100c-6 4 -11 8 -15 12h-125c6 -11 8 -26 8 -42v-131c0 -97 -44 -151 -157 -151
s-158 54 -158 151v131c0 96 45 151 158 151h247v30c0 21 5 36 15 48h-489v99h675v-99h-35c-37 0 -48 -17 -48 -48v-51c0 -28 8 -47 51 -47h41v-109zM238 207v126c0 28 -8 46 -46 46c-37 0 -45 -18 -45 -46v-126c0 -28 8 -47 45 -47c38 0 46 19 46 47z" />
    <glyph glyph-name="dvN_DH_YA" horiz-adv-x="1217" 
d="M735 244v149h23c72 0 95 13 95 65v49c0 32 -7 59 -50 59h-97v99h546v-99h-86v-566h-118v114c-26 -18 -60 -28 -109 -28c-58 0 -104 12 -139 36c-31 -39 -83 -63 -159 -63c-140 0 -208 53 -208 155v53c0 52 15 85 48 100c-6 4 -11 8 -15 12h-125c7 -11 9 -26 9 -42v-131
c0 -97 -44 -151 -157 -151s-158 54 -158 151v131c0 96 45 151 158 151h246v30c0 21 5 36 15 48h-489v99h649v-99h-12c-35 0 -45 -18 -45 -48v-51c0 -28 8 -47 51 -47h41v-109h-46c-43 0 -52 -20 -52 -48v-35c0 -48 36 -63 90 -63c69 0 94 18 94 79zM948 196
c79 0 100 31 100 85v285h-95c10 -14 15 -32 15 -59v-71c0 -79 -40 -118 -117 -121v-34c0 -54 19 -85 97 -85zM239 207v126c0 28 -8 46 -46 46s-46 -18 -46 -46v-126c0 -28 8 -47 46 -47s46 19 46 47z" />
    <glyph glyph-name="dvN_DH_RA" horiz-adv-x="891" 
d="M411 -50v2l140 145c-80 13 -118 58 -118 135v35c0 51 15 85 48 101c-5 3 -10 7 -14 11h-126c7 -11 9 -26 9 -42v-131c0 -97 -44 -151 -157 -151s-158 54 -158 151v131c0 96 45 151 158 151h246v30c0 21 5 36 15 48h-489v99h675v-99h-35c-37 0 -48 -17 -48 -48v-51
c0 -28 8 -47 51 -47h41v-109h-46c-43 0 -52 -20 -52 -48v-18c0 -48 28 -63 81 -63c57 0 90 16 90 73v410h205v-99h-87v-566h-118v117l-161 -167h-150zM239 207v126c0 28 -8 46 -46 46s-46 -18 -46 -46v-126c0 -28 8 -47 46 -47s46 19 46 47z" />
    <glyph glyph-name="dvN_DH_VA" horiz-adv-x="1137" 
d="M735 244v111c0 97 45 151 159 151c28 0 59 -7 74 -17v77h-268v99h472v-99h-86v-566h-118v74c-15 -10 -46 -17 -74 -17c-58 0 -97 13 -122 37c-32 -22 -75 -35 -131 -35c-140 0 -208 53 -208 155v53c0 52 15 85 48 100c-6 4 -11 8 -15 12h-125c7 -11 9 -26 9 -42v-131
c0 -97 -44 -151 -157 -151s-158 54 -158 151v131c0 96 45 151 158 151h246v30c0 21 5 36 15 48h-489v99h649v-99h-12c-35 0 -45 -18 -45 -48v-51c0 -28 8 -47 51 -47h41v-109h-46c-43 0 -52 -20 -52 -48v-35c0 -48 36 -63 90 -63c69 0 94 18 94 79zM974 209v146
c0 33 -18 50 -63 50c-44 0 -61 -17 -61 -50v-146c0 -34 17 -51 61 -51c45 0 63 17 63 51zM239 207v126c0 28 -8 46 -46 46s-46 -18 -46 -46v-126c0 -28 8 -47 46 -47s46 19 46 47z" />
    <glyph glyph-name="dvN_NA" horiz-adv-x="993" 
d="M745 337v-131c0 -97 -44 -151 -157 -151s-158 54 -158 151v131c0 15 1 29 3 42h-92c7 -11 9 -26 9 -42v-131c0 -97 -44 -151 -157 -151s-158 54 -158 151v131c0 96 45 151 158 151h631v78h-859v99h1063v-99h-86v-566h-118v379h-87c6 -11 8 -26 8 -42zM239 207v126
c0 28 -8 46 -46 46s-46 -18 -46 -46v-126c0 -28 8 -47 46 -47s46 19 46 47zM634 207v126c0 28 -8 46 -46 46c-37 0 -45 -18 -45 -46v-126c0 -28 8 -47 45 -47c38 0 46 19 46 47z" />
    <glyph glyph-name="dvN_N_YA" horiz-adv-x="1312" 
d="M-35 566v99h1382v-99h-86v-566h-118v114c-25 -18 -60 -28 -109 -28c-129 0 -204 61 -204 180v87c-8 19 -26 28 -56 28h-39c7 -10 10 -27 10 -44v-131c0 -97 -44 -151 -157 -151s-158 54 -158 151v131c0 15 1 29 4 42h-93c7 -11 9 -26 9 -42v-131
c0 -97 -44 -151 -157 -151s-158 54 -158 151v131c0 96 45 151 158 151h572c78 0 131 -27 154 -84c21 9 29 26 29 57v46c0 32 -7 59 -50 59h-933zM1043 196c79 0 100 31 100 85v285h-95c10 -14 15 -32 15 -59v-69c0 -78 -39 -117 -117 -121v-36c0 -54 20 -85 97 -85zM239 207
v126c0 28 -8 46 -46 46s-46 -18 -46 -46v-126c0 -28 8 -47 46 -47s46 19 46 47zM634 207v126c0 28 -8 46 -46 46c-37 0 -45 -18 -45 -46v-126c0 -28 8 -47 45 -47c38 0 46 19 46 47z" />
    <glyph glyph-name="dvN_PA" horiz-adv-x="831" 
d="M662 0v135c-18 -11 -49 -17 -76 -17c-113 0 -153 53 -153 149v112h-92c6 -11 8 -26 8 -42v-131c0 -97 -44 -151 -157 -151s-158 54 -158 151v131c0 96 45 151 158 151h241v78h-468v99h901v-99h-86v-566h-118zM662 566h-111v-294c0 -28 10 -49 55 -49s56 21 56 49v294z
M238 207v126c0 28 -8 46 -46 46c-37 0 -45 -18 -45 -46v-126c0 -28 8 -47 45 -47c38 0 46 19 46 47z" />
    <glyph glyph-name="dvN_P_RA" horiz-adv-x="842" 
d="M412 0l122 184c-67 15 -90 59 -90 134v61h-103c7 -11 9 -26 9 -42v-131c0 -97 -44 -151 -157 -151s-158 54 -158 151v131c0 96 45 151 158 151h251v78h-479v99h912v-99h-86v-566h-118v194l-129 -194h-132zM673 566h-110v-245c0 -28 8 -48 55 -48c46 0 55 20 55 48v245z
M239 207v126c0 28 -8 46 -46 46s-46 -18 -46 -46v-126c0 -28 8 -47 46 -47s46 19 46 47z" />
    <glyph glyph-name="dvN_PHA" horiz-adv-x="1022" 
d="M820 61v110c40 -1 49 13 49 47v127c0 28 -8 47 -49 47c-42 0 -50 -19 -50 -47v-345h-118v121c-17 -10 -42 -16 -66 -16c-107 0 -153 51 -153 147v127h-92c6 -11 8 -26 8 -42v-131c0 -97 -44 -151 -157 -151s-158 54 -158 151v131c0 96 45 151 158 151h241v78h-468v99
h1093v-99h-288v-82c17 11 42 17 65 17c108 0 152 -57 152 -153v-141c0 -96 -44 -148 -150 -147c-6 0 -13 0 -17 1zM652 566h-101v-310c0 -28 9 -46 51 -46c40 0 50 17 50 46v310zM238 207v126c0 28 -8 46 -46 46c-37 0 -45 -18 -45 -46v-126c0 -28 8 -47 45 -47
c38 0 46 19 46 47z" />
    <glyph glyph-name="dvN_PH_RA" horiz-adv-x="1030" 
d="M413 -5l111 176c-57 14 -83 51 -83 123v85h-100c6 -11 8 -26 8 -42v-131c0 -97 -44 -151 -157 -151s-158 54 -158 151v131c0 96 45 151 158 151h249v78h-476v99h1100v-99h-287v-82c17 10 42 17 65 17c108 0 152 -57 152 -153v-139c0 -95 -44 -147 -150 -146
c-6 0 -13 0 -17 1v109c40 0 49 14 49 47v125c0 28 -8 47 -49 47s-50 -19 -50 -46v-346h-118v180l-117 -185h-130zM660 566h-101v-268c0 -28 9 -46 51 -46c41 0 50 18 50 46v268zM238 207v126c0 28 -8 46 -46 46c-37 0 -45 -18 -45 -46v-126c0 -28 8 -47 45 -47
c38 0 46 19 46 47z" />
    <glyph glyph-name="dvN_BHA" horiz-adv-x="1020" 
d="M193 448h183c56 0 99 -13 127 -40c24 11 55 17 94 17h49v89c0 28 -6 47 -46 47c-41 0 -46 -20 -46 -47v-17h-118v20c0 97 49 153 164 153c114 0 164 -56 164 -153v-92h93v240h204v-99h-86v-566h-118v325h-98v-125c0 -89 -47 -144 -162 -144c-116 0 -163 55 -163 144v83
c0 13 1 26 3 37c-9 14 -26 21 -52 21h-45c7 -10 10 -27 10 -44v-91c0 -97 -44 -151 -157 -151s-158 54 -158 151v91c0 96 45 151 158 151zM373 665v-99h-408v99h408zM239 207v86c0 28 -8 46 -46 46s-46 -18 -46 -46v-86c0 -28 8 -47 46 -47s46 19 46 47zM646 203v122h-49
c-42 0 -49 -18 -49 -46v-76c0 -27 7 -46 49 -46c41 0 49 18 49 46z" />
    </font>
</defs>
</svg>
