<?xml version="1.0" standalone="no"?>
<!DOCTYPE svg PUBLIC "-//W3C//DTD SVG 1.1//EN" "http://www.w3.org/Graphics/SVG/1.1/DTD/svg11.dtd" >
<svg xmlns="http://www.w3.org/2000/svg" xmlns:xlink="http://www.w3.org/1999/xlink" version="1.1">
<metadata>
Created by FontForge 20201107 at Wed Jan 27 18:42:38 2021
 By Rahul
Copyright 2012-2021 Indian Type Foundry. All rights reserved.
</metadata>
<defs>
<font id="AkhandDevanagari-Bold" horiz-adv-x="216" >
  <font-face 
    font-family="Akhand Devanagari"
    font-weight="700"
    font-stretch="normal"
    units-per-em="1000"
    panose-1="0 0 0 0 0 0 0 0 0 0"
    ascent="800"
    descent="-200"
    x-height="579"
    cap-height="682"
    bbox="-500 -506 1884 978"
    underline-thickness="50"
    underline-position="-100"
    unicode-range="U+000D-25CC"
  />
<missing-glyph horiz-adv-x="510" 
d="M0 0v701h509l1 -701h-510zM54 649v-597h400v597h-400zM254 302h-4l-100 -209h-60l134 260l-134 255h60l105 -206h4l100 206h60l-135 -261l135 -254h-60z" />
    <glyph glyph-name=".notdef" horiz-adv-x="510" 
d="M0 0v701h509l1 -701h-510zM54 649v-597h400v597h-400zM254 302h-4l-100 -209h-60l134 260l-134 255h60l105 -206h4l100 206h60l-135 -261l135 -254h-60z" />
    <glyph glyph-name="space" unicode=" " horiz-adv-x="188" 
 />
    <glyph glyph-name="dvA" unicode="&#x905;" horiz-adv-x="615" 
d="M197 573c-50 0 -62 -25 -62 -58v-25h-98v27c0 91 49 148 160 148s160 -57 160 -148v-51c0 -46 -11 -86 -47 -105c24 -12 37 -34 43 -62h104v361h190v-85h-90v-575h-100v213h-100v-37c0 -85 -49 -141 -160 -141s-160 56 -160 141v53h98v-48c0 -30 12 -55 62 -55
c53 0 62 25 62 55v75c0 33 -7 58 -60 59h-45v92h45c53 1 60 26 60 59v49c0 33 -12 58 -62 58z" />
    <glyph glyph-name="dvAA" unicode="&#x906;" horiz-adv-x="832" 
d="M197 573c-50 0 -62 -25 -62 -58v-25h-98v27c0 91 49 148 160 148s160 -57 160 -148v-51c0 -46 -11 -86 -47 -105c24 -12 37 -34 43 -62h104v361h406v-85h-90v-575h-100v575h-116v-575h-100v213h-100v-37c0 -85 -49 -141 -160 -141s-160 56 -160 141v53h98v-48
c0 -30 12 -55 62 -55c53 0 62 25 62 55v75c0 33 -7 58 -60 59h-45v92h45c53 1 60 26 60 59v49c0 33 -12 58 -62 58z" />
    <glyph glyph-name="dvI" unicode="&#x907;" horiz-adv-x="408" 
d="M43 179h98v-25c0 -33 16 -53 68 -53s69 20 69 53v28c0 30 -12 53 -63 53h-24c-103 0 -157 39 -157 130v8c0 92 51 131 157 131h59v71h-282v85h471v-85h-89v-158h-159c-45 0 -57 -17 -57 -47v-3c0 -30 13 -47 57 -47h24c111 0 163 -44 163 -135v-33
c0 -92 -41 -141 -157 -141c-31 0 -65 8 -80 24v-99h-98v243z" />
    <glyph glyph-name="dvII" unicode="&#x908;" horiz-adv-x="408" 
d="M43 179h98v-25c0 -33 16 -53 68 -53s69 20 69 53v28c0 30 -12 53 -63 53h-24c-103 0 -157 39 -157 130v8c0 92 51 131 157 131h59v71h-282v85h280c-6 15 -28 56 -33 98c-10 102 58 136 136 136c40 0 59 -4 64 -5v-87c-6 1 -23 1 -31 1c-49 0 -76 -16 -68 -65
c5 -27 23 -63 30 -78h93v-85h-89v-158h-159c-45 0 -57 -17 -57 -47v-3c0 -30 13 -47 57 -47h24c111 0 163 -44 163 -135v-33c0 -92 -41 -141 -157 -141c-31 0 -65 8 -80 24v-99h-98v243z" />
    <glyph glyph-name="dvU" unicode="&#x909;" horiz-adv-x="412" 
d="M-32 575v85h475v-85h-105c13 -14 19 -31 19 -55v-64c0 -49 -13 -87 -46 -102c33 -17 46 -55 46 -104v-108c0 -91 -51 -147 -162 -147s-163 56 -163 147v66h100v-64c0 -32 12 -58 63 -58c52 0 62 26 62 58v106c0 32 -8 58 -61 58h-58v93h58c53 0 61 26 61 58v58
c0 32 -13 58 -62 58h-227z" />
    <glyph glyph-name="dvUU" unicode="&#x90a;" horiz-adv-x="592" 
d="M403 0v92c51 -1 63 16 63 54v92c0 38 -15 62 -65 62h-54c7 -18 11 -39 11 -62v-96c0 -91 -52 -147 -163 -147s-162 56 -162 147v66h100v-64c0 -32 12 -58 62 -58c53 0 63 26 63 58v106c0 32 -8 58 -61 58h-59v93h59c53 0 61 26 61 58v58c0 32 -13 58 -63 58h-227v85h656
v-85h-286c13 -14 20 -31 20 -55v-52c0 -34 -8 -64 -24 -86c23 6 52 11 82 11c98 0 150 -48 150 -139v-111c0 -92 -47 -146 -139 -145c-10 0 -24 2 -24 2z" />
    <glyph glyph-name="dvvR" unicode="&#x90b;" horiz-adv-x="698" 
d="M18 25v3l269 284c8 12 9 22 9 31c0 33 -15 61 -87 61c-71 0 -92 -26 -92 -73v-61h-96v66c0 101 50 161 176 161c51 0 86 -11 99 -27v105h-327v85h761v-85h-334v-150h100c52 0 65 20 65 56v17h97v-301h-50c-47 0 -59 -27 -59 -71s22 -69 65 -69h70v-81
c-9 -1 -55 -3 -81 -3c-93 0 -152 49 -152 149c0 88 41 137 114 142v89c-21 -14 -48 -21 -84 -21h-85v-332h-95v75c0 39 3 114 6 141l-1 1c-14 -26 -52 -73 -69 -92l-93 -100h-126z" />
    <glyph glyph-name="dvvRR" unicode="&#x960;" horiz-adv-x="707" 
d="M18 25v3l269 284c8 12 9 22 9 31c0 33 -15 61 -87 61c-71 0 -92 -26 -92 -73v-61h-96v66c0 101 50 161 176 161c51 0 86 -11 99 -27v105h-328v85h770v-85h-342v-150h117c52 0 65 20 65 56v17h97v-288h-55c-42 0 -54 -18 -54 -57c0 -40 23 -55 59 -55h33v-84h-39
c-33 0 -53 -6 -53 -53c0 -46 20 -52 53 -52h84v-86h-94c-97 0 -143 41 -143 128c0 47 13 80 36 101c-22 21 -34 53 -34 97c0 87 41 123 114 127v77c-20 -14 -48 -21 -84 -21h-102v-332h-95v75c0 39 3 114 6 141l-1 1c-14 -26 -52 -73 -69 -92l-93 -100h-126z" />
    <glyph glyph-name="dvvL" unicode="&#x90c;" horiz-adv-x="633" 
d="M41 165v176c0 91 52 145 155 145c60 0 94 -24 109 -50c21 29 50 50 105 50c29 0 52 -7 64 -20v109h-506v85h696v-85h-90v-530h-83c-38 0 -56 -14 -56 -58v-2c0 -48 20 -56 53 -56h88v-93h-88c-103 0 -153 53 -153 150c0 92 45 145 139 150v202c0 32 -10 56 -58 56
s-59 -24 -59 -55v-124h-100v124c0 31 -11 55 -58 55c-49 0 -58 -24 -58 -56v-168c0 -44 11 -78 80 -78h17l-16 -92c-127 0 -181 55 -181 165z" />
    <glyph glyph-name="dvvLL" unicode="&#x961;" horiz-adv-x="633" 
d="M41 165v176c0 91 52 145 155 145c60 0 94 -24 109 -50c21 29 50 50 105 50c29 0 52 -7 64 -20v109h-506v85h696v-85h-90v-414h-83c-38 0 -56 -10 -56 -47v-2c0 -41 20 -46 53 -46h63v-86h-49c-13 0 -33 0 -33 -17c-25 0 -33 -11 -33 -32c0 -41 20 -46 52 -46h93v-91h-93
c-103 0 -152 45 -152 137c0 40 10 70 31 91c-21 21 -32 50 -32 90c0 89 45 131 139 135v91c0 32 -10 56 -58 56s-59 -24 -59 -55v-77h-100v77c0 31 -11 55 -58 55c-49 0 -58 -24 -58 -56v-168c0 -44 11 -78 80 -78h17l-16 -92c-127 0 -181 55 -181 165z" />
    <glyph glyph-name="dvE" unicode="&#x90f;" horiz-adv-x="429" 
d="M381 575v-171c0 -89 -38 -141 -144 -139c-7 0 -16 1 -19 1v91c51 -1 62 15 62 53v165h-125v-433c0 -33 15 -55 66 -55c50 0 65 22 65 55v40h100v-43c0 -92 -54 -144 -165 -144s-166 52 -166 144v436h-87v85h492v-85h-79z" />
    <glyph glyph-name="dvAI" unicode="&#x910;" horiz-adv-x="429" 
d="M-32 575v85h307l-165 229h112l155 -229h83v-85h-79v-171c0 -89 -38 -141 -144 -139c-7 0 -16 1 -19 1v91c51 -1 62 15 62 53v165h-125v-433c0 -33 15 -55 66 -55c50 0 65 22 65 55v40h100v-43c0 -92 -54 -144 -165 -144s-166 52 -166 144v436h-87z" />
    <glyph glyph-name="dvO" unicode="&#x913;" horiz-adv-x="832" 
d="M197 573c-50 0 -62 -25 -62 -58v-25h-98v27c0 91 49 148 160 148s160 -57 160 -148v-51c0 -46 -11 -86 -47 -105c24 -12 37 -34 43 -62h104v361h208l-164 229h111l155 -229h97v-85h-90v-575h-100v575h-117v-575h-100v213h-100v-37c0 -85 -49 -141 -160 -141
s-160 56 -160 141v53h98v-48c0 -30 12 -55 62 -55c53 0 62 25 62 55v75c0 33 -7 58 -60 59h-45v92h45c53 1 60 26 60 59v49c0 33 -12 58 -62 58z" />
    <glyph glyph-name="dvAU" unicode="&#x914;" horiz-adv-x="832" 
d="M197 573c-50 0 -62 -25 -62 -58v-25h-98v27c0 91 49 148 160 148s160 -57 160 -148v-51c0 -46 -11 -86 -47 -105c24 -12 37 -34 43 -62h104v361h104l-173 229h111l162 -229h21l-79 229h97l70 -229h94v-85h-90v-575h-100v575h-117v-575h-100v213h-100v-37
c0 -85 -49 -141 -160 -141s-160 56 -160 141v53h98v-48c0 -30 12 -55 62 -55c53 0 62 25 62 55v75c0 33 -7 58 -60 59h-45v92h45c53 1 60 26 60 59v49c0 33 -12 58 -62 58z" />
    <glyph glyph-name="dvEcandra" unicode="&#x90d;" horiz-adv-x="429" 
d="M307 872h98v-3c0 -101 -64 -143 -183 -143c-120 0 -184 42 -184 143v3h99c0 -44 24 -59 85 -59c59 0 85 15 85 59zM-32 575v85h492v-85h-79v-171c0 -89 -38 -141 -144 -139c-5 0 -15 1 -19 1v91c51 -1 62 15 62 53v165h-125v-433c0 -33 15 -55 66 -55c50 0 65 22 65 55
v40h100v-43c0 -92 -54 -144 -165 -144s-166 52 -166 144v436h-87z" />
    <glyph glyph-name="dvOcandra" unicode="&#x911;" horiz-adv-x="832" 
d="M706 869h98v-3c0 -102 -63 -143 -183 -143c-119 0 -183 42 -183 143v3h98c0 -44 24 -59 85 -59c59 0 85 15 85 59zM197 573c-50 0 -62 -25 -62 -58v-25h-98v27c0 91 49 148 160 148s160 -57 160 -148v-51c0 -46 -11 -86 -47 -105c24 -12 37 -34 43 -62h104v361h407v-85
h-90v-575h-100v575h-117v-575h-100v213h-100v-37c0 -85 -49 -141 -160 -141s-160 56 -160 141v53h98v-48c0 -30 12 -55 62 -55c53 0 62 25 62 55v75c0 33 -7 58 -60 59h-45v92h45c53 1 60 26 60 59v49c0 33 -12 58 -62 58z" />
    <glyph glyph-name="dvEshort" unicode="&#x90e;" horiz-adv-x="429" 
d="M-32 575v85h314c0 45 -15 74 -84 74c-124 0 -178 42 -178 155h99c0 -45 15 -73 84 -73c124 0 177 -49 177 -156h80v-85h-79v-171c0 -89 -38 -141 -144 -139c-5 0 -15 1 -19 1v91c51 -1 62 15 62 53v165h-125v-433c0 -33 15 -55 66 -55c50 0 65 22 65 55v40h100v-43
c0 -92 -54 -144 -165 -144s-166 52 -166 144v436h-87z" />
    <glyph glyph-name="dvOshort" unicode="&#x912;" horiz-adv-x="832" 
d="M197 573c-50 0 -62 -25 -62 -58v-25h-98v27c0 91 49 148 160 148s160 -57 160 -148v-51c0 -46 -11 -86 -47 -105c24 -12 37 -34 43 -62h104v361h217c0 45 -14 74 -83 74c-123 0 -177 42 -177 155h98c0 -45 15 -73 84 -73c124 0 177 -49 177 -156h91v-85h-90v-575h-100
v575h-117v-575h-100v213h-100v-37c0 -85 -49 -141 -160 -141s-160 56 -160 141v53h98v-48c0 -30 12 -55 62 -55c53 0 62 25 62 55v75c0 33 -7 58 -60 59h-45v92h45c53 1 60 26 60 59v49c0 33 -12 58 -62 58z" />
    <glyph glyph-name="dvmAA" unicode="&#x93e;" 
d="M58 575h-90v85h280v-85h-90v-575h-100v575z" />
    <glyph glyph-name="dvmI" unicode="&#x93f;" 
d="M60 660v28c0 146 94 202 236 202h107c139 0 218 -58 219 -163v-8h-101c0 58 -44 79 -124 79h-90c-109 0 -147 -34 -147 -111v-27h88v-85h-90v-575h-100v575h-90v85h92z" />
    <glyph glyph-name="dvmII" unicode="&#x940;" 
d="M58 660v89c0 34 -14 52 -56 52c-43 0 -57 -18 -57 -52v-30h-99v32c0 97 58 141 156 141c99 0 156 -44 156 -141v-91h90v-85h-90v-575h-100v575h-90v85h90z" />
    <glyph glyph-name="dvmU" unicode="&#x941;" horiz-adv-x="0" 
d="M-433 -53h118l52 -59c36 -40 52 -47 86 -47h68c37 0 46 15 46 46s-9 46 -44 46h-103v80h111c88 0 125 -35 125 -125c1 -88 -36 -126 -126 -126h-87c-53 0 -96 12 -147 72z" />
    <glyph glyph-name="dvmUU" unicode="&#x942;" horiz-adv-x="0" 
d="M-44 -164v-80h-92c-87 0 -126 36 -126 125c0 88 38 126 128 126h44c68 0 107 -18 155 -78l127 -158h-113l-80 101c-36 43 -50 56 -98 56h-27c-36 0 -45 -15 -45 -46s9 -46 43 -46h84z" />
    <glyph glyph-name="dvmvR" unicode="&#x943;" horiz-adv-x="0" 
d="M-158 -74c-33 0 -54 -6 -54 -56c0 -51 21 -59 54 -59h101v-91h-99c-103 0 -154 47 -154 150c0 102 51 147 154 147h97v-91h-99z" />
    <glyph glyph-name="dvmE" unicode="&#x947;" horiz-adv-x="0" 
d="M-160 660l-165 229h112l155 -229h-102z" />
    <glyph glyph-name="dvmAI" unicode="&#x948;" horiz-adv-x="0" 
d="M-166 660h-101l-173 229h111zM-58 660h-88l-78 229h97z" />
    <glyph glyph-name="dvmEcandra" unicode="&#x945;" horiz-adv-x="0" 
d="M-23 869h98v-3c0 -101 -63 -142 -183 -142s-184 41 -184 142v3h99c0 -44 24 -59 85 -59c60 0 85 15 85 59z" />
    <glyph glyph-name="dvmCANDRA" unicode="&#x949;" 
d="M90 869h98v-3c0 -102 -63 -143 -183 -143c-119 0 -183 42 -183 143v3h98c0 -44 24 -59 85 -59c59 0 85 15 85 59zM58 575h-90v85h280v-85h-90v-575h-100v575z" />
    <glyph glyph-name="dvmO" unicode="&#x94b;" 
d="M58 575h-90v85h81l-164 229h111l155 -229h97v-85h-90v-575h-100v575z" />
    <glyph glyph-name="dvmAU" unicode="&#x94c;" 
d="M58 575h-158v85h45l-173 229h111l162 -229h21l-79 229h97l70 -229h94v-85h-90v-575h-100v575z" />
    <glyph glyph-name="dvmEshort" unicode="&#x946;" horiz-adv-x="0" 
d="M-58 660h-98c0 45 -15 74 -84 74c-124 0 -178 42 -178 155h99c0 -45 15 -73 84 -73c124 0 177 -49 177 -156z" />
    <glyph glyph-name="dvmOshort" unicode="&#x94a;" 
d="M58 575h-90v85h90c0 45 -14 74 -83 74c-123 0 -177 42 -177 155h98c0 -45 15 -73 84 -73c124 0 177 -49 177 -156h91v-85h-90v-575h-100v575z" />
    <glyph glyph-name="dvKA" unicode="&#x915;" horiz-adv-x="604" 
d="M406 69v92c51 -1 63 15 63 53v147c0 33 -9 56 -59 56s-59 -22 -59 -56v-361h-98v80c-15 -12 -41 -20 -71 -20c-101 0 -145 46 -145 137v167c0 92 44 141 145 141c30 0 56 -8 71 -20v90h-285v85h667v-85h-284v-89c16 12 42 19 70 19c102 0 144 -52 144 -141v-158
c0 -89 -40 -140 -140 -139c-6 0 -16 1 -19 2zM193 145c48 0 60 21 60 53v163c0 34 -10 56 -60 56c-49 0 -60 -22 -60 -56v-161c0 -33 11 -55 60 -55z" />
    <glyph glyph-name="dvKHA" unicode="&#x916;" horiz-adv-x="760" 
d="M-32 575v85h823v-85h-90v-575h-98v131c-15 -13 -40 -17 -66 -17s-47 2 -65 7c-19 -78 -82 -121 -198 -121h-17c-151 0 -217 62 -217 183v263h96v-69c0 -32 9 -53 57 -53c49 0 58 21 58 53v142c0 32 -12 55 -61 56h-222zM603 481v94h-276c11 -14 17 -32 17 -56v-145
c0 -91 -35 -139 -138 -139c-26 0 -56 7 -70 19v-68c0 -62 30 -96 120 -96h10c92 0 124 34 124 96v170c0 92 34 143 143 143c27 0 54 -5 70 -18zM542 412c-49 0 -60 -22 -60 -55v-103c0 -33 11 -55 60 -55c50 0 61 22 61 55v103c0 33 -11 55 -61 55z" />
    <glyph glyph-name="dvGA" unicode="&#x917;" horiz-adv-x="486" 
d="M-32 575v85h549v-85h-89v-575h-100v575h-116v-248c0 -96 -50 -146 -145 -146c-19 0 -36 4 -47 5v96c6 -2 20 -4 34 -4c44 0 58 20 58 56v241h-144z" />
    <glyph glyph-name="dvGHA" unicode="&#x918;" horiz-adv-x="498" 
d="M529 660v-85h-89v-575h-100v92c-20 -18 -56 -32 -112 -32c-117 0 -178 56 -178 152v52c0 50 15 84 52 99c-35 18 -46 51 -46 96v62c0 26 6 43 19 54h-107v85h561zM340 575h-129c-40 0 -55 -17 -55 -54v-59c0 -32 10 -54 61 -54h39v-93h-43c-51 0 -63 -21 -63 -54v-38
c0 -55 33 -73 93 -73s97 18 97 73v352z" />
    <glyph glyph-name="dvNGA" unicode="&#x919;" horiz-adv-x="498" 
d="M255 575h-287v85h561v-85h-174v-158h-155c-44 0 -56 -19 -56 -48v-15c0 -30 11 -49 56 -49h22c111 0 162 -44 162 -135v-38c0 -91 -55 -137 -169 -137s-171 46 -171 137v28h100v-25c0 -32 17 -53 70 -53c54 0 70 21 70 53v32c0 31 -11 53 -62 53h-22
c-102 0 -157 39 -157 130v24c0 91 52 130 157 130h55v71zM380 337c0 33 14 58 58 58s57 -25 57 -58c0 -32 -13 -57 -57 -57s-58 25 -58 57z" />
    <glyph glyph-name="dvCA" unicode="&#x91a;" horiz-adv-x="475" 
d="M175 342v-134c0 -39 14 -61 68 -61c55 0 72 21 74 56v372h-349v85h538v-85h-89v-575h-100v81c-22 -16 -54 -23 -87 -23c-108 0 -155 50 -155 148v132c0 26 6 45 20 58h-82v90h258v-86h-39c-47 0 -57 -26 -57 -58z" />
    <glyph glyph-name="dvCHA" unicode="&#x91b;" horiz-adv-x="529" 
d="M481 359v-187c0 -115 -55 -162 -215 -162c-157 0 -218 45 -218 153v29c0 43 15 77 52 93c-35 17 -47 49 -47 95v131c0 31 8 51 23 64h-108v85h592v-85h-143v-92c47 -17 64 -60 64 -124zM383 176v169c0 46 -16 68 -68 68c-35 0 -54 -10 -54 -10v85s26 10 63 10v77h-109
c-49 0 -62 -22 -62 -66v-125c0 -33 10 -54 61 -54h64v-89h-61c-51 0 -69 -15 -69 -56v-17c0 -53 19 -68 118 -68c98 0 117 21 117 76z" />
    <glyph glyph-name="dvJA" unicode="&#x91c;" horiz-adv-x="605" 
d="M125 277v-83c0 -32 8 -55 58 -55c49 0 59 23 59 55v142c0 33 -13 58 -63 58h-59v92h327v89h-479v85h668v-85h-89v-575h-100v400h-124c13 -17 19 -37 19 -65v-144c0 -91 -50 -143 -159 -143s-158 53 -158 145v84h100z" />
    <glyph glyph-name="dvJHA" unicode="&#x91d;" horiz-adv-x="623" 
d="M210 235h-8c-103 0 -157 39 -157 130v9c0 91 51 130 157 130h63v71h-297v85h686v-85h-89v-575h-100v240h-114c14 -13 21 -35 21 -61v-36c0 -98 -49 -135 -149 -135c-33 0 -61 7 -80 20v-88h-98v233h98v-24c0 -33 13 -54 65 -54s66 21 66 54v31c0 33 -14 55 -64 55z
M201 320h264v255h-100v-158h-163c-44 0 -57 -16 -57 -46v-4c0 -30 12 -47 56 -47z" />
    <glyph glyph-name="dvNYA" unicode="&#x91e;" horiz-adv-x="615" 
d="M457 575h-489v85h678v-85h-89v-575h-100v235h-103v-37c0 -90 -53 -145 -158 -145c-111 0 -158 55 -158 146v35h101v-32c0 -32 6 -56 57 -56s58 24 58 56v155c0 32 -7 56 -58 56s-57 -24 -57 -56v-31h-101v34c0 91 47 146 158 146s158 -55 158 -146v-38h103v253z" />
    <glyph glyph-name="dvTTA" unicode="&#x91f;" horiz-adv-x="404" 
d="M345 405h-138c-51 0 -61 -21 -61 -53v-211c0 -32 11 -56 62 -56s63 24 63 56v88h100v-88c0 -91 -52 -146 -163 -146s-162 55 -162 146v214c0 97 50 141 161 141h38v79h-277v85h467v-85h-90v-170z" />
    <glyph glyph-name="dvTTHA" unicode="&#x920;" horiz-adv-x="416" 
d="M371 367v-226c0 -91 -52 -146 -163 -146s-162 55 -162 146v226c0 76 35 124 112 137v71h-190v85h479v-85h-189v-71c76 -13 113 -61 113 -137zM274 140v225c0 32 -14 58 -66 58s-65 -26 -65 -58v-225c0 -33 13 -58 65 -58s66 25 66 58z" />
    <glyph glyph-name="dvDDA" unicode="&#x921;" horiz-adv-x="420" 
d="M254 575h-286v85h483v-85h-97v-158h-154c-45 0 -57 -19 -57 -48v-15c0 -30 12 -49 57 -49h21c112 0 163 -44 163 -135v-38c0 -91 -56 -137 -170 -137s-170 46 -170 137v28h100v-25c0 -32 16 -53 70 -53c53 0 70 21 70 53v32c0 31 -12 53 -63 53h-21
c-103 0 -157 39 -157 130v24c0 91 51 130 157 130h54v71z" />
    <glyph glyph-name="dvDDHA" unicode="&#x922;" horiz-adv-x="420" 
d="M205 501h51v74h-288v85h483v-85h-97v-165h-149c-50 0 -61 -21 -61 -53v-206c0 -38 13 -64 71 -64s71 25 71 63v24c0 39 -19 51 -48 51c-23 0 -36 -8 -36 -8v89s19 8 48 8c83 0 132 -39 132 -137v-32c0 -98 -50 -150 -167 -150c-118 0 -170 55 -170 153v212
c0 97 49 141 160 141z" />
    <glyph glyph-name="dvNNA" unicode="&#x923;" horiz-adv-x="630" 
d="M364 575v-318c0 -91 -49 -146 -160 -146s-160 55 -160 146v318h-76v85h693v-85h-89v-575h-100v575h-108zM264 575h-120v-317c0 -32 10 -56 60 -56c51 0 60 24 60 56v317z" />
    <glyph glyph-name="dvTA" unicode="&#x924;" horiz-adv-x="448" 
d="M44 138v210c0 91 50 152 161 152c37 0 68 -8 85 -21v96h-322v85h511v-85h-89v-575h-100v345c0 36 -17 62 -73 62s-73 -26 -73 -62v-199c0 -38 18 -54 69 -53v-93c-7 -1 -18 -2 -25 -2c-107 -1 -144 50 -144 140z" />
    <glyph glyph-name="dvTHA" unicode="&#x925;" horiz-adv-x="572" 
d="M278 172c109 0 136 48 136 134v354h189v-85h-89v-575h-100v122c-32 -28 -80 -42 -151 -42c-154 0 -222 78 -222 207v111h110c69 0 97 17 97 78v43c0 35 -5 56 -47 56c-41 0 -48 -21 -48 -56v-42h-96v39c0 94 39 149 142 149c102 0 140 -52 140 -146v-57
c0 -103 -55 -152 -176 -152h-20v-20c0 -79 28 -118 135 -118z" />
    <glyph glyph-name="dvDA" unicode="&#x926;" horiz-adv-x="416" 
d="M37 207v150c0 102 53 142 164 142h54v76h-287v85h480v-85h-93v-168h-154c-52 0 -64 -20 -64 -52v-145c0 -33 14 -53 66 -53s66 20 66 53v64h99v-278h-99v92c-20 -14 -48 -20 -78 -20c-105 0 -154 48 -154 139z" />
    <glyph glyph-name="dvDHA" unicode="&#x927;" horiz-adv-x="498" 
d="M256 318h-43c-51 0 -63 -22 -63 -55v-40c0 -55 33 -73 93 -73s97 18 97 73v437h190v-85h-90v-575h-100v92c-20 -18 -56 -32 -111 -32c-118 0 -179 56 -179 152v54c0 50 15 84 52 99c-35 18 -46 51 -46 96v60c0 26 6 43 19 54h-107v85h279v-85h-36c-40 0 -55 -17 -55 -54
v-57c0 -32 10 -54 61 -54h39v-92z" />
    <glyph glyph-name="dvNA" unicode="&#x928;" horiz-adv-x="589" 
d="M337 344v-146c0 -91 -44 -141 -149 -141s-150 50 -150 141v146c0 91 45 141 150 141h243v90h-463v85h653v-85h-90v-575h-100v393h-106c9 -12 12 -29 12 -49zM242 199v142c0 32 -11 52 -54 52s-54 -20 -54 -52v-142c0 -32 11 -52 54 -52s54 20 54 52z" />
    <glyph glyph-name="dvPA" unicode="&#x92a;" horiz-adv-x="435" 
d="M276 0v142c-17 -13 -50 -21 -80 -21c-109 0 -151 51 -151 143v311h-77v85h498v-85h-89v-575h-101zM276 575h-130v-308c0 -32 13 -56 65 -56c53 0 65 24 65 56v308z" />
    <glyph glyph-name="dvPHA" unicode="&#x92b;" horiz-adv-x="621" 
d="M422 63v92c49 0 61 18 61 54v145c0 32 -10 54 -58 54c-49 0 -59 -22 -59 -54v-354h-99v129c-17 -12 -44 -19 -72 -19c-103 0 -149 48 -149 139v326h-78v85h685v-85h-287v-94c18 12 42 20 70 20c103 0 147 -55 147 -144v-156c0 -89 -44 -140 -144 -139c-6 0 -13 0 -17 1z
M267 575h-121v-323c0 -32 12 -53 61 -53c46 0 60 19 60 53v323z" />
    <glyph glyph-name="dvBA" unicode="&#x92c;" horiz-adv-x="444" 
d="M291 0v83c-20 -14 -48 -21 -85 -21c-112 0 -168 40 -168 146v151c0 106 56 147 168 147c37 0 65 -7 85 -21v90h-323v85h507v-85h-89v-575h-95zM213 421c-46 0 -67 -14 -75 -37l153 -125v97c0 41 -18 65 -78 65zM134 212c0 -40 16 -66 79 -66c48 0 69 15 75 42l-154 128
v-104z" />
    <glyph glyph-name="dvBHA" unicode="&#x92d;" horiz-adv-x="616" 
d="M253 414v104c0 32 -8 54 -54 54c-47 0 -54 -22 -54 -54v-42h-101v45c0 91 47 144 155 144c107 0 154 -53 154 -144v-107h105v246h189v-85h-89v-575h-100v329h-109v-135c0 -86 -44 -136 -153 -136c-110 0 -154 50 -154 136v85c0 86 44 135 154 135h57zM253 196v133h-57
c-49 0 -57 -20 -57 -52v-81c0 -31 8 -52 57 -52c48 0 57 20 57 52z" />
    <glyph glyph-name="dvMA" unicode="&#x92e;" horiz-adv-x="595" 
d="M439 0v352h-102v-158c0 -85 -45 -136 -154 -136s-154 51 -154 136v109c0 86 45 135 154 135h57v137h-272v85h659v-85h-90v-575h-98zM337 438h102v137h-102v-137zM240 197v155h-57c-49 0 -57 -19 -57 -52v-103c0 -32 8 -52 57 -52c48 0 57 20 57 52z" />
    <glyph glyph-name="dvYA" unicode="&#x92f;" horiz-adv-x="512" 
d="M-32 575v85h575v-85h-89v-575h-100v119c-24 -21 -59 -33 -115 -33c-121 0 -196 53 -196 177v127h22c75 0 99 13 99 68v54c0 36 -9 63 -59 63h-137zM246 179c85 0 108 33 108 95v301h-111c12 -12 19 -32 19 -63v-71c0 -80 -42 -118 -121 -120v-47c0 -62 22 -95 105 -95z
" />
    <glyph glyph-name="dvRA" unicode="&#x930;" horiz-adv-x="426" 
d="M151 293v-149c0 -34 11 -58 63 -58s64 24 64 58v45h100v-48c0 -91 -52 -146 -163 -146s-164 55 -164 146v329h100v-53c0 -32 11 -56 62 -56s63 24 63 56v102c0 32 -12 56 -63 56h-245v85h489v-85h-102c13 -11 21 -32 21 -56v-105c0 -91 -46 -142 -151 -142
c-24 0 -58 7 -74 21z" />
    <glyph glyph-name="dvLA" unicode="&#x932;" horiz-adv-x="635" 
d="M43 165v176c0 91 50 145 156 145c63 0 94 -24 109 -50c16 26 46 50 102 50c29 0 55 -7 67 -20v109h-509v85h699v-85h-90v-575h-100v338c0 34 -12 56 -58 56c-48 0 -59 -23 -59 -56v-129h-100v129c0 32 -10 56 -58 56c-49 0 -58 -24 -58 -56v-172c0 -44 11 -78 86 -78h59
l1 -88h-65c-133 0 -182 55 -182 165z" />
    <glyph glyph-name="dvVA" unicode="&#x935;" horiz-adv-x="436" 
d="M378 575v-575h-100v83c-17 -13 -48 -22 -82 -22c-111 0 -155 50 -155 142v160c0 91 46 142 155 142c34 0 65 -8 82 -20v90h-310v85h499v-85h-89zM282 204v159c0 36 -21 56 -73 56c-51 0 -70 -20 -70 -56v-159c0 -36 19 -57 70 -57c52 0 73 21 73 57z" />
    <glyph glyph-name="dvSHA" unicode="&#x936;" horiz-adv-x="618" 
d="M378 519v-121c0 -91 -43 -144 -149 -144c-26 0 -62 7 -76 19v-130c0 -33 13 -56 63 -56c51 0 64 23 64 56v36h100v-38c0 -91 -52 -146 -164 -146c-111 0 -163 55 -163 146v269h100v-15c0 -30 13 -51 62 -51c51 0 63 23 63 55v117c0 32 -12 56 -63 56
c-50 0 -62 -24 -62 -56v-38h-100v41c0 91 51 146 162 146s163 -55 163 -146zM460 660h190v-85h-90v-575h-100v660z" />
    <glyph glyph-name="dvSSA" unicode="&#x937;" horiz-adv-x="452" 
d="M44 575h-76v85h515v-85h-89v-575h-99v137c-14 -14 -61 -22 -87 -22c-113 0 -164 57 -164 149v311zM295 575h-151v-73l151 -137v210zM144 267c0 -38 17 -63 76 -63c58 0 75 25 75 63v20l-151 136v-156z" />
    <glyph glyph-name="dvSA" unicode="&#x938;" horiz-adv-x="620" 
d="M-32 575v85h684v-85h-90v-575h-100v281h-150c-22 -17 -54 -26 -90 -26c-29 0 -57 5 -75 20v-133c0 -32 9 -56 60 -56s60 24 60 56v30h99v-31c0 -91 -48 -146 -159 -146s-159 55 -159 146v318h99v-60c0 -32 8 -55 56 -55c49 0 57 23 57 55v120c0 31 -12 56 -60 56h-232z
M358 511v-113c0 -10 -1 -23 -4 -31h108v208h-126c16 -14 22 -36 22 -64z" />
    <glyph glyph-name="dvHA" unicode="&#x939;" horiz-adv-x="433" 
d="M43 140v41c0 47 17 78 49 96c-31 16 -47 44 -48 89v16c0 87 50 124 156 124h68v69h-300v85h496v-85h-96v-156h-168c-43 0 -56 -15 -56 -44v-10c0 -29 14 -44 57 -44h60c95 0 132 -43 132 -127v-31h-90v24c0 34 -8 50 -53 50h-42c-50 0 -64 -21 -64 -53v-39
c0 -39 21 -63 87 -63c60 0 99 3 147 12v-86c-44 -9 -96 -14 -152 -14c-127 0 -183 54 -183 146z" />
    <glyph glyph-name="dvLLA" unicode="&#x933;" horiz-adv-x="608" 
d="M564 346v-206c0 -91 -41 -145 -147 -145c-53 0 -89 17 -111 49c-22 -32 -59 -49 -112 -49c-106 0 -151 54 -151 145v208c1 92 45 143 152 143c52 0 89 -17 111 -49c13 20 32 34 61 40v93h-399v85h671v-85h-172v-90c68 -15 97 -65 97 -139zM138 345v-203
c0 -34 9 -59 59 -59s61 25 61 59v203c0 33 -11 59 -60 59c-50 0 -60 -26 -60 -59zM353 345v-203c0 -34 11 -59 61 -59s59 25 59 59v203c0 33 -10 59 -59 59c-50 0 -61 -26 -61 -59z" />
    <glyph glyph-name="dvK_SSA" horiz-adv-x="626" 
d="M371 523v-48c0 -33 -4 -50 -13 -62h110v247h189v-85h-89v-575h-100v329h-255c-52 0 -59 -26 -59 -64v-71c0 -32 10 -54 57 -54c44 0 56 20 57 50v51h95v-241h-95v69c-19 -12 -42 -17 -72 -17c-102 0 -144 52 -144 143v82c0 47 14 83 56 101c-26 15 -37 46 -37 97v48
c0 92 47 142 151 142c105 0 149 -50 149 -142zM276 464v59c0 32 -7 54 -54 54c-46 0 -53 -22 -53 -54v-59c0 -31 7 -54 53 -54c47 0 54 22 54 54z" />
    <glyph glyph-name="dvJ_NYA" horiz-adv-x="622" 
d="M45 283h97v-53c0 -32 7 -55 59 -55c50 0 58 23 58 55v106c0 33 -13 58 -63 58h-61v92h329v89h-496v85h685v-85h-89v-575h-100v400h-123c12 -18 18 -40 18 -65v-109c0 -96 -53 -143 -142 -143c-35 0 -55 5 -75 16v-99h-97v283z" />
    <glyph glyph-name="dvKxA" unicode="&#x958;" horiz-adv-x="611" 
d="M414 69v92c51 -1 63 15 63 53v147c0 33 -9 56 -59 56s-59 -22 -59 -56v-361h-98v80c-15 -12 -41 -20 -71 -20c-101 0 -145 46 -145 137v167c0 92 44 141 145 141c30 0 56 -8 71 -20v90h-293v85h675v-85h-284v-89c16 12 42 19 70 19c102 0 144 -52 144 -141v-158
c0 -89 -40 -140 -140 -139c-6 0 -16 1 -19 2zM201 145c48 0 59 21 60 53v163c0 34 -10 56 -60 56c-49 0 -60 -22 -60 -56v-161c0 -33 11 -55 60 -55zM72 -33c0 32 13 57 57 57s58 -25 58 -57s-14 -58 -58 -58s-57 26 -57 58z" />
    <glyph glyph-name="dvKHxA" unicode="&#x959;" horiz-adv-x="766" 
d="M-32 575v85h829v-85h-89v-575h-98v131c-15 -13 -40 -17 -66 -17s-47 2 -65 7c-19 -78 -82 -121 -198 -121h-17c-151 0 -217 62 -217 183v263h96v-69c0 -32 9 -53 57 -53c49 0 58 21 58 53v142c0 32 -12 55 -61 56h-229zM610 481v94h-276c11 -14 17 -32 17 -56v-145
c0 -91 -34 -139 -138 -139c-26 0 -55 7 -70 19v-68c0 -62 30 -96 120 -96h10c92 0 124 34 124 96v170c0 92 34 143 143 143c27 0 54 -5 70 -18zM549 412c-49 0 -60 -22 -60 -55v-103c0 -33 11 -55 60 -55c50 0 61 22 61 55v103c0 33 -11 55 -61 55zM-14 -68
c0 33 13 58 56 58c44 0 58 -25 58 -58c0 -32 -14 -57 -58 -57c-43 0 -56 25 -56 57z" />
    <glyph glyph-name="dvGxA" unicode="&#x95a;" horiz-adv-x="492" 
d="M-32 575v85h556v-85h-90v-575h-100v575h-116v-248c0 -96 -51 -146 -145 -146c-20 0 -36 4 -47 5v96c6 -2 20 -4 34 -4c44 0 58 20 58 56v241h-150zM58 49c0 32 13 57 57 57s57 -25 57 -57c0 -33 -13 -58 -57 -58s-57 25 -57 58z" />
    <glyph glyph-name="dvJxA" unicode="&#x95b;" horiz-adv-x="605" 
d="M125 277v-83c0 -32 8 -55 58 -55c49 0 59 23 59 55v142c0 33 -13 58 -63 58h-59v92h327v89h-479v85h668v-85h-89v-575h-100v400h-124c13 -17 19 -37 19 -65v-144c0 -91 -50 -143 -159 -143s-158 53 -158 145v84h100zM-47 -29c0 32 14 57 58 57s57 -25 57 -57
c0 -33 -14 -58 -57 -58c-45 0 -58 25 -58 58z" />
    <glyph glyph-name="dvDDxA" unicode="&#x95c;" horiz-adv-x="420" 
d="M254 575h-286v85h483v-85h-97v-158h-154c-45 0 -57 -19 -57 -48v-15c0 -30 12 -49 57 -49h21c112 0 163 -44 163 -135v-38c0 -91 -56 -137 -170 -137s-170 46 -170 137v28h100v-25c0 -32 16 -53 70 -53c53 0 70 21 70 53v32c0 31 -12 53 -63 53h-21
c-103 0 -157 39 -157 130v24c0 91 51 130 157 130h54v71zM158 -127c0 32 13 57 58 57c43 0 57 -25 57 -57c0 -33 -14 -58 -57 -58c-45 0 -58 25 -58 58z" />
    <glyph glyph-name="dvDDHxA" unicode="&#x95d;" horiz-adv-x="420" 
d="M205 501h51v74h-288v85h483v-85h-97v-165h-149c-50 0 -61 -21 -61 -53v-206c0 -38 13 -64 71 -64s71 25 71 63v24c0 39 -19 51 -48 51c-23 0 -36 -8 -36 -8v89s19 8 48 8c83 0 132 -39 132 -137v-32c0 -98 -50 -150 -167 -150c-118 0 -170 55 -170 153v212
c0 97 49 141 160 141zM159 -127c0 32 13 57 57 57s57 -25 57 -57c0 -33 -13 -58 -57 -58s-57 25 -57 58z" />
    <glyph glyph-name="dvNxA" unicode="&#x929;" horiz-adv-x="595" 
d="M343 344v-146c0 -91 -44 -141 -149 -141s-149 50 -149 141v146c0 91 44 141 149 141h243v90h-469v85h659v-85h-90v-575h-100v393h-105c8 -12 11 -29 11 -49zM248 199v142c0 32 -10 52 -54 52c-43 0 -53 -20 -53 -52v-142c0 -32 10 -52 53 -52c44 0 54 20 54 52zM-20 -32
c0 33 13 58 57 58s57 -25 57 -58c0 -32 -13 -57 -57 -57s-57 25 -57 57z" />
    <glyph glyph-name="dvPHxA" unicode="&#x95e;" horiz-adv-x="632" 
d="M432 63v92c49 0 61 18 61 54v145c0 32 -10 54 -58 54c-49 0 -58 -22 -58 -54v-354h-100v129c-17 -12 -43 -19 -72 -19c-103 0 -149 48 -149 139v326h-88v85h696v-85h-287v-94c17 12 41 20 69 20c104 0 147 -55 147 -144v-156c0 -89 -43 -140 -143 -139c-6 0 -14 0 -18 1z
M277 575h-121v-323c0 -32 12 -53 61 -53c47 0 60 19 60 53v323zM34 -6c0 32 13 57 57 57s57 -25 57 -57c0 -33 -13 -58 -57 -58s-57 25 -57 58z" />
    <glyph glyph-name="dvYxA" unicode="&#x95f;" horiz-adv-x="517" 
d="M-32 575v85h580v-85h-89v-575h-101v119c-23 -21 -59 -33 -114 -33c-121 0 -197 53 -197 177v127h23c75 0 99 13 99 68v54c0 36 -9 63 -59 63h-142zM251 179c84 0 107 33 107 95v301h-110c12 -12 19 -32 19 -63v-71c0 -80 -43 -118 -121 -120v-47c0 -62 22 -95 105 -95z
M17 2c0 32 12 57 56 57s57 -25 57 -57s-13 -57 -57 -57c-43 0 -56 25 -56 57z" />
    <glyph glyph-name="dvRxA" unicode="&#x931;" horiz-adv-x="431" 
d="M156 293v-149c0 -34 12 -58 64 -58c51 0 63 24 63 58v45h100v-48c0 -91 -52 -146 -163 -146s-164 55 -164 146v329h100v-53c0 -32 12 -56 62 -56c51 0 63 24 63 56v102c0 32 -12 56 -63 56h-250v85h494v-85h-102c14 -11 21 -32 21 -56v-105c0 -91 -46 -142 -151 -142
c-23 0 -58 7 -74 21zM-35 -77c0 32 13 57 56 57c44 0 58 -25 58 -57s-14 -57 -58 -57c-43 0 -56 25 -56 57z" />
    <glyph glyph-name="dvLLxA" unicode="&#x934;" horiz-adv-x="608" 
d="M564 346v-206c0 -91 -41 -145 -147 -145c-53 0 -89 17 -111 49c-22 -32 -59 -49 -112 -49c-106 0 -151 54 -151 145v208c1 92 45 143 152 143c52 0 89 -17 111 -49c13 20 32 34 61 40v93h-399v85h671v-85h-172v-90c68 -15 97 -65 97 -139zM138 345v-203
c0 -34 9 -59 59 -59s61 25 61 59v203c0 33 -11 59 -60 59c-50 0 -60 -26 -60 -59zM353 345v-203c0 -34 11 -59 61 -59s59 25 59 59v203c0 33 -10 59 -59 59c-50 0 -61 -26 -61 -59zM249 -114c0 32 13 57 57 57s57 -25 57 -57c0 -33 -13 -58 -57 -58s-57 25 -57 58z" />
    <glyph glyph-name="dvAnusvara" unicode="&#x902;" horiz-adv-x="0" 
d="M-166 784c0 33 13 58 58 58c43 0 57 -25 57 -58c0 -32 -14 -57 -57 -57c-45 0 -58 25 -58 57z" />
    <glyph glyph-name="dvCandrabindu" unicode="&#x901;" horiz-adv-x="0" 
d="M-162 924c0 31 12 54 54 54c43 0 55 -23 55 -54s-12 -55 -55 -55c-42 0 -54 24 -54 55zM-23 869h98v-3c0 -101 -63 -142 -183 -142s-184 41 -184 142v3h99c0 -44 24 -59 85 -59c60 0 85 15 85 59z" />
    <glyph glyph-name="dvVisarga" unicode="&#x903;" horiz-adv-x="223" 
d="M46 400c0 33 13 58 57 58s58 -25 58 -58c0 -32 -14 -57 -58 -57s-57 25 -57 57zM46 57c0 33 13 58 57 58s58 -25 58 -58c0 -32 -13 -57 -57 -57s-58 25 -58 57z" />
    <glyph glyph-name="dvVirama" unicode="&#x94d;" horiz-adv-x="0" 
d="M57 -218h-106l-102 160h91z" />
    <glyph glyph-name="dvNukta" unicode="&#x93c;" horiz-adv-x="0" 
d="M-261 -106c0 32 13 57 57 57s57 -25 57 -57c0 -33 -13 -58 -57 -58s-57 25 -57 58z" />
    <glyph glyph-name="dvAvagraha" unicode="&#x93d;" horiz-adv-x="421" 
d="M389 195v-44c0 -99 -49 -156 -168 -156h-12c-119 0 -169 57 -169 156v61h100v-64c0 -33 12 -60 72 -60h5c60 0 72 27 72 60v49c0 36 -8 56 -43 78l-130 82c-54 33 -77 78 -77 136v27c0 89 40 140 155 140h171v-93h-164c-56 0 -62 -23 -62 -52v-18c0 -33 10 -53 44 -74
l128 -81c65 -41 78 -82 78 -147z" />
    <glyph glyph-name="dvGrave" unicode="&#x953;" horiz-adv-x="337" 
d="M46 955h106l117 -247h-106z" />
    <glyph glyph-name="dvAcute" unicode="&#x954;" horiz-adv-x="332" 
d="M163 955h106l-117 -247h-106z" />
    <glyph glyph-name="dvZero" unicode="&#x966;" horiz-adv-x="419" 
d="M209 664c116 0 164 -58 164 -150v-369c0 -91 -48 -149 -164 -149c-114 0 -164 59 -164 151v366c0 91 50 151 164 151zM209 571c-52 0 -66 -26 -66 -58v-366c0 -33 14 -58 66 -58s66 25 66 58v366c0 32 -14 58 -66 58z" />
    <glyph glyph-name="dvOne" unicode="&#x967;" horiz-adv-x="291" 
d="M233 0h-100v552l-121 -90v114l113 84h108v-660z" />
    <glyph glyph-name="dvTwo" unicode="&#x968;" horiz-adv-x="400" 
d="M37 0v165c0 72 34 100 87 136l99 69c37 26 41 47 41 92v54c0 32 -12 56 -62 56c-51 0 -63 -24 -63 -56v-69h-100v72c0 91 54 146 163 146c110 0 162 -55 162 -146v-71c0 -68 -17 -106 -68 -140l-96 -67c-49 -33 -63 -46 -63 -97v-51h231v-93h-331z" />
    <glyph glyph-name="dvThree" unicode="&#x969;" horiz-adv-x="403" 
d="M138 514v-31h-100v34c0 91 54 148 162 148c111 0 163 -57 163 -148v-69c0 -45 -11 -85 -48 -105c35 -18 48 -56 48 -105v-96c0 -91 -52 -147 -163 -147c-107 0 -162 56 -162 147v67h100v-64c0 -32 12 -58 62 -58c53 0 63 26 63 58v93c0 32 -8 58 -61 58h-45v92h45
c53 1 61 28 61 60v66c0 33 -13 58 -63 58s-62 -25 -62 -58z" />
    <glyph glyph-name="dvFour" unicode="&#x96a;" horiz-adv-x="431" 
d="M16 124v94l165 442h167l1 -449h68v-87h-68v-124h-98v124h-235zM110 211h144v397z" />
    <glyph glyph-name="dvFive" unicode="&#x96b;" horiz-adv-x="404" 
d="M41 178h100v-33c0 -30 11 -57 64 -57c52 0 64 27 64 57v147c0 31 -10 58 -61 58c-52 0 -65 -28 -65 -58v-12h-100v380h317v-85h-217v-155c17 14 41 23 73 23c105 0 153 -57 153 -148v-153c0 -91 -58 -147 -164 -147s-164 56 -164 147v36z" />
    <glyph glyph-name="dvSix" unicode="&#x96c;" horiz-adv-x="415" 
d="M366 487h-100v27c0 33 -13 58 -63 58s-62 -25 -62 -58v-113c17 14 40 22 71 22c112 0 161 -56 161 -147v-134c0 -91 -55 -147 -166 -147s-166 56 -166 147v375c0 91 54 148 162 148c110 0 163 -57 163 -148v-30zM273 145v128c0 30 -12 57 -64 57c-51 0 -67 -27 -68 -56
v-129c0 -30 14 -57 66 -57c51 0 66 27 66 57z" />
    <glyph glyph-name="dvSeven" unicode="&#x96d;" horiz-adv-x="346" 
d="M170 0h-101l154 572h-217l-1 88h320v-82z" />
    <glyph glyph-name="dvEight" unicode="&#x96e;" horiz-adv-x="413" 
d="M43 141v94c0 48 18 79 50 97c-32 19 -50 50 -50 98v88c0 92 58 147 163 147s163 -55 163 -147v-88c0 -48 -18 -79 -50 -97c32 -19 50 -50 50 -98v-94c0 -91 -58 -146 -163 -146s-163 55 -163 146zM271 430v85c0 33 -14 59 -65 59s-66 -26 -66 -59v-85
c0 -32 15 -58 66 -58s65 26 65 58zM271 144v91c0 32 -14 58 -65 58s-66 -26 -66 -58v-91c0 -32 15 -58 66 -58s65 26 65 58z" />
    <glyph glyph-name="dvNine" unicode="&#x96f;" horiz-adv-x="415" 
d="M48 183h100v-38c0 -32 12 -58 62 -58s63 26 63 58v114c-16 -13 -41 -20 -72 -20c-112 0 -160 56 -160 148v131c0 91 58 147 166 147c107 0 166 -57 166 -148v-375c0 -91 -54 -147 -162 -147c-110 0 -163 56 -163 147v41zM141 514v-124c0 -31 12 -58 63 -58
c55 0 69 28 69 59v123c0 31 -14 58 -66 58s-66 -27 -66 -58z" />
    <glyph glyph-name="dvAbbreviationsign" unicode="&#x970;" horiz-adv-x="403" 
d="M47 329c0 93 43 160 155 160c113 0 156 -67 156 -160s-43 -159 -156 -159c-112 0 -155 66 -155 159zM136 328c0 -48 12 -76 66 -76s67 28 67 76s-13 78 -67 78s-66 -30 -66 -78z" />
    <glyph glyph-name="rupee" unicode="&#x20a8;" horiz-adv-x="474" 
d="M48 343h134c62 0 76 23 76 68v13h-210v75h210v20c0 32 -16 56 -66 56h-144v85h388v-85h-106c18 -14 25 -35 25 -59v-17h81v-75h-81v-16c0 -104 -48 -149 -170 -149h-25l204 -259h-118l-198 258v85z" />
    <glyph glyph-name="ITF" horiz-adv-x="1734" 
d="M147 0v671h207v-671h-207zM397 475v196h207v-196h-207zM647 0v671h207v-671h-207zM896 475v196h208v-196h-208zM1146 0v671h208v-671h-208zM1396 475v196h207v-196h-207zM1396 237v196h207v-196h-207z" />
    <glyph glyph-name="dvReph" horiz-adv-x="0" 
d="M-60 660h-90s-34 34 -34 96c0 92 67 133 156 133c21 0 42 -2 42 -2v-86s-11 1 -26 1c-45 0 -78 -18 -78 -67c0 -46 30 -75 30 -75z" />
    <glyph glyph-name="dvRAc2" horiz-adv-x="0" 
d="M-156 -123l-58 130l-58 -130h-104l72 143h180l72 -143h-104z" />
    <glyph glyph-name="dvK" horiz-adv-x="438" 
d="M578 365v-6h-91v6c0 31 -13 52 -67 52c-56 0 -68 -22 -68 -56v-361h-98v80c-15 -12 -41 -20 -71 -20c-101 0 -145 46 -145 137v167c0 92 44 141 145 141c30 0 56 -8 71 -20v90h-286v85h638v-85h-254v-90c17 12 41 18 77 18c112 0 149 -52 149 -138zM195 145
c48 0 59 21 60 53v163c0 34 -11 56 -60 56c-50 0 -61 -22 -61 -56v-161c0 -33 11 -55 61 -55z" />
    <glyph glyph-name="dvKH" horiz-adv-x="562" 
d="M695 254c0 -96 -37 -140 -152 -140c-31 0 -52 5 -68 15c-17 -84 -81 -129 -200 -129h-17c-151 0 -217 62 -217 183v263h96v-69c0 -32 9 -53 58 -53c48 0 57 21 57 53v142c0 32 -12 55 -61 56h-223v85h736v-85h-376c11 -14 17 -32 17 -56v-145c0 -91 -34 -139 -138 -139
c-26 0 -55 7 -70 19v-68c0 -62 30 -96 120 -96h10c92 0 124 34 124 96v171c0 91 38 140 152 140c115 0 152 -49 152 -140v-103zM604 254v103c0 33 -11 55 -61 55c-49 0 -60 -22 -60 -55v-103c0 -33 11 -55 60 -55c50 0 61 22 61 55z" />
    <glyph glyph-name="dvG" horiz-adv-x="256" 
d="M288 660v-85h-76v-248c0 -96 -50 -146 -145 -146c-19 0 -36 4 -47 5v96c6 -2 20 -4 34 -4c44 0 58 20 58 56v241h-144v85h320z" />
    <glyph glyph-name="dvGH" horiz-adv-x="302" 
d="M342 234v17h100v-17c0 -117 -56 -174 -199 -174c-127 0 -193 50 -193 152v52c0 50 15 84 52 99c-35 18 -46 51 -46 96v62c0 26 6 43 19 54h-107v85h473v-85h-233c-38 0 -52 -17 -52 -54v-59c0 -32 10 -54 61 -54h39v-93h-43c-51 0 -63 -21 -63 -54v-38
c0 -55 36 -73 94 -73c72 0 98 20 98 84z" />
    <glyph glyph-name="dvNG" horiz-adv-x="493" 
d="M250 575h-287v85h561v-85h-174v-158h-155c-44 0 -56 -19 -56 -48v-15c0 -30 11 -49 56 -49h22c111 0 162 -44 162 -135v-38c0 -91 -55 -137 -169 -137s-171 46 -171 137v28h100v-25c0 -32 17 -53 70 -53c54 0 70 21 70 53v32c0 31 -11 53 -62 53h-22
c-102 0 -157 39 -157 130v24c0 91 52 130 157 130h55v71zM375 337c0 33 14 58 58 58s57 -25 57 -58c0 -32 -13 -57 -57 -57s-58 25 -58 57zM377 -218h-106l-102 160h91z" />
    <glyph glyph-name="dvC" horiz-adv-x="294" 
d="M435 660v-85h-467v85h467zM334 239h100v-25c0 -106 -53 -156 -180 -156c-128 0 -179 50 -179 153v127c0 26 6 45 20 58h-82v90h258v-86h-39c-47 0 -57 -26 -57 -58v-128c0 -45 16 -67 79 -67c62 0 80 22 80 67v25z" />
    <glyph glyph-name="dvCH" horiz-adv-x="529" 
d="M333 498c99 0 151 -50 151 -139v-187c0 -115 -55 -162 -215 -162c-157 0 -218 45 -218 153v29c0 43 15 77 52 93c-35 17 -47 49 -47 95v131c0 31 8 51 23 64h-111v85h593v-85h-343c-49 0 -62 -22 -62 -66v-125c0 -33 10 -54 61 -54h64v-89h-61c-51 0 -69 -15 -69 -56v-17
c0 -53 19 -68 118 -68c98 0 117 21 117 76v169c0 46 -17 68 -71 68c-29 0 -51 -10 -51 -10v85s32 10 69 10z" />
    <glyph glyph-name="dvJ" horiz-adv-x="396" 
d="M497 660v-85h-529v85h529zM497 486v-86h-174c13 -17 19 -37 19 -65v-144c0 -91 -50 -143 -159 -143s-158 53 -158 145v84h100v-83c0 -32 8 -55 58 -55c49 0 59 23 59 55v142c0 33 -13 58 -63 58h-59v92h377z" />
    <glyph glyph-name="dvJH" horiz-adv-x="431" 
d="M487 320v-80h-134c14 -14 21 -35 21 -61v-35c0 -91 -38 -136 -154 -136c-29 0 -62 7 -77 21v-89h-98v233h98v-22c0 -34 13 -54 65 -54s66 20 66 54v31c0 29 -12 51 -59 53h-7c-106 0 -163 39 -163 130v9c0 91 51 130 163 130h57v71h-297v85h519v-85h-122v-158h-157
c-49 0 -62 -16 -63 -43v-6c0 -30 12 -48 61 -48h281z" />
    <glyph glyph-name="dvNY" horiz-adv-x="398" 
d="M486 660v-85h-518v85h518zM486 322v-87h-132v-37c0 -90 -53 -145 -158 -145c-111 0 -158 55 -158 146v35h101v-32c0 -32 6 -56 57 -56s58 24 58 56v155c0 32 -7 56 -58 56s-57 -24 -57 -56v-31h-101v34c0 91 47 146 158 146s158 -55 158 -146v-38h132z" />
    <glyph glyph-name="dvTT" horiz-adv-x="404" 
d="M345 405h-138c-51 0 -61 -21 -61 -53v-211c0 -32 11 -56 62 -56s63 24 63 56v88h100v-88c0 -91 -52 -146 -163 -146s-162 55 -162 146v214c0 97 50 141 161 141h38v79h-277v85h467v-85h-90v-170zM375 -218h-106l-102 160h91z" />
    <glyph glyph-name="dvTTH" horiz-adv-x="416" 
d="M371 367v-226c0 -91 -52 -146 -163 -146s-162 55 -162 146v226c0 76 35 124 112 137v71h-190v85h479v-85h-189v-71c76 -13 113 -61 113 -137zM274 140v225c0 32 -14 58 -66 58s-65 -26 -65 -58v-225c0 -33 13 -58 65 -58s66 25 66 58zM378 -218h-106l-102 160h91z" />
    <glyph glyph-name="dvDD" horiz-adv-x="420" 
d="M254 575h-286v85h483v-85h-97v-158h-154c-45 0 -57 -19 -57 -48v-15c0 -30 12 -49 57 -49h21c112 0 163 -44 163 -135v-38c0 -91 -56 -137 -170 -137s-170 46 -170 137v28h100v-25c0 -32 16 -53 70 -53c53 0 70 21 70 53v32c0 31 -12 53 -63 53h-21
c-103 0 -157 39 -157 130v24c0 91 51 130 157 130h54v71zM383 -218h-106l-102 160h91z" />
    <glyph glyph-name="dvDDH" horiz-adv-x="420" 
d="M205 501h51v74h-288v85h483v-85h-97v-165h-149c-50 0 -61 -21 -61 -53v-206c0 -38 13 -64 71 -64s71 25 71 63v24c0 39 -19 51 -48 51c-23 0 -36 -8 -36 -8v89s19 8 48 8c83 0 132 -39 132 -137v-32c0 -98 -50 -150 -167 -150c-118 0 -170 55 -170 153v212
c0 97 49 141 160 141zM384 -218h-106l-102 160h91z" />
    <glyph glyph-name="dvNN" horiz-adv-x="408" 
d="M439 660v-85h-75v-318c0 -91 -49 -146 -160 -146s-160 55 -160 146v318h-76v85h471zM204 202c51 0 60 24 60 56v317h-120v-317c0 -32 10 -56 60 -56z" />
    <glyph glyph-name="dvT" horiz-adv-x="234" 
d="M355 660v-85h-387v85h387zM355 496v-93h-138c-56 0 -73 -26 -73 -62v-195c0 -38 18 -54 69 -53v-93c-7 -1 -19 -2 -26 -2c-106 -1 -143 50 -143 140v206c0 97 50 152 173 152h138z" />
    <glyph glyph-name="dvTH" horiz-adv-x="369" 
d="M274 172c111 0 134 42 134 129h100c0 -158 -81 -221 -234 -221c-154 0 -233 67 -233 203v115h109c70 0 97 17 97 78v43c0 35 -4 56 -46 56c-41 0 -49 -21 -49 -56v-42h-96v39c0 94 40 149 142 149c103 0 141 -52 141 -146v-57c0 -103 -55 -152 -177 -152h-19v-24
c0 -75 23 -114 131 -114z" />
    <glyph glyph-name="dvD" horiz-adv-x="416" 
d="M37 207v150c0 102 53 142 164 142h54v76h-287v85h480v-85h-93v-168h-154c-52 0 -64 -20 -64 -52v-145c0 -33 14 -53 66 -53s66 20 66 53v64h99v-278h-99v92c-20 -14 -48 -20 -78 -20c-105 0 -154 48 -154 139zM487 -218h-106l-102 160h91z" />
    <glyph glyph-name="dvDH" horiz-adv-x="306" 
d="M346 234v17h100v-17c0 -117 -58 -174 -201 -174c-127 0 -195 50 -195 152v54c0 50 15 84 52 99c-35 18 -46 51 -46 96v60c0 26 6 43 19 54h-107v85h253v-85h-13c-38 0 -52 -17 -52 -54v-57c0 -32 10 -54 61 -54h39v-92h-43c-51 0 -63 -22 -63 -55v-40
c0 -55 38 -73 95 -73c73 0 101 20 101 84z" />
    <glyph glyph-name="dvN" horiz-adv-x="384" 
d="M485 660v-85h-517v85h517zM485 485v-92h-160c9 -12 12 -29 12 -49v-146c0 -91 -44 -141 -149 -141s-150 50 -150 141v146c0 91 45 141 150 141h297zM242 199v142c0 32 -11 52 -54 52s-54 -20 -54 -52v-142c0 -32 11 -52 54 -52s54 20 54 52z" />
    <glyph glyph-name="dvP" horiz-adv-x="244" 
d="M287 323h95v-51c0 -103 -59 -151 -166 -151c-112 0 -171 48 -171 151v303h-77v85h414v-85h-237v-299c0 -41 13 -65 71 -65c59 0 71 24 71 65v47z" />
    <glyph glyph-name="dvPH" horiz-adv-x="464" 
d="M366 575v-97c18 13 45 21 79 21c112 0 151 -53 151 -139v-8h-91v8c0 32 -15 53 -69 53c-50 0 -70 -19 -70 -56v-357h-99v129c-18 -13 -45 -19 -72 -19c-103 0 -149 48 -149 139v326h-78v85h628v-85h-230zM267 575h-121v-323c0 -32 12 -53 61 -53c46 0 60 19 60 53v323z
" />
    <glyph glyph-name="dvB" horiz-adv-x="256" 
d="M-32 575v85h430v-85h-430zM387 214c0 -100 -53 -152 -173 -152c-122 0 -176 55 -176 152v139c0 98 48 153 176 153c120 0 173 -53 173 -153v-139zM297 350c0 47 -21 71 -81 71c-45 0 -68 -13 -77 -37l158 -126v92zM134 218c0 -46 19 -72 82 -72c46 0 69 15 77 42
l-159 129v-99z" />
    <glyph glyph-name="dvBH" horiz-adv-x="420" 
d="M502 414v-85h-153v-135c0 -86 -45 -136 -154 -136s-154 50 -154 136v85c0 86 45 135 154 135h57v104c0 32 -7 54 -54 54s-54 -22 -54 -54v-42h-100v45c0 91 47 144 154 144s154 -53 154 -144v-107h150zM252 196v133h-57c-49 0 -57 -20 -57 -52v-81c0 -31 8 -52 57 -52
s57 20 57 52z" />
    <glyph glyph-name="dvM" horiz-adv-x="400" 
d="M488 438v-86h-151v-158c0 -85 -45 -136 -154 -136s-154 51 -154 136v109c0 86 45 135 154 135h57v137h-272v85h520v-85h-151v-137h151zM240 197v155h-57c-49 0 -57 -19 -57 -52v-103c0 -32 8 -52 57 -52c48 0 57 20 57 52z" />
    <glyph glyph-name="dvY" horiz-adv-x="319" 
d="M456 284v-15c0 -130 -80 -183 -206 -183c-139 0 -207 53 -207 183v121h9c87 0 112 8 112 79v49c0 35 -14 57 -59 57h-137v85h488v-85h-212c11 -12 18 -30 18 -57v-54c0 -98 -42 -134 -121 -141v-43c0 -68 19 -101 109 -101c91 0 112 39 112 100v5h94z" />
    <glyph glyph-name="dvR" horiz-adv-x="420" 
d="M-32 575v85h484v-85h-97c13 -11 21 -32 21 -56v-98c0 -91 -46 -142 -151 -142c-24 0 -58 7 -74 21v-156c0 -33 13 -57 63 -57c51 0 64 24 64 57v45h100v-48c0 -91 -52 -146 -163 -146s-164 55 -164 146v329h100v-46c0 -32 11 -56 62 -56s63 24 63 56v95
c0 32 -12 56 -63 56h-245zM381 -218h-106l-102 160h91z" />
    <glyph glyph-name="dvL" horiz-adv-x="440" 
d="M576 660v-85h-608v85h608zM43 165v176c0 91 50 145 156 145c63 0 96 -25 112 -50c18 25 50 50 112 50c105 0 153 -54 153 -151v-33h-94v30c0 39 -10 62 -62 62c-48 0 -60 -23 -60 -62v-123h-100v129c0 32 -10 56 -58 56c-49 0 -58 -24 -58 -56v-172c0 -44 11 -78 86 -78
h59l1 -88h-65c-133 0 -182 55 -182 165z" />
    <glyph glyph-name="dvV" horiz-adv-x="257" 
d="M391 660v-85h-423v85h423zM240 494v-85c-3 0 -17 2 -31 2c-51 0 -70 -20 -70 -57v-144c0 -39 16 -63 79 -63c64 0 81 24 81 63v32h94v-34c0 -94 -55 -147 -177 -147c-129 0 -175 53 -175 147v147c0 91 47 142 164 142c16 0 33 -2 35 -3z" />
    <glyph glyph-name="dvSH" horiz-adv-x="415" 
d="M378 519v-123c0 -91 -46 -141 -151 -141c-24 0 -60 6 -74 18v-129c0 -33 13 -57 63 -57c51 0 64 24 64 57v35h100v-38c0 -91 -52 -146 -164 -146c-111 0 -163 55 -163 146v269h100v-15c0 -30 13 -51 62 -51c51 0 63 23 63 55v117c0 32 -12 56 -63 56
c-50 0 -62 -24 -62 -56v-38h-100v41c0 91 51 146 162 146s163 -55 163 -146z" />
    <glyph glyph-name="dvSS" horiz-adv-x="273" 
d="M396 252v-30c-30 -61 -79 -107 -178 -107c-129 0 -174 60 -174 152v308h-76v85h439v-85h-263v-63zM224 204c47 0 71 19 82 50l-162 168v-152c0 -38 15 -66 80 -66z" />
    <glyph glyph-name="dvS" horiz-adv-x="408" 
d="M480 367v-86h-168c-23 -17 -49 -26 -93 -26c-23 0 -56 5 -72 20v-133c0 -32 10 -56 61 -56c50 0 60 24 60 56v30h98v-31c0 -91 -47 -146 -158 -146c-112 0 -159 55 -159 146v318h98v-60c0 -32 8 -55 57 -55c48 0 56 23 56 55v120c0 31 -11 56 -59 56h-233v85h512v-85
h-143c15 -14 22 -36 22 -64v-114c0 -10 -2 -22 -4 -30h125z" />
    <glyph glyph-name="dvH" horiz-adv-x="402" 
d="M480 321v-84h-272c-50 0 -64 -21 -64 -53v-39c0 -39 21 -63 87 -63c60 0 99 3 147 12v-86c-44 -9 -96 -14 -152 -14c-127 0 -183 54 -183 146v41c0 47 17 78 49 96c-31 16 -47 44 -48 89v16c0 87 50 124 156 124h68v69h-300v85h512v-85h-112v-156h-168
c-43 0 -56 -15 -56 -44v-10c0 -29 14 -44 57 -44h279z" />
    <glyph glyph-name="dvLL" horiz-adv-x="439" 
d="M595 575h-627v85h627v-85zM47 140v208c1 92 45 143 152 143c51 0 88 -17 111 -47c23 30 60 47 111 47c106 0 147 -54 147 -145v-206c0 -91 -41 -145 -147 -145c-51 0 -88 17 -111 47c-23 -30 -61 -47 -112 -47c-106 0 -151 54 -151 145zM258 141v204c0 33 -11 59 -60 59
c-50 0 -59 -26 -59 -59v-204c0 -33 9 -58 59 -58c49 0 60 25 60 58zM357 345v-203c0 -34 11 -59 61 -59s59 25 59 59v203c0 33 -10 59 -59 59c-50 0 -61 -26 -61 -59z" />
    <glyph glyph-name="dvK_SS" horiz-adv-x="460" 
d="M554 413v-84h-341c-52 0 -59 -26 -59 -64v-71c0 -32 10 -54 57 -54c44 0 56 20 57 50v51h95v-241h-95v69c-19 -12 -42 -17 -72 -17c-102 0 -144 52 -144 143v82c0 47 14 83 56 101c-26 15 -37 46 -37 97v48c0 92 47 142 151 142c105 0 149 -50 149 -142v-48
c0 -33 -4 -50 -13 -62h196zM276 464v59c0 32 -7 54 -54 54c-46 0 -53 -22 -53 -54v-59c0 -31 7 -54 53 -54c47 0 54 22 54 54z" />
    <glyph glyph-name="dvJ_NY" horiz-adv-x="414" 
d="M530 660v-85h-562v85h562zM45 283h97v-53c0 -32 7 -55 59 -55c50 0 58 23 58 55v106c0 33 -13 58 -63 58h-61v92h395v-86h-189c12 -18 18 -40 18 -65v-109c0 -96 -53 -143 -142 -143c-35 0 -55 5 -75 16v-99h-97v283z" />
    <glyph glyph-name="dvKx" horiz-adv-x="441" 
d="M584 365v-6h-90v6c0 31 -14 52 -67 52c-56 0 -68 -22 -68 -56v-361h-98v80c-15 -12 -41 -20 -71 -20c-101 0 -145 46 -145 137v167c0 92 44 141 145 141c30 0 56 -8 71 -20v90h-288v85h640v-85h-254v-90c17 12 41 18 77 18c111 0 148 -52 148 -138zM201 145
c48 0 59 21 60 53v163c0 34 -10 56 -60 56c-49 0 -60 -22 -60 -56v-161c0 -33 11 -55 60 -55zM76 -42c0 33 13 58 58 58c43 0 57 -25 57 -58c0 -32 -14 -57 -57 -57c-45 0 -58 25 -58 57z" />
    <glyph glyph-name="dvKHx" horiz-adv-x="692" 
d="M701 254c0 -96 -37 -140 -152 -140c-31 0 -52 5 -68 15c-17 -84 -81 -129 -200 -129h-17c-151 0 -217 62 -217 183v263h96v-69c0 -32 9 -53 57 -53c49 0 58 21 58 53v142c0 32 -12 55 -61 56h-227v85h740v-85h-376c11 -14 17 -32 17 -56v-145c0 -91 -34 -139 -138 -139
c-26 0 -55 7 -70 19v-68c0 -62 30 -96 120 -96h10c92 0 124 34 124 96v171c0 91 37 140 152 140s152 -49 152 -140v-103zM610 254v103c0 33 -11 55 -61 55c-49 0 -60 -22 -60 -55v-103c0 -33 11 -55 60 -55c50 0 61 22 61 55zM-14 -68c0 33 13 58 56 58c44 0 58 -25 58 -58
c0 -32 -14 -57 -58 -57c-43 0 -56 25 -56 57z" />
    <glyph glyph-name="dvGx" horiz-adv-x="259" 
d="M288 660v-85h-76v-248c0 -96 -50 -146 -145 -146c-19 0 -36 4 -47 5v96c6 -2 20 -4 34 -4c44 0 58 20 58 56v241h-144v85h320zM70 52c0 32 13 57 57 57s57 -25 57 -57c0 -33 -13 -58 -57 -58s-57 25 -57 58z" />
    <glyph glyph-name="dvJx" horiz-adv-x="400" 
d="M497 660v-85h-529v85h529zM497 486v-86h-174c13 -17 19 -37 19 -65v-144c0 -91 -50 -143 -159 -143s-158 53 -158 145v84h100v-83c0 -32 8 -55 58 -55c49 0 59 23 59 55v142c0 33 -13 58 -63 58h-59v92h377zM127 -70c0 32 14 57 58 57s57 -25 57 -57s-14 -57 -58 -57
s-57 25 -57 57z" />
    <glyph glyph-name="dvNx" horiz-adv-x="390" 
d="M491 660v-85h-523v85h523zM491 485v-92h-159c8 -12 11 -29 11 -49v-146c0 -91 -44 -141 -149 -141s-149 50 -149 141v146c0 91 44 141 149 141h297zM248 199v142c0 32 -10 52 -54 52c-43 0 -53 -20 -53 -52v-142c0 -32 10 -52 53 -52c44 0 54 20 54 52zM-19 -40
c0 33 13 58 57 58s58 -25 58 -58c0 -32 -14 -57 -58 -57s-57 25 -57 57z" />
    <glyph glyph-name="dvPHx" horiz-adv-x="475" 
d="M377 575v-97c17 13 45 21 79 21c111 0 150 -53 150 -139v-8h-90v8c-1 32 -15 53 -70 53c-50 0 -69 -19 -69 -56v-357h-100v129c-18 -13 -45 -19 -72 -19c-103 0 -149 48 -149 139v326h-81v85h631v-85h-229zM277 575h-121v-323c0 -32 12 -53 61 -53c47 0 60 19 60 53v323z
M29 -6c0 32 13 57 58 57c43 0 57 -25 57 -57c0 -33 -14 -58 -57 -58c-45 0 -58 25 -58 58z" />
    <glyph glyph-name="dvYx" horiz-adv-x="324" 
d="M461 284v-15c0 -130 -80 -183 -207 -183c-138 0 -207 53 -207 183v121h10c86 0 112 8 112 79v49c0 35 -14 57 -59 57h-137v85h488v-85h-213c11 -12 19 -30 19 -57v-54c0 -98 -43 -134 -121 -141v-43c0 -68 19 -101 108 -101c91 0 113 39 113 100v5h94zM17 2
c0 32 12 57 56 57s57 -25 57 -57s-13 -57 -57 -57c-43 0 -56 25 -56 57z" />
    <glyph glyph-name="dvK_RA" horiz-adv-x="625" 
d="M36 -45l108 132c-61 12 -89 47 -89 119v158c0 92 44 141 145 141c26 0 56 -7 71 -20v90h-303v85h689v-85h-288v-89c16 12 45 19 70 19c101 0 144 -52 144 -141v-158c0 -89 -40 -140 -140 -139c-6 0 -16 1 -19 2v92c51 -1 63 15 63 53v147c0 33 -10 56 -59 56
c-50 0 -59 -22 -59 -56v-361h-98v103c-2 -2 -5 -4 -8 -6l-112 -142h-115zM211 155c48 0 59 20 60 52v154c0 34 -10 56 -60 56s-60 -22 -60 -56v-151c0 -34 10 -55 60 -55z" />
    <glyph glyph-name="dvKH_RA" horiz-adv-x="763" 
d="M71 -86l161 104c-140 1 -188 56 -188 165v263h96v-69c0 -32 9 -53 57 -53c49 0 57 21 57 53v142c0 32 -11 55 -60 56h-225v85h825v-85h-89v-575h-98v131c-15 -13 -40 -17 -66 -17c-30 0 -52 3 -70 12c-5 -39 -21 -66 -48 -84l-206 -144l-146 14v2zM394 186v170
c0 92 34 143 143 143c26 0 53 -5 70 -18v94h-277c12 -14 18 -32 18 -56v-145c0 -91 -35 -139 -138 -139c-26 0 -56 7 -70 19v-68c0 -62 29 -94 120 -94h10c92 0 124 32 124 94zM546 412c-50 0 -61 -22 -61 -55v-107c1 -31 13 -51 61 -51c50 0 61 22 61 55v103
c0 33 -11 55 -61 55z" />
    <glyph glyph-name="dvG_RA" horiz-adv-x="484" 
d="M-32 575v85h548v-85h-90v-575h-95v54c0 66 5 117 10 137h-2c-11 -23 -44 -64 -90 -114l-68 -77h-119l264 311v264h-116v-208c0 -89 -46 -151 -154 -151c-16 0 -38 2 -38 2v96s24 -1 38 -1c47 0 54 25 54 56v206h-142z" />
    <glyph glyph-name="dvGH_RA" horiz-adv-x="498" 
d="M30 -50l1 2l149 140c-88 11 -130 54 -130 137v42c0 45 17 84 54 99c-35 18 -48 46 -48 98v53c0 26 6 43 19 54h-107v85h562v-85h-90v-575h-100v120l-178 -170h-132zM340 575h-129c-40 0 -55 -17 -55 -54v-50c0 -32 10 -54 60 -54h40v-93h-43c-51 0 -63 -23 -63 -56v-29
c0 -55 29 -71 88 -71c68 0 102 20 102 82v325z" />
    <glyph glyph-name="dvC_RA" horiz-adv-x="476" 
d="M59 -31l117 130c-67 13 -100 52 -100 129v109c0 26 6 45 20 58h-76v90h253v-87h-37c-47 -1 -60 -26 -60 -57v-110c0 -36 17 -60 71 -60c57 0 71 24 71 60v344h-350v85h540v-85h-89v-575h-101v121c-2 -2 -5 -4 -7 -6l-132 -146h-120z" />
    <glyph glyph-name="dvJ_RA" horiz-adv-x="608" 
d="M161 -55l1 2l288 297v156h-131c14 -17 20 -37 20 -65v-71c0 -91 -50 -145 -158 -145c-110 0 -158 55 -158 146v41h99v-38c0 -32 8 -57 59 -57c48 0 58 25 58 57v68c0 33 -13 58 -63 58h-59v92h333v89h-482v85h671v-85h-89v-575h-100v16c0 14 -1 62 4 110l-1 1
c-9 -24 -40 -56 -84 -99l-86 -83h-122z" />
    <glyph glyph-name="dvJH_RA" horiz-adv-x="686" 
d="M536 -6v29c0 22 1 52 5 84l-1 1c-8 -24 -27 -56 -62 -98l-80 -94h-114l229 276l-1 48h-166c14 -14 21 -35 21 -61v-35c0 -91 -33 -136 -149 -136c-29 0 -58 5 -73 19v-87h-98v233h98v-22c0 -34 12 -54 61 -54s60 20 60 54v31c0 29 -11 53 -59 53h-2
c-93 0 -151 36 -151 130v9c0 91 51 130 157 130h122v71h-365v85h750v-85h-90v-581h-92zM433 417h-222c-43 0 -57 -16 -57 -46v-5c0 -30 13 -46 56 -46h319v255h-96v-158z" />
    <glyph glyph-name="dvNY_RA" horiz-adv-x="627" 
d="M465 225l-1 37h-105v-35c-5 -82 -52 -131 -157 -131c-111 0 -158 55 -158 146v28h100v-25c0 -33 7 -57 58 -57c50 0 57 24 57 57v117c0 32 -7 56 -57 56c-51 0 -58 -24 -58 -56v-26h-100v28c0 92 47 146 158 146c108 0 155 -52 157 -139v-23h110v227h-501v85h691v-85h-90
v-575h-100v48c0 22 0 46 5 78l-2 1c-9 -25 -25 -56 -62 -98l-94 -103h-116z" />
    <glyph glyph-name="dvNN_RA" horiz-adv-x="631" 
d="M391 86l-88 -86h-122l293 309v266h-108v-217c0 -92 -49 -146 -160 -146s-160 54 -160 146v217h-78v85h695v-85h-90v-575h-99v56c0 70 5 114 9 140h-1c-11 -23 -45 -64 -91 -110zM206 304c51 0 60 24 60 56v215h-120v-215c0 -32 9 -56 60 -56z" />
    <glyph glyph-name="dvT_RA" horiz-adv-x="471" 
d="M34 33v2l265 290c9 11 13 16 14 23c0 31 -15 54 -87 54s-92 -27 -92 -74v-55h-97v61c0 100 51 159 177 159c51 0 85 -11 99 -27v109h-344v85h534v-85h-90v-575h-95v110c0 33 2 94 6 117l-1 1c-12 -24 -41 -61 -56 -78l-107 -117h-126z" />
    <glyph glyph-name="dvTH_RA" horiz-adv-x="578" 
d="M53 -44l1 3l177 142c-125 11 -181 77 -181 194v105h110c69 0 94 19 94 80v40c0 35 -4 55 -47 55c-41 0 -48 -20 -48 -55v-44h-96v40c0 94 40 149 142 149c103 0 140 -51 140 -145v-54c0 -103 -52 -154 -173 -154h-21v-14c0 -79 28 -119 137 -119c104 0 131 44 132 127
v354h189v-85h-89v-575h-100v139l-220 -183h-147z" />
    <glyph glyph-name="dvD_RA" horiz-adv-x="420" 
d="M34 -66l110 154c-70 11 -103 48 -103 123v146c0 102 52 142 164 142h54v76h-291v85h484v-85h-93v-168h-154c-52 0 -64 -20 -64 -52v-141c0 -33 14 -54 66 -54s66 21 66 54v60h98v-278h-98v110c-2 -2 -4 -3 -7 -5l-121 -167h-111z" />
    <glyph glyph-name="dvDH_RA" horiz-adv-x="496" 
d="M28 -50l1 2l149 140c-88 10 -130 54 -130 137v47c0 50 15 86 52 101c-35 17 -46 50 -46 95v49c0 26 6 43 19 54h-105v85h277v-85h-36c-40 0 -55 -17 -55 -54v-46c0 -32 10 -53 61 -54h39v-92h-43c-51 0 -63 -24 -63 -56v-34c0 -55 29 -71 88 -71c68 0 102 20 102 82v410
h190v-85h-90v-575h-100v120l-178 -170h-132z" />
    <glyph glyph-name="dvN_RA" horiz-adv-x="597" 
d="M439 393h-115c8 -13 11 -29 11 -49v-60c0 -91 -43 -142 -148 -142s-150 51 -150 142v60c0 91 45 141 150 141h252v90h-471v85h661v-85h-90v-575h-94v21c0 44 0 97 4 132h-1c-3 -14 -44 -69 -81 -111l-71 -78h-119l262 299v130zM240 284v57c0 32 -10 52 -53 52
s-54 -20 -54 -52v-57c0 -31 11 -52 54 -52s53 20 53 52z" />
    <glyph glyph-name="dvP_RA" horiz-adv-x="441" 
d="M19 0l136 183c-75 12 -103 55 -103 132v260h-84v85h504v-85h-89v-575h-100v201l-149 -201h-115zM283 575h-131v-257c0 -33 12 -57 65 -57c54 0 66 24 66 57v257z" />
    <glyph glyph-name="dvPH_RA" horiz-adv-x="629" 
d="M30 -10l122 176c-68 11 -98 48 -98 123v286h-86v85h693v-85h-287v-94c17 12 42 20 70 20c103 0 147 -55 147 -144v-151c0 -90 -44 -141 -144 -140c-6 0 -14 1 -17 1v93c49 -1 61 17 61 54v140c0 32 -10 54 -59 54c-47 0 -58 -20 -58 -51v-357h-99v181c-1 0 -1 -1 -2 -1
l-130 -190h-113zM275 575h-121v-283c0 -33 12 -54 60 -54c49 0 61 21 61 54v283z" />
    <glyph glyph-name="dvB_RA" horiz-adv-x="446" 
d="M39 -45l114 124c-79 12 -112 57 -112 136v144c0 94 48 147 162 147c38 0 70 -9 88 -24v93h-323v85h510v-85h-90v-575h-97v99c-4 -3 -8 -6 -12 -8l-124 -136h-116zM214 421c-45 0 -65 -14 -73 -37l150 -117v87c0 41 -16 67 -77 67zM214 153c49 0 68 17 74 43l-151 119v-95
c0 -39 15 -67 77 -67z" />
    <glyph glyph-name="dvBH_RA" horiz-adv-x="620" 
d="M462 248v104h-110v-91c0 -85 -46 -136 -153 -136c-110 0 -155 51 -155 136v42c0 85 45 134 155 134h57v81c0 32 -8 54 -54 54c-47 0 -55 -22 -55 -54v-33h-100v36c0 91 47 144 155 144c107 0 154 -53 154 -144v-84h106v223h189v-85h-89v-580h-94v18c0 46 3 100 7 133h-1
c-5 -17 -28 -58 -79 -113l-76 -85h-121zM256 264v88h-57c-49 0 -58 -20 -58 -52v-36c0 -32 9 -52 58 -52c48 0 57 20 57 52z" />
    <glyph glyph-name="dvM_RA" horiz-adv-x="591" 
d="M435 -5v36c0 21 2 71 7 110c-1 1 -1 0 -1 0c-6 -17 -28 -55 -78 -111l-77 -85h-119l268 300v133h-104v-110c0 -85 -43 -139 -152 -139s-153 53 -153 138v61c0 85 44 135 154 135h55v112h-267v85h655v-85h-90v-580h-98zM331 463h104v112h-104v-112zM235 271v107h-55
c-49 0 -57 -21 -57 -53v-55c0 -32 7 -54 56 -54c48 0 56 23 56 55z" />
    <glyph glyph-name="dvY_RA" horiz-adv-x="512" 
d="M51 -8l145 131c-96 12 -153 67 -153 175v111h22c80 0 99 13 99 68v35c0 36 -9 63 -59 63h-137v85h575v-85h-89v-575h-100v153c-2 -1 -3 -3 -5 -4l-168 -157h-130zM246 212c85 0 108 35 108 97v266h-111c12 -12 19 -32 19 -63v-52c0 -80 -42 -117 -121 -120v-31
c0 -62 22 -97 105 -97z" />
    <glyph glyph-name="dvV_RA" horiz-adv-x="442" 
d="M25 -36l127 134c-75 11 -105 51 -105 127v138c0 91 47 142 156 142c34 0 65 -8 81 -20v90h-316v85h505v-85h-89v-575h-100v117c-2 -2 -4 -3 -6 -4l-139 -149h-114zM288 224v141c-1 35 -22 54 -72 54c-52 0 -71 -20 -71 -56v-136c0 -37 19 -58 71 -58c50 0 71 20 72 55z
" />
    <glyph glyph-name="dvSH_RA" horiz-adv-x="601" 
d="M443 0v214c-14 -21 -38 -54 -72 -88l-111 -115l-120 7l178 183l-104 75l-82 -80l-116 16l125 120c-63 49 -87 83 -87 158v33c0 92 47 142 152 142c104 0 149 -50 149 -142v-33c0 -72 -26 -103 -75 -150l101 -74l62 64v330h190v-85h-90v-575h-100zM259 481v42
c0 32 -7 54 -53 54c-47 0 -54 -22 -54 -54v-42c0 -40 25 -58 54 -82c28 24 53 42 53 82z" />
    <glyph glyph-name="dvS_RA" horiz-adv-x="652" 
d="M360 155l-110 16l182 152h-118c-21 -18 -53 -27 -90 -27c-28 0 -56 5 -75 21v-147c0 -49 16 -79 84 -79h132v-91h-132c-135 0 -182 55 -182 169v310h98v-38c0 -32 8 -56 57 -56c48 0 56 24 56 56v78c0 31 -11 56 -59 56h-235v85h715v-85h-89v-575h-94v141
c0 52 -2 99 4 149c0 1 -1 1 -1 1c-12 -17 -47 -49 -84 -83zM357 409h137v166h-155c16 -14 22 -36 22 -64v-72c0 -10 -2 -23 -4 -30z" />
    <glyph glyph-name="dvH_RA" horiz-adv-x="491" 
d="M43 141v54c0 47 17 74 49 91c-31 16 -47 47 -48 92v10c0 88 50 121 156 121h101v66h-333v85h555v-85h-122v-150h-201c-43 0 -56 -15 -56 -44v-9c0 -29 14 -44 57 -44h128c96 0 133 -36 133 -120v-42h-91v34c0 16 -2 29 -8 37l-88 -114l-89 7l95 121h-73
c-50 0 -64 -21 -64 -53v-51c0 -50 21 -79 123 -79c71 0 132 9 180 18v-86c-38 -10 -118 -20 -186 -20c-162 0 -218 60 -218 161z" />
    <glyph glyph-name="dvKx_RA" horiz-adv-x="625" 
d="M36 -45l108 132c-61 12 -89 47 -89 119v158c0 92 44 141 145 141c26 0 56 -7 71 -20v90h-303v85h689v-85h-288v-89c16 12 45 19 70 19c101 0 144 -52 144 -141v-158c0 -89 -40 -140 -140 -139c-6 0 -16 1 -19 2v92c51 -1 63 15 63 53v147c0 33 -10 56 -59 56
c-50 0 -59 -22 -59 -56v-361h-98v103c-2 -2 -5 -4 -8 -6l-112 -142h-115zM211 155c48 0 59 20 60 52v154c0 34 -10 56 -60 56s-60 -22 -60 -56v-151c0 -34 10 -55 60 -55zM182 -103c0 32 13 57 57 57s57 -25 57 -57c0 -33 -13 -58 -57 -58s-57 25 -57 58z" />
    <glyph glyph-name="dvKHx_RA" horiz-adv-x="764" 
d="M71 -86l161 104c-140 1 -188 56 -188 165v263h96v-69c0 -32 9 -53 57 -53c49 0 57 21 57 53v142c0 32 -11 55 -60 56h-225v85h825v-85h-89v-575h-98v131c-15 -13 -40 -17 -66 -17c-30 0 -52 3 -70 12c-5 -39 -21 -66 -48 -84l-206 -144l-146 14v2zM394 186v170
c0 92 34 143 143 143c26 0 53 -5 70 -18v94h-277c12 -14 18 -32 18 -56v-145c0 -91 -35 -139 -138 -139c-26 0 -56 7 -70 19v-68c0 -62 29 -94 120 -94h10c92 0 124 32 124 94zM546 412c-50 0 -61 -22 -61 -55v-107c1 -31 13 -51 61 -51c50 0 61 22 61 55v103
c0 33 -11 55 -61 55zM436 -57c0 32 13 57 57 57s57 -25 57 -57c0 -33 -13 -58 -57 -58s-57 25 -57 58z" />
    <glyph glyph-name="dvGx_RA" horiz-adv-x="484" 
d="M-32 575v85h548v-85h-90v-575h-95v54c0 66 5 117 10 137h-2c-11 -23 -44 -64 -90 -114l-68 -77h-119l264 311v264h-116v-208c0 -89 -46 -151 -154 -151c-16 0 -38 2 -38 2v96s24 -1 38 -1c47 0 54 25 54 56v206h-142zM205 -87c0 32 13 57 57 57s57 -25 57 -57
c0 -33 -13 -58 -57 -58s-57 25 -57 58z" />
    <glyph glyph-name="dvGHx_RA" horiz-adv-x="498" 
d="M30 -50l1 2l149 140c-88 11 -130 54 -130 137v42c0 45 17 84 54 99c-35 18 -48 46 -48 98v53c0 26 6 43 19 54h-107v85h562v-85h-90v-575h-100v120l-178 -170h-132zM340 575h-129c-40 0 -55 -17 -55 -54v-50c0 -32 10 -54 60 -54h40v-93h-43c-51 0 -63 -23 -63 -56v-29
c0 -55 29 -71 88 -71c68 0 102 20 102 82v325zM222 -110c0 32 13 57 57 57s57 -25 57 -57c0 -33 -13 -58 -57 -58s-57 25 -57 58z" />
    <glyph glyph-name="dvNGx_RA" horiz-adv-x="578" 
d="M342 -123l-53 118h-10l-53 -118h-104l68 135c-47 21 -71 61 -71 120v28h100v-25c0 -32 17 -53 70 -53c54 0 70 21 70 53v32c0 31 -12 53 -62 53h-22c-102 0 -157 39 -157 130v24c0 91 52 130 157 130h55v71h-362v85h642v-85h-180v-158h-155c-44 0 -57 -19 -57 -48v-15
c0 -30 12 -49 57 -49h22c111 0 162 -44 162 -135v-38c0 -63 -26 -104 -79 -124l66 -131h-104zM455 337c0 33 13 58 58 58c44 0 57 -25 57 -58c0 -32 -13 -57 -57 -57c-45 0 -58 25 -58 57zM-16 -16c0 33 12 58 57 58c43 0 57 -25 57 -58c0 -32 -14 -57 -57 -57
c-45 0 -57 25 -57 57z" />
    <glyph glyph-name="dvCx_RA" horiz-adv-x="476" 
d="M59 -31l117 130c-67 13 -100 52 -100 129v109c0 26 6 45 20 58h-76v90h253v-87h-37c-47 -1 -60 -26 -60 -57v-110c0 -36 17 -60 71 -60c57 0 71 24 71 60v344h-350v85h540v-85h-89v-575h-101v121c-2 -2 -5 -4 -7 -6l-132 -146h-120zM209 -108c0 32 13 57 57 57
s57 -25 57 -57c0 -33 -13 -58 -57 -58s-57 25 -57 58z" />
    <glyph glyph-name="dvCHx_RA" horiz-adv-x="581" 
d="M376 -116l-58 126h-2l-57 -126h-103l68 133c-90 17 -126 63 -126 146v29c0 43 16 77 53 93c-36 17 -47 49 -47 95v131c0 31 8 51 22 64h-158v85h645v-85h-145v-92c46 -17 64 -60 64 -124v-187c0 -88 -33 -137 -121 -154l68 -134h-103zM434 176v169c0 46 -16 68 -68 68
c-35 0 -54 -10 -54 -10v85s26 10 63 10v77h-109c-49 0 -62 -22 -62 -66v-125c0 -33 10 -54 61 -54h64v-89h-61c-51 0 -69 -15 -69 -56v-17c0 -53 19 -68 117 -68c99 0 118 21 118 76zM-1 -27c0 32 13 57 56 57c44 0 58 -25 58 -57s-14 -58 -58 -58c-43 0 -56 26 -56 58z" />
    <glyph glyph-name="dvJx_RA" horiz-adv-x="608" 
d="M161 -55l1 2l288 297v156h-131c14 -17 20 -37 20 -65v-71c0 -91 -50 -145 -158 -145c-110 0 -158 55 -158 146v41h99v-38c0 -32 8 -57 59 -57c48 0 58 25 58 57v68c0 33 -13 58 -63 58h-59v92h333v89h-482v85h671v-85h-89v-575h-100v16c0 14 -1 62 4 110l-1 1
c-9 -24 -40 -56 -84 -99l-86 -83h-122zM-7 8c0 32 13 57 57 57s57 -25 57 -57c0 -33 -13 -58 -57 -58s-57 25 -57 58z" />
    <glyph glyph-name="dvJHx_RA" horiz-adv-x="687" 
d="M536 -6v29c0 22 1 52 5 84l-1 1c-8 -24 -27 -56 -62 -98l-80 -94h-114l229 276l-1 48h-166c14 -14 21 -35 21 -61v-35c0 -91 -33 -136 -149 -136c-29 0 -58 5 -73 19v-87h-98v233h98v-22c0 -34 12 -54 61 -54s60 20 60 54v31c0 29 -11 53 -59 53h-2
c-93 0 -151 36 -151 130v9c0 91 51 130 157 130h122v71h-365v85h750v-85h-90v-581h-92zM433 417h-222c-43 0 -57 -16 -57 -46v-5c0 -30 13 -46 56 -46h319v255h-96v-158zM149 -161c0 32 13 57 57 57s57 -25 57 -57c0 -33 -13 -58 -57 -58s-57 25 -57 58z" />
    <glyph glyph-name="dvNYx_RA" horiz-adv-x="627" 
d="M465 225l-1 37h-105v-35c-5 -82 -52 -131 -157 -131c-111 0 -158 55 -158 146v28h100v-25c0 -33 7 -57 58 -57c50 0 57 24 57 57v117c0 32 -7 56 -57 56c-51 0 -58 -24 -58 -56v-26h-100v28c0 92 47 146 158 146c108 0 155 -52 157 -139v-23h110v227h-501v85h691v-85h-90
v-575h-100v48c0 22 0 46 5 78l-2 1c-9 -25 -25 -56 -62 -98l-94 -103h-116zM21 -8c0 32 13 57 57 57s57 -25 57 -57c0 -33 -13 -58 -57 -58s-57 25 -57 58z" />
    <glyph glyph-name="dvTTx_RA" horiz-adv-x="504" 
d="M365 -123l-53 118h-10l-53 -118h-104l69 137c-47 23 -69 66 -69 126v215c0 97 51 141 162 141h38v79h-377v85h568v-85h-91v-170h-138c-51 0 -61 -21 -61 -53v-211c0 -32 11 -56 62 -56s63 24 63 56v88h100v-89c0 -60 -23 -104 -70 -127l68 -136h-104zM9 -15
c0 32 13 57 57 57s57 -25 57 -57s-13 -58 -57 -58s-57 26 -57 58z" />
    <glyph glyph-name="dvTTHx_RA" horiz-adv-x="518" 
d="M369 -124l-54 119h-5h-3l-54 -119h-104l69 137c-48 23 -71 67 -71 128v226c0 76 36 124 113 137v71h-292v85h582v-85h-190v-71c76 -13 113 -61 113 -137v-226c0 -60 -23 -104 -70 -128l70 -137h-104zM375 140v225c0 32 -13 58 -65 58s-65 -26 -65 -58v-225
c0 -33 13 -58 65 -58s65 25 65 58zM11 -8c0 32 13 57 57 57s57 -25 57 -57c0 -33 -13 -58 -57 -58s-57 25 -57 58z" />
    <glyph glyph-name="dvDDx_RA" horiz-adv-x="514" 
d="M362 -123l-53 118h-2h-8l-53 -118h-104l68 134c-49 21 -73 61 -73 121v28h100v-25c0 -32 16 -53 70 -53c53 0 70 21 70 53v32c0 31 -12 53 -63 53h-21c-103 0 -157 39 -157 130v24c0 91 51 130 157 130h54v71h-379v85h578v-85h-99v-158h-154c-45 0 -57 -19 -57 -48v-15
c0 -30 12 -49 57 -49h21c111 0 163 -44 163 -135v-38c0 -62 -26 -103 -78 -123l67 -132h-104zM6 -15c0 32 13 57 57 57s57 -25 57 -57c0 -33 -13 -58 -57 -58s-57 25 -57 58z" />
    <glyph glyph-name="dvDDHx_RA" horiz-adv-x="515" 
d="M369 -127l-55 122h-7l-55 -122h-103l69 137c-54 23 -79 70 -79 138v212c0 97 50 141 161 141h50v74h-382v85h579v-85h-98v-165h-149c-51 0 -62 -21 -62 -53v-206c0 -39 13 -65 71 -65s71 25 71 63v25c0 39 -19 51 -48 51c-23 0 -35 -8 -35 -8v89s19 8 48 8
c83 0 132 -39 132 -137v-32c0 -67 -23 -112 -74 -134l70 -138h-104zM12 -11c0 32 13 57 57 57s58 -25 58 -57s-14 -57 -58 -57s-57 25 -57 57z" />
    <glyph glyph-name="dvNNx_RA" horiz-adv-x="631" 
d="M391 86l-88 -86h-122l293 309v266h-108v-217c0 -92 -49 -146 -160 -146s-160 54 -160 146v217h-78v85h695v-85h-90v-575h-99v56c0 70 5 114 9 140h-1c-11 -23 -45 -64 -91 -110zM206 304c51 0 60 24 60 56v215h-120v-215c0 -32 9 -56 60 -56zM25 99c0 32 13 57 57 57
s57 -25 57 -57c0 -33 -13 -58 -57 -58s-57 25 -57 58z" />
    <glyph glyph-name="dvTx_RA" horiz-adv-x="471" 
d="M34 33v2l265 290c9 11 13 16 14 23c0 31 -15 54 -87 54s-92 -27 -92 -74v-55h-97v61c0 100 51 159 177 159c51 0 85 -11 99 -27v109h-344v85h534v-85h-90v-575h-95v110c0 33 2 94 6 117l-1 1c-12 -24 -41 -61 -56 -78l-107 -117h-126zM174 -79c0 32 13 57 57 57
s57 -25 57 -57c0 -33 -13 -58 -57 -58s-57 25 -57 58z" />
    <glyph glyph-name="dvTHx_RA" horiz-adv-x="578" 
d="M53 -44l1 3l177 142c-125 11 -181 77 -181 194v105h110c69 0 94 19 94 80v40c0 35 -4 55 -47 55c-41 0 -48 -20 -48 -55v-44h-96v40c0 94 40 149 142 149c103 0 140 -51 140 -145v-54c0 -103 -52 -154 -173 -154h-21v-14c0 -79 28 -119 137 -119c104 0 131 44 132 127
v354h189v-85h-89v-575h-100v139l-220 -183h-147zM284 -88c0 32 13 57 57 57s57 -25 57 -57c0 -33 -13 -58 -57 -58s-57 25 -57 58z" />
    <glyph glyph-name="dvDx_RA" horiz-adv-x="420" 
d="M34 -66l110 154c-70 11 -103 48 -103 123v146c0 102 52 142 164 142h54v76h-291v85h484v-85h-93v-168h-154c-52 0 -64 -20 -64 -52v-141c0 -33 14 -54 66 -54s66 21 66 54v60h98v-278h-98v110c-2 -2 -4 -3 -7 -5l-121 -167h-111zM206 -114c0 32 13 57 57 57
s57 -25 57 -57c0 -33 -13 -58 -57 -58s-57 25 -57 58z" />
    <glyph glyph-name="dvDHx_RA" horiz-adv-x="496" 
d="M28 -50l1 2l149 140c-88 10 -130 54 -130 137v47c0 50 15 86 52 101c-35 17 -46 50 -46 95v49c0 26 6 43 19 54h-105v85h277v-85h-36c-40 0 -55 -17 -55 -54v-46c0 -32 10 -53 61 -54h39v-92h-43c-51 0 -63 -24 -63 -56v-34c0 -55 29 -71 88 -71c68 0 102 20 102 82v410
h190v-85h-90v-575h-100v120l-178 -170h-132zM237 -89c0 32 13 57 57 57s57 -25 57 -57c0 -33 -13 -58 -57 -58s-57 25 -57 58z" />
    <glyph glyph-name="dvNx_RA" horiz-adv-x="597" 
d="M439 393h-115c8 -13 11 -29 11 -49v-60c0 -91 -43 -142 -148 -142s-150 51 -150 142v60c0 91 45 141 150 141h252v90h-471v85h661v-85h-90v-575h-94v21c0 44 0 97 4 132h-1c-3 -14 -44 -69 -81 -111l-71 -78h-119l262 299v130zM240 284v57c0 32 -10 52 -53 52
s-54 -20 -54 -52v-57c0 -31 11 -52 54 -52s53 20 53 52zM342 -103c0 32 13 57 57 57s57 -25 57 -57c0 -33 -13 -58 -57 -58s-57 25 -57 58z" />
    <glyph glyph-name="dvPx_RA" horiz-adv-x="441" 
d="M19 0l136 183c-75 12 -103 55 -103 132v260h-84v85h504v-85h-89v-575h-100v201l-149 -201h-115zM283 575h-131v-257c0 -33 12 -57 65 -57c54 0 66 24 66 57v257zM156 -80c0 32 13 57 57 57s57 -25 57 -57c0 -33 -13 -58 -57 -58s-57 25 -57 58z" />
    <glyph glyph-name="dvPHx_RA" horiz-adv-x="629" 
d="M30 -10l122 176c-68 11 -98 48 -98 123v286h-86v85h693v-85h-287v-94c17 12 42 20 70 20c103 0 147 -55 147 -144v-151c0 -90 -44 -141 -144 -140c-6 0 -14 1 -17 1v93c49 -1 61 17 61 54v140c0 32 -10 54 -59 54c-47 0 -58 -20 -58 -51v-357h-99v181c-1 0 -1 -1 -2 -1
l-130 -190h-113zM275 575h-121v-283c0 -33 12 -54 60 -54c49 0 61 21 61 54v283zM161 -94c0 32 13 57 57 57s57 -25 57 -57c0 -33 -13 -58 -57 -58s-57 25 -57 58z" />
    <glyph glyph-name="dvBx_RA" horiz-adv-x="446" 
d="M39 -45l114 124c-79 12 -112 57 -112 136v144c0 94 48 147 162 147c38 0 70 -9 88 -24v93h-323v85h510v-85h-90v-575h-97v99c-4 -3 -8 -6 -12 -8l-124 -136h-116zM214 421c-45 0 -65 -14 -73 -37l150 -117v87c0 41 -16 67 -77 67zM214 153c49 0 68 17 74 43l-151 119v-95
c0 -39 15 -67 77 -67zM203 -110c0 32 13 57 57 57s57 -25 57 -57c0 -33 -13 -58 -57 -58s-57 25 -57 58z" />
    <glyph glyph-name="dvBHx_RA" horiz-adv-x="616" 
d="M462 248v104h-110v-91c0 -85 -46 -136 -153 -136c-110 0 -155 51 -155 136v42c0 85 45 134 155 134h57v81c0 32 -8 54 -54 54c-47 0 -55 -22 -55 -54v-33h-100v36c0 91 47 144 155 144c107 0 154 -53 154 -144v-84h106v223h189v-85h-89v-580h-94v18c0 46 3 100 7 133h-1
c-5 -17 -28 -58 -79 -113l-76 -85h-121zM256 264v88h-57c-49 0 -58 -20 -58 -52v-36c0 -32 9 -52 58 -52c48 0 57 20 57 52zM356 -108c0 32 13 57 57 57s57 -25 57 -57c0 -33 -13 -58 -57 -58s-57 25 -57 58z" />
    <glyph glyph-name="dvMx_RA" horiz-adv-x="591" 
d="M435 -5v36c0 21 2 71 7 110c-1 1 -1 0 -1 0c-6 -17 -28 -55 -78 -111l-77 -85h-119l268 300v133h-104v-110c0 -85 -43 -139 -152 -139s-153 53 -153 138v61c0 85 44 135 154 135h55v112h-267v85h655v-85h-90v-580h-98zM331 463h104v112h-104v-112zM235 271v107h-55
c-49 0 -57 -21 -57 -53v-55c0 -32 7 -54 56 -54c48 0 56 23 56 55zM339 -109c0 32 13 57 57 57s57 -25 57 -57c0 -33 -13 -58 -57 -58s-57 25 -57 58z" />
    <glyph glyph-name="dvYx_RA" horiz-adv-x="512" 
d="M51 -8l145 131c-96 12 -153 67 -153 175v111h22c80 0 99 13 99 68v35c0 36 -9 63 -59 63h-137v85h575v-85h-89v-575h-100v153c-2 -1 -3 -3 -5 -4l-168 -157h-130zM246 212c85 0 108 35 108 97v266h-111c12 -12 19 -32 19 -63v-52c0 -80 -42 -117 -121 -120v-31
c0 -62 22 -97 105 -97zM222 -79c0 32 13 57 57 57s57 -25 57 -57c0 -33 -13 -58 -57 -58s-57 25 -57 58z" />
    <glyph glyph-name="dvVx_RA" horiz-adv-x="442" 
d="M25 -36l127 134c-75 11 -105 51 -105 127v138c0 91 47 142 156 142c34 0 65 -8 81 -20v90h-316v85h505v-85h-89v-575h-100v117c-2 -2 -4 -3 -6 -4l-139 -149h-114zM288 224v141c-1 35 -22 54 -72 54c-52 0 -71 -20 -71 -56v-136c0 -37 19 -58 71 -58c50 0 71 20 72 55z
M216 -108c0 32 13 57 57 57s57 -25 57 -57c0 -33 -13 -58 -57 -58s-57 25 -57 58z" />
    <glyph glyph-name="dvK_R" horiz-adv-x="455" 
d="M36 -45l108 132c-61 12 -89 47 -89 119v158c0 92 44 141 145 141c30 0 56 -8 71 -20v90h-303v85h655v-85h-254v-90c19 12 43 18 77 18c107 0 148 -48 148 -138v-8h-90v8c0 31 -14 52 -68 52c-55 0 -67 -22 -67 -56v-361h-98v103c-2 -2 -5 -4 -8 -6l-112 -142h-115z
M211 155c48 0 59 20 60 52v154c0 34 -10 56 -60 56s-60 -22 -60 -56v-151c0 -34 10 -55 60 -55z" />
    <glyph glyph-name="dvKH_R" horiz-adv-x="564" 
d="M217 -102l-146 14v2l161 104c-136 1 -189 54 -189 165v263h96v-69c0 -32 9 -53 58 -53c48 0 57 21 57 53v142c0 32 -12 55 -61 56h-225v85h738v-85h-376c11 -14 17 -32 17 -56v-145c0 -91 -34 -139 -138 -139c-26 0 -55 7 -70 19v-68c0 -62 30 -96 120 -96h11
c91 0 124 34 124 96v171c0 91 37 140 152 140c114 0 152 -49 152 -140v-103c0 -96 -38 -140 -152 -140c-34 0 -57 5 -73 17c-6 -41 -24 -71 -56 -94zM606 254v103c0 33 -11 55 -60 55c-50 0 -61 -22 -61 -55v-107c0 -31 12 -51 61 -51s60 22 60 55z" />
    <glyph glyph-name="dvG_R" horiz-adv-x="270" 
d="M319 660v-85h-109v-204c0 -96 -50 -145 -145 -145c-20 0 -36 3 -47 5v96c6 -2 20 -5 34 -5c44 0 58 20 58 56v197h-142v85h351zM351 343v-125c-15 -31 -42 -72 -98 -136l-72 -82h-120z" />
    <glyph glyph-name="dvGH_R" horiz-adv-x="301" 
d="M42 -74l1 2l174 149c-112 5 -171 56 -171 151v42c0 46 17 82 54 97c-34 18 -48 47 -48 98v56c0 26 7 43 19 54h-103v85h474v-85h-237c-38 0 -53 -17 -53 -54v-53c0 -32 10 -54 61 -54h39v-93h-42c-52 0 -64 -22 -64 -54v-28c0 -56 38 -73 96 -73c73 0 100 20 100 84v17
h100v-17c0 -60 -10 -98 -49 -133l-220 -191h-131z" />
    <glyph glyph-name="dvC_R" horiz-adv-x="296" 
d="M436 660v-85h-468v85h468zM72 -67l157 151c-111 6 -153 59 -153 152v101c0 26 6 45 20 58h-82v90h259v-87h-37c-47 0 -60 -25 -60 -57v-102c0 -45 17 -67 79 -67c63 0 81 22 81 67v24h100v-24c0 -50 -6 -82 -37 -113l-201 -193h-126z" />
    <glyph glyph-name="dvJ_R" horiz-adv-x="395" 
d="M486 660v-85h-518v85h518zM486 486v-86h-167c14 -17 20 -37 20 -65v-71c0 -91 -50 -145 -158 -145c-110 0 -158 55 -158 146v41h99v-38c0 -32 8 -57 59 -57c48 0 58 25 58 57v68c0 33 -13 58 -63 58h-59v92h369zM170 -53l316 325v-100c-14 -28 -44 -80 -95 -134l-100 -93
h-122z" />
    <glyph glyph-name="dvJH_R" horiz-adv-x="474" 
d="M551 240h-205c14 -14 21 -35 21 -61v-35c0 -91 -33 -136 -149 -136c-29 0 -58 5 -73 19v-87h-98v233h98v-22c0 -34 12 -54 61 -54s60 20 60 54v31c0 29 -11 53 -59 53h-2c-93 0 -151 36 -151 130v9c0 91 51 130 157 130h122v71h-365v85h580v-85h-115v-158h-222
c-43 0 -57 -16 -57 -46v-5c0 -30 13 -46 56 -46h341v-80zM551 239v-121c-9 -24 -38 -66 -73 -108l-80 -94h-114z" />
    <glyph glyph-name="dvNY_R" horiz-adv-x="413" 
d="M492 660v-85h-524v85h524zM492 348v-86h-133v-35c-2 -82 -52 -131 -157 -131c-111 0 -158 55 -158 146v28h100v-25c0 -33 7 -57 58 -57c50 0 57 24 57 57v117c0 32 -7 56 -57 56c-51 0 -58 -24 -58 -56v-26h-100v28c0 92 47 146 158 146c108 0 155 -52 157 -139v-23h133z
M492 256v-96c-8 -24 -38 -80 -79 -127l-97 -107h-116z" />
    <glyph glyph-name="dvNN_R" horiz-adv-x="411" 
d="M495 660v-85h-129v-217c0 -92 -49 -146 -160 -146s-160 54 -160 146v217h-78v85h527zM206 304c51 0 60 24 60 56v215h-120v-215c0 -32 9 -56 60 -56zM181 0l314 336v-113c-21 -35 -59 -90 -104 -137l-88 -86h-122z" />
    <glyph glyph-name="dvT_R" horiz-adv-x="278" 
d="M427 660v-85h-459v85h459zM406 334c0 0 -55 -87 -107 -149l-140 -152h-126l1 2l251 275c9 10 27 29 27 36c0 31 -15 56 -87 56c-71 0 -91 -27 -91 -74v-55h-98v61c0 100 51 159 178 159c139 0 192 -59 192 -159z" />
    <glyph glyph-name="dvTH_R" horiz-adv-x="375" 
d="M44 -75l1 4l210 161c-140 5 -208 75 -208 201v109h110c70 0 97 17 97 78v41c0 35 -4 56 -47 56c-41 0 -48 -21 -48 -56v-43h-96v40c0 94 40 149 142 149c103 0 140 -52 140 -146v-55c0 -103 -54 -152 -176 -152h-20v-18c0 -75 23 -113 131 -113c112 0 135 41 135 129h100
c0 -130 -40 -156 -132 -231l-192 -154h-147z" />
    <glyph glyph-name="dvD_R" horiz-adv-x="420" 
d="M34 -66l110 154c-70 11 -103 48 -103 123v146c0 102 52 142 164 142h54v76h-291v85h484v-85h-93v-168h-154c-52 0 -64 -20 -64 -52v-141c0 -33 14 -54 66 -54s66 21 66 54v60h98v-278h-98v110c-2 -2 -4 -3 -7 -5l-121 -167h-111zM494 -223h-106l-102 160h91z" />
    <glyph glyph-name="dvDH_R" horiz-adv-x="302" 
d="M45 -81l1 2l174 158c-114 5 -174 55 -174 151v47c0 50 16 84 53 99c-35 18 -47 50 -47 96v49c0 26 7 43 19 54h-103v85h260v-85h-23c-36 0 -53 -17 -53 -54v-46c0 -33 11 -54 61 -55h40v-92h-43c-51 0 -64 -22 -64 -54v-34c0 -55 38 -72 96 -72c73 0 100 19 100 84v15
h100v-15c0 -78 -20 -107 -83 -166l-183 -167h-131z" />
    <glyph glyph-name="dvN_R" horiz-adv-x="389" 
d="M489 660v-85h-521v85h521zM489 485v-92h-170c7 -12 11 -29 11 -49v-60c0 -91 -44 -142 -149 -142s-150 51 -150 142v60c0 91 45 141 150 141h308zM235 284v57c0 32 -11 52 -54 52s-54 -20 -54 -52v-57c0 -31 11 -52 54 -52s54 20 54 52zM489 330v-104
c-17 -31 -78 -126 -128 -184l-71 -78h-119z" />
    <glyph glyph-name="dvP_R" horiz-adv-x="251" 
d="M33 -18l166 192c-102 5 -148 54 -148 150v251h-83v85h419v-85h-236v-247c0 -41 13 -66 71 -66s71 24 71 66v18h94v-28c0 -64 -23 -89 -68 -141l-169 -195h-117z" />
    <glyph glyph-name="dvPH_R" horiz-adv-x="472" 
d="M29 -10l121 175c-67 11 -98 50 -98 124v286h-84v85h634v-85h-230v-97c17 14 41 21 80 21c111 0 150 -53 150 -139v-8h-91v8c0 32 -15 53 -69 53c-50 0 -70 -19 -70 -56v-357h-99v182h-1l-131 -192h-112zM273 575h-121v-283c0 -33 12 -54 61 -54c46 0 60 20 60 54v283z
" />
    <glyph glyph-name="dvB_R" horiz-adv-x="258" 
d="M-32 575v85h443v-85h-443zM26 -76l159 157c-100 9 -144 60 -144 149v123c0 98 47 153 175 153c120 0 173 -53 173 -153v-123c0 -74 -36 -106 -93 -163l-145 -143h-125zM218 421c-45 0 -67 -13 -76 -37l157 -115v81c0 47 -21 71 -81 71zM137 233c0 -46 18 -71 81 -71
c46 0 69 14 77 41l-158 116v-86z" />
    <glyph glyph-name="dvBH_R" horiz-adv-x="437" 
d="M506 437v-85h-154v-91c0 -85 -46 -136 -153 -136c-110 0 -155 51 -155 136v42c0 85 45 134 155 134h57v81c0 32 -8 54 -54 54c-47 0 -55 -22 -55 -54v-33h-100v36c0 91 47 144 155 144c107 0 154 -53 154 -144v-84h150zM256 264v88h-57c-49 0 -58 -20 -58 -52v-36
c0 -32 9 -52 58 -52c48 0 57 20 57 52zM506 299v-107c-15 -30 -61 -103 -107 -154l-80 -90h-121z" />
    <glyph glyph-name="dvM_R" horiz-adv-x="397" 
d="M474 660v-85h-143v-112h143v-85h-143v-110c0 -85 -43 -139 -152 -139s-153 53 -153 138v61c0 85 44 135 154 135h55v112h-267v85h506zM235 271v107h-55c-49 0 -57 -21 -57 -53v-55c0 -32 7 -54 56 -54c48 0 56 23 56 55zM474 290v-103c-21 -37 -69 -108 -111 -157
l-77 -85h-119z" />
    <glyph glyph-name="dvY_R" horiz-adv-x="316" 
d="M48 -34l180 155c-117 6 -185 59 -185 176v112h22c75 0 99 13 99 68v35c0 36 -9 63 -59 63h-137v85h486v-85h-211c12 -12 19 -32 19 -63v-52c0 -80 -42 -117 -121 -120v-31c0 -62 22 -96 105 -96c84 0 108 33 108 95v4h100v-15c0 -74 -27 -108 -88 -163l-187 -168h-131z
" />
    <glyph glyph-name="dvV_R" horiz-adv-x="259" 
d="M393 660v-85h-425v85h425zM234 495v-86c-2 1 -14 2 -22 2c-52 0 -71 -20 -71 -57v-113c0 -36 22 -60 79 -60c58 0 81 24 81 60v30h92v-40c0 -56 -29 -89 -72 -137l-146 -156h-115l147 158c-101 -7 -164 45 -164 130v129c0 91 47 142 167 142c11 0 23 -2 24 -2z" />
    <glyph glyph-name="dvS_R" horiz-adv-x="426" 
d="M360 155l-110 16l182 152h-118c-21 -18 -53 -27 -90 -27c-28 0 -56 5 -75 21v-147c0 -49 16 -79 84 -79h132v-91h-132c-135 0 -182 55 -182 169v310h98v-38c0 -32 8 -56 57 -56c48 0 56 24 56 56v78c0 31 -11 56 -59 56h-235v85h536v-85h-165c16 -14 22 -36 22 -64v-72
c0 -10 -2 -23 -4 -30h147v-117c-13 -17 -48 -50 -85 -84z" />
    <glyph glyph-name="dvKx_R" horiz-adv-x="453" 
d="M35 -45l108 132c-62 12 -89 47 -89 119v158c0 92 43 141 145 141c30 0 56 -8 70 -20v90h-301v85h668v-85h-268v-90c19 12 43 18 77 18c107 0 148 -48 148 -138v-8h-90v8c-1 31 -14 52 -68 52c-55 0 -67 -22 -67 -56v-361h-99v103c-2 -2 -4 -3 -7 -5l-112 -143h-115z
M210 155c48 0 59 20 60 52v154c0 34 -10 56 -60 56s-60 -22 -60 -56v-151c0 -34 10 -55 60 -55zM193 -103c0 33 13 58 58 58c43 0 57 -25 57 -58c0 -32 -14 -57 -57 -57c-45 0 -58 25 -58 57z" />
    <glyph glyph-name="dvKHx_R" horiz-adv-x="564" 
d="M217 -102l-146 14v2l161 104c-136 1 -189 54 -189 165v263h96v-69c0 -32 9 -53 58 -53c48 0 57 21 57 53v142c0 32 -12 55 -61 56h-225v85h738v-85h-376c11 -14 17 -32 17 -56v-145c0 -91 -34 -139 -138 -139c-26 0 -55 7 -70 19v-68c0 -62 30 -96 120 -96h11
c91 0 124 34 124 96v171c0 91 37 140 152 140c114 0 152 -49 152 -140v-103c0 -96 -38 -140 -152 -140c-34 0 -57 5 -73 17c-6 -41 -24 -71 -56 -94zM606 254v103c0 33 -11 55 -60 55c-50 0 -61 -22 -61 -55v-107c0 -31 12 -51 61 -51s60 22 60 55zM478 -22
c0 32 13 57 57 57s57 -25 57 -57c0 -33 -13 -58 -57 -58s-57 25 -57 58z" />
    <glyph glyph-name="dvGx_R" horiz-adv-x="270" 
d="M319 660v-85h-109v-204c0 -96 -50 -145 -145 -145c-20 0 -36 3 -47 5v96c6 -2 20 -5 34 -5c44 0 58 20 58 56v197h-142v85h351zM351 343v-125c-15 -31 -42 -72 -98 -136l-72 -82h-120zM268 -42c0 32 13 57 57 57s57 -25 57 -57c0 -33 -13 -58 -57 -58s-57 25 -57 58z" />
    <glyph glyph-name="dvGHx_R" horiz-adv-x="301" 
d="M42 -74l1 2l174 149c-112 5 -171 56 -171 151v42c0 46 17 82 54 97c-34 18 -48 47 -48 98v56c0 26 7 43 19 54h-103v85h474v-85h-237c-38 0 -53 -17 -53 -54v-53c0 -32 10 -54 61 -54h39v-93h-42c-52 0 -64 -22 -64 -54v-28c0 -56 38 -73 96 -73c73 0 100 20 100 84v17
h100v-17c0 -60 -10 -98 -49 -133l-220 -191h-131zM318 -62c0 32 13 57 57 57s57 -25 57 -57c0 -33 -13 -58 -57 -58s-57 25 -57 58z" />
    <glyph glyph-name="dvCx_R" horiz-adv-x="297" 
d="M437 660v-85h-468v85h468zM73 -67l157 151c-111 6 -153 59 -153 152v101c0 26 6 45 20 58h-82v90h259v-87h-37c-47 0 -60 -25 -60 -57v-102c0 -45 17 -67 79 -67c63 0 81 22 81 67v24h100v-24c0 -50 -6 -82 -37 -113l-201 -193h-126zM325 -58c0 32 13 57 57 57
s57 -25 57 -57c0 -33 -13 -58 -57 -58s-57 25 -57 58z" />
    <glyph glyph-name="dvJx_R" horiz-adv-x="395" 
d="M486 660v-85h-518v85h518zM486 486v-86h-167c14 -17 20 -37 20 -65v-71c0 -91 -50 -145 -158 -145c-110 0 -158 55 -158 146v41h99v-38c0 -32 8 -57 59 -57c48 0 58 25 58 57v68c0 33 -13 58 -63 58h-59v92h369zM170 -53l316 325v-100c-14 -28 -44 -80 -95 -134l-100 -93
h-122zM6 17c0 32 13 57 57 57s57 -25 57 -57c0 -33 -13 -58 -57 -58s-57 25 -57 58z" />
    <glyph glyph-name="dvJHx_R" horiz-adv-x="474" 
d="M551 240h-205c14 -14 21 -35 21 -61v-35c0 -91 -33 -136 -149 -136c-29 0 -58 5 -73 19v-87h-98v233h98v-22c0 -34 12 -54 61 -54s60 20 60 54v31c0 29 -11 53 -59 53h-2c-93 0 -151 36 -151 130v9c0 91 51 130 157 130h122v71h-365v85h580v-85h-115v-158h-222
c-43 0 -57 -16 -57 -46v-5c0 -30 13 -46 56 -46h341v-80zM551 239v-121c-9 -24 -38 -66 -73 -108l-80 -94h-114zM257 -168c0 32 13 57 57 57s57 -25 57 -57c0 -33 -13 -58 -57 -58s-57 25 -57 58z" />
    <glyph glyph-name="dvNYx_R" horiz-adv-x="413" 
d="M492 660v-85h-524v85h524zM492 348v-86h-133v-35c-2 -82 -52 -131 -157 -131c-111 0 -158 55 -158 146v28h100v-25c0 -33 7 -57 58 -57c50 0 57 24 57 57v117c0 32 -7 56 -57 56c-51 0 -58 -24 -58 -56v-26h-100v28c0 92 47 146 158 146c108 0 155 -52 157 -139v-23h133z
M492 256v-96c-8 -24 -38 -80 -79 -127l-97 -107h-116zM21 -11c0 32 13 57 57 57s57 -25 57 -57c0 -33 -13 -58 -57 -58s-57 25 -57 58z" />
    <glyph glyph-name="dvNNx_R" horiz-adv-x="411" 
d="M495 660v-85h-129v-217c0 -92 -49 -146 -160 -146s-160 54 -160 146v217h-78v85h527zM206 304c51 0 60 24 60 56v215h-120v-215c0 -32 9 -56 60 -56zM181 0l314 336v-116c-22 -33 -59 -87 -104 -134l-88 -86h-122zM11 99c0 33 13 58 58 58c43 0 57 -25 57 -58
c0 -32 -14 -57 -57 -57c-45 0 -58 25 -58 57z" />
    <glyph glyph-name="dvTx_R" horiz-adv-x="278" 
d="M427 660v-85h-459v85h459zM406 334c0 0 -55 -87 -107 -149l-140 -152h-126l1 2l251 275c9 10 27 29 27 36c0 31 -15 56 -87 56c-71 0 -91 -27 -91 -74v-55h-98v61c0 100 51 159 178 159c139 0 192 -59 192 -159zM249 -20c0 32 13 57 57 57s57 -25 57 -57
c0 -33 -13 -58 -57 -58s-57 25 -57 58z" />
    <glyph glyph-name="dvTHx_R" horiz-adv-x="375" 
d="M44 -75l1 4l210 161c-140 5 -208 75 -208 201v109h110c70 0 97 17 97 78v41c0 35 -4 56 -47 56c-41 0 -48 -21 -48 -56v-43h-96v40c0 94 40 149 142 149c103 0 140 -52 140 -146v-55c0 -103 -54 -152 -176 -152h-20v-18c0 -75 23 -113 131 -113c112 0 135 41 135 129h100
c0 -130 -40 -156 -132 -231l-192 -154h-147zM356 -54c0 32 13 57 57 57s57 -25 57 -57c0 -33 -13 -58 -57 -58s-57 25 -57 58z" />
    <glyph glyph-name="dvDx_R" horiz-adv-x="420" 
d="M34 -66l110 154c-70 11 -103 48 -103 123v146c0 102 52 142 164 142h54v76h-291v85h484v-85h-93v-168h-154c-52 0 -64 -20 -64 -52v-141c0 -33 14 -54 66 -54s66 21 66 54v60h98v-278h-98v110c-2 -2 -4 -3 -7 -5l-121 -167h-111zM206 -100c0 32 13 57 57 57
s57 -25 57 -57c0 -33 -13 -58 -57 -58s-57 25 -57 58zM466 -360h-106l-102 160h91z" />
    <glyph glyph-name="dvDHx_R" horiz-adv-x="302" 
d="M45 -81l1 2l174 158c-114 5 -174 55 -174 151v47c0 50 16 84 53 99c-35 18 -47 50 -47 96v49c0 26 7 43 19 54h-103v85h260v-85h-23c-36 0 -53 -17 -53 -54v-46c0 -33 11 -54 61 -55h40v-92h-43c-51 0 -64 -22 -64 -54v-34c0 -55 38 -72 96 -72c73 0 100 19 100 84v15
h100v-15c0 -78 -20 -107 -83 -166l-183 -167h-131zM303 -64c0 32 13 57 57 57s57 -25 57 -57c0 -33 -13 -58 -57 -58s-57 25 -57 58z" />
    <glyph glyph-name="dvNx_R" horiz-adv-x="389" 
d="M489 660v-85h-521v85h521zM489 485v-92h-170c7 -12 11 -29 11 -49v-60c0 -91 -44 -142 -149 -142s-150 51 -150 142v60c0 91 45 141 150 141h308zM235 284v57c0 32 -11 52 -54 52s-54 -20 -54 -52v-57c0 -31 11 -52 54 -52s54 20 54 52zM489 330v-104
c-17 -31 -78 -126 -128 -184l-71 -78h-119zM387 -55c0 32 13 57 57 57s57 -25 57 -57c0 -33 -13 -58 -57 -58s-57 25 -57 58z" />
    <glyph glyph-name="dvPx_R" horiz-adv-x="254" 
d="M33 -18l166 192c-102 5 -148 54 -148 150v251h-83v85h419v-85h-236v-247c0 -41 13 -66 71 -66s71 24 71 66v18h94v-28c0 -64 -23 -89 -68 -141l-169 -195h-117zM251 -42c0 32 13 57 57 57s57 -25 57 -57c0 -33 -13 -58 -57 -58s-57 25 -57 58z" />
    <glyph glyph-name="dvPHx_R" horiz-adv-x="472" 
d="M29 -10l121 175c-67 11 -98 50 -98 124v286h-84v85h634v-85h-230v-97c17 14 41 21 80 21c111 0 150 -53 150 -139v-8h-91v8c0 32 -15 53 -69 53c-50 0 -70 -19 -70 -56v-357h-99v182h-1l-131 -192h-112zM273 575h-121v-283c0 -33 12 -54 61 -54c46 0 60 20 60 54v283z
M155 -102c0 32 13 57 57 57s57 -25 57 -57c0 -33 -13 -58 -57 -58s-57 25 -57 58z" />
    <glyph glyph-name="dvBx_R" horiz-adv-x="258" 
d="M-32 575v85h443v-85h-443zM26 -76l159 157c-100 9 -144 60 -144 149v123c0 98 47 153 175 153c120 0 173 -53 173 -153v-123c0 -74 -36 -106 -93 -163l-145 -143h-125zM218 421c-45 0 -67 -13 -76 -37l157 -115v81c0 47 -21 71 -81 71zM137 233c0 -46 18 -71 81 -71
c46 0 69 14 77 41l-158 116v-86zM280 -71c0 32 13 57 57 57s57 -25 57 -57c0 -33 -13 -58 -57 -58s-57 25 -57 58z" />
    <glyph glyph-name="dvBHx_R" horiz-adv-x="430" 
d="M506 437v-85h-154v-91c0 -85 -46 -136 -153 -136c-110 0 -155 51 -155 136v42c0 85 45 134 155 134h57v81c0 32 -8 54 -54 54c-47 0 -55 -22 -55 -54v-33h-100v36c0 91 47 144 155 144c107 0 154 -53 154 -144v-84h150zM256 264v88h-57c-49 0 -58 -20 -58 -52v-36
c0 -32 9 -52 58 -52c48 0 57 20 57 52zM506 299v-107c-15 -30 -61 -103 -107 -154l-80 -90h-121zM409 -61c0 32 13 57 57 57s57 -25 57 -57c0 -33 -13 -58 -57 -58s-57 25 -57 58z" />
    <glyph glyph-name="dvMx_R" horiz-adv-x="398" 
d="M474 660v-85h-143v-112h143v-85h-143v-110c0 -85 -43 -139 -152 -139s-153 53 -153 138v61c0 85 44 135 154 135h55v112h-267v85h506zM235 271v107h-55c-49 0 -57 -21 -57 -53v-55c0 -32 7 -54 56 -54c48 0 56 23 56 55zM474 290v-103c-21 -37 -69 -108 -111 -157
l-77 -85h-119zM386 -70c0 32 13 57 57 57s57 -25 57 -57c0 -33 -13 -58 -57 -58s-57 25 -57 58z" />
    <glyph glyph-name="dvYx_R" horiz-adv-x="314" 
d="M48 -34l180 155c-117 6 -185 59 -185 176v112h22c75 0 99 13 99 68v35c0 36 -9 63 -59 63h-137v85h486v-85h-211c12 -12 19 -32 19 -63v-52c0 -80 -42 -117 -121 -120v-31c0 -62 22 -96 105 -96c84 0 108 33 108 95v4h100v-15c0 -74 -27 -108 -88 -163l-187 -168h-131z
M280 -49c0 32 13 57 57 57s57 -25 57 -57c0 -33 -13 -58 -57 -58s-57 25 -57 58z" />
    <glyph glyph-name="dvVx_R" horiz-adv-x="259" 
d="M393 660v-85h-425v85h425zM234 495v-86c-2 1 -14 2 -22 2c-52 0 -71 -20 -71 -57v-113c0 -36 22 -60 79 -60c58 0 81 24 81 60v30h92v-40c0 -56 -29 -89 -72 -137l-146 -156h-115l147 158c-101 -7 -164 45 -164 130v129c0 91 47 142 167 142c11 0 23 -2 24 -2zM248 -76
c0 32 13 57 57 57s57 -25 57 -57c0 -33 -13 -58 -57 -58s-57 25 -57 58z" />
    <glyph glyph-name="dvK_KA" horiz-adv-x="1049" 
d="M839 69v92c51 -1 62 15 62 53v147c0 33 -9 56 -58 56c-50 0 -59 -22 -59 -56v-361h-98v80c-15 -12 -41 -20 -71 -20c-102 0 -145 46 -145 137v164c0 33 -9 56 -59 56s-59 -22 -59 -56v-361h-98v80c-15 -12 -41 -20 -71 -20c-101 0 -145 46 -145 137v167
c0 92 44 141 145 141c30 0 56 -8 71 -20v90h-286v85h1113v-85h-297v-89c16 12 41 19 70 19c101 0 144 -52 144 -141v-158c0 -89 -40 -140 -140 -139c-6 0 -16 1 -19 2zM686 485v90h-334v-89c16 12 42 19 70 19c42 0 72 -10 93 -26c24 17 56 26 100 26c30 0 56 -8 71 -20z
M195 145c48 0 59 21 60 53v163c0 34 -11 56 -60 56c-50 0 -61 -22 -61 -56v-161c0 -33 11 -55 61 -55zM626 145c48 0 59 21 60 53v163c0 34 -10 56 -60 56s-60 -22 -60 -56v-161c0 -33 10 -55 60 -55z" />
    <glyph glyph-name="dvKx_KxA" horiz-adv-x="1038" 
d="M841 69v92c51 -1 63 15 63 53v147c0 33 -10 56 -59 56c-50 0 -59 -22 -59 -56v-361h-98v80c-15 -12 -41 -20 -71 -20c-101 0 -145 46 -145 137v164c0 33 -9 56 -59 56c-49 0 -59 -22 -59 -56v-361h-98v80c-15 -12 -40 -20 -70 -20c-102 0 -145 46 -145 137v167
c0 92 43 141 145 141c30 0 55 -8 70 -20v90h-288v85h1102v-85h-284v-89c16 12 41 19 70 19c101 0 144 -52 144 -141v-158c0 -89 -40 -140 -140 -139c-6 0 -16 1 -19 2zM688 485v90h-334v-89c16 12 42 19 70 19c41 0 71 -11 91 -28c24 18 57 28 102 28c30 0 56 -8 71 -20z
M197 145c48 0 59 21 60 53v163c0 34 -11 56 -60 56c-50 0 -60 -22 -60 -56v-161c0 -33 10 -55 60 -55zM628 145c48 0 59 21 60 53v163c0 34 -10 56 -60 56s-60 -22 -60 -56v-161c0 -33 10 -55 60 -55zM72 -42c0 33 13 58 57 58s57 -25 57 -58c0 -32 -13 -57 -57 -57
s-57 25 -57 57zM503 -42c0 33 13 58 57 58s58 -25 58 -58c0 -32 -14 -57 -58 -57s-57 25 -57 57z" />
    <glyph glyph-name="dvK_KHA" horiz-adv-x="1188" 
d="M687 0c-152 0 -217 62 -217 183v178c0 35 -9 56 -59 56s-59 -22 -59 -56v-361h-98v80c-15 -12 -41 -20 -71 -20c-101 0 -145 46 -145 137v167c0 92 44 141 145 141c30 0 56 -8 71 -20v90h-286v85h1252v-85h-89v-575h-98v131c-15 -13 -40 -17 -66 -17s-47 2 -65 7
c-19 -78 -82 -121 -198 -121h-17zM1033 481v94h-277c12 -14 18 -32 18 -56v-145c0 -91 -35 -139 -138 -139c-26 0 -56 7 -70 19v-68c0 -62 29 -96 120 -96h10c92 0 124 34 124 96v170c0 92 34 143 143 143c26 0 53 -5 70 -18zM434 505c94 0 132 -45 132 -118v-10
c0 -32 9 -53 57 -53c49 0 57 21 57 53v142c0 32 -11 55 -60 56h-268v-90c20 13 48 20 82 20zM195 145c48 0 59 21 60 53v163c0 34 -11 56 -60 56c-50 0 -61 -22 -61 -56v-161c0 -33 11 -55 61 -55zM972 412c-50 0 -61 -22 -61 -55v-103c0 -33 11 -55 61 -55s61 22 61 55v103
c0 33 -11 55 -61 55z" />
    <glyph glyph-name="dvK_CA" horiz-adv-x="904" 
d="M524 346h-58v23c0 34 -11 48 -56 48c-48 0 -56 -22 -56 -56v-361h-98v80c-15 -12 -40 -20 -70 -20c-102 0 -145 46 -145 137v167c0 92 43 141 145 141c30 0 55 -8 70 -20v90h-288v85h968v-85h-90v-575h-100v81c-22 -16 -53 -23 -87 -23c-108 0 -155 50 -155 148v82
c0 27 6 45 20 58zM604 292v-84c0 -39 15 -61 68 -61c55 0 73 21 74 56v372h-392v-89c16 12 42 19 68 19c71 0 113 -22 130 -69h129v-86h-20c-47 0 -57 -26 -57 -58zM197 145c48 0 59 21 60 53v163c0 34 -11 56 -60 56c-50 0 -60 -22 -60 -56v-161c0 -33 10 -55 60 -55z" />
    <glyph glyph-name="dvK_JA" horiz-adv-x="1058" 
d="M900 486v89h-548v-89c16 12 42 19 70 19c104 0 148 -52 148 -141v-170c0 -32 9 -55 62 -55c52 0 63 23 63 55v142c0 38 -13 58 -63 58h-10v92h278zM195 145c48 0 59 21 60 53v163c0 34 -11 56 -60 56c-50 0 -61 -22 -61 -56v-161c0 -33 11 -55 61 -55zM-32 575v85h1121
v-85h-89v-575h-100v400h-124c13 -17 19 -37 19 -65v-144c0 -91 -51 -143 -163 -143s-162 53 -162 145v168c0 33 -9 56 -59 56s-59 -22 -59 -56v-361h-98v80c-15 -12 -41 -20 -71 -20c-101 0 -145 46 -145 137v167c0 92 44 141 145 141c30 0 56 -8 71 -20v90h-286z" />
    <glyph glyph-name="dvK_TTA" horiz-adv-x="829" 
d="M770 405h-139c-50 0 -61 -21 -61 -53v-211c0 -32 12 -56 63 -56c50 0 62 24 62 56v88h100v-88c0 -91 -51 -146 -162 -146c-112 0 -163 55 -163 146v220c0 33 -9 56 -59 56s-59 -22 -59 -56v-361h-98v80c-15 -12 -41 -20 -71 -20c-101 0 -145 46 -145 137v167
c0 92 44 141 145 141c30 0 56 -8 71 -20v90h-286v85h892v-85h-90v-170zM670 496v79h-318v-89c16 12 42 19 70 19c47 0 79 -12 100 -33c26 16 62 24 109 24h39zM195 145c48 0 59 21 60 53v163c0 34 -11 56 -60 56c-50 0 -61 -22 -61 -56v-161c0 -33 11 -55 61 -55z" />
    <glyph glyph-name="dvK_NNA" horiz-adv-x="1073" 
d="M807 575v-318c0 -91 -48 -146 -160 -146c-111 0 -160 55 -160 146v99c0 32 -13 53 -67 53c-56 0 -68 -23 -68 -56v-353h-98v80c-15 -12 -41 -20 -71 -20c-101 0 -145 46 -145 137v167c0 92 44 141 145 141c30 0 56 -8 71 -20v90h-286v85h1136v-85h-89v-575h-100v575h-108
zM429 495c22 0 41 -2 58 -6v86h-135v-99c17 12 41 19 77 19zM707 575h-120v-317c0 -32 10 -56 60 -56c51 0 60 24 60 56v317zM195 145c48 0 59 21 60 53v163c0 34 -11 56 -60 56c-50 0 -61 -22 -61 -56v-161c0 -33 11 -55 61 -55z" />
    <glyph glyph-name="dvK_TA" horiz-adv-x="647" 
d="M443 47v93c52 -1 63 15 63 53v156c0 33 -10 55 -59 55c-48 0 -59 -20 -59 -51v-353h-98v401h-60c-50 0 -60 -23 -60 -56v-152c0 -38 14 -54 66 -53v-93c-7 -1 -15 -2 -22 -2c-100 -1 -140 53 -140 142v158c0 22 4 40 13 57h-70v85h273v88h-322v85h711v-85h-291v-102
c15 12 41 19 70 19c103 0 144 -52 144 -141v-164c0 -89 -40 -143 -140 -142c-5 0 -15 1 -19 2z" />
    <glyph glyph-name="dvKx_TA" horiz-adv-x="886" 
d="M651 93v-93c-6 -1 -18 -2 -25 -2c-106 -1 -144 50 -144 140v210c0 14 1 27 4 40c-7 18 -25 29 -64 29c-56 0 -68 -22 -68 -56v-361h-98v80c-15 -12 -40 -20 -70 -20c-102 0 -145 46 -145 137v167c0 92 43 141 145 141c30 0 55 -8 70 -20v90h-288v85h950v-85h-90v-575
h-100v345c0 36 -17 62 -73 62s-72 -26 -72 -62v-199c0 -38 17 -54 68 -53zM728 479v96h-374v-90c17 12 41 18 77 18c49 0 84 -11 108 -30c25 17 60 27 105 27c37 0 67 -8 84 -21zM197 145c48 0 59 21 60 53v163c0 34 -11 56 -60 56c-50 0 -60 -22 -60 -56v-161
c0 -33 10 -55 60 -55zM72 -42c0 33 13 58 57 58s57 -25 57 -58c0 -32 -13 -57 -57 -57s-57 25 -57 57z" />
    <glyph glyph-name="dvK_T_YA" horiz-adv-x="1188" 
d="M-32 575v85h1251v-85h-89v-575h-100v119c-24 -21 -60 -33 -115 -33c-121 0 -196 53 -196 177v86c-8 13 -23 23 -52 23h-14c-56 0 -73 -26 -73 -62v-164c0 -38 18 -54 69 -53v-93c-6 -1 -18 -2 -25 -2c-107 -1 -144 50 -144 140v175c0 20 2 39 7 56c-1 29 -16 48 -67 48
c-56 0 -68 -22 -68 -56v-361h-98v80c-15 -12 -41 -20 -71 -20c-101 0 -145 46 -145 137v167c0 92 44 141 145 141c30 0 56 -8 71 -20v90h-286zM840 512c0 36 -9 63 -59 63h-429v-90c17 12 41 18 77 18c66 0 107 -19 129 -54c25 11 56 16 95 16h16c77 0 123 -24 143 -65
c20 9 28 27 28 58v54zM922 179c85 0 108 33 108 95v301h-111c12 -12 19 -32 19 -63v-71c0 -80 -42 -118 -121 -120v-47c0 -62 22 -95 105 -95zM195 145c48 0 59 21 60 53v163c0 34 -11 56 -60 56c-50 0 -61 -22 -61 -56v-161c0 -33 11 -55 61 -55z" />
    <glyph glyph-name="dvK_T_RA" horiz-adv-x="904" 
d="M459 36l1 2l272 298c9 11 13 16 14 23c0 31 -15 54 -87 54c-71 0 -92 -27 -92 -74v-59h-97v81c0 33 -9 56 -59 56s-59 -22 -59 -56v-361h-98v80c-15 -12 -41 -20 -71 -20c-101 0 -145 46 -145 137v167c0 92 44 141 145 141c30 0 56 -8 71 -20v90h-286v85h968v-85h-90
v-575h-95v121c0 33 3 94 6 117l-1 1c-12 -24 -41 -61 -56 -79l-114 -124h-127zM746 477v98h-394v-89c16 12 42 19 70 19c46 0 78 -13 99 -35c28 22 69 34 126 34c51 0 86 -11 99 -27zM195 145c48 0 59 21 60 53v163c0 34 -11 56 -60 56c-50 0 -61 -22 -61 -56v-161
c0 -33 11 -55 61 -55z" />
    <glyph glyph-name="dvK_T_VA" horiz-adv-x="1099" 
d="M1041 575v-575h-100v83c-16 -13 -48 -22 -81 -22c-112 0 -155 50 -155 142v160c0 14 1 28 4 40h-56c-56 0 -73 -26 -73 -62v-195c0 -38 18 -54 69 -53v-93c-7 -1 -19 -2 -26 -2c-106 -1 -143 50 -143 140v206c0 15 1 30 4 43c-7 19 -24 30 -64 30c-56 0 -68 -22 -68 -56
v-361h-98v80c-15 -12 -41 -20 -71 -20c-101 0 -145 46 -145 137v167c0 92 44 141 145 141c30 0 56 -8 71 -20v90h-286v85h1163v-85h-90zM941 485v90h-589v-90c17 12 41 18 77 18c51 0 86 -11 110 -32c28 16 65 25 114 25h138c19 6 42 9 69 9c33 0 65 -8 81 -20zM945 204v159
c0 36 -20 56 -72 56s-70 -20 -70 -56v-159c0 -36 18 -57 70 -57s72 21 72 57zM195 145c48 0 59 21 60 53v163c0 34 -11 56 -60 56c-50 0 -61 -22 -61 -56v-161c0 -33 11 -55 61 -55z" />
    <glyph glyph-name="dvK_THA" horiz-adv-x="1000" 
d="M707 172c108 0 136 48 136 134v354h189v-85h-90v-575h-99v122c-32 -28 -81 -42 -152 -42c-153 0 -221 78 -221 207v23c0 33 -9 56 -59 56s-59 -22 -59 -56v-310h-98v80c-15 -12 -41 -20 -71 -20c-101 0 -145 46 -145 137v167c0 92 44 141 145 141c30 0 56 -8 71 -20v90
h-286v85h479v-85h-95v-140c16 12 39 18 70 18c63 0 103 -19 124 -55h33c70 0 98 17 98 78v43c0 35 -5 56 -47 56c-41 0 -49 -21 -49 -56v-26h-96v23c0 94 40 149 143 149c102 0 140 -52 140 -146v-57c0 -103 -55 -152 -176 -152h-20v-20c0 -79 28 -118 135 -118zM195 145
c48 0 59 21 60 53v163c0 34 -11 56 -60 56c-50 0 -61 -22 -61 -56v-161c0 -33 11 -55 61 -55z" />
    <glyph glyph-name="dvK_DA" horiz-adv-x="849" 
d="M470 207v154c0 33 -9 56 -59 56s-59 -22 -59 -56v-361h-98v80c-15 -12 -41 -20 -71 -20c-101 0 -145 46 -145 137v167c0 92 44 141 145 141c30 0 56 -8 71 -20v90h-286v85h913v-85h-93v-168h-154c-52 0 -64 -20 -64 -52v-145c0 -33 14 -53 66 -53s66 20 66 53v64h98v-278
h-98v92c-20 -14 -48 -20 -78 -20c-105 0 -154 48 -154 139zM688 499v76h-336v-89c16 12 42 19 70 19c45 0 77 -11 98 -31c27 17 65 25 114 25h54zM195 145c48 0 59 21 60 53v163c0 34 -11 56 -60 56c-50 0 -61 -22 -61 -56v-161c0 -33 11 -55 61 -55z" />
    <glyph glyph-name="dvK_NA" horiz-adv-x="1021" 
d="M768 344v-146c0 -91 -43 -141 -148 -141s-150 50 -150 141v123h-1v40c0 33 -9 56 -58 56c-50 0 -59 -22 -59 -56v-361h-98l-1 80c-14 -12 -40 -20 -70 -20c-102 0 -145 46 -145 137v167c0 92 43 141 145 141c30 0 56 -8 70 -20v90h-285v85h1084v-85h-89v-575h-100v393
h-106c8 -12 11 -29 11 -49zM863 485v90h-511v-89c16 12 41 19 70 19c52 0 85 -16 105 -41c23 14 54 21 93 21h243zM194 145c48 0 59 21 60 53v163c0 34 -10 56 -60 56s-60 -22 -60 -56v-161c0 -33 10 -55 60 -55zM673 199v142c0 32 -10 52 -53 52c-44 0 -54 -20 -54 -52
v-142c0 -32 10 -52 54 -52c43 0 53 20 53 52z" />
    <glyph glyph-name="dvK_PA" horiz-adv-x="876" 
d="M718 0v142c-17 -13 -50 -21 -81 -21c-108 0 -150 51 -150 143v75c0 32 -13 53 -67 53c-56 0 -68 -22 -68 -56v-336h-98v80c-15 -12 -41 -20 -71 -20c-101 0 -145 46 -145 137v167c0 92 44 141 145 141c30 0 56 -8 71 -20v90h-286v85h940v-85h-90v-575h-100zM429 478
c22 0 41 -2 58 -6v103h-135v-116c17 12 41 19 77 19zM718 575h-131v-308c0 -32 14 -56 66 -56c53 0 65 24 65 56v308zM195 145c48 0 59 21 60 53v163c0 34 -11 56 -60 56c-50 0 -61 -22 -61 -56v-161c0 -33 11 -55 61 -55z" />
    <glyph glyph-name="dvK_P_RA" horiz-adv-x="876" 
d="M455 0l135 183c-75 12 -103 56 -103 132v24c0 32 -13 53 -67 53c-56 0 -68 -22 -68 -56v-336h-98v80c-15 -12 -41 -20 -71 -20c-101 0 -145 46 -145 137v167c0 92 44 141 145 141c30 0 56 -8 71 -20v90h-286v85h940v-85h-90v-575h-100v201l-149 -201h-114zM487 575h-135
v-116c17 12 41 19 77 19c22 0 41 -2 58 -6v103zM718 575h-131v-257c0 -33 13 -57 66 -57c54 0 65 24 65 57v257zM195 145c48 0 59 21 60 53v163c0 34 -11 56 -60 56c-50 0 -61 -22 -61 -56v-161c0 -33 11 -55 61 -55z" />
    <glyph glyph-name="dvK_PHA" horiz-adv-x="1063" 
d="M863 63v92c49 0 61 18 61 54v145c0 32 -10 54 -58 54c-49 0 -58 -22 -58 -54v-354h-100v129c-17 -12 -43 -19 -72 -19c-103 0 -149 48 -149 139v90c0 32 -13 53 -67 53c-56 0 -68 -22 -68 -56v-336h-98v80c-15 -12 -41 -20 -71 -20c-101 0 -145 46 -145 137v167
c0 92 44 141 145 141c30 0 56 -8 71 -20v90h-286v85h1127v-85h-287v-94c17 12 41 20 69 20c104 0 147 -55 147 -144v-156c0 -89 -43 -140 -143 -139c-6 0 -14 0 -18 1zM429 478c22 0 41 -2 58 -6v103h-135v-116c17 12 41 19 77 19zM708 575h-121v-323c0 -32 12 -53 61 -53
c47 0 60 19 60 53v323zM195 145c48 0 59 21 60 53v163c0 34 -11 56 -60 56c-50 0 -61 -22 -61 -56v-161c0 -33 11 -55 61 -55z" />
    <glyph glyph-name="dvKx_PHA" horiz-adv-x="1065" 
d="M866 63v92c48 0 60 18 60 54v145c0 32 -9 54 -58 54s-58 -22 -58 -54v-354h-100v129c-17 -12 -43 -19 -72 -19c-103 0 -149 48 -149 139v90c0 32 -13 53 -67 53c-56 0 -68 -22 -68 -56v-336h-98v80c-15 -12 -40 -20 -70 -20c-102 0 -145 46 -145 137v167
c0 92 43 141 145 141c30 0 55 -8 70 -20v90h-285v85h1126v-85h-287v-94c17 12 41 20 70 20c103 0 146 -55 146 -144v-156c0 -89 -43 -140 -143 -139c-6 0 -14 0 -17 1zM431 478c22 0 41 -2 58 -6v103h-135v-116c17 12 41 19 77 19zM710 575h-120v-323c0 -32 11 -53 60 -53
c47 0 60 19 60 53v323zM197 145c48 0 59 21 60 53v163c0 34 -11 56 -60 56c-50 0 -60 -22 -60 -56v-161c0 -33 10 -55 60 -55zM72 -42c0 33 13 58 57 58s57 -25 57 -58c0 -32 -13 -57 -57 -57s-57 25 -57 57z" />
    <glyph glyph-name="dvKx_PHxA" horiz-adv-x="1065" 
d="M866 63v92c48 0 60 18 60 54v145c0 32 -9 54 -58 54s-58 -22 -58 -54v-354h-100v129c-17 -12 -43 -19 -72 -19c-103 0 -149 48 -149 139v90c0 32 -13 53 -67 53c-56 0 -68 -22 -68 -56v-336h-98v80c-15 -12 -40 -20 -70 -20c-102 0 -145 46 -145 137v167
c0 92 43 141 145 141c30 0 55 -8 70 -20v90h-288v85h1129v-85h-287v-94c17 12 41 20 70 20c103 0 146 -55 146 -144v-156c0 -89 -43 -140 -143 -139c-6 0 -14 0 -17 1zM431 478c22 0 41 -2 58 -6v103h-135v-116c17 12 41 19 77 19zM710 575h-120v-323c0 -32 11 -53 60 -53
c47 0 60 19 60 53v323zM197 145c48 0 59 21 60 53v163c0 34 -11 56 -60 56c-50 0 -60 -22 -60 -56v-161c0 -33 10 -55 60 -55zM463 -6c0 32 13 57 57 57s57 -25 57 -57c0 -33 -13 -58 -57 -58s-57 25 -57 58zM77 -42c0 33 13 58 57 58s57 -25 57 -58c0 -32 -13 -57 -57 -57
s-57 25 -57 57z" />
    <glyph glyph-name="dvKx_BA" horiz-adv-x="877" 
d="M724 0v83c-19 -14 -47 -21 -85 -21c-111 0 -167 40 -167 146v153c0 33 -9 56 -59 56c-49 0 -59 -22 -59 -56v-361h-98v80c-15 -12 -40 -20 -70 -20c-102 0 -145 46 -145 137v167c0 92 43 141 145 141c30 0 55 -8 70 -20v90h-288v85h941v-85h-90v-575h-95zM724 485v90
h-370v-89c16 12 42 19 70 19c43 0 73 -11 93 -30c28 22 69 31 122 31c38 0 66 -7 85 -21zM646 421c-46 0 -66 -14 -74 -37l152 -125v97c0 41 -17 65 -78 65zM197 145c48 0 59 21 60 53v163c0 34 -11 56 -60 56c-50 0 -60 -22 -60 -56v-161c0 -33 10 -55 60 -55zM568 212
c0 -40 16 -66 78 -66c48 0 69 16 75 42l-153 128v-104zM72 -42c0 33 13 58 57 58s57 -25 57 -58c0 -32 -13 -57 -57 -57s-57 25 -57 57z" />
    <glyph glyph-name="dvK_MA" horiz-adv-x="1036" 
d="M880 0v352h-103v-158c0 -85 -44 -136 -153 -136c-110 0 -154 51 -154 136v167c0 33 -9 56 -59 56s-59 -22 -59 -56v-361h-98v80c-15 -12 -41 -20 -71 -20c-101 0 -145 46 -145 137v167c0 92 44 141 145 141c30 0 56 -8 71 -20v90h-286v85h1100v-85h-90v-575h-98zM681 438
v137h-329v-89c16 12 42 19 70 19c74 0 115 -27 132 -76c20 6 43 9 70 9h57zM777 438h103v137h-103v-137zM195 145c48 0 59 21 60 53v163c0 34 -11 56 -60 56c-50 0 -61 -22 -61 -56v-161c0 -33 11 -55 61 -55zM681 197v155h-57c-49 0 -57 -19 -57 -52v-103
c0 -32 8 -52 57 -52c48 0 57 20 57 52z" />
    <glyph glyph-name="dvKx_MA" horiz-adv-x="1038" 
d="M882 0v352h-103v-158c0 -85 -44 -136 -153 -136s-154 51 -154 136v167c0 33 -9 56 -59 56c-49 0 -59 -22 -59 -56v-361h-98v80c-15 -12 -40 -20 -70 -20c-102 0 -145 46 -145 137v167c0 92 43 141 145 141c30 0 55 -8 70 -20v90h-288v85h1102v-85h-90v-575h-98zM683 438
v137h-329v-89c16 12 42 19 70 19c73 0 108 -33 122 -79c22 8 48 12 80 12h57zM779 438h103v137h-103v-137zM197 145c48 0 59 21 60 53v163c0 34 -11 56 -60 56c-50 0 -60 -22 -60 -56v-161c0 -33 10 -55 60 -55zM683 197v155h-57c-49 0 -57 -19 -57 -52v-103
c0 -32 8 -52 57 -52c48 0 57 20 57 52zM72 -42c0 33 13 58 57 58s57 -25 57 -58c0 -32 -13 -57 -57 -57s-57 25 -57 57z" />
    <glyph glyph-name="dvK_YA" horiz-adv-x="939" 
d="M667 86c-121 0 -197 53 -197 177v91c0 34 -9 56 -59 56s-59 -22 -59 -55v-355h-98v80c-15 -12 -41 -20 -71 -20c-101 0 -145 46 -145 137v167c0 92 44 141 145 141c30 0 56 -8 71 -20v90h-286v85h1003v-85h-90v-575h-100v119c-23 -21 -59 -33 -114 -33zM592 512
c0 36 -10 63 -59 63h-181v-96c16 12 42 19 70 19c85 0 128 -36 140 -99c22 9 30 27 30 59v54zM674 179c84 0 107 33 107 95v301h-111c13 -12 20 -32 20 -63v-71c0 -80 -43 -118 -122 -120v-47c0 -62 22 -95 106 -95zM195 145c48 0 59 21 60 53v163c0 34 -11 56 -60 56
c-50 0 -61 -22 -61 -56v-161c0 -33 11 -55 61 -55z" />
    <glyph glyph-name="dvK_LA" horiz-adv-x="1061" 
d="M470 165v196c0 33 -9 56 -59 56s-59 -22 -59 -56v-361h-98v80c-15 -12 -41 -20 -71 -20c-101 0 -145 46 -145 137v167c0 92 44 141 145 141c30 0 56 -8 71 -20v90h-286v85h1125v-85h-89v-575h-101v338c0 34 -11 56 -58 56s-58 -23 -58 -56v-129h-100v129
c0 32 -10 56 -59 56c-48 0 -58 -24 -58 -56v-172c0 -44 12 -78 86 -78h60v-88h-64c-133 0 -182 55 -182 165zM903 466v109h-551v-89c16 12 42 19 70 19c52 0 88 -13 112 -39c23 13 54 20 91 20c63 0 94 -24 110 -50c16 26 46 50 102 50c29 0 54 -7 66 -20zM195 145
c48 0 59 21 60 53v163c0 34 -11 56 -60 56c-50 0 -61 -22 -61 -56v-161c0 -33 11 -55 61 -55z" />
    <glyph glyph-name="dvK_VA" horiz-adv-x="869" 
d="M811 575v-575h-100v83c-17 -13 -48 -22 -82 -22c-111 0 -154 50 -154 142v158c0 33 -11 56 -62 56c-50 0 -61 -22 -61 -56v-361h-98v80c-15 -12 -41 -20 -71 -20c-101 0 -145 46 -145 137v167c0 92 44 141 145 141c30 0 56 -8 71 -20v90h-286v85h933v-85h-90zM711 485v90
h-359v-89c16 12 43 19 72 19c45 0 76 -11 97 -28c25 18 60 28 108 28c34 0 65 -8 82 -20zM715 204v159c0 36 -21 56 -72 56c-52 0 -71 -20 -71 -56v-159c0 -36 19 -57 71 -57c51 0 72 21 72 57zM195 145c48 0 59 21 60 53v163c0 34 -11 56 -60 56c-50 0 -61 -22 -61 -56
v-161c0 -33 11 -55 61 -55z" />
    <glyph glyph-name="dvK_V_YA" horiz-adv-x="1197" 
d="M644 61c-128 0 -174 53 -174 147v153c0 33 -9 56 -59 56s-59 -22 -59 -56v-361h-98v80c-15 -12 -41 -20 -71 -20c-101 0 -145 46 -145 137v167c0 92 44 141 145 141c30 0 56 -8 71 -20v90h-286v85h1261v-85h-90v-575h-100v119c-24 -21 -59 -33 -115 -33
c-57 0 -103 12 -137 37c-23 -38 -68 -62 -143 -62zM668 494v-85c-2 0 -16 2 -30 2c-52 0 -70 -20 -70 -57v-144c0 -39 15 -63 79 -63c63 0 81 24 81 63v180h22c76 0 100 13 100 68v54c0 36 -10 63 -60 63h-438v-89c16 12 42 19 70 19c46 0 78 -13 98 -35c27 18 64 27 114 27
c16 0 33 -2 34 -3zM931 179c85 0 108 33 108 95v301h-111c12 -12 19 -32 19 -63v-71c0 -80 -42 -118 -121 -120v-47c0 -62 22 -95 105 -95zM195 145c48 0 59 21 60 53v163c0 34 -11 56 -60 56c-50 0 -61 -22 -61 -56v-161c0 -33 11 -55 61 -55z" />
    <glyph glyph-name="dvK_SHA" horiz-adv-x="1040" 
d="M799 519v-151c0 -91 -42 -144 -148 -144c-27 0 -62 7 -77 19v-99c0 -33 13 -57 64 -57s64 24 64 57v29h100v-32c0 -91 -53 -146 -164 -146s-164 55 -164 146v188c0 34 -12 54 -61 54c-44 0 -61 -19 -61 -56v-327h-98v80c-15 -12 -41 -20 -71 -20c-101 0 -145 46 -145 137
v167c0 92 44 141 145 141c30 0 56 -8 71 -20v90h-286v85h454v-85h-70v-127c19 14 45 24 87 24c89 0 131 -38 131 -111c0 -25 16 -47 64 -47c51 0 65 23 65 55v147c0 32 -12 56 -62 56c-51 0 -63 -24 -63 -56v-16h-100v19c0 91 52 146 163 146s162 -55 162 -146zM882 660h189
v-85h-89v-575h-100v660zM195 145c48 0 59 21 60 53v163c0 34 -11 56 -60 56c-50 0 -61 -22 -61 -56v-161c0 -33 11 -55 61 -55z" />
    <glyph glyph-name="dvK_SS_MA" horiz-adv-x="1022" 
d="M866 0v352h-103v-158c0 -85 -44 -136 -153 -136s-154 51 -154 136v109c0 9 1 18 2 26h-245c-52 0 -59 -26 -59 -64v-71c0 -32 10 -54 57 -54c44 0 56 20 57 50v51h95v-241h-95v69c-19 -12 -42 -17 -72 -17c-102 0 -144 52 -144 143v82c0 47 14 83 56 101
c-26 15 -37 46 -37 97v48c0 92 47 142 151 142c105 0 149 -50 149 -142v-48c0 -33 -4 -50 -13 -62h147c25 16 59 25 105 25h57v137h-231v85h618v-85h-90v-575h-98zM276 464v59c0 32 -7 54 -54 54c-46 0 -53 -22 -53 -54v-59c0 -31 7 -54 53 -54c47 0 54 22 54 54zM763 438
h103v137h-103v-137zM667 197v155h-57c-49 0 -57 -19 -57 -52v-103c0 -32 8 -52 57 -52c48 0 57 20 57 52z" />
    <glyph glyph-name="dvK_SS_M_YA" horiz-adv-x="1329" 
d="M429 575v85h932v-85h-90v-575h-100v119c-24 -21 -59 -33 -114 -33c-121 0 -197 53 -197 177v48c0 33 -13 38 -50 38h-54v-155c0 -85 -44 -136 -153 -136s-154 51 -154 136v106c0 9 1 18 2 26h-238c-52 0 -59 -25 -59 -64v-68c0 -32 10 -54 57 -54c44 0 56 20 57 50v51h95
v-241h-95v69c-19 -12 -42 -17 -72 -17c-102 0 -144 52 -144 143v80c0 46 14 82 56 100c-26 15 -37 46 -37 98v50c0 92 47 142 151 142c105 0 149 -50 149 -142v-51c0 -33 -4 -50 -13 -62h142c24 16 58 24 103 24h57v141h-231zM276 461v62c0 32 -7 54 -54 54
c-46 0 -53 -22 -53 -54v-62c0 -31 7 -54 53 -54c47 0 54 22 54 54zM982 512c0 36 -10 63 -59 63h-167v-141h67c57 0 91 -15 109 -41c37 7 50 24 50 65v54zM1063 179c85 0 108 33 108 95v301h-111c12 -12 19 -32 19 -63v-71c0 -80 -42 -118 -121 -120v-47
c0 -62 22 -95 105 -95zM660 197v152h-57c-49 0 -57 -20 -57 -52v-100c0 -32 8 -52 57 -52c48 0 57 20 57 52z" />
    <glyph glyph-name="dvK_SS_YA" horiz-adv-x="939" 
d="M358 412h134c75 0 99 13 99 68v32c0 36 -9 63 -59 63h-96v85h534v-85h-89v-575h-100v119c-24 -21 -60 -33 -115 -33c-121 0 -197 53 -197 177v65h-256c-52 0 -59 -26 -59 -64v-70c0 -32 10 -54 57 -54c44 0 56 20 57 50v51h95v-241h-95v69c-19 -12 -42 -17 -72 -17
c-102 0 -144 52 -144 143v81c0 47 14 83 56 101c-26 15 -37 46 -37 97v49c0 92 47 142 151 142c105 0 149 -50 149 -142v-49c0 -33 -4 -51 -13 -62zM276 463v60c0 32 -7 54 -54 54c-46 0 -53 -22 -53 -54v-60c0 -32 7 -54 53 -54c47 0 54 22 54 54zM673 179
c85 0 108 33 108 95v301h-111c12 -12 19 -32 19 -63v-49c0 -80 -42 -118 -121 -120v-69c0 -62 22 -95 105 -95z" />
    <glyph glyph-name="dvK_SS_VA" horiz-adv-x="863" 
d="M805 575v-575h-100v83c-16 -13 -48 -22 -81 -22c-112 0 -155 50 -155 142v126h-256c-52 0 -59 -26 -59 -64v-71c0 -32 10 -54 57 -54c44 0 56 20 57 50v51h95v-241h-95v69c-19 -12 -42 -17 -72 -17c-102 0 -144 52 -144 143v82c0 47 14 83 56 101c-26 15 -37 46 -37 97
v48c0 92 47 142 151 142c105 0 149 -50 149 -142v-48c0 -33 -4 -50 -13 -62h117c15 59 62 92 149 92c33 0 65 -8 81 -20v90h-269v85h459v-85h-90zM276 464v59c0 32 -7 54 -54 54c-46 0 -53 -22 -53 -54v-59c0 -31 7 -54 53 -54c47 0 54 22 54 54zM709 204v159
c0 36 -20 56 -72 56s-70 -20 -70 -56v-159c0 -36 18 -57 70 -57s72 21 72 57z" />
    <glyph glyph-name="dvK_SA" horiz-adv-x="1042" 
d="M-32 575v85h1106v-85h-90v-575h-100v277h-151c-21 -17 -53 -26 -90 -26c-28 0 -56 5 -75 21v-130c0 -32 10 -56 61 -56c50 0 60 24 60 56v27h99v-28c0 -91 -48 -146 -159 -146c-112 0 -159 55 -159 146v220c0 34 -11 53 -59 53c-50 0 -59 -23 -59 -56v-358h-98v80
c-15 -12 -41 -20 -71 -20c-101 0 -145 46 -145 137v167c0 92 44 141 145 141c30 0 56 -8 71 -20v90h-286zM681 519c0 31 -11 56 -59 56h-270v-94c20 14 48 21 84 21c83 0 127 -38 127 -111c0 -30 10 -51 59 -51c50 0 59 24 59 58v121zM780 511v-117c0 -10 -1 -23 -4 -30h108
v211h-126c16 -14 22 -36 22 -64zM195 145c48 0 59 21 60 53v163c0 34 -11 56 -60 56c-50 0 -61 -22 -61 -56v-161c0 -33 11 -55 61 -55z" />
    <glyph glyph-name="dvK_S_TTA" horiz-adv-x="1246" 
d="M1187 405h-139c-50 0 -61 -21 -61 -53v-211c0 -32 12 -56 63 -56c50 0 62 24 62 56v88h100v-88c0 -91 -51 -146 -162 -146c-112 0 -163 55 -163 146v136h-151c-22 -17 -54 -26 -90 -26c-29 0 -56 5 -75 21v-130c0 -32 10 -56 60 -56c51 0 61 24 61 56v27h98v-28
c0 -91 -48 -146 -159 -146s-159 55 -159 146v219c0 34 -10 52 -60 52c-49 0 -60 -22 -60 -56v-356h-98v80c-15 -12 -41 -20 -71 -20c-101 0 -145 46 -145 137v167c0 92 44 141 145 141c30 0 56 -8 71 -20v90h-286v85h1309v-85h-90v-170zM1087 496v79h-327
c16 -14 22 -36 22 -64v-117c0 -10 -1 -23 -3 -30h108c3 91 54 132 161 132h39zM684 519c0 31 -11 56 -60 56h-272v-98c21 15 49 24 85 24c79 0 128 -33 128 -107c0 -34 14 -54 60 -54c49 0 59 24 59 58v121zM195 145c48 0 59 21 60 53v163c0 34 -11 56 -60 56
c-50 0 -61 -22 -61 -56v-161c0 -33 11 -55 61 -55z" />
    <glyph glyph-name="dvK_S_DDA" horiz-adv-x="1261" 
d="M-32 575v85h1324v-85h-97v-158h-155c-44 0 -57 -19 -57 -48v-15c0 -30 12 -49 57 -49h22c111 0 162 -44 162 -135v-38c0 -91 -55 -137 -170 -137c-114 0 -170 46 -170 137v28h100v-25c0 -32 16 -53 70 -53c53 0 70 21 70 53v32c0 31 -12 53 -62 53h-22
c-69 0 -116 18 -140 57h-164c-22 -17 -54 -26 -90 -26c-29 0 -56 5 -75 21v-130c0 -32 10 -56 60 -56c51 0 61 24 61 56v27h98v-28c0 -91 -48 -146 -159 -146s-159 55 -159 146v219c0 34 -10 52 -60 52c-49 0 -60 -22 -60 -56v-356h-98v80c-15 -12 -41 -20 -71 -20
c-101 0 -145 46 -145 137v167c0 92 44 141 145 141c30 0 56 -8 71 -20v90h-286zM1095 575h-335c16 -14 22 -36 22 -64v-117c0 -10 -1 -23 -3 -30h104v10c0 91 52 130 157 130h55v71zM684 519c0 31 -11 56 -60 56h-272v-98c21 15 49 24 85 24c79 0 128 -33 128 -107
c0 -34 14 -54 60 -54c49 0 59 24 59 58v121zM195 145c48 0 59 21 60 53v163c0 34 -11 56 -60 56c-50 0 -61 -22 -61 -56v-161c0 -33 11 -55 61 -55z" />
    <glyph glyph-name="dvK_S_TA" horiz-adv-x="1289" 
d="M1054 93v-93c-6 -1 -18 -2 -25 -2c-106 -1 -143 50 -143 140v139h-150c-22 -17 -54 -26 -90 -26c-29 0 -56 5 -75 21v-130c0 -32 10 -56 60 -56c51 0 61 24 61 56v27h98v-28c0 -91 -48 -146 -159 -146s-159 55 -159 146v219c0 34 -10 52 -60 52c-49 0 -60 -22 -60 -56
v-356h-98v80c-15 -12 -41 -20 -71 -20c-101 0 -145 46 -145 137v167c0 92 44 141 145 141c30 0 56 -8 71 -20v90h-286v85h1353v-85h-90v-575h-100v345c0 36 -17 62 -72 62c-56 0 -73 -26 -73 -62v-199c0 -38 17 -54 68 -53zM1131 479v96h-371c16 -14 22 -36 22 -64v-117
c0 -10 -1 -23 -3 -30h108c5 82 56 136 160 136c37 0 67 -8 84 -21zM684 519c0 31 -11 56 -60 56h-272v-98c21 15 49 24 85 24c79 0 128 -33 128 -107c0 -34 14 -54 60 -54c49 0 59 24 59 58v121zM195 145c48 0 59 21 60 53v163c0 34 -11 56 -60 56c-50 0 -61 -22 -61 -56
v-161c0 -33 11 -55 61 -55z" />
    <glyph glyph-name="dvK_S_P_RA" horiz-adv-x="1284" 
d="M862 0l136 183c-62 10 -92 41 -100 94h-162c-22 -17 -54 -26 -90 -26c-29 0 -56 5 -75 21v-130c0 -32 10 -56 60 -56c51 0 61 24 61 56v27h98v-28c0 -91 -48 -146 -159 -146s-159 55 -159 146v219c0 34 -10 52 -60 52c-49 0 -60 -22 -60 -56v-356h-98v80
c-15 -12 -41 -20 -71 -20c-101 0 -145 46 -145 137v167c0 92 44 141 145 141c30 0 56 -8 71 -20v90h-286v85h1348v-85h-90v-575h-100v201l-149 -201h-115zM895 575h-135c16 -14 22 -36 22 -64v-117c0 -10 -1 -23 -3 -30h116v211zM684 519c0 31 -11 56 -60 56h-272v-98
c21 15 49 24 85 24c79 0 128 -33 128 -107c0 -34 14 -54 60 -54c49 0 59 24 59 58v121zM1126 575h-131v-257c0 -33 12 -57 66 -57c53 0 65 24 65 57v257zM195 145c48 0 59 21 60 53v163c0 34 -11 56 -60 56c-50 0 -61 -22 -61 -56v-161c0 -33 11 -55 61 -55z" />
    <glyph glyph-name="dvK_S_P_LA" horiz-adv-x="1726" 
d="M-32 575v85h1789v-85h-89v-575h-100v346c0 34 -12 56 -59 56s-58 -22 -58 -56v-137h-100v137c0 32 -10 56 -58 56c-49 0 -59 -24 -59 -56v-180c0 -44 12 -78 86 -78h60l1 -88h-65c-120 0 -172 45 -181 135c-21 -9 -48 -14 -78 -14c-108 0 -157 48 -157 146v10h-164
c-22 -17 -54 -26 -90 -26c-29 0 -56 5 -75 21v-130c0 -32 10 -56 60 -56c51 0 61 24 61 56v27h98v-28c0 -91 -48 -146 -159 -146s-159 55 -159 146v219c0 34 -10 52 -60 52c-49 0 -60 -22 -60 -56v-356h-98v80c-15 -12 -41 -20 -71 -20c-101 0 -145 46 -145 137v167
c0 92 44 141 145 141c30 0 56 -8 71 -20v90h-286zM1568 474v101h-568v-305c0 -36 14 -59 67 -59c54 0 67 23 67 59v79c0 91 49 146 156 146c62 0 94 -25 109 -50c16 25 46 49 102 49c29 0 54 -7 67 -20zM779 364h121v211h-140c16 -14 22 -36 22 -64v-117
c0 -10 -1 -23 -3 -30zM684 519c0 31 -11 56 -60 56h-272v-98c21 15 49 24 85 24c79 0 128 -33 128 -107c0 -34 14 -54 60 -54c49 0 59 24 59 58v121zM195 145c48 0 59 21 60 53v163c0 34 -11 56 -60 56c-50 0 -61 -22 -61 -56v-161c0 -33 11 -55 61 -55z" />
    <glyph glyph-name="dvKH_KHA" horiz-adv-x="1323" 
d="M838 0h-17c-124 0 -187 42 -206 124c-19 -7 -43 -10 -72 -10c-33 0 -56 5 -73 16c-15 -84 -75 -130 -195 -130h-17c-151 0 -217 62 -217 183v263h96v-69c0 -32 9 -53 58 -53c48 0 57 21 57 53v142c0 32 -12 55 -61 56h-223v85h1386v-85h-89v-575h-98v131
c-15 -13 -40 -17 -66 -17c-30 0 -52 3 -70 11c-17 -81 -76 -125 -193 -125zM391 186v171c0 91 38 140 152 140c102 0 152 -40 152 -123v-14c0 -29 13 -48 59 -48c55 0 60 27 60 60v147c0 32 -11 55 -60 56h-426c11 -14 17 -32 17 -56v-145c0 -91 -34 -139 -138 -139
c-26 0 -55 7 -70 19v-68c0 -62 30 -96 120 -96h10c92 0 124 34 124 96zM954 186v170c0 92 34 143 143 143c26 0 53 -5 70 -18v94h-277c12 -14 18 -32 18 -56v-156c0 -91 -35 -140 -138 -140c-26 0 -56 7 -70 19v-56c0 -62 30 -96 120 -96h10c92 0 124 34 124 96zM604 254
v103c0 33 -11 55 -61 55c-49 0 -60 -22 -60 -55v-107c0 -31 12 -51 60 -51c50 0 61 22 61 55zM1106 412c-49 0 -60 -22 -60 -55v-107c0 -31 12 -51 60 -51c50 0 61 22 61 55v103c0 33 -11 55 -61 55z" />
    <glyph glyph-name="dvKH_TA" horiz-adv-x="1002" 
d="M767 93v-93c-7 -1 -19 -2 -26 -2c-97 -1 -132 44 -137 124c-17 -5 -37 -8 -61 -8c-31 0 -52 5 -68 15c-17 -84 -81 -129 -200 -129h-17c-151 0 -217 62 -217 183v263h96v-69c0 -32 9 -53 58 -53c48 0 57 21 57 53v142c0 32 -12 55 -61 56h-222v85h1065v-85h-90v-575h-100
v345c0 36 -17 62 -73 62s-73 -26 -73 -62v-199c0 -38 18 -54 69 -53zM844 479v96h-516c11 -14 17 -32 17 -56v-145c0 -91 -34 -139 -138 -139c-26 0 -55 7 -70 19v-68c0 -62 30 -96 120 -96h10c92 0 124 34 124 96v171c0 91 38 140 152 140c49 0 83 -10 105 -31
c25 22 62 34 112 34c36 0 67 -8 84 -21zM604 254v103c0 33 -11 55 -61 55c-49 0 -60 -22 -60 -55v-103c0 -33 11 -55 60 -55c50 0 61 22 61 55z" />
    <glyph glyph-name="dvKHx_TA" horiz-adv-x="1006" 
d="M771 93v-93c-6 -1 -18 -2 -26 -2c-96 -1 -132 43 -136 122c-17 -4 -37 -6 -61 -6c-31 0 -53 5 -69 15c-17 -84 -81 -129 -200 -129h-17c-151 0 -216 62 -216 183v263h96v-69c0 -32 8 -53 57 -53c48 0 57 21 57 53v142c0 32 -12 55 -61 56h-227v85h1070v-85h-90v-575h-100
v345c0 36 -17 62 -73 62s-72 -26 -72 -62v-199c0 -38 17 -54 68 -53zM848 479v96h-516c12 -14 18 -32 18 -56v-145c0 -91 -35 -139 -139 -139c-26 0 -55 7 -69 19v-68c0 -62 29 -96 120 -96h10c91 0 124 34 124 96v171c0 91 37 140 152 140c51 0 85 -10 107 -28
c25 20 61 31 109 31c37 0 67 -8 84 -21zM608 254v103c0 33 -11 55 -60 55c-50 0 -61 -22 -61 -55v-103c0 -33 11 -55 61 -55c49 0 60 22 60 55zM-15 -68c0 33 13 58 56 58s57 -25 57 -58c0 -32 -14 -57 -57 -57s-56 25 -56 57z" />
    <glyph glyph-name="dvKH_NA" horiz-adv-x="1155" 
d="M902 344v-146c0 -91 -43 -141 -148 -141c-77 0 -122 27 -140 77c-19 -7 -42 -10 -71 -10s-51 5 -66 14c-15 -89 -78 -138 -202 -138h-17c-151 0 -217 62 -217 183v263h96v-69c0 -32 9 -53 58 -53c48 0 57 21 57 53v142c0 32 -12 55 -61 56h-223v85h1218v-85h-89v-575
h-100v393h-106c8 -12 11 -29 11 -49zM997 485v90h-669c11 -14 17 -32 17 -56v-145c0 -91 -34 -139 -138 -139c-26 0 -55 7 -70 19v-68c0 -62 30 -96 120 -96h10c92 0 124 34 124 96v171c0 91 38 140 152 140c54 0 89 -13 111 -37c24 16 57 25 100 25h243zM604 264v93
c0 33 -11 55 -61 55c-49 0 -60 -22 -60 -55v-93c0 -32 11 -54 60 -54c50 0 61 21 61 54zM807 199v142c0 32 -10 52 -53 52s-54 -20 -54 -52v-142c0 -32 11 -52 54 -52s53 20 53 52z" />
    <glyph glyph-name="dvKH_MA" horiz-adv-x="1165" 
d="M1009 0v352h-103v-158c0 -85 -44 -136 -153 -136c-76 0 -118 24 -137 68c-19 -8 -43 -12 -73 -12c-31 0 -52 5 -68 15c-17 -84 -81 -129 -200 -129h-17c-151 0 -217 62 -217 183v263h96v-69c0 -32 9 -53 58 -53c48 0 57 21 57 53v142c0 32 -12 55 -61 56h-223v85h1229
v-85h-90v-575h-98zM810 438v137h-482c11 -14 17 -32 17 -56v-145c0 -91 -34 -139 -138 -139c-26 0 -55 7 -70 19v-68c0 -62 30 -96 120 -96h10c92 0 124 34 124 96v171c0 91 38 140 152 140c76 0 115 -25 131 -71c21 8 47 12 79 12h57zM906 438h103v137h-103v-137zM604 254
v103c0 33 -11 55 -61 55c-49 0 -60 -22 -60 -55v-103c0 -33 11 -55 60 -55c50 0 61 22 61 55zM810 197v155h-57c-49 0 -58 -19 -58 -52v-103c0 -32 9 -52 58 -52c48 0 57 20 57 52z" />
    <glyph glyph-name="dvKHx_MA" horiz-adv-x="1175" 
d="M-32 575v85h1238v-85h-89v-575h-99v352h-102v-158c0 -85 -45 -136 -154 -136c-75 0 -120 24 -140 67c-20 -7 -44 -11 -74 -11s-52 5 -68 14c-14 -81 -68 -128 -189 -128h-42c-149 0 -203 67 -203 189v270h98v-82c0 -32 9 -53 58 -53c48 0 57 21 57 53v142
c0 32 -12 55 -61 56h-230zM819 438v137h-479c12 -14 18 -32 18 -56v-145c0 -91 -40 -139 -144 -139c-26 0 -55 7 -70 19v-65c0 -63 19 -97 104 -97h42c85 0 106 34 106 97v168c0 91 37 140 152 140c73 0 115 -25 132 -72c22 9 49 13 82 13h57zM916 438h102v137h-102v-137z
M608 254v103c0 33 -11 55 -60 55c-50 0 -61 -22 -61 -55v-103c0 -33 11 -55 61 -55c49 0 60 22 60 55zM819 197v155h-57c-49 0 -57 -19 -57 -52v-103c0 -32 8 -52 57 -52s57 20 57 52zM-13 -68c0 33 13 58 56 58c44 0 57 -25 57 -58c0 -32 -13 -57 -57 -57
c-43 0 -56 25 -56 57z" />
    <glyph glyph-name="dvKH_YA" horiz-adv-x="1075" 
d="M-32 575v85h1137v-85h-90v-575h-100v119c-23 -21 -59 -33 -114 -33c-69 0 -124 17 -158 56c-22 -18 -54 -28 -100 -28c-31 0 -52 5 -68 15c-17 -84 -81 -129 -200 -129h-17c-151 0 -217 62 -217 183v263h96v-69c0 -32 9 -53 58 -53c48 0 57 21 57 53v142
c0 32 -12 55 -61 56h-223zM726 512c0 36 -9 63 -59 63h-339c11 -14 17 -32 17 -56v-145c0 -91 -34 -139 -138 -139c-26 0 -55 7 -70 19v-68c0 -62 30 -96 120 -96h10c92 0 124 34 124 96v171c0 91 38 140 152 140c91 0 129 -36 139 -103c32 8 44 26 44 64v54zM808 179
c84 0 107 33 107 95v301h-111c13 -12 20 -32 20 -63v-71c0 -80 -43 -118 -122 -120v-47c0 -62 22 -95 106 -95zM604 254v103c0 33 -11 55 -61 55c-49 0 -60 -22 -60 -55v-103c0 -33 11 -55 60 -55c50 0 61 22 61 55z" />
    <glyph glyph-name="dvKHx_YA" horiz-adv-x="1078" 
d="M-32 575v85h1141v-85h-89v-575h-100v119c-24 -21 -60 -33 -115 -33c-69 0 -123 17 -157 55c-22 -18 -54 -27 -100 -27c-30 0 -52 5 -68 14c-14 -81 -68 -128 -189 -128h-42c-149 0 -203 67 -203 189v270h98v-82c0 -32 9 -53 58 -53c48 0 57 21 57 53v142
c0 32 -12 55 -61 56h-230zM730 512c0 36 -9 63 -59 63h-331c12 -14 18 -32 18 -56v-145c0 -91 -40 -139 -144 -139c-26 0 -55 7 -70 19v-65c0 -63 19 -97 104 -97h42c85 0 106 34 106 97v168c0 91 37 140 152 140c88 0 130 -35 140 -102c31 8 42 26 42 63v54zM812 179
c84 0 108 33 108 95v301h-111c12 -12 19 -32 19 -63v-71c0 -80 -43 -118 -121 -120v-47c0 -62 22 -95 105 -95zM608 254v103c0 33 -11 55 -60 55c-50 0 -61 -22 -61 -55v-103c0 -33 11 -55 61 -55c49 0 60 22 60 55zM-13 -68c0 33 13 58 56 58c44 0 57 -25 57 -58
c0 -32 -13 -57 -57 -57c-43 0 -56 25 -56 57z" />
    <glyph glyph-name="dvKH_VA" horiz-adv-x="998" 
d="M940 575v-575h-100v83c-16 -13 -47 -22 -81 -22c-76 0 -118 23 -136 68c-21 -10 -47 -15 -80 -15c-31 0 -52 5 -68 15c-17 -84 -81 -129 -200 -129h-17c-151 0 -217 62 -217 183v263h96v-69c0 -32 9 -53 58 -53c48 0 57 21 57 53v142c0 32 -12 55 -61 56h-223v85h1062
v-85h-90zM840 485v90h-512c11 -14 17 -32 17 -56v-145c0 -91 -34 -139 -138 -139c-26 0 -55 7 -70 19v-68c0 -62 30 -96 120 -96h10c92 0 124 34 124 96v171c0 91 38 140 152 140c47 0 80 -9 102 -28c24 24 60 36 114 36c34 0 65 -8 81 -20zM844 204v159c0 36 -20 56 -72 56
s-70 -20 -70 -56v-159c0 -36 18 -57 70 -57s72 21 72 57zM604 254v103c0 33 -11 55 -61 55c-49 0 -60 -22 -60 -55v-103c0 -33 11 -55 60 -55c50 0 61 22 61 55z" />
    <glyph glyph-name="dvKHx_VA" horiz-adv-x="1003" 
d="M-32 575v85h1066v-85h-89v-575h-100v83c-17 -13 -48 -22 -82 -22c-75 0 -117 23 -136 67c-20 -10 -46 -14 -79 -14c-30 0 -52 5 -68 14c-14 -81 -68 -128 -189 -128h-42c-149 0 -203 67 -203 189v270h98v-82c0 -32 9 -53 58 -53c48 0 57 21 57 53v142c0 32 -12 55 -61 56
h-230zM845 485v90h-505c12 -14 18 -32 18 -56v-145c0 -91 -40 -139 -144 -139c-26 0 -55 7 -70 19v-65c0 -63 19 -97 104 -97h42c85 0 106 34 106 97v168c0 91 37 140 152 140c45 0 78 -9 101 -28c24 24 60 36 114 36c34 0 65 -8 82 -20zM849 204v159c0 36 -21 56 -73 56
c-51 0 -70 -20 -70 -56v-159c0 -36 19 -57 70 -57c52 0 73 21 73 57zM608 254v103c0 33 -11 55 -60 55c-50 0 -61 -22 -61 -55v-103c0 -33 11 -55 61 -55c49 0 60 22 60 55zM-13 -68c0 33 13 58 56 58c44 0 57 -25 57 -58c0 -32 -13 -57 -57 -57c-43 0 -56 25 -56 57z" />
    <glyph glyph-name="dvKH_SHA" horiz-adv-x="1170" 
d="M762 87c51 0 64 24 64 57v29h100v-32c0 -91 -53 -146 -164 -146c-98 0 -145 43 -154 110v18c-17 -7 -40 -9 -65 -9c-31 0 -52 5 -68 15c-17 -84 -81 -129 -200 -129h-17c-151 0 -217 62 -217 183v263h96v-69c0 -32 9 -53 58 -53c48 0 57 21 57 53v142c0 32 -12 55 -61 56
h-223v85h574v-85h-214c11 -14 17 -32 17 -56v-145c0 -91 -34 -139 -138 -139c-26 0 -55 7 -70 19v-68c0 -62 30 -96 120 -96h10c92 0 124 34 124 96v141c0 92 38 140 152 140c99 0 138 -36 150 -91c6 -31 25 -50 68 -50c52 0 62 23 62 57v133c0 32 -11 56 -62 56
s-63 -24 -63 -56v-20h-100v23c0 91 52 146 163 146s163 -55 163 -146v-139c0 -91 -43 -144 -149 -144c-26 0 -62 7 -77 19v-111c0 -33 13 -57 64 -57zM1012 660h189v-85h-89v-575h-100v660zM604 251v76c0 34 -11 55 -61 55c-49 0 -60 -22 -60 -55v-73c0 -33 11 -55 60 -55
c48 0 60 20 61 52z" />
    <glyph glyph-name="dvKHx_SHA" horiz-adv-x="1174" 
d="M766 87c51 0 64 24 64 57v29h100v-32c0 -91 -52 -146 -164 -146c-98 0 -145 43 -154 110v18c-17 -7 -39 -9 -64 -9c-31 0 -53 5 -69 15c-17 -84 -81 -129 -200 -129h-17c-151 0 -216 62 -216 183v263h96v-69c0 -32 8 -53 57 -53c48 0 57 21 57 53v142c0 32 -12 55 -61 56
h-227v85h567v-85h-203c12 -14 18 -32 18 -56v-145c0 -91 -35 -139 -139 -139c-26 0 -55 7 -69 19v-68c0 -62 29 -96 120 -96h10c91 0 124 34 124 96v141c0 92 37 140 152 140c98 0 137 -36 149 -91c7 -31 25 -50 68 -50c52 0 63 23 63 57v133c0 32 -12 56 -63 56
s-62 -24 -62 -56v-20h-101v23c0 91 52 146 163 146s163 -55 163 -146v-139c0 -91 -43 -144 -149 -144c-26 0 -62 7 -76 19v-111c0 -33 13 -57 63 -57zM1016 660h190v-85h-90v-575h-100v660zM608 254v73c0 34 -11 55 -60 55c-50 0 -61 -22 -61 -55v-73c0 -33 11 -55 61 -55
c49 0 60 22 60 55zM-13 -68c0 33 13 58 56 58c44 0 57 -25 57 -58c0 -32 -13 -57 -57 -57c-43 0 -56 25 -56 57z" />
    <glyph glyph-name="dvKHx_SA" horiz-adv-x="1180" 
d="M-32 575v85h1244v-85h-90v-575h-100v281h-150c-22 -17 -54 -26 -90 -26c-29 0 -57 5 -75 20v-133c0 -32 9 -56 60 -56s60 24 60 56v30h99v-31c0 -91 -48 -146 -159 -146c-102 0 -151 46 -158 125c-17 -4 -37 -6 -61 -6c-31 0 -53 5 -69 15c-17 -84 -81 -129 -200 -129
h-17c-151 0 -216 62 -216 183v263h96v-69c0 -32 8 -53 57 -53c48 0 57 21 57 53v142c0 32 -12 55 -61 56h-227zM820 519c0 31 -11 56 -60 56h-428c12 -14 18 -32 18 -56v-145c0 -91 -35 -139 -139 -139c-26 0 -55 7 -69 19v-68c0 -62 29 -96 120 -96h10c91 0 124 34 124 96
v171c0 91 37 140 152 140s145 -49 152 -106c3 -30 19 -47 60 -47c49 0 60 23 60 55v120zM918 511v-113c0 -10 -1 -23 -4 -31h108v208h-126c16 -14 22 -36 22 -64zM608 254v106c0 33 -11 52 -60 52c-50 0 -61 -22 -61 -55v-103c0 -33 11 -55 61 -55c49 0 60 22 60 55z
M-14 -68c0 33 13 58 56 58c44 0 58 -25 58 -58c0 -32 -14 -57 -58 -57c-43 0 -56 25 -56 57z" />
    <glyph glyph-name="dvG_GA" horiz-adv-x="733" 
d="M-32 575v85h796v-85h-89v-575h-100v575h-117v-248c0 -96 -50 -146 -145 -146c-19 0 -36 4 -47 5v96c6 -2 20 -4 34 -4c44 0 58 20 58 56v241h-146v-248c0 -96 -50 -146 -145 -146c-19 0 -36 4 -47 5v96c6 -2 20 -4 34 -4c44 0 58 20 58 56v241h-144z" />
    <glyph glyph-name="dvG_GHA" horiz-adv-x="765" 
d="M796 660v-85h-89v-575h-100v92c-20 -18 -56 -32 -112 -32c-117 0 -178 56 -178 152v52c0 50 15 84 52 99c-35 18 -46 51 -46 96v62c0 26 6 43 19 54h-130v-248c0 -96 -50 -146 -145 -146c-19 0 -36 4 -47 5v96c6 -2 20 -4 34 -4c44 0 58 20 58 56v241h-144v85h828z
M607 575h-129c-40 0 -55 -17 -55 -54v-59c0 -32 10 -54 60 -54h40v-93h-43c-51 0 -63 -21 -63 -54v-38c0 -55 33 -73 93 -73c59 0 97 18 97 73v352z" />
    <glyph glyph-name="dvG_JA" horiz-adv-x="858" 
d="M375 277v-83c0 -32 8 -55 58 -55c48 0 58 23 58 55v142c0 33 -13 58 -62 58h-60v92h327v89h-484v-248c0 -96 -50 -146 -145 -146c-19 0 -36 4 -47 5v96c6 -2 20 -4 34 -4c44 0 58 20 58 56v241h-144v85h917v-85h-89v-575h-100v400h-124c13 -17 19 -37 19 -65v-144
c0 -91 -49 -143 -158 -143s-159 53 -159 145v84h101z" />
    <glyph glyph-name="dvG_NNA" horiz-adv-x="905" 
d="M639 575v-318c0 -91 -49 -146 -160 -146s-160 55 -160 146v318h-107v-248c0 -96 -50 -146 -145 -146c-19 0 -36 4 -47 5v96c6 -2 20 -4 34 -4c44 0 58 20 58 56v241h-144v85h968v-85h-89v-575h-100v575h-108zM539 575h-120v-317c0 -32 10 -56 60 -56c51 0 60 24 60 56
v317z" />
    <glyph glyph-name="dvG_DA" horiz-adv-x="685" 
d="M306 207v150c0 102 53 142 164 142h54v76h-312v-248c0 -96 -50 -146 -145 -146c-19 0 -36 4 -47 5v96c6 -2 20 -4 34 -4c44 0 58 20 58 56v241h-144v85h749v-85h-92v-168h-155c-52 0 -63 -20 -63 -52v-145c0 -33 14 -53 65 -53c52 0 66 20 66 53v64h99v-278h-99v92
c-19 -14 -48 -20 -77 -20c-106 0 -155 48 -155 139z" />
    <glyph glyph-name="dvG_DHA" horiz-adv-x="765" 
d="M523 318h-43c-51 0 -63 -22 -63 -55v-40c0 -55 33 -73 93 -73c59 0 97 18 97 73v437h190v-85h-90v-575h-100v92c-20 -18 -56 -32 -111 -32c-118 0 -179 56 -179 152v54c0 50 15 84 52 99c-35 18 -46 51 -46 96v60c0 26 6 43 19 54h-130v-248c0 -96 -50 -146 -145 -146
c-19 0 -36 4 -47 5v96c6 -2 20 -4 34 -4c44 0 58 20 58 56v241h-144v85h546v-85h-36c-40 0 -55 -17 -55 -54v-57c0 -32 10 -54 60 -54h40v-92z" />
    <glyph glyph-name="dvG_DH_YA" horiz-adv-x="1082" 
d="M612 234v156h23c75 0 99 13 99 68v54c0 36 -9 63 -59 63h-77v85h515v-85h-89v-575h-100v119c-24 -21 -60 -33 -115 -33c-58 0 -105 12 -139 38c-30 -41 -81 -64 -158 -64c-127 0 -195 50 -195 152v54c0 50 15 84 52 99c-35 18 -46 51 -46 96v60c0 26 6 43 19 54h-130
v-248c0 -96 -50 -146 -145 -146c-19 0 -36 4 -47 5v96c6 -2 20 -4 34 -4c44 0 58 20 58 56v241h-144v85h519v-85h-12c-38 0 -52 -17 -52 -54v-57c0 -32 10 -54 60 -54h40v-92h-43c-51 0 -63 -22 -63 -55v-40c0 -55 37 -73 95 -73c73 0 100 20 100 84zM816 179
c85 0 108 33 108 95v301h-111c12 -12 19 -32 19 -63v-71c0 -80 -42 -118 -121 -120v-47c0 -62 22 -95 105 -95z" />
    <glyph glyph-name="dvG_DH_VA" horiz-adv-x="1007" 
d="M612 234v129c0 91 46 142 155 142c34 0 65 -8 82 -20v90h-273v85h462v-85h-89v-575h-100v83c-17 -13 -48 -22 -82 -22c-57 0 -96 13 -121 38c-30 -25 -75 -39 -134 -39c-127 0 -195 50 -195 152v54c0 50 15 84 52 99c-35 18 -46 51 -46 96v60c0 26 6 43 19 54h-130v-248
c0 -96 -50 -146 -145 -146c-19 0 -36 4 -47 5v96c6 -2 20 -4 34 -4c44 0 58 20 58 56v241h-144v85h519v-85h-12c-38 0 -52 -17 -52 -54v-57c0 -32 10 -54 60 -54h40v-92h-43c-51 0 -63 -22 -63 -55v-40c0 -55 37 -73 95 -73c73 0 100 20 100 84zM853 204v159
c0 36 -21 56 -72 56c-52 0 -71 -20 -71 -56v-159c0 -36 19 -57 71 -57c51 0 72 21 72 57z" />
    <glyph glyph-name="dvG_NA" horiz-adv-x="853" 
d="M601 344v-146c0 -91 -44 -141 -149 -141s-150 50 -150 141v146c0 91 45 141 150 141h243v90h-483v-248c0 -96 -50 -146 -145 -146c-19 0 -36 4 -47 5v96c6 -2 20 -4 34 -4c44 0 58 20 58 56v241h-144v85h917v-85h-90v-575h-100v393h-106c8 -12 12 -29 12 -49zM506 199
v142c0 32 -11 52 -54 52s-54 -20 -54 -52v-142c0 -32 11 -52 54 -52s54 20 54 52z" />
    <glyph glyph-name="dvG_N_YA" horiz-adv-x="1161" 
d="M447 481h174c78 0 132 -27 150 -86c32 7 43 25 43 63v54c0 36 -9 63 -59 63h-543v-248c0 -96 -50 -146 -145 -146c-19 0 -36 4 -47 5v96c6 -2 20 -4 34 -4c44 0 58 20 58 56v241h-144v85h1225v-85h-90v-575h-100v119c-23 -21 -59 -33 -114 -33c-121 0 -197 53 -197 177
v95c-8 23 -32 33 -67 33h-42c8 -12 12 -31 12 -51v-142c0 -91 -43 -141 -148 -141s-150 50 -150 141v142c0 91 45 141 150 141zM896 179c84 0 107 33 107 95v301h-111c13 -12 20 -32 20 -63v-71c0 -80 -43 -118 -122 -120v-47c0 -62 22 -95 106 -95zM500 199v138
c0 32 -10 52 -53 52c-44 0 -54 -20 -54 -52v-138c0 -32 10 -52 54 -52c43 0 53 20 53 52z" />
    <glyph glyph-name="dvG_BA" horiz-adv-x="707" 
d="M555 0v83c-20 -14 -48 -21 -85 -21c-112 0 -168 40 -168 146v151c0 106 56 147 168 147c37 0 65 -7 85 -21v90h-343v-248c0 -96 -50 -146 -145 -146c-19 0 -36 4 -47 5v96c6 -2 20 -4 34 -4c44 0 58 20 58 56v241h-144v85h771v-85h-90v-575h-94zM477 421
c-46 0 -67 -14 -75 -37l153 -125v97c0 41 -18 65 -78 65zM398 212c0 -40 16 -66 79 -66c48 0 69 15 75 42l-154 128v-104z" />
    <glyph glyph-name="dvG_BHA" horiz-adv-x="867" 
d="M504 414v104c0 32 -7 54 -54 54s-54 -22 -54 -54v-42h-100v45c0 91 47 144 154 144c108 0 154 -53 154 -144v-107h105v246h190v-85h-90v-575h-100v329h-108v-135c0 -86 -45 -136 -154 -136s-153 50 -153 136v85c0 86 44 135 153 135h57zM255 660v-85h-43v-248
c0 -96 -50 -146 -145 -146c-19 0 -36 4 -47 5v96c6 -2 20 -4 34 -4c44 0 58 20 58 56v241h-144v85h287zM504 196v133h-57c-48 0 -57 -20 -57 -52v-81c0 -31 9 -52 57 -52c49 0 57 20 57 52z" />
    <glyph glyph-name="dvG_BH_YA" horiz-adv-x="1168" 
d="M598 424h70c49 0 81 -9 100 -29c39 6 53 23 53 65v52c0 36 -10 63 -59 63h-108v85h546v-85h-90v-575h-100v119c-23 -21 -59 -33 -114 -33c-121 0 -197 53 -197 177v71c-9 4 -20 5 -36 5h-68v-145c0 -86 -45 -136 -154 -136s-153 50 -153 136v96c0 85 44 134 153 134h57
v94c0 32 -7 54 -54 54s-54 -22 -54 -54v-32h-100v35c0 91 47 144 154 144c108 0 154 -53 154 -144v-97zM255 660v-85h-43v-248c0 -96 -50 -146 -145 -146c-19 0 -36 4 -47 5v96c6 -2 20 -4 34 -4c44 0 58 20 58 56v241h-144v85h287zM903 179c84 0 107 33 107 95v301h-111
c12 -12 20 -32 20 -63v-69c0 -80 -43 -118 -122 -120v-49c0 -62 22 -95 106 -95zM498 196v143h-57c-48 0 -57 -20 -57 -52v-91c0 -31 9 -52 57 -52c49 0 57 20 57 52z" />
    <glyph glyph-name="dvG_MA" horiz-adv-x="854" 
d="M697 0v352h-102v-158c0 -85 -45 -136 -154 -136s-154 51 -154 136v109c0 86 45 135 154 135h57v137h-286v-248c0 -96 -50 -146 -145 -146c-19 0 -36 4 -47 5v96c6 -2 20 -4 34 -4c44 0 58 20 58 56v241h-144v85h917v-85h-89v-575h-99zM595 438h102v137h-102v-137z
M498 197v155h-57c-49 0 -57 -19 -57 -52v-103c0 -32 8 -52 57 -52s57 20 57 52z" />
    <glyph glyph-name="dvG_YA" horiz-adv-x="779" 
d="M-32 575v85h843v-85h-90v-575h-100v119c-23 -21 -59 -33 -114 -33c-121 0 -197 53 -197 177v127h22c76 0 100 13 100 68v54c0 36 -9 63 -59 63h-161v-248c0 -96 -50 -146 -145 -146c-19 0 -36 4 -47 5v96c6 -2 20 -4 34 -4c44 0 58 20 58 56v241h-144zM514 179
c84 0 107 33 107 95v301h-111c13 -12 20 -32 20 -63v-71c0 -80 -43 -118 -122 -120v-47c0 -62 22 -95 106 -95z" />
    <glyph glyph-name="dvG_R_YA" horiz-adv-x="782" 
d="M-32 575v85h845v-85h-89v-575h-100v119c-24 -21 -60 -33 -115 -33c-88 0 -153 28 -181 92c-17 -25 -40 -56 -75 -96l-72 -82h-120l251 297v93h23c75 0 99 13 99 68v54c0 36 -9 63 -59 63h-165v-204c0 -96 -50 -145 -145 -145c-20 0 -36 3 -47 5v96c6 -2 20 -5 34 -5
c44 0 58 20 58 56v197h-142zM516 179c84 0 108 33 108 95v301h-111c12 -12 19 -32 19 -63v-71c0 -80 -43 -118 -121 -120v-47c0 -62 22 -95 105 -95z" />
    <glyph glyph-name="dvG_LA" horiz-adv-x="896" 
d="M304 165v176c0 91 50 145 156 145c63 0 94 -24 109 -50c16 26 46 50 102 50c29 0 55 -7 67 -20v109h-526v-248c0 -96 -50 -146 -145 -146c-19 0 -36 4 -47 5v96c6 -2 20 -4 34 -4c44 0 58 20 58 56v241h-144v85h960v-85h-90v-575h-100v338c0 34 -12 56 -58 56
c-48 0 -59 -23 -59 -56v-129h-100v129c0 32 -10 56 -58 56c-49 0 -58 -24 -58 -56v-172c0 -44 11 -78 86 -78h59l1 -88h-65c-133 0 -182 55 -182 165z" />
    <glyph glyph-name="dvG_VA" horiz-adv-x="697" 
d="M639 575v-575h-100v83c-17 -13 -48 -22 -82 -22c-111 0 -155 50 -155 142v160c0 91 46 142 155 142c34 0 65 -8 82 -20v90h-327v-248c0 -96 -50 -146 -145 -146c-19 0 -36 4 -47 5v96c6 -2 20 -4 34 -4c44 0 58 20 58 56v241h-144v85h760v-85h-89zM543 204v159
c0 36 -21 56 -73 56c-51 0 -70 -20 -70 -56v-159c0 -36 19 -57 70 -57c52 0 73 21 73 57z" />
    <glyph glyph-name="dvG_SA" horiz-adv-x="885" 
d="M-32 575v85h948v-85h-90v-575h-100v281h-150c-22 -17 -54 -26 -90 -26c-29 0 -57 5 -76 20v-133c0 -32 10 -56 61 -56s60 24 60 56v30h99v-31c0 -91 -48 -146 -159 -146s-159 55 -159 146v318h98v-60c0 -32 8 -55 57 -55s57 23 57 55v120c0 31 -12 56 -60 56h-252v-248
c0 -96 -50 -146 -145 -146c-19 0 -36 4 -47 5v96c6 -2 20 -4 34 -4c44 0 58 20 58 56v241h-144zM622 511v-113c0 -10 -1 -23 -4 -31h108v208h-126c16 -14 22 -36 22 -64z" />
    <glyph glyph-name="dvGH_NA" horiz-adv-x="893" 
d="M640 344v-146c0 -91 -43 -141 -148 -141c-56 0 -94 14 -119 41c-28 -24 -70 -38 -130 -38c-127 0 -193 50 -193 152v52c0 50 15 84 52 99c-35 18 -46 51 -46 96v62c0 26 6 43 19 54h-107v85h957v-85h-90v-575h-100v393h-106c8 -12 11 -29 11 -49zM342 234v110
c0 91 45 141 150 141h243v90h-527c-38 0 -52 -17 -52 -54v-59c0 -32 10 -54 61 -54h39v-93h-43c-51 0 -63 -21 -63 -54v-38c0 -55 36 -73 94 -73c72 0 98 20 98 84zM546 199v142c0 32 -11 52 -54 52s-54 -20 -54 -52v-142c0 -32 11 -52 54 -52s54 20 54 52z" />
    <glyph glyph-name="dvGH_MA" horiz-adv-x="908" 
d="M752 0v352h-102v-158c0 -85 -45 -136 -154 -136c-57 0 -96 14 -121 39c-30 -24 -74 -37 -132 -37c-127 0 -193 50 -193 152v52c0 50 15 84 52 99c-35 18 -46 51 -46 96v62c0 26 6 43 19 54h-107v85h972v-85h-90v-575h-98zM342 234v69c0 86 45 135 154 135h57v137h-345
c-32 -1 -52 -17 -52 -54v-59c0 -32 10 -54 61 -54h51v-93h-55c-51 0 -63 -21 -63 -54v-38c0 -55 36 -73 94 -73c72 0 98 20 98 84zM650 438h102v137h-102v-137zM553 197v155h-57c-49 0 -57 -19 -57 -52v-103c0 -32 8 -52 57 -52c48 0 57 20 57 52z" />
    <glyph glyph-name="dvGH_YA" horiz-adv-x="811" 
d="M-32 575v85h875v-85h-89v-575h-101v119c-23 -21 -59 -33 -114 -33c-56 0 -103 11 -136 36c-28 -39 -78 -62 -160 -62c-127 0 -193 50 -193 152v52c0 50 15 84 52 99c-35 18 -46 51 -46 96v62c0 26 6 43 19 54h-107zM342 234v156h23c75 0 99 13 99 68v54
c0 36 -9 63 -59 63h-197c-32 -1 -52 -17 -52 -54v-59c0 -32 10 -54 61 -54h51v-93h-55c-51 0 -63 -21 -63 -54v-38c0 -55 36 -73 94 -73c72 0 98 20 98 84zM546 179c84 0 107 33 107 95v301h-110c12 -12 19 -32 19 -63v-71c0 -80 -43 -118 -121 -120v-47
c0 -62 22 -95 105 -95z" />
    <glyph glyph-name="dvC_CA" horiz-adv-x="723" 
d="M423 342v-134c0 -39 14 -61 68 -61c55 0 72 21 74 56v372h-597v85h786v-85h-89v-575h-100v81c-22 -16 -54 -23 -87 -23c-52 0 -90 11 -115 34c-26 -22 -64 -34 -115 -34c-121 0 -173 50 -173 153v127c0 26 6 45 20 58h-82v90h232v-86h-13c-47 0 -57 -26 -57 -58v-134
c0 -39 15 -61 73 -61s74 22 74 61v130c0 29 6 47 21 62h-53v86h229v-86h-39c-47 0 -57 -26 -57 -58z" />
    <glyph glyph-name="dvC_CHA" horiz-adv-x="813" 
d="M765 359v-187c0 -115 -55 -162 -216 -162c-106 0 -168 21 -198 67c-25 -12 -57 -19 -97 -19c-128 0 -179 50 -179 153v127c0 26 6 45 20 58h-82v90h258v-86h-39c-47 0 -57 -26 -57 -58v-128c0 -45 16 -67 79 -67c50 0 70 14 77 43v2c0 43 16 77 53 93
c-36 17 -47 49 -47 95v131c0 31 8 51 22 64h-391v85h876v-85h-144v-92c47 -17 65 -60 65 -124zM667 176v169c0 46 -16 68 -68 68c-35 0 -54 -10 -54 -10v85s26 10 63 10v77h-109c-49 0 -62 -22 -62 -66v-125c0 -33 10 -54 61 -54h64v-89h-62c-51 0 -68 -15 -68 -56v-17
c0 -53 19 -68 117 -68c99 0 118 21 118 76z" />
    <glyph glyph-name="dvC_CH_VA" horiz-adv-x="813" 
d="M764 359v-187c0 -56 -13 -96 -45 -122v-319h-100v65c-22 -15 -60 -24 -90 -24c-105 0 -161 44 -161 141v35c0 40 16 66 40 83c-26 11 -44 27 -57 47c-25 -13 -58 -20 -98 -20c-128 0 -179 50 -179 153v127c0 26 6 45 20 58h-82v90h258v-86h-39c-46 0 -57 -26 -57 -58
v-128c0 -45 16 -67 79 -67c53 0 73 15 78 47c1 42 16 75 52 91c-35 17 -47 49 -47 95v131c0 31 8 51 23 64h-391v85h876v-85h-144v-92c47 -17 64 -60 64 -124zM666 176v169c0 46 -16 68 -68 68c-35 0 -54 -10 -54 -10v85s26 10 63 10v77h-109c-49 0 -62 -22 -62 -66v-125
c0 -33 10 -54 61 -54h64v-89h-61c-51 0 -69 -15 -69 -56v-17c0 -53 19 -68 118 -68c98 0 117 21 117 76zM464 -83c0 -39 19 -61 76 -61c58 0 80 22 80 61v97c-21 -3 -45 -4 -71 -4h-9c-57 0 -76 -23 -76 -62v-31z" />
    <glyph glyph-name="dvC_NA" horiz-adv-x="874" 
d="M622 344v-146c0 -91 -44 -141 -149 -141c-52 0 -89 12 -113 35c-25 -21 -61 -34 -112 -34c-125 0 -173 50 -173 150v130c0 26 6 45 20 58h-82v90h258v-86h-39c-47 0 -57 -26 -57 -58v-131c0 -42 12 -64 73 -64s76 22 76 64v133c0 91 44 141 149 141h243v90h-748v85h938
v-85h-90v-575h-100v393h-105c8 -12 11 -29 11 -49zM527 199v142c0 32 -11 52 -54 52s-53 -20 -53 -52v-142c0 -32 10 -52 53 -52s54 20 54 52z" />
    <glyph glyph-name="dvC_MA" horiz-adv-x="900" 
d="M744 0v352h-103v-158c0 -85 -44 -136 -153 -136c-53 0 -91 12 -116 34c-27 -22 -66 -34 -118 -34c-128 0 -179 50 -179 153v127c0 26 6 45 20 58h-82v90h275v-86h-56c-47 0 -57 -26 -57 -58v-128c0 -45 16 -67 79 -67c62 0 80 22 80 67v89c0 86 45 135 154 135h57v137
h-577v85h964v-85h-90v-575h-98zM641 438h103v137h-103v-137zM545 197v155h-57c-49 0 -57 -19 -57 -52v-103c0 -32 8 -52 57 -52c48 0 57 20 57 52z" />
    <glyph glyph-name="dvC_YA" horiz-adv-x="803" 
d="M-32 575v85h867v-85h-90v-575h-100v119c-23 -21 -59 -33 -114 -33c-54 0 -99 10 -132 33c-26 -40 -74 -61 -145 -61c-128 0 -179 50 -179 153v127c0 26 6 45 20 58h-82v90h266v-86h-47c-47 0 -57 -26 -57 -58v-128c0 -45 16 -67 79 -67c62 0 80 22 80 67v176h22
c76 0 100 13 100 68v54c0 36 -9 63 -59 63h-429zM538 179c84 0 107 33 107 95v301h-111c13 -12 20 -32 20 -63v-71c0 -80 -43 -118 -122 -120v-47c0 -62 22 -95 106 -95z" />
    <glyph glyph-name="dvCH_YA" horiz-adv-x="1035" 
d="M334 510c35 0 64 -6 87 -18h211c106 0 153 -41 153 -132v-18c0 -80 -44 -115 -121 -115v-1c0 -51 22 -82 105 -82c85 0 108 33 108 96v335h-658c-48 0 -62 -22 -62 -66v-125c0 -33 11 -54 61 -54h65v-89h-62c-51 0 -69 -15 -69 -56v-17c0 -53 19 -68 118 -68
s117 21 117 76v181c0 47 -16 69 -71 69c-29 0 -51 -10 -51 -10v85s32 10 69 9zM-32 575v85h1099v-85h-90v-575h-100v84c-24 -21 -59 -33 -115 -33c-121 0 -196 54 -196 177v70h54c50 0 68 10 68 49v5c0 32 -10 49 -53 49h-152c1 -9 2 -19 2 -29v-200
c0 -115 -55 -162 -215 -162c-157 0 -218 45 -218 153v29c0 43 15 77 52 93c-35 17 -47 49 -47 95v131c0 31 8 51 23 64h-112z" />
    <glyph glyph-name="dvCH_R_YA" horiz-adv-x="1044" 
d="M886 575h-469v-83h224c106 0 154 -41 154 -132v-18c-1 -80 -44 -115 -122 -115v-1c0 -54 22 -82 106 -82s107 33 107 96v335zM383 176v169c0 46 -16 68 -68 68c-35 0 -54 -10 -54 -10v85s26 10 63 10v77h-109c-49 0 -62 -22 -62 -66v-125c0 -33 10 -54 61 -54h64v-89h-61
c-51 0 -69 -15 -69 -56v-17c0 -53 19 -68 118 -68c98 0 117 21 117 76zM326 -113l-56 123h-6l-55 -123h-104l66 131c-87 17 -123 62 -123 145v29c0 43 15 77 52 93c-35 17 -47 49 -47 95v131c0 31 8 51 23 64h-108v85h1108v-85h-90v-575h-100v84c-23 -21 -59 -33 -114 -33
c-121 0 -197 54 -197 177v70h54c52 0 67 10 68 48v6c0 32 -10 49 -53 49h-166c2 -13 3 -27 3 -42v-187c0 -88 -32 -136 -118 -154l66 -131h-103z" />
    <glyph glyph-name="dvCH_VA" horiz-adv-x="529" 
d="M481 359v-187c0 -56 -13 -96 -45 -122v-319h-101v65c-22 -15 -59 -24 -89 -24c-106 0 -162 44 -162 141v35c0 40 16 66 40 84c-53 23 -76 65 -76 131v29c0 43 15 77 52 93c-35 17 -47 49 -47 95v131c0 31 8 51 23 64h-108v85h592v-85h-143v-92c47 -17 64 -60 64 -124z
M383 176v169c0 46 -16 68 -68 68c-35 0 -54 -10 -54 -10v85s26 10 63 10v77h-109c-49 0 -62 -22 -62 -66v-125c0 -33 10 -54 61 -54h64v-89h-61c-51 0 -69 -15 -69 -56v-17c0 -53 19 -68 118 -68c98 0 117 21 117 76zM180 -83c0 -39 19 -61 77 -61c57 0 79 22 79 61v97
c-21 -3 -44 -4 -70 -4h-9c-58 0 -77 -23 -77 -62v-31z" />
    <glyph glyph-name="dvJ_KA" horiz-adv-x="1011" 
d="M813 69v92c51 -1 63 15 63 53v147c0 33 -10 56 -59 56c-50 0 -59 -22 -59 -56v-361h-98v80c-15 -12 -41 -20 -71 -20c-102 0 -145 46 -145 137v167c0 13 1 25 3 36h-124c13 -17 19 -37 19 -65v-144c0 -91 -50 -143 -159 -143s-158 53 -158 145v84h100v-83
c0 -32 8 -55 58 -55c49 0 59 23 59 55v142c0 33 -13 58 -63 58h-59v92h381c22 13 51 19 88 19c30 0 56 -8 71 -20v90h-692v85h1074v-85h-284v-89c16 12 41 19 70 19c101 0 144 -52 144 -141v-158c0 -89 -40 -140 -140 -139c-6 0 -16 1 -19 2zM600 145c48 0 59 21 60 53v163
c0 34 -10 56 -60 56s-60 -22 -60 -56v-161c0 -33 10 -55 60 -55z" />
    <glyph glyph-name="dvJ_JA" horiz-adv-x="1006" 
d="M527 277v-83c0 -32 8 -55 58 -55c49 0 58 23 58 55v142c0 33 -12 58 -62 58h-258c12 -12 19 -31 19 -59v-144c0 -91 -50 -143 -159 -143s-158 53 -158 145v84h100v-83c0 -32 8 -55 58 -55c49 0 59 23 59 55v142c0 33 -13 58 -63 58h-59v92h728v89h-880v85h1069v-85h-89
v-575h-100v400h-124c13 -17 19 -37 19 -65v-144c0 -91 -49 -143 -158 -143s-158 53 -158 145v84h100z" />
    <glyph glyph-name="dvJx_JxA" horiz-adv-x="999" 
d="M520 277v-83c0 -32 8 -55 58 -55c49 0 58 23 58 55v142c0 33 -12 58 -62 58h-251c12 -12 19 -31 19 -59v-144c0 -91 -50 -143 -159 -143s-158 53 -158 145v84h100v-83c0 -32 8 -55 58 -55c49 0 59 23 59 55v142c0 33 -13 58 -63 58h-59v92h721v89h-873v85h1062v-85h-89
v-575h-100v400h-124c13 -17 19 -37 19 -65v-144c0 -91 -49 -143 -158 -143s-158 53 -158 145v84h100zM-47 -29c0 32 14 57 58 57s57 -25 57 -57c0 -33 -14 -58 -57 -58c-45 0 -58 25 -58 58zM348 -29c0 32 14 57 58 57s57 -25 57 -57c0 -33 -14 -58 -58 -58s-57 25 -57 58z
" />
    <glyph glyph-name="dvJ_J_NYA" horiz-adv-x="1015" 
d="M438 283h97v-53c0 -32 6 -55 58 -55c51 0 59 23 59 55v106c0 33 -13 58 -63 58h-267c14 -14 19 -33 19 -59v-144c0 -91 -49 -143 -158 -143s-159 53 -159 145v84h101v-83c0 -32 8 -55 58 -55c48 0 58 23 58 55v142c0 33 -13 58 -62 58h-60v92h738v89h-889v85h1078v-85
h-89v-575h-100v400h-123c12 -18 18 -40 18 -65v-109c0 -96 -53 -143 -142 -143c-35 0 -55 5 -75 16v-99h-97v283z" />
    <glyph glyph-name="dvJ_J_YA" horiz-adv-x="1317" 
d="M-32 575v85h1381v-85h-90v-575h-100v119c-23 -21 -59 -33 -114 -33c-121 0 -197 53 -197 177v102c-5 29 -29 35 -82 35h-42c13 -17 19 -37 19 -65v-144c0 -91 -49 -143 -158 -143s-158 53 -158 145v84h100v-83c0 -32 8 -55 58 -55c49 0 58 23 58 55v142
c0 33 -12 58 -62 58h-258c12 -12 19 -31 19 -59v-144c0 -91 -50 -143 -159 -143s-158 53 -158 145v84h100v-83c0 -32 8 -55 58 -55c49 0 59 23 59 55v142c0 33 -13 58 -63 58h-59v92h656c87 0 143 -28 151 -83c32 8 43 26 43 63v46c0 36 -9 63 -59 63h-943zM1052 179
c84 0 107 33 107 95v301h-111c13 -12 20 -32 20 -63v-63c0 -80 -43 -117 -122 -120v-55c0 -62 22 -95 106 -95z" />
    <glyph glyph-name="dvJ_J_VA" horiz-adv-x="1241" 
d="M1183 575v-575h-100v83c-17 -13 -48 -22 -82 -22c-111 0 -154 50 -154 142v160c0 13 1 26 3 37h-126c13 -17 19 -37 19 -65v-144c0 -91 -49 -143 -158 -143s-158 53 -158 145v84h100v-83c0 -32 8 -55 58 -55c49 0 58 23 58 55v142c0 33 -12 58 -62 58h-258
c12 -12 19 -31 19 -59v-144c0 -91 -50 -143 -159 -143s-158 53 -158 145v84h100v-83c0 -32 8 -55 58 -55c49 0 59 23 59 55v142c0 33 -13 58 -63 58h-59v92h788c24 13 54 19 93 19c34 0 65 -8 82 -20v90h-1115v85h1305v-85h-90zM1087 204v159c0 36 -20 56 -72 56
s-71 -20 -71 -56v-159c0 -36 19 -57 71 -57s72 21 72 57z" />
    <glyph glyph-name="dvJ_JHA" horiz-adv-x="1007" 
d="M593 235h-7c-103 0 -157 39 -157 130v9c0 9 1 18 2 26h-108c13 -17 19 -37 19 -65v-144c0 -91 -50 -143 -159 -143s-158 53 -158 145v84h100v-83c0 -32 8 -55 58 -55c49 0 59 23 59 55v142c0 33 -13 58 -63 58h-59v92h368c25 12 57 18 98 18h63v71h-681v85h1070v-85h-89
v-575h-100v240h-114c13 -13 21 -35 21 -61v-36c0 -98 -49 -135 -149 -135c-33 0 -61 7 -80 20v-88h-98v233h98v-24c0 -33 13 -54 65 -54s66 21 66 54v31c0 33 -14 55 -65 55zM585 320h264v255h-100v-158h-163c-44 0 -57 -16 -57 -46v-4c0 -30 12 -47 56 -47z" />
    <glyph glyph-name="dvJ_NY_YA" horiz-adv-x="929" 
d="M45 283h97v-53c0 -32 7 -55 59 -55c50 0 58 23 58 55v106c0 33 -13 58 -63 58h-61v92h264c83 0 139 -25 145 -81c27 8 37 26 37 61v46c0 36 -9 63 -59 63h-554v85h992v-85h-89v-575h-100v119c-24 -21 -60 -33 -115 -33c-121 0 -196 53 -196 177v115c-8 17 -28 22 -69 22
h-50c12 -18 18 -40 18 -65v-109c0 -96 -53 -143 -142 -143c-35 0 -55 5 -75 16v-99h-97v283zM663 179c85 0 108 33 108 95v301h-111c12 -12 19 -32 19 -63v-63c0 -80 -42 -117 -121 -120v-55c0 -62 22 -95 105 -95z" />
    <glyph glyph-name="dvJ_TTA" horiz-adv-x="808" 
d="M749 405h-138c-51 0 -62 -21 -62 -53v-211c0 -32 12 -56 63 -56s63 24 63 56v88h100v-88c0 -91 -52 -146 -163 -146s-163 55 -163 146v214c0 17 1 32 5 45h-131c13 -17 19 -37 19 -65v-144c0 -91 -50 -143 -159 -143s-158 53 -158 145v84h100v-83c0 -32 8 -55 58 -55
c49 0 59 23 59 55v142c0 33 -13 58 -63 58h-59v92h413c22 7 48 10 78 10h38v79h-681v85h871v-85h-90v-170z" />
    <glyph glyph-name="dvJ_DDA" horiz-adv-x="805" 
d="M639 575h-671v85h868v-85h-97v-158h-155c-44 0 -56 -19 -56 -48v-15c0 -30 12 -49 56 -49h22c111 0 163 -44 163 -135v-38c0 -91 -56 -137 -170 -137s-171 46 -171 137v28h101v-25c0 -32 16 -53 69 -53c54 0 71 21 71 53v32c0 31 -12 53 -63 53h-22
c-102 0 -156 39 -156 130v24c0 9 1 18 2 26h-107c13 -17 19 -37 19 -65v-144c0 -91 -50 -143 -159 -143s-158 53 -158 145v84h100v-83c0 -32 8 -55 58 -55c49 0 59 23 59 55v142c0 33 -13 58 -63 58h-59v92h367c24 12 57 18 97 18h55v71z" />
    <glyph glyph-name="dvJ_TA" horiz-adv-x="853" 
d="M618 93v-93c-6 -1 -18 -2 -25 -2c-106 -1 -143 50 -143 140v210c0 19 2 36 6 52h-133c13 -17 19 -37 19 -65v-144c0 -91 -50 -143 -159 -143s-158 53 -158 145v84h100v-83c0 -32 8 -55 58 -55c49 0 59 23 59 55v142c0 33 -13 58 -63 58h-59v92h411c22 9 49 14 80 14
c37 0 67 -8 84 -21v96h-727v85h917v-85h-90v-575h-100v345c0 36 -17 62 -72 62c-56 0 -73 -26 -73 -62v-199c0 -38 18 -54 68 -53z" />
    <glyph glyph-name="dvJ_DA" horiz-adv-x="822" 
d="M443 207v150c0 16 1 30 4 43h-124c13 -17 19 -37 19 -65v-144c0 -91 -50 -143 -159 -143s-158 53 -158 145v84h100v-83c0 -32 8 -55 58 -55c49 0 59 23 59 55v142c0 33 -13 58 -63 58h-59v92h398c24 9 53 13 89 13h54v76h-693v85h885v-85h-92v-168h-154
c-16 0 -28 -2 -37 -5v-2h-4c-18 -8 -23 -24 -23 -45v-145c0 -33 14 -53 66 -53s66 20 66 53v64h98v-278h-98v92c-20 -14 -49 -20 -78 -20c-105 0 -154 48 -154 139z" />
    <glyph glyph-name="dvJ_NA" horiz-adv-x="994" 
d="M741 344v-146c0 -91 -43 -141 -148 -141s-150 50 -150 141v146c0 14 1 27 3 38c-15 11 -37 18 -68 18h-55c13 -17 19 -37 19 -65v-144c0 -91 -50 -143 -159 -143s-158 53 -158 145v84h100v-83c0 -32 8 -55 58 -55c49 0 59 23 59 55v142c0 33 -13 58 -63 58h-59v92h260
c48 0 86 -9 109 -28c25 18 59 27 104 27h243v90h-868v85h1058v-85h-90v-575h-100v393h-106c8 -12 11 -29 11 -49zM647 199v142c0 32 -11 52 -54 52s-54 -20 -54 -52v-142c0 -32 11 -52 54 -52s54 20 54 52z" />
    <glyph glyph-name="dvJ_BA" horiz-adv-x="850" 
d="M698 0v83c-20 -14 -48 -21 -86 -21c-111 0 -167 40 -167 146v151c0 15 1 29 3 41h-126c13 -17 19 -37 19 -65v-144c0 -91 -49 -143 -158 -143s-159 53 -159 145v84h101v-83c0 -32 8 -55 58 -55c48 0 58 23 58 55v142c0 33 -13 58 -62 58h-60v92h389c26 14 61 20 104 20
c38 0 66 -7 86 -21v90h-730v85h914v-85h-90v-575h-94zM619 421c-45 0 -66 -14 -74 -37l153 -126v98c0 41 -18 65 -79 65zM541 212c0 -40 16 -66 78 -66c49 0 69 15 76 42l-154 128v-104z" />
    <glyph glyph-name="dvJ_MA" horiz-adv-x="997" 
d="M120 486h273c74 0 121 -19 140 -52c15 3 32 4 51 4h57v137h-673v85h1061v-85h-90v-575h-98v352h-103v-158c0 -85 -44 -136 -154 -136c-109 0 -153 51 -153 136v109c0 33 6 60 20 81c-13 12 -37 16 -76 16h-52c13 -17 19 -37 19 -65v-144c0 -91 -50 -143 -159 -143
s-158 53 -158 145v84h100v-83c0 -32 8 -55 58 -55c49 0 59 23 59 55v142c0 33 -13 58 -63 58h-59v92zM738 438h103v137h-103v-137zM641 197v155h-57c-48 0 -57 -19 -57 -52v-103c0 -32 9 -52 57 -52c49 0 57 20 57 52z" />
    <glyph glyph-name="dvJ_YA" horiz-adv-x="916" 
d="M120 486h254c87 0 144 -28 152 -83c31 8 42 26 42 63v46c0 36 -9 63 -59 63h-541v85h979v-85h-89v-575h-100v119c-24 -21 -60 -33 -115 -33c-121 0 -197 53 -197 177v106c-7 25 -31 31 -81 31h-42c13 -17 19 -37 19 -65v-144c0 -91 -50 -143 -159 -143s-158 53 -158 145
v84h100v-83c0 -32 8 -55 58 -55c49 0 59 23 59 55v142c0 33 -13 58 -63 58h-59v92zM650 179c85 0 108 33 108 95v301h-111c12 -12 19 -32 19 -63v-63c0 -80 -42 -117 -121 -120v-55c0 -62 22 -95 105 -95z" />
    <glyph glyph-name="dvJx_YA" horiz-adv-x="926" 
d="M120 486h290c72 0 114 -29 124 -84c33 8 45 26 45 64v46c0 36 -10 63 -59 63h-552v85h990v-85h-90v-575h-100v119c-24 -21 -59 -33 -114 -33c-121 0 -197 53 -197 177v77c0 46 -16 60 -65 60h-69c13 -17 19 -37 19 -65v-144c0 -91 -50 -143 -159 -143s-158 53 -158 145
v84h100v-83c0 -32 8 -55 58 -55c49 0 59 23 59 55v142c0 33 -13 58 -63 58h-59v92zM660 179c85 0 108 33 108 95v301h-111c12 -12 20 -32 20 -63v-63c0 -80 -43 -117 -122 -120v-55c0 -62 22 -95 105 -95zM-47 -29c0 32 14 57 58 57s57 -25 57 -57c0 -33 -14 -58 -57 -58
c-45 0 -58 25 -58 58z" />
    <glyph glyph-name="dvJ_VA" horiz-adv-x="840" 
d="M782 575v-575h-101v83c-16 -13 -47 -22 -81 -22c-111 0 -155 50 -155 142v160c0 13 1 26 3 37h-125c13 -17 19 -37 19 -65v-144c0 -91 -50 -143 -159 -143s-158 53 -158 145v84h100v-83c0 -32 8 -55 58 -55c49 0 59 23 59 55v142c0 33 -13 58 -63 58h-59v92h387
c23 13 54 19 93 19c34 0 65 -8 81 -20v90h-713v85h903v-85h-89zM686 204v159c0 36 -21 56 -73 56s-70 -20 -70 -56v-159c0 -36 18 -57 70 -57s73 21 73 57z" />
    <glyph glyph-name="dvJH_NA" horiz-adv-x="1021" 
d="M769 344v-146c0 -91 -44 -141 -149 -141s-149 50 -149 141v42h-118c14 -14 21 -35 21 -61v-35c0 -91 -38 -136 -154 -136c-29 0 -62 7 -77 21v-89h-98v233h98v-22c0 -34 13 -54 65 -54s66 20 66 54v31c0 29 -12 51 -59 53h-7c-106 0 -163 39 -163 130v9
c0 91 51 130 163 130h57v71h-297v85h1085v-85h-90v-575h-100v393h-106c9 -12 12 -29 12 -49zM863 485v90h-498v-158h-157c-49 0 -62 -16 -63 -43v-6c0 -30 12 -48 61 -48h265v24c0 91 44 141 149 141h243zM674 199v142c0 32 -11 52 -54 52s-53 -20 -53 -52v-142
c0 -32 10 -52 53 -52s54 20 54 52z" />
    <glyph glyph-name="dvJH_MA" horiz-adv-x="1021" 
d="M865 0v352h-103v-158c0 -85 -44 -136 -153 -136s-154 51 -154 136v46h-102c14 -14 21 -35 21 -61v-35c0 -91 -38 -136 -154 -136c-29 0 -62 7 -77 21v-89h-98v233h98v-22c0 -34 13 -54 65 -54s66 20 66 54v31c0 29 -12 51 -59 53h-7c-106 0 -163 39 -163 130v9
c0 91 51 130 163 130h75v71h-315v85h1085v-85h-90v-575h-98zM666 438v137h-283v-158h-175c-49 0 -62 -16 -63 -43v-6c0 -30 12 -48 61 -48h250c5 76 51 118 153 118h57zM762 438h103v137h-103v-137zM666 197v155h-57c-49 0 -57 -19 -57 -52v-103c0 -32 8 -52 57 -52
c48 0 57 20 57 52z" />
    <glyph glyph-name="dvJH_YA" horiz-adv-x="931" 
d="M-32 575v85h994v-85h-89v-575h-100v119c-24 -21 -60 -33 -115 -33c-113 0 -187 46 -196 154h-109c14 -14 21 -35 21 -61v-35c0 -91 -38 -136 -154 -136c-29 0 -62 7 -77 21v-89h-98v233h98v-22c0 -34 13 -54 65 -54s66 20 66 54v31c0 29 -12 51 -59 53h-7
c-106 0 -163 39 -163 130v9c0 91 51 130 163 130h57v71h-297zM583 512c0 36 -9 63 -59 63h-159v-158h-157c-49 0 -62 -16 -63 -43v-6c0 -30 12 -48 61 -48h255v70h23c75 0 99 13 99 68v54zM665 179c85 0 108 33 108 95v301h-111c12 -12 19 -32 19 -63v-71
c0 -80 -43 -118 -121 -120v-47c0 -62 22 -95 105 -95z" />
    <glyph glyph-name="dvNY_CA" horiz-adv-x="908" 
d="M608 342v-134c0 -39 15 -61 69 -61s72 21 73 56v372h-782v85h971v-85h-89v-575h-100v81c-21 -16 -53 -23 -87 -23c-108 0 -155 50 -155 146h-156l-1 -30c-7 -69 -52 -121 -155 -121c-111 0 -158 55 -158 146v35h101v-32c0 -32 6 -56 57 -56s58 24 58 56v155
c0 32 -7 56 -58 56s-57 -24 -57 -56v-31h-101v34c0 91 47 146 158 146s158 -55 158 -146v-70h154v48c0 26 7 45 20 58h-101v90h278v-86h-40c-46 0 -57 -26 -57 -58z" />
    <glyph glyph-name="dvNY_CHA" horiz-adv-x="925" 
d="M877 359v-187c0 -115 -55 -162 -216 -162c-157 0 -218 45 -218 153v21c0 31 10 47 22 62h-111v-48c0 -90 -53 -145 -158 -145c-111 0 -158 55 -158 146v35h101v-32c0 -32 6 -56 57 -56s58 24 58 56v155c0 32 -7 56 -58 56s-57 -24 -57 -56v-31h-101v34
c0 91 47 146 158 146s158 -55 158 -146v-32h113c-10 15 -18 32 -18 64v119c0 31 8 51 22 64h-503v85h989v-85h-144v-92c46 -17 64 -60 64 -124zM779 176v169c0 46 -16 68 -68 68c-35 0 -54 -10 -54 -10v85s26 10 63 10v77h-109c-49 0 -62 -22 -62 -66v-125
c0 -33 10 -54 61 -54h64v-89h-61c-52 0 -69 -15 -69 -56v-17c0 -53 19 -68 117 -68c99 0 118 21 118 76z" />
    <glyph glyph-name="dvNY_JA" horiz-adv-x="1013" 
d="M526 328v-134c0 -32 9 -55 62 -55c52 0 62 23 62 55v148c0 38 -12 58 -62 58h-70v86h337v89h-887v85h1077v-85h-90v-575h-100v400h-124c14 -17 20 -37 20 -65v-144c0 -91 -51 -143 -163 -143s-162 53 -162 145v55h-72v-50c0 -90 -53 -145 -158 -145
c-111 0 -158 55 -158 146v35h101v-32c0 -32 6 -56 57 -56s58 24 58 56v155c0 32 -7 56 -58 56s-57 -24 -57 -56v-31h-101v34c0 91 47 146 158 146s158 -55 158 -146v-32h172z" />
    <glyph glyph-name="dvNY_SHA" horiz-adv-x="1014" 
d="M773 519v-121c0 -91 -42 -144 -148 -144c-27 0 -62 7 -77 19v-129c0 -33 13 -57 64 -57c50 0 64 24 64 57v35h100v-38c0 -91 -53 -146 -164 -146s-164 55 -164 146v94h-95v-37c0 -90 -52 -145 -157 -145c-111 0 -158 55 -158 146v35h101v-32c0 -32 6 -56 57 -56
s58 24 58 56v155c0 32 -7 56 -58 56s-57 -24 -57 -56v-31h-101v34c0 91 47 146 158 146s158 -55 158 -146v-38h94v88h100v-15c0 -30 14 -51 63 -51c50 0 62 23 62 55v117c0 32 -12 56 -62 56c-51 0 -63 -24 -63 -56v-38h-100v41c0 91 51 146 163 146c111 0 162 -55 162 -146
zM379 660v-85h-411v85h411zM856 660h189v-85h-89v-575h-100v660z" />
    <glyph glyph-name="dvTT_TTA" horiz-adv-x="428" 
d="M258 575h-290v85h491v-85h-100v-170h-143c-54 0 -69 -18 -69 -53v-71c0 -35 15 -57 69 -57c53 0 68 22 68 57v28h100v-37c0 -35 -8 -63 -25 -84v-185h-143c-54 0 -69 -18 -69 -53v-72c0 -35 15 -56 69 -56c53 0 68 21 68 56v28h100v-37c0 -91 -57 -134 -168 -134
c-112 0 -169 52 -169 137v81c0 97 57 141 169 141h57v49c-17 -3 -36 -5 -57 -5c-112 0 -169 51 -169 137v80c0 97 57 141 169 141h42v79z" />
    <glyph glyph-name="dvTT_TTHA" horiz-adv-x="431" 
d="M388 71v-87c0 -91 -58 -141 -169 -141s-168 50 -168 141v87c0 43 14 74 43 94c-29 22 -43 55 -43 98v92c0 97 57 141 168 141h43v79h-294v85h495v-85h-101v-170h-143c-53 0 -68 -18 -68 -53v-89c0 -35 15 -56 68 -56c54 0 68 21 68 56v34h101v-37c0 -41 -15 -73 -43 -95
c28 -20 43 -51 43 -94zM290 -13v81c0 35 -16 58 -71 58s-71 -23 -71 -58v-81c0 -35 16 -58 71 -58s71 23 71 58z" />
    <glyph glyph-name="dvTT_YA" horiz-adv-x="903" 
d="M745 575h-400v-79h155c106 0 153 -40 153 -132v-22c0 -79 -43 -115 -121 -115v-1c0 -54 22 -82 105 -82c85 0 108 33 108 96v335zM-32 575v85h967v-85h-90v-575h-100v84c-24 -21 -59 -33 -115 -33c-120 0 -196 54 -196 177v70h54c51 0 68 11 68 49v9c0 32 -10 49 -53 49
h-296c-51 0 -61 -21 -61 -53v-211c0 -32 11 -56 62 -56s63 24 63 56v88h100v-88c0 -91 -52 -146 -163 -146s-162 55 -162 146v214c0 97 50 141 161 141h38v79h-277z" />
    <glyph glyph-name="dvTT_VA" horiz-adv-x="440" 
d="M356 575v-170h-144c-50 0 -61 -21 -61 -53v-86c0 -40 13 -64 72 -64s73 24 73 64v38h100v-41c0 -38 -9 -70 -27 -94v-356h-95v73c-17 -13 -44 -20 -74 -20c-100 0 -145 41 -146 131v57c0 43 19 73 46 92c-33 26 -49 66 -49 117v89c0 97 50 144 161 144h44v79h-288v85h503
v-85h-115zM274 3v111c-16 -3 -33 -4 -51 -4h-8c-52 0 -65 -23 -65 -56v-51c0 -34 13 -53 61 -53s63 19 63 53z" />
    <glyph glyph-name="dvTTH_TTHA" horiz-adv-x="447" 
d="M56 264v100c0 80 39 126 118 138v73h-206v85h510v-85h-204v-73c79 -12 118 -57 118 -137v-101c0 -42 -15 -74 -46 -95c31 -20 46 -52 46 -96v-101c0 -91 -57 -141 -168 -141s-168 50 -168 141v100c0 45 16 77 46 97c-30 21 -46 53 -46 95zM295 267v95c0 35 -16 58 -71 58
s-71 -23 -71 -58v-95c0 -35 16 -58 71 -58s71 23 71 58zM295 -25v95c0 35 -16 58 -71 58s-71 -23 -71 -58v-95c0 -35 16 -58 71 -58s71 23 71 58z" />
    <glyph glyph-name="dvTTH_YA" horiz-adv-x="920" 
d="M762 575h-504v-71c2 0 4 -1 5 -1h254c106 0 154 -41 154 -132v-29c0 -79 -44 -115 -122 -115v-1c0 -51 23 -82 106 -82c84 0 107 33 107 96v335zM274 140v225c0 32 -14 58 -66 58s-65 -26 -65 -58v-225c0 -33 13 -58 65 -58s66 25 66 58zM371 367v-226
c0 -91 -52 -146 -163 -146s-162 55 -162 146v226c0 76 35 124 112 137v71h-190v85h984v-85h-90v-575h-100v84c-23 -21 -59 -33 -114 -33c-121 0 -197 54 -197 177v70h54c52 0 68 11 68 49v16c0 31 -10 49 -53 49h-154c3 -14 5 -29 5 -45z" />
    <glyph glyph-name="dvDD_DDA" horiz-adv-x="437" 
d="M271 575h-303v85h501v-85h-97v-155h-171c-40 0 -55 -12 -55 -41v-3c0 -30 14 -42 55 -42h53c107 0 147 -42 147 -120v-15c0 -100 -53 -135 -180 -135h-21c-40 0 -54 -12 -54 -42v-3c0 -30 13 -42 54 -42h54c106 0 147 -41 147 -120v-14c0 -100 -53 -136 -180 -136
s-180 38 -180 138v20h100v-17c0 -37 13 -57 80 -57c66 0 79 14 79 54v8c0 33 -11 46 -58 46h-49c-99 0 -147 38 -147 118v7c0 39 12 64 34 81c-27 19 -39 49 -39 97v20h101v-17c0 -37 13 -57 79 -57c67 0 80 13 80 53v9c0 32 -12 46 -58 46h-50c-98 0 -147 38 -147 117v8
c0 83 57 118 147 118h78v76z" />
    <glyph glyph-name="dvDD_DDHA" horiz-adv-x="436" 
d="M224 64h-9c-56 0 -70 -21 -70 -65v-137c0 -36 13 -64 77 -64c63 0 76 27 76 62v7c0 38 -20 51 -51 51c-23 0 -37 -8 -37 -8v77s23 8 53 8c80 0 132 -39 132 -125v-14c0 -95 -56 -144 -173 -144c-118 0 -176 52 -176 147v143c0 44 12 77 38 99c-30 19 -44 50 -44 101v20
h100v-17c0 -37 14 -57 80 -57c67 0 80 13 80 53v9c0 32 -12 46 -58 46h-50c-98 0 -147 38 -147 117v8c0 83 57 118 147 118h78v76h-302v85h499v-85h-97v-155h-170c-41 0 -55 -12 -55 -41v-3c0 -30 14 -42 55 -42h53c107 0 147 -42 147 -120v-15c0 -100 -53 -135 -176 -135z
" />
    <glyph glyph-name="dvDD_YA" horiz-adv-x="924" 
d="M766 575h-414v-71h169c106 0 153 -36 153 -128v-22c0 -80 -43 -116 -121 -116v-5c0 -58 22 -89 105 -89c85 0 108 33 108 96v335zM252 575h-284v85h988v-85h-90v-575h-100v84c-24 -21 -59 -33 -115 -33c-120 0 -196 54 -196 177v82h54c51 0 68 10 68 48v10
c0 32 -10 49 -53 49h-326c-45 0 -57 -19 -57 -48v-15c0 -30 12 -49 57 -49h21c112 0 163 -44 163 -135v-38c0 -91 -56 -137 -170 -137s-170 46 -170 137v28h100v-25c0 -32 16 -53 70 -53c53 0 70 21 70 53v32c0 31 -12 53 -63 53h-21c-103 0 -157 39 -157 130v24
c0 91 51 130 157 130h54v71z" />
    <glyph glyph-name="dvDD_VA" horiz-adv-x="437" 
d="M271 575h-303v85h501v-85h-97v-155h-171c-40 0 -55 -12 -55 -41v-3c0 -30 14 -42 55 -42h53c107 0 147 -42 147 -120v-15c0 -50 -13 -83 -42 -105v-304h-94v69c-16 -14 -48 -22 -73 -22c-102 0 -146 43 -146 134v43c0 37 14 64 36 83c-28 22 -41 56 -41 105v24h101v-21
c0 -37 13 -57 79 -57c67 0 80 13 80 53v9c0 32 -12 46 -58 46h-50c-98 0 -147 38 -147 117v8c0 83 57 118 147 118h78v76zM266 -31v97c-14 -1 -29 -2 -45 -2h-5c-59 0 -74 -17 -74 -62v-33c0 -34 13 -53 61 -53c47 0 63 19 63 53z" />
    <glyph glyph-name="dvDDH_DDHA" horiz-adv-x="442" 
d="M225 59h-8c-56 0 -70 -21 -70 -65v-137c0 -36 13 -64 77 -64c63 0 76 27 76 63v6c0 39 -20 51 -51 51c-23 0 -37 -8 -37 -8v77s23 8 53 8c80 0 132 -38 132 -125v-13c0 -96 -56 -145 -173 -145c-118 0 -176 52 -176 148v142c0 47 13 81 42 103c-27 25 -40 61 -40 106v160
c0 92 48 135 161 135h49v74h-292v85h505v-85h-114v-159h-148c-49 0 -62 -18 -62 -53v-154c0 -36 13 -64 76 -64c64 0 77 27 77 62v8c0 38 -20 51 -51 51c-24 0 -37 -8 -37 -8v77s23 8 53 8c80 0 132 -39 132 -125v-15c0 -95 -56 -144 -174 -144z" />
    <glyph glyph-name="dvDDH_YA" horiz-adv-x="925" 
d="M767 575h-413v-74h167c107 0 154 -41 154 -132v-22c0 -80 -44 -116 -121 -116v-2c0 -54 22 -85 105 -85c84 0 108 33 108 96v335zM205 501h51v74h-288v85h988v-85h-89v-575h-100v84c-24 -21 -60 -33 -115 -33c-121 0 -197 54 -197 177v75h55c51 0 67 10 67 48v10
c0 32 -9 49 -53 49h-319c-50 0 -61 -21 -61 -53v-206c0 -38 13 -64 71 -64s71 25 71 63v24c0 39 -19 51 -48 51c-23 0 -36 -8 -36 -8v89s19 8 48 8c83 0 132 -39 132 -137v-32c0 -98 -50 -150 -167 -150c-118 0 -170 55 -170 153v212c0 97 49 141 160 141z" />
    <glyph glyph-name="dvNN_TTA" horiz-adv-x="822" 
d="M763 405h-138c-51 0 -61 -21 -61 -53v-211c0 -32 12 -56 62 -56c51 0 63 24 63 56v88h100v-88c0 -91 -52 -146 -163 -146s-162 55 -162 146v214c0 97 50 141 161 141h38v79h-299v-318c0 -91 -49 -146 -160 -146s-160 55 -160 146v318h-76v85h885v-85h-90v-170zM204 202
c51 0 60 24 60 56v317h-120v-317c0 -32 10 -56 60 -56z" />
    <glyph glyph-name="dvNN_TTHA" horiz-adv-x="834" 
d="M789 367v-226c0 -91 -52 -146 -163 -146s-162 55 -162 146v226c0 76 35 124 112 137v71h-212v-318c0 -91 -49 -146 -160 -146s-160 55 -160 146v318h-76v85h897v-85h-189v-71c77 -13 113 -61 113 -137zM204 202c51 0 60 24 60 56v317h-120v-317c0 -32 10 -56 60 -56z
M692 140v225c0 32 -14 58 -66 58s-65 -26 -65 -58v-225c0 -33 13 -58 65 -58s66 25 66 58z" />
    <glyph glyph-name="dvNN_DDA" horiz-adv-x="835" 
d="M669 575h-305v-318c0 -91 -49 -146 -160 -146s-160 55 -160 146v318h-76v85h898v-85h-97v-158h-154c-44 0 -57 -19 -57 -48v-15c0 -30 12 -49 57 -49h21c112 0 163 -44 163 -135v-38c0 -91 -56 -137 -170 -137s-170 46 -170 137v28h100v-25c0 -32 16 -53 70 -53
c53 0 70 21 70 53v32c0 31 -12 53 -63 53h-21c-103 0 -157 39 -157 130v24c0 91 51 130 157 130h54v71zM204 202c51 0 60 24 60 56v317h-120v-317c0 -32 10 -56 60 -56z" />
    <glyph glyph-name="dvNN_DDHA" horiz-adv-x="836" 
d="M621 501h50v74h-307v-318c0 -91 -49 -146 -160 -146s-160 55 -160 146v318h-76v85h899v-85h-97v-165h-149c-50 0 -61 -21 -61 -53v-206c0 -38 13 -64 71 -64s71 25 71 63v24c0 39 -20 51 -48 51c-23 0 -36 -8 -36 -8v89s19 8 48 8c83 0 132 -39 132 -137v-32
c0 -98 -50 -150 -167 -150c-118 0 -170 55 -170 153v212c0 97 49 141 160 141zM204 202c51 0 60 24 60 56v317h-120v-317c0 -32 10 -56 60 -56z" />
    <glyph glyph-name="dvNN_NNA" horiz-adv-x="1053" 
d="M787 575v-318c0 -91 -49 -146 -160 -146s-160 55 -160 146v318h-103v-318c0 -91 -49 -146 -160 -146s-160 55 -160 146v318h-76v85h1116v-85h-89v-575h-100v575h-108zM204 202c51 0 60 24 60 56v317h-120v-317c0 -32 10 -56 60 -56zM687 575h-120v-317
c0 -32 10 -56 60 -56c51 0 60 24 60 56v317z" />
    <glyph glyph-name="dvNN_MA" horiz-adv-x="1006" 
d="M850 0v352h-103v-158c0 -85 -44 -136 -153 -136s-154 51 -154 136v109c0 86 45 135 154 135h57v137h-287v-318c0 -91 -49 -146 -160 -146s-160 55 -160 146v318h-76v85h1070v-85h-90v-575h-98zM204 202c51 0 60 24 60 56v317h-120v-317c0 -32 10 -56 60 -56zM747 438h103
v137h-103v-137zM651 197v155h-57c-49 0 -57 -19 -57 -52v-103c0 -32 8 -52 57 -52c48 0 57 20 57 52z" />
    <glyph glyph-name="dvNN_YA" horiz-adv-x="931" 
d="M-32 575v85h995v-85h-90v-575h-100v119c-24 -21 -59 -33 -115 -33c-121 0 -196 53 -196 177v127h22c76 0 100 13 100 68v54c0 36 -10 63 -60 63h-160v-318c0 -91 -49 -146 -160 -146s-160 55 -160 146v318h-76zM204 202c51 0 60 24 60 56v317h-120v-317
c0 -32 10 -56 60 -56zM665 179c85 0 108 33 108 95v301h-111c12 -12 19 -32 19 -63v-71c0 -80 -42 -118 -121 -120v-47c0 -62 22 -95 105 -95z" />
    <glyph glyph-name="dvNN_VA" horiz-adv-x="853" 
d="M795 575v-575h-101v83c-16 -13 -47 -22 -81 -22c-111 0 -155 50 -155 142v160c0 91 46 142 155 142c34 0 65 -8 81 -20v90h-330v-318c0 -91 -49 -146 -160 -146s-160 55 -160 146v318h-76v85h916v-85h-89zM204 202c51 0 60 24 60 56v317h-120v-317c0 -32 10 -56 60 -56z
M699 204v159c0 36 -21 56 -73 56s-70 -20 -70 -56v-159c0 -36 18 -57 70 -57s73 21 73 57z" />
    <glyph glyph-name="dvT_KA" horiz-adv-x="845" 
d="M643 69v92c51 -1 63 15 63 53v147c0 33 -10 56 -59 56c-50 0 -59 -22 -59 -56v-361h-98v80c-15 -12 -41 -20 -71 -20c-101 0 -145 46 -145 137v167c0 14 1 27 3 39h-60c-56 0 -73 -26 -73 -62v-195c0 -38 18 -54 69 -53v-93c-7 -1 -19 -2 -26 -2
c-106 -1 -143 50 -143 140v206c0 97 50 152 173 152h137c18 6 40 9 65 9c30 0 56 -8 71 -20v90h-522v85h904v-85h-284v-89c16 12 41 19 70 19c101 0 144 -52 144 -141v-158c0 -89 -40 -140 -140 -139c-6 0 -16 1 -19 2zM430 145c48 0 59 21 60 53v163c0 34 -10 56 -60 56
s-60 -22 -60 -56v-161c0 -33 10 -55 60 -55z" />
    <glyph glyph-name="dvT_K_YA" horiz-adv-x="1170" 
d="M897 86c-121 0 -197 53 -197 177v91c0 34 -9 56 -58 56c-50 0 -59 -22 -59 -55v-355h-99v80c-14 -12 -40 -20 -70 -20c-102 0 -145 46 -145 137v167c0 14 1 27 3 39h-55c-56 0 -73 -26 -73 -62v-195c0 -38 18 -54 69 -53v-93c-7 -1 -19 -2 -26 -2
c-106 -1 -143 50 -143 140v206c0 97 50 152 173 152h132c18 6 40 9 65 9c30 0 56 -8 70 -20v90h-516v85h1233v-85h-89v-575h-100v119c-24 -21 -60 -33 -115 -33zM822 512c0 36 -9 63 -59 63h-180v-96c16 12 41 19 70 19c84 0 127 -36 139 -99c22 9 30 27 30 59v54zM904 179
c85 0 108 33 108 95v301h-111c12 -12 19 -32 19 -63v-71c0 -80 -43 -118 -121 -120v-47c0 -62 22 -95 105 -95zM425 145c48 0 59 21 60 53v163c0 34 -10 56 -60 56s-60 -22 -60 -56v-161c0 -33 10 -55 60 -55z" />
    <glyph glyph-name="dvT_K_RA" horiz-adv-x="853" 
d="M268 -45l108 132c-62 12 -89 47 -89 119v158c0 14 1 27 3 39h-73c-56 0 -73 -26 -73 -62v-195c0 -38 18 -54 69 -53v-93c-7 -1 -19 -2 -26 -2c-106 -1 -143 50 -143 140v206c0 97 50 152 173 152h150c18 6 40 9 65 9c26 0 56 -7 71 -20v90h-535v85h921v-85h-288v-89
c16 12 45 19 70 19c101 0 144 -52 144 -141v-158c0 -89 -40 -140 -140 -139c-6 0 -16 1 -19 2v92c51 -1 62 15 62 53v147c0 33 -9 56 -58 56c-50 0 -59 -22 -59 -56v-361h-98v103c-2 -2 -5 -4 -8 -6l-112 -142h-115zM443 155c48 0 59 20 60 52v154c0 34 -10 56 -60 56
s-60 -22 -60 -56v-151c0 -34 10 -55 60 -55z" />
    <glyph glyph-name="dvT_K_VA" horiz-adv-x="1095" 
d="M1037 575v-575h-100v83c-17 -13 -48 -22 -82 -22c-111 0 -155 50 -155 142v158c0 33 -9 56 -58 56c-50 0 -59 -22 -59 -56v-361h-99v80c-14 -12 -40 -20 -70 -20c-102 0 -145 46 -145 137v167c0 14 1 27 3 39h-55c-56 0 -73 -26 -73 -62v-195c0 -38 18 -54 69 -53v-93
c-7 -1 -19 -2 -26 -2c-106 -1 -143 50 -143 140v206c0 97 50 152 173 152h132c18 6 40 9 65 9c30 0 56 -8 70 -20v90h-516v85h1158v-85h-89zM937 485v90h-354v-89c16 12 41 19 70 19c42 0 72 -11 92 -29c25 19 61 29 110 29c34 0 65 -8 82 -20zM941 204v159
c0 36 -21 56 -73 56c-51 0 -70 -20 -70 -56v-159c0 -36 19 -57 70 -57c52 0 73 21 73 57zM425 145c48 0 59 21 60 53v163c0 34 -10 56 -60 56s-60 -22 -60 -56v-161c0 -33 10 -55 60 -55z" />
    <glyph glyph-name="dvT_K_SSA" horiz-adv-x="875" 
d="M620 523v-42c0 -33 -4 -51 -13 -62h110v241h189v-85h-89v-575h-100v335h-255c-52 0 -59 -26 -59 -64v-77c0 -32 10 -54 57 -54c44 0 56 20 56 50v57h96v-247h-96v69c-18 -12 -41 -17 -71 -17c-102 0 -144 52 -144 143v88c0 17 2 32 6 45c-13 8 -32 11 -59 11h-31
c-56 0 -73 -26 -73 -62v-131c0 -38 18 -54 69 -53v-93c-7 -1 -19 -2 -26 -2c-106 -1 -143 50 -143 140v142c0 97 50 152 173 152h25c41 0 69 -7 89 -18c-8 17 -11 39 -11 67v42c0 92 47 142 151 142c105 0 149 -50 149 -142zM261 660v-85h-293v85h293zM525 470v53
c0 32 -8 54 -54 54s-53 -22 -53 -54v-53c0 -32 7 -55 53 -55s54 23 54 55z" />
    <glyph glyph-name="dvT_KHA" horiz-adv-x="1008" 
d="M385 490v-113c0 -32 9 -53 57 -53c49 0 58 21 58 53v142c0 32 -12 55 -61 56h-471v85h1072v-85h-90v-575h-98v131c-15 -13 -40 -17 -66 -17s-47 2 -65 7c-19 -78 -82 -121 -198 -121h-17c-151 0 -217 62 -217 183v214h-72c-56 0 -73 -26 -73 -62v-189
c0 -38 18 -54 69 -53v-93c-7 -1 -19 -2 -26 -2c-106 -1 -143 50 -143 140v200c0 97 50 152 173 152h168zM852 481v94h-276c11 -14 17 -32 17 -56v-145c0 -91 -34 -139 -138 -139c-26 0 -55 7 -70 19v-68c0 -62 30 -96 120 -96h10c92 0 124 34 124 96v170
c0 92 34 143 143 143c27 0 54 -5 70 -18zM791 412c-49 0 -60 -22 -60 -55v-103c0 -33 11 -55 60 -55c50 0 61 22 61 55v103c0 33 -11 55 -61 55z" />
    <glyph glyph-name="dvT_KH_NA" horiz-adv-x="1403" 
d="M385 490v-113c0 -32 9 -53 57 -53c49 0 58 21 58 53v142c0 32 -12 55 -61 56h-471v85h1466v-85h-89v-575h-100v393h-106c8 -12 11 -29 11 -49v-146c0 -91 -43 -141 -148 -141c-71 0 -115 23 -136 66c-20 -6 -45 -9 -75 -9c-31 0 -52 5 -68 15c-17 -84 -81 -129 -200 -129
h-17c-151 0 -217 62 -217 183v214h-72c-56 0 -73 -26 -73 -62v-189c0 -38 18 -54 69 -53v-93c-7 -1 -19 -2 -26 -2c-106 -1 -143 50 -143 140v200c0 97 50 152 173 152h168zM1245 485v90h-669c11 -14 17 -32 17 -56v-145c0 -91 -34 -139 -138 -139c-26 0 -55 7 -70 19v-68
c0 -62 30 -96 120 -96h10c92 0 124 34 124 96v171c0 91 37 140 152 140c55 0 93 -11 116 -33c24 14 55 21 95 21h243zM852 254v103c0 33 -11 55 -61 55c-49 0 -60 -22 -60 -55v-103c0 -33 11 -55 60 -55c50 0 61 22 61 55zM1055 199v142c0 32 -10 52 -53 52s-54 -20 -54 -52
v-142c0 -32 11 -52 54 -52s53 20 53 52z" />
    <glyph glyph-name="dvT_KH_RA" horiz-adv-x="1008" 
d="M467 18c-129 4 -178 56 -178 165v214h-72c-56 0 -73 -26 -73 -62v-189c0 -38 18 -54 69 -53v-93c-7 -1 -19 -2 -26 -2c-106 -1 -143 50 -143 140v200c0 97 50 152 173 152h168v-113c0 -32 9 -53 57 -53c49 0 58 21 58 53v142c0 32 -12 55 -61 56h-471v85h1071v-85h-89
v-575h-98v131c-15 -13 -40 -17 -66 -17c-29 0 -52 3 -69 12c-5 -39 -21 -66 -49 -84l-206 -144l-146 14v2l162 104h-11zM639 186v170c0 92 34 143 143 143c27 0 54 -5 70 -18v94h-276c11 -14 17 -32 17 -56v-145c0 -91 -34 -139 -138 -139c-26 0 -55 7 -70 19v-68
c0 -62 30 -94 120 -94h10c92 0 124 32 124 94zM791 412c-49 0 -60 -22 -60 -55v-107c0 -31 12 -51 60 -51c50 0 61 22 61 55v103c0 33 -11 55 -61 55z" />
    <glyph glyph-name="dvT_TA" horiz-adv-x="466" 
d="M231 93v-93c-6 -1 -18 -2 -26 -2c-100 -1 -142 53 -142 143v193c0 26 6 46 18 62h-69v86h296v93h-340v85h530v-85h-90v-575h-100v390h-73c-54 0 -72 -27 -72 -62v-182c0 -38 16 -54 68 -53z" />
    <glyph glyph-name="dvT_T" horiz-adv-x="268" 
d="M352 660v-85h-384v85h384zM12 396v86h340v-86h-2v-6h-115c-54 0 -72 -27 -72 -62v-182c0 -38 16 -54 68 -53v-93c-6 -1 -18 -2 -26 -2c-100 -1 -142 53 -142 143v193c0 26 6 46 18 62h-69z" />
    <glyph glyph-name="dvT_T_YA" horiz-adv-x="770" 
d="M163 310v-164c0 -38 17 -54 68 -53v-93c-6 -1 -18 -2 -26 -2c-106 -1 -142 50 -142 140v175c0 23 5 43 14 60h-65v86h234v-5l5 5c77 0 123 -21 142 -60c22 9 30 27 30 59v54c0 36 -10 63 -60 63h-395v85h834v-85h-90v-575h-100v119c-24 -21 -59 -33 -115 -33
c-121 0 -196 53 -196 177v86c-8 13 -23 23 -52 23h-14c-55 0 -72 -26 -72 -62zM504 179c85 0 108 33 108 95v301h-111c12 -12 19 -32 19 -63v-71c0 -80 -42 -118 -121 -120v-47c0 -62 22 -95 105 -95z" />
    <glyph glyph-name="dvT_T_VA" horiz-adv-x="687" 
d="M63 141v193c0 26 6 46 18 62h-69v86h336c24 15 57 23 100 23c33 0 65 -8 81 -20v90h-561v85h751v-85h-90v-575h-100v83c-16 -13 -48 -22 -81 -22c-112 0 -155 50 -155 142v160c0 9 0 19 2 27h-60c-54 0 -72 -27 -72 -62v-182c0 -38 17 -54 66 -53h2v-93
c-6 -1 -18 -2 -26 -2c-100 -1 -142 53 -142 143zM533 204v159c0 36 -20 56 -72 56s-70 -20 -70 -56v-159c0 -36 18 -57 70 -57s72 21 72 57z" />
    <glyph glyph-name="dvT_THA" horiz-adv-x="807" 
d="M514 172c109 0 136 48 136 134v354h189v-85h-89v-575h-100v122c-32 -28 -80 -42 -151 -42c-154 0 -222 78 -222 207v49c-9 3 -19 5 -33 5h-27c-56 0 -73 -26 -73 -62v-133c0 -38 18 -54 69 -53v-93c-7 -1 -19 -2 -26 -2c-106 -1 -143 50 -143 140v144
c0 97 50 152 173 152h37c43 0 74 -13 94 -34h39c69 0 97 17 97 78v41c0 35 -5 56 -47 56c-41 0 -48 -21 -48 -56v-30h-96v27c0 94 39 149 142 149c102 0 140 -52 140 -146v-55c0 -103 -55 -152 -176 -152h-20v-22c0 -79 28 -118 135 -118zM250 660v-85h-282v85h282z" />
    <glyph glyph-name="dvT_NA" horiz-adv-x="838" 
d="M217 485h21c41 0 75 -10 97 -26c24 17 58 26 102 26h243v90h-712v85h901v-85h-89v-575h-100v393h-106c8 -12 11 -29 11 -49v-146c0 -91 -43 -141 -148 -141s-150 50 -150 141v146c0 11 1 21 2 30c-12 13 -32 19 -64 19h-8c-56 0 -73 -27 -73 -62v-185
c0 -38 18 -54 69 -53v-93c-6 -1 -18 -2 -25 -2c-107 -1 -144 50 -144 140v196c0 97 50 151 173 151zM490 199v142c0 32 -10 52 -53 52s-54 -20 -54 -52v-142c0 -32 11 -52 54 -52s53 20 53 52z" />
    <glyph glyph-name="dvT_N_YA" horiz-adv-x="1158" 
d="M444 484h174c79 0 132 -26 151 -86c31 8 42 26 42 64v50c0 36 -9 63 -59 63h-784v85h1222v-85h-90v-575h-100v119c-23 -21 -59 -33 -114 -33c-121 0 -197 53 -197 177v99c-8 22 -32 32 -67 32h-42c9 -12 12 -30 12 -50v-146c0 -91 -43 -141 -148 -141s-150 50 -150 141
v133c0 21 -7 65 -56 65h-21c-56 0 -73 -27 -73 -62v-188c0 -38 18 -54 69 -53v-93c-7 -1 -19 -2 -26 -2c-106 -1 -143 50 -143 140v198c0 97 50 152 173 152h20c47 0 80 -13 103 -33c25 19 59 29 104 29zM893 179c84 0 107 33 107 95v301h-111c13 -12 20 -32 20 -63v-67
c0 -80 -43 -118 -122 -120v-51c0 -62 23 -95 106 -95zM497 199v142c0 32 -10 52 -53 52s-54 -20 -54 -52v-142c0 -32 11 -52 54 -52s53 20 53 52z" />
    <glyph glyph-name="dvT_PA" horiz-adv-x="673" 
d="M514 0v142c-17 -13 -50 -21 -80 -21c-109 0 -151 51 -151 143v139h-66c-56 0 -73 -26 -73 -62v-195c0 -38 18 -54 69 -53v-93c-7 -1 -19 -2 -26 -2c-106 -1 -143 50 -143 140v206c0 97 50 152 173 152h66v79h-315v85h736v-85h-89v-575h-101zM514 575h-130v-308
c0 -32 13 -56 65 -56c53 0 65 24 65 56v308z" />
    <glyph glyph-name="dvT_P_RA" horiz-adv-x="691" 
d="M269 0l136 183c-75 12 -103 55 -103 132v88h-85c-56 0 -73 -26 -73 -62v-195c0 -38 18 -54 69 -53v-93c-7 -1 -19 -2 -26 -2c-106 -1 -143 50 -143 140v206c0 97 50 152 173 152h85v79h-334v85h754v-85h-89v-575h-100v202l-149 -202h-115zM533 575h-131v-257
c0 -33 12 -57 65 -57c54 0 66 24 66 57v257z" />
    <glyph glyph-name="dvT_P_LA" horiz-adv-x="1110" 
d="M-32 575v85h1173v-85h-89v-575h-101v338c0 34 -11 56 -58 56s-58 -23 -58 -56v-129h-100v129c0 32 -10 56 -59 56c-48 0 -58 -24 -58 -56v-172c0 -44 12 -78 86 -78h60v-88h-65c-120 0 -171 45 -180 135c-21 -9 -48 -14 -78 -14c-108 0 -158 48 -158 146v136h-66
c-56 0 -73 -26 -73 -62v-195c0 -38 18 -54 69 -53v-93c-7 -1 -19 -2 -26 -2c-106 -1 -143 50 -143 140v206c0 97 50 152 173 152h66v79h-315zM951 466v109h-567v-305c0 -36 13 -59 67 -59s67 23 67 59v71c0 91 49 145 155 145c63 0 94 -24 110 -50c16 26 46 50 102 50
c29 0 54 -7 66 -20z" />
    <glyph glyph-name="dvT_MA" horiz-adv-x="838" 
d="M682 0v352h-103v-158c0 -85 -44 -136 -153 -136s-154 51 -154 136v109c0 27 5 51 14 71c-8 15 -23 29 -52 29h-17c-56 0 -73 -26 -73 -62v-195c0 -38 18 -54 69 -53v-93c-7 -1 -19 -2 -26 -2c-106 -1 -143 50 -143 140v206c0 97 50 152 173 152h21c68 0 113 -26 135 -63
c15 3 33 5 53 5h57v137h-515v85h902v-85h-90v-575h-98zM579 438h103v137h-103v-137zM483 197v155h-57c-49 0 -57 -19 -57 -52v-103c0 -32 8 -52 57 -52c48 0 57 20 57 52z" />
    <glyph glyph-name="dvT_M_YA" horiz-adv-x="1152" 
d="M-32 575v85h1216v-85h-90v-575h-100v119c-23 -21 -59 -33 -114 -33c-121 0 -197 53 -197 177v51c0 33 -13 38 -50 38h-54v-158c0 -85 -44 -136 -153 -136s-154 51 -154 136v109c0 27 5 51 14 71c-8 15 -23 29 -52 29h-17c-56 0 -73 -26 -73 -62v-195c0 -38 18 -54 69 -53
v-93c-7 -1 -19 -2 -26 -2c-106 -1 -143 50 -143 140v206c0 97 50 152 173 152h21c68 0 113 -26 135 -63c15 3 33 5 53 5h57v137h-515zM805 512c0 36 -10 63 -59 63h-167v-137h67c60 0 94 -17 111 -44c35 6 48 24 48 64v54zM887 179c84 0 107 33 107 95v301h-111
c12 -12 20 -32 20 -63v-71c0 -80 -43 -118 -122 -120v-47c0 -62 22 -95 106 -95zM483 197v155h-57c-49 0 -57 -19 -57 -52v-103c0 -32 8 -52 57 -52c48 0 57 20 57 52z" />
    <glyph glyph-name="dvT_YA" horiz-adv-x="752" 
d="M-32 575v85h815v-85h-89v-575h-100v119c-24 -21 -60 -33 -115 -33c-121 0 -197 53 -197 177v87c-8 12 -23 22 -51 22h-14c-56 0 -73 -26 -73 -62v-164c0 -38 18 -54 69 -53v-93c-7 -1 -19 -2 -26 -2c-106 -1 -143 50 -143 140v175c0 97 50 152 173 152h16
c77 0 123 -24 143 -65c20 9 28 27 28 58v54c0 36 -9 63 -59 63h-377zM486 179c85 0 108 33 108 95v301h-111c12 -12 19 -32 19 -63v-71c0 -80 -43 -118 -121 -120v-47c0 -62 22 -95 105 -95z" />
    <glyph glyph-name="dvT_R_YA" horiz-adv-x="783" 
d="M-32 575v85h846v-85h-89v-575h-100v119c-24 -21 -60 -33 -115 -33c-103 0 -173 38 -192 126c-8 -13 -17 -25 -27 -36l-131 -143h-126v2l252 275c9 10 26 29 27 36c0 31 -15 56 -87 56s-92 -27 -92 -74v-55h-97v61c0 100 51 159 177 159c108 0 161 -35 179 -98
c31 8 42 26 42 63v54c0 36 -9 63 -59 63h-408zM517 179c85 0 108 33 108 95v301h-111c12 -12 19 -32 19 -63v-71c0 -80 -42 -118 -121 -120v-47c0 -62 22 -95 105 -95z" />
    <glyph glyph-name="dvT_LA" horiz-adv-x="879" 
d="M287 165v176c0 12 1 24 3 35c-11 8 -27 13 -50 13h-23c-56 0 -73 -26 -73 -62v-181c0 -38 18 -54 69 -53v-93c-7 -1 -19 -2 -26 -2c-106 -1 -143 50 -143 140v192c0 97 50 152 173 152h26c40 0 72 -8 95 -24c25 18 60 28 105 28c62 0 94 -24 109 -50c16 26 46 50 102 50
c29 0 54 -7 67 -20v109h-753v85h942v-85h-89v-575h-100v338c0 34 -12 56 -59 56s-58 -23 -58 -56v-129h-100v129c0 32 -10 56 -58 56c-49 0 -59 -24 -59 -56v-172c0 -44 12 -78 86 -78h60l1 -88h-65c-133 0 -182 55 -182 165z" />
    <glyph glyph-name="dvT_VA" horiz-adv-x="669" 
d="M611 575v-575h-100v83c-17 -13 -48 -22 -82 -22c-111 0 -154 50 -154 142v160c0 14 1 28 3 40h-61c-56 0 -73 -26 -73 -62v-195c0 -38 18 -54 69 -53v-93c-7 -1 -19 -2 -26 -2c-106 -1 -143 50 -143 140v206c0 97 50 152 173 152h143c20 6 42 9 69 9c34 0 65 -8 82 -20
v90h-543v85h733v-85h-90zM515 204v159c0 36 -20 56 -72 56s-71 -20 -71 -56v-159c0 -36 19 -57 71 -57s72 21 72 57z" />
    <glyph glyph-name="dvT_SA" horiz-adv-x="861" 
d="M388 483v-84c0 -32 8 -55 56 -55c49 0 57 23 57 55v120c0 31 -12 56 -60 56h-472v85h924v-85h-90v-575h-100v281h-150c-22 -17 -54 -26 -90 -26c-29 0 -57 5 -75 20v-133c0 -32 9 -56 60 -56s60 24 60 56v30h99v-31c0 -91 -48 -146 -159 -146s-159 55 -159 146v250h-72
c-56 0 -73 -26 -73 -62v-183c0 -38 18 -54 69 -53v-93c-7 -1 -19 -2 -26 -2c-106 -1 -143 50 -143 140v194c0 97 50 151 173 151h171zM599 511v-113c0 -10 -1 -23 -4 -31h108v208h-126c16 -14 22 -36 22 -64z" />
    <glyph glyph-name="dvT_S_NA" horiz-adv-x="1237" 
d="M388 483v-84c0 -32 8 -55 56 -55c49 0 57 23 57 55v120c0 31 -12 56 -60 56h-473v85h1301v-85h-89v-575h-101v393h-105c8 -12 11 -29 11 -49v-146c0 -91 -44 -141 -149 -141c-104 0 -149 50 -149 141v83h-134c-24 -17 -50 -26 -93 -26c-23 0 -56 5 -72 20v-133
c0 -32 9 -56 60 -56s60 24 60 56v30h99v-31c0 -91 -48 -146 -159 -146s-159 55 -159 146v250h-72c-56 0 -73 -26 -73 -62v-183c0 -38 18 -54 69 -53v-93c-7 -1 -19 -2 -26 -2c-106 -1 -143 50 -143 140v194c0 97 50 151 173 151h171zM1079 485v90h-502c16 -14 22 -36 22 -64
v-114c0 -10 -1 -22 -4 -30h93c7 76 53 118 148 118h243zM890 199v142c0 32 -10 52 -54 52c-43 0 -53 -20 -53 -52v-142c0 -32 10 -52 53 -52c44 0 54 20 54 52z" />
    <glyph glyph-name="dvT_S_YA" horiz-adv-x="1162" 
d="M388 483v-82c0 -33 8 -56 56 -56c49 0 57 23 57 56v118c0 31 -12 56 -60 56h-473v85h1226v-85h-90v-575h-100v119c-24 -21 -59 -33 -115 -33c-121 0 -196 53 -196 177v19h-140c-24 -17 -50 -26 -93 -26c-23 0 -56 5 -72 20v-134c0 -32 9 -56 60 -56s60 24 60 56v30h99
v-31c0 -91 -48 -146 -159 -146s-159 55 -159 146v250h-72c-56 0 -73 -26 -73 -62v-183c0 -38 18 -54 69 -53v-93c-7 -1 -19 -2 -26 -2c-106 -1 -143 50 -143 140v194c0 97 50 151 173 151h171zM815 512c0 36 -10 63 -60 63h-178c16 -14 22 -36 22 -64v-113
c0 -10 -1 -22 -4 -29h120c76 0 100 13 100 68v75zM896 179c85 0 108 33 108 95v301h-111c12 -12 19 -32 19 -63v-92c0 -80 -42 -118 -121 -120v-26c0 -62 22 -95 105 -95z" />
    <glyph glyph-name="dvT_S_VA" horiz-adv-x="1093" 
d="M388 483v-84c0 -32 8 -55 56 -55c49 0 57 23 57 55v120c0 31 -12 56 -60 56h-473v85h1156v-85h-89v-575h-100v83c-17 -13 -48 -22 -82 -22c-111 0 -155 50 -155 142v78h-145c-24 -17 -50 -26 -93 -26c-23 0 -56 5 -72 20v-133c0 -32 9 -56 60 -56s60 24 60 56v30h99v-31
c0 -91 -48 -146 -159 -146s-159 55 -159 146v250h-72c-56 0 -73 -26 -73 -62v-183c0 -38 18 -54 69 -53v-93c-7 -1 -19 -2 -26 -2c-106 -1 -143 50 -143 140v194c0 97 50 151 173 151h171zM935 485v90h-358c16 -14 22 -36 22 -64v-114c0 -10 -1 -22 -4 -30h103
c2 89 48 138 155 138c34 0 65 -8 82 -20zM939 204v159c0 36 -21 56 -73 56c-51 0 -70 -20 -70 -56v-159c0 -36 19 -57 70 -57c52 0 73 21 73 57z" />
    <glyph glyph-name="dvTH_NA" horiz-adv-x="954" 
d="M271 172c109 0 133 42 133 129v43c0 91 44 141 149 141h243v90h-392v85h582v-85h-90v-575h-100v393h-106c9 -12 12 -29 12 -49v-146c0 -91 -44 -141 -149 -141c-70 0 -113 22 -134 64c-35 -28 -84 -41 -147 -41c-152 0 -231 67 -231 203v115h110c69 0 97 17 97 78v43
c0 35 -5 56 -47 56c-41 0 -48 -21 -48 -56v-42h-96v39c0 94 39 149 142 149c102 0 140 -52 140 -146v-57c0 -103 -55 -152 -176 -152h-20v-24c0 -75 23 -114 128 -114zM607 199v142c0 32 -11 52 -54 52s-53 -20 -53 -52v-142c0 -32 10 -52 53 -52s54 20 54 52z" />
    <glyph glyph-name="dvTH_YA" horiz-adv-x="869" 
d="M270 172c104 0 130 42 130 129v89h22c76 0 100 13 100 68v54c0 36 -9 63 -59 63h-79v85h517v-85h-90v-575h-100v119c-23 -21 -59 -33 -114 -33c-69 0 -124 17 -158 55c-36 -40 -93 -61 -168 -61c-151 0 -230 67 -230 203v115h110c69 0 97 17 97 78v43c0 35 -5 56 -47 56
c-41 0 -48 -21 -48 -56v-42h-96v39c0 94 39 149 142 149c102 0 140 -52 140 -146v-57c0 -103 -55 -152 -176 -152h-20v-24c0 -75 27 -114 127 -114zM604 179c84 0 107 33 107 95v301h-111c13 -12 20 -32 20 -63v-71c0 -80 -43 -118 -122 -120v-47c0 -62 22 -95 106 -95z" />
    <glyph glyph-name="dvTH_VA" horiz-adv-x="803" 
d="M274 172c111 0 135 42 135 129v62c0 91 46 142 155 142c33 0 65 -8 81 -20v90h-252v85h442v-85h-90v-575h-100v83c-16 -13 -48 -22 -81 -22c-73 0 -117 21 -138 61c-37 -28 -87 -42 -151 -42c-154 0 -234 67 -234 203v115h110c69 0 97 17 97 78v43c0 35 -5 56 -47 56
c-41 0 -48 -21 -48 -56v-42h-96v39c0 94 39 149 142 149c102 0 140 -52 140 -146v-57c0 -103 -55 -152 -176 -152h-20v-24c0 -75 24 -114 131 -114zM649 204v159c0 36 -20 56 -72 56s-70 -20 -70 -56v-159c0 -36 18 -57 70 -57s72 21 72 57z" />
    <glyph glyph-name="dvD_GA" horiz-adv-x="430" 
d="M47 224v133c0 102 53 142 164 142h55v76h-298v85h494v-85h-96v-168h-155c-52 0 -63 -20 -63 -52v-128c0 -33 14 -53 65 -53c52 0 66 20 66 53v64h99v-451h-99v266c-15 -13 -43 -20 -70 -21v-49c0 -95 -32 -136 -133 -136c-16 0 -39 2 -39 2v87s15 -1 24 -1
c48 0 54 20 54 56v57c-46 21 -68 62 -68 123z" />
    <glyph glyph-name="dvD_G_RA" horiz-adv-x="424" 
d="M283 -166v40c0 23 0 48 3 58l-1 1c-11 -23 -40 -60 -91 -116l-21 -23h-107l210 239v119c-16 -14 -48 -22 -77 -22v-32c0 -95 -31 -136 -133 -136c-16 0 -39 2 -39 2v88s15 -2 25 -2c47 0 53 20 53 56v44c-41 22 -60 63 -60 120v87c0 102 52 142 163 142h55v76h-295v85
h488v-85h-93v-168h-155c-51 0 -63 -20 -63 -52v-82c0 -33 14 -54 65 -54c52 0 66 20 66 54v46h99v-485h-92z" />
    <glyph glyph-name="dvD_GHA" horiz-adv-x="588" 
d="M443 83c-16 -13 -43 -20 -70 -21c-2 -115 -59 -153 -178 -153c-124 0 -178 47 -178 129v15c0 42 13 73 45 88c-30 14 -40 42 -40 82v14c0 74 44 125 133 125h57c2 99 54 137 163 137h55v76h-462v85h652v-85h-90v-168h-155c-51 0 -63 -20 -63 -52v-151
c0 -32 14 -53 65 -53c52 0 66 20 66 53v70h99v-284h-99v93zM212 202v81h-57c-34 0 -46 -14 -46 -46v-10c0 -28 7 -47 51 -47h19v-78h-22c-44 0 -54 -19 -54 -46v-10c0 -46 32 -58 93 -58c74 0 94 15 94 85c-53 20 -78 63 -78 129z" />
    <glyph glyph-name="dvD_DA" horiz-adv-x="421" 
d="M43 129v51c0 45 15 75 43 93c-28 18 -43 48 -43 93v11c0 90 47 130 153 130h65v68h-293v85h484v-85h-90v-148h-155c-52 0 -63 -20 -63 -52v-7c0 -32 11 -52 63 -52h101v-86h-101c-52 0 -63 -20 -63 -53v-45c0 -33 13 -54 65 -54c50 0 65 19 66 51v32h99v-228h-99v83
c-15 -14 -48 -21 -77 -21c-106 0 -155 48 -155 134z" />
    <glyph glyph-name="dvD_DHA" horiz-adv-x="585" 
d="M212 202v155c0 102 52 142 163 142h55v76h-462v85h649v-85h-87v-168h-155c-51 0 -63 -20 -63 -52v-151c0 -32 14 -53 65 -53c52 0 66 20 66 53v70h99v-284h-99v93c-16 -13 -43 -20 -70 -21c-2 -115 -59 -153 -178 -153c-124 0 -178 47 -178 129v15c0 42 13 73 45 88
c-30 14 -40 42 -40 82v14c0 74 44 125 133 125h17v-79h-17c-34 0 -46 -14 -46 -46v-10c0 -28 7 -47 51 -47h19v-78h-22c-44 0 -54 -19 -54 -46v-10c0 -46 32 -58 93 -58c74 0 94 15 94 85c-53 20 -78 63 -78 129z" />
    <glyph glyph-name="dvD_NA" horiz-adv-x="416" 
d="M37 207v150c0 102 53 142 164 142h54v76h-287v85h480v-85h-93v-168h-154c-52 0 -64 -20 -64 -52v-145c0 -33 14 -53 66 -53s66 20 66 53v64h99v-278h-99v104l-117 -92c-34 -27 -33 -51 -15 -72c15 -16 45 -22 45 -22l-64 -56s-41 2 -69 33c-41 45 -35 108 40 167l37 27
c-60 14 -89 52 -89 122z" />
    <glyph glyph-name="dvD_BA" horiz-adv-x="445" 
d="M45 254v103c0 102 56 142 173 142h63v76h-313v85h508v-85h-95v-168h-163c-58 0 -73 -23 -73 -58v-86c0 -36 17 -59 75 -59c56 0 73 21 74 56v57h98v-305c-1 -96 -51 -151 -175 -151s-172 52 -172 147v51c0 48 16 78 42 98c-28 20 -42 52 -42 97zM208 127
c-18 0 -32 -3 -42 -8l128 -101v130c-22 -16 -57 -21 -86 -21zM140 14c0 -40 11 -70 77 -70c30 0 48 6 60 17l-137 107v-6v-48z" />
    <glyph glyph-name="dvD_B_RA" horiz-adv-x="441" 
d="M62 -179l102 111c-83 10 -119 53 -119 136v33c0 48 16 79 42 98c-28 21 -42 53 -42 98v60c0 102 56 142 173 142h63v76h-313v85h505v-85h-92v-168h-163c-58 0 -73 -23 -73 -58v-44c0 -35 17 -59 75 -59c56 0 73 22 74 57v18h98v-451h-97v76c-2 -1 -4 -1 -5 -2l-112 -123
h-116zM295 74v116c-22 -15 -58 -20 -87 -20c-18 0 -31 -2 -41 -7l128 -91v2zM140 74c0 -41 11 -70 77 -70h14l1 2h12c14 2 24 7 32 13l-136 95v-9v-31z" />
    <glyph glyph-name="dvD_BHA" horiz-adv-x="542" 
d="M162 237v120c0 102 53 142 164 142h54v76h-412v85h606v-85h-93v-168h-155c-52 0 -64 -20 -64 -52v-115c0 -33 14 -54 66 -54s66 20 66 54v63h99v-278h-99v93c-1 -1 -3 -2 -5 -3l1 -1l-142 -102l29 -41c34 -48 29 -99 -33 -144c-62 -44 -112 -33 -147 15l-10 15
c-34 46 -28 97 34 142l32 23l-38 53c-12 14 -24 22 -49 5c-25 -19 -22 -34 -11 -49l15 -20l-60 -44l-16 23c-36 50 -28 101 33 144c60 45 110 36 147 -16l39 -54l52 38c-70 14 -103 60 -103 135zM218 -69l-28 40l-33 -24c-25 -19 -22 -35 -11 -51l8 -11c11 -15 26 -24 53 -5
c25 19 22 36 11 51z" />
    <glyph glyph-name="dvD_MA" horiz-adv-x="656" 
d="M37 278v77c0 101 53 144 170 144h60v76h-299v85h720v-85h-90v-678h-98v125h-125v-56h-95v188c-16 -14 -53 -21 -83 -21c-108 0 -160 53 -160 145zM280 309h96v-202h124v468h-133v-168h-160c-58 0 -70 -23 -70 -55v-74c0 -33 14 -57 72 -57c57 0 71 23 71 57v31z" />
    <glyph glyph-name="dvD_YA" horiz-adv-x="492" 
d="M524 660v-85h-90v-575h-94v67c-21 -20 -60 -36 -119 -36c-123 0 -178 49 -178 145v18c0 42 15 77 49 96c-36 19 -49 51 -49 93v23c0 74 39 99 95 104v65h-170v85h556zM334 575h-96v-124h-36c-42 0 -59 -13 -59 -50v-14c0 -32 10 -53 61 -54h38v-81h-35
c-51 0 -63 -22 -63 -54v-9c0 -55 26 -68 91 -68c66 0 99 16 99 78v376z" />
    <glyph glyph-name="dvD_VA" horiz-adv-x="424" 
d="M44 248v109c0 102 53 142 164 142h54v76h-294v85h487v-85h-93v-168h-154c-52 0 -64 -20 -64 -52v-104c0 -33 14 -53 66 -53c50 0 64 19 66 50v51h98v-279c0 -93 -51 -142 -164 -142c-112 0 -162 46 -162 139v48c0 39 14 66 36 84c-27 20 -40 52 -40 99zM276 20v122
c-15 -12 -39 -19 -68 -20c-45 -1 -64 -20 -64 -54v-48c0 -35 12 -58 66 -58s66 23 66 58z" />
    <glyph glyph-name="dvDH_NA" horiz-adv-x="893" 
d="M342 234v110c0 91 45 141 150 141h243v90h-423v85h613v-85h-90v-575h-100v393h-106c8 -12 11 -29 11 -49v-146c0 -91 -43 -141 -148 -141c-56 0 -94 14 -119 41c-28 -24 -70 -38 -130 -38c-127 0 -193 50 -193 152v54c0 50 15 84 52 99c-35 18 -46 51 -46 96v60
c0 26 6 43 19 54h-107v85h253v-85h-13c-38 0 -52 -17 -52 -54v-57c0 -32 10 -54 61 -54h39v-92h-43c-51 0 -63 -22 -63 -55v-40c0 -55 36 -73 94 -73c72 0 98 20 98 84zM546 199v142c0 32 -11 52 -54 52s-54 -20 -54 -52v-142c0 -32 11 -52 54 -52s54 20 54 52z" />
    <glyph glyph-name="dvDH_N_YA" horiz-adv-x="1210" 
d="M346 234v106c0 91 50 141 149 141h174c79 0 132 -27 151 -86c32 7 43 25 43 63v54c0 36 -10 63 -60 63h-487v85h926v-85h-90v-575h-100v119c-24 -21 -59 -33 -115 -33c-121 0 -196 53 -196 177v95c-8 23 -32 33 -67 33h-43c9 -12 13 -31 13 -51v-142
c0 -91 -44 -141 -149 -141c-51 0 -91 14 -116 42c-28 -25 -71 -39 -134 -39c-127 0 -195 50 -195 152v54c0 50 15 84 52 99c-35 18 -46 51 -46 96v60c0 26 6 43 19 54h-107v85h253v-85h-13c-38 0 -52 -17 -52 -54v-57c0 -32 10 -54 61 -54h39v-92h-43c-51 0 -63 -22 -63 -55
v-40c0 -55 38 -73 95 -73c73 0 101 20 101 84zM944 179c85 0 108 33 108 95v301h-111c12 -12 19 -32 19 -63v-71c0 -80 -42 -118 -121 -120v-47c0 -62 22 -95 105 -95zM549 199v138c0 32 -10 52 -54 52c-43 0 -53 -20 -53 -52v-138c0 -32 10 -52 53 -52c44 0 54 20 54 52z
" />
    <glyph glyph-name="dvDH_MA" horiz-adv-x="912" 
d="M346 234v69c0 86 44 135 153 135h57v137h-224v85h612v-85h-90v-575h-98v352h-103v-158c0 -85 -44 -136 -154 -136c-57 0 -97 14 -121 40c-31 -25 -75 -38 -133 -38c-127 0 -195 50 -195 152v54c0 50 15 84 52 99c-35 18 -46 51 -46 96v60c0 26 6 43 19 54h-107v85h253
v-85h-13c-38 0 -52 -17 -52 -54v-57c0 -32 10 -54 61 -54h39v-92h-43c-51 0 -63 -22 -63 -55v-40c0 -55 38 -73 95 -73c73 0 101 20 101 84zM653 438h103v137h-103v-137zM556 197v155h-57c-48 0 -57 -19 -57 -52v-103c0 -32 9 -52 57 -52c49 0 57 20 57 52z" />
    <glyph glyph-name="dvDH_YA" horiz-adv-x="815" 
d="M346 234v156h22c76 0 100 13 100 68v54c0 36 -10 63 -60 63h-77v85h516v-85h-90v-575h-100v119c-24 -21 -59 -33 -115 -33c-58 0 -105 12 -139 38c-29 -41 -81 -64 -158 -64c-127 0 -195 50 -195 152v54c0 50 15 84 52 99c-35 18 -46 51 -46 96v60c0 26 6 43 19 54h-107
v85h253v-85h-13c-38 0 -52 -17 -52 -54v-57c0 -32 10 -54 61 -54h39v-92h-43c-51 0 -63 -22 -63 -55v-40c0 -55 38 -73 95 -73c73 0 101 20 101 84zM549 179c85 0 108 33 108 95v301h-111c12 -12 19 -32 19 -63v-71c0 -80 -42 -118 -121 -120v-47c0 -62 22 -95 105 -95z" />
    <glyph glyph-name="dvDH_VA" horiz-adv-x="740" 
d="M346 234v129c0 91 46 142 154 142c34 0 65 -8 82 -20v90h-251v85h441v-85h-90v-575h-100v83c-17 -13 -48 -22 -82 -22c-57 0 -96 13 -120 38c-31 -25 -76 -39 -135 -39c-127 0 -195 50 -195 152v54c0 50 15 84 52 99c-35 18 -46 51 -46 96v60c0 26 6 43 19 54h-107v85
h253v-85h-13c-38 0 -52 -17 -52 -54v-57c0 -32 10 -54 61 -54h39v-92h-43c-51 0 -63 -22 -63 -55v-40c0 -55 38 -73 95 -73c73 0 101 20 101 84zM586 204v159c0 36 -20 56 -72 56s-71 -20 -71 -56v-159c0 -36 19 -57 71 -57s72 21 72 57z" />
    <glyph glyph-name="dvN_KA" horiz-adv-x="998" 
d="M801 69v92c50 -1 62 15 62 53v147c0 33 -9 56 -58 56c-50 0 -59 -22 -59 -56v-361h-99v80c-14 -12 -40 -20 -70 -20c-102 0 -145 46 -145 137v167c0 10 1 20 2 29h-109c9 -12 12 -29 12 -49v-146c0 -91 -44 -141 -149 -141s-150 50 -150 141v146c0 91 45 141 150 141h299
c22 13 52 20 90 20c30 0 56 -8 70 -20v90h-679v85h1062v-85h-284v-89c16 12 41 19 70 19c101 0 143 -52 143 -141v-158c0 -89 -39 -140 -139 -139c-7 0 -16 1 -19 2zM588 145c48 0 59 21 60 53v163c0 34 -10 56 -60 56s-60 -22 -60 -56v-161c0 -33 10 -55 60 -55zM242 199
v142c0 32 -11 52 -54 52s-54 -20 -54 -52v-142c0 -32 11 -52 54 -52s54 20 54 52z" />
    <glyph glyph-name="dvN_K_SA" horiz-adv-x="1438" 
d="M-32 575v85h1501v-85h-89v-575h-100v277h-151c-21 -17 -53 -26 -90 -26c-28 0 -56 5 -75 21v-130c0 -32 10 -56 61 -56c50 0 60 24 60 56v27h98v-28c0 -91 -47 -146 -158 -146c-112 0 -159 55 -159 146v219c0 34 -10 52 -60 52s-60 -22 -60 -56v-356h-99v80
c-14 -12 -40 -20 -70 -20c-102 0 -145 46 -145 137v167c0 10 1 20 2 29h-109c9 -12 12 -29 12 -49v-146c0 -91 -44 -141 -149 -141s-150 50 -150 141v146c0 91 45 141 150 141h299c22 13 52 20 90 20c30 0 56 -8 70 -20v90h-679zM1077 519c0 31 -11 56 -59 56h-272v-98
c20 15 48 24 85 24c79 0 127 -33 127 -107c0 -34 14 -54 60 -54c50 0 59 24 59 58v121zM1176 511v-117c0 -10 -2 -23 -4 -30h108v211h-126c16 -14 22 -36 22 -64zM588 145c48 0 59 21 60 53v163c0 34 -10 56 -60 56s-60 -22 -60 -56v-161c0 -33 10 -55 60 -55zM242 199v142
c0 32 -11 52 -54 52s-54 -20 -54 -52v-142c0 -32 11 -52 54 -52s54 20 54 52z" />
    <glyph glyph-name="dvN_CA" horiz-adv-x="832" 
d="M532 340v-132c0 -39 15 -61 68 -61c55 0 73 21 74 56v372h-706v85h895v-85h-89v-575h-100v81c-22 -16 -53 -23 -87 -23c-108 0 -155 50 -155 148v131c0 26 6 45 20 58h-128c9 -12 13 -31 13 -51v-146c0 -91 -44 -141 -149 -141s-150 50 -150 141v146c0 91 45 141 150 141
h440v-87h-39c-47 0 -57 -26 -57 -58zM242 199v142c0 32 -11 52 -54 52s-54 -20 -54 -52v-142c0 -32 11 -52 54 -52s54 20 54 52z" />
    <glyph glyph-name="dvN_CHA" horiz-adv-x="917" 
d="M869 359v-187c0 -115 -55 -162 -216 -162c-157 0 -218 45 -218 153v29c0 43 16 77 53 93c-35 17 -47 49 -47 95v15h-117c9 -12 13 -31 13 -51v-146c0 -91 -44 -141 -149 -141s-150 50 -150 141v146c0 91 45 141 150 141h253v26c0 31 8 51 23 64h-496v85h980v-85h-143v-92
c46 -17 64 -60 64 -124zM771 176v169c0 46 -16 68 -68 68c-35 0 -54 -10 -54 -10v85s26 10 63 10v77h-109c-49 0 -62 -22 -62 -66v-125c0 -33 10 -54 61 -54h64v-89h-61c-51 0 -69 -15 -69 -56v-17c0 -53 19 -68 117 -68c99 0 118 21 118 76zM242 199v142
c0 32 -11 52 -54 52s-54 -20 -54 -52v-142c0 -32 11 -52 54 -52s54 20 54 52z" />
    <glyph glyph-name="dvN_TTA" horiz-adv-x="795" 
d="M736 405h-139c-16 0 -28 -2 -37 -6v-4h-7c-13 -9 -17 -24 -17 -43v-211c0 -32 12 -56 63 -56c50 0 62 24 62 56v88h100v-88c0 -91 -51 -146 -162 -146c-112 0 -163 55 -163 146v214c0 15 1 28 3 40h-115c9 -12 13 -31 13 -51v-146c0 -91 -44 -141 -149 -141
s-150 50 -150 141v146c0 91 45 141 150 141h329c22 7 48 11 80 11h39v79h-668v85h858v-85h-90v-170zM242 199v142c0 32 -11 52 -54 52s-54 -20 -54 -52v-142c0 -32 11 -52 54 -52s54 20 54 52z" />
    <glyph glyph-name="dvN_DDA" horiz-adv-x="809" 
d="M644 575h-676v85h873v-85h-97v-158h-155c-44 0 -57 -19 -57 -48v-15c0 -30 12 -49 57 -49h22c111 0 162 -44 162 -135v-38c0 -91 -55 -137 -169 -137c-115 0 -171 46 -171 137v28h100v-25c0 -32 16 -53 70 -53c53 0 70 21 70 53v32c0 31 -12 53 -62 53h-22
c-103 0 -157 39 -157 130v24c0 7 0 14 1 21h-109c9 -12 13 -31 13 -51v-146c0 -91 -44 -141 -149 -141s-150 50 -150 141v146c0 91 45 141 150 141h301c25 13 59 19 100 19h55v71zM242 199v142c0 32 -11 52 -54 52s-54 -20 -54 -52v-142c0 -32 11 -52 54 -52s54 20 54 52z
" />
    <glyph glyph-name="dvN_TA" horiz-adv-x="840" 
d="M604 93v-93c-6 -1 -17 -2 -25 -2c-106 -1 -143 50 -143 140v210c0 17 2 33 5 47h-117c9 -12 13 -31 13 -51v-146c0 -91 -44 -141 -149 -141s-150 50 -150 141v146c0 91 45 141 150 141h327c22 10 49 15 82 15c37 0 67 -8 85 -21v96h-714v85h903v-85h-89v-575h-100v345
c0 36 -17 62 -73 62s-73 -26 -73 -62v-199c0 -38 18 -54 68 -53zM242 199v142c0 32 -11 52 -54 52s-54 -20 -54 -52v-142c0 -32 11 -52 54 -52s54 20 54 52z" />
    <glyph glyph-name="dvN_T_YA" horiz-adv-x="1143" 
d="M-32 575v85h1207v-85h-89v-575h-101v119c-23 -21 -59 -33 -114 -33c-121 0 -197 53 -197 177v105c-8 13 -23 23 -51 23h-14c-56 0 -73 -27 -73 -62v-183c0 -38 18 -54 68 -53v-93c-6 -1 -18 -2 -25 -2c-106 -1 -143 50 -143 140v193c0 23 3 44 9 62h-121
c9 -12 13 -30 13 -51v-144c0 -91 -44 -141 -149 -141s-150 50 -150 141v144c0 92 45 141 150 141h437c82 0 122 -31 136 -79c25 8 35 26 35 61v47c0 36 -9 63 -59 63h-769zM878 179c84 0 107 33 107 95v301h-110c12 -12 19 -32 19 -63v-64c0 -80 -43 -118 -121 -120v-54
c0 -62 22 -95 105 -95zM242 199v140c0 33 -11 52 -54 52s-54 -19 -54 -52v-140c0 -32 11 -52 54 -52s54 20 54 52z" />
    <glyph glyph-name="dvN_T_RA" horiz-adv-x="858" 
d="M430 33v2l265 290c9 11 13 16 14 23c0 31 -15 54 -87 54c-22 0 -39 -3 -52 -7v-2h-4c-27 -12 -36 -34 -36 -65v-55h-97v61c0 22 2 41 7 59h-115c9 -12 12 -29 12 -49v-146c0 -91 -44 -141 -149 -141s-150 50 -150 141v146c0 91 45 141 150 141h351c20 5 44 8 71 8
c51 0 86 -11 99 -27v109h-741v85h931v-85h-90v-575h-95v110c0 33 3 94 6 117l-1 1c-12 -24 -41 -61 -56 -78l-107 -117h-126zM242 199v142c0 32 -11 52 -54 52s-54 -20 -54 -52v-142c0 -32 11 -52 54 -52s54 20 54 52z" />
    <glyph glyph-name="dvN_T_SA" horiz-adv-x="1253" 
d="M779 486v-87c0 -32 8 -55 57 -55c48 0 57 23 57 55v120c0 31 -12 56 -60 56h-865v85h1317v-85h-90v-575h-100v281h-151c-21 -17 -53 -26 -89 -26c-29 0 -57 5 -76 20v-133c0 -32 10 -56 61 -56c50 0 60 24 60 56v30h99v-31c0 -91 -48 -146 -159 -146s-159 55 -159 146
v253h-72c-9 0 -17 -1 -24 -2v-4h-15c-25 -10 -34 -30 -34 -56v-186c0 -38 18 -54 68 -53v-93c-6 -1 -18 -2 -25 -2c-106 -1 -143 50 -143 140v197c0 19 2 37 6 53h-118c9 -11 13 -30 13 -50v-140c0 -91 -44 -141 -149 -141s-150 50 -150 141v140c0 91 45 140 150 140h349
c21 5 44 8 72 8h170zM991 511v-113c0 -10 -1 -23 -4 -31h108v208h-126c16 -14 22 -36 22 -64zM242 199v136c0 32 -11 52 -54 52s-54 -20 -54 -52v-136c0 -32 11 -52 54 -52s54 20 54 52z" />
    <glyph glyph-name="dvN_THA" horiz-adv-x="960" 
d="M188 461h182c58 0 99 -16 123 -50h46c69 0 97 17 97 78v30c0 35 -5 56 -47 56c-41 0 -48 -21 -48 -56v-24h-96v21c0 94 39 149 142 149c102 0 140 -52 140 -146v-44c0 -104 -55 -152 -176 -152h-20v-33c0 -79 28 -118 135 -118c109 0 136 48 136 134v354h189v-85h-89
v-575h-100v122c-32 -28 -80 -42 -151 -42c-154 0 -222 78 -222 207v54c-6 20 -24 30 -54 30h-51c9 -12 13 -31 13 -51v-122c0 -91 -44 -141 -149 -141s-150 50 -150 141v122c0 91 45 141 150 141zM388 660v-85h-420v85h420zM242 199v118c0 32 -11 52 -54 52s-54 -20 -54 -52
v-118c0 -32 11 -52 54 -52s54 20 54 52z" />
    <glyph glyph-name="dvN_TH_YA" horiz-adv-x="1257" 
d="M188 461h182c58 0 99 -16 123 -50h46c69 0 97 17 97 78v30c0 35 -5 56 -47 56c-41 0 -48 -21 -48 -56v-24h-96v21c0 94 39 149 142 149c102 0 140 -52 140 -146v-44c0 -104 -55 -152 -176 -152h-20v-37c0 -75 27 -114 127 -114c104 0 130 42 130 129v89h22
c76 0 100 13 100 68v54c0 36 -9 63 -59 63h-79v85h517v-85h-90v-575h-100v119c-23 -21 -59 -33 -114 -33c-69 0 -124 17 -158 55c-36 -40 -93 -61 -168 -61c-151 0 -230 67 -230 203v58c-6 20 -24 30 -54 30h-51c9 -12 13 -31 13 -51v-122c0 -91 -44 -141 -149 -141
s-150 50 -150 141v122c0 91 45 141 150 141zM388 660v-85h-420v85h420zM992 179c84 0 107 33 107 95v301h-111c13 -12 20 -32 20 -63v-71c0 -80 -43 -118 -122 -120v-47c0 -62 22 -95 106 -95zM242 199v118c0 32 -11 52 -54 52s-54 -20 -54 -52v-118c0 -32 11 -52 54 -52
s54 20 54 52z" />
    <glyph glyph-name="dvN_TH_VA" horiz-adv-x="1191" 
d="M188 461h182c58 0 99 -16 123 -50h46c69 0 97 17 97 78v30c0 35 -5 56 -47 56c-41 0 -48 -21 -48 -56v-24h-96v21c0 94 39 149 142 149c102 0 140 -52 140 -146v-44c0 -104 -55 -152 -176 -152h-20v-37c0 -75 23 -114 131 -114c111 0 135 42 135 129v62
c0 91 46 142 154 142c34 0 66 -8 82 -20v90h-252v85h442v-85h-90v-575h-100v83c-16 -13 -48 -22 -82 -22c-72 0 -116 21 -137 61c-37 -28 -87 -42 -151 -42c-154 0 -234 67 -234 203v58c-6 20 -24 30 -54 30h-51c9 -12 13 -31 13 -51v-122c0 -91 -44 -141 -149 -141
s-150 50 -150 141v122c0 91 45 141 150 141zM388 660v-85h-420v85h420zM1037 204v159c0 36 -20 56 -72 56s-70 -20 -70 -56v-159c0 -36 18 -57 70 -57s72 21 72 57zM242 199v118c0 32 -11 52 -54 52s-54 -20 -54 -52v-118c0 -32 11 -52 54 -52s54 20 54 52z" />
    <glyph glyph-name="dvN_DA" horiz-adv-x="812" 
d="M433 207v150c0 13 1 25 3 36h-111c8 -12 11 -29 11 -49v-146c0 -91 -44 -141 -148 -141c-105 0 -150 50 -150 141v146c0 91 45 141 150 141h318c24 10 54 14 91 14h54v76h-683v85h876v-85h-93v-168h-154c-52 0 -64 -20 -64 -52v-145c0 -33 14 -53 66 -53s66 20 66 53v64
h99v-278h-99v92c-20 -14 -48 -20 -78 -20c-105 0 -154 48 -154 139zM241 199v142c0 32 -10 52 -53 52c-44 0 -54 -20 -54 -52v-142c0 -32 10 -52 54 -52c43 0 53 20 53 52z" />
    <glyph glyph-name="dvN_D_RA" horiz-adv-x="817" 
d="M430 -66l111 154c-70 11 -103 48 -103 123v146c0 13 1 25 3 36h-116c9 -12 12 -29 12 -49v-146c0 -91 -44 -141 -149 -141s-150 50 -150 141v146c0 91 45 141 150 141h322c24 10 54 14 91 14h55v76h-688v85h880v-85h-92v-168h-155c-51 0 -63 -20 -63 -52v-141
c0 -33 14 -54 66 -54c51 0 65 21 65 54v60h99v-278h-99v110c-2 -1 -3 -3 -5 -4l-122 -168h-112zM242 199v142c0 32 -11 52 -54 52s-54 -20 -54 -52v-142c0 -32 11 -52 54 -52s54 20 54 52z" />
    <glyph glyph-name="dvN_D_VA" horiz-adv-x="816" 
d="M437 248v109c0 13 1 25 3 36h-115c9 -12 12 -29 12 -49v-146c0 -91 -44 -141 -149 -141s-150 50 -150 141v146c0 91 45 141 150 141h322c24 10 54 14 91 14h54v76h-687v85h880v-85h-93v-168h-154c-52 0 -64 -20 -64 -52v-104c0 -33 14 -53 66 -53c50 0 65 19 66 50v51h99
v-279c0 -93 -52 -142 -165 -142c-112 0 -162 46 -162 139v48c0 39 14 66 36 84c-27 20 -40 52 -40 99zM242 199v142c0 32 -11 52 -54 52s-54 -20 -54 -52v-142c0 -32 11 -52 54 -52s54 20 54 52zM669 20v122c-15 -12 -39 -19 -68 -20c-45 -1 -64 -20 -64 -54v-48
c0 -35 12 -58 66 -58s66 23 66 58z" />
    <glyph glyph-name="dvN_DHA" horiz-adv-x="880" 
d="M638 318h-43c-51 0 -63 -22 -63 -55v-40c0 -55 33 -73 93 -73s97 18 97 73v437h190v-85h-89v-575h-101v92c-20 -18 -55 -32 -111 -32c-117 0 -179 56 -179 152v54c0 50 15 84 52 99c-13 7 -23 16 -30 28h-129c8 -12 11 -29 11 -49v-146c0 -91 -44 -141 -148 -141
c-105 0 -150 50 -150 141v146c0 91 45 141 150 141h250v36c0 26 7 43 19 54h-489v85h661v-85h-36c-39 0 -55 -17 -55 -54v-57c0 -32 10 -54 61 -54h39v-92zM241 199v142c0 32 -10 52 -53 52c-44 0 -54 -20 -54 -52v-142c0 -32 10 -52 54 -52c43 0 53 20 53 52z" />
    <glyph glyph-name="dvN_DH_YA" horiz-adv-x="1197" 
d="M728 234v156h22c76 0 100 13 100 68v54c0 36 -10 63 -59 63h-89v85h527v-85h-90v-575h-100v119c-24 -21 -59 -33 -114 -33c-58 0 -105 12 -139 38c-30 -41 -81 -64 -159 -64c-127 0 -195 50 -195 152v54c0 50 15 84 52 99c-13 7 -23 16 -30 28h-129c9 -12 12 -29 12 -49
v-146c0 -91 -44 -141 -149 -141s-150 50 -150 141v146c0 91 45 141 150 141h250v36c0 26 7 43 19 54h-489v85h635v-85h-12c-38 0 -53 -17 -53 -54v-57c0 -32 10 -54 61 -54h39v-92h-43c-51 0 -63 -22 -63 -55v-40c0 -55 38 -73 96 -73c72 0 100 20 100 84zM931 179
c85 0 108 33 108 95v301h-111c12 -12 19 -32 19 -63v-71c0 -80 -42 -118 -121 -120v-47c0 -62 22 -95 105 -95zM242 199v142c0 32 -11 52 -54 52s-54 -20 -54 -52v-142c0 -32 11 -52 54 -52s54 20 54 52z" />
    <glyph glyph-name="dvN_DH_RA" horiz-adv-x="880" 
d="M413 -50v2l149 140c-88 10 -130 54 -130 137v36c0 50 15 86 52 101c-13 7 -23 16 -30 27h-129c9 -12 12 -29 12 -49v-146c0 -91 -44 -141 -149 -141s-150 50 -150 141v146c0 91 45 141 150 141h250v36c0 26 7 43 19 54h-489v85h661v-85h-36c-39 0 -55 -17 -55 -54v-56
c0 -32 10 -54 61 -54h39v-93h-43c-51 0 -63 -23 -63 -55v-24c0 -55 29 -71 89 -71c67 0 101 20 101 82v410h190v-85h-89v-575h-101v120l-178 -170h-131zM242 199v142c0 32 -11 52 -54 52s-54 -20 -54 -52v-142c0 -32 11 -52 54 -52s54 20 54 52z" />
    <glyph glyph-name="dvN_DH_VA" horiz-adv-x="1122" 
d="M728 234v129c0 91 46 142 155 142c33 0 65 -8 81 -20v90h-272v85h462v-85h-90v-575h-100v83c-16 -13 -48 -22 -81 -22c-57 0 -96 13 -121 38c-31 -25 -75 -39 -135 -39c-127 0 -195 50 -195 152v54c0 50 15 84 52 99c-13 7 -23 16 -30 28h-129c9 -12 12 -29 12 -49v-146
c0 -91 -44 -141 -149 -141s-150 50 -150 141v146c0 91 45 141 150 141h250v36c0 26 7 43 19 54h-489v85h635v-85h-12c-38 0 -53 -17 -53 -54v-57c0 -32 10 -54 61 -54h39v-92h-43c-51 0 -63 -22 -63 -55v-40c0 -55 38 -73 96 -73c72 0 100 20 100 84zM968 204v159
c0 36 -20 56 -72 56s-70 -20 -70 -56v-159c0 -36 18 -57 70 -57s72 21 72 57zM242 199v142c0 32 -11 52 -54 52s-54 -20 -54 -52v-142c0 -32 11 -52 54 -52s54 20 54 52z" />
    <glyph glyph-name="dvN_NA" horiz-adv-x="979" 
d="M726 344v-146c0 -91 -43 -141 -148 -141s-150 50 -150 141v146c0 18 2 34 5 49h-108c9 -12 12 -29 12 -49v-146c0 -91 -44 -141 -149 -141s-150 50 -150 141v146c0 91 45 141 150 141h633v90h-853v85h1043v-85h-90v-575h-100v393h-106c8 -12 11 -29 11 -49zM242 199v142
c0 32 -11 52 -54 52s-54 -20 -54 -52v-142c0 -32 11 -52 54 -52s54 20 54 52zM632 199v142c0 32 -11 52 -54 52s-54 -20 -54 -52v-142c0 -32 11 -52 54 -52s54 20 54 52z" />
    <glyph glyph-name="dvN_N_YA" horiz-adv-x="1293" 
d="M-32 575v85h1356v-85h-89v-575h-100v119c-24 -21 -60 -33 -115 -33c-121 0 -197 53 -197 177v100c-8 22 -31 32 -66 32h-43c9 -12 12 -31 12 -51v-146c0 -91 -43 -141 -148 -141s-150 50 -150 141v146c0 18 2 34 6 49h-109c9 -12 12 -29 12 -49v-146
c0 -91 -44 -141 -149 -141s-150 50 -150 141v146c0 91 45 141 150 141h564c78 0 132 -27 151 -86c31 8 42 26 42 63v50c0 36 -9 63 -59 63h-918zM1027 179c84 0 108 33 108 95v301h-111c12 -12 19 -32 19 -63v-67c0 -80 -43 -117 -121 -120v-51c0 -62 22 -95 105 -95z
M242 199v142c0 32 -11 52 -54 52s-54 -20 -54 -52v-142c0 -32 11 -52 54 -52s54 20 54 52zM632 199v142c0 32 -11 52 -54 52s-54 -20 -54 -52v-142c0 -32 11 -52 54 -52s54 20 54 52z" />
    <glyph glyph-name="dvN_PA" horiz-adv-x="821" 
d="M663 0v142c-17 -13 -51 -21 -81 -21c-108 0 -150 51 -150 143v129h-107c8 -12 11 -29 11 -49v-146c0 -91 -44 -141 -148 -141c-105 0 -150 50 -150 141v146c0 91 45 141 150 141h244v90h-464v85h885v-85h-90v-575h-100zM663 575h-131v-308c0 -32 13 -56 66 -56
c52 0 65 24 65 56v308zM241 199v142c0 32 -10 52 -53 52c-44 0 -54 -20 -54 -52v-142c0 -32 10 -52 54 -52c43 0 53 20 53 52z" />
    <glyph glyph-name="dvN_P_RA" horiz-adv-x="830" 
d="M408 0l136 183c-75 12 -103 55 -103 132v78h-116c9 -12 12 -29 12 -49v-146c0 -91 -44 -141 -149 -141s-150 50 -150 141v146c0 91 45 141 150 141h253v90h-473v85h893v-85h-89v-575h-100v202l-149 -202h-115zM672 575h-131v-257c0 -33 12 -57 65 -57c54 0 66 24 66 57
v257zM242 199v142c0 32 -11 52 -54 52s-54 -20 -54 -52v-142c0 -32 11 -52 54 -52s54 20 54 52z" />
    <glyph glyph-name="dvN_PHA" horiz-adv-x="1007" 
d="M808 63v92c49 0 61 18 61 54v145c0 32 -10 54 -59 54c-48 0 -58 -22 -58 -54v-354h-99v129c-18 -12 -44 -19 -72 -19c-104 0 -149 48 -149 139v144h-107c8 -12 11 -29 11 -49v-146c0 -91 -44 -141 -148 -141c-105 0 -150 50 -150 141v146c0 91 45 141 150 141h244v90
h-464v85h1071v-85h-287v-94c18 12 42 20 70 20c103 0 147 -55 147 -144v-156c0 -89 -44 -140 -144 -139c-6 0 -14 0 -17 1zM653 575h-121v-323c0 -32 12 -53 60 -53c47 0 61 19 61 53v323zM241 199v142c0 32 -10 52 -53 52c-44 0 -54 -20 -54 -52v-142c0 -32 10 -52 54 -52
c43 0 53 20 53 52z" />
    <glyph glyph-name="dvN_PH_RA" horiz-adv-x="1013" 
d="M414 -10l122 176c-68 11 -98 48 -98 123v104h-113c8 -12 11 -29 11 -49v-146c0 -91 -44 -141 -148 -141c-105 0 -150 50 -150 141v146c0 91 45 141 150 141h250v90h-470v85h1077v-85h-287v-94c17 12 42 20 70 20c103 0 147 -55 147 -144v-151c0 -90 -44 -141 -144 -140
c-6 0 -14 1 -17 1v93c49 -1 61 17 61 54v140c0 32 -10 54 -59 54c-47 0 -58 -20 -58 -51v-357h-99v181c-1 0 -1 -1 -2 -1l-130 -190h-113zM659 575h-121v-283c0 -33 12 -54 60 -54c49 0 61 21 61 54v283zM241 199v142c0 32 -10 52 -53 52c-44 0 -54 -20 -54 -52v-142
c0 -32 10 -52 54 -52c43 0 53 20 53 52z" />
    <glyph glyph-name="dvN_BHA" horiz-adv-x="997" 
d="M188 446h186c58 0 101 -13 128 -42c22 9 50 14 85 14h57v100c0 32 -7 54 -54 54s-54 -22 -54 -54v-18h-100v21c0 91 46 144 154 144c107 0 154 -53 154 -144v-103h105v242h189v-85h-89v-575h-100v333h-109v-139c0 -86 -44 -136 -153 -136s-154 50 -154 136v90
c0 19 2 36 7 51c-11 15 -32 22 -61 22h-55c9 -12 13 -31 13 -51v-108c0 -91 -44 -141 -149 -141s-150 50 -150 141v108c0 91 45 140 150 140zM371 660v-85h-403v85h403zM242 199v104c0 32 -11 52 -54 52s-54 -20 -54 -52v-104c0 -32 11 -52 54 -52s54 20 54 52zM644 196v137
h-57c-49 0 -57 -20 -57 -52v-85c0 -31 8 -52 57 -52c48 0 57 20 57 52z" />
    </font>
</defs>
</svg>
